<svg width="50" height="44" viewBox="0 0 50 44" fill="none" xmlns="http://www.w3.org/2000/svg">
<path d="M6.58995 1.06131C6.22775 1.30005 5.93031 1.62478 5.72419 2.00648C5.51806 2.38819 5.40967 2.815 5.4087 3.24881V35.6238C5.40807 35.7969 5.45946 35.9662 5.55619 36.1097C5.65292 36.2532 5.79053 36.3644 5.9512 36.4288L24.1249 43.9888V7.32631L9.0837 0.842558C8.68247 0.669478 8.2445 0.598853 7.8092 0.637038C7.3739 0.675222 6.95492 0.821017 6.58995 1.06131Z" fill="#FFDA7D"/>
<path d="M4.28875 37.3211C3.88023 36.8502 3.65638 36.2471 3.65875 35.6236C3.65875 35.6236 3.62969 2.78816 3.76375 2.29494C3.37693 2.20161 2.97402 2.1968 2.58508 2.28088C2.19614 2.36496 1.83119 2.53575 1.51745 2.78052C1.20371 3.02529 0.949271 3.33772 0.773102 3.69453C0.596933 4.05133 0.50358 4.4433 0.500003 4.84121V36.1311C0.499179 36.7164 0.694311 37.2851 1.05429 37.7466C1.41427 38.2081 1.91838 38.5357 2.48625 38.6774L13.2925 41.3811L5.2775 38.0474C4.89469 37.8877 4.55567 37.6387 4.28875 37.3211Z" fill="#FFDA7D"/>
<path d="M44.5913 35.624V3.24898C44.5853 2.81533 44.4729 2.38981 44.2641 2.00973C44.0552 1.62966 43.7562 1.30667 43.3934 1.06911C43.0306 0.831552 42.615 0.686684 42.1831 0.647222C41.7512 0.607761 41.3162 0.674914 40.9163 0.842787L25.8751 7.32648C25.8756 9.3117 25.8747 41.9961 25.8751 43.989L44.0488 36.429C44.2095 36.3646 44.3471 36.2534 44.4439 36.1099C44.5406 35.9663 44.592 35.7971 44.5913 35.624Z" fill="#FFDA7D"/>
<path d="M48.5288 2.80269C48.2116 2.54707 47.8397 2.36825 47.442 2.28021C47.0443 2.19217 46.6317 2.1973 46.2363 2.29519C46.3063 2.60144 46.3413 35.6239 46.3413 35.6239C46.3402 36.1425 46.186 36.6491 45.898 37.0803C45.61 37.5115 45.2011 37.8481 44.7225 38.0477L36.7075 41.3814L47.5138 38.6777C48.0816 38.536 48.5857 38.2084 48.9457 37.7469C49.3057 37.2854 49.5008 36.7167 49.5 36.1314V4.84144C49.5002 4.45073 49.4131 4.06492 49.245 3.71219C49.077 3.35946 48.8323 3.04873 48.5288 2.80269Z" fill="#FFDA7D"/>
</svg>
