<svg width="26" height="48" viewBox="0 0 26 48" fill="none" xmlns="http://www.w3.org/2000/svg">
<path d="M9.1589 19.1051C9.12017 19.1051 9.08072 19.108 9.03981 19.114C9.08581 19.1071 9.13252 19.1048 9.17671 19.1053L9.1589 19.1051ZM9.29853 20.7297C9.10162 20.7646 8.98217 20.8993 8.92836 20.9766C8.83145 21.1159 8.79235 21.2851 8.8209 21.4408L9.14345 23.1984C9.17109 23.3482 9.2538 23.4824 9.37653 23.5759C9.40944 23.6011 9.4438 23.6222 9.4809 23.6406L9.51545 23.6559C9.82927 23.7848 10.0307 24.094 10.0222 24.4329C10.0136 24.7722 9.79672 25.0708 9.4769 25.1838C5.32054 26.6529 2.50562 30.6024 2.47253 35.0115C2.47308 35.0691 2.47616 35.1389 2.47889 35.2088L2.48271 35.3057C2.48325 35.3273 2.48326 35.3489 2.48253 35.3708C2.47544 35.5286 2.47035 35.6871 2.47035 35.8468C2.47035 41.6407 7.18399 46.3544 12.9778 46.3544C16.7442 46.3544 20.3565 44.2221 22.1802 40.9224C23.0929 39.2706 23.5583 37.3426 23.5274 35.3471C23.482 32.5877 22.4638 29.9135 20.7311 28.0102C19.622 26.7915 18.2238 25.8408 16.6889 25.2611C16.3449 25.1311 16.1298 24.7877 16.1633 24.4217C16.1965 24.0555 16.4698 23.7566 16.8318 23.6906L16.8629 23.6849L16.8662 23.684C16.9416 23.6651 17.0127 23.6315 17.0774 23.5842L17.0863 23.5773C17.3907 23.3468 17.4814 22.6324 17.5542 22.0584C17.5816 21.8426 17.6074 21.6389 17.6438 21.4409C17.6878 21.2015 17.5849 20.9577 17.3818 20.8202L17.3542 20.8035C17.2867 20.7631 17.2169 20.7364 17.1453 20.7235L17.0963 20.7148C16.8467 20.6691 16.6325 20.51 16.5164 20.2846C16.4004 20.0589 16.3953 19.7922 16.5033 19.5624C17.9725 16.4319 19.6529 12.7173 20.9747 8.90294C21.0965 8.55094 21.2383 8.19149 21.3765 7.84367C21.8311 6.70331 22.2984 5.52422 22.1074 4.44513C21.9202 3.39895 20.9056 2.64367 19.0874 2.2004C17.1444 1.7264 15.1111 1.6673 13.1951 1.6473C9.01854 1.60294 5.87398 2.28621 4.76816 3.47258C4.43653 3.82821 4.29981 4.21494 4.33817 4.68949C4.3709 5.09785 4.46618 5.62094 4.62072 6.24421C5.16654 8.44294 5.96763 10.5362 7.00199 13.0026C7.41599 13.9897 7.87562 15.0384 8.40744 16.2091C8.44108 16.2831 8.54199 16.5237 8.67708 16.8468C8.93181 17.4558 9.58871 19.026 9.78562 19.3975C9.87525 19.5042 9.93871 19.6351 9.96452 19.7822C10.0425 20.2273 9.7449 20.6513 9.29981 20.7293L9.29853 20.7297ZM12.9778 47.9907C6.28162 47.9907 0.833984 42.5431 0.833984 35.8468C0.833984 35.6744 0.839074 35.5035 0.846165 35.3329L0.843803 35.2753C0.840349 35.1878 0.836896 35.1002 0.836168 35.0119C0.871259 30.3333 3.60308 26.1111 7.75272 24.1291C7.64926 23.9313 7.57507 23.7175 7.53416 23.4939L7.21144 21.7364C7.10471 21.1548 7.2407 20.5371 7.58507 20.042C7.71743 19.8519 7.87417 19.6862 8.04981 19.5486C8.00762 19.4535 7.96361 19.3524 7.91689 19.2457C7.66652 18.6715 7.37798 17.9818 7.16744 17.4782C7.04198 17.1782 6.94871 16.9546 6.91744 16.8859C6.37907 15.7006 5.91308 14.6373 5.4929 13.6355C4.57253 11.4409 3.63743 9.0744 3.03271 6.6384C2.85416 5.91931 2.74763 5.32458 2.70708 4.82094C2.63236 3.89531 2.93125 3.04313 3.57125 2.35658C5.53634 0.248762 10.4509 -0.0197836 13.212 0.0111255C15.2233 0.0320345 17.3634 0.0954841 19.4747 0.610575C22.5965 1.37185 23.5056 2.96021 23.7183 4.15858C23.9911 5.69585 23.4111 7.15803 22.8984 8.44785C22.7602 8.79403 22.6311 9.12113 22.5202 9.43876C21.2802 13.0175 19.7384 16.492 18.3413 19.4944C19.0547 20.0026 19.4111 20.8758 19.2529 21.7362C19.2256 21.8898 19.202 22.0719 19.1784 22.2644C19.0947 22.9239 18.9947 23.7042 18.5909 24.3246C19.8438 24.9815 20.9856 25.8591 21.9402 26.9086C23.9674 29.1348 25.1111 32.1222 25.1638 35.3208C25.2002 37.6017 24.6638 39.8124 23.6129 41.7138C21.5056 45.5269 17.3305 47.9907 12.9778 47.9907Z" fill="#474747"/>
<path d="M24.304 35.8466C24.304 42.1017 19.2331 47.1724 12.978 47.1724C6.72289 47.1724 1.65234 42.1017 1.65234 35.8466C1.65234 29.5917 6.72289 24.5211 12.978 24.5211C19.2331 24.5211 24.304 29.5917 24.304 35.8466Z" fill="#C24402"/>
<path d="M24.304 35.8466C24.304 42.1017 19.2331 47.1724 12.978 47.1724C6.72289 47.1724 1.65234 42.1017 1.65234 35.8466C1.65234 29.5917 6.72289 24.5211 12.978 24.5211C19.2331 24.5211 24.304 29.5917 24.304 35.8466Z" fill="#991602"/>
<mask id="mask0_1286_5319" style="mask-type:luminance" maskUnits="userSpaceOnUse" x="7" y="19" width="12" height="6">
<path d="M18.1257 23.3461C17.9851 24.1106 17.2627 24.6239 16.4947 24.5035C15.59 24.3617 14.3748 24.2275 13.2322 24.2275C12.0897 24.2275 10.8742 24.3617 9.96948 24.5035C9.20166 24.6239 8.47913 24.1106 8.33876 23.3461L8.01604 21.5886C7.87258 20.8075 8.39113 20.0608 9.17222 19.9184C10.2566 19.7208 11.7933 19.5893 13.2322 19.5893C14.6711 19.5893 16.2077 19.7208 17.2922 19.9184C18.0735 20.0608 18.5917 20.8075 18.4484 21.5886L18.1257 23.3461Z" fill="white"/>
</mask>
<g mask="url(#mask0_1286_5319)">
<path d="M18.1257 23.3461C17.9851 24.1106 17.2627 24.6239 16.4947 24.5035C15.59 24.3617 14.3748 24.2275 13.2322 24.2275C12.0897 24.2275 10.8742 24.3617 9.96948 24.5035C9.20166 24.6239 8.47913 24.1106 8.33876 23.3461L8.01604 21.5886C7.87258 20.8075 8.39113 20.0608 9.17222 19.9184C10.2566 19.7208 11.7933 19.5893 13.2322 19.5893C14.6711 19.5893 16.2077 19.7208 17.2922 19.9184C18.0735 20.0608 18.5917 20.8075 18.4484 21.5886L18.1257 23.3461Z" fill="url(#paint0_linear_1286_5319)"/>
</g>
<mask id="mask1_1286_5319" style="mask-type:luminance" maskUnits="userSpaceOnUse" x="3" y="0" width="20" height="20">
<path d="M9.17114 19.9194C7.77605 16.9489 3.80787 8.24325 3.52642 4.75525C3.24005 1.2047 9.98677 0.827433 12.8691 0.827433C12.9888 0.827433 13.1019 0.827976 13.2075 0.829249C13.3131 0.827976 13.4259 0.827433 13.5457 0.827433C16.3651 0.827433 22.8804 1.18834 22.8968 4.5258C22.8859 2.4707 20.4113 1.54452 17.8537 1.1358H17.8521C17.5351 1.1218 17.2306 1.11488 16.9391 1.11488C12.139 1.11488 10.7399 2.98943 11.1877 6.10307C10.907 5.7867 9.20187 5.35052 7.4395 5.35052C6.04805 5.35052 4.62096 5.62234 3.83023 6.4398C4.83969 10.5047 7.96587 17.3529 9.17114 19.9194ZM11.2233 6.33089C11.223 6.32852 11.2226 6.32616 11.2222 6.32361C11.2226 6.32616 11.223 6.32834 11.2233 6.33089ZM20.6295 2.89034C19.8477 2.42143 18.243 1.95525 16.6808 1.95525C16.3106 1.95525 15.9426 1.98143 15.5886 2.03998C15.9426 1.98143 16.3106 1.95525 16.681 1.95525C18.243 1.95525 19.8477 2.42125 20.6295 2.89034ZM22.8895 4.73525C22.8895 4.73434 22.8895 4.73379 22.8895 4.73288C22.8895 4.73361 22.8895 4.73452 22.8895 4.73525ZM22.8913 4.72561C22.8913 4.7247 22.8913 4.72416 22.8913 4.72343C22.8913 4.72398 22.8913 4.72489 22.8913 4.72561ZM22.8913 4.70452C22.8913 4.7038 22.8913 4.70289 22.8913 4.70216C22.8913 4.70307 22.8913 4.70362 22.8913 4.70452ZM22.8931 4.69507C22.8931 4.69398 22.8931 4.69288 22.8931 4.69161C22.8931 4.6927 22.8931 4.69398 22.8931 4.69507ZM22.895 4.66434C22.895 4.66288 22.895 4.66125 22.895 4.65979C22.895 4.66143 22.895 4.6627 22.895 4.66434ZM22.895 4.65543C22.895 4.65325 22.895 4.65089 22.895 4.64889C22.895 4.65107 22.895 4.65325 22.895 4.65543ZM22.895 4.64452C22.895 4.64289 22.895 4.64143 22.895 4.6398C22.895 4.64143 22.895 4.64307 22.895 4.64452ZM22.8968 4.57543C22.8968 4.56943 22.8968 4.56343 22.8968 4.55743C22.8968 4.56325 22.8968 4.56943 22.8968 4.57543ZM22.8968 4.54452C22.8968 4.53852 22.8968 4.53234 22.8968 4.52616C22.8968 4.53216 22.8968 4.53852 22.8968 4.54452Z" fill="white"/>
</mask>
<g mask="url(#mask1_1286_5319)">
<path d="M9.17114 19.9194C7.77605 16.9489 3.80787 8.24325 3.52642 4.75525C3.24005 1.2047 9.98677 0.827433 12.8691 0.827433C12.9888 0.827433 13.1019 0.827976 13.2075 0.829249C13.3131 0.827976 13.4259 0.827433 13.5457 0.827433C16.3651 0.827433 22.8804 1.18834 22.8968 4.5258C22.8859 2.4707 20.4113 1.54452 17.8537 1.1358H17.8521C17.5351 1.1218 17.2306 1.11488 16.9391 1.11488C12.139 1.11488 10.7399 2.98943 11.1877 6.10307C10.907 5.7867 9.20187 5.35052 7.4395 5.35052C6.04805 5.35052 4.62096 5.62234 3.83023 6.4398C4.83969 10.5047 7.96587 17.3529 9.17114 19.9194ZM11.2233 6.33089C11.223 6.32852 11.2226 6.32616 11.2222 6.32361C11.2226 6.32616 11.223 6.32834 11.2233 6.33089ZM20.6295 2.89034C19.8477 2.42143 18.243 1.95525 16.6808 1.95525C16.3106 1.95525 15.9426 1.98143 15.5886 2.03998C15.9426 1.98143 16.3106 1.95525 16.681 1.95525C18.243 1.95525 19.8477 2.42125 20.6295 2.89034ZM22.8895 4.73525C22.8895 4.73434 22.8895 4.73379 22.8895 4.73288C22.8895 4.73361 22.8895 4.73452 22.8895 4.73525ZM22.8913 4.72561C22.8913 4.7247 22.8913 4.72416 22.8913 4.72343C22.8913 4.72398 22.8913 4.72489 22.8913 4.72561ZM22.8913 4.70452C22.8913 4.7038 22.8913 4.70289 22.8913 4.70216C22.8913 4.70307 22.8913 4.70362 22.8913 4.70452ZM22.8931 4.69507C22.8931 4.69398 22.8931 4.69288 22.8931 4.69161C22.8931 4.6927 22.8931 4.69398 22.8931 4.69507ZM22.895 4.66434C22.895 4.66288 22.895 4.66125 22.895 4.65979C22.895 4.66143 22.895 4.6627 22.895 4.66434ZM22.895 4.65543C22.895 4.65325 22.895 4.65089 22.895 4.64889C22.895 4.65107 22.895 4.65325 22.895 4.65543ZM22.895 4.64452C22.895 4.64289 22.895 4.64143 22.895 4.6398C22.895 4.64143 22.895 4.64307 22.895 4.64452ZM22.8968 4.57543C22.8968 4.56943 22.8968 4.56343 22.8968 4.55743C22.8968 4.56325 22.8968 4.56943 22.8968 4.57543ZM22.8968 4.54452C22.8968 4.53852 22.8968 4.53234 22.8968 4.52616C22.8968 4.53216 22.8968 4.53852 22.8968 4.54452Z" fill="url(#paint1_linear_1286_5319)"/>
</g>
<mask id="mask2_1286_5319" style="mask-type:luminance" maskUnits="userSpaceOnUse" x="3" y="5" width="13" height="15">
<path d="M9.16708 19.9194C7.96181 17.3529 4.83563 10.5047 3.82617 6.4398C4.6169 5.62234 6.04399 5.35053 7.43544 5.35053C9.1978 5.35053 10.9029 5.78671 11.1836 6.10307C11.1942 6.1758 11.2056 6.24961 11.2182 6.32361C11.2185 6.32616 11.2189 6.32853 11.2193 6.33089C11.6585 8.92998 14.2027 16.5891 15.2524 19.6685C14.5947 19.618 13.9029 19.5894 13.2322 19.5894C13.2273 19.5894 13.2223 19.5894 13.2174 19.5894C13.2158 19.5894 13.2142 19.5894 13.2125 19.5894C13.2082 19.5894 13.204 19.5894 13.1996 19.5894C13.1993 19.5894 13.1985 19.5894 13.198 19.5894C13.1933 19.5894 13.1882 19.5894 13.1835 19.5894C13.1818 19.5894 13.18 19.5894 13.1782 19.5894C13.1747 19.5894 13.1711 19.5894 13.1674 19.5894C13.166 19.5894 13.1645 19.5894 13.1633 19.5896C13.1585 19.5896 13.154 19.5896 13.1494 19.5896C13.1473 19.5896 13.1449 19.5896 13.1427 19.5896C13.14 19.5896 13.1374 19.5896 13.1347 19.5896C13.1325 19.5896 13.1304 19.5896 13.1284 19.5896C13.1247 19.5896 13.1211 19.5896 13.1174 19.5896C13.1145 19.5898 13.1118 19.5898 13.1089 19.5898C13.106 19.5898 13.1033 19.5898 13.1005 19.5898C13.0978 19.5898 13.0953 19.5898 13.0925 19.5898C13.0909 19.5898 13.0894 19.5898 13.0878 19.5898C11.6913 19.5983 10.2204 19.7274 9.17218 19.9185C9.17054 19.9189 9.16872 19.9191 9.16708 19.9194Z" fill="white"/>
</mask>
<g mask="url(#mask2_1286_5319)">
<path d="M9.16708 19.9194C7.96181 17.3529 4.83563 10.5047 3.82617 6.4398C4.6169 5.62234 6.04399 5.35053 7.43544 5.35053C9.1978 5.35053 10.9029 5.78671 11.1836 6.10307C11.1942 6.1758 11.2056 6.24961 11.2182 6.32361C11.2185 6.32616 11.2189 6.32853 11.2193 6.33089C11.6585 8.92998 14.2027 16.5891 15.2524 19.6685C14.5947 19.618 13.9029 19.5894 13.2322 19.5894C13.2273 19.5894 13.2223 19.5894 13.2174 19.5894C13.2158 19.5894 13.2142 19.5894 13.2125 19.5894C13.2082 19.5894 13.204 19.5894 13.1996 19.5894C13.1993 19.5894 13.1985 19.5894 13.198 19.5894C13.1933 19.5894 13.1882 19.5894 13.1835 19.5894C13.1818 19.5894 13.18 19.5894 13.1782 19.5894C13.1747 19.5894 13.1711 19.5894 13.1674 19.5894C13.166 19.5894 13.1645 19.5894 13.1633 19.5896C13.1585 19.5896 13.154 19.5896 13.1494 19.5896C13.1473 19.5896 13.1449 19.5896 13.1427 19.5896C13.14 19.5896 13.1374 19.5896 13.1347 19.5896C13.1325 19.5896 13.1304 19.5896 13.1284 19.5896C13.1247 19.5896 13.1211 19.5896 13.1174 19.5896C13.1145 19.5898 13.1118 19.5898 13.1089 19.5898C13.106 19.5898 13.1033 19.5898 13.1005 19.5898C13.0978 19.5898 13.0953 19.5898 13.0925 19.5898C13.0909 19.5898 13.0894 19.5898 13.0878 19.5898C11.6913 19.5983 10.2204 19.7274 9.17218 19.9185C9.17054 19.9189 9.16872 19.9191 9.16708 19.9194Z" fill="url(#paint2_linear_1286_5319)"/>
</g>
<path d="M22.884 4.75415C22.8858 4.75087 22.8858 4.74815 22.8858 4.74488C22.8858 4.74815 22.8858 4.75105 22.884 4.75415Z" fill="#DBE151"/>
<path d="M22.8867 4.74365C22.8867 4.74074 22.8867 4.73802 22.8867 4.73511C22.8867 4.73783 22.8867 4.74093 22.8867 4.74365ZM22.8885 4.70202C22.8904 4.69983 22.8904 4.69729 22.8904 4.69493C22.8904 4.69747 22.8904 4.69965 22.8885 4.70202ZM22.8904 4.69147C22.8904 4.68874 22.8904 4.68638 22.8904 4.68383C22.8904 4.68638 22.8904 4.68892 22.8904 4.69147ZM22.8904 4.68038C22.8904 4.67856 22.8904 4.67674 22.8904 4.67492C22.8904 4.67692 22.8904 4.67856 22.8904 4.68038ZM22.8922 4.65965C22.8922 4.6582 22.8922 4.65692 22.8922 4.65529C22.8922 4.65674 22.8922 4.6582 22.8922 4.65965ZM22.8922 4.64874C22.8922 4.64729 22.8922 4.64565 22.8922 4.64438C22.8922 4.64583 22.8922 4.64729 22.8922 4.64874ZM22.894 4.61511C22.894 4.61456 22.894 4.6142 22.894 4.61384C22.894 4.6142 22.894 4.61474 22.894 4.61511ZM22.894 4.59601C22.894 4.59547 22.894 4.59493 22.894 4.59456C22.894 4.59511 22.894 4.59547 22.894 4.59601ZM22.894 4.57674C22.894 4.57602 22.894 4.57583 22.894 4.57529C22.894 4.57583 22.894 4.5762 22.894 4.57674ZM22.894 4.54511C22.894 4.54474 22.894 4.54456 22.894 4.54438C22.894 4.54474 22.894 4.54474 22.894 4.54511Z" fill="#DBE151"/>
<mask id="mask3_1286_5319" style="mask-type:luminance" maskUnits="userSpaceOnUse" x="11" y="1" width="12" height="19">
<path d="M17.2425 19.9087C16.6727 19.8071 15.9833 19.7236 15.2511 19.6674C14.2015 16.588 11.6573 8.92887 11.218 6.32978C11.2176 6.32724 11.2173 6.32505 11.2169 6.32251C11.2044 6.24869 11.1944 6.17633 11.1838 6.10378L11.1836 6.10324C11.1833 6.10287 11.1827 6.10233 11.1824 6.10196C10.7346 2.98833 12.1336 1.11378 16.9338 1.11378C17.2253 1.11378 17.5298 1.12069 17.8467 1.13469H17.8484C20.406 1.54342 22.8806 2.4696 22.8915 4.52469V4.52506C22.8915 4.53124 22.8915 4.53742 22.8915 4.54342C22.8915 4.5436 22.8915 4.54378 22.8915 4.54415C22.8915 4.54797 22.8915 4.55215 22.8915 4.55596C22.8915 4.55615 22.8915 4.55615 22.8915 4.55633C22.8915 4.56233 22.8915 4.56833 22.8915 4.57433C22.8915 4.57487 22.8915 4.57506 22.8915 4.57578C22.8915 4.5816 22.8915 4.5876 22.8915 4.5936C22.8915 4.59397 22.8915 4.59451 22.8915 4.59505C22.8915 4.59833 22.8915 4.60196 22.8915 4.60524C22.8915 4.60578 22.8915 4.60651 22.8915 4.60724C22.8915 4.60924 22.8915 4.61088 22.8915 4.61288C22.8915 4.61324 22.8915 4.6136 22.8915 4.61415C22.8915 4.61742 22.8896 4.62087 22.8896 4.62415C22.8896 4.62506 22.8896 4.62614 22.8896 4.62705C22.8896 4.62996 22.8896 4.63269 22.8896 4.6356C22.8896 4.63669 22.8896 4.6376 22.8896 4.63869C22.8896 4.64033 22.8896 4.64178 22.8896 4.64342C22.8896 4.64469 22.8896 4.64633 22.8896 4.64778C22.8896 4.64978 22.8896 4.65214 22.8896 4.65433C22.8896 4.65596 22.8896 4.65724 22.8896 4.65869C22.8896 4.66014 22.8896 4.66178 22.8896 4.66324C22.8896 4.66542 22.8878 4.6676 22.8878 4.66978C22.8878 4.67106 22.8878 4.67269 22.8878 4.67396C22.8878 4.67578 22.8878 4.6776 22.8878 4.67942C22.8878 4.68051 22.8878 4.68178 22.8878 4.68287C22.8878 4.68542 22.8878 4.68778 22.8878 4.69051C22.8878 4.69178 22.8878 4.69287 22.8878 4.69397C22.8878 4.69633 22.8878 4.69887 22.886 4.70105C22.886 4.70178 22.886 4.70269 22.886 4.70342C22.886 4.70578 22.886 4.70833 22.886 4.71087C22.886 4.71196 22.886 4.71287 22.886 4.71396C22.886 4.71669 22.886 4.7196 22.886 4.72233C22.886 4.72305 22.886 4.7236 22.886 4.72451C22.8842 4.72687 22.8842 4.72942 22.8842 4.73178C22.8842 4.73269 22.8842 4.73324 22.8842 4.73415C22.8842 4.73706 22.8842 4.73978 22.8842 4.74269C22.8842 4.74342 22.8842 4.74433 22.8842 4.74488C22.8842 4.74815 22.8842 4.75087 22.8824 4.75414C22.6024 8.23142 18.6416 16.9274 17.2425 19.9087ZM13.4476 10.3898L16.1909 19.4009C19.3442 12.9756 20.9296 8.49251 21.4478 6.69342C21.6369 6.01233 21.7115 5.45433 21.7115 4.9956C21.7115 3.56033 20.9733 3.09851 20.6242 2.88924C19.8424 2.42015 18.2376 1.95414 16.6756 1.95414C16.3053 1.95414 15.9373 1.98033 15.5833 2.03887C14.6767 2.18887 13.8613 2.55069 13.3302 3.22833C13.3155 3.24724 13.3009 3.26615 13.2865 3.28542C12.8644 3.78724 12.4438 4.58742 12.4447 5.78614C12.4449 6.1856 12.492 6.62942 12.6016 7.12124C12.6051 7.13669 12.6086 7.15214 12.612 7.16778C12.7087 7.58924 13.0273 8.80906 13.4476 10.3898Z" fill="white"/>
</mask>
<g mask="url(#mask3_1286_5319)">
<path d="M17.2425 19.9087C16.6727 19.8071 15.9833 19.7236 15.2511 19.6674C14.2015 16.588 11.6573 8.92887 11.218 6.32978C11.2176 6.32724 11.2173 6.32505 11.2169 6.32251C11.2044 6.24869 11.1944 6.17633 11.1838 6.10378L11.1836 6.10324C11.1833 6.10287 11.1827 6.10233 11.1824 6.10196C10.7346 2.98833 12.1336 1.11378 16.9338 1.11378C17.2253 1.11378 17.5298 1.12069 17.8467 1.13469H17.8484C20.406 1.54342 22.8806 2.4696 22.8915 4.52469V4.52506C22.8915 4.53124 22.8915 4.53742 22.8915 4.54342C22.8915 4.5436 22.8915 4.54378 22.8915 4.54415C22.8915 4.54797 22.8915 4.55215 22.8915 4.55596C22.8915 4.55615 22.8915 4.55615 22.8915 4.55633C22.8915 4.56233 22.8915 4.56833 22.8915 4.57433C22.8915 4.57487 22.8915 4.57506 22.8915 4.57578C22.8915 4.5816 22.8915 4.5876 22.8915 4.5936C22.8915 4.59397 22.8915 4.59451 22.8915 4.59505C22.8915 4.59833 22.8915 4.60196 22.8915 4.60524C22.8915 4.60578 22.8915 4.60651 22.8915 4.60724C22.8915 4.60924 22.8915 4.61088 22.8915 4.61288C22.8915 4.61324 22.8915 4.6136 22.8915 4.61415C22.8915 4.61742 22.8896 4.62087 22.8896 4.62415C22.8896 4.62506 22.8896 4.62614 22.8896 4.62705C22.8896 4.62996 22.8896 4.63269 22.8896 4.6356C22.8896 4.63669 22.8896 4.6376 22.8896 4.63869C22.8896 4.64033 22.8896 4.64178 22.8896 4.64342C22.8896 4.64469 22.8896 4.64633 22.8896 4.64778C22.8896 4.64978 22.8896 4.65214 22.8896 4.65433C22.8896 4.65596 22.8896 4.65724 22.8896 4.65869C22.8896 4.66014 22.8896 4.66178 22.8896 4.66324C22.8896 4.66542 22.8878 4.6676 22.8878 4.66978C22.8878 4.67106 22.8878 4.67269 22.8878 4.67396C22.8878 4.67578 22.8878 4.6776 22.8878 4.67942C22.8878 4.68051 22.8878 4.68178 22.8878 4.68287C22.8878 4.68542 22.8878 4.68778 22.8878 4.69051C22.8878 4.69178 22.8878 4.69287 22.8878 4.69397C22.8878 4.69633 22.8878 4.69887 22.886 4.70105C22.886 4.70178 22.886 4.70269 22.886 4.70342C22.886 4.70578 22.886 4.70833 22.886 4.71087C22.886 4.71196 22.886 4.71287 22.886 4.71396C22.886 4.71669 22.886 4.7196 22.886 4.72233C22.886 4.72305 22.886 4.7236 22.886 4.72451C22.8842 4.72687 22.8842 4.72942 22.8842 4.73178C22.8842 4.73269 22.8842 4.73324 22.8842 4.73415C22.8842 4.73706 22.8842 4.73978 22.8842 4.74269C22.8842 4.74342 22.8842 4.74433 22.8842 4.74488C22.8842 4.74815 22.8842 4.75087 22.8824 4.75414C22.6024 8.23142 18.6416 16.9274 17.2425 19.9087ZM13.4476 10.3898L16.1909 19.4009C19.3442 12.9756 20.9296 8.49251 21.4478 6.69342C21.6369 6.01233 21.7115 5.45433 21.7115 4.9956C21.7115 3.56033 20.9733 3.09851 20.6242 2.88924C19.8424 2.42015 18.2376 1.95414 16.6756 1.95414C16.3053 1.95414 15.9373 1.98033 15.5833 2.03887C14.6767 2.18887 13.8613 2.55069 13.3302 3.22833C13.3155 3.24724 13.3009 3.26615 13.2865 3.28542C12.8644 3.78724 12.4438 4.58742 12.4447 5.78614C12.4449 6.1856 12.492 6.62942 12.6016 7.12124C12.6051 7.13669 12.6086 7.15214 12.612 7.16778C12.7087 7.58924 13.0273 8.80906 13.4476 10.3898Z" fill="url(#paint3_linear_1286_5319)"/>
</g>
<mask id="mask4_1286_5319" style="mask-type:luminance" maskUnits="userSpaceOnUse" x="11" y="6" width="5" height="14">
<path d="M11.224 6.32257C11.2114 6.24857 11.2 6.17475 11.1895 6.10203C11.1898 6.10239 11.1904 6.10294 11.1907 6.1033L11.1909 6.10385C11.2015 6.17639 11.2114 6.24875 11.224 6.32257Z" fill="white"/>
</mask>
<g mask="url(#mask4_1286_5319)">
<path d="M11.224 6.32257C11.2114 6.24857 11.2 6.17475 11.1895 6.10203C11.1898 6.10239 11.1904 6.10294 11.1907 6.1033L11.1909 6.10385C11.2015 6.17639 11.2114 6.24875 11.224 6.32257Z" fill="url(#paint4_linear_1286_5319)"/>
</g>
<mask id="mask5_1286_5319" style="mask-type:luminance" maskUnits="userSpaceOnUse" x="13" y="1" width="9" height="19">
<path d="M16.1895 19.3979L13.4463 10.3869C13.9792 8.60832 14.377 7.21977 14.4634 6.76704C14.515 6.49577 14.5383 6.23904 14.5381 5.99632C14.5373 4.72304 13.8895 3.83468 13.2852 3.2825C13.2995 3.26323 13.3141 3.24431 13.3288 3.2254C13.8599 2.54777 14.6753 2.18595 15.5819 2.03595C15.9359 1.97741 16.3039 1.95122 16.6741 1.95122C18.2363 1.95122 19.841 2.41741 20.6228 2.88632C20.9719 3.09559 21.7101 3.5574 21.7101 4.99268C21.7101 5.4514 21.6355 6.00941 21.4464 6.6905C20.9282 8.48941 19.3428 12.9727 16.1895 19.3979Z" fill="white"/>
</mask>
<g mask="url(#mask5_1286_5319)">
<path d="M16.1895 19.3979L13.4463 10.3869C13.9792 8.60832 14.377 7.21977 14.4634 6.76704C14.515 6.49577 14.5383 6.23904 14.5381 5.99632C14.5373 4.72304 13.8895 3.83468 13.2852 3.2825C13.2995 3.26323 13.3141 3.24431 13.3288 3.2254C13.8599 2.54777 14.6753 2.18595 15.5819 2.03595C15.9359 1.97741 16.3039 1.95122 16.6741 1.95122C18.2363 1.95122 19.841 2.41741 20.6228 2.88632C20.9719 3.09559 21.7101 3.5574 21.7101 4.99268C21.7101 5.4514 21.6355 6.00941 21.4464 6.6905C20.9282 8.48941 19.3428 12.9727 16.1895 19.3979Z" fill="url(#paint5_linear_1286_5319)"/>
</g>
<mask id="mask6_1286_5319" style="mask-type:luminance" maskUnits="userSpaceOnUse" x="13" y="2" width="9" height="18">
<path d="M16.1967 19.3979C19.3499 12.9727 20.9354 8.48941 21.4536 6.6905C20.9354 8.48959 19.3499 12.9727 16.1967 19.3979Z" fill="white"/>
</mask>
<g mask="url(#mask6_1286_5319)">
<path d="M16.1967 19.3979C19.3499 12.9727 20.9354 8.48941 21.4536 6.6905C20.9354 8.48959 19.3499 12.9727 16.1967 19.3979Z" fill="url(#paint6_linear_1286_5319)"/>
</g>
<mask id="mask7_1286_5319" style="mask-type:luminance" maskUnits="userSpaceOnUse" x="7" y="19" width="12" height="6">
<path d="M16.9855 24.4946C16.9851 24.4944 16.9856 24.4946 16.9853 24.4944C17.1927 24.4548 17.3869 24.3695 17.5551 24.2481C17.5551 24.2479 17.5549 24.2477 17.5549 24.2475C17.8002 24.0708 17.9898 23.8168 18.0842 23.5134C17.9251 24.0252 17.4958 24.3972 16.9855 24.4946ZM9.19892 24.4106C8.7651 24.2303 8.42965 23.8404 8.33874 23.345L8.01602 21.5875C8.00002 21.5006 7.99237 21.4141 7.99219 21.3286C7.99128 20.6494 8.47565 20.047 9.1671 19.9183C9.16874 19.9179 9.17056 19.9177 9.1722 19.9174C10.2204 19.7263 11.6913 19.5972 13.0878 19.5886C12.13 19.5944 11.1375 19.6572 10.2702 19.7575C14.4924 19.7577 17.0375 20.7177 17.4011 21.2266C17.7415 21.7032 17.4447 23.255 17.1469 23.6243C17.0413 23.5224 16.9264 23.4475 16.8042 23.4048C15.8449 23.0688 14.4855 22.8455 13.2126 22.8455C11.9396 22.8455 10.5804 23.0688 9.62092 23.4048C9.32001 23.5101 9.06347 23.8103 8.87983 24.2248C8.97801 24.2999 9.08583 24.3623 9.20037 24.4101C9.20001 24.4103 9.19928 24.4106 9.19892 24.4106ZM18.0866 23.5054C18.0871 23.5039 18.0875 23.5023 18.088 23.501C18.0875 23.5024 18.0871 23.5039 18.0866 23.5054ZM18.1256 23.345L18.4482 21.5875C18.5667 20.9423 18.2335 20.3203 17.6737 20.0434C18.158 20.283 18.4729 20.7808 18.4722 21.3286C18.472 21.4141 18.4644 21.5006 18.4484 21.5875L18.1256 23.345ZM13.1089 19.5886C13.1118 19.5886 13.1145 19.5886 13.1175 19.5884C13.1147 19.5886 13.1116 19.5886 13.1089 19.5886ZM13.1782 19.5883C13.18 19.5883 13.1818 19.5883 13.1835 19.5883C13.1817 19.5883 13.18 19.5883 13.1782 19.5883ZM13.198 19.5883C13.1986 19.5883 13.1993 19.5883 13.1996 19.5883C13.1991 19.5883 13.1986 19.5883 13.198 19.5883Z" fill="white"/>
</mask>
<g mask="url(#mask7_1286_5319)">
<path d="M16.9855 24.4946C16.9851 24.4944 16.9856 24.4946 16.9853 24.4944C17.1927 24.4548 17.3869 24.3695 17.5551 24.2481C17.5551 24.2479 17.5549 24.2477 17.5549 24.2475C17.8002 24.0708 17.9898 23.8168 18.0842 23.5134C17.9251 24.0252 17.4958 24.3972 16.9855 24.4946ZM9.19892 24.4106C8.7651 24.2303 8.42965 23.8404 8.33874 23.345L8.01602 21.5875C8.00002 21.5006 7.99237 21.4141 7.99219 21.3286C7.99128 20.6494 8.47565 20.047 9.1671 19.9183C9.16874 19.9179 9.17056 19.9177 9.1722 19.9174C10.2204 19.7263 11.6913 19.5972 13.0878 19.5886C12.13 19.5944 11.1375 19.6572 10.2702 19.7575C14.4924 19.7577 17.0375 20.7177 17.4011 21.2266C17.7415 21.7032 17.4447 23.255 17.1469 23.6243C17.0413 23.5224 16.9264 23.4475 16.8042 23.4048C15.8449 23.0688 14.4855 22.8455 13.2126 22.8455C11.9396 22.8455 10.5804 23.0688 9.62092 23.4048C9.32001 23.5101 9.06347 23.8103 8.87983 24.2248C8.97801 24.2999 9.08583 24.3623 9.20037 24.4101C9.20001 24.4103 9.19928 24.4106 9.19892 24.4106ZM18.0866 23.5054C18.0871 23.5039 18.0875 23.5023 18.088 23.501C18.0875 23.5024 18.0871 23.5039 18.0866 23.5054ZM18.1256 23.345L18.4482 21.5875C18.5667 20.9423 18.2335 20.3203 17.6737 20.0434C18.158 20.283 18.4729 20.7808 18.4722 21.3286C18.472 21.4141 18.4644 21.5006 18.4484 21.5875L18.1256 23.345ZM13.1089 19.5886C13.1118 19.5886 13.1145 19.5886 13.1175 19.5884C13.1147 19.5886 13.1116 19.5886 13.1089 19.5886ZM13.1782 19.5883C13.18 19.5883 13.1818 19.5883 13.1835 19.5883C13.1817 19.5883 13.18 19.5883 13.1782 19.5883ZM13.198 19.5883C13.1986 19.5883 13.1993 19.5883 13.1996 19.5883C13.1991 19.5883 13.1986 19.5883 13.198 19.5883Z" fill="url(#paint7_linear_1286_5319)"/>
</g>
<path d="M18.0868 23.5028C18.087 23.5017 18.0874 23.5006 18.0877 23.4995C18.0874 23.5006 18.0872 23.5015 18.0868 23.5028ZM18.0974 23.4655C18.1052 23.4371 18.1121 23.4082 18.1181 23.379C18.1121 23.4082 18.1052 23.437 18.0974 23.4655ZM18.1214 23.3624C18.1219 23.36 18.1223 23.3579 18.1228 23.3557C18.1223 23.3579 18.1219 23.3602 18.1214 23.3624Z" fill="#8D590A"/>
<mask id="mask8_1286_5319" style="mask-type:luminance" maskUnits="userSpaceOnUse" x="13" y="19" width="1" height="1">
<path d="M13.1328 19.5862C13.1356 19.5862 13.1381 19.5862 13.1409 19.5862C13.1383 19.5862 13.1356 19.5862 13.1328 19.5862ZM13.1816 19.5861C13.1863 19.5861 13.1914 19.5861 13.1961 19.5861C13.1912 19.5861 13.1865 19.5861 13.1816 19.5861Z" fill="white"/>
</mask>
<g mask="url(#mask8_1286_5319)">
<path d="M13.1328 19.5862C13.1356 19.5862 13.1381 19.5862 13.1409 19.5862C13.1383 19.5862 13.1356 19.5862 13.1328 19.5862ZM13.1816 19.5861C13.1863 19.5861 13.1914 19.5861 13.1961 19.5861C13.1912 19.5861 13.1865 19.5861 13.1816 19.5861Z" fill="url(#paint8_linear_1286_5319)"/>
</g>
<mask id="mask9_1286_5319" style="mask-type:luminance" maskUnits="userSpaceOnUse" x="10" y="19" width="9" height="6">
<path d="M17.5562 24.2476C17.4455 23.9916 17.3073 23.7776 17.1482 23.6243C17.446 23.255 17.7428 21.7032 17.4024 21.2266C17.0388 20.7177 14.4937 19.7577 10.2715 19.7576C11.1388 19.6572 12.1313 19.5945 13.0891 19.5886C13.0908 19.5886 13.0922 19.5886 13.0939 19.5886C13.0966 19.5886 13.0991 19.5886 13.1018 19.5886C13.1046 19.5886 13.1073 19.5886 13.1102 19.5886C13.1129 19.5886 13.116 19.5886 13.1188 19.5885C13.1224 19.5885 13.126 19.5885 13.1297 19.5885C13.1317 19.5885 13.1338 19.5885 13.136 19.5885C13.1388 19.5885 13.1415 19.5885 13.144 19.5885C13.1462 19.5885 13.1486 19.5885 13.1508 19.5885C13.1553 19.5885 13.1599 19.5885 13.1646 19.5885C13.1659 19.5883 13.1673 19.5883 13.1688 19.5883C13.1724 19.5883 13.176 19.5883 13.1795 19.5883C13.1813 19.5883 13.1829 19.5883 13.1848 19.5883C13.1897 19.5883 13.1944 19.5883 13.1993 19.5883C13.1999 19.5883 13.2004 19.5883 13.2009 19.5883C13.2053 19.5883 13.2095 19.5883 13.2138 19.5883C13.2155 19.5883 13.2171 19.5883 13.2188 19.5883C13.2237 19.5883 13.2286 19.5883 13.2335 19.5883C14.6724 19.5883 16.2089 19.7197 17.2935 19.9174C17.4293 19.9421 17.5571 19.985 17.6749 20.0434C18.2348 20.3203 18.568 20.9423 18.4495 21.5876L18.1269 23.345C18.1264 23.3476 18.1258 23.3501 18.1255 23.3528C18.1253 23.3532 18.1253 23.3536 18.1253 23.3539C18.1248 23.3561 18.1244 23.3583 18.1238 23.3606C18.1238 23.361 18.1239 23.3614 18.1237 23.3619C18.1233 23.3641 18.1228 23.3665 18.1224 23.3687C18.1222 23.369 18.1222 23.3692 18.1222 23.3696C18.1217 23.3719 18.1211 23.3745 18.1206 23.377V23.3772C18.1146 23.4065 18.1077 23.4354 18.0998 23.4637C18.0998 23.4639 18.0998 23.4641 18.0997 23.4643C18.0991 23.4666 18.0986 23.4688 18.0979 23.471C18.0979 23.4714 18.0977 23.4717 18.0975 23.4721C18.0962 23.4772 18.0948 23.4821 18.0933 23.487C18.0931 23.4877 18.0929 23.4883 18.0928 23.489C18.0922 23.4907 18.0918 23.4925 18.0913 23.4941C18.0909 23.4952 18.0906 23.4965 18.0902 23.4977C18.0899 23.4988 18.0895 23.4999 18.0893 23.501C18.0888 23.5023 18.0884 23.5039 18.0879 23.5054C18.0877 23.5061 18.0875 23.5068 18.0873 23.5076C18.0868 23.5094 18.0862 23.511 18.0857 23.5128C18.0855 23.513 18.0855 23.5132 18.0855 23.5134C17.9911 23.8168 17.8015 24.0708 17.5562 24.2476Z" fill="white"/>
</mask>
<g mask="url(#mask9_1286_5319)">
<path d="M17.5562 24.2476C17.4455 23.9916 17.3073 23.7776 17.1482 23.6243C17.446 23.255 17.7428 21.7032 17.4024 21.2266C17.0388 20.7177 14.4937 19.7577 10.2715 19.7576C11.1388 19.6572 12.1313 19.5945 13.0891 19.5886C13.0908 19.5886 13.0922 19.5886 13.0939 19.5886C13.0966 19.5886 13.0991 19.5886 13.1018 19.5886C13.1046 19.5886 13.1073 19.5886 13.1102 19.5886C13.1129 19.5886 13.116 19.5886 13.1188 19.5885C13.1224 19.5885 13.126 19.5885 13.1297 19.5885C13.1317 19.5885 13.1338 19.5885 13.136 19.5885C13.1388 19.5885 13.1415 19.5885 13.144 19.5885C13.1462 19.5885 13.1486 19.5885 13.1508 19.5885C13.1553 19.5885 13.1599 19.5885 13.1646 19.5885C13.1659 19.5883 13.1673 19.5883 13.1688 19.5883C13.1724 19.5883 13.176 19.5883 13.1795 19.5883C13.1813 19.5883 13.1829 19.5883 13.1848 19.5883C13.1897 19.5883 13.1944 19.5883 13.1993 19.5883C13.1999 19.5883 13.2004 19.5883 13.2009 19.5883C13.2053 19.5883 13.2095 19.5883 13.2138 19.5883C13.2155 19.5883 13.2171 19.5883 13.2188 19.5883C13.2237 19.5883 13.2286 19.5883 13.2335 19.5883C14.6724 19.5883 16.2089 19.7197 17.2935 19.9174C17.4293 19.9421 17.5571 19.985 17.6749 20.0434C18.2348 20.3203 18.568 20.9423 18.4495 21.5876L18.1269 23.345C18.1264 23.3476 18.1258 23.3501 18.1255 23.3528C18.1253 23.3532 18.1253 23.3536 18.1253 23.3539C18.1248 23.3561 18.1244 23.3583 18.1238 23.3606C18.1238 23.361 18.1239 23.3614 18.1237 23.3619C18.1233 23.3641 18.1228 23.3665 18.1224 23.3687C18.1222 23.369 18.1222 23.3692 18.1222 23.3696C18.1217 23.3719 18.1211 23.3745 18.1206 23.377V23.3772C18.1146 23.4065 18.1077 23.4354 18.0998 23.4637C18.0998 23.4639 18.0998 23.4641 18.0997 23.4643C18.0991 23.4666 18.0986 23.4688 18.0979 23.471C18.0979 23.4714 18.0977 23.4717 18.0975 23.4721C18.0962 23.4772 18.0948 23.4821 18.0933 23.487C18.0931 23.4877 18.0929 23.4883 18.0928 23.489C18.0922 23.4907 18.0918 23.4925 18.0913 23.4941C18.0909 23.4952 18.0906 23.4965 18.0902 23.4977C18.0899 23.4988 18.0895 23.4999 18.0893 23.501C18.0888 23.5023 18.0884 23.5039 18.0879 23.5054C18.0877 23.5061 18.0875 23.5068 18.0873 23.5076C18.0868 23.5094 18.0862 23.511 18.0857 23.5128C18.0855 23.513 18.0855 23.5132 18.0855 23.5134C17.9911 23.8168 17.8015 24.0708 17.5562 24.2476Z" fill="url(#paint9_linear_1286_5319)"/>
</g>
<path d="M16.8052 23.4059C15.8459 23.0699 14.4865 22.8466 13.2136 22.8466C11.9407 22.8466 10.5814 23.0699 9.62195 23.4059C9.32104 23.5112 9.0645 23.8113 8.88086 24.2259C9.18086 24.455 9.56904 24.5666 9.97049 24.5035C10.8752 24.3617 12.0907 24.2275 13.2332 24.2275C14.3758 24.2275 15.591 24.3617 16.4958 24.5035C16.8841 24.5644 17.2603 24.4628 17.5561 24.2492C17.3718 23.8228 17.1116 23.5132 16.8052 23.4059Z" fill="#991602"/>
<mask id="mask10_1286_5319" style="mask-type:luminance" maskUnits="userSpaceOnUse" x="1" y="23" width="24" height="24">
<path d="M12.9776 46.2437C6.87067 46.2437 1.89448 41.41 1.66248 35.3596C1.65794 35.2418 1.65521 35.1233 1.6543 35.0045C1.69102 30.1124 4.82848 25.958 9.19902 24.4111C9.19939 24.4111 9.20012 24.4107 9.20048 24.4105C10.3819 23.9925 11.653 23.7653 12.9776 23.7653C14.3887 23.7653 15.7396 24.0235 16.9854 24.4949C16.9858 24.4951 16.9852 24.4949 16.9856 24.4951C21.2365 26.1044 24.2656 30.1985 24.3019 35.0045C24.3001 35.1233 24.2983 35.2413 24.2928 35.3591C24.0619 41.4094 19.0856 46.2437 12.9776 46.2437ZM5.92248 33.3284C5.6583 34.0951 5.51429 34.9213 5.51429 35.7827C5.51429 39.798 8.6423 43.0529 12.5005 43.0529C14.5992 43.0529 16.4819 42.0898 17.7625 40.5651C19.0619 39.4282 19.9528 37.8355 20.1874 36.0365C21.5419 35.7025 22.9347 35.0638 24.2619 34.1485C23.8037 28.594 19.3401 24.1784 13.7639 23.7956C13.0027 25.1404 12.4854 26.5238 12.2208 27.8596C9.15303 28.1769 6.65121 30.402 5.92248 33.3284Z" fill="white"/>
</mask>
<g mask="url(#mask10_1286_5319)">
<path d="M12.9776 46.2437C6.87067 46.2437 1.89448 41.41 1.66248 35.3596C1.65794 35.2418 1.65521 35.1233 1.6543 35.0045C1.69102 30.1124 4.82848 25.958 9.19902 24.4111C9.19939 24.4111 9.20012 24.4107 9.20048 24.4105C10.3819 23.9925 11.653 23.7653 12.9776 23.7653C14.3887 23.7653 15.7396 24.0235 16.9854 24.4949C16.9858 24.4951 16.9852 24.4949 16.9856 24.4951C21.2365 26.1044 24.2656 30.1985 24.3019 35.0045C24.3001 35.1233 24.2983 35.2413 24.2928 35.3591C24.0619 41.4094 19.0856 46.2437 12.9776 46.2437ZM5.92248 33.3284C5.6583 34.0951 5.51429 34.9213 5.51429 35.7827C5.51429 39.798 8.6423 43.0529 12.5005 43.0529C14.5992 43.0529 16.4819 42.0898 17.7625 40.5651C19.0619 39.4282 19.9528 37.8355 20.1874 36.0365C21.5419 35.7025 22.9347 35.0638 24.2619 34.1485C23.8037 28.594 19.3401 24.1784 13.7639 23.7956C13.0027 25.1404 12.4854 26.5238 12.2208 27.8596C9.15303 28.1769 6.65121 30.402 5.92248 33.3284Z" fill="url(#paint10_linear_1286_5319)"/>
</g>
<mask id="mask11_1286_5319" style="mask-type:luminance" maskUnits="userSpaceOnUse" x="12" y="23" width="13" height="14">
<path d="M20.1912 36.0396C20.2312 35.7299 20.2512 35.4145 20.2512 35.0939C20.2512 31.0786 16.9968 27.8237 12.9815 27.8237C12.9813 27.8237 12.9813 27.8237 12.9813 27.8237C12.7259 27.8237 12.4735 27.8368 12.2246 27.8626C12.4892 26.5268 13.0064 25.1434 13.7677 23.7986C19.3439 24.1814 23.8075 28.597 24.2657 34.1516C22.9384 35.0668 21.5457 35.7056 20.1912 36.0396Z" fill="white"/>
</mask>
<g mask="url(#mask11_1286_5319)">
<path d="M20.1912 36.0396C20.2312 35.7299 20.2512 35.4145 20.2512 35.0939C20.2512 31.0786 16.9968 27.8237 12.9815 27.8237C12.9813 27.8237 12.9813 27.8237 12.9813 27.8237C12.7259 27.8237 12.4735 27.8368 12.2246 27.8626C12.4892 26.5268 13.0064 25.1434 13.7677 23.7986C19.3439 24.1814 23.8075 28.597 24.2657 34.1516C22.9384 35.0668 21.5457 35.7056 20.1912 36.0396Z" fill="url(#paint11_linear_1286_5319)"/>
</g>
<mask id="mask12_1286_5319" style="mask-type:luminance" maskUnits="userSpaceOnUse" x="5" y="33" width="13" height="11">
<path d="M12.4999 43.0542C8.64168 43.0542 5.51367 39.7993 5.51367 35.784C5.51367 34.9226 5.65768 34.0964 5.92186 33.3297C5.83658 33.6719 5.77567 34.0239 5.74094 34.3833C5.71822 34.6166 5.70676 34.8531 5.70676 35.0922C5.70676 39.1075 8.96168 42.3627 12.9771 42.3627C14.8093 42.3627 16.4833 41.6849 17.7619 40.5664C16.4813 42.0911 14.5986 43.0542 12.4999 43.0542Z" fill="white"/>
</mask>
<g mask="url(#mask12_1286_5319)">
<path d="M12.4999 43.0542C8.64168 43.0542 5.51367 39.7993 5.51367 35.784C5.51367 34.9226 5.65768 34.0964 5.92186 33.3297C5.83658 33.6719 5.77567 34.0239 5.74094 34.3833C5.71822 34.6166 5.70676 34.8531 5.70676 35.0922C5.70676 39.1075 8.96168 42.3627 12.9771 42.3627C14.8093 42.3627 16.4833 41.6849 17.7619 40.5664C16.4813 42.0911 14.5986 43.0542 12.4999 43.0542Z" fill="url(#paint12_linear_1286_5319)"/>
</g>
<mask id="mask13_1286_5319" style="mask-type:luminance" maskUnits="userSpaceOnUse" x="5" y="27" width="8" height="7">
<path d="M5.92188 33.3286C6.6506 30.4022 9.15242 28.1772 12.2202 27.8599C9.15224 28.1773 6.6506 30.4022 5.92188 33.3286Z" fill="white"/>
</mask>
<g mask="url(#mask13_1286_5319)">
<path d="M5.92188 33.3286C6.6506 30.4022 9.15242 28.1772 12.2202 27.8599C9.15224 28.1773 6.6506 30.4022 5.92188 33.3286Z" fill="url(#paint13_linear_1286_5319)"/>
</g>
<mask id="mask14_1286_5319" style="mask-type:luminance" maskUnits="userSpaceOnUse" x="5" y="33" width="1" height="2">
<path d="M5.74219 34.3813C5.77691 34.0219 5.83783 33.6699 5.9231 33.3277C5.83801 33.6699 5.77691 34.0219 5.74219 34.3813Z" fill="white"/>
</mask>
<g mask="url(#mask14_1286_5319)">
<path d="M5.74219 34.3813C5.77691 34.0219 5.83783 33.6699 5.9231 33.3277C5.83801 33.6699 5.77691 34.0219 5.74219 34.3813Z" fill="url(#paint14_linear_1286_5319)"/>
</g>
<mask id="mask15_1286_5319" style="mask-type:luminance" maskUnits="userSpaceOnUse" x="5" y="27" width="16" height="16">
<path d="M12.9833 42.3618C8.9678 42.3618 5.71289 39.1066 5.71289 35.0913C5.71289 35.2437 5.71907 35.3944 5.72834 35.5446C5.96252 31.7404 9.12017 28.7271 12.9831 28.7271C16.8462 28.7271 20.0038 31.7404 20.2384 35.5446C20.2474 35.3944 20.2529 35.2437 20.2529 35.0913C20.2529 39.1066 16.9985 42.3618 12.9833 42.3618ZM20.222 34.4053C19.8765 30.7119 16.7673 27.8211 12.9831 27.8211C12.9833 27.8211 12.9833 27.8211 12.9833 27.8211C16.7673 27.8211 19.8765 30.7119 20.222 34.4053Z" fill="white"/>
</mask>
<g mask="url(#mask15_1286_5319)">
<path d="M12.9833 42.3618C8.9678 42.3618 5.71289 39.1066 5.71289 35.0913C5.71289 35.2437 5.71907 35.3944 5.72834 35.5446C5.96252 31.7404 9.12017 28.7271 12.9831 28.7271C16.8462 28.7271 20.0038 31.7404 20.2384 35.5446C20.2474 35.3944 20.2529 35.2437 20.2529 35.0913C20.2529 39.1066 16.9985 42.3618 12.9833 42.3618ZM20.222 34.4053C19.8765 30.7119 16.7673 27.8211 12.9831 27.8211C12.9833 27.8211 12.9833 27.8211 12.9833 27.8211C16.7673 27.8211 19.8765 30.7119 20.222 34.4053Z" fill="url(#paint15_radial_1286_5319)"/>
</g>
<mask id="mask16_1286_5319" style="mask-type:luminance" maskUnits="userSpaceOnUse" x="5" y="27" width="16" height="9">
<path d="M20.2384 35.5474C20.0038 31.7432 16.8462 28.7299 12.9831 28.7299C9.12017 28.7299 5.96252 31.7432 5.72834 35.5474C5.71907 35.3972 5.71289 35.2465 5.71289 35.0941C5.71289 31.0788 8.9678 27.8239 12.9833 27.8239C16.7673 27.8239 19.8765 30.7146 20.222 34.4081C20.242 34.6339 20.2529 34.8628 20.2529 35.0941C20.2529 35.2465 20.2474 35.3972 20.2384 35.5474Z" fill="white"/>
</mask>
<g mask="url(#mask16_1286_5319)">
<path d="M20.2384 35.5474C20.0038 31.7432 16.8462 28.7299 12.9831 28.7299C9.12017 28.7299 5.96252 31.7432 5.72834 35.5474C5.71907 35.3972 5.71289 35.2465 5.71289 35.0941C5.71289 31.0788 8.9678 27.8239 12.9833 27.8239C16.7673 27.8239 19.8765 30.7146 20.222 34.4081C20.242 34.6339 20.2529 34.8628 20.2529 35.0941C20.2529 35.2465 20.2474 35.3972 20.2384 35.5474Z" fill="url(#paint16_radial_1286_5319)"/>
</g>
<path d="M17.9475 26.1306C18.2106 25.7295 18.8206 25.8944 19.4399 26.3007C20.0599 26.7067 20.4544 27.2004 20.1908 27.6015C19.929 28.0026 19.3054 27.8584 18.6852 27.4522C18.0657 27.046 17.6848 26.5316 17.9475 26.1306Z" fill="#FCE867"/>
<path d="M6.48784 39.6045C6.76857 39.3068 7.22856 39.5101 7.6542 39.9113C8.07983 40.3126 8.30983 40.7599 8.02911 41.0577C7.74856 41.3554 7.27383 41.1674 6.84819 40.7661C6.42274 40.3648 6.20712 39.9021 6.48784 39.6045Z" fill="#FEB121"/>
<path d="M8.3748 41.2569C8.6208 40.9462 8.93153 40.9848 9.19044 41.1898C9.44935 41.3949 9.55862 41.6886 9.31244 41.9993C9.06644 42.31 8.74298 42.2873 8.48407 42.0822C8.22516 41.8773 8.1288 41.5676 8.3748 41.2569Z" fill="#FEB121"/>
<path d="M16.561 20.5067C16.7022 20.2913 17.0297 20.3796 17.3626 20.598C17.6953 20.816 17.9072 21.0811 17.7659 21.2965C17.6248 21.512 17.2897 21.4345 16.957 21.2163C16.6242 20.9983 16.4197 20.722 16.561 20.5067Z" fill="#FCE867"/>
<path d="M14.1366 1.4112C13.5017 1.61338 12.9083 1.90265 12.4472 2.3292C11.9855 2.75302 11.6655 3.30357 11.4983 3.90884C11.3314 4.51557 11.2901 5.16247 11.319 5.81029C11.3494 6.45938 11.445 7.10938 11.5421 7.76956L11.539 7.77393L11.535 7.77175C11.2794 7.15629 11.0935 6.50811 10.9995 5.83829C10.903 5.16993 10.9208 4.47193 11.0975 3.79793C11.1506 3.63193 11.2061 3.46593 11.273 3.30466L11.3906 3.06902C11.4286 2.98975 11.4683 2.91175 11.5212 2.84047C11.6217 2.69575 11.7183 2.54847 11.8454 2.42538C11.9061 2.36175 11.9637 2.29538 12.0266 2.23484L12.2326 2.07175C12.7881 1.64393 13.4697 1.43229 14.1352 1.40393L14.139 1.40756L14.1366 1.4112Z" fill="white"/>
<path d="M11.3517 34.7353C11.8015 34.7353 12.167 34.7195 12.4479 34.688C12.7286 34.6566 12.9461 34.608 13.1006 34.543C13.255 34.4779 13.359 34.396 13.413 34.2975C13.467 34.199 13.4939 34.0846 13.4939 33.9544C13.4939 33.8019 13.4623 33.6719 13.3992 33.5639C13.3357 33.456 13.2503 33.3686 13.1423 33.3017C13.0346 33.2346 12.9099 33.1855 12.7686 33.1539C12.6272 33.1222 12.4784 33.1064 12.3224 33.1064C12.1735 33.1064 12.0183 33.1157 11.8564 33.1344C11.6948 33.153 11.533 33.18 11.3712 33.2151C11.2093 33.2506 11.0504 33.2924 10.8941 33.3406C10.7379 33.3891 10.593 33.4431 10.459 33.5026V31.985C10.8086 31.8215 11.1684 31.7033 11.5384 31.6308C11.9084 31.5584 12.3204 31.5202 12.7743 31.5164C13.2055 31.5202 13.585 31.5526 13.9123 31.6141C14.2395 31.6755 14.5221 31.76 14.7603 31.868C14.9983 31.9759 15.1963 32.1022 15.3544 32.2473C15.5124 32.3924 15.639 32.5506 15.7337 32.7215C15.8286 32.8926 15.8955 33.0711 15.9346 33.257C15.9737 33.4431 15.9932 33.6308 15.9932 33.8204C15.9932 34.107 15.9448 34.3504 15.8481 34.5513C15.7514 34.7522 15.6306 34.9186 15.4855 35.0508C15.3404 35.1826 15.1834 35.285 15.0141 35.3575C14.8448 35.4301 14.6877 35.4831 14.5428 35.5164C14.7101 35.5462 14.8886 35.5966 15.0783 35.667C15.2679 35.7379 15.4437 35.8419 15.6053 35.9795C15.7672 36.1171 15.9019 36.293 16.0099 36.5066C16.1177 36.7206 16.1717 36.9855 16.1717 37.3017C16.1717 37.5137 16.1503 37.72 16.1075 37.921C16.0648 38.1217 15.9923 38.3113 15.8901 38.49C15.7875 38.6684 15.6501 38.833 15.4772 38.9835C15.3043 39.1344 15.0886 39.2637 14.8301 39.3713C14.5715 39.4793 14.2646 39.5639 13.9095 39.6253C13.5543 39.6866 13.1423 39.7173 12.6737 39.7173C12.2497 39.7173 11.8593 39.6848 11.5023 39.6197C11.1452 39.5546 10.7973 39.4515 10.459 39.31V37.7313C10.5892 37.7908 10.7324 37.8448 10.8886 37.893C11.0448 37.9413 11.2046 37.9833 11.3684 38.0186C11.5319 38.0539 11.6955 38.081 11.8594 38.0993C12.0228 38.118 12.1774 38.1273 12.3224 38.1273C12.471 38.1273 12.6161 38.1106 12.7574 38.0771C12.8988 38.0437 13.0243 37.9899 13.1341 37.9153C13.2437 37.841 13.3312 37.7442 13.3963 37.6253C13.4612 37.5062 13.4939 37.3593 13.4939 37.1846C13.4939 37.0359 13.4695 36.8991 13.4213 36.7744C13.373 36.65 13.2735 36.5421 13.1228 36.451C12.9723 36.3599 12.7564 36.2891 12.4757 36.239C12.195 36.1886 11.8203 36.1637 11.3517 36.1637V34.7353Z" fill="#991602"/>
<mask id="mask17_1286_5319" style="mask-type:luminance" maskUnits="userSpaceOnUse" x="10" y="30" width="7" height="9">
<path d="M11.3517 34.0088C11.8015 34.0088 12.167 33.9929 12.4479 33.9615C12.7286 33.93 12.9461 33.8815 13.1006 33.8164C13.255 33.7513 13.359 33.6695 13.413 33.5709C13.467 33.4724 13.4939 33.358 13.4939 33.2279C13.4939 33.0753 13.4623 32.9453 13.3992 32.8373C13.3357 32.7295 13.2503 32.642 13.1423 32.5751C13.0346 32.508 12.9099 32.4589 12.7686 32.4273C12.6272 32.3957 12.4784 32.3799 12.3224 32.3799C12.1735 32.3799 12.0183 32.3891 11.8564 32.4079C11.6948 32.4264 11.533 32.4535 11.3712 32.4886C11.2093 32.524 11.0504 32.5659 10.8941 32.614C10.7379 32.6626 10.593 32.7166 10.459 32.776V31.2584C10.8086 31.0949 11.1684 30.9768 11.5384 30.9042C11.9084 30.8318 12.3204 30.7937 12.7743 30.7899C13.2055 30.7937 13.585 30.826 13.9123 30.8875C14.2395 30.9489 14.5221 31.0335 14.7603 31.1415C14.9983 31.2493 15.1963 31.3757 15.3544 31.5208C15.5124 31.6659 15.639 31.824 15.7337 31.9949C15.8286 32.166 15.8955 32.3446 15.9346 32.5304C15.9737 32.7166 15.9932 32.9042 15.9932 33.0939C15.9932 33.3804 15.9448 33.6238 15.8481 33.8248C15.7514 34.0257 15.6306 34.192 15.4855 34.3242C15.3404 34.456 15.1834 34.5584 15.0141 34.6309C14.8448 34.7035 14.6877 34.7566 14.5428 34.7899C14.7101 34.8197 14.8886 34.87 15.0783 34.9404C15.2679 35.0113 15.4437 35.1153 15.6053 35.2529C15.7672 35.3906 15.9019 35.5664 16.0099 35.78C16.1177 35.994 16.1717 36.2589 16.1717 36.5751C16.1717 36.7871 16.1503 36.9935 16.1075 37.1944C16.0648 37.3951 15.9923 37.5848 15.8901 37.7635C15.7875 37.9418 15.6501 38.1064 15.4772 38.2569C15.3043 38.4078 15.0886 38.5371 14.8301 38.6448C14.5715 38.7527 14.2646 38.8373 13.9095 38.8988C13.5543 38.9601 13.1423 38.9907 12.6737 38.9907C12.2497 38.9907 11.8593 38.9582 11.5023 38.8931C11.1452 38.828 10.7973 38.725 10.459 38.5835V37.0048C10.5892 37.0642 10.7324 37.1182 10.8886 37.1664C11.0448 37.2148 11.2046 37.2568 11.3684 37.292C11.5319 37.3273 11.6955 37.3544 11.8594 37.3728C12.0228 37.3915 12.1774 37.4008 12.3224 37.4008C12.471 37.4008 12.6161 37.384 12.7574 37.3506C12.8988 37.3171 13.0243 37.2633 13.1341 37.1888C13.2437 37.1144 13.3312 37.0177 13.3963 36.8988C13.4612 36.7797 13.4939 36.6328 13.4939 36.458C13.4939 36.3093 13.4695 36.1726 13.4213 36.0478C13.373 35.9235 13.2735 35.8155 13.1228 35.7244C12.9723 35.6333 12.7564 35.5626 12.4757 35.5124C12.195 35.462 11.8203 35.4371 11.3517 35.4371V34.0088Z" fill="white"/>
</mask>
<g mask="url(#mask17_1286_5319)">
<path d="M11.3517 34.0088C11.8015 34.0088 12.167 33.9929 12.4479 33.9615C12.7286 33.93 12.9461 33.8815 13.1006 33.8164C13.255 33.7513 13.359 33.6695 13.413 33.5709C13.467 33.4724 13.4939 33.358 13.4939 33.2279C13.4939 33.0753 13.4623 32.9453 13.3992 32.8373C13.3357 32.7295 13.2503 32.642 13.1423 32.5751C13.0346 32.508 12.9099 32.4589 12.7686 32.4273C12.6272 32.3957 12.4784 32.3799 12.3224 32.3799C12.1735 32.3799 12.0183 32.3891 11.8564 32.4079C11.6948 32.4264 11.533 32.4535 11.3712 32.4886C11.2093 32.524 11.0504 32.5659 10.8941 32.614C10.7379 32.6626 10.593 32.7166 10.459 32.776V31.2584C10.8086 31.0949 11.1684 30.9768 11.5384 30.9042C11.9084 30.8318 12.3204 30.7937 12.7743 30.7899C13.2055 30.7937 13.585 30.826 13.9123 30.8875C14.2395 30.9489 14.5221 31.0335 14.7603 31.1415C14.9983 31.2493 15.1963 31.3757 15.3544 31.5208C15.5124 31.6659 15.639 31.824 15.7337 31.9949C15.8286 32.166 15.8955 32.3446 15.9346 32.5304C15.9737 32.7166 15.9932 32.9042 15.9932 33.0939C15.9932 33.3804 15.9448 33.6238 15.8481 33.8248C15.7514 34.0257 15.6306 34.192 15.4855 34.3242C15.3404 34.456 15.1834 34.5584 15.0141 34.6309C14.8448 34.7035 14.6877 34.7566 14.5428 34.7899C14.7101 34.8197 14.8886 34.87 15.0783 34.9404C15.2679 35.0113 15.4437 35.1153 15.6053 35.2529C15.7672 35.3906 15.9019 35.5664 16.0099 35.78C16.1177 35.994 16.1717 36.2589 16.1717 36.5751C16.1717 36.7871 16.1503 36.9935 16.1075 37.1944C16.0648 37.3951 15.9923 37.5848 15.8901 37.7635C15.7875 37.9418 15.6501 38.1064 15.4772 38.2569C15.3043 38.4078 15.0886 38.5371 14.8301 38.6448C14.5715 38.7527 14.2646 38.8373 13.9095 38.8988C13.5543 38.9601 13.1423 38.9907 12.6737 38.9907C12.2497 38.9907 11.8593 38.9582 11.5023 38.8931C11.1452 38.828 10.7973 38.725 10.459 38.5835V37.0048C10.5892 37.0642 10.7324 37.1182 10.8886 37.1664C11.0448 37.2148 11.2046 37.2568 11.3684 37.292C11.5319 37.3273 11.6955 37.3544 11.8594 37.3728C12.0228 37.3915 12.1774 37.4008 12.3224 37.4008C12.471 37.4008 12.6161 37.384 12.7574 37.3506C12.8988 37.3171 13.0243 37.2633 13.1341 37.1888C13.2437 37.1144 13.3312 37.0177 13.3963 36.8988C13.4612 36.7797 13.4939 36.6328 13.4939 36.458C13.4939 36.3093 13.4695 36.1726 13.4213 36.0478C13.373 35.9235 13.2735 35.8155 13.1228 35.7244C12.9723 35.6333 12.7564 35.5626 12.4757 35.5124C12.195 35.462 11.8203 35.4371 11.3517 35.4371V34.0088Z" fill="url(#paint17_linear_1286_5319)"/>
</g>
<defs>
<linearGradient id="paint0_linear_1286_5319" x1="11.2949" y1="24.6597" x2="14.9313" y2="19.6415" gradientUnits="userSpaceOnUse">
<stop stop-color="#F6A000"/>
<stop offset="1" stop-color="#FFE815"/>
</linearGradient>
<linearGradient id="paint1_linear_1286_5319" x1="13.2073" y1="-0.458749" x2="13.2073" y2="18.3994" gradientUnits="userSpaceOnUse">
<stop stop-color="#FFE815"/>
<stop offset="1" stop-color="#F6A000"/>
</linearGradient>
<linearGradient id="paint2_linear_1286_5319" x1="7.99617" y1="5.44907" x2="11.3436" y2="21.1017" gradientUnits="userSpaceOnUse">
<stop stop-color="#F6A000"/>
<stop offset="1" stop-color="#FFE815"/>
</linearGradient>
<linearGradient id="paint3_linear_1286_5319" x1="13.202" y1="-0.459856" x2="13.202" y2="18.3983" gradientUnits="userSpaceOnUse">
<stop stop-color="#FFFB22"/>
<stop offset="1" stop-color="#FDEF0E"/>
</linearGradient>
<linearGradient id="paint4_linear_1286_5319" x1="8.00199" y1="5.44803" x2="11.3494" y2="21.1006" gradientUnits="userSpaceOnUse">
<stop stop-color="#FDEF0E"/>
<stop offset="1" stop-color="#FFFB22"/>
</linearGradient>
<linearGradient id="paint5_linear_1286_5319" x1="13.2006" y1="-0.462778" x2="13.2006" y2="18.3954" gradientUnits="userSpaceOnUse">
<stop stop-color="#D68312"/>
<stop offset="1" stop-color="#CF5A00"/>
</linearGradient>
<linearGradient id="paint6_linear_1286_5319" x1="13.2078" y1="-0.462775" x2="13.2078" y2="18.3954" gradientUnits="userSpaceOnUse">
<stop stop-color="#D68D1E"/>
<stop offset="1" stop-color="#D5870C"/>
</linearGradient>
<linearGradient id="paint7_linear_1286_5319" x1="11.2907" y1="24.6579" x2="14.9359" y2="19.6407" gradientUnits="userSpaceOnUse">
<stop stop-color="#C4381A"/>
<stop offset="1" stop-color="#F57B29"/>
</linearGradient>
<linearGradient id="paint8_linear_1286_5319" x1="7.99403" y1="5.43189" x2="11.3475" y2="21.0985" gradientUnits="userSpaceOnUse">
<stop stop-color="#FFB900"/>
<stop offset="1" stop-color="#FFEE02"/>
</linearGradient>
<linearGradient id="paint9_linear_1286_5319" x1="11.292" y1="24.6579" x2="14.9372" y2="19.6407" gradientUnits="userSpaceOnUse">
<stop stop-color="#FF4603"/>
<stop offset="1" stop-color="#FF9A05"/>
</linearGradient>
<linearGradient id="paint10_linear_1286_5319" x1="16.517" y1="27.5375" x2="9.00682" y2="43.3822" gradientUnits="userSpaceOnUse">
<stop stop-color="#F57B29"/>
<stop offset="1" stop-color="#C4381A"/>
</linearGradient>
<linearGradient id="paint11_linear_1286_5319" x1="16.5208" y1="27.5405" x2="9.01059" y2="43.3852" gradientUnits="userSpaceOnUse">
<stop stop-color="#FF9A05"/>
<stop offset="1" stop-color="#FF4603"/>
</linearGradient>
<linearGradient id="paint12_linear_1286_5319" x1="16.5164" y1="27.5388" x2="9.00621" y2="43.3835" gradientUnits="userSpaceOnUse">
<stop stop-color="#FF9A05"/>
<stop offset="1" stop-color="#FF4603"/>
</linearGradient>
<linearGradient id="paint13_linear_1286_5319" x1="16.5164" y1="27.5377" x2="9.00623" y2="43.3824" gradientUnits="userSpaceOnUse">
<stop stop-color="#A22006"/>
<stop offset="1" stop-color="#9D1904"/>
</linearGradient>
<linearGradient id="paint14_linear_1286_5319" x1="16.5179" y1="27.5368" x2="9.00773" y2="43.3816" gradientUnits="userSpaceOnUse">
<stop stop-color="#A32302"/>
<stop offset="1" stop-color="#A31B02"/>
</linearGradient>
<radialGradient id="paint15_radial_1286_5319" cx="0" cy="0" r="1" gradientUnits="userSpaceOnUse" gradientTransform="translate(12.9833 35.0915) scale(7.27031 7.27031)">
<stop stop-color="#CD4424"/>
<stop offset="1" stop-color="#A41F17"/>
</radialGradient>
<radialGradient id="paint16_radial_1286_5319" cx="0" cy="0" r="1" gradientUnits="userSpaceOnUse" gradientTransform="translate(12.9833 35.0943) scale(7.27031)">
<stop stop-color="#881205"/>
<stop offset="1" stop-color="#840E03"/>
</radialGradient>
<linearGradient id="paint17_linear_1286_5319" x1="14.1133" y1="32.0979" x2="10.2287" y2="42.2177" gradientUnits="userSpaceOnUse">
<stop stop-color="#F57B29"/>
<stop offset="1" stop-color="#C4381A"/>
</linearGradient>
</defs>
</svg>
