<svg width="46" height="46" viewBox="0 0 46 46" fill="none" xmlns="http://www.w3.org/2000/svg">
<path d="M5.5 42.5H20.5C21.605 42.5 22.5 41.605 22.5 40.5V36.813C22.5 36.365 22.702 35.952 23.054 35.68C23.423 35.395 23.92 35.299 24.383 35.421C25.291 35.657 26.299 35.336 26.911 34.611C27.394 34.038 27.59 33.309 27.462 32.556C27.296 31.584 26.504 30.763 25.537 30.557C25.129 30.47 24.726 30.481 24.339 30.591C23.901 30.714 23.443 30.627 23.08 30.353C22.712 30.074 22.5 29.648 22.5 29.186V25.5C22.5 24.395 21.605 23.5 20.5 23.5H16.823C16.645 23.5 16.537 23.59 16.479 23.666C16.382 23.791 16.349 23.966 16.392 24.133C16.463 24.416 16.5 24.707 16.5 25C16.5 26.042 16.042 27.021 15.244 27.688C13.956 28.762 12.003 28.812 10.519 27.575C10.353 27.437 10.208 27.262 10.1 27.075C9.514 26.066 9.358 25.031 9.628 24.062C9.678 23.883 9.603 23.748 9.554 23.683C9.465 23.567 9.33 23.5 9.183 23.5H5.5C4.395 23.5 3.5 24.395 3.5 25.5V40.5C3.5 41.605 4.395 42.5 5.5 42.5Z" fill="#EE6054"/>
<path d="M33.007 17.501C33.849 17.501 34.714 17.792 35.484 18.433C35.654 18.574 35.803 18.754 35.913 18.946C36.489 19.948 36.641 20.976 36.372 21.938C36.322 22.117 36.397 22.252 36.446 22.316C36.534 22.433 36.67 22.5 36.817 22.5H40.5C41.605 22.5 42.5 21.605 42.5 20.5V5.5C42.5 4.395 41.605 3.5 40.5 3.5H25.5C24.395 3.5 23.5 4.395 23.5 5.5V9.187C23.5 9.635 23.298 10.048 22.946 10.32C22.578 10.604 22.079 10.702 21.617 10.579C20.71 10.343 19.701 10.664 19.089 11.389C18.606 11.962 18.41 12.691 18.538 13.444C18.704 14.416 19.496 15.237 20.462 15.443C20.87 15.53 21.274 15.518 21.661 15.409C22.099 15.286 22.557 15.372 22.92 15.647C23.288 15.926 23.5 16.352 23.5 16.814V20.5C23.5 21.605 24.395 22.5 25.5 22.5H29.177C29.355 22.5 29.463 22.41 29.521 22.334C29.618 22.209 29.651 22.034 29.608 21.867C29.537 21.585 29.5 21.293 29.5 21C29.5 19.958 29.958 18.979 30.756 18.312C31.39 17.783 32.185 17.501 33.007 17.501Z" fill="#EE6054"/>
<path d="M17.4368 6.38092C17.2258 6.38092 17.0298 6.24692 16.9608 6.03492L16.3428 4.13292C16.2578 3.86992 16.4018 3.58892 16.6638 3.50292C16.9248 3.41692 17.2078 3.56092 17.2938 3.82392L17.9118 5.72592C17.9968 5.98892 17.8528 6.26992 17.5908 6.35592C17.5408 6.37292 17.4888 6.38092 17.4368 6.38092Z" fill="#EE6054"/>
<path d="M12.4198 8.93809C12.2648 8.93809 12.1128 8.86709 12.0148 8.73209L10.8388 7.11409C10.6758 6.89109 10.7258 6.57809 10.9488 6.41609C11.1718 6.25409 11.4848 6.30209 11.6468 6.52609L12.8228 8.14409C12.9858 8.36709 12.9358 8.68009 12.7128 8.84209C12.6248 8.90609 12.5218 8.93809 12.4198 8.93809Z" fill="#EE6054"/>
<path d="M8.43679 12.9201C8.33479 12.9201 8.23179 12.8891 8.14379 12.8241L6.52579 11.6481C6.30179 11.4861 6.25279 11.1731 6.41579 10.9501C6.57779 10.7251 6.88979 10.6771 7.11379 10.8401L8.73179 12.0161C8.95579 12.1781 9.00479 12.4911 8.84179 12.7141C8.74379 12.8491 8.59179 12.9201 8.43679 12.9201Z" fill="#EE6054"/>
<path d="M5.8809 17.9377C5.8299 17.9377 5.7779 17.9297 5.7269 17.9137L3.8249 17.2957C3.5619 17.2107 3.4179 16.9287 3.5039 16.6657C3.5899 16.4027 3.8729 16.2587 4.1339 16.3447L6.0359 16.9627C6.2989 17.0477 6.4429 17.3297 6.3569 17.5927C6.2879 17.8027 6.0919 17.9377 5.8809 17.9377Z" fill="#EE6054"/>
<path d="M29.1799 42.521C28.9689 42.521 28.7729 42.387 28.7039 42.175L28.0859 40.273C28.0009 40.01 28.145 39.729 28.407 39.643C28.667 39.557 28.9509 39.702 29.0369 39.964L29.6549 41.866C29.7399 42.129 29.5959 42.41 29.3339 42.496C29.2829 42.513 29.2309 42.521 29.1799 42.521Z" fill="#EE6054"/>
<path d="M34.7558 39.6798C34.6008 39.6798 34.4488 39.6088 34.3508 39.4738L33.1748 37.8558C33.0118 37.6328 33.0618 37.3198 33.2848 37.1578C33.5088 36.9958 33.8208 37.0438 33.9828 37.2678L35.1588 38.8858C35.3218 39.1088 35.2718 39.4218 35.0488 39.5838C34.9608 39.6488 34.8578 39.6798 34.7558 39.6798Z" fill="#EE6054"/>
<path d="M39.18 35.2558C39.078 35.2558 38.975 35.2248 38.887 35.1598L37.269 33.9838C37.045 33.8218 36.996 33.5088 37.159 33.2858C37.321 33.0618 37.633 33.0128 37.857 33.1758L39.475 34.3518C39.699 34.5138 39.748 34.8268 39.585 35.0498C39.487 35.1848 39.334 35.2558 39.18 35.2558Z" fill="#EE6054"/>
<path d="M42.0208 29.6801C41.9698 29.6801 41.9178 29.6721 41.8668 29.6561L39.9648 29.0381C39.7018 28.9531 39.5578 28.6711 39.6438 28.4081C39.7298 28.1451 40.0118 28.0031 40.2738 28.0871L42.1758 28.7051C42.4388 28.7901 42.5828 29.0721 42.4968 29.3351C42.4278 29.5461 42.2318 29.6801 42.0208 29.6801Z" fill="#EE6054"/>
</svg>
