<svg width="294" height="357" viewBox="0 0 294 357" fill="none" xmlns="http://www.w3.org/2000/svg">
<g filter="url(#filter0_dd_289_16385)">
<rect x="12" y="0.25" width="270" height="70" rx="8" fill="white"/>
<path d="M28.4039 22.25V10.97H30.4519V15.674H36.2599V10.97H38.3079V22.25H36.2599V17.386H30.4519V22.25H28.4039ZM40.4589 12.746V10.794H42.6989V12.746H40.4589ZM40.5869 22.25V14.426H42.5869V22.25H40.5869ZM45.465 24.378L44.649 23.738C44.8837 23.5033 45.065 23.2793 45.193 23.066C45.321 22.8633 45.4117 22.6553 45.465 22.442C45.529 22.2287 45.561 22.01 45.561 21.786L45.993 22.25H44.489V20.026H46.729V21.498C46.729 21.8607 46.6863 22.202 46.601 22.522C46.5263 22.842 46.3983 23.1513 46.217 23.45C46.0357 23.7593 45.785 24.0687 45.465 24.378ZM53.1383 22.25V10.97H55.1863V22.25H53.1383ZM64.3348 22.41C63.7694 22.41 63.2628 22.3033 62.8148 22.09C62.3774 21.866 62.0308 21.5673 61.7747 21.194C61.5294 20.8207 61.4068 20.3993 61.4068 19.93C61.4068 19.354 61.5561 18.9007 61.8548 18.57C62.1534 18.2287 62.6388 17.9833 63.3108 17.834C63.9828 17.6847 64.8841 17.61 66.0148 17.61H66.8148V18.762H66.0308C65.5294 18.762 65.1081 18.7833 64.7668 18.826C64.4254 18.858 64.1481 18.9167 63.9348 19.002C63.7321 19.0767 63.5828 19.1833 63.4868 19.322C63.4014 19.4607 63.3588 19.6313 63.3588 19.834C63.3588 20.186 63.4814 20.474 63.7268 20.698C63.9721 20.922 64.3134 21.034 64.7508 21.034C65.1028 21.034 65.4121 20.954 65.6788 20.794C65.9561 20.6233 66.1748 20.394 66.3348 20.106C66.4948 19.818 66.5748 19.4873 66.5748 19.114V17.274C66.5748 16.7407 66.4574 16.3567 66.2228 16.122C65.9881 15.8873 65.5934 15.77 65.0388 15.77C64.6014 15.77 64.1534 15.8393 63.6948 15.978C63.2361 16.106 62.7721 16.3087 62.3028 16.586L61.7268 15.226C62.0041 15.034 62.3294 14.8687 62.7028 14.73C63.0868 14.5807 63.4868 14.4687 63.9028 14.394C64.3294 14.3087 64.7294 14.266 65.1028 14.266C65.8708 14.266 66.5001 14.3833 66.9908 14.618C67.4921 14.8527 67.8654 15.21 68.1108 15.69C68.3561 16.1593 68.4788 16.7673 68.4788 17.514V22.25H66.6068V20.586H66.7348C66.6601 20.9593 66.5108 21.2847 66.2868 21.562C66.0734 21.8287 65.8014 22.0367 65.4708 22.186C65.1401 22.3353 64.7614 22.41 64.3348 22.41ZM70.5408 22.25V14.426H72.4928V15.994H72.3168C72.4554 15.6313 72.6474 15.322 72.8928 15.066C73.1381 14.81 73.4314 14.6127 73.7728 14.474C74.1141 14.3353 74.4928 14.266 74.9088 14.266C75.5381 14.266 76.0554 14.4153 76.4608 14.714C76.8661 15.0127 77.1488 15.4713 77.3088 16.09H77.0848C77.2981 15.5247 77.6501 15.082 78.1408 14.762C78.6314 14.4313 79.1968 14.266 79.8368 14.266C80.4341 14.266 80.9248 14.3833 81.3088 14.618C81.7034 14.8527 81.9968 15.21 82.1888 15.69C82.3808 16.1593 82.4768 16.7567 82.4768 17.482V22.25H80.4768V17.562C80.4768 16.9647 80.3754 16.5273 80.1728 16.25C79.9808 15.9727 79.6501 15.834 79.1808 15.834C78.8394 15.834 78.5408 15.9193 78.2847 16.09C78.0288 16.25 77.8314 16.4847 77.6927 16.794C77.5648 17.1033 77.5008 17.4767 77.5008 17.914V22.25H75.5008V17.562C75.5008 16.9647 75.3994 16.5273 75.1968 16.25C75.0048 15.9727 74.6794 15.834 74.2208 15.834C73.8688 15.834 73.5648 15.9193 73.3088 16.09C73.0634 16.25 72.8714 16.4847 72.7328 16.794C72.6048 17.1033 72.5408 17.4767 72.5408 17.914V22.25H70.5408ZM94.2925 22.41C93.1192 22.41 92.1112 22.1753 91.2685 21.706C90.4365 21.226 89.7965 20.554 89.3485 19.69C88.9005 18.8153 88.6765 17.786 88.6765 16.602C88.6765 15.418 88.9005 14.394 89.3485 13.53C89.7965 12.666 90.4365 11.9993 91.2685 11.53C92.1112 11.05 93.1192 10.81 94.2925 10.81C95.0498 10.81 95.7645 10.9273 96.4365 11.162C97.1192 11.3967 97.6792 11.7327 98.1165 12.17L97.4445 13.802C96.9645 13.3967 96.4738 13.1033 95.9725 12.922C95.4712 12.73 94.9325 12.634 94.3565 12.634C93.2152 12.634 92.3458 12.9807 91.7485 13.674C91.1512 14.3567 90.8525 15.3327 90.8525 16.602C90.8525 17.8713 91.1512 18.8527 91.7485 19.546C92.3458 20.2393 93.2152 20.586 94.3565 20.586C94.9325 20.586 95.4712 20.4953 95.9725 20.314C96.4738 20.122 96.9645 19.8233 97.4445 19.418L98.1165 21.05C97.6792 21.4767 97.1192 21.8127 96.4365 22.058C95.7645 22.2927 95.0498 22.41 94.2925 22.41ZM102.432 22.41C101.504 22.41 100.816 22.1593 100.368 21.658C99.9305 21.146 99.7119 20.3993 99.7119 19.418V10.97H101.712V19.322C101.712 19.6313 101.755 19.898 101.84 20.122C101.936 20.3353 102.075 20.4953 102.256 20.602C102.437 20.7087 102.661 20.762 102.928 20.762C103.045 20.762 103.163 20.7567 103.28 20.746C103.397 20.7353 103.509 20.714 103.616 20.682L103.584 22.266C103.392 22.3087 103.2 22.3407 103.008 22.362C102.827 22.394 102.635 22.41 102.432 22.41ZM108.599 22.41C107.714 22.41 106.951 22.2447 106.311 21.914C105.671 21.5833 105.175 21.114 104.823 20.506C104.482 19.898 104.311 19.178 104.311 18.346C104.311 17.5353 104.476 16.826 104.807 16.218C105.148 15.61 105.612 15.1353 106.199 14.794C106.796 14.442 107.474 14.266 108.231 14.266C108.978 14.266 109.618 14.426 110.151 14.746C110.684 15.066 111.095 15.5193 111.383 16.106C111.682 16.6927 111.831 17.3913 111.831 18.202V18.794H105.927V17.642H110.423L110.167 17.882C110.167 17.1567 110.007 16.602 109.687 16.218C109.367 15.8233 108.908 15.626 108.311 15.626C107.863 15.626 107.479 15.7327 107.159 15.946C106.85 16.1487 106.61 16.442 106.439 16.826C106.279 17.1993 106.199 17.6473 106.199 18.17V18.282C106.199 18.8687 106.29 19.354 106.471 19.738C106.652 20.122 106.924 20.41 107.287 20.602C107.65 20.794 108.098 20.89 108.631 20.89C109.068 20.89 109.506 20.826 109.943 20.698C110.38 20.5593 110.78 20.346 111.143 20.058L111.703 21.402C111.33 21.7113 110.86 21.9567 110.295 22.138C109.73 22.3193 109.164 22.41 108.599 22.41ZM116.983 22.41C116.172 22.41 115.468 22.2447 114.871 21.914C114.274 21.5833 113.81 21.114 113.479 20.506C113.148 19.8873 112.983 19.162 112.983 18.33C112.983 17.498 113.148 16.778 113.479 16.17C113.81 15.562 114.274 15.0927 114.871 14.762C115.468 14.4313 116.172 14.266 116.983 14.266C117.794 14.266 118.498 14.4313 119.095 14.762C119.692 15.0927 120.156 15.562 120.487 16.17C120.818 16.778 120.983 17.498 120.983 18.33C120.983 19.162 120.818 19.8873 120.487 20.506C120.156 21.114 119.692 21.5833 119.095 21.914C118.498 22.2447 117.794 22.41 116.983 22.41ZM116.983 20.89C117.58 20.89 118.06 20.6767 118.423 20.25C118.786 19.8127 118.967 19.1727 118.967 18.33C118.967 17.4767 118.786 16.842 118.423 16.426C118.06 15.9993 117.58 15.786 116.983 15.786C116.386 15.786 115.906 15.9993 115.543 16.426C115.18 16.842 114.999 17.4767 114.999 18.33C114.999 19.1727 115.18 19.8127 115.543 20.25C115.906 20.6767 116.386 20.89 116.983 20.89ZM123.137 24.378L122.321 23.738C122.556 23.5033 122.737 23.2793 122.865 23.066C122.993 22.8633 123.084 22.6553 123.137 22.442C123.201 22.2287 123.233 22.01 123.233 21.786L123.665 22.25H122.161V20.026H124.401V21.498C124.401 21.8607 124.358 22.202 124.273 22.522C124.198 22.842 124.07 23.1513 123.889 23.45C123.708 23.7593 123.457 24.0687 123.137 24.378ZM135.13 22.41C134.469 22.41 133.887 22.2447 133.386 21.914C132.895 21.5833 132.57 21.1407 132.41 20.586H132.57V22.25H130.618V10.97H132.618V16.01H132.426C132.597 15.4873 132.927 15.066 133.418 14.746C133.909 14.426 134.479 14.266 135.13 14.266C135.823 14.266 136.426 14.4313 136.938 14.762C137.45 15.0927 137.85 15.562 138.138 16.17C138.426 16.7673 138.57 17.4873 138.57 18.33C138.57 19.162 138.426 19.8873 138.138 20.506C137.85 21.114 137.445 21.5833 136.922 21.914C136.41 22.2447 135.813 22.41 135.13 22.41ZM134.57 20.89C135.167 20.89 135.647 20.6767 136.01 20.25C136.373 19.8127 136.554 19.1727 136.554 18.33C136.554 17.4767 136.373 16.842 136.01 16.426C135.647 15.9993 135.167 15.786 134.57 15.786C133.973 15.786 133.493 15.9993 133.13 16.426C132.767 16.842 132.586 17.4767 132.586 18.33C132.586 19.1727 132.767 19.8127 133.13 20.25C133.493 20.6767 133.973 20.89 134.57 20.89ZM144.068 22.41C143.183 22.41 142.42 22.2447 141.78 21.914C141.14 21.5833 140.644 21.114 140.292 20.506C139.951 19.898 139.78 19.178 139.78 18.346C139.78 17.5353 139.945 16.826 140.276 16.218C140.617 15.61 141.081 15.1353 141.668 14.794C142.265 14.442 142.943 14.266 143.7 14.266C144.447 14.266 145.087 14.426 145.62 14.746C146.153 15.066 146.564 15.5193 146.852 16.106C147.151 16.6927 147.3 17.3913 147.3 18.202V18.794H141.396V17.642H145.892L145.636 17.882C145.636 17.1567 145.476 16.602 145.156 16.218C144.836 15.8233 144.377 15.626 143.78 15.626C143.332 15.626 142.948 15.7327 142.628 15.946C142.319 16.1487 142.079 16.442 141.908 16.826C141.748 17.1993 141.668 17.6473 141.668 18.17V18.282C141.668 18.8687 141.759 19.354 141.94 19.738C142.121 20.122 142.393 20.41 142.756 20.602C143.119 20.794 143.567 20.89 144.1 20.89C144.537 20.89 144.975 20.826 145.412 20.698C145.849 20.5593 146.249 20.346 146.612 20.058L147.172 21.402C146.799 21.7113 146.329 21.9567 145.764 22.138C145.199 22.3193 144.633 22.41 144.068 22.41ZM149.381 22.25V15.93H147.877V14.426H149.957L149.381 14.954V14.41C149.381 13.3007 149.669 12.4633 150.245 11.898C150.831 11.3327 151.738 11.0127 152.965 10.938L153.749 10.89L153.877 12.362L153.141 12.41C152.714 12.4313 152.373 12.5113 152.117 12.65C151.861 12.778 151.674 12.9593 151.557 13.194C151.439 13.4287 151.381 13.7273 151.381 14.09V14.682L151.125 14.426H153.509V15.93H151.381V22.25H149.381ZM158.046 22.41C157.235 22.41 156.531 22.2447 155.934 21.914C155.336 21.5833 154.872 21.114 154.542 20.506C154.211 19.8873 154.046 19.162 154.046 18.33C154.046 17.498 154.211 16.778 154.542 16.17C154.872 15.562 155.336 15.0927 155.934 14.762C156.531 14.4313 157.235 14.266 158.046 14.266C158.856 14.266 159.56 14.4313 160.158 14.762C160.755 15.0927 161.219 15.562 161.55 16.17C161.88 16.778 162.046 17.498 162.046 18.33C162.046 19.162 161.88 19.8873 161.55 20.506C161.219 21.114 160.755 21.5833 160.158 21.914C159.56 22.2447 158.856 22.41 158.046 22.41ZM158.046 20.89C158.643 20.89 159.123 20.6767 159.486 20.25C159.848 19.8127 160.03 19.1727 160.03 18.33C160.03 17.4767 159.848 16.842 159.486 16.426C159.123 15.9993 158.643 15.786 158.046 15.786C157.448 15.786 156.968 15.9993 156.606 16.426C156.243 16.842 156.062 17.4767 156.062 18.33C156.062 19.1727 156.243 19.8127 156.606 20.25C156.968 20.6767 157.448 20.89 158.046 20.89ZM163.696 22.25V14.426H165.648V16.314H165.488C165.638 15.674 165.931 15.1887 166.368 14.858C166.806 14.5167 167.387 14.3193 168.112 14.266L168.72 14.218L168.848 15.914L167.696 16.026C167.046 16.09 166.555 16.2927 166.224 16.634C165.894 16.9647 165.728 17.434 165.728 18.042V22.25H163.696ZM173.693 22.41C172.808 22.41 172.045 22.2447 171.405 21.914C170.765 21.5833 170.269 21.114 169.917 20.506C169.576 19.898 169.405 19.178 169.405 18.346C169.405 17.5353 169.57 16.826 169.901 16.218C170.242 15.61 170.706 15.1353 171.293 14.794C171.89 14.442 172.568 14.266 173.325 14.266C174.072 14.266 174.712 14.426 175.245 14.746C175.778 15.066 176.189 15.5193 176.477 16.106C176.776 16.6927 176.925 17.3913 176.925 18.202V18.794H171.021V17.642H175.517L175.261 17.882C175.261 17.1567 175.101 16.602 174.781 16.218C174.461 15.8233 174.002 15.626 173.405 15.626C172.957 15.626 172.573 15.7327 172.253 15.946C171.944 16.1487 171.704 16.442 171.533 16.826C171.373 17.1993 171.293 17.6473 171.293 18.17V18.282C171.293 18.8687 171.384 19.354 171.565 19.738C171.746 20.122 172.018 20.41 172.381 20.602C172.744 20.794 173.192 20.89 173.725 20.89C174.162 20.89 174.6 20.826 175.037 20.698C175.474 20.5593 175.874 20.346 176.237 20.058L176.797 21.402C176.424 21.7113 175.954 21.9567 175.389 22.138C174.824 22.3193 174.258 22.41 173.693 22.41ZM185.685 22.41C185.248 22.41 184.821 22.3727 184.405 22.298C184 22.2233 183.627 22.122 183.285 21.994C182.944 21.8553 182.645 21.6847 182.389 21.482L182.901 20.17C183.168 20.3407 183.456 20.49 183.765 20.618C184.075 20.746 184.395 20.842 184.725 20.906C185.056 20.97 185.381 21.002 185.701 21.002C186.213 21.002 186.592 20.9167 186.837 20.746C187.093 20.5647 187.221 20.33 187.221 20.042C187.221 19.7967 187.136 19.61 186.965 19.482C186.805 19.3433 186.56 19.242 186.229 19.178L184.629 18.874C183.968 18.746 183.461 18.506 183.109 18.154C182.768 17.7913 182.597 17.3273 182.597 16.762C182.597 16.25 182.736 15.8073 183.013 15.434C183.301 15.0607 183.696 14.7727 184.197 14.57C184.699 14.3673 185.275 14.266 185.925 14.266C186.299 14.266 186.661 14.3033 187.013 14.378C187.365 14.442 187.696 14.5433 188.005 14.682C188.325 14.81 188.603 14.9807 188.837 15.194L188.293 16.506C188.091 16.3353 187.856 16.1913 187.589 16.074C187.323 15.946 187.045 15.85 186.757 15.786C186.48 15.7113 186.208 15.674 185.941 15.674C185.419 15.674 185.029 15.7647 184.773 15.946C184.528 16.1273 184.405 16.3673 184.405 16.666C184.405 16.89 184.48 17.0767 184.629 17.226C184.779 17.3753 185.008 17.4767 185.317 17.53L186.917 17.834C187.611 17.962 188.133 18.1967 188.485 18.538C188.848 18.8793 189.029 19.338 189.029 19.914C189.029 20.4367 188.891 20.8847 188.613 21.258C188.336 21.6313 187.947 21.9193 187.445 22.122C186.944 22.314 186.357 22.41 185.685 22.41ZM194.14 22.41C193.094 22.41 192.316 22.1487 191.804 21.626C191.292 21.1033 191.036 20.3407 191.036 19.338V15.93H189.532V14.426H191.036V12.09H193.036V14.426H195.404V15.93H193.036V19.226C193.036 19.738 193.148 20.122 193.372 20.378C193.596 20.634 193.958 20.762 194.46 20.762C194.609 20.762 194.764 20.746 194.924 20.714C195.084 20.6713 195.249 20.6287 195.42 20.586L195.724 22.058C195.532 22.1647 195.286 22.25 194.988 22.314C194.7 22.378 194.417 22.41 194.14 22.41ZM199.272 22.41C198.707 22.41 198.2 22.3033 197.752 22.09C197.315 21.866 196.968 21.5673 196.712 21.194C196.467 20.8207 196.344 20.3993 196.344 19.93C196.344 19.354 196.494 18.9007 196.792 18.57C197.091 18.2287 197.576 17.9833 198.248 17.834C198.92 17.6847 199.822 17.61 200.952 17.61H201.752V18.762H200.968C200.467 18.762 200.046 18.7833 199.704 18.826C199.363 18.858 199.086 18.9167 198.872 19.002C198.67 19.0767 198.52 19.1833 198.424 19.322C198.339 19.4607 198.296 19.6313 198.296 19.834C198.296 20.186 198.419 20.474 198.664 20.698C198.91 20.922 199.251 21.034 199.688 21.034C200.04 21.034 200.35 20.954 200.616 20.794C200.894 20.6233 201.112 20.394 201.272 20.106C201.432 19.818 201.512 19.4873 201.512 19.114V17.274C201.512 16.7407 201.395 16.3567 201.16 16.122C200.926 15.8873 200.531 15.77 199.976 15.77C199.539 15.77 199.091 15.8393 198.632 15.978C198.174 16.106 197.71 16.3087 197.24 16.586L196.664 15.226C196.942 15.034 197.267 14.8687 197.64 14.73C198.024 14.5807 198.424 14.4687 198.84 14.394C199.267 14.3087 199.667 14.266 200.04 14.266C200.808 14.266 201.438 14.3833 201.928 14.618C202.43 14.8527 202.803 15.21 203.048 15.69C203.294 16.1593 203.416 16.7673 203.416 17.514V22.25H201.544V20.586H201.672C201.598 20.9593 201.448 21.2847 201.224 21.562C201.011 21.8287 200.739 22.0367 200.408 22.186C200.078 22.3353 199.699 22.41 199.272 22.41ZM205.446 22.25V14.426H207.398V16.314H207.238C207.388 15.674 207.681 15.1887 208.118 14.858C208.556 14.5167 209.137 14.3193 209.862 14.266L210.47 14.218L210.598 15.914L209.446 16.026C208.796 16.09 208.305 16.2927 207.974 16.634C207.644 16.9647 207.478 17.434 207.478 18.042V22.25H205.446ZM215.749 22.41C214.704 22.41 213.925 22.1487 213.413 21.626C212.901 21.1033 212.645 20.3407 212.645 19.338V15.93H211.141V14.426H212.645V12.09H214.645V14.426H217.013V15.93H214.645V19.226C214.645 19.738 214.757 20.122 214.981 20.378C215.205 20.634 215.568 20.762 216.069 20.762C216.218 20.762 216.373 20.746 216.533 20.714C216.693 20.6713 216.858 20.6287 217.029 20.586L217.333 22.058C217.141 22.1647 216.896 22.25 216.597 22.314C216.309 22.378 216.026 22.41 215.749 22.41ZM218.178 12.746V10.794H220.418V12.746H218.178ZM218.306 22.25V14.426H220.306V22.25H218.306ZM222.384 22.25V14.426H224.336V15.994H224.16C224.394 15.4287 224.757 15.002 225.248 14.714C225.749 14.4153 226.314 14.266 226.944 14.266C227.573 14.266 228.09 14.3833 228.496 14.618C228.901 14.8527 229.205 15.21 229.408 15.69C229.61 16.1593 229.712 16.7567 229.712 17.482V22.25H227.712V17.578C227.712 17.1727 227.658 16.842 227.552 16.586C227.456 16.33 227.301 16.1433 227.088 16.026C226.885 15.898 226.624 15.834 226.304 15.834C225.92 15.834 225.584 15.9193 225.296 16.09C225.008 16.25 224.784 16.4847 224.624 16.794C224.464 17.0927 224.384 17.4447 224.384 17.85V22.25H222.384ZM235.391 25.29C234.666 25.29 233.983 25.2047 233.343 25.034C232.714 24.874 232.159 24.6233 231.679 24.282L232.255 22.89C232.554 23.082 232.868 23.242 233.199 23.37C233.53 23.5087 233.866 23.61 234.207 23.674C234.548 23.738 234.89 23.77 235.231 23.77C235.946 23.77 236.479 23.594 236.831 23.242C237.194 22.9007 237.375 22.3887 237.375 21.706V20.266H237.519C237.359 20.81 237.023 21.2473 236.511 21.578C236.01 21.898 235.439 22.058 234.799 22.058C234.095 22.058 233.482 21.898 232.959 21.578C232.436 21.2473 232.031 20.7887 231.743 20.202C231.455 19.6153 231.311 18.9327 231.311 18.154C231.311 17.3753 231.455 16.698 231.743 16.122C232.031 15.5353 232.436 15.082 232.959 14.762C233.482 14.4313 234.095 14.266 234.799 14.266C235.46 14.266 236.036 14.4313 236.527 14.762C237.028 15.082 237.354 15.5087 237.503 16.042H237.375V14.426H239.327V21.466C239.327 22.3087 239.178 23.0127 238.879 23.578C238.58 24.154 238.138 24.5807 237.551 24.858C236.964 25.146 236.244 25.29 235.391 25.29ZM235.343 20.538C235.962 20.538 236.452 20.3247 236.815 19.898C237.178 19.4713 237.359 18.89 237.359 18.154C237.359 17.418 237.178 16.842 236.815 16.426C236.452 15.9993 235.962 15.786 235.343 15.786C234.724 15.786 234.234 15.9993 233.871 16.426C233.508 16.842 233.327 17.418 233.327 18.154C233.327 18.89 233.508 19.4713 233.871 19.898C234.234 20.3247 234.724 20.538 235.343 20.538ZM247.872 22.25L244.784 14.426H246.832L249.008 20.426H248.64L250.848 14.426H252.256L254.432 20.426H254.096L256.272 14.426H258.208L255.136 22.25H253.392L251.024 15.994H251.936L249.616 22.25H247.872ZM263.052 22.41C262.167 22.41 261.404 22.2447 260.764 21.914C260.124 21.5833 259.628 21.114 259.276 20.506C258.935 19.898 258.764 19.178 258.764 18.346C258.764 17.5353 258.93 16.826 259.26 16.218C259.602 15.61 260.066 15.1353 260.652 14.794C261.25 14.442 261.927 14.266 262.684 14.266C263.431 14.266 264.071 14.426 264.604 14.746C265.138 15.066 265.548 15.5193 265.836 16.106C266.135 16.6927 266.284 17.3913 266.284 18.202V18.794H260.38V17.642H264.876L264.62 17.882C264.62 17.1567 264.46 16.602 264.14 16.218C263.82 15.8233 263.362 15.626 262.764 15.626C262.316 15.626 261.932 15.7327 261.612 15.946C261.303 16.1487 261.063 16.442 260.892 16.826C260.732 17.1993 260.652 17.6473 260.652 18.17V18.282C260.652 18.8687 260.743 19.354 260.924 19.738C261.106 20.122 261.378 20.41 261.74 20.602C262.103 20.794 262.551 20.89 263.084 20.89C263.522 20.89 263.959 20.826 264.396 20.698C264.834 20.5593 265.234 20.346 265.596 20.058L266.156 21.402C265.783 21.7113 265.314 21.9567 264.748 22.138C264.183 22.3193 263.618 22.41 263.052 22.41ZM61.1141 40.25L58.0261 32.426H60.0741L62.2501 38.426H61.8821L64.0901 32.426H65.4981L67.6741 38.426H67.3381L69.5141 32.426H71.4501L68.3781 40.25H66.6341L64.2661 33.994H65.1781L62.8581 40.25H61.1141ZM72.4667 30.746V28.794H74.7067V30.746H72.4667ZM72.5947 40.25V32.426H74.5947V40.25H72.5947ZM79.3928 40.41C78.4648 40.41 77.7768 40.1593 77.3288 39.658C76.8915 39.146 76.6728 38.3993 76.6728 37.418V28.97H78.6728V37.322C78.6728 37.6313 78.7155 37.898 78.8008 38.122C78.8968 38.3353 79.0355 38.4953 79.2168 38.602C79.3981 38.7087 79.6221 38.762 79.8888 38.762C80.0061 38.762 80.1235 38.7567 80.2408 38.746C80.3581 38.7353 80.4701 38.714 80.5768 38.682L80.5448 40.266C80.3528 40.3087 80.1608 40.3407 79.9688 40.362C79.7875 40.394 79.5955 40.41 79.3928 40.41ZM84.5022 40.41C83.5742 40.41 82.8862 40.1593 82.4382 39.658C82.0009 39.146 81.7822 38.3993 81.7822 37.418V28.97H83.7822V37.322C83.7822 37.6313 83.8249 37.898 83.9102 38.122C84.0062 38.3353 84.1449 38.4953 84.3262 38.602C84.5075 38.7087 84.7315 38.762 84.9982 38.762C85.1155 38.762 85.2329 38.7567 85.3502 38.746C85.4675 38.7353 85.5795 38.714 85.6862 38.682L85.6542 40.266C85.4622 40.3087 85.2702 40.3407 85.0782 40.362C84.8969 40.394 84.7049 40.41 84.5022 40.41ZM95.7161 40.41C95.0547 40.41 94.4734 40.2447 93.9721 39.914C93.4814 39.5833 93.1561 39.1407 92.9961 38.586H93.1561V40.25H91.2041V28.97H93.2041V34.01H93.0121C93.1827 33.4873 93.5134 33.066 94.0041 32.746C94.4947 32.426 95.0654 32.266 95.7161 32.266C96.4094 32.266 97.0121 32.4313 97.5241 32.762C98.0361 33.0927 98.4361 33.562 98.7241 34.17C99.0121 34.7673 99.1561 35.4873 99.1561 36.33C99.1561 37.162 99.0121 37.8873 98.7241 38.506C98.4361 39.114 98.0307 39.5833 97.5081 39.914C96.9961 40.2447 96.3987 40.41 95.7161 40.41ZM95.1561 38.89C95.7534 38.89 96.2334 38.6767 96.5961 38.25C96.9587 37.8127 97.1401 37.1727 97.1401 36.33C97.1401 35.4767 96.9587 34.842 96.5961 34.426C96.2334 33.9993 95.7534 33.786 95.1561 33.786C94.5587 33.786 94.0787 33.9993 93.7161 34.426C93.3534 34.842 93.1721 35.4767 93.1721 36.33C93.1721 37.1727 93.3534 37.8127 93.7161 38.25C94.0787 38.6767 94.5587 38.89 95.1561 38.89ZM104.654 40.41C103.768 40.41 103.006 40.2447 102.366 39.914C101.726 39.5833 101.23 39.114 100.878 38.506C100.536 37.898 100.366 37.178 100.366 36.346C100.366 35.5353 100.531 34.826 100.862 34.218C101.203 33.61 101.667 33.1353 102.254 32.794C102.851 32.442 103.528 32.266 104.286 32.266C105.032 32.266 105.672 32.426 106.206 32.746C106.739 33.066 107.15 33.5193 107.438 34.106C107.736 34.6927 107.886 35.3913 107.886 36.202V36.794H101.982V35.642H106.478L106.222 35.882C106.222 35.1567 106.062 34.602 105.742 34.218C105.422 33.8233 104.963 33.626 104.366 33.626C103.918 33.626 103.534 33.7327 103.214 33.946C102.904 34.1487 102.664 34.442 102.494 34.826C102.334 35.1993 102.254 35.6473 102.254 36.17V36.282C102.254 36.8687 102.344 37.354 102.526 37.738C102.707 38.122 102.979 38.41 103.342 38.602C103.704 38.794 104.152 38.89 104.686 38.89C105.123 38.89 105.56 38.826 105.998 38.698C106.435 38.5593 106.835 38.346 107.198 38.058L107.758 39.402C107.384 39.7113 106.915 39.9567 106.35 40.138C105.784 40.3193 105.219 40.41 104.654 40.41ZM116.358 40.41C115.793 40.41 115.286 40.3033 114.838 40.09C114.401 39.866 114.054 39.5673 113.798 39.194C113.553 38.8207 113.43 38.3993 113.43 37.93C113.43 37.354 113.58 36.9007 113.878 36.57C114.177 36.2287 114.662 35.9833 115.334 35.834C116.006 35.6847 116.908 35.61 118.038 35.61H118.838V36.762H118.054C117.553 36.762 117.132 36.7833 116.79 36.826C116.449 36.858 116.172 36.9167 115.958 37.002C115.756 37.0767 115.606 37.1833 115.51 37.322C115.425 37.4607 115.382 37.6313 115.382 37.834C115.382 38.186 115.505 38.474 115.75 38.698C115.996 38.922 116.337 39.034 116.774 39.034C117.126 39.034 117.436 38.954 117.702 38.794C117.98 38.6233 118.198 38.394 118.358 38.106C118.518 37.818 118.598 37.4873 118.598 37.114V35.274C118.598 34.7407 118.481 34.3567 118.246 34.122C118.012 33.8873 117.617 33.77 117.062 33.77C116.625 33.77 116.177 33.8393 115.718 33.978C115.26 34.106 114.796 34.3087 114.326 34.586L113.75 33.226C114.028 33.034 114.353 32.8687 114.726 32.73C115.11 32.5807 115.51 32.4687 115.926 32.394C116.353 32.3087 116.753 32.266 117.126 32.266C117.894 32.266 118.524 32.3833 119.014 32.618C119.516 32.8527 119.889 33.21 120.134 33.69C120.38 34.1593 120.502 34.7673 120.502 35.514V40.25H118.63V38.586H118.758C118.684 38.9593 118.534 39.2847 118.31 39.562C118.097 39.8287 117.825 40.0367 117.494 40.186C117.164 40.3353 116.785 40.41 116.358 40.41ZM125.396 40.41C124.959 40.41 124.532 40.3727 124.116 40.298C123.711 40.2233 123.338 40.122 122.996 39.994C122.655 39.8553 122.356 39.6847 122.1 39.482L122.612 38.17C122.879 38.3407 123.167 38.49 123.476 38.618C123.786 38.746 124.106 38.842 124.436 38.906C124.767 38.97 125.092 39.002 125.412 39.002C125.924 39.002 126.303 38.9167 126.548 38.746C126.804 38.5647 126.932 38.33 126.932 38.042C126.932 37.7967 126.847 37.61 126.676 37.482C126.516 37.3433 126.271 37.242 125.94 37.178L124.34 36.874C123.679 36.746 123.172 36.506 122.82 36.154C122.479 35.7913 122.308 35.3273 122.308 34.762C122.308 34.25 122.447 33.8073 122.724 33.434C123.012 33.0607 123.407 32.7727 123.908 32.57C124.41 32.3673 124.986 32.266 125.636 32.266C126.01 32.266 126.372 32.3033 126.724 32.378C127.076 32.442 127.407 32.5433 127.716 32.682C128.036 32.81 128.314 32.9807 128.548 33.194L128.004 34.506C127.802 34.3353 127.567 34.1913 127.3 34.074C127.034 33.946 126.756 33.85 126.468 33.786C126.191 33.7113 125.919 33.674 125.652 33.674C125.13 33.674 124.74 33.7647 124.484 33.946C124.239 34.1273 124.116 34.3673 124.116 34.666C124.116 34.89 124.191 35.0767 124.34 35.226C124.49 35.3753 124.719 35.4767 125.028 35.53L126.628 35.834C127.322 35.962 127.844 36.1967 128.196 36.538C128.559 36.8793 128.74 37.338 128.74 37.914C128.74 38.4367 128.602 38.8847 128.324 39.258C128.047 39.6313 127.658 39.9193 127.156 40.122C126.655 40.314 126.068 40.41 125.396 40.41ZM130.345 40.25V28.97H132.345V35.754H132.377L135.529 32.426H137.945L134.009 36.586V35.754L138.169 40.25H135.721L132.377 36.762H132.345V40.25H130.345ZM138.795 30.746V28.794H141.035V30.746H138.795ZM138.923 40.25V32.426H140.923V40.25H138.923ZM143.001 40.25V32.426H144.953V33.994H144.777C145.012 33.4287 145.374 33.002 145.865 32.714C146.366 32.4153 146.932 32.266 147.561 32.266C148.19 32.266 148.708 32.3833 149.113 32.618C149.518 32.8527 149.822 33.21 150.025 33.69C150.228 34.1593 150.329 34.7567 150.329 35.482V40.25H148.329V35.578C148.329 35.1727 148.276 34.842 148.169 34.586C148.073 34.33 147.918 34.1433 147.705 34.026C147.502 33.898 147.241 33.834 146.921 33.834C146.537 33.834 146.201 33.9193 145.913 34.09C145.625 34.25 145.401 34.4847 145.241 34.794C145.081 35.0927 145.001 35.4447 145.001 35.85V40.25H143.001ZM156.008 43.29C155.283 43.29 154.6 43.2047 153.96 43.034C153.331 42.874 152.776 42.6233 152.296 42.282L152.872 40.89C153.171 41.082 153.486 41.242 153.816 41.37C154.147 41.5087 154.483 41.61 154.824 41.674C155.166 41.738 155.507 41.77 155.848 41.77C156.563 41.77 157.096 41.594 157.448 41.242C157.811 40.9007 157.992 40.3887 157.992 39.706V38.266H158.136C157.976 38.81 157.64 39.2473 157.128 39.578C156.627 39.898 156.056 40.058 155.416 40.058C154.712 40.058 154.099 39.898 153.576 39.578C153.054 39.2473 152.648 38.7887 152.36 38.202C152.072 37.6153 151.928 36.9327 151.928 36.154C151.928 35.3753 152.072 34.698 152.36 34.122C152.648 33.5353 153.054 33.082 153.576 32.762C154.099 32.4313 154.712 32.266 155.416 32.266C156.078 32.266 156.654 32.4313 157.144 32.762C157.646 33.082 157.971 33.5087 158.12 34.042H157.992V32.426H159.944V39.466C159.944 40.3087 159.795 41.0127 159.496 41.578C159.198 42.154 158.755 42.5807 158.168 42.858C157.582 43.146 156.862 43.29 156.008 43.29ZM155.96 38.538C156.579 38.538 157.07 38.3247 157.432 37.898C157.795 37.4713 157.976 36.89 157.976 36.154C157.976 35.418 157.795 34.842 157.432 34.426C157.07 33.9993 156.579 33.786 155.96 33.786C155.342 33.786 154.851 33.9993 154.488 34.426C154.126 34.842 153.944 35.418 153.944 36.154C153.944 36.89 154.126 37.4713 154.488 37.898C154.851 38.3247 155.342 38.538 155.96 38.538ZM167.033 43.13L168.665 39.53V40.362L165.225 32.426H167.353L169.785 38.49H169.305L171.785 32.426H173.801L169.097 43.13H167.033ZM178.163 40.41C177.352 40.41 176.648 40.2447 176.051 39.914C175.453 39.5833 174.989 39.114 174.659 38.506C174.328 37.8873 174.163 37.162 174.163 36.33C174.163 35.498 174.328 34.778 174.659 34.17C174.989 33.562 175.453 33.0927 176.051 32.762C176.648 32.4313 177.352 32.266 178.163 32.266C178.973 32.266 179.677 32.4313 180.275 32.762C180.872 33.0927 181.336 33.562 181.667 34.17C181.997 34.778 182.163 35.498 182.163 36.33C182.163 37.162 181.997 37.8873 181.667 38.506C181.336 39.114 180.872 39.5833 180.275 39.914C179.677 40.2447 178.973 40.41 178.163 40.41ZM178.163 38.89C178.76 38.89 179.24 38.6767 179.603 38.25C179.965 37.8127 180.147 37.1727 180.147 36.33C180.147 35.4767 179.965 34.842 179.603 34.426C179.24 33.9993 178.76 33.786 178.163 33.786C177.565 33.786 177.085 33.9993 176.723 34.426C176.36 34.842 176.179 35.4767 176.179 36.33C176.179 37.1727 176.36 37.8127 176.723 38.25C177.085 38.6767 177.565 38.89 178.163 38.89ZM186.645 40.41C185.995 40.41 185.456 40.2927 185.029 40.058C184.603 39.8127 184.283 39.45 184.069 38.97C183.867 38.49 183.765 37.8927 183.765 37.178V32.426H185.765V37.21C185.765 37.5727 185.813 37.8767 185.909 38.122C186.016 38.3673 186.171 38.5487 186.373 38.666C186.587 38.7833 186.853 38.842 187.173 38.842C187.536 38.842 187.851 38.762 188.117 38.602C188.395 38.4313 188.608 38.1967 188.757 37.898C188.917 37.5887 188.997 37.2313 188.997 36.826V32.426H190.997V40.25H189.045V38.618H189.269C189.045 39.194 188.704 39.6367 188.245 39.946C187.797 40.2553 187.264 40.41 186.645 40.41ZM200.256 40.41C199.818 40.41 199.392 40.3727 198.976 40.298C198.57 40.2233 198.197 40.122 197.856 39.994C197.514 39.8553 197.216 39.6847 196.96 39.482L197.472 38.17C197.738 38.3407 198.026 38.49 198.336 38.618C198.645 38.746 198.965 38.842 199.296 38.906C199.626 38.97 199.952 39.002 200.272 39.002C200.784 39.002 201.162 38.9167 201.408 38.746C201.664 38.5647 201.792 38.33 201.792 38.042C201.792 37.7967 201.706 37.61 201.536 37.482C201.376 37.3433 201.13 37.242 200.8 37.178L199.2 36.874C198.538 36.746 198.032 36.506 197.68 36.154C197.338 35.7913 197.168 35.3273 197.168 34.762C197.168 34.25 197.306 33.8073 197.584 33.434C197.872 33.0607 198.266 32.7727 198.768 32.57C199.269 32.3673 199.845 32.266 200.496 32.266C200.869 32.266 201.232 32.3033 201.584 32.378C201.936 32.442 202.266 32.5433 202.576 32.682C202.896 32.81 203.173 32.9807 203.408 33.194L202.864 34.506C202.661 34.3353 202.426 34.1913 202.16 34.074C201.893 33.946 201.616 33.85 201.328 33.786C201.05 33.7113 200.778 33.674 200.512 33.674C199.989 33.674 199.6 33.7647 199.344 33.946C199.098 34.1273 198.976 34.3673 198.976 34.666C198.976 34.89 199.05 35.0767 199.2 35.226C199.349 35.3753 199.578 35.4767 199.888 35.53L201.488 35.834C202.181 35.962 202.704 36.1967 203.056 36.538C203.418 36.8793 203.6 37.338 203.6 37.914C203.6 38.4367 203.461 38.8847 203.184 39.258C202.906 39.6313 202.517 39.9193 202.016 40.122C201.514 40.314 200.928 40.41 200.256 40.41ZM208.772 40.41C207.961 40.41 207.257 40.2447 206.66 39.914C206.063 39.5833 205.599 39.114 205.268 38.506C204.937 37.8873 204.772 37.162 204.772 36.33C204.772 35.498 204.937 34.778 205.268 34.17C205.599 33.562 206.063 33.0927 206.66 32.762C207.257 32.4313 207.961 32.266 208.772 32.266C209.583 32.266 210.287 32.4313 210.884 32.762C211.481 33.0927 211.945 33.562 212.276 34.17C212.607 34.778 212.772 35.498 212.772 36.33C212.772 37.162 212.607 37.8873 212.276 38.506C211.945 39.114 211.481 39.5833 210.884 39.914C210.287 40.2447 209.583 40.41 208.772 40.41ZM208.772 38.89C209.369 38.89 209.849 38.6767 210.212 38.25C210.575 37.8127 210.756 37.1727 210.756 36.33C210.756 35.4767 210.575 34.842 210.212 34.426C209.849 33.9993 209.369 33.786 208.772 33.786C208.175 33.786 207.695 33.9993 207.332 34.426C206.969 34.842 206.788 35.4767 206.788 36.33C206.788 37.1727 206.969 37.8127 207.332 38.25C207.695 38.6767 208.175 38.89 208.772 38.89ZM214.455 40.25V32.426H216.407V33.994H216.231C216.369 33.6313 216.561 33.322 216.807 33.066C217.052 32.81 217.345 32.6127 217.687 32.474C218.028 32.3353 218.407 32.266 218.823 32.266C219.452 32.266 219.969 32.4153 220.375 32.714C220.78 33.0127 221.063 33.4713 221.223 34.09H220.999C221.212 33.5247 221.564 33.082 222.055 32.762C222.545 32.4313 223.111 32.266 223.751 32.266C224.348 32.266 224.839 32.3833 225.223 32.618C225.617 32.8527 225.911 33.21 226.103 33.69C226.295 34.1593 226.391 34.7567 226.391 35.482V40.25H224.391V35.562C224.391 34.9647 224.289 34.5273 224.087 34.25C223.895 33.9727 223.564 33.834 223.095 33.834C222.753 33.834 222.455 33.9193 222.199 34.09C221.943 34.25 221.745 34.4847 221.607 34.794C221.479 35.1033 221.415 35.4767 221.415 35.914V40.25H219.415V35.562C219.415 34.9647 219.313 34.5273 219.111 34.25C218.919 33.9727 218.593 33.834 218.135 33.834C217.783 33.834 217.479 33.9193 217.223 34.09C216.977 34.25 216.785 34.4847 216.647 34.794C216.519 35.1033 216.455 35.4767 216.455 35.914V40.25H214.455ZM232.31 40.41C231.425 40.41 230.662 40.2447 230.022 39.914C229.382 39.5833 228.886 39.114 228.534 38.506C228.193 37.898 228.022 37.178 228.022 36.346C228.022 35.5353 228.187 34.826 228.518 34.218C228.859 33.61 229.323 33.1353 229.91 32.794C230.507 32.442 231.185 32.266 231.942 32.266C232.689 32.266 233.329 32.426 233.862 32.746C234.395 33.066 234.806 33.5193 235.094 34.106C235.393 34.6927 235.542 35.3913 235.542 36.202V36.794H229.638V35.642H234.134L233.878 35.882C233.878 35.1567 233.718 34.602 233.398 34.218C233.078 33.8233 232.619 33.626 232.022 33.626C231.574 33.626 231.19 33.7327 230.87 33.946C230.561 34.1487 230.321 34.442 230.15 34.826C229.99 35.1993 229.91 35.6473 229.91 36.17V36.282C229.91 36.8687 230.001 37.354 230.182 37.738C230.363 38.122 230.635 38.41 230.998 38.602C231.361 38.794 231.809 38.89 232.342 38.89C232.779 38.89 233.217 38.826 233.654 38.698C234.091 38.5593 234.491 38.346 234.854 38.058L235.414 39.402C235.041 39.7113 234.571 39.9567 234.006 40.138C233.441 40.3193 232.875 40.41 232.31 40.41ZM115.677 61.13V56.65H115.853C115.683 57.1727 115.352 57.5993 114.861 57.93C114.381 58.25 113.816 58.41 113.165 58.41C112.483 58.41 111.88 58.2447 111.357 57.914C110.845 57.5833 110.445 57.114 110.157 56.506C109.869 55.8873 109.725 55.162 109.725 54.33C109.725 53.4873 109.869 52.7673 110.157 52.17C110.445 51.562 110.845 51.0927 111.357 50.762C111.88 50.4313 112.483 50.266 113.165 50.266C113.827 50.266 114.403 50.4313 114.893 50.762C115.384 51.0927 115.709 51.53 115.869 52.074H115.725V50.426H117.677V61.13H115.677ZM113.725 56.89C114.323 56.89 114.803 56.6767 115.165 56.25C115.528 55.8127 115.709 55.1727 115.709 54.33C115.709 53.4767 115.528 52.842 115.165 52.426C114.803 51.9993 114.323 51.786 113.725 51.786C113.128 51.786 112.648 51.9993 112.285 52.426C111.923 52.842 111.741 53.4767 111.741 54.33C111.741 55.1727 111.923 55.8127 112.285 56.25C112.648 56.6767 113.128 56.89 113.725 56.89ZM122.583 58.41C121.932 58.41 121.394 58.2927 120.967 58.058C120.54 57.8127 120.22 57.45 120.007 56.97C119.804 56.49 119.703 55.8927 119.703 55.178V50.426H121.703V55.21C121.703 55.5727 121.751 55.8767 121.847 56.122C121.954 56.3673 122.108 56.5487 122.311 56.666C122.524 56.7833 122.791 56.842 123.111 56.842C123.474 56.842 123.788 56.762 124.055 56.602C124.332 56.4313 124.546 56.1967 124.695 55.898C124.855 55.5887 124.935 55.2313 124.935 54.826V50.426H126.935V58.25H124.983V56.618H125.207C124.983 57.194 124.642 57.6367 124.183 57.946C123.735 58.2553 123.202 58.41 122.583 58.41ZM132.873 58.41C131.987 58.41 131.225 58.2447 130.585 57.914C129.945 57.5833 129.449 57.114 129.097 56.506C128.755 55.898 128.585 55.178 128.585 54.346C128.585 53.5353 128.75 52.826 129.081 52.218C129.422 51.61 129.886 51.1353 130.473 50.794C131.07 50.442 131.747 50.266 132.505 50.266C133.251 50.266 133.891 50.426 134.425 50.746C134.958 51.066 135.369 51.5193 135.657 52.106C135.955 52.6927 136.105 53.3913 136.105 54.202V54.794H130.201V53.642H134.697L134.441 53.882C134.441 53.1567 134.281 52.602 133.961 52.218C133.641 51.8233 133.182 51.626 132.585 51.626C132.137 51.626 131.753 51.7327 131.433 51.946C131.123 52.1487 130.883 52.442 130.713 52.826C130.553 53.1993 130.473 53.6473 130.473 54.17V54.282C130.473 54.8687 130.563 55.354 130.745 55.738C130.926 56.122 131.198 56.41 131.561 56.602C131.923 56.794 132.371 56.89 132.905 56.89C133.342 56.89 133.779 56.826 134.217 56.698C134.654 56.5593 135.054 56.346 135.417 56.058L135.977 57.402C135.603 57.7113 135.134 57.9567 134.569 58.138C134.003 58.3193 133.438 58.41 132.873 58.41ZM140.552 58.41C140.115 58.41 139.688 58.3727 139.272 58.298C138.867 58.2233 138.494 58.122 138.152 57.994C137.811 57.8553 137.512 57.6847 137.256 57.482L137.768 56.17C138.035 56.3407 138.323 56.49 138.632 56.618C138.942 56.746 139.262 56.842 139.592 56.906C139.923 56.97 140.248 57.002 140.568 57.002C141.08 57.002 141.459 56.9167 141.704 56.746C141.96 56.5647 142.088 56.33 142.088 56.042C142.088 55.7967 142.003 55.61 141.832 55.482C141.672 55.3433 141.427 55.242 141.096 55.178L139.496 54.874C138.835 54.746 138.328 54.506 137.976 54.154C137.635 53.7913 137.464 53.3273 137.464 52.762C137.464 52.25 137.603 51.8073 137.88 51.434C138.168 51.0607 138.563 50.7727 139.064 50.57C139.566 50.3673 140.142 50.266 140.792 50.266C141.166 50.266 141.528 50.3033 141.88 50.378C142.232 50.442 142.563 50.5433 142.872 50.682C143.192 50.81 143.47 50.9807 143.704 51.194L143.16 52.506C142.958 52.3353 142.723 52.1913 142.456 52.074C142.19 51.946 141.912 51.85 141.624 51.786C141.347 51.7113 141.075 51.674 140.808 51.674C140.286 51.674 139.896 51.7647 139.64 51.946C139.395 52.1273 139.272 52.3673 139.272 52.666C139.272 52.89 139.347 53.0767 139.496 53.226C139.646 53.3753 139.875 53.4767 140.184 53.53L141.784 53.834C142.478 53.962 143 54.1967 143.352 54.538C143.715 54.8793 143.896 55.338 143.896 55.914C143.896 56.4367 143.758 56.8847 143.48 57.258C143.203 57.6313 142.814 57.9193 142.312 58.122C141.811 58.314 141.224 58.41 140.552 58.41ZM149.007 58.41C147.961 58.41 147.183 58.1487 146.671 57.626C146.159 57.1033 145.903 56.3407 145.903 55.338V51.93H144.399V50.426H145.903V48.09H147.903V50.426H150.271V51.93H147.903V55.226C147.903 55.738 148.015 56.122 148.239 56.378C148.463 56.634 148.825 56.762 149.327 56.762C149.476 56.762 149.631 56.746 149.791 56.714C149.951 56.6713 150.116 56.6287 150.287 56.586L150.591 58.058C150.399 58.1647 150.153 58.25 149.855 58.314C149.567 58.378 149.284 58.41 149.007 58.41ZM151.435 48.746V46.794H153.675V48.746H151.435ZM151.563 58.25V50.426H153.563V58.25H151.563ZM159.21 58.41C158.399 58.41 157.695 58.2447 157.098 57.914C156.5 57.5833 156.036 57.114 155.706 56.506C155.375 55.8873 155.21 55.162 155.21 54.33C155.21 53.498 155.375 52.778 155.706 52.17C156.036 51.562 156.5 51.0927 157.098 50.762C157.695 50.4313 158.399 50.266 159.21 50.266C160.02 50.266 160.724 50.4313 161.322 50.762C161.919 51.0927 162.383 51.562 162.714 52.17C163.044 52.778 163.21 53.498 163.21 54.33C163.21 55.162 163.044 55.8873 162.714 56.506C162.383 57.114 161.919 57.5833 161.322 57.914C160.724 58.2447 160.02 58.41 159.21 58.41ZM159.21 56.89C159.807 56.89 160.287 56.6767 160.65 56.25C161.012 55.8127 161.194 55.1727 161.194 54.33C161.194 53.4767 161.012 52.842 160.65 52.426C160.287 51.9993 159.807 51.786 159.21 51.786C158.612 51.786 158.132 51.9993 157.77 52.426C157.407 52.842 157.226 53.4767 157.226 54.33C157.226 55.1727 157.407 55.8127 157.77 56.25C158.132 56.6767 158.612 56.89 159.21 56.89ZM164.86 58.25V50.426H166.812V51.994H166.636C166.871 51.4287 167.234 51.002 167.724 50.714C168.226 50.4153 168.791 50.266 169.42 50.266C170.05 50.266 170.567 50.3833 170.972 50.618C171.378 50.8527 171.682 51.21 171.884 51.69C172.087 52.1593 172.188 52.7567 172.188 53.482V58.25H170.188V53.578C170.188 53.1727 170.135 52.842 170.028 52.586C169.932 52.33 169.778 52.1433 169.564 52.026C169.362 51.898 169.1 51.834 168.78 51.834C168.396 51.834 168.06 51.9193 167.772 52.09C167.484 52.25 167.26 52.4847 167.1 52.794C166.94 53.0927 166.86 53.4447 166.86 53.85V58.25H164.86ZM177.084 58.41C176.646 58.41 176.22 58.3727 175.804 58.298C175.398 58.2233 175.025 58.122 174.684 57.994C174.342 57.8553 174.044 57.6847 173.788 57.482L174.3 56.17C174.566 56.3407 174.854 56.49 175.164 56.618C175.473 56.746 175.793 56.842 176.124 56.906C176.454 56.97 176.78 57.002 177.1 57.002C177.612 57.002 177.99 56.9167 178.236 56.746C178.492 56.5647 178.62 56.33 178.62 56.042C178.62 55.7967 178.534 55.61 178.364 55.482C178.204 55.3433 177.958 55.242 177.628 55.178L176.028 54.874C175.366 54.746 174.86 54.506 174.508 54.154C174.166 53.7913 173.996 53.3273 173.996 52.762C173.996 52.25 174.134 51.8073 174.412 51.434C174.7 51.0607 175.094 50.7727 175.596 50.57C176.097 50.3673 176.673 50.266 177.324 50.266C177.697 50.266 178.06 50.3033 178.412 50.378C178.764 50.442 179.094 50.5433 179.404 50.682C179.724 50.81 180.001 50.9807 180.236 51.194L179.692 52.506C179.489 52.3353 179.254 52.1913 178.988 52.074C178.721 51.946 178.444 51.85 178.156 51.786C177.878 51.7113 177.606 51.674 177.34 51.674C176.817 51.674 176.428 51.7647 176.172 51.946C175.926 52.1273 175.804 52.3673 175.804 52.666C175.804 52.89 175.878 53.0767 176.028 53.226C176.177 53.3753 176.406 53.4767 176.716 53.53L178.316 53.834C179.009 53.962 179.532 54.1967 179.884 54.538C180.246 54.8793 180.428 55.338 180.428 55.914C180.428 56.4367 180.289 56.8847 180.012 57.258C179.734 57.6313 179.345 57.9193 178.844 58.122C178.342 58.314 177.756 58.41 177.084 58.41ZM181.778 58.25V56.026H184.018V58.25H181.778Z" fill="#414651"/>
<path d="M153.071 67.7353C153.962 67.7353 154.408 68.8124 153.778 69.4424L147.707 75.5135C147.317 75.904 146.683 75.904 146.293 75.5135L140.222 69.4424C139.592 68.8124 140.038 67.7353 140.929 67.7353L153.071 67.7353Z" fill="white"/>
</g>
<path d="M174.627 289.247C179.1 288.078 184.03 288.767 188.012 291.117C191.994 293.468 194.321 296.945 195.459 301.427C196.385 305.075 196.819 309.58 198.61 312.891C200.872 317.075 206.3 319.146 210.857 317.779C215.413 316.411 218.754 311.897 219 307.147C219.144 304.373 218.222 301.418 216.047 299.691C213.872 297.963 210.354 297.883 208.483 299.935C206.612 301.988 208.345 304.546 210.122 306.68C211.106 307.861 212.237 309.639 208.487 310.027C204.737 310.415 198.95 304.854 202.07 298.373C205.19 291.891 216.672 288.229 223.358 298.066C231.182 309.575 224.199 324.51 211.639 326.757C198.977 329.022 191.692 321.714 189.171 311.078C186.649 300.442 182.98 297.031 174.494 297.436L174.627 289.247Z" fill="#258E5A"/>
<g opacity="0.6">
<path d="M188.531 292.021C188.531 292.021 185.313 295.239 186.303 296.229C187.294 297.22 191.007 302.914 192.74 310.093C194.473 317.273 200.414 324.452 210.813 323.215C221.211 321.977 225.914 310.588 226.409 306.875C226.409 306.875 227.329 326.094 211.644 326.759C195.958 327.423 191.502 321.729 188.531 310.093C185.56 298.457 178.381 296.972 178.381 296.972L183.332 288.802L188.531 292.021Z" fill="#1B6D42"/>
</g>
<path d="M207.697 329.347C197.58 329.347 189.69 322.68 187.026 311.442C184.595 301.19 182.044 298.628 174.572 298.984L174.425 295.892C184.534 295.41 187.614 300.511 190.036 310.728C192.128 319.547 198.871 328.166 211.53 325.901C216.909 324.938 221.468 321.164 223.723 315.805C226.075 310.215 225.462 303.91 222.082 298.938C219.54 295.198 215.979 293.298 212.059 293.59C208.359 293.865 204.907 296.058 203.468 299.046C202.206 301.668 202.438 304.635 204.089 306.983C205.125 308.457 206.599 309.406 207.682 309.297C208.637 309.198 209.158 308.924 209.252 308.695C209.346 308.464 209.199 307.986 208.937 307.673C207.684 306.168 204.357 302.172 207.344 298.895C209.663 296.35 214.092 296.16 217.014 298.481C219.414 300.387 220.735 303.657 220.55 307.229C220.267 312.679 216.379 317.74 211.306 319.263C205.997 320.856 199.824 318.382 197.253 313.629C195.924 311.171 195.42 308.354 194.934 305.63C194.71 304.372 194.498 303.184 194.211 302.057C193.14 297.837 190.726 294.515 187.23 292.451C183.577 290.295 179.128 289.673 175.023 290.746L174.24 287.752C179.137 286.472 184.445 287.214 188.804 289.787C193.026 292.28 195.933 296.259 197.211 301.296C197.525 302.531 197.757 303.829 197.981 305.086C198.425 307.569 198.884 310.136 199.976 312.157C201.843 315.609 206.528 317.468 210.417 316.298C214.281 315.139 217.243 311.257 217.461 307.068C217.593 304.532 216.685 302.17 215.09 300.904C213.455 299.605 210.853 299.64 209.632 300.98C209.024 301.646 208.808 302.679 211.317 305.692C212.091 306.622 212.766 308.272 212.119 309.862C211.715 310.856 210.672 312.1 208.002 312.376C205.758 312.608 203.289 311.224 201.559 308.763C199.255 305.485 198.926 301.35 200.682 297.704C202.584 293.752 207.064 290.858 211.831 290.504C216.909 290.125 221.453 292.505 224.644 297.198C228.616 303.041 229.338 310.445 226.578 317.005C223.913 323.335 218.492 327.799 212.077 328.947C210.578 329.215 209.115 329.347 207.697 329.347Z" fill="#1B6D42"/>
<path d="M163.546 305.538C163.546 305.538 162.876 313.796 164.885 315.582C168.185 318.515 187.205 324.287 189.883 328.751C192.562 333.215 190.776 337.679 188.098 338.571C185.419 339.464 183.634 338.125 183.634 338.125C183.634 338.125 182.741 341.919 178.277 341.696C173.813 341.473 158.859 328.974 157.073 322.947C155.476 317.559 157.073 307.1 157.073 307.1L163.546 305.538Z" fill="#48BD86"/>
<g opacity="0.6">
<path d="M162.936 313.251C162.936 313.251 158.294 315.479 160.337 320.864C162.379 326.249 174.563 336.596 177.234 337.018C180.761 337.575 181.69 333.119 181.69 333.119C181.69 333.119 185.358 334.815 187.446 333.676C189.488 332.562 189.302 329.22 189.302 329.22C189.302 329.22 192.459 335.533 189.488 337.761C186.517 339.989 183.361 337.39 183.361 337.39C183.361 337.39 183.918 341.474 179.276 341.474C174.634 341.474 164.607 333.49 162.379 331.262C160.151 329.034 155.881 322.535 155.881 319.379C155.881 319.07 156.066 318.574 156.066 318.265V307.069C156.376 307.069 157.242 306.567 157.552 306.567H162.988C163.196 308.602 163.041 311.209 162.936 313.251Z" fill="#258E5A"/>
</g>
<path d="M178.649 343.252C178.502 343.252 178.352 343.248 178.199 343.24C173.126 342.986 157.584 330.118 155.589 323.386C153.913 317.731 155.475 307.306 155.542 306.866L158.601 307.332C158.586 307.433 157.077 317.515 158.555 322.507C160.253 328.233 174.861 339.975 178.353 340.149C181.494 340.3 182.103 337.873 182.127 337.769C182.246 337.261 182.615 336.847 183.105 336.669C183.595 336.491 184.143 336.572 184.561 336.886C184.59 336.904 185.783 337.71 187.607 337.102C188.325 336.862 188.972 336.129 189.338 335.14C189.962 333.453 189.677 331.414 188.556 329.545C187.221 327.32 179.513 324.063 173.885 321.685C168.614 319.458 165.308 318.027 163.856 316.736C161.457 314.604 161.83 307.529 162.002 305.411L165.087 305.661C164.771 309.582 165.164 313.759 165.912 314.423C167.056 315.441 171.14 317.166 175.089 318.835C183.442 322.364 189.488 325.084 191.209 327.953C192.816 330.631 193.192 333.642 192.24 336.214C191.541 338.103 190.209 339.497 188.586 340.038C186.971 340.577 185.52 340.476 184.418 340.164C183.484 341.679 181.67 343.252 178.649 343.252Z" fill="#1B6D42"/>
<path d="M183.476 339.852C183.458 339.852 183.439 339.852 183.421 339.851C182.567 339.821 181.899 339.105 181.929 338.251C181.995 336.341 180.981 334.078 179.406 332.617C178.779 332.036 178.742 331.057 179.322 330.43C179.903 329.803 180.881 329.766 181.509 330.347C183.74 332.415 185.119 335.559 185.021 338.358C184.991 339.194 184.305 339.852 183.476 339.852Z" fill="#1B6D42"/>
<path d="M135.182 305.535C135.182 305.535 135.851 313.793 133.843 315.578C130.543 318.512 111.523 324.283 108.844 328.747C106.166 333.211 107.952 337.675 110.63 338.568C113.308 339.461 115.094 338.121 115.094 338.121C115.094 338.121 115.987 341.916 120.451 341.693C124.915 341.469 139.869 328.97 141.655 322.944C143.252 317.555 141.655 307.097 141.655 307.097L135.182 305.535Z" fill="#48BD86"/>
<g opacity="0.6">
<path d="M135.796 313.25C135.796 313.25 140.438 315.478 138.396 320.863C136.353 326.247 124.17 336.595 121.499 337.017C117.971 337.574 117.043 333.118 117.043 333.118C117.043 333.118 113.374 334.813 111.287 333.675C109.245 332.56 109.43 329.218 109.43 329.218C109.43 329.218 106.274 335.531 109.245 337.759C112.216 339.987 115.372 337.388 115.372 337.388C115.372 337.388 114.815 341.473 119.457 341.473C124.098 341.473 134.125 333.489 136.353 331.261C138.581 329.033 142.852 322.534 142.852 319.378C142.852 319.068 142.666 318.573 142.666 318.263V307.067C142.357 307.067 141.49 306.566 141.181 306.566H135.745C135.536 308.6 135.692 311.207 135.796 313.25Z" fill="#258E5A"/>
</g>
<path d="M178.182 233.318L149.574 233.705L120.966 233.318C120.966 233.318 90.2124 306.074 149.574 306.89C208.936 306.074 178.182 233.318 178.182 233.318Z" fill="#48BD86"/>
<g opacity="0.6">
<path d="M114.737 262.761C114.737 262.761 118.567 280.08 125.809 286.116C135.235 293.97 157.611 291.998 167.548 288.571C181.907 283.62 185.626 262.903 185.626 262.903C185.626 262.903 186.734 275.338 184.064 285C181.538 294.139 172.182 301.03 172.182 301.03C172.182 301.03 162.075 306.08 150.424 306.08C138.774 306.08 130.909 303.888 125.823 300.175C119.918 295.865 112.938 286.431 112.416 275.626C112.091 268.881 114.737 262.761 114.737 262.761Z" fill="#258E5A"/>
</g>
<path d="M149.595 308.436C134.337 308.227 123.5 303.341 117.342 293.914C103.136 272.162 118.863 234.315 119.54 232.715C119.785 232.135 120.341 231.76 120.986 231.77L149.595 232.158L178.16 231.77C178.796 231.759 179.362 232.135 179.607 232.715C180.284 234.315 196.012 272.162 181.805 293.914C175.648 303.341 164.811 308.227 149.595 308.436ZM122.007 234.879C119.666 240.894 107.82 273.683 119.936 292.226C125.496 300.735 135.475 305.148 149.595 305.342C163.675 305.148 173.655 300.734 179.215 292.222C191.335 273.665 179.485 240.894 177.141 234.879L149.595 235.252L122.007 234.879Z" fill="#1B6D42"/>
<path d="M119.575 243.397C119.575 243.397 101.21 253.13 97.9222 252.534C94.6342 251.938 89.8929 235.441 84.1712 236.34C77.4212 237.4 82.2812 264.247 91.8989 268.802C100.311 272.786 122.377 258.012 122.377 258.012L119.575 243.397Z" fill="#48BD86"/>
<g opacity="0.6">
<path d="M82.4905 238.392C82.4905 238.392 86.0532 255.875 93.734 261.899C100.985 267.587 114.213 263.81 114.213 263.81C114.213 263.81 99.5506 273.052 91.8962 268.802C84.2412 264.552 80.1728 244.598 82.4905 238.392Z" fill="#258E5A"/>
</g>
<path d="M180.24 256.736C180.24 256.736 193.591 264.881 194.325 268.141C195.06 271.4 181.723 282.206 184.783 287.123C188.394 292.923 212.367 277.954 211.654 267.336C210.811 254.762 177.76 240.464 177.76 240.464L180.24 256.736Z" fill="#48BD86"/>
<g opacity="0.6">
<path d="M189.129 278.038C189.129 278.038 188.724 282.488 194.387 280.87C200.05 279.252 208.947 271.769 210.767 268.332C210.767 268.332 211.172 274.803 204.296 280.465C197.42 286.128 189.129 289.97 186.499 287.745C183.871 285.521 189.129 278.038 189.129 278.038Z" fill="#258E5A"/>
</g>
<path d="M187.804 289.948C185.229 289.948 184.02 288.83 183.466 287.94C181.08 284.108 185.31 278.757 189.041 274.036C190.523 272.162 192.754 269.338 192.802 268.443C192.329 266.577 187.55 262.486 184.281 260.159C183.586 259.663 183.423 258.697 183.919 258.001C184.414 257.305 185.38 257.142 186.076 257.638C187.56 258.694 195.007 264.149 195.83 267.801C196.271 269.757 194.549 272.058 191.469 275.955C188.836 279.286 184.857 284.32 186.092 286.306C186.554 287.046 188.721 287.2 192.385 285.789C200.299 282.742 211.236 273.766 210.127 267.611C207.614 253.663 179.742 243.507 179.46 243.406C178.656 243.117 178.238 242.231 178.527 241.427C178.816 240.623 179.701 240.204 180.506 240.494C181.723 240.931 210.346 251.374 213.172 267.062C214.637 275.196 202.7 285.133 193.496 288.677C191.095 289.602 189.237 289.948 187.804 289.948Z" fill="#1B6D42"/>
<g opacity="0.6">
<path d="M116.08 242.429C116.08 242.429 127.828 258.104 150.095 258.104C173.505 258.104 183.869 242.545 183.869 242.545L116.08 242.429Z" fill="#1B6D42"/>
</g>
<path d="M218.242 162.084C211.67 143.306 174.079 138.755 174.079 138.755C174.079 138.755 161.327 112.909 151.456 110.308L151.456 110.094C151.202 110.094 150.944 110.117 150.685 110.153C150.426 110.117 150.168 110.094 149.913 110.094L149.914 110.308C140.043 112.909 127.291 138.755 127.291 138.755C127.291 138.755 89.6998 143.306 83.1275 162.084C76.5552 180.862 86.2462 196.987 86.2462 196.987C86.2462 196.987 84.9268 218.944 96.0174 228.03C106.95 236.987 129.98 249.476 150.246 249.83V249.847C150.392 249.847 150.539 249.84 150.685 249.838C150.831 249.839 150.978 249.847 151.124 249.847V249.83C171.39 249.476 194.42 236.987 205.353 228.03C216.443 218.944 215.124 196.987 215.124 196.987C215.124 196.987 224.815 180.862 218.242 162.084Z" fill="#48BD86"/>
<g opacity="0.6">
<path d="M140.459 175.515C139.605 175.515 138.912 174.822 138.912 173.968C138.912 150.001 126.404 141.955 126.278 141.876C125.554 141.427 125.327 140.475 125.774 139.749C126.221 139.023 127.167 138.794 127.895 139.237C128.471 139.589 142.007 148.144 142.007 173.967C142.007 174.823 141.314 175.515 140.459 175.515Z" fill="#258E5A"/>
</g>
<g opacity="0.6">
<path d="M160.745 175.515C159.89 175.515 159.197 174.822 159.197 173.968C159.197 148.144 172.733 139.59 173.31 139.238C174.039 138.793 174.991 139.023 175.437 139.753C175.88 140.481 175.652 141.431 174.926 141.877C174.77 141.975 162.292 150.031 162.292 173.968C162.292 174.823 161.599 175.515 160.745 175.515Z" fill="#258E5A"/>
</g>
<g opacity="0.6">
<path d="M150.156 234.127C123.48 234.127 98.2662 226.737 88.9043 218.736C90.3218 222.686 92.4507 226.388 95.6369 228.998C106.727 238.084 129.682 250.475 150.157 250.475C170.632 250.475 193.586 238.084 204.676 228.998C207.442 226.732 209.411 223.644 210.81 220.286C199.274 227.48 175.428 234.127 150.156 234.127Z" fill="#258E5A"/>
</g>
<g opacity="0.6">
<path d="M140.693 117.894L147.081 144.26L146.264 112.324L140.693 117.894Z" fill="#258E5A"/>
</g>
<g opacity="0.6">
<path d="M159.889 117.892L153.502 144.258L154.319 112.322L159.889 117.892Z" fill="#258E5A"/>
</g>
<path d="M150.688 111.339C150.634 111.339 150.581 111.336 150.527 111.331C150.4 111.317 150.275 111.308 150.151 111.308C149.296 111.308 148.604 110.615 148.604 109.761C148.604 108.906 149.296 108.213 150.151 108.213H151.225C152.08 108.213 152.773 108.906 152.773 109.761C152.773 110.615 152.08 111.308 151.225 111.308C151.101 111.308 150.976 111.317 150.849 111.331C150.796 111.336 150.742 111.339 150.688 111.339Z" fill="#1B6D42"/>
<path d="M150.684 252.022C129.12 252.022 105.361 238.969 94.6524 230.195C83.8503 221.345 84.3576 198.665 84.5258 194.821C82.814 192.127 75.0679 178.389 82.4407 160.669C86.2908 151.415 94.8865 144.725 107.3 141.322C115.395 139.101 122.759 138.886 125.627 138.959C128.9 132.264 140.814 109.276 150.521 108.252C150.629 108.241 150.738 108.241 150.846 108.252C160.553 109.276 172.467 132.264 175.739 138.959C178.609 138.885 185.971 139.101 194.067 141.322C206.48 144.725 215.076 151.415 218.926 160.669C226.299 178.389 218.553 192.127 216.841 194.821C217.009 198.665 217.517 221.345 206.714 230.195C196.006 238.969 172.247 252.022 150.684 252.022ZM124.921 142.064C118.53 142.064 93.0123 143.314 85.2973 161.857C77.8813 179.683 87.2669 193.366 87.3624 193.502C87.5638 193.789 87.6619 194.136 87.6408 194.486C87.626 194.733 86.2665 219.324 96.6136 227.801C106.583 235.969 130.078 248.927 150.684 248.927C171.29 248.927 194.784 235.969 204.754 227.801C215.112 219.314 213.741 194.734 213.727 194.486C213.705 194.136 213.803 193.789 214.005 193.502C214.099 193.368 223.459 179.617 216.07 161.857C207.269 140.704 175.296 142.056 174.987 142.094C174.326 142.178 173.686 141.827 173.399 141.227C167.877 129.686 157.318 112.313 150.684 111.35C144.05 112.313 133.491 129.686 127.968 141.227C127.681 141.827 127.046 142.178 126.381 142.094C126.342 142.089 125.822 142.064 124.921 142.064Z" fill="#1B6D42"/>
<path d="M157.779 199.748C159.26 200.488 163.701 196.047 161.974 194.566C160.246 193.086 155.572 198.644 157.779 199.748Z" fill="#258E5A"/>
<path d="M143.595 199.748C142.114 200.488 137.672 196.047 139.4 194.566C141.127 193.086 145.801 198.644 143.595 199.748Z" fill="#258E5A"/>
<g opacity="0.6">
<path d="M165.058 189.089C164.927 189.089 164.794 189.072 164.66 189.037C164.597 189.02 158.215 187.352 150.69 187.352C143.165 187.352 136.783 189.02 136.72 189.037C135.898 189.256 135.047 188.764 134.827 187.938C134.609 187.112 135.1 186.265 135.925 186.046C136.2 185.973 142.743 184.257 150.69 184.257C158.638 184.257 165.181 185.973 165.456 186.046C166.281 186.265 166.773 187.113 166.554 187.938C166.368 188.631 165.742 189.089 165.058 189.089Z" fill="#258E5A"/>
</g>
<path d="M132.088 174.545C132.088 189.757 120.668 201.573 104.67 201.573C88.673 201.573 76.8184 188.835 76.8184 173.623C76.8184 158.41 88.3018 147.603 104.299 147.603C120.296 147.603 132.088 159.333 132.088 174.545Z" fill="#258E5A"/>
<path d="M104.673 203.119C87.9452 203.119 74.8418 189.908 74.8418 173.044C74.8418 166.052 77.0809 159.739 81.3171 154.788C85.4978 149.902 91.3229 146.679 98.1625 145.467C99.0015 145.32 99.8068 145.88 99.956 146.721C100.105 147.563 99.5442 148.365 98.7025 148.514C86.0874 150.749 77.9363 160.378 77.9363 173.043C77.9363 188.172 89.6807 200.023 104.673 200.023C110.721 200.023 116.723 198.341 121.142 195.407C121.856 194.934 122.815 195.13 123.287 195.841C123.76 196.553 123.566 197.513 122.854 197.986C117.941 201.248 111.314 203.119 104.673 203.119Z" fill="#1B6D42"/>
<path d="M126.514 184.449C132.077 173.261 127.517 159.682 116.329 154.119C105.141 148.557 91.5618 153.117 85.999 164.305C80.4363 175.493 84.9964 189.072 96.1845 194.635C107.373 200.198 120.952 195.637 126.514 184.449Z" fill="white"/>
<path d="M116.208 185.198C121.323 180.507 121.666 172.557 116.975 167.442C112.283 162.328 104.334 161.984 99.2191 166.676C94.1043 171.367 93.7611 179.317 98.4526 184.431C103.144 189.546 111.093 189.889 116.208 185.198Z" fill="#CC9211"/>
<path d="M112.67 181.778C115.873 179.023 116.236 174.194 113.481 170.991C110.726 167.789 105.897 167.426 102.694 170.181C99.4917 172.935 99.1287 177.765 101.883 180.967C104.638 184.17 109.467 184.533 112.67 181.778Z" fill="#233338"/>
<path d="M110.564 171.412C110.717 169.769 112.256 168.569 114.003 168.731C115.749 168.894 117.04 170.357 116.887 172.001C116.734 173.644 115.194 174.844 113.448 174.682C111.703 174.519 110.411 173.055 110.564 171.412Z" fill="white"/>
<path d="M169.416 174.545C169.416 189.757 180.837 201.573 196.834 201.573C212.831 201.573 224.686 188.835 224.686 173.623C224.686 158.41 213.202 147.603 197.205 147.603C181.208 147.603 169.416 159.333 169.416 174.545Z" fill="#258E5A"/>
<path d="M196.824 203.119C190.182 203.119 183.555 201.249 178.643 197.987C177.93 197.515 177.737 196.554 178.21 195.842C178.682 195.13 179.642 194.936 180.355 195.409C184.773 198.342 190.776 200.025 196.824 200.025C211.817 200.025 223.56 188.174 223.56 173.045C223.56 160.379 215.409 150.751 202.794 148.516C201.953 148.367 201.391 147.563 201.541 146.722C201.69 145.881 202.494 145.32 203.334 145.469C210.174 146.681 215.999 149.904 220.18 154.79C224.416 159.74 226.655 166.053 226.655 173.045C226.655 189.909 213.551 203.119 196.824 203.119Z" fill="#1B6D42"/>
<path d="M205.023 192.737C215.277 187.78 219.572 175.45 214.616 165.197C209.66 154.943 197.33 150.648 187.076 155.604C176.822 160.56 172.527 172.89 177.483 183.144C182.44 193.398 194.77 197.693 205.023 192.737Z" fill="white"/>
<path d="M183.202 174.304C182.616 180.602 187.246 186.182 193.544 186.77C199.841 187.356 205.423 182.726 206.009 176.429C206.596 170.131 201.966 164.549 195.668 163.963C189.37 163.376 183.79 168.006 183.202 174.304Z" fill="#CC9211"/>
<path d="M187.659 174.721C187.302 178.555 190.121 181.953 193.955 182.31C197.789 182.668 201.187 179.849 201.544 176.015C201.901 172.181 199.083 168.783 195.249 168.426C191.415 168.068 188.017 170.887 187.659 174.721Z" fill="#233338"/>
<path d="M192.817 170.775C192.956 169.277 191.779 167.943 190.188 167.794C188.597 167.646 187.194 168.74 187.054 170.238C186.915 171.735 188.092 173.07 189.683 173.218C191.274 173.367 192.677 172.273 192.817 170.775Z" fill="white"/>
<path d="M105.313 136.718C107.362 139.747 120.667 125.755 117.382 124.022C114.097 122.29 102.577 132.671 105.313 136.718Z" fill="#258E5A"/>
<path d="M106.202 138.694C104.941 138.694 104.283 137.955 104.034 137.585C102.532 135.364 103.565 131.975 106.87 128.288C109.698 125.133 115.026 121.029 118.106 122.655C118.576 122.903 119.645 123.671 119.421 125.45C118.938 129.278 111.102 137.624 107.09 138.584C106.766 138.661 106.47 138.694 106.202 138.694ZM106.597 135.851C106.597 135.851 106.597 135.851 106.598 135.852C106.598 135.852 106.597 135.851 106.597 135.851ZM116.29 125.365C114.916 125.518 111.249 127.699 108.455 131.203C106.831 133.24 106.308 134.775 106.475 135.552C107.282 135.312 109.304 134.13 112.085 131.241C114.728 128.495 115.996 126.319 116.29 125.365Z" fill="#1B6D42"/>
<path d="M195.114 136.533C193.156 139.622 179.44 126.033 182.671 124.204C185.903 122.375 197.728 132.407 195.114 136.533Z" fill="#258E5A"/>
<path d="M194.188 138.536C193.946 138.536 193.683 138.51 193.395 138.45C189.357 137.612 181.275 129.503 180.678 125.69C180.401 123.919 181.447 123.12 181.908 122.858C184.942 121.141 190.387 125.083 193.308 128.153C196.721 131.74 197.855 135.096 196.42 137.362C196.175 137.748 195.513 138.536 194.188 138.536ZM193.807 135.705C193.807 135.705 193.807 135.705 193.806 135.706C193.807 135.705 193.807 135.705 193.807 135.705ZM183.807 125.516C184.13 126.461 185.462 128.598 188.184 131.261C191.049 134.066 193.106 135.187 193.919 135.403C194.063 134.62 193.494 133.101 191.809 131.114C188.917 127.7 185.193 125.63 183.807 125.516Z" fill="#1B6D42"/>
<g opacity="0.6">
<path d="M203.166 204.234C198.993 204.954 201.866 209.062 201.309 211.105C201.309 211.105 199.325 213.683 197.224 214.447C195.182 215.189 190.354 215.561 179.028 213.89C168.738 212.372 158.488 211.494 152.573 211.065V210.733C152.573 210.733 151.643 210.782 150.018 210.888C148.393 210.782 147.462 210.733 147.462 210.733V211.065C141.548 211.494 131.298 212.372 121.008 213.89C109.682 215.561 104.854 215.19 102.812 214.447C100.71 213.683 98.7269 211.105 98.7269 211.105C98.17 209.062 101.042 204.954 96.8701 204.234C91.4854 203.306 89.8702 214.378 99.0981 218.16C109.694 222.502 137.146 214.847 150.502 214.847C163.857 214.847 190.342 222.502 200.937 218.16C210.166 214.378 208.55 203.306 203.166 204.234Z" fill="#258E5A"/>
</g>
<path d="M109.24 216.523C108.413 216.523 107.63 216.497 106.898 216.443C102.241 216.1 98.6083 214.515 96.9319 212.097C95.9099 210.623 95.641 208.918 96.1535 207.166C96.3935 206.346 97.2525 205.875 98.0731 206.116C98.8931 206.356 99.3635 207.216 99.1235 208.036C98.8757 208.883 98.9906 209.635 99.4753 210.334C100.6 211.957 103.46 213.087 107.125 213.357C111.993 213.718 119.533 212.663 127.514 211.549C135.212 210.473 143.173 209.361 149.754 209.361C150.609 209.361 151.302 210.054 151.302 210.908C151.302 211.762 150.609 212.455 149.754 212.455C143.388 212.455 135.536 213.553 127.942 214.614C120.942 215.591 114.276 216.523 109.24 216.523Z" fill="#1B6D42"/>
<path d="M191.064 216.522C186.028 216.522 179.362 215.591 172.362 214.613C164.768 213.552 156.916 212.454 150.549 212.454C149.694 212.454 149.002 211.761 149.002 210.907C149.002 210.053 149.694 209.36 150.549 209.36C157.131 209.36 165.091 210.472 172.79 211.548C180.771 212.663 188.311 213.716 193.179 213.356C196.844 213.086 199.704 211.956 200.829 210.333C201.313 209.634 201.428 208.882 201.18 208.035C200.94 207.215 201.41 206.355 202.23 206.115C203.052 205.874 203.91 206.346 204.15 207.165C204.663 208.917 204.394 210.622 203.372 212.096C201.695 214.514 198.063 216.099 193.406 216.442C192.673 216.497 191.89 216.522 191.064 216.522Z" fill="#1B6D42"/>
<path d="M150.691 147.871C148.697 147.871 147.081 146.254 147.081 144.26V106.011C147.081 104.017 148.697 102.4 150.691 102.4C152.685 102.4 154.301 104.017 154.301 106.011V144.26C154.301 146.254 152.685 147.871 150.691 147.871Z" fill="#FBCA47"/>
<path d="M150.692 149.16C147.99 149.16 145.792 146.962 145.792 144.261V106.011C145.792 103.309 147.99 101.111 150.692 101.111C153.394 101.111 155.592 103.309 155.592 106.011V144.261C155.592 146.962 153.394 149.16 150.692 149.16ZM150.692 103.69C149.412 103.69 148.371 104.731 148.371 106.011V144.261C148.371 145.541 149.412 146.582 150.692 146.582C151.972 146.582 153.013 145.541 153.013 144.261V106.011C153.013 104.731 151.972 103.69 150.692 103.69Z" fill="#CC9211"/>
<path d="M120.08 343.252C117.059 343.252 115.246 341.679 114.311 340.165C113.21 340.477 111.758 340.576 110.143 340.039C108.519 339.497 107.187 338.103 106.489 336.214C105.537 333.642 105.913 330.631 107.52 327.953C109.241 325.085 115.287 322.365 123.64 318.836C127.589 317.167 131.672 315.442 132.817 314.424C133.566 313.757 133.959 309.581 133.642 305.662L136.726 305.412C136.898 307.529 137.272 314.605 134.873 316.737C133.421 318.028 130.116 319.458 124.844 321.686C119.215 324.064 111.508 327.32 110.173 329.545C109.052 331.414 108.767 333.454 109.391 335.141C109.757 336.13 110.404 336.863 111.122 337.102C112.946 337.71 114.14 336.905 114.19 336.87C114.608 336.557 115.144 336.483 115.635 336.661C116.126 336.84 116.483 337.262 116.602 337.769C116.71 338.179 117.418 340.296 120.376 340.149C123.869 339.975 138.477 328.233 140.174 322.507C141.652 317.514 140.143 307.433 140.127 307.332L143.186 306.866C143.253 307.306 144.816 317.731 143.14 323.386C141.146 330.118 125.604 342.986 120.53 343.24C120.378 343.248 120.227 343.252 120.08 343.252Z" fill="#1B6D42"/>
<path d="M115.251 339.852C114.422 339.852 113.735 339.194 113.706 338.359C113.608 335.56 114.987 332.415 117.218 330.348C117.845 329.767 118.824 329.804 119.405 330.43C119.985 331.057 119.949 332.036 119.321 332.617C117.745 334.078 116.732 336.342 116.798 338.251C116.828 339.105 116.16 339.821 115.306 339.851C115.288 339.851 115.27 339.852 115.251 339.852Z" fill="#1B6D42"/>
<path d="M182.589 250.492C181.89 250.492 181.256 250.015 181.086 249.306C180.925 248.64 180.658 247.713 180.4 246.816C180.145 245.935 179.905 245.102 179.741 244.436C179.536 243.606 180.042 242.767 180.872 242.562C181.701 242.359 182.54 242.864 182.745 243.693C182.895 244.301 183.138 245.144 183.373 245.958C183.641 246.888 183.918 247.849 184.095 248.584C184.294 249.414 183.782 250.25 182.951 250.449C182.83 250.478 182.708 250.492 182.589 250.492Z" fill="#1B6D42"/>
<path d="M97.0001 271.357C94.9439 271.357 92.9733 271.023 91.2357 270.2C83.2116 266.399 78.4333 249.386 79.6842 240.716C80.3233 236.285 82.3462 235.059 83.9309 234.81C88.3869 234.108 91.6649 240.092 94.5553 245.37C95.6996 247.46 97.4225 250.607 98.2314 251.014C100.117 251.183 109.521 246.449 117.216 241.927C117.764 241.605 118.456 241.651 118.957 242.045C119.457 242.439 119.665 243.1 119.481 243.709L117.406 250.577C117.158 251.395 116.297 251.857 115.477 251.611C114.659 251.364 114.196 250.5 114.443 249.682L115.39 246.551C109.414 249.923 100.502 254.575 97.6466 254.055C95.6733 253.698 94.2273 251.214 91.841 246.856C89.8029 243.132 86.7058 237.503 84.4118 237.867C83.6498 237.987 83.0281 239.217 82.7481 241.157C81.6507 248.762 85.997 264.294 92.5614 267.403C98.8526 270.383 110.718 264.848 114.759 262.463C115.496 262.029 116.444 262.274 116.878 263.01C117.312 263.745 117.067 264.694 116.331 265.128C115.805 265.439 105.653 271.357 97.0001 271.357Z" fill="#1B6D42"/>
<defs>
<filter id="filter0_dd_289_16385" x="0" y="0.25" width="294" height="100" filterUnits="userSpaceOnUse" color-interpolation-filters="sRGB">
<feFlood flood-opacity="0" result="BackgroundImageFix"/>
<feColorMatrix in="SourceAlpha" type="matrix" values="0 0 0 0 0 0 0 0 0 0 0 0 0 0 0 0 0 0 127 0" result="hardAlpha"/>
<feMorphology radius="2" operator="erode" in="SourceAlpha" result="effect1_dropShadow_289_16385"/>
<feOffset dy="4"/>
<feGaussianBlur stdDeviation="3"/>
<feColorMatrix type="matrix" values="0 0 0 0 0.0392157 0 0 0 0 0.0496732 0 0 0 0 0.0705882 0 0 0 0.03 0"/>
<feBlend mode="normal" in2="BackgroundImageFix" result="effect1_dropShadow_289_16385"/>
<feColorMatrix in="SourceAlpha" type="matrix" values="0 0 0 0 0 0 0 0 0 0 0 0 0 0 0 0 0 0 127 0" result="hardAlpha"/>
<feMorphology radius="4" operator="erode" in="SourceAlpha" result="effect2_dropShadow_289_16385"/>
<feOffset dy="12"/>
<feGaussianBlur stdDeviation="8"/>
<feColorMatrix type="matrix" values="0 0 0 0 0.0392157 0 0 0 0 0.0496732 0 0 0 0 0.0705882 0 0 0 0.08 0"/>
<feBlend mode="normal" in2="effect1_dropShadow_289_16385" result="effect2_dropShadow_289_16385"/>
<feBlend mode="normal" in="SourceGraphic" in2="effect2_dropShadow_289_16385" result="shape"/>
</filter>
</defs>
</svg>
