<svg width="270" height="271" viewBox="0 0 270 271" fill="none" xmlns="http://www.w3.org/2000/svg">
<path d="M162.627 203.247C167.1 202.078 172.03 202.767 176.012 205.117C179.994 207.468 182.321 210.945 183.459 215.427C184.385 219.075 184.819 223.58 186.61 226.891C188.872 231.075 194.3 233.146 198.857 231.779C203.413 230.411 206.754 225.897 207 221.147C207.144 218.373 206.222 215.418 204.047 213.691C201.872 211.963 198.354 211.883 196.483 213.935C194.612 215.988 196.345 218.546 198.122 220.68C199.106 221.861 200.237 223.639 196.487 224.027C192.737 224.415 186.95 218.854 190.07 212.373C193.19 205.891 204.672 202.229 211.358 212.066C219.182 223.575 212.199 238.51 199.639 240.757C186.977 243.022 179.692 235.714 177.171 225.078C174.649 214.442 170.98 211.031 162.494 211.436L162.627 203.247Z" fill="#258E5A"/>
<g opacity="0.6">
<path d="M176.531 206.021C176.531 206.021 173.313 209.239 174.303 210.229C175.294 211.22 179.007 216.914 180.74 224.093C182.473 231.273 188.414 238.452 198.813 237.215C209.211 235.977 213.914 224.588 214.409 220.875C214.409 220.875 215.329 240.094 199.644 240.759C183.958 241.423 179.502 235.729 176.531 224.093C173.56 212.457 166.381 210.972 166.381 210.972L171.332 202.802L176.531 206.021Z" fill="#1B6D42"/>
</g>
<path d="M195.697 243.347C185.58 243.347 177.69 236.68 175.026 225.442C172.595 215.19 170.044 212.628 162.572 212.984L162.425 209.892C172.534 209.41 175.614 214.511 178.036 224.728C180.128 233.547 186.871 242.166 199.53 239.901C204.909 238.938 209.468 235.164 211.723 229.805C214.075 224.215 213.462 217.91 210.082 212.938C207.54 209.198 203.979 207.298 200.059 207.59C196.359 207.865 192.907 210.058 191.468 213.046C190.206 215.668 190.438 218.635 192.089 220.983C193.125 222.457 194.599 223.406 195.682 223.297C196.637 223.198 197.158 222.924 197.252 222.695C197.346 222.464 197.199 221.986 196.937 221.673C195.684 220.168 192.357 216.172 195.344 212.895C197.663 210.35 202.092 210.16 205.014 212.481C207.414 214.387 208.735 217.657 208.55 221.229C208.267 226.679 204.379 231.74 199.306 233.263C193.997 234.856 187.824 232.382 185.253 227.629C183.924 225.171 183.42 222.354 182.934 219.63C182.71 218.372 182.498 217.184 182.211 216.057C181.14 211.837 178.726 208.515 175.23 206.451C171.577 204.295 167.128 203.673 163.023 204.746L162.24 201.752C167.137 200.472 172.445 201.214 176.804 203.787C181.026 206.28 183.933 210.259 185.211 215.296C185.525 216.531 185.757 217.829 185.981 219.086C186.425 221.569 186.884 224.136 187.976 226.157C189.843 229.609 194.528 231.468 198.417 230.298C202.281 229.139 205.243 225.257 205.461 221.068C205.593 218.532 204.685 216.17 203.09 214.904C201.455 213.605 198.853 213.64 197.632 214.98C197.024 215.646 196.808 216.679 199.317 219.692C200.091 220.622 200.766 222.272 200.119 223.862C199.715 224.856 198.672 226.1 196.002 226.376C193.758 226.608 191.289 225.224 189.559 222.763C187.255 219.485 186.926 215.35 188.682 211.704C190.584 207.752 195.064 204.858 199.831 204.504C204.909 204.125 209.453 206.505 212.644 211.198C216.616 217.041 217.338 224.445 214.578 231.005C211.913 237.335 206.492 241.799 200.077 242.947C198.578 243.215 197.115 243.347 195.697 243.347Z" fill="#1B6D42"/>
<path d="M151.546 219.538C151.546 219.538 150.876 227.796 152.885 229.582C156.185 232.515 175.205 238.287 177.883 242.751C180.562 247.215 178.776 251.679 176.098 252.571C173.419 253.464 171.634 252.125 171.634 252.125C171.634 252.125 170.741 255.919 166.277 255.696C161.813 255.473 146.859 242.974 145.073 236.947C143.476 231.559 145.073 221.1 145.073 221.1L151.546 219.538Z" fill="#48BD86"/>
<g opacity="0.6">
<path d="M150.936 227.251C150.936 227.251 146.294 229.479 148.337 234.864C150.379 240.249 162.563 250.596 165.234 251.018C168.761 251.575 169.69 247.119 169.69 247.119C169.69 247.119 173.358 248.815 175.446 247.676C177.488 246.562 177.302 243.22 177.302 243.22C177.302 243.22 180.459 249.533 177.488 251.761C174.517 253.989 171.361 251.39 171.361 251.39C171.361 251.39 171.918 255.474 167.276 255.474C162.634 255.474 152.607 247.49 150.379 245.262C148.151 243.034 143.881 236.535 143.881 233.379C143.881 233.07 144.066 232.574 144.066 232.265V221.069C144.376 221.069 145.242 220.567 145.552 220.567H150.988C151.196 222.602 151.041 225.209 150.936 227.251Z" fill="#258E5A"/>
</g>
<path d="M166.649 257.252C166.502 257.252 166.352 257.248 166.199 257.24C161.126 256.986 145.584 244.118 143.589 237.386C141.913 231.731 143.475 221.306 143.542 220.866L146.601 221.332C146.586 221.433 145.077 231.515 146.555 236.507C148.253 242.233 162.861 253.975 166.353 254.149C169.494 254.3 170.103 251.873 170.127 251.769C170.246 251.261 170.615 250.847 171.105 250.669C171.595 250.491 172.143 250.572 172.561 250.886C172.59 250.904 173.783 251.71 175.607 251.102C176.325 250.862 176.972 250.129 177.338 249.14C177.962 247.453 177.677 245.414 176.556 243.545C175.221 241.32 167.513 238.063 161.885 235.685C156.614 233.458 153.308 232.027 151.856 230.736C149.457 228.604 149.83 221.529 150.002 219.411L153.087 219.661C152.771 223.582 153.164 227.759 153.912 228.423C155.056 229.441 159.14 231.166 163.089 232.835C171.442 236.364 177.488 239.084 179.209 241.953C180.816 244.631 181.192 247.642 180.24 250.214C179.541 252.103 178.209 253.497 176.586 254.038C174.971 254.577 173.52 254.476 172.418 254.164C171.484 255.679 169.67 257.252 166.649 257.252Z" fill="#1B6D42"/>
<path d="M171.476 253.852C171.458 253.852 171.439 253.852 171.421 253.851C170.567 253.821 169.899 253.105 169.929 252.251C169.995 250.341 168.981 248.078 167.406 246.617C166.779 246.036 166.742 245.057 167.322 244.43C167.903 243.803 168.881 243.766 169.509 244.347C171.74 246.415 173.119 249.559 173.021 252.358C172.991 253.194 172.305 253.852 171.476 253.852Z" fill="#1B6D42"/>
<path d="M123.182 219.535C123.182 219.535 123.851 227.793 121.843 229.578C118.543 232.512 99.5228 238.283 96.8445 242.747C94.1661 247.211 95.9517 251.675 98.63 252.568C101.308 253.461 103.094 252.121 103.094 252.121C103.094 252.121 103.987 255.916 108.451 255.693C112.915 255.469 127.869 242.97 129.655 236.944C131.252 231.555 129.655 221.097 129.655 221.097L123.182 219.535Z" fill="#48BD86"/>
<g opacity="0.6">
<path d="M123.796 227.25C123.796 227.25 128.438 229.478 126.396 234.863C124.353 240.247 112.17 250.595 109.499 251.017C105.971 251.574 105.043 247.118 105.043 247.118C105.043 247.118 101.374 248.813 99.2871 247.675C97.2447 246.56 97.4303 243.218 97.4303 243.218C97.4303 243.218 94.2737 249.531 97.2447 251.759C100.216 253.987 103.372 251.388 103.372 251.388C103.372 251.388 102.815 255.473 107.457 255.473C112.098 255.473 122.125 247.489 124.353 245.261C126.581 243.033 130.852 236.534 130.852 233.378C130.852 233.068 130.666 232.573 130.666 232.263V221.067C130.357 221.067 129.49 220.566 129.181 220.566H123.745C123.536 222.6 123.692 225.207 123.796 227.25Z" fill="#258E5A"/>
</g>
<path d="M166.182 147.318L137.574 147.705L108.966 147.318C108.966 147.318 78.2124 220.074 137.574 220.89C196.936 220.074 166.182 147.318 166.182 147.318Z" fill="#48BD86"/>
<g opacity="0.6">
<path d="M102.737 176.761C102.737 176.761 106.567 194.08 113.809 200.116C123.235 207.97 145.611 205.998 155.548 202.571C169.907 197.62 173.626 176.903 173.626 176.903C173.626 176.903 174.734 189.338 172.064 199C169.538 208.139 160.182 215.03 160.182 215.03C160.182 215.03 150.075 220.08 138.424 220.08C126.774 220.08 118.909 217.888 113.823 214.175C107.918 209.865 100.938 200.431 100.416 189.626C100.091 182.881 102.737 176.761 102.737 176.761Z" fill="#258E5A"/>
</g>
<path d="M137.595 222.436C122.337 222.227 111.5 217.341 105.342 207.914C91.1358 186.162 106.863 148.315 107.54 146.715C107.785 146.135 108.341 145.76 108.986 145.77L137.595 146.158L166.16 145.77C166.796 145.759 167.362 146.135 167.607 146.715C168.284 148.315 184.012 186.162 169.805 207.914C163.648 217.341 152.811 222.227 137.595 222.436ZM110.007 148.879C107.666 154.894 95.8202 187.683 107.936 206.226C113.496 214.735 123.475 219.148 137.595 219.342C151.675 219.148 161.655 214.734 167.215 206.222C179.335 187.665 167.485 154.894 165.141 148.879L137.595 149.252L110.007 148.879Z" fill="#1B6D42"/>
<path d="M107.575 157.397C107.575 157.397 89.2097 167.13 85.9222 166.534C82.6342 165.938 77.8929 149.441 72.1712 150.34C65.4212 151.4 70.2812 178.247 79.8989 182.802C88.3105 186.786 110.377 172.012 110.377 172.012L107.575 157.397Z" fill="#48BD86"/>
<g opacity="0.6">
<path d="M70.4905 152.392C70.4905 152.392 74.0532 169.875 81.734 175.899C88.9855 181.587 102.213 177.81 102.213 177.81C102.213 177.81 87.5506 187.052 79.8962 182.802C72.2412 178.552 68.1728 158.598 70.4905 152.392Z" fill="#258E5A"/>
</g>
<path d="M168.24 170.736C168.24 170.736 181.591 178.881 182.325 182.141C183.06 185.4 169.723 196.206 172.783 201.123C176.394 206.923 200.367 191.954 199.654 181.336C198.811 168.762 165.76 154.464 165.76 154.464L168.24 170.736Z" fill="#48BD86"/>
<g opacity="0.6">
<path d="M177.129 192.038C177.129 192.038 176.724 196.488 182.387 194.87C188.05 193.252 196.947 185.769 198.767 182.332C198.767 182.332 199.172 188.803 192.296 194.465C185.42 200.128 177.129 203.97 174.499 201.745C171.871 199.521 177.129 192.038 177.129 192.038Z" fill="#258E5A"/>
</g>
<path d="M175.804 203.948C173.229 203.948 172.02 202.83 171.466 201.94C169.08 198.108 173.31 192.757 177.041 188.036C178.523 186.162 180.754 183.338 180.802 182.443C180.329 180.577 175.55 176.486 172.281 174.159C171.586 173.663 171.423 172.697 171.919 172.001C172.414 171.305 173.38 171.142 174.076 171.638C175.56 172.694 183.007 178.149 183.83 181.801C184.271 183.757 182.549 186.058 179.469 189.955C176.836 193.286 172.857 198.32 174.092 200.306C174.554 201.046 176.721 201.2 180.385 199.789C188.299 196.742 199.236 187.766 198.127 181.611C195.614 167.663 167.742 157.507 167.46 157.406C166.656 157.117 166.238 156.231 166.527 155.427C166.816 154.623 167.701 154.204 168.506 154.494C169.723 154.931 198.346 165.374 201.172 181.062C202.637 189.196 190.7 199.133 181.496 202.677C179.095 203.602 177.237 203.948 175.804 203.948Z" fill="#1B6D42"/>
<g opacity="0.6">
<path d="M104.08 156.429C104.08 156.429 115.828 172.104 138.095 172.104C161.505 172.104 171.869 156.545 171.869 156.545L104.08 156.429Z" fill="#1B6D42"/>
</g>
<path d="M206.242 76.084C199.67 57.3063 162.079 52.7554 162.079 52.7554C162.079 52.7554 149.327 26.9087 139.456 24.3078L139.456 24.0942C139.202 24.0942 138.944 24.1174 138.685 24.1533C138.426 24.1174 138.168 24.0942 137.913 24.0942L137.914 24.3078C128.043 26.9087 115.291 52.7554 115.291 52.7554C115.291 52.7554 77.6998 57.3063 71.1275 76.084C64.5552 94.8622 74.2462 110.987 74.2462 110.987C74.2462 110.987 72.9268 132.944 84.0174 142.03C94.9502 150.987 117.98 163.476 138.246 163.83V163.847C138.392 163.847 138.539 163.84 138.685 163.838C138.831 163.839 138.978 163.847 139.124 163.847V163.83C159.39 163.476 182.42 150.987 193.353 142.03C204.443 132.944 203.124 110.987 203.124 110.987C203.124 110.987 212.815 94.8622 206.242 76.084Z" fill="#48BD86"/>
<g opacity="0.6">
<path d="M128.459 89.5149C127.605 89.5149 126.912 88.822 126.912 87.9677C126.912 64.001 114.404 55.9548 114.278 55.8762C113.554 55.4269 113.327 54.4745 113.774 53.7489C114.221 53.0227 115.167 52.7939 115.895 53.2374C116.471 53.5891 130.007 62.1437 130.007 87.9672C130.007 88.8225 129.314 89.5149 128.459 89.5149Z" fill="#258E5A"/>
</g>
<g opacity="0.6">
<path d="M148.745 89.5149C147.89 89.5149 147.197 88.822 147.197 87.9677C147.197 62.1442 160.733 53.5896 161.31 53.2379C162.039 52.7928 162.991 53.0233 163.437 53.7531C163.88 54.4814 163.652 55.4311 162.926 55.8773C162.77 55.9748 150.292 64.0305 150.292 87.9682C150.292 88.8225 149.599 89.5149 148.745 89.5149Z" fill="#258E5A"/>
</g>
<g opacity="0.6">
<path d="M138.156 148.127C111.48 148.127 86.2662 140.737 76.9043 132.736C78.3218 136.686 80.4507 140.388 83.6369 142.998C94.7275 152.084 117.682 164.475 138.157 164.475C158.632 164.475 181.586 152.084 192.676 142.998C195.442 140.732 197.411 137.644 198.81 134.286C187.274 141.48 163.428 148.127 138.156 148.127Z" fill="#258E5A"/>
</g>
<g opacity="0.6">
<path d="M128.693 31.8941L135.081 58.2602L134.264 26.3237L128.693 31.8941Z" fill="#258E5A"/>
</g>
<g opacity="0.6">
<path d="M147.889 31.8921L141.502 58.2582L142.319 26.3218L147.889 31.8921Z" fill="#258E5A"/>
</g>
<path d="M138.688 25.3389C138.634 25.3389 138.581 25.3363 138.527 25.3305C138.4 25.3173 138.275 25.3078 138.151 25.3078C137.296 25.3078 136.604 24.6149 136.604 23.7606C136.604 22.9063 137.296 22.2134 138.151 22.2134H139.225C140.08 22.2134 140.773 22.9063 140.773 23.7606C140.773 24.6149 140.08 25.3078 139.225 25.3078C139.101 25.3078 138.976 25.3173 138.849 25.3305C138.796 25.3363 138.742 25.3389 138.688 25.3389Z" fill="#1B6D42"/>
<path d="M138.684 166.022C117.12 166.022 93.3611 152.969 82.6524 144.195C71.8503 135.345 72.3576 112.665 72.5258 108.821C70.814 106.127 63.0679 92.3885 70.4407 74.6687C74.2908 65.4149 82.8865 58.7245 95.2997 55.3216C103.395 53.1014 110.759 52.8858 113.627 52.9591C116.9 46.2644 128.814 23.2759 138.521 22.2524C138.629 22.2408 138.738 22.2408 138.846 22.2524C148.553 23.2759 160.467 46.2644 163.739 52.9591C166.609 52.8852 173.971 53.1009 182.067 55.3216C194.48 58.725 203.076 65.4154 206.926 74.6687C214.299 92.3885 206.553 106.127 204.841 108.821C205.009 112.665 205.517 135.345 194.714 144.195C184.006 152.969 160.247 166.022 138.684 166.022ZM112.921 56.0641C106.53 56.0641 81.0123 57.3144 73.2973 75.8574C65.8813 93.6826 75.2669 107.366 75.3624 107.502C75.5638 107.789 75.6619 108.136 75.6408 108.486C75.626 108.733 74.2665 133.324 84.6136 141.801C94.583 149.969 118.078 162.927 138.684 162.927C159.29 162.927 182.784 149.969 192.754 141.801C203.112 133.314 201.741 108.734 201.727 108.486C201.705 108.136 201.803 107.789 202.005 107.502C202.099 107.368 211.459 93.6167 204.07 75.8574C195.269 54.704 163.296 56.0556 162.987 56.0941C162.326 56.178 161.686 55.8267 161.399 55.2266C155.877 43.6862 145.318 26.3134 138.684 25.3505C132.05 26.3134 121.491 43.6862 115.968 55.2266C115.681 55.8273 115.046 56.178 114.381 56.0941C114.342 56.0894 113.822 56.0641 112.921 56.0641Z" fill="#1B6D42"/>
<path d="M145.779 113.748C147.26 114.488 151.701 110.047 149.974 108.566C148.246 107.086 143.572 112.644 145.779 113.748Z" fill="#258E5A"/>
<path d="M131.595 113.748C130.114 114.488 125.672 110.047 127.4 108.566C129.127 107.086 133.801 112.644 131.595 113.748Z" fill="#258E5A"/>
<g opacity="0.6">
<path d="M153.058 103.089C152.927 103.089 152.794 103.072 152.66 103.037C152.597 103.02 146.215 101.352 138.69 101.352C131.165 101.352 124.783 103.02 124.72 103.037C123.898 103.256 123.047 102.764 122.827 101.938C122.609 101.112 123.1 100.265 123.925 100.046C124.2 99.9733 130.743 98.2573 138.69 98.2573C146.638 98.2573 153.181 99.9728 153.456 100.046C154.281 100.265 154.773 101.113 154.554 101.938C154.368 102.631 153.742 103.089 153.058 103.089Z" fill="#258E5A"/>
</g>
<path d="M120.088 88.545C120.088 103.757 108.668 115.573 92.67 115.573C76.673 115.573 64.8184 102.835 64.8184 87.6227C64.8184 72.4104 76.3018 61.603 92.2988 61.603C108.296 61.603 120.088 73.3327 120.088 88.545Z" fill="#258E5A"/>
<path d="M92.6731 117.119C75.9452 117.119 62.8418 103.908 62.8418 87.0438C62.8418 80.0518 65.0809 73.739 69.3171 68.7883C73.4978 63.9024 79.3229 60.6793 86.1625 59.4675C87.0015 59.3198 87.8068 59.8798 87.956 60.721C88.1053 61.5626 87.5442 62.3652 86.7025 62.5145C74.0874 64.7493 65.9363 74.3781 65.9363 87.0433C65.9363 102.172 77.6807 114.023 92.6731 114.023C98.7207 114.023 104.723 112.341 109.142 109.407C109.856 108.934 110.815 109.13 111.287 109.841C111.76 110.553 111.566 111.513 110.854 111.986C105.941 115.248 99.3139 117.119 92.6731 117.119Z" fill="#1B6D42"/>
<path d="M114.514 98.4493C120.077 87.2613 115.517 73.6821 104.329 68.1193C93.141 62.5566 79.5618 67.1167 73.999 78.3048C68.4363 89.4928 72.9964 103.072 84.1845 108.635C95.3725 114.198 108.952 109.637 114.514 98.4493Z" fill="white"/>
<path d="M104.208 99.198C109.323 94.5066 109.666 86.5571 104.975 81.4424C100.283 76.3276 92.3338 75.9845 87.2191 80.6759C82.1043 85.3673 81.7611 93.3167 86.4526 98.4315C91.144 103.546 99.0934 103.889 104.208 99.198Z" fill="#CC9211"/>
<path d="M100.67 95.7782C103.873 93.0234 104.236 88.1941 101.481 84.9915C98.7262 81.7889 93.8969 81.4259 90.6943 84.1806C87.4917 86.9353 87.1287 91.7647 89.8834 94.9672C92.6381 98.1698 97.4675 98.5329 100.67 95.7782Z" fill="#233338"/>
<path d="M98.5641 85.4121C98.7171 83.7687 100.256 82.5686 102.003 82.731C103.749 82.8935 105.04 84.3575 104.887 86.0008C104.734 87.6442 103.194 88.8444 101.448 88.6819C99.7025 88.5194 98.4111 87.0554 98.5641 85.4121Z" fill="white"/>
<path d="M157.416 88.545C157.416 103.757 168.837 115.573 184.834 115.573C200.831 115.573 212.686 102.835 212.686 87.6227C212.686 72.4104 201.202 61.603 185.205 61.603C169.208 61.603 157.416 73.3327 157.416 88.545Z" fill="#258E5A"/>
<path d="M184.824 117.119C178.182 117.119 171.555 115.249 166.643 111.987C165.93 111.515 165.737 110.554 166.21 109.842C166.682 109.13 167.642 108.936 168.355 109.409C172.773 112.342 178.776 114.025 184.824 114.025C199.817 114.025 211.56 102.174 211.56 87.0447C211.56 74.379 203.409 64.7507 190.794 62.5159C189.953 62.3666 189.391 61.5635 189.541 60.7224C189.69 59.8807 190.494 59.3196 191.334 59.4689C198.174 60.6807 203.999 63.9038 208.18 68.7897C212.416 73.7404 214.655 80.0527 214.655 87.0452C214.655 103.909 201.551 117.119 184.824 117.119Z" fill="#1B6D42"/>
<path d="M193.023 106.737C203.277 101.78 207.572 89.4504 202.616 79.1965C197.66 68.9426 185.33 64.6479 175.076 69.6039C164.822 74.56 160.527 86.89 165.483 97.1439C170.44 107.398 182.77 111.693 193.023 106.737Z" fill="white"/>
<path d="M171.202 88.3038C170.616 94.6016 175.246 100.182 181.544 100.77C187.841 101.356 193.423 96.7263 194.009 90.4285C194.596 84.1307 189.966 78.5493 183.668 77.9627C177.37 77.3761 171.79 82.006 171.202 88.3038Z" fill="#CC9211"/>
<path d="M175.659 88.721C175.302 92.555 178.121 95.953 181.955 96.3103C185.789 96.6675 189.187 93.8489 189.544 90.0149C189.901 86.1808 187.083 82.7828 183.249 82.4256C179.415 82.0683 176.017 84.8869 175.659 88.721Z" fill="#233338"/>
<path d="M180.817 84.7748C180.956 83.277 179.779 81.9428 178.188 81.7942C176.597 81.6461 175.194 82.74 175.054 84.2377C174.915 85.7355 176.092 87.0698 177.683 87.2183C179.274 87.3669 180.677 86.2726 180.817 84.7748Z" fill="white"/>
<path d="M93.3129 50.7175C95.3617 53.7471 108.667 39.7551 105.382 38.0223C102.097 36.2899 90.5765 46.6712 93.3129 50.7175Z" fill="#258E5A"/>
<path d="M94.2021 52.6944C92.9412 52.6944 92.2831 51.9545 92.0336 51.5854C90.5318 49.3642 91.5654 45.9755 94.8697 42.2883C97.6978 39.1332 103.026 35.0289 106.106 36.6552C106.576 36.9025 107.645 37.6714 107.421 39.4501C106.938 43.2781 99.1016 51.6244 95.0901 52.5836C94.7658 52.6606 94.47 52.6944 94.2021 52.6944ZM94.5965 49.8509C94.5971 49.8509 94.5971 49.8515 94.5976 49.852C94.5976 49.852 94.5971 49.8515 94.5965 49.8509ZM104.29 39.3652C102.916 39.5176 99.2493 41.6993 96.4549 45.2029C94.8312 47.2395 94.3075 48.7746 94.4752 49.5519C95.2815 49.312 97.3044 48.1302 100.085 45.2409C102.728 42.495 103.996 40.3187 104.29 39.3652Z" fill="#1B6D42"/>
<path d="M183.114 50.5332C181.156 53.6224 167.44 40.0333 170.671 38.2039C173.903 36.3746 185.728 46.4073 183.114 50.5332Z" fill="#258E5A"/>
<path d="M182.188 52.536C181.946 52.536 181.683 52.5096 181.395 52.45C177.357 51.6116 169.275 43.5026 168.678 39.6904C168.401 37.9191 169.447 37.1196 169.908 36.8575C172.942 35.1405 178.387 39.0835 181.308 42.1531C184.721 45.7401 185.855 49.0961 184.42 51.3616C184.175 51.7476 183.513 52.536 182.188 52.536ZM181.807 49.7047C181.807 49.7052 181.807 49.7052 181.806 49.7058C181.807 49.7052 181.807 49.7047 181.807 49.7047ZM171.807 39.5159C172.13 40.4614 173.462 42.5977 176.184 45.2613C179.049 48.0657 181.106 49.1868 181.919 49.4025C182.063 48.6205 181.494 47.1012 179.809 45.1136C176.917 41.7001 173.193 39.6303 171.807 39.5159Z" fill="#1B6D42"/>
<g opacity="0.6">
<path d="M191.166 118.234C186.993 118.954 189.866 123.062 189.309 125.105C189.309 125.105 187.325 127.683 185.224 128.447C183.182 129.189 178.354 129.561 167.028 127.89C156.738 126.372 146.488 125.494 140.573 125.065V124.733C140.573 124.733 139.643 124.782 138.018 124.888C136.393 124.782 135.462 124.733 135.462 124.733V125.065C129.548 125.494 119.298 126.372 109.008 127.89C97.6819 129.561 92.8541 129.19 90.8117 128.447C88.7102 127.683 86.7269 125.105 86.7269 125.105C86.17 123.062 89.0425 118.954 84.8701 118.234C79.4854 117.306 77.8702 128.378 87.0981 132.16C97.6935 136.502 125.146 128.847 138.502 128.847C151.857 128.847 178.342 136.502 188.937 132.16C198.166 128.378 196.55 117.306 191.166 118.234Z" fill="#258E5A"/>
</g>
<path d="M97.2396 130.523C96.4132 130.523 95.6301 130.497 94.8976 130.443C90.2407 130.1 86.6083 128.515 84.9319 126.097C83.9099 124.623 83.641 122.918 84.1535 121.166C84.3935 120.346 85.2525 119.875 86.0731 120.116C86.8931 120.356 87.3635 121.216 87.1235 122.036C86.8757 122.883 86.9906 123.635 87.4753 124.334C88.6001 125.957 91.4599 127.087 95.1255 127.357C99.9928 127.718 107.533 126.663 115.514 125.549C123.212 124.473 131.173 123.361 137.754 123.361C138.609 123.361 139.302 124.054 139.302 124.908C139.302 125.762 138.609 126.455 137.754 126.455C131.388 126.455 123.536 127.553 115.942 128.614C108.942 129.591 102.276 130.523 97.2396 130.523Z" fill="#1B6D42"/>
<path d="M179.064 130.522C174.028 130.522 167.362 129.591 160.362 128.613C152.768 127.552 144.916 126.454 138.549 126.454C137.694 126.454 137.002 125.761 137.002 124.907C137.002 124.053 137.694 123.36 138.549 123.36C145.131 123.36 153.091 124.472 160.79 125.548C168.771 126.663 176.311 127.716 181.179 127.356C184.844 127.086 187.704 125.956 188.829 124.333C189.313 123.634 189.428 122.882 189.18 122.035C188.94 121.215 189.41 120.355 190.23 120.115C191.052 119.874 191.91 120.346 192.15 121.165C192.663 122.917 192.394 124.622 191.372 126.096C189.695 128.514 186.063 130.099 181.406 130.442C180.673 130.497 179.89 130.522 179.064 130.522Z" fill="#1B6D42"/>
<path d="M138.691 61.8706C136.697 61.8706 135.081 60.2543 135.081 58.2604V20.0106C135.081 18.0167 136.697 16.4004 138.691 16.4004C140.685 16.4004 142.301 18.0167 142.301 20.0106V58.2599C142.301 60.2543 140.685 61.8706 138.691 61.8706Z" fill="#FBCA47"/>
<path d="M138.692 63.1603C135.99 63.1603 133.792 60.9623 133.792 58.2607V20.0109C133.792 17.3093 135.99 15.1113 138.692 15.1113C141.394 15.1113 143.592 17.3093 143.592 20.0109V58.2607C143.592 60.9623 141.394 63.1603 138.692 63.1603ZM138.692 17.69C137.412 17.69 136.371 18.731 136.371 20.0109V58.2607C136.371 59.5406 137.412 60.5815 138.692 60.5815C139.972 60.5815 141.013 59.5406 141.013 58.2607V20.0109C141.013 18.731 139.972 17.69 138.692 17.69Z" fill="#CC9211"/>
<path d="M108.08 257.252C105.059 257.252 103.246 255.679 102.311 254.165C101.21 254.477 99.7583 254.576 98.1431 254.039C96.5194 253.497 95.1868 252.103 94.4886 250.214C93.5372 247.642 93.9132 244.631 95.5201 241.953C97.2413 239.085 103.287 236.365 111.64 232.836C115.589 231.167 119.672 229.442 120.817 228.424C121.566 227.757 121.959 223.581 121.642 219.662L124.726 219.412C124.898 221.529 125.272 228.605 122.873 230.737C121.421 232.028 118.116 233.458 112.844 235.686C107.215 238.064 99.5084 241.32 98.1731 243.545C97.052 245.414 96.7667 247.454 97.3905 249.141C97.7565 250.13 98.4036 250.863 99.1218 251.102C100.946 251.71 102.14 250.905 102.19 250.87C102.608 250.557 103.144 250.483 103.635 250.661C104.126 250.84 104.483 251.262 104.602 251.769C104.71 252.179 105.418 254.296 108.376 254.149C111.869 253.975 126.477 242.233 128.174 236.507C129.652 231.514 128.143 221.433 128.127 221.332L131.186 220.866C131.253 221.306 132.816 231.731 131.14 237.386C129.146 244.118 113.604 256.986 108.53 257.24C108.378 257.248 108.227 257.252 108.08 257.252Z" fill="#1B6D42"/>
<path d="M103.251 253.852C102.422 253.852 101.735 253.194 101.706 252.359C101.608 249.56 102.987 246.415 105.218 244.348C105.845 243.767 106.824 243.804 107.405 244.43C107.985 245.057 107.949 246.036 107.321 246.617C105.745 248.078 104.732 250.342 104.798 252.251C104.828 253.105 104.16 253.821 103.306 253.851C103.288 253.851 103.27 253.852 103.251 253.852Z" fill="#1B6D42"/>
<path d="M170.589 164.492C169.89 164.492 169.256 164.015 169.086 163.306C168.925 162.64 168.658 161.713 168.4 160.816C168.145 159.935 167.905 159.102 167.741 158.436C167.536 157.606 168.042 156.767 168.872 156.562C169.701 156.359 170.54 156.864 170.745 157.693C170.895 158.301 171.138 159.144 171.373 159.958C171.641 160.888 171.918 161.849 172.095 162.584C172.294 163.414 171.782 164.25 170.951 164.449C170.83 164.478 170.708 164.492 170.589 164.492Z" fill="#1B6D42"/>
<path d="M85.0001 185.357C82.9439 185.357 80.9733 185.023 79.2357 184.2C71.2116 180.399 66.4333 163.386 67.6842 154.716C68.3233 150.285 70.3462 149.059 71.9309 148.81C76.3869 148.108 79.6649 154.092 82.5553 159.37C83.6996 161.46 85.4225 164.607 86.2314 165.014C88.1172 165.183 97.5208 160.449 105.216 155.927C105.764 155.605 106.456 155.651 106.957 156.045C107.457 156.439 107.665 157.1 107.481 157.709L105.406 164.577C105.158 165.395 104.297 165.857 103.477 165.611C102.659 165.364 102.196 164.5 102.443 163.682L103.39 160.551C97.4142 163.923 88.5016 168.575 85.6466 168.055C83.6733 167.698 82.2273 165.214 79.841 160.856C77.8029 157.132 74.7058 151.503 72.4118 151.867C71.6498 151.987 71.0281 153.217 70.7481 155.157C69.6507 162.762 73.997 178.294 80.5614 181.403C86.8526 184.383 98.7178 178.848 102.759 176.463C103.496 176.029 104.444 176.274 104.878 177.01C105.312 177.745 105.067 178.694 104.331 179.128C103.805 179.439 93.6527 185.357 85.0001 185.357Z" fill="#1B6D42"/>
</svg>
