<svg width="184" height="271" viewBox="0 0 184 271" fill="none" xmlns="http://www.w3.org/2000/svg">
<g clip-path="url(#clip0_546_2842)">
<path d="M123.818 210.275C128.884 208.995 134.25 209.754 138.762 212.389C143.189 215.02 145.816 218.867 147.036 223.873C148.064 227.912 148.578 232.979 150.565 236.634C153.066 241.318 159.161 243.627 164.228 242.088C169.295 240.55 173.015 235.545 173.334 230.221C173.526 227.138 172.436 223.808 170.062 221.882C167.626 219.96 163.714 219.895 161.596 222.139C159.479 224.448 161.47 227.278 163.392 229.645C164.484 230.992 165.766 232.914 161.596 233.363C157.427 233.811 150.948 227.59 154.402 220.344C157.855 213.098 170.696 209.038 178.133 220.022C186.856 232.852 179.096 249.526 165.05 252.027C150.938 254.532 142.781 246.385 139.972 234.517C137.162 222.65 133.068 218.867 123.633 219.316L123.825 210.275" fill="#258F5B"/>
<path d="M160.579 251.578C149.273 251.578 143.131 242.986 141.013 234.264C138.9 225.356 136.333 219.895 129.855 218.227C130.561 217.394 131.201 216.431 131.842 215.534C132.545 214.435 133.187 213.3 133.767 212.132C135.208 212.547 136.587 213.154 137.865 213.937C138.057 214.064 138.314 214.194 138.506 214.321C137.543 215.476 136.07 217.404 136.837 218.09C137.93 219.179 142.099 225.527 144.032 233.548C145.827 240.924 151.6 248.361 161.607 248.361C162.439 248.361 163.275 248.3 164.173 248.235C172.512 247.272 177.514 240.475 179.953 235.151C179.691 236.797 179.238 238.406 178.603 239.947C176.102 245.912 171.035 250.146 165.005 251.253C163.539 251.445 162.062 251.552 160.582 251.572" fill="#217B4D"/>
<path d="M160.706 254.98C149.417 254.98 140.63 247.539 137.68 235.031C134.984 223.616 132.099 220.728 123.76 221.115L123.568 217.651C134.874 217.137 138.256 222.79 140.952 234.199C143.261 244.011 150.829 253.634 164.934 251.13C170.96 250.04 176.027 245.871 178.531 239.841C179.825 236.805 180.333 233.492 180.007 230.207C179.682 226.923 178.535 223.773 176.671 221.05C173.848 216.88 169.87 214.763 165.509 215.085C161.398 215.404 157.557 217.826 155.954 221.176C155.256 222.579 154.953 224.145 155.078 225.706C155.203 227.268 155.751 228.766 156.663 230.039C157.818 231.708 159.486 232.732 160.641 232.605C161.734 232.475 162.309 232.218 162.374 231.965C162.501 231.708 162.309 231.194 162.052 230.81C160.641 229.142 156.913 224.644 160.257 220.995C162.823 218.172 167.76 217.912 171.032 220.546C173.728 222.663 175.201 226.319 174.944 230.296C174.626 236.388 170.264 242.034 164.618 243.702C158.719 245.497 151.792 242.739 148.969 237.416C147.492 234.675 146.913 231.513 146.403 228.508C146.146 227.097 145.889 225.75 145.57 224.53C144.35 219.847 141.658 216.127 137.807 213.818C133.706 211.406 128.82 210.711 124.209 211.882L123.312 208.545C128.807 207.15 134.63 207.955 139.54 210.789C144.22 213.547 147.492 218.038 148.903 223.619C149.226 224.966 149.482 226.439 149.739 227.85C150.25 230.591 150.767 233.496 151.983 235.73C154.039 239.577 159.294 241.633 163.656 240.348C167.955 239.067 171.289 234.706 171.481 230.022C171.611 227.199 170.648 224.572 168.853 223.17C167.054 221.694 164.104 221.759 162.758 223.232C162.052 224.003 161.86 225.157 164.618 228.494C165.451 229.522 166.222 231.379 165.516 233.174C165.067 234.267 163.913 235.675 160.898 235.997C158.397 236.254 155.639 234.716 153.703 231.958C152.437 230.184 151.678 228.098 151.509 225.925C151.339 223.752 151.765 221.574 152.741 219.624C154.858 215.198 159.863 211.991 165.187 211.608C170.83 211.159 175.897 213.852 179.487 219.046C181.669 222.247 183.013 225.945 183.394 229.8C183.775 233.656 183.182 237.545 181.669 241.112C178.72 248.166 172.625 253.168 165.506 254.453C163.933 254.812 162.323 254.985 160.709 254.967" fill="#1E6E43"/>
<path d="M111.448 228.426C111.448 228.426 110.677 237.676 112.921 239.649C116.576 242.921 137.807 249.334 140.822 254.336C143.837 259.338 141.85 264.272 138.835 265.299C135.82 266.327 133.829 264.786 133.829 264.786C133.829 264.786 132.802 269.02 127.865 268.763C122.863 268.506 106.185 254.586 104.198 247.865C102.403 241.835 104.198 230.159 104.198 230.159L111.448 228.429" fill="#4CBC87"/>
<path d="M130.88 268.256C131.873 267.816 132.704 267.076 133.254 266.139C133.066 266.661 132.75 267.129 132.335 267.499C131.921 267.868 131.42 268.129 130.88 268.256ZM140.13 264.601C140.753 264.112 141.239 263.472 141.541 262.74C141.342 263.404 140.938 263.988 140.387 264.409C140.322 264.474 140.195 264.535 140.13 264.601ZM119.543 264.409C115.432 261.712 111.523 258.506 110.177 257.159C107.676 254.658 102.931 247.412 102.931 243.884C102.931 243.562 103.123 242.986 103.123 242.664V231.249C103.441 231.184 103.763 231.184 104.15 231.119C103.767 234.007 102.804 242.856 104.28 247.861C105.562 252.223 113.068 259.66 119.547 264.409" fill="#7DBC9D"/>
<path d="M129.019 268.513C126.648 268.513 122.989 266.653 119.529 264.402C113.051 259.653 105.544 252.216 104.263 247.854C102.786 242.849 103.749 234 104.133 231.112C106.399 230.801 108.647 230.373 110.868 229.83C111.008 232.245 110.986 234.665 110.803 237.076C110.803 237.076 105.609 239.577 107.919 245.545C110.228 251.572 123.76 263.117 126.761 263.566C126.971 263.617 127.186 263.639 127.402 263.631C130.804 263.631 131.702 259.205 131.702 259.205C131.702 259.205 134.011 260.298 136.124 260.298C136.815 260.316 137.499 260.161 138.115 259.849C140.424 258.629 140.171 254.908 140.171 254.908C140.171 254.908 142.606 259.705 141.517 262.788C141.152 263.482 140.675 264.11 140.105 264.648C139.328 265.173 138.416 265.462 137.478 265.481C136.059 265.424 134.693 264.931 133.565 264.069C133.625 264.812 133.515 265.558 133.243 266.252C132.673 267.172 131.849 267.908 130.869 268.369C130.252 268.449 129.631 268.491 129.009 268.496" fill="#31A16C"/>
<path d="M128.313 270.5H127.803C122.157 270.246 104.849 255.878 102.595 248.372C100.734 242.088 102.464 230.413 102.529 229.964L105.928 230.478C105.928 230.605 104.215 241.832 105.866 247.412C107.727 253.826 124.082 266.91 127.93 267.101C131.201 267.232 132.041 264.923 132.164 264.409C132.231 264.131 132.366 263.875 132.556 263.662C132.746 263.45 132.986 263.287 133.253 263.189C133.52 263.088 133.808 263.058 134.089 263.103C134.371 263.148 134.635 263.266 134.857 263.446C134.857 263.446 136.203 264.344 138.255 263.703C139.026 263.446 139.797 262.613 140.181 261.521C140.887 259.66 140.564 257.351 139.283 255.299C137.807 252.798 129.214 249.208 122.928 246.511C117.025 244.01 113.369 242.4 111.766 240.996C109.073 238.625 109.522 230.718 109.71 228.361L113.174 228.618C112.852 232.979 113.239 237.662 114.072 238.368C115.356 239.522 119.896 241.451 124.349 243.305C133.647 247.217 140.383 250.297 142.308 253.504C144.104 256.519 144.487 259.856 143.463 262.754C142.692 264.871 141.219 266.409 139.352 266.988C137.862 267.506 136.249 267.55 134.733 267.115C133.706 268.784 131.65 270.514 128.317 270.514" fill="#1E6E43"/>
<path d="M133.703 266.718C133.236 266.705 132.794 266.51 132.47 266.174C132.146 265.838 131.968 265.389 131.972 264.923C132.034 262.805 130.945 260.239 129.149 258.636C128.818 258.321 128.625 257.887 128.613 257.43C128.601 256.973 128.771 256.53 129.086 256.198C129.401 255.867 129.835 255.674 130.292 255.662C130.749 255.65 131.192 255.82 131.524 256.135C134.025 258.444 135.563 261.959 135.436 265.042C135.403 265.485 135.207 265.9 134.888 266.208C134.568 266.515 134.146 266.694 133.703 266.711" fill="#1E6E43"/>
<path d="M79.8256 228.426C79.8256 228.426 80.593 237.676 78.349 239.649C74.6935 242.921 53.4628 249.334 50.448 254.336C47.4331 259.338 49.4202 264.272 52.435 265.299C55.4499 266.327 57.4404 264.786 57.4404 264.786C57.4404 264.786 58.4682 269.02 63.405 268.763C68.4069 268.506 85.0844 254.586 87.0715 247.865C88.8667 241.835 87.0715 230.159 87.0715 230.159L79.8256 228.429" fill="#4CBC87"/>
<path d="M60.3901 268.256C59.854 268.118 59.3586 267.854 58.9456 267.486C58.5325 267.118 58.2137 266.656 58.0159 266.139C58.5662 267.076 59.3966 267.816 60.3901 268.256ZM51.14 264.601C51.0749 264.535 50.9482 264.474 50.8831 264.409C50.333 263.987 49.9292 263.404 49.7285 262.74C50.0704 263.448 50.5503 264.081 51.14 264.601ZM71.73 264.409C78.2085 259.66 85.7114 252.223 86.9961 247.861C88.4693 242.856 87.5066 233.815 87.1229 231.054C87.4449 231.119 87.7635 231.119 88.1507 231.184V242.664C88.1507 242.986 88.3459 243.562 88.3459 243.884C88.3459 247.412 83.5976 254.658 81.0966 257.159C78.1797 259.824 75.0518 262.249 71.7437 264.409" fill="#7DBC9D"/>
<path d="M62.3155 268.513C61.4538 268.582 60.5911 268.393 59.8371 267.97C59.0831 267.547 58.4718 266.91 58.0811 266.139C57.8095 265.446 57.6993 264.701 57.759 263.96C56.6311 264.822 55.2649 265.315 53.8466 265.371C52.9035 265.383 51.982 265.09 51.2189 264.535C50.5959 264.047 50.1097 263.407 49.8074 262.675C48.7796 259.592 51.1538 254.795 51.1538 254.795C51.1538 254.795 50.9619 258.513 53.2093 259.732C53.8236 260.046 54.5069 260.201 55.1964 260.181C57.3136 260.181 59.6227 259.092 59.6227 259.092C59.6227 259.092 60.5203 263.518 63.9223 263.518C64.1379 263.529 64.3539 263.507 64.563 263.453C67.5127 263.004 81.1104 251.462 83.4058 245.429C85.7012 239.396 80.5211 236.963 80.5211 236.963C80.3384 234.509 80.3167 232.045 80.456 229.587C82.6694 230.182 84.9194 230.632 87.1915 230.934C87.5752 233.757 88.5379 242.736 87.0613 247.721C85.78 252.082 78.2737 259.523 71.7952 264.268C68.2699 266.642 64.676 268.503 62.3053 268.503" fill="#31A16C"/>
<path d="M127.803 147.864L95.9242 148.313L64.0628 147.864C64.0628 147.864 29.7312 229.012 95.9242 229.899C162.117 229.001 127.803 147.864 127.803 147.864Z" fill="#4CBC87"/>
<path d="M95.9244 228.234C80.1444 228.042 69.0477 223.095 62.8262 213.609C57.002 204.701 56.1558 192.827 57.2487 181.747C58.208 185.725 62.3876 200.991 69.3698 206.829C74.7588 211.299 83.865 212.91 93.0363 212.91C101.762 212.91 110.546 211.436 115.935 209.576C127.224 205.664 132.613 193.025 134.857 185.906C135.371 195.78 134.096 205.849 128.958 213.674C122.736 223.102 111.574 227.977 95.9244 228.234Z" fill="#31A16C"/>
<path d="M65.1351 149.598C62.4936 156.33 49.2934 192.892 62.8362 213.543C69.0578 223.037 80.1545 227.977 95.9344 228.169C111.649 227.977 122.746 223.03 128.968 213.543C142.5 192.892 129.286 156.268 126.658 149.598L95.9344 149.982L65.1453 149.598M95.9344 231.698C78.9383 231.441 66.8138 225.986 59.9619 215.469C44.1202 191.223 61.6303 149.005 62.3977 147.224C62.5205 146.904 62.7423 146.631 63.0307 146.447C63.3192 146.262 63.6592 146.174 64.0011 146.196L95.8625 146.645L127.741 146.196C128.081 146.186 128.415 146.279 128.701 146.463C128.987 146.646 129.211 146.911 129.344 147.224C130.115 149.019 147.625 191.223 131.78 215.469C124.983 225.986 112.859 231.441 95.9276 231.698" fill="#1E6E43"/>
<path d="M130.112 174.035C130.112 174.035 144.991 183.141 145.823 186.735C146.659 190.391 131.777 202.447 135.179 207.901C139.235 214.379 165.958 197.702 165.132 185.845C164.169 171.798 127.354 155.891 127.354 155.891L130.112 174.049" fill="#4CBC87"/>
<path d="M138.512 207.579C137.485 207.579 136.844 207.322 136.652 206.938C135.624 205.335 137.745 201.871 140.116 198.716C140.308 199.744 141.013 201.278 143.453 201.278C144.278 201.258 145.097 201.129 145.889 200.895C151.661 199.226 160.449 192.107 163.464 188.003C162.566 194.673 151.726 203.334 143.645 206.411C141.401 207.247 139.667 207.565 138.506 207.565" fill="#31A16C"/>
<path d="M138.512 211.042C135.628 211.042 134.281 209.823 133.716 208.798C131.085 204.502 135.772 198.521 139.938 193.275C141.606 191.158 144.107 188.017 144.107 187.054C143.593 184.998 138.283 180.384 134.614 177.804C134.239 177.531 133.988 177.121 133.917 176.664C133.845 176.206 133.957 175.739 134.23 175.364C134.502 174.99 134.913 174.739 135.37 174.667C135.828 174.595 136.295 174.708 136.669 174.981C138.338 176.135 146.604 182.23 147.574 186.334C148.088 188.517 146.162 191.083 142.699 195.444C139.749 199.165 135.323 204.742 136.734 206.99C137.248 207.822 139.684 208.017 143.727 206.411C152.576 203.012 164.762 193.005 163.546 186.143C160.723 170.62 129.68 159.269 129.358 159.139C129.126 159.081 128.908 158.975 128.719 158.828C128.53 158.681 128.374 158.495 128.261 158.284C128.148 158.073 128.08 157.84 128.063 157.601C128.046 157.362 128.079 157.122 128.16 156.896C128.241 156.671 128.369 156.465 128.534 156.292C128.7 156.119 128.9 155.983 129.122 155.892C129.344 155.801 129.582 155.758 129.822 155.765C130.061 155.772 130.297 155.829 130.513 155.932C131.859 156.446 163.803 168.057 166.944 185.567C168.548 194.608 155.272 205.705 145.018 209.682C142.195 210.645 140.143 211.029 138.54 211.029" fill="#1E6E43"/>
<path d="M96.5649 172.826C83.8545 172.41 71.7175 167.437 62.3704 158.814L62.0483 156.813C73.0765 161.787 85.4853 165.601 97.4899 166.063C108.295 166.478 119.666 164.213 130.153 160.698L130.41 162.699C124.216 167.533 113.037 173.46 96.5649 172.833" fill="#2C8E5E"/>
<path d="M60.39 160.181C60.1982 159.989 60.0063 159.732 59.811 159.54C60.1447 159.66 60.4669 159.811 60.7737 159.989L60.39 160.181Z" fill="#1E6E43"/>
<path d="M128.57 164.158L128.251 162.168C129.598 161.654 130.879 161.078 132.226 160.564C131.07 161.825 129.85 163.024 128.57 164.158Z" fill="#2C8E5E"/>
<path d="M177.459 79.7836C173.615 57.9088 133.027 46.1612 133.027 46.1612C133.027 46.1612 123.668 15.4578 113.256 10.7779L113.297 10.5244C113.022 10.4689 112.742 10.4459 112.461 10.4558C112.199 10.3601 111.926 10.2934 111.649 10.2571L111.608 10.5107C100.255 11.5864 81.6242 37.795 81.6242 37.795C81.6242 37.795 39.4061 36.0478 28.8165 55.5758C18.2268 75.1037 25.9764 94.5563 25.9764 94.5563C25.9764 94.5563 20.5805 118.504 31.1667 130.498C41.5885 142.331 64.7411 160.205 86.955 164.216L87.4621 164.299L87.9691 164.381C110.313 167.632 137.94 158.029 151.576 150.115C165.423 142.095 167.907 117.668 167.907 117.668C167.907 117.668 181.378 101.6 177.459 79.7767" fill="#4CBC87"/>
<path d="M89.4664 80.5921C89.2408 80.5577 89.0243 80.4785 88.8297 80.3592C88.6351 80.24 88.4663 80.083 88.3332 79.8976C88.2001 79.7121 88.1054 79.502 88.0547 79.2794C88.004 79.0569 87.9982 78.8264 88.0378 78.6016C91.9366 54.6747 82.1623 43.2663 80.2026 41.3238C80.5175 41.3682 80.8386 41.3281 81.133 41.2077C81.4273 41.0874 81.6844 40.8909 81.8779 40.6386C82.2205 40.1726 82.5631 39.645 82.9057 39.1791C85.7938 42.1871 95.5098 54.3595 91.4535 79.2389C91.3701 79.6812 91.116 80.0729 90.7461 80.3294C90.3762 80.5858 89.9202 80.6864 89.4767 80.6093" fill="#31A16C"/>
<path d="M111.752 84.2202C111.527 84.1862 111.31 84.1074 111.115 83.9885C110.921 83.8696 110.752 83.713 110.618 83.5279C110.485 83.3428 110.39 83.133 110.339 82.9106C110.287 82.6883 110.281 82.4579 110.32 82.2332C114.431 57.0386 127.793 48.6896 131.28 46.9149C131.506 47.5384 131.664 48.1483 131.825 48.7615C131.911 49.0368 132.063 49.2869 132.268 49.4899C132.473 49.6929 132.724 49.8428 133 49.9263C130.602 51.1597 117.648 58.7962 113.739 82.7916C113.705 83.0169 113.626 83.233 113.507 83.4274C113.388 83.6217 113.231 83.7904 113.046 83.9234C112.861 84.0565 112.651 84.1513 112.429 84.2022C112.207 84.2532 111.977 84.2593 111.752 84.2202Z" fill="#31A16C"/>
<path d="M102.348 47.4014L100.155 18.9659C102.24 16.9762 104.512 15.1922 106.939 13.6385L102.348 47.398" fill="#31A16C"/>
<path d="M109.43 48.556L115.905 14.3889C117.566 16.1532 119.252 18.5754 120.866 21.4361L109.43 48.556Z" fill="#31A16C"/>
<path d="M109.81 11.422L109.618 11.398L109.172 11.3432C108.932 11.3329 108.697 11.273 108.482 11.167C108.266 11.0611 108.075 10.9116 107.92 10.7279C107.766 10.5442 107.651 10.3304 107.583 10.1C107.515 9.86956 107.496 9.62759 107.527 9.3894C107.558 9.15122 107.638 8.92202 107.762 8.71633C107.885 8.51064 108.051 8.33296 108.247 8.19454C108.443 8.05613 108.666 7.96 108.902 7.91226C109.137 7.86451 109.38 7.86619 109.614 7.91719L110.824 8.07136C111.248 8.16354 111.622 8.4115 111.872 8.76623C112.122 9.12096 112.23 9.55664 112.175 9.98715C112.119 10.4177 111.904 10.8117 111.572 11.0913C111.24 11.3709 110.815 11.5158 110.382 11.4973L109.936 11.4391L109.81 11.422Z" fill="#1E6E43"/>
<path d="M88.4422 164.473C65.6116 160.989 41.8183 142.03 32.2291 130.899C30.1187 128.46 28.7072 125.315 27.813 121.779C38.5945 131.937 63.3162 143.136 90.4807 147.285C117.645 151.434 144.518 148.108 158.887 142.061C156.996 145.041 154.793 147.498 152.117 149.2C139.654 156.902 111.273 167.968 88.4422 164.48" fill="#31A16C"/>
<path d="M78.3765 40.9606C71.3498 39.8163 43.0171 36.6302 31.2113 55.634C19.8474 73.9252 27.7134 90.6747 27.8196 90.8221C27.9932 91.1709 28.0428 91.5684 27.96 91.9492C27.9189 92.2027 21.9852 119.052 31.8622 130.214C41.3521 140.985 64.9227 159.447 87.5855 163.141C110.248 166.834 138.461 156.809 150.884 149.605C163.806 142.092 166.691 114.811 166.732 114.557C166.772 114.168 166.946 113.804 167.225 113.529C167.373 113.423 180.093 99.9659 175.177 79.0847C169.284 54.2088 133.839 49.9949 133.524 49.9435C133.162 49.9223 132.814 49.7927 132.525 49.5716C132.237 49.3505 132.022 49.048 131.907 48.7033C127.902 34.9994 119.368 13.9743 112.263 11.7029C104.808 11.5933 90.0453 28.8327 81.895 40.5495C81.6867 40.8518 81.3869 41.0793 81.0396 41.1983C80.6924 41.3174 80.3161 41.3217 79.9661 41.2107C79.8942 41.2621 79.3323 41.1045 78.3833 40.9503M87.0133 166.683C63.268 162.819 39.4644 144.188 29.2619 132.585C18.9532 120.895 23.5885 96.0466 24.4656 91.8361C23.0506 88.5506 17.0312 72.0375 28.3129 53.8628C34.2159 44.3592 44.8432 38.5522 59.126 37.0447C65.9974 36.3259 72.935 36.5564 79.7435 37.7299C84.5398 30.9739 101.779 7.78702 112.664 8.38999L113.044 8.45166C123.555 11.3363 132.534 38.792 134.946 46.7231C141.775 47.7683 148.428 49.7488 154.717 52.6089C167.784 58.5735 176.01 67.5152 178.6 78.3378C183.53 99.1677 172.518 112.902 170.199 115.578C169.699 119.85 166.204 144.887 152.727 152.698C139.235 160.444 110.748 170.554 87.0065 166.687" fill="#1E6E43"/>
<path d="M104.171 110.412C105.681 111.501 111.365 107.421 109.721 105.465C108.076 103.508 101.971 108.754 104.171 110.412Z" fill="#258F5B"/>
<path d="M88.5312 107.863C86.7497 108.418 82.6693 102.748 84.838 101.412C87.0066 100.076 91.2068 106.999 88.5312 107.863Z" fill="#258F5B"/>
<path d="M82.4738 94.7893C82.0975 94.73 81.7516 94.5468 81.491 94.2688C81.2304 93.9908 81.0699 93.6339 81.0349 93.2545C80.9953 92.7997 81.1346 92.3474 81.4231 91.9937C81.7116 91.6399 82.1266 91.4126 82.58 91.3599C93.6976 90.4828 104.863 92.3021 115.127 96.6633C115.539 96.8573 115.86 97.2043 116.021 97.6309C116.183 98.0575 116.171 98.53 115.99 98.9484C115.836 99.2971 115.57 99.5845 115.234 99.7651C114.899 99.9457 114.512 100.009 114.137 99.9454C113.985 99.9308 113.837 99.884 113.705 99.8083C108.858 97.8034 103.802 96.3474 98.6307 95.4677C93.4456 94.6561 88.1861 94.4263 82.9501 94.7825C82.7995 94.8108 82.645 94.8108 82.4944 94.7825" fill="#31A16C"/>
<path d="M80.4013 78.009C77.6605 94.7962 62.9563 105.711 45.3571 102.844C27.758 99.9762 17.0039 83.7954 19.7275 67.0836C22.4683 50.2964 37.0526 40.5324 54.6518 43.3999C72.2509 46.2674 83.1215 61.2971 80.4013 78.0021" fill="#258F5B"/>
<path d="M45.1412 104.564C26.7198 101.559 14.6502 84.6485 17.6787 66.1003C18.9361 58.3782 22.5299 51.8792 28.1005 47.1993C33.582 42.5708 40.571 40.0664 48.3137 39.9637C48.7712 39.9605 49.2112 40.1392 49.5369 40.4604C49.8627 40.7817 50.0475 41.2192 50.0506 41.6766C50.0538 42.1341 49.8751 42.5742 49.5539 42.8999C49.2326 43.2256 48.7951 43.4104 48.3377 43.4136C34.0719 43.6226 23.359 52.7288 21.0807 66.7101C18.3673 83.3603 29.1557 98.5031 45.6791 101.196C52.3289 102.278 59.2733 101.538 64.611 99.0821C64.8177 98.9921 65.0401 98.9437 65.2656 98.9397C65.491 98.9357 65.715 98.9761 65.9248 99.0586C66.1346 99.1412 66.3261 99.2643 66.4883 99.4208C66.6506 99.5774 66.7804 99.7644 66.8704 99.9711C66.9604 100.178 67.0088 100.4 67.0128 100.626C67.0168 100.851 66.9764 101.075 66.8938 101.285C66.8113 101.495 66.6882 101.686 66.5316 101.848C66.3751 102.011 66.1881 102.141 65.9813 102.231C60.0236 104.899 52.4145 105.739 45.1344 104.553" fill="#1E6E43"/>
<path d="M75.0842 76.4193C74.2878 81.3152 72.0574 85.8649 68.6751 89.4932C65.2928 93.1214 60.9106 95.6651 56.0825 96.8026C51.2545 97.9401 46.1975 97.6203 41.5513 95.8837C36.905 94.147 32.8781 91.0715 29.9798 87.0461C27.0815 83.0207 25.442 78.2263 25.2687 73.2691C25.0954 68.3119 26.3961 63.4146 29.0062 59.1966C31.6163 54.9787 35.4187 51.6295 39.9323 49.5726C44.446 47.5158 49.4683 46.8436 54.3639 47.6412C60.9274 48.7105 66.7975 52.343 70.6831 57.7397C74.5688 63.1364 76.1518 69.8555 75.0842 76.4193Z" fill="white"/>
<path d="M66.8445 81.4726C66.4022 84.1899 65.1639 86.715 63.2864 88.7286C61.4089 90.7422 58.9764 92.1538 56.2966 92.7849C53.6169 93.4161 50.8101 93.2383 48.2313 92.2743C45.6525 91.3102 43.4175 89.603 41.809 87.3687C40.2005 85.1344 39.2906 82.4732 39.1945 79.7218C39.0984 76.9704 39.8204 74.2523 41.2691 71.9112C42.7179 69.5701 44.8283 67.7111 47.3335 66.5695C49.8388 65.4278 52.6263 65.0547 55.3436 65.4973C57.1482 65.7899 58.8775 66.4354 60.4325 67.3969C61.9875 68.3584 63.3377 69.617 64.4059 71.1007C65.4741 72.5844 66.2392 74.2642 66.6577 76.0439C67.0761 77.8236 67.1396 79.6683 66.8445 81.4726Z" fill="#CB932B"/>
<path d="M61.466 80.2564C61.1964 81.9086 60.4428 83.4439 59.3007 84.6679C58.1586 85.892 56.6792 86.7499 55.0496 87.1333C53.4199 87.5166 51.7132 87.4082 50.1452 86.8217C48.5772 86.2351 47.2182 85.1968 46.2402 83.8381C45.2622 82.4793 44.7091 80.8611 44.6507 79.188C44.5923 77.5149 45.0312 75.862 45.9121 74.4384C46.793 73.0147 48.0762 71.8842 49.5995 71.1898C51.1228 70.4953 52.8178 70.2681 54.4702 70.5369C55.5683 70.7146 56.6205 71.1072 57.5667 71.6921C58.5129 72.277 59.3344 73.0427 59.9842 73.9455C60.634 74.8484 61.0994 75.8705 61.3537 76.9534C61.6079 78.0363 61.6461 79.1587 61.466 80.2564Z" fill="#233339"/>
<path d="M56.2896 75.0352C56.5876 73.2023 58.4068 72.0032 60.3082 72.3116C62.2096 72.6199 63.5526 74.3363 63.2545 76.1726C62.9565 78.009 61.1339 79.2046 59.2359 78.9134C57.2728 78.5948 55.9915 76.8887 56.2896 75.0524" fill="white"/>
<path d="M57.7385 31.6214C59.4721 35.3454 76.6122 22.2823 73.313 19.795C69.9521 17.2975 55.4329 26.6298 57.7385 31.6214Z" fill="#258F5B"/>
<path d="M71.8091 21.0558C70.2606 20.9873 65.8171 22.7345 62.1513 26.0371C60.017 27.9625 59.1707 29.5796 59.2153 30.4909C60.1437 30.3812 62.5761 29.4117 66.194 26.7531C69.5343 24.2488 71.3192 22.0836 71.8091 21.0558ZM58.3382 33.9374C57.8701 33.8658 57.4256 33.684 57.0415 33.407C56.6573 33.1301 56.3444 32.7658 56.1285 32.3443C54.8849 29.6035 56.6321 26.0577 60.9009 22.594C64.5701 19.6169 71.1787 16.0847 74.2621 18.4006C74.728 18.7432 75.7867 19.819 75.2145 21.741C74.0154 25.9001 63.8472 33.6633 59.3146 33.9648C58.9914 33.9884 58.6665 33.9793 58.3451 33.9374" fill="#1E6E43"/>
<path d="M160.456 39.9602C161.168 43.9926 139.602 43.0264 140.972 39.0969C142.257 35.1639 159.586 34.6054 160.456 39.9602Z" fill="#258F5B"/>
<path d="M142.867 39.371C143.844 39.8712 146.571 40.6865 150.788 40.8476C155.273 41.0223 157.804 40.3748 158.64 39.9637C158.181 39.1688 156.585 38.3637 153.652 37.9937C148.732 37.3428 144.142 38.3877 142.867 39.371ZM161.206 42.3139C160.988 42.5212 160.751 42.7071 160.497 42.8689C156.523 45.1711 143.748 44.5442 140.431 41.8411C138.859 40.5838 139.109 39.1414 139.318 38.607C140.544 34.8967 147.982 34.1258 152.679 34.4479C158.161 34.8521 161.645 36.7947 162.138 39.7273C162.227 40.2033 162.186 40.6944 162.021 41.1493C161.855 41.6043 161.57 42.0064 161.196 42.3139" fill="#1E6E43"/>
<path d="M105.695 51.9751C105.171 51.8919 104.668 51.7057 104.216 51.4272C103.764 51.1487 103.371 50.7835 103.061 50.3525C102.751 49.9216 102.529 49.4335 102.408 48.9164C102.288 48.3993 102.271 47.8635 102.358 47.3397L109.21 5.3032C109.382 4.24556 109.968 3.29964 110.837 2.67353C111.707 2.04743 112.79 1.79241 113.847 1.9646C114.905 2.13678 115.851 2.72206 116.477 3.59167C117.103 4.46128 117.358 5.544 117.186 6.60164L110.334 48.6998C110.135 49.738 109.542 50.6589 108.679 51.2695C107.816 51.8801 106.751 52.1329 105.705 51.9751" fill="#FBCB48"/>
<path d="M113.619 3.35726C112.948 3.24941 112.261 3.41198 111.708 3.8094C111.156 4.20682 110.784 4.80674 110.673 5.47793L103.821 47.5761C103.73 48.2392 103.902 48.9116 104.3 49.4499C104.698 49.9882 105.29 50.3497 105.95 50.4574C106.611 50.5652 107.288 50.4105 107.836 50.0265C108.384 49.6424 108.76 49.0594 108.885 48.4018L115.737 6.36526C115.798 6.02848 115.791 5.68295 115.717 5.34875C115.644 5.01454 115.504 4.69832 115.307 4.41846C115.11 4.13859 114.86 3.90066 114.57 3.71848C114.28 3.53631 113.957 3.41352 113.619 3.35726ZM105.459 53.4311C104.752 53.3167 104.075 53.064 103.466 52.6875C102.857 52.3111 102.328 51.8182 101.909 51.2372C101.491 50.6562 101.191 49.9984 101.027 49.3014C100.863 48.6044 100.838 47.8819 100.954 47.1753L107.806 5.07709C107.921 4.37052 108.174 3.69355 108.551 3.08484C108.928 2.47612 109.421 1.94759 110.002 1.52941C110.583 1.11122 111.24 0.811587 111.937 0.647601C112.634 0.483615 113.357 0.458493 114.063 0.573668C114.77 0.688843 115.447 0.942061 116.055 1.31886C116.664 1.69567 117.193 2.18867 117.611 2.76974C118.029 3.3508 118.329 4.00854 118.493 4.70541C118.657 5.40227 118.682 6.12461 118.567 6.83119L111.715 48.9294C111.6 49.6362 111.347 50.3135 110.97 50.9224C110.593 51.5313 110.1 52.06 109.518 52.4781C108.937 52.8962 108.279 53.1956 107.582 53.3591C106.885 53.5227 106.162 53.5471 105.455 53.4311" fill="#CB932B"/>
<path d="M62.9563 270.5C59.5578 270.5 57.5673 268.77 56.5429 267.036C55.0234 267.44 53.4198 267.396 51.9247 266.91C50.1261 266.331 48.6529 264.727 47.8136 262.675C46.7241 259.79 47.1729 256.454 48.9681 253.425C50.8935 250.218 57.629 247.203 66.9305 243.229C71.3534 241.369 75.9099 239.461 77.1912 238.289C78.0237 237.518 78.4725 232.9 78.0888 228.539L81.5525 228.282C81.7443 230.656 82.1314 238.56 79.4969 240.92C77.8935 242.328 74.1729 243.935 68.3351 246.436C62.0519 249.064 53.4561 252.719 51.9796 255.224C50.6982 257.279 50.4413 259.585 51.082 261.445C51.4691 262.535 52.2365 263.367 53.0073 263.624C55.0629 264.33 56.4059 263.367 56.4059 263.367C56.6345 263.202 56.8986 263.093 57.1771 263.048C57.4555 263.004 57.7405 263.025 58.0092 263.11C58.2827 263.199 58.5277 263.358 58.7191 263.573C58.9106 263.787 59.0416 264.048 59.0987 264.33C59.2289 264.779 59.9997 267.153 63.3332 266.961C67.2456 266.769 83.5464 253.682 85.3964 247.269C87.0648 241.688 85.3347 230.464 85.3347 230.334L88.7333 229.824C88.7984 230.334 90.5285 241.945 88.6682 248.231C86.4242 255.734 69.1059 270.103 63.4634 270.36C63.3904 270.414 63.3074 270.453 63.2192 270.475C63.1309 270.496 63.0393 270.5 62.9495 270.486" fill="#1E6E43"/>
<path d="M57.5673 266.718C57.1205 266.713 56.6924 266.538 56.3707 266.227C56.0491 265.917 55.8582 265.496 55.8372 265.049C55.707 261.908 57.2487 258.444 59.7497 256.142C60.0813 255.827 60.5243 255.658 60.9811 255.67C61.4379 255.682 61.8712 255.875 62.1855 256.207C62.4999 256.539 62.6697 256.982 62.6575 257.438C62.6453 257.895 62.4521 258.328 62.1204 258.643C60.4075 260.246 59.2358 262.812 59.3009 264.929C59.3082 265.162 59.2688 265.394 59.1851 265.611C59.1013 265.828 58.9749 266.026 58.8133 266.193C58.6517 266.361 58.4582 266.494 58.2441 266.585C58.0301 266.676 57.8 266.724 57.5673 266.725" fill="#1E6E43"/>
<path d="M132.675 167.043C132.285 167.041 131.908 166.907 131.606 166.662C131.303 166.417 131.093 166.077 131.01 165.696C130.818 164.926 130.561 163.901 130.239 162.939C129.982 161.976 129.663 161.013 129.533 160.307C129.478 160.084 129.467 159.852 129.501 159.625C129.535 159.398 129.614 159.179 129.733 158.982C129.851 158.785 130.008 158.614 130.193 158.477C130.378 158.341 130.588 158.242 130.811 158.187C131.034 158.131 131.266 158.121 131.493 158.155C131.721 158.189 131.939 158.268 132.136 158.386C132.333 158.505 132.504 158.661 132.641 158.846C132.777 159.031 132.876 159.241 132.931 159.465C133.127 160.17 133.38 161.068 133.637 161.966C133.959 162.993 134.216 164.083 134.473 164.915C134.524 165.135 134.531 165.362 134.494 165.584C134.457 165.806 134.376 166.019 134.257 166.209C134.138 166.4 133.982 166.566 133.798 166.697C133.615 166.827 133.408 166.92 133.188 166.971C133.022 167.021 132.848 167.043 132.675 167.036" fill="#1E6E43"/>
<path d="M46.4536 164.768C48.7901 163.661 51.1506 162.336 59.7463 157.269C60.039 157.082 60.3835 156.994 60.7298 157.017C61.0761 157.039 61.4061 157.172 61.6717 157.395C61.9452 157.61 62.1468 157.903 62.2496 158.236C62.3524 158.568 62.3516 158.924 62.2473 159.256L59.9382 166.889C59.9382 166.889 57.8004 173.682 57.1974 177.879C57.1974 177.879 48.3447 186.006 47.2279 186.862L46.4536 164.768Z" fill="#1E6E43"/>
<path d="M125.723 90.4144C125.648 90.4836 125.598 90.5758 125.58 90.6766C125.562 90.7774 125.578 90.8813 125.625 90.9721C125.672 91.0629 125.748 91.1357 125.841 91.1792C125.933 91.2227 126.038 91.2344 126.138 91.2126C131.513 90.1095 149.801 87.4612 162.169 99.1163C163.209 100.097 164.538 100.716 165.958 100.881L166.153 100.901C166.341 100.921 166.53 100.895 166.706 100.826C166.882 100.757 167.038 100.647 167.163 100.505C167.287 100.363 167.376 100.193 167.421 100.01C167.467 99.827 167.468 99.6357 167.424 99.452C166.804 96.9579 164.824 92.0554 158.578 89.4277C158.578 89.4277 164.526 90.1129 168.082 92.1308C168.28 92.2423 168.507 92.2903 168.733 92.2682C168.959 92.2461 169.173 92.155 169.345 92.0072C169.518 91.8594 169.641 91.6621 169.697 91.4422C169.754 91.2222 169.741 90.9901 169.661 90.7775C168.329 87.3139 164.522 82.2743 153.727 80.5373C139.742 78.2693 129.091 87.1768 125.723 90.4144Z" fill="#1E6E43"/>
<path d="M142.131 117.425L147.681 118.922L147.8 119.329C146.362 120.47 144.988 121.704 143.47 122.731C136.985 127.13 129.684 129.46 122.051 131.005C111.423 133.168 100.508 133.538 89.7578 132.101C74.8275 130.121 61.1579 124.862 49.1602 115.695C48.0262 114.828 47.0018 113.824 45.5869 112.591L51.2774 111.402C51.0241 111.193 50.7523 111.007 50.4655 110.847C47.7247 109.785 43.7198 110.717 41.7053 112.868C40.9071 113.721 40.8728 113.937 41.4107 115.242L43.8842 113.529C49.6193 119.439 56.5843 123.437 63.8713 126.973C64.2862 127.202 64.5967 127.582 64.7381 128.035C67.6741 139.238 75.0159 146.398 85.8694 150.029C93.7491 152.664 101.67 152.428 109.166 148.591C115.48 145.363 119.913 140.269 122.822 133.893C122.946 133.565 123.156 133.275 123.43 133.056C123.704 132.836 124.033 132.695 124.381 132.646C130.061 131.365 135.614 129.652 140.651 126.716C143.854 124.849 146.817 122.557 150.017 120.357C152.073 121.728 152.467 124.345 153.227 127.017C154.358 125.842 154.437 124.619 154.224 123.437C153.625 119.991 151.274 118.01 148.092 116.983C146.824 116.572 145.406 116.537 144.052 116.5C143.405 116.482 142.744 116.859 142.093 117.058L142.131 117.425Z" fill="#233339"/>
<path d="M78.1606 146.484C78.1606 146.484 94.8314 139.587 113.945 145.531C113.945 145.531 106.833 151.612 97.0617 151.76C97.0617 151.76 88.1268 152.565 78.1606 146.484Z" fill="#CD5446"/>
<path d="M46.4534 164.768C46.4534 164.768 42.0785 167.529 37.9433 169.643C36.5455 170.359 35.4595 171.431 34.1953 171.716C34.1953 171.716 30.8071 166.347 26.3156 166.203C26.3156 166.203 21.2897 159.8 20.3716 150.242C20.3716 150.242 16.603 146.789 9.7511 150.814C9.7511 150.814 2.38871 156.155 8.18201 166.536C8.18201 166.536 0.624337 170.681 0.593504 176.128C0.593504 176.128 -0.540489 183.923 4.15308 187.842C4.15308 187.842 2.30306 195.163 7.04116 197.661C7.04116 197.661 17.7199 203.827 30.0808 195.55C30.0808 195.55 39.2966 193.152 47.2106 186.852L46.4534 164.768Z" fill="#1E6E43"/>
<path d="M35.2573 174.672C35.2573 174.672 36.1206 178.722 35.1134 180.76C35.1134 180.76 33.6779 172.319 28.5698 169.849C28.5698 169.849 33.6779 175.563 31.3825 182.367C31.3825 182.367 34.74 185.841 32.3863 191.641C32.3863 191.641 42.4073 187.393 47.231 183.258C47.231 183.258 54.6243 178.414 58.0673 175.892L65.4537 172.124L64.6144 162.356L62.1134 159.694C62.1134 159.694 36.268 172.826 35.2573 174.672Z" fill="#4CBC87"/>
<path d="M28.9191 184.279C28.9191 184.279 23.6671 186.992 12.985 186.389C12.985 186.389 24.2701 184.882 27.6276 183.33C27.6276 183.33 30.1833 182.196 28.3744 175.909C28.3744 175.909 26.7676 171.199 24.2393 168.242C24.2393 168.242 17.9184 159.334 17.5724 152.236C17.5724 152.236 10.3573 150.965 9.21644 157.813C9.21644 157.813 9.02459 163.713 11.8236 167.481C11.8236 167.481 14.7734 166.796 15.8388 167.718C15.8388 167.718 6.95531 168.643 5.10529 173.199C5.10529 173.199 0.260981 181.103 7.53772 186.937C7.53772 186.937 4.56741 193.55 10.4224 196.259C10.4224 196.259 17.0139 197.705 22.8689 195.958C22.8689 195.958 27.8742 195.077 29.0356 192.083C29.0288 192.093 31.8758 186.872 28.9191 184.279Z" fill="#4CBC87"/>
<path d="M58.852 165.631C58.4993 165.465 58.214 165.183 58.0433 164.832C57.8726 164.481 57.8268 164.083 57.9133 163.703C58.064 162.925 58.2559 161.887 58.3826 160.88C58.5574 159.9 58.6738 158.892 58.8588 158.197C58.9744 157.768 59.2488 157.399 59.6265 157.164C60.0042 156.93 60.4568 156.848 60.8927 156.935C61.3285 157.023 61.7148 157.272 61.9734 157.634C62.2319 157.995 62.3432 158.442 62.2848 158.882C62.158 159.602 62.0107 160.523 61.8634 161.448C61.7195 162.514 61.49 163.61 61.3701 164.473C61.3027 164.73 61.1791 164.969 61.0082 165.173C60.8373 165.376 60.6234 165.539 60.3818 165.65C60.1402 165.761 59.8771 165.817 59.6113 165.814C59.3456 165.81 59.0839 165.748 58.8451 165.631" fill="#1E6E43"/>
<path d="M57.1051 182.388C57.225 181.524 57.4476 180.428 57.595 179.363C57.7423 178.441 57.8896 177.519 58.0129 176.797C58.0588 176.572 58.0597 176.34 58.0156 176.114C57.9714 175.889 57.8831 175.674 57.7557 175.483C57.6283 175.292 57.4644 175.128 57.2733 175.001C57.0823 174.874 56.8679 174.785 56.6425 174.741C55.6627 174.566 55.1214 175.138 54.587 176.111C54.587 176.111 53.3365 178.191 47.2383 183.254L54.4773 180.171L54.9159 179.352L55.1625 182.929L57.1051 182.388Z" fill="#1E6E43"/>
<path d="M54.3879 176.392C54.3879 176.392 48.341 185.132 32.3863 191.641C32.3863 191.641 34.9113 186.543 31.3825 182.367C31.3825 182.367 33.9006 176.618 28.5698 169.849C28.5698 169.849 33.2154 171.531 35.0792 180.668C35.0792 180.668 48.8001 178.479 55.539 174.919C55.5561 174.919 55.0285 175.159 54.3879 176.392Z" fill="#31A16C"/>
<path d="M23.0952 195.927C23.0952 195.927 25.9251 190.103 23.0952 185.927C25.1 185.633 27.0579 185.079 28.9193 184.279C28.9193 184.279 31.2113 185.718 29.8135 190.165C29.8135 190.165 29.1283 192.611 28.1759 193.412C28.1828 193.412 26.4698 195.228 23.0952 195.927Z" fill="#31A16C"/>
<path d="M22.6054 184.758C22.6054 184.758 22.4375 177.965 17.3363 172.867L19.3918 172.37C19.3918 172.37 15.7843 162.891 17.5795 152.236C17.5795 152.236 17.672 157.57 22.6054 165.683L24.2464 168.242C24.2464 168.242 26.5213 170.568 28.3815 175.909C28.3815 175.909 30.0637 181.117 27.9225 183.131C27.9225 183.131 27.018 183.926 22.6054 184.758Z" fill="#31A16C"/>
<path d="M21.8276 172.655C21.8276 172.655 15.6917 172.569 11.8066 173.912C13.2486 172.903 14.9151 172.261 16.6613 172.042C18.4076 171.823 20.181 172.033 21.8276 172.655Z" fill="#1E6E43"/>
</g>
<defs>
<clipPath id="clip0_546_2842">
<rect width="183.032" height="270" fill="white" transform="translate(0.483887 0.5)"/>
</clipPath>
</defs>
</svg>
