<svg width="84" height="131" viewBox="0 0 84 131" fill="none" xmlns="http://www.w3.org/2000/svg">
<g clip-path="url(#clip0_289_15892)">
<path d="M54.5319 102.885C56.9596 102.263 59.535 102.623 61.6989 103.887C63.8319 105.146 65.0769 107.007 65.6859 109.407C66.1824 111.357 66.4149 113.774 67.3734 115.545C68.5854 117.786 71.4924 118.895 73.9314 118.163C76.3704 117.431 78.1599 115.013 78.2919 112.47C78.3699 110.985 77.8764 109.403 76.7109 108.477C75.5454 107.552 73.6629 107.51 72.6609 108.609C71.6589 109.709 72.5859 111.077 73.5384 112.22C74.0649 112.853 74.6709 113.805 72.6624 114.02C70.6539 114.234 67.5624 111.251 69.2274 107.78C70.8924 104.309 77.0454 102.348 80.6274 107.615C84.8169 113.777 81.0774 121.775 74.3529 122.978C67.5714 124.191 63.6714 120.278 62.3214 114.578C60.9714 108.878 59.0064 107.057 54.4629 107.273L54.5334 102.888" fill="#258E5A"/>
<path d="M72.1693 122.708C66.7483 122.708 63.7798 118.589 62.7823 114.386C61.7638 110.092 60.5323 107.486 57.4258 106.688C57.7646 106.27 58.082 105.834 58.3768 105.383C58.7187 104.86 59.0307 104.318 59.3113 103.759C60.0007 103.955 60.6624 104.238 61.2808 104.6C61.3858 104.662 61.4878 104.726 61.5898 104.792C61.1158 105.338 60.4213 106.261 60.7843 106.624C61.3153 107.155 63.3043 110.203 64.2343 114.047C65.0923 117.598 67.8718 121.148 72.6763 121.148C73.0894 121.148 73.5021 121.123 73.9123 121.073C77.9008 120.598 80.3248 117.334 81.4768 114.79C81.3558 115.587 81.1356 116.366 80.8213 117.109C79.6123 119.978 77.1718 121.999 74.2918 122.509C73.5915 122.637 72.8812 122.703 72.1693 122.705" fill="#1F7A4C"/>
<path d="M72.2416 124.356C66.8236 124.356 62.5996 120.786 61.1716 114.768C59.8711 109.278 58.5001 107.907 54.5041 108.097L54.4247 106.447C59.8382 106.189 61.4866 108.921 62.7841 114.397C63.9046 119.121 67.5136 123.735 74.2936 122.523C77.1736 122.007 79.6142 119.986 80.8232 117.123C81.4447 115.664 81.6899 114.073 81.5363 112.495C81.3827 110.917 80.8353 109.403 79.9441 108.091C78.5836 106.087 76.6756 105.069 74.5771 105.228C72.5956 105.378 70.7477 106.549 69.9767 108.148C69.644 108.821 69.4994 109.572 69.558 110.32C69.6166 111.068 69.8763 111.787 70.3096 112.399C70.8646 113.188 71.6596 113.695 72.2326 113.638C72.7441 113.584 73.0246 113.439 73.0741 113.316C73.1236 113.193 73.0456 112.936 72.9061 112.768C72.2341 111.963 70.4521 109.822 72.0526 108.067C73.2946 106.705 75.6661 106.603 77.2306 107.847C78.5147 108.867 79.2226 110.617 79.1236 112.531C78.9736 115.449 76.8901 118.159 74.1736 118.981C71.3236 119.836 68.0237 118.51 66.6482 115.965C65.9372 114.649 65.6671 113.14 65.4061 111.681C65.2861 111.007 65.1721 110.371 65.0191 109.768C64.4461 107.484 63.1531 105.708 61.2826 104.599C59.3103 103.442 56.9597 103.114 54.7456 103.686L54.3271 102.082C56.9691 101.401 59.7735 101.793 62.1271 103.173C64.3876 104.508 65.9446 106.638 66.6271 109.335C66.7951 109.996 66.9271 110.692 67.0396 111.364C67.2766 112.693 67.5226 114.064 68.1076 115.152C69.1066 117 71.6147 117.994 73.6982 117.369C75.7817 116.743 77.3536 114.669 77.4706 112.419C77.5411 111.069 77.0552 109.795 76.2017 109.119C75.3257 108.423 73.9321 108.442 73.2781 109.159C72.9526 109.516 72.8371 110.068 74.1781 111.682C74.5921 112.18 74.9537 113.064 74.6072 113.914C74.3897 114.447 73.8316 115.114 72.4021 115.264C71.2021 115.387 69.8776 114.646 68.9521 113.329C68.348 112.477 67.9855 111.477 67.9028 110.435C67.8202 109.394 68.0205 108.349 68.4826 107.412C69.5011 105.295 71.8996 103.746 74.4526 103.557C77.1691 103.354 79.6051 104.628 81.3136 107.142C82.3604 108.682 83.0037 110.46 83.1846 112.313C83.3654 114.166 83.078 116.035 82.3486 117.748C80.9221 121.137 78.0196 123.528 74.5846 124.141C73.811 124.282 73.0265 124.354 72.2401 124.356" fill="#1B6D42"/>
<path d="M45.1967 111.827C45.1967 111.827 45.2822 116.128 46.4117 116.945C48.2702 118.295 58.3982 120.278 60.0152 122.446C61.6322 124.613 60.9422 127.009 59.6042 127.609C58.2662 128.209 57.2747 127.609 57.2747 127.609C57.2747 127.609 57.0107 129.616 54.6932 129.733C52.3757 129.85 43.9982 124.174 42.7607 121.153C41.6552 118.453 41.9342 112.966 41.9342 112.966L45.1967 111.821" fill="#48BD86"/>
<path d="M54.6706 128.936H54.6511C52.8376 129.029 44.6776 123.725 43.5031 120.854C42.6511 118.775 42.6826 114.77 42.7186 113.448C43.3126 113.348 43.8921 113.239 44.4571 113.12C44.5306 114.02 44.6806 115.139 44.9911 116.063C44.4226 116.552 43.3051 117.852 44.3341 119.913C45.6706 122.588 52.5046 127.299 53.9071 127.377C53.9836 127.382 54.0602 127.382 54.1366 127.377C55.7866 127.284 56.0056 125.127 56.0056 125.127C56.6378 125.336 57.3005 125.438 57.9661 125.427C58.3368 125.424 58.6996 125.32 59.0161 125.127C59.5516 124.76 59.7211 124.094 59.7661 123.555C60.135 124.237 60.2417 125.03 60.0661 125.784C59.9296 126.314 59.6326 126.726 59.2741 126.888C59.0328 127 58.7729 127.065 58.5076 127.082C58.2267 127.104 57.9449 127.052 57.6901 126.932C57.5509 126.849 57.39 126.809 57.2281 126.818C57.124 126.824 57.022 126.85 56.9281 126.896C56.8075 126.954 56.7032 127.04 56.6246 127.149C56.5461 127.257 56.4957 127.383 56.4781 127.515C56.4706 127.571 56.2846 128.849 54.6781 128.942" fill="#33A16C"/>
<path d="M54.7637 130.54H54.7337C52.0997 130.674 43.3982 124.84 42.0167 121.462C40.8572 118.629 41.1167 113.161 41.1317 112.93L42.7367 113.011C42.7367 113.065 42.4802 118.351 43.5047 120.853C44.6792 123.724 52.8392 129.028 54.6527 128.935H54.6722C56.2847 128.842 56.4722 127.564 56.4722 127.509C56.4896 127.376 56.5398 127.25 56.618 127.142C56.6963 127.034 56.8003 126.947 56.9205 126.889C57.0408 126.831 57.1735 126.804 57.3069 126.811C57.4402 126.817 57.5699 126.856 57.6842 126.925C57.6992 126.934 58.3577 127.288 59.2682 126.879C59.6267 126.717 59.9237 126.304 60.0602 125.775C60.2942 124.875 60.0407 123.832 59.3642 122.925C58.5587 121.845 54.4142 120.565 51.3752 119.625C48.5357 118.749 46.7537 118.183 45.9347 117.592C44.5847 116.616 44.4092 112.942 44.3867 111.837L45.9947 111.805C46.0352 113.848 46.4567 115.986 46.8767 116.289C47.5217 116.755 49.7267 117.433 51.8477 118.089C56.3477 119.476 59.6132 120.565 60.6527 121.957C61.6217 123.258 61.9727 124.794 61.6157 126.172C61.3532 127.185 60.7382 127.972 59.9282 128.338C59.2569 128.646 58.5083 128.744 57.7802 128.62C57.3602 129.487 56.4482 130.437 54.7577 130.533" fill="#1B6D42"/>
<path d="M57.2476 128.519C57.0359 128.531 56.828 128.459 56.6692 128.319C56.5104 128.178 56.4136 127.981 56.4001 127.769C56.3356 126.781 55.6936 125.669 54.8026 124.991C54.639 124.86 54.5328 124.671 54.5067 124.463C54.4807 124.255 54.5367 124.045 54.663 123.878C54.7893 123.711 54.9758 123.6 55.1828 123.568C55.3899 123.536 55.6011 123.587 55.7716 123.709C57.0316 124.661 57.9076 126.214 58.0036 127.664C58.0105 127.769 57.9966 127.875 57.9627 127.975C57.9287 128.075 57.8754 128.168 57.8058 128.247C57.7361 128.326 57.6515 128.391 57.5568 128.438C57.462 128.485 57.359 128.512 57.2536 128.519" fill="#1B6D42"/>
<path d="M28.9298 112.124C28.9298 112.124 28.2248 117.17 27.0263 117.885C25.0568 119.06 14.7923 120.147 12.9908 122.163C11.1893 124.179 11.6648 126.629 12.9443 127.346C14.2238 128.063 15.2648 127.554 15.2648 127.554C15.2648 127.554 15.3503 129.576 17.6483 129.897C19.9463 130.218 28.7933 125.303 30.2918 122.397C31.6313 119.808 32.3303 113.046 32.3303 113.046L28.9298 112.124Z" fill="#48BD86"/>
<path d="M16.3262 129.408C16.0961 129.297 15.8951 129.134 15.7389 128.932C15.5827 128.729 15.4757 128.494 15.4262 128.243C15.6005 128.714 15.9145 129.121 16.3262 129.408ZM21.8582 128.63C25.2287 127.034 29.3177 124.292 30.2942 122.403C31.3232 120.413 31.9742 115.961 32.2202 114.003C32.2637 114.228 32.3072 114.396 32.3582 114.405L31.2662 120.108C31.2362 120.266 31.2827 120.537 31.2527 120.695C30.9437 122.304 28.1327 125.195 26.7782 126.122C26.0447 126.62 23.9762 127.758 21.8582 128.624M12.4292 126.906C12.3917 126.87 12.3557 126.833 12.3182 126.792C12.1052 126.556 11.9701 126.259 11.9312 125.943C12.0273 126.296 12.197 126.624 12.4292 126.906Z" fill="#7CBB9C"/>
<path d="M17.9311 129.726C17.6766 129.744 17.4208 129.731 17.1692 129.689C16.8775 129.637 16.595 129.542 16.3306 129.408C15.919 129.12 15.605 128.714 15.4306 128.243C15.3663 127.898 15.3843 127.543 15.4831 127.206C15.083 127.406 14.647 127.525 14.2006 127.554C13.8771 127.58 13.5517 127.536 13.2466 127.425C12.9415 127.315 12.6638 127.14 12.4321 126.912C12.2 126.63 12.0303 126.302 11.9341 125.949C11.7256 124.449 13.2497 122.46 13.2497 122.46C13.2497 122.46 12.8312 124.146 13.7567 124.908C14.2502 125.313 15.0346 125.373 15.6751 125.337C16.0362 125.317 16.3949 125.267 16.7476 125.187C16.7476 125.187 16.7866 127.55 18.6391 127.61C18.6641 127.611 18.6892 127.611 18.7141 127.61C20.2831 127.521 27.2926 123.525 28.8331 121.02C30.3991 118.47 28.2496 116.885 28.2496 116.885C28.3786 115.953 28.8601 113.646 29.1811 112.424C30.1306 112.785 31.1065 113.073 32.1001 113.285C32.1391 113.514 32.1781 113.783 32.2186 113.999C31.9726 115.958 31.3186 120.41 30.2926 122.399C29.3161 124.287 25.2271 127.029 21.8567 128.625C20.4392 129.204 19.0066 129.66 17.9251 129.722" fill="#33A16C"/>
<path d="M18.004 130.707C17.8484 130.717 17.6922 130.713 17.5375 130.694C15.8425 130.457 15.01 129.423 14.665 128.517C13.9292 128.576 13.1926 128.412 12.5515 128.046C11.776 127.613 11.233 126.771 11.0605 125.741C10.8265 124.335 11.3125 122.837 12.3925 121.628C13.5505 120.332 16.8925 119.528 21.5035 118.55C23.68 118.083 25.9315 117.602 26.614 117.2C27.0835 116.877 27.835 114.363 28.2175 111.819L29.8075 112.058C29.5525 113.745 28.8145 117.758 27.4375 118.58C26.5705 119.096 24.745 119.504 21.8395 120.125C18.7375 120.789 14.4895 121.698 13.5895 122.703C12.8395 123.546 12.49 124.559 12.6445 125.48C12.7345 126.02 12.9925 126.458 13.336 126.65C14.206 127.137 14.8945 126.843 14.923 126.83C15.0417 126.771 15.1731 126.743 15.3054 126.748C15.4377 126.753 15.5666 126.791 15.6805 126.858C15.7945 126.927 15.8894 127.024 15.9567 127.139C16.024 127.255 16.0616 127.385 16.066 127.518C16.081 127.737 16.234 128.888 17.758 129.101C19.558 129.354 28.1515 124.788 29.5765 122.033C30.8365 119.595 31.7095 112.997 31.717 112.931L33.3115 113.138C33.274 113.421 32.392 120.084 31.0045 122.771C29.419 125.838 21.097 130.529 18.0025 130.706" fill="#1B6D42"/>
<path d="M15.3816 128.465C15.2622 128.471 15.1428 128.451 15.0322 128.405C14.9216 128.359 14.8225 128.29 14.7421 128.201C14.6618 128.113 14.6021 128.007 14.5674 127.893C14.5327 127.778 14.5239 127.658 14.5416 127.539C14.7636 126.102 15.7746 124.632 17.1141 123.789C17.2947 123.685 17.5085 123.655 17.7106 123.706C17.9128 123.757 18.0874 123.884 18.1976 124.06C18.3079 124.237 18.3452 124.45 18.3018 124.654C18.2583 124.857 18.1374 125.036 17.9646 125.153C17.0196 125.744 16.2816 126.803 16.1286 127.779C16.1006 127.961 16.0108 128.128 15.8742 128.252C15.7377 128.376 15.5627 128.449 15.3786 128.459" fill="#1B6D42"/>
<path d="M22.3647 75.727L37.2072 75.082L52.0272 74.032C52.0272 74.032 55.4382 75.514 56.6547 79C56.9397 79.819 59.6937 80.0035 59.9757 80.9395C63.2877 91.9435 60.6267 111.514 39.3702 113.02C8.57219 114.352 22.3647 75.724 22.3647 75.724" fill="#48BD86"/>
<path d="M40.1399 83.6581C33.4878 83.6724 27.0652 81.2272 22.1069 76.7926L21.9014 75.7171C27.7304 78.1816 34.2659 79.9891 40.5014 79.9891C46.1189 79.9891 50.3894 79.1176 55.7609 77.0236L56.6609 78.3916C53.5169 81.1081 48.7049 83.6581 40.1399 83.6581Z" fill="#2D8D5D"/>
<path d="M39.3361 112.218C32.0101 112.536 26.7061 110.543 23.5726 106.296C20.9941 102.801 20.1226 98.1526 20.1016 93.5461C21.3016 96.7921 24.1516 102.546 29.5126 104.046C32.0821 104.772 36.1846 105.23 40.2511 104.997C40.5931 104.977 40.9351 104.953 41.2771 104.924L48.4456 110.174C45.8526 111.274 42.8161 111.949 39.3361 112.2M49.8256 109.524L43.2256 104.687C44.1973 104.543 45.1591 104.34 46.1056 104.078L52.0141 108.188C51.3167 108.685 50.5849 109.131 49.8241 109.524" fill="#33A16C"/>
<path d="M22.9525 76.5053C21.916 79.6928 16.744 97.0418 23.5735 106.297C26.707 110.543 32.011 112.537 39.337 112.219C46.9615 111.679 52.5055 109.058 55.7935 104.428C60.7015 97.5173 59.017 88.6088 58.0645 85.1048C57.97 84.7538 57.9325 84.1898 57.8845 83.3048C57.856 82.7843 57.8125 81.9983 57.7525 81.8048C56.5525 77.8703 52.744 75.3998 51.841 74.8598L37.2655 75.8888L22.9525 76.5113M39.4285 113.824C31.5115 114.166 25.75 111.953 22.279 107.248C14.2705 96.3908 21.3055 76.3058 21.61 75.4478C21.6632 75.2971 21.7604 75.1659 21.8891 75.0713C22.0177 74.9766 22.1719 74.9227 22.3315 74.9168L37.174 74.2718L51.9715 73.2218C52.1238 73.2079 52.2766 73.2409 52.4095 73.3163C52.627 73.4333 57.745 76.2398 59.29 81.3188C59.3995 81.6758 59.44 82.2683 59.4895 83.2028C59.5032 83.6948 59.5453 84.1856 59.6155 84.6728C60.628 88.4003 62.4086 97.8728 57.1031 105.347C53.524 110.387 47.578 113.234 39.4285 113.812" fill="#1B6D42"/>
<path d="M20.4812 78.1836L20.4482 78.1101L20.4947 78.1401L20.4812 78.1836Z" fill="#1B6D42"/>
<path d="M43.4224 84.218L61.6159 81.29C61.8025 81.2602 61.9935 81.2726 62.1747 81.3261C62.356 81.3796 62.5229 81.473 62.6634 81.5994C62.8039 81.7258 62.9144 81.882 62.9867 82.0566C63.059 82.2312 63.0914 82.4198 63.0814 82.6085L61.7314 107.509C61.7153 107.806 61.5951 108.088 61.3919 108.305C61.1887 108.523 60.9154 108.662 60.6199 108.698L42.3664 110.915C42.1823 110.937 41.9954 110.919 41.8192 110.861C41.6429 110.803 41.4815 110.707 41.3463 110.58C41.2111 110.453 41.1055 110.298 41.0368 110.126C40.9681 109.954 40.9381 109.768 40.9489 109.583L42.3589 85.3955C42.3757 85.1075 42.4903 84.8339 42.6836 84.6198C42.877 84.4057 43.1376 84.2639 43.4224 84.218Z" fill="#FEFFE1"/>
<path opacity="0.1" d="M41.1103 106.819C41.1103 106.819 48.1723 112.654 62.4388 94.473L61.7323 107.584C61.7323 107.584 61.6828 108.672 60.2653 108.739L42.3673 110.914C42.3673 110.914 41.1433 111.085 40.9468 109.729L41.1103 106.819Z" fill="#543406"/>
<path d="M62.9206 85.6195L62.5186 93.025C62.0088 94.0807 61.305 95.0312 60.4441 95.827C57.3586 97.8715 50.7871 99.613 50.5441 102.604C50.2441 106.132 64.7296 105.57 67.5901 100.654C67.5901 100.654 69.5492 97.003 68.4587 94.2835C67.3682 91.564 64.7506 86.236 64.7506 86.236L63.1741 84.7675L62.9822 84.6175L62.9281 85.6195" fill="#48BD86"/>
<path d="M20.4135 79.6709L19.932 81.8354L19.491 83.6579L25.167 100.36L25.8615 103.222C25.8615 103.222 20.8875 103.798 20.805 103.69C20.7225 103.582 12.3015 98.5544 12.3015 98.5544L9.00146 95.6459L10.2255 89.9685L18.963 79.104L20.4045 78.9375L20.4135 79.6709Z" fill="#48BD86"/>
<path d="M54.9553 99.7336C54.9553 99.7336 50.7823 105.858 67.4548 99.9945C67.4548 99.9945 65.9113 104.892 56.4238 104.675C56.4238 104.675 50.2858 105.425 50.3338 102.806C50.3818 100.187 54.9553 99.7336 54.9553 99.7336Z" fill="#33A16C"/>
<path d="M58.2811 79.484C57.5311 78.6005 57.0316 78.0755 57.0091 78.05C56.9283 77.9691 56.8645 77.8729 56.8213 77.767C56.7782 77.6611 56.7566 77.5477 56.7579 77.4333C56.7591 77.319 56.7831 77.2061 56.8286 77.1011C56.874 76.9962 56.9399 76.9014 57.0224 76.8223C57.105 76.7431 57.2024 76.6813 57.3092 76.6403C57.4159 76.5993 57.5298 76.58 57.644 76.5836C57.7583 76.5871 57.8707 76.6135 57.9747 76.661C58.0787 76.7085 58.1721 76.7764 58.2496 76.8605C58.2496 76.8605 60.3751 79.3505 61.7941 81.269L60.0466 81.5495L58.2811 79.484Z" fill="#1B6D42"/>
<path d="M63.0734 82.8082C63.0209 83.8192 62.9744 84.5752 62.9234 85.6192C65.7869 89.6902 68.9084 95.2777 67.6889 99.4432C66.7304 102.716 59.2079 104.429 54.6059 103.988C52.4744 103.784 51.4559 103.181 51.4109 102.707C51.2924 101.438 54.4589 99.9517 56.5544 98.9677C56.5544 98.9677 61.0769 96.9127 62.4044 95.1127L62.5154 93.0862L58.8524 95.8222C58.2734 96.2137 56.8544 96.9622 55.8344 97.4407C52.8644 98.8342 49.4984 100.415 49.7279 102.865C49.7819 103.435 50.0984 104.275 51.3554 104.902C52.0544 105.25 53.0444 105.533 54.4409 105.668C59.7944 106.181 68.0384 104.242 69.3044 99.9172C70.9319 94.3597 66.4199 87.1537 63.0734 82.8082Z" fill="#1B6D42"/>
<path d="M24.4326 100.017C24.4326 100.017 26.8536 108.491 10.2246 95.6461C10.2246 95.6461 10.1376 101.753 20.9301 105.047C20.9301 105.047 27.5811 108.182 28.5051 105.21C29.4291 102.239 24.4326 100.017 24.4326 100.017Z" fill="#33A16C"/>
<path d="M21.569 75.7253C21.2495 76.8863 21.119 78.1823 20.795 79.3823C16.0415 82.9103 10.346 89.7803 10.169 94.9373C10.0295 98.9873 17.882 103.733 23.2445 104.953C25.7255 105.517 27.101 105.217 27.3275 104.698C27.9365 103.309 24.9155 100.45 22.916 98.5568C22.916 98.5568 18.5765 94.5488 17.747 92.0198L18.3815 89.6903L21.494 94.1468C22.0025 94.8053 23.3255 96.1793 24.2975 97.1003C27.131 99.7823 30.3425 102.823 29.168 105.5C28.895 106.123 28.223 106.952 26.57 107.192C25.6505 107.324 24.428 107.276 22.8005 106.906C16.565 105.488 7.98199 100.222 8.16499 94.8653C8.40049 87.9863 16.169 79.3823 21.569 75.7253Z" fill="#1B6D42"/>
<path d="M76.6841 99.389L76.6866 99.3903L76.6841 99.389Z" fill="#1B6D42"/>
<path d="M76.7849 32.658C73.2659 22.608 53.1374 20.166 53.1374 20.166C53.1374 20.166 46.3094 6.318 41.0309 4.926V4.8105C40.8928 4.8121 40.755 4.82262 40.6184 4.842C40.4812 4.82268 40.3429 4.81216 40.2044 4.8105V4.926C34.9199 6.318 28.0904 20.1585 28.0904 20.1585C28.0904 20.1585 7.95437 22.5945 4.43087 32.658C0.907367 42.7215 6.10037 51.3465 6.10037 51.3465C6.10037 51.3465 5.39837 63.0975 11.3309 67.962C17.1809 72.762 29.5169 79.446 40.3694 79.635V79.644H40.6049H40.8389V79.635C51.6914 79.446 64.0229 72.759 69.8774 67.962C75.8159 63.0975 75.1094 51.339 75.1094 51.339C75.1094 51.339 80.3054 42.708 76.7849 32.658Z" fill="#48BD86"/>
<path d="M35.1363 39.8425C34.9165 39.8425 34.7058 39.7553 34.5502 39.6001C34.3947 39.4448 34.3071 39.2342 34.3068 39.0145C34.3068 27.3595 28.7838 22.7365 27.7188 21.9535C27.872 21.9503 28.0213 21.9045 28.1501 21.8214C28.2788 21.7382 28.3819 21.6209 28.4477 21.4825C28.5692 21.229 28.6937 20.9695 28.8242 20.707C30.4247 21.907 35.9643 26.9245 35.9643 39.0145C35.9643 39.2341 35.877 39.4447 35.7217 39.6C35.5665 39.7552 35.3559 39.8425 35.1363 39.8425Z" fill="#33A16C"/>
<path d="M45.9935 39.8419C45.7739 39.8419 45.5633 39.7547 45.408 39.5994C45.2528 39.4441 45.1655 39.2335 45.1655 39.0139C45.1655 26.7484 50.8655 21.7639 52.373 20.6554C52.511 20.9359 52.646 21.2119 52.775 21.4819C52.8348 21.6074 52.9252 21.7158 53.0379 21.7971C53.1507 21.8784 53.2821 21.9299 53.42 21.9469C52.37 22.7119 46.82 27.3289 46.82 39.0139C46.8196 39.2337 46.7321 39.4443 46.5765 39.5995C46.421 39.7547 46.2103 39.8419 45.9905 39.8419" fill="#33A16C"/>
<path d="M38.6786 23.1067L35.4551 9.80316C36.4106 8.57316 37.3616 7.52016 38.2601 6.75816L38.6786 23.1082" fill="#33A16C"/>
<path d="M42.1187 23.106L42.5462 6.423C43.4642 7.1175 44.4467 8.15101 45.4412 9.39L42.1187 23.106Z" fill="#33A16C"/>
<path d="M40.6122 5.47823C40.5827 5.47972 40.5532 5.47972 40.5237 5.47823C40.4577 5.47823 40.3902 5.46623 40.3242 5.46623C40.21 5.47598 40.0949 5.4619 39.9864 5.42487C39.8779 5.38784 39.7782 5.32867 39.6937 5.25111C39.6093 5.17355 39.5419 5.07929 39.4957 4.97431C39.4496 4.86932 39.4258 4.7559 39.4258 4.64123C39.4258 4.52656 39.4496 4.41314 39.4957 4.30816C39.5419 4.20318 39.6093 4.10892 39.6937 4.03136C39.7782 3.9538 39.8779 3.89463 39.9864 3.8576C40.0949 3.82057 40.21 3.80648 40.3242 3.81623H40.8987C41.013 3.80648 41.128 3.82057 41.2365 3.8576C41.345 3.89463 41.4447 3.9538 41.5292 4.03136C41.6136 4.10892 41.6811 4.20318 41.7272 4.30816C41.7733 4.41314 41.7971 4.52656 41.7971 4.64123C41.7971 4.7559 41.7733 4.86932 41.7272 4.97431C41.6811 5.07929 41.6136 5.17355 41.5292 5.25111C41.4447 5.32867 41.345 5.38784 41.2365 5.42487C41.128 5.4619 41.013 5.47598 40.8987 5.46623C40.8327 5.46623 40.7667 5.46623 40.6992 5.47823C40.6692 5.47823 40.6407 5.47823 40.6122 5.47823Z" fill="#1B6D42"/>
<path d="M26.8171 21.9309C23.3941 21.9309 9.73057 22.5999 5.59957 32.5299C1.62757 42.0744 6.64957 49.4019 6.70507 49.4799C6.81299 49.6335 6.86585 49.819 6.85507 50.0064C6.84607 50.1399 6.11857 63.3069 11.6551 67.8459C16.9981 72.2139 29.5786 79.1589 40.6126 79.1589C51.6466 79.1589 64.2271 72.2199 69.5626 67.8459C75.1126 63.3024 74.3746 50.1459 74.3626 50.0064C74.3523 49.8191 74.4051 49.6337 74.5126 49.4799C74.5621 49.4079 79.5736 42.0444 75.6181 32.5299C70.9126 21.2019 53.7931 21.9264 53.6326 21.9474C53.4602 21.9688 53.2854 21.9354 53.133 21.8519C52.9807 21.7685 52.8584 21.6392 52.7836 21.4824C49.8256 15.3024 44.1706 5.99944 40.6201 5.48494C37.0681 5.99944 31.4131 15.3024 28.4566 21.4824C28.3813 21.6392 28.2587 21.7684 28.1061 21.8518C27.9536 21.9352 27.7787 21.9687 27.6061 21.9474C27.5851 21.9474 27.3061 21.9309 26.8246 21.9309M40.6126 80.8089C29.0626 80.8089 16.3426 73.8204 10.6126 69.1224C4.82857 64.3824 5.10157 52.2384 5.19157 50.1804C4.27357 48.7374 0.126064 41.3814 4.07406 31.8924C6.13506 26.9424 10.7386 23.3559 17.3851 21.5334C20.5831 20.6638 23.8855 20.2378 27.1996 20.2674C28.9531 16.6839 35.3326 4.36744 40.5301 3.82594C40.5874 3.81994 40.6452 3.81994 40.7026 3.82594C45.9001 4.37344 52.2811 16.6839 54.0331 20.2674C57.3471 20.2387 60.6493 20.6646 63.8476 21.5334C70.4941 23.3559 75.0976 26.9334 77.1586 31.8924C81.1066 41.3814 76.9591 48.7374 76.0426 50.1804C76.1326 52.2384 76.4041 64.3824 70.6201 69.1224C64.8826 73.8204 52.1581 80.8089 40.6126 80.8089Z" fill="#1B6D42"/>
<path d="M44.4084 52.8186C45.2019 53.2146 47.5809 50.8371 46.6584 50.0436C45.7359 49.2501 43.2294 52.2276 44.4084 52.8186Z" fill="#258E5A"/>
<path d="M36.8147 52.8186C36.0212 53.2146 33.6437 50.8371 34.5647 50.0436C35.4857 49.2501 37.9937 52.2276 36.8147 52.8186Z" fill="#258E5A"/>
<path d="M32.9173 47.1105C32.7164 47.1095 32.5228 47.0357 32.3723 46.9028C32.2217 46.7699 32.1245 46.5868 32.0987 46.3877C32.0729 46.1885 32.1202 45.9868 32.2318 45.8198C32.3434 45.6529 32.5118 45.5322 32.7058 45.48C37.899 44.204 43.324 44.204 48.5173 45.48C48.7112 45.5322 48.8796 45.6529 48.9912 45.8198C49.1029 45.9868 49.1502 46.1885 49.1244 46.3877C49.0985 46.5868 49.0013 46.7699 48.8508 46.9028C48.7002 47.0357 48.5066 47.1095 48.3058 47.1105C48.2338 47.1106 48.1622 47.101 48.0928 47.082C43.1784 45.878 38.0461 45.878 33.1318 47.082C33.0618 47.1009 32.9897 47.1105 32.9173 47.1105Z" fill="#33A16C"/>
<path d="M30.6527 39.3219C30.6527 47.4684 24.5357 53.7954 15.9707 53.7954C7.40566 53.7954 1.05615 46.9734 1.05615 38.8284C1.05615 30.6834 7.20615 24.8964 15.7712 24.8964C24.3362 24.8964 30.6527 31.1769 30.6527 39.3219Z" fill="#258E5A"/>
<path d="M15.9725 54.6224C7.01452 54.6224 -0.000976562 47.5484 -0.000976562 38.5184C-0.000976562 34.7684 1.19902 31.3949 3.46552 28.7429C5.70352 26.1269 8.82353 24.4019 12.4865 23.7524C12.5937 23.7335 12.7035 23.7359 12.8098 23.7594C12.916 23.7829 13.0166 23.8272 13.1057 23.8896C13.1948 23.952 13.2708 24.0313 13.3293 24.1231C13.3878 24.2149 13.4276 24.3172 13.4465 24.4244C13.4654 24.5316 13.4631 24.6414 13.4395 24.7476C13.416 24.8539 13.3717 24.9544 13.3093 25.0436C13.2469 25.1327 13.1676 25.2087 13.0758 25.2672C12.9841 25.3257 12.8817 25.3655 12.7745 25.3844C6.02452 26.5844 1.65502 31.7369 1.65502 38.5184C1.65502 46.6184 7.94452 52.9649 15.9725 52.9649C19.211 52.9649 22.4225 52.0649 24.791 50.4944C24.8816 50.4342 24.9832 50.3925 25.09 50.3716C25.1967 50.3506 25.3065 50.3509 25.4131 50.3725C25.5198 50.394 25.6211 50.4363 25.7114 50.497C25.8017 50.5577 25.8791 50.6355 25.9393 50.7261C25.9995 50.8168 26.0412 50.9183 26.0621 51.0251C26.083 51.1318 26.0827 51.2416 26.0612 51.3483C26.0397 51.4549 25.9974 51.5562 25.9367 51.6465C25.876 51.7368 25.7981 51.8142 25.7075 51.8744C23.0765 53.6204 19.529 54.6224 15.9725 54.6224Z" fill="#1B6D42"/>
<path d="M28.6967 39.1959C28.6967 41.5791 27.99 43.9088 26.666 45.8903C25.3419 47.8718 23.4601 49.4162 21.2583 50.3282C19.0565 51.2402 16.6338 51.4788 14.2964 51.0139C11.959 50.549 9.81203 49.4014 8.12688 47.7162C6.44173 46.0311 5.29412 43.8841 4.82919 41.5467C4.36426 39.2093 4.60288 36.7866 5.51487 34.5848C6.42687 32.383 7.97129 30.5012 9.95282 29.1771C11.9343 27.8531 14.264 27.1464 16.6472 27.1464C18.2296 27.1462 19.7965 27.4578 21.2585 28.0633C22.7205 28.6687 24.0489 29.5563 25.1679 30.6752C26.2868 31.7942 27.1744 33.1226 27.7798 34.5846C28.3853 36.0466 28.6969 37.6135 28.6967 39.1959Z" fill="white"/>
<path d="M26.2438 42.3592C26.2441 43.6824 25.852 44.976 25.117 46.0763C24.3821 47.1767 23.3374 48.0344 22.115 48.541C20.8926 49.0476 19.5474 49.1803 18.2495 48.9223C16.9517 48.6643 15.7595 48.0273 14.8238 47.0917C13.888 46.1562 13.2507 44.9641 12.9924 43.6664C12.7342 42.3686 12.8666 41.0234 13.3729 39.8008C13.8792 38.5783 14.7367 37.5334 15.8369 36.7982C16.9371 36.0631 18.2306 35.6707 19.5538 35.6707C21.3278 35.6707 23.0292 36.3753 24.2838 37.6296C25.5384 38.8839 26.2434 40.5851 26.2438 42.3592Z" fill="#CC9211"/>
<path d="M24.7915 43.158C24.7915 43.9635 24.5526 44.7508 24.1051 45.4206C23.6577 46.0903 23.0216 46.6123 22.2775 46.9205C21.5333 47.2287 20.7145 47.3094 19.9245 47.1522C19.1345 46.9951 18.4088 46.6072 17.8393 46.0377C17.2697 45.4681 16.8819 44.7425 16.7247 43.9525C16.5676 43.1625 16.6482 42.3437 16.9565 41.5995C17.2647 40.8554 17.7867 40.2193 18.4564 39.7718C19.1261 39.3243 19.9135 39.0855 20.719 39.0855C21.2538 39.0853 21.7835 39.1905 22.2777 39.3951C22.7719 39.5997 23.2209 39.8997 23.5991 40.2779C23.9773 40.6561 24.2773 41.1051 24.4819 41.5993C24.6865 42.0935 24.7917 42.6231 24.7915 43.158Z" fill="#233338"/>
<path d="M19.3325 39.2461C19.3325 38.3671 20.0825 37.6546 21.023 37.6546C21.9635 37.6546 22.712 38.3671 22.712 39.2461C22.712 40.1251 21.962 40.8361 21.023 40.8361C20.084 40.8361 19.3325 40.1251 19.3325 39.2461Z" fill="white"/>
<path d="M50.6382 39.3219C50.6382 47.4684 56.7537 53.7954 65.3187 53.7954C73.8837 53.7954 80.2332 46.9734 80.2332 38.8284C80.2332 30.6834 74.0832 24.8964 65.5182 24.8964C56.9532 24.8964 50.6382 31.1769 50.6382 39.3219Z" fill="#258E5A"/>
<path d="M65.316 54.6225C61.761 54.6225 58.212 53.6205 55.581 51.8745C55.398 51.753 55.2708 51.5637 55.2273 51.3484C55.1839 51.1331 55.2277 50.9093 55.3493 50.7263C55.4708 50.5433 55.66 50.4161 55.8754 50.3726C56.0907 50.3291 56.3145 50.373 56.4975 50.4945C58.8645 52.065 62.0775 52.965 65.316 52.965C73.3455 52.965 79.6335 46.62 79.6335 38.5185C79.6335 31.737 75.2685 26.5815 68.514 25.3845C68.4068 25.3655 68.3045 25.3256 68.2127 25.267C68.121 25.2085 68.0417 25.1324 67.9794 25.0432C67.9171 24.954 67.8729 24.8533 67.8495 24.7471C67.826 24.6408 67.8237 24.5309 67.8427 24.4238C67.8618 24.3166 67.9017 24.2143 67.9603 24.1225C68.0188 24.0308 68.0949 23.9515 68.1841 23.8892C68.2733 23.8268 68.3739 23.7827 68.4802 23.7593C68.5865 23.7358 68.6963 23.7335 68.8035 23.7525C72.465 24.402 75.585 26.127 77.823 28.743C80.091 31.395 81.291 34.7745 81.291 38.5185C81.291 47.5485 74.274 54.6225 65.316 54.6225Z" fill="#1B6D42"/>
<path d="M52.5928 39.1959C52.5928 41.5791 53.2995 43.9088 54.6235 45.8903C55.9475 47.8718 57.8294 49.4162 60.0311 50.3282C62.2329 51.2402 64.6556 51.4788 66.993 51.0139C69.3304 50.549 71.4774 49.4014 73.1626 47.7162C74.8477 46.0311 75.9953 43.8841 76.4602 41.5467C76.9252 39.2093 76.6866 36.7866 75.7746 34.5848C74.8626 32.383 73.3181 30.5012 71.3366 29.1771C69.3551 27.8531 67.0254 27.1464 64.6423 27.1464C61.4465 27.1464 58.3817 28.4159 56.122 30.6757C53.8623 32.9354 52.5928 36.0002 52.5928 39.1959Z" fill="white"/>
<path d="M55.2109 42.3185C55.2109 43.6416 55.6033 44.9351 56.3384 46.0352C57.0735 47.1354 58.1183 47.9929 59.3408 48.4992C60.5632 49.0056 61.9084 49.1381 63.2061 48.8799C64.5038 48.6218 65.6959 47.9846 66.6315 47.049C67.5671 46.1134 68.2043 44.9214 68.4624 43.6236C68.7205 42.3259 68.588 40.9807 68.0817 39.7583C67.5753 38.5359 66.7179 37.491 65.6177 36.7559C64.5175 36.0208 63.2241 35.6285 61.9009 35.6285C61.0223 35.6283 60.1523 35.8012 59.3406 36.1373C58.5288 36.4734 57.7912 36.9662 57.1699 37.5875C56.5487 38.2087 56.0559 38.9463 55.7198 39.7581C55.3836 40.5698 55.2107 41.4399 55.2109 42.3185Z" fill="#CC9211"/>
<path d="M56.6426 43.0385C56.6426 43.8439 56.8814 44.6313 57.3289 45.301C57.7764 45.9708 58.4124 46.4927 59.1566 46.801C59.9008 47.1092 60.7196 47.1899 61.5096 47.0327C62.2996 46.8756 63.0252 46.4877 63.5948 45.9182C64.1643 45.3486 64.5522 44.623 64.7093 43.833C64.8665 43.043 64.7858 42.2241 64.4776 41.48C64.1693 40.7358 63.6474 40.0998 62.9776 39.6523C62.3079 39.2048 61.5205 38.966 60.7151 38.966C59.6351 38.9664 58.5995 39.3956 57.8358 40.1592C57.0722 40.9229 56.643 41.9585 56.6426 43.0385Z" fill="#233338"/>
<path d="M64.6432 39.1942C64.6432 38.3167 63.8932 37.6042 62.9527 37.6042C62.0122 37.6042 61.2622 38.3167 61.2622 39.1942C61.2622 40.0717 62.0122 40.7857 62.9527 40.7857C63.8932 40.7857 64.6432 40.0732 64.6432 39.1942Z" fill="white"/>
<path d="M16.3144 19.0687C17.4109 20.6902 24.5359 13.1977 22.7764 12.2707C21.0169 11.3437 14.8489 16.9087 16.3144 19.0687Z" fill="#258E5A"/>
<path d="M22.191 12.9891C21.456 13.0701 19.491 14.2386 17.991 16.1136C17.121 17.2041 16.8405 18.0276 16.9305 18.4431C17.3625 18.3156 18.4455 17.6826 19.9305 16.1361C21.354 14.6586 22.0335 13.4991 22.191 12.9891ZM16.788 20.1261C16.5596 20.1317 16.3336 20.0797 16.1306 19.9748C15.9277 19.87 15.7545 19.7156 15.627 19.5261C14.823 18.3366 15.3765 16.5261 17.1465 14.5476C18.66 12.8586 21.513 10.6611 23.163 11.5311C23.415 11.6646 23.9865 12.0756 23.8665 13.0311C23.6085 15.0801 19.413 19.5501 17.2665 20.0631C17.111 20.102 16.9513 20.1221 16.791 20.1231" fill="#1B6D42"/>
<path d="M64.3982 18.9693C63.3482 20.6193 56.0057 13.3458 57.7352 12.3693C59.4647 11.3928 65.7977 16.7628 64.3982 18.9693Z" fill="#258E5A"/>
<path d="M58.3417 13.068C58.5157 13.575 59.2297 14.718 60.6862 16.1445C62.2207 17.6445 63.3217 18.2445 63.7582 18.363C63.8347 17.943 63.5302 17.13 62.6287 16.065C61.0792 14.238 59.0857 13.1295 58.3417 13.068ZM63.9022 20.04C63.7595 20.0395 63.6173 20.0244 63.4777 19.995C61.3147 19.545 56.9872 15.195 56.6677 13.1625C56.5177 12.213 57.0787 11.7855 57.3262 11.6445C58.9507 10.7265 61.8667 12.8445 63.4297 14.481C65.2582 16.401 65.8657 18.1995 65.0962 19.4115C64.9684 19.6119 64.7904 19.7753 64.5799 19.8855C64.3693 19.9958 64.1336 20.049 63.8962 20.04" fill="#1B6D42"/>
<path d="M62.6797 63.3899C55.9207 63.3899 46.0822 60.9014 40.5112 60.9014C34.9402 60.9014 24.7882 63.3899 17.8897 63.3899C15.9397 63.3899 14.2402 63.1889 12.9862 62.6759C8.24166 60.7259 8.84916 55.1894 11.4577 55.1894C11.5703 55.19 11.6827 55.2001 11.7937 55.2194C14.0272 55.6049 12.4897 57.8039 12.7882 58.8974C12.7882 58.8974 13.8502 60.2789 14.9752 60.6869C15.5002 60.8789 16.3702 61.0244 17.8057 61.0244C19.3567 61.0244 21.5677 60.8534 24.7192 60.3899C30.2287 59.5769 35.7172 59.1059 38.8837 58.8764V58.6994C38.8837 58.6994 39.3817 58.7249 40.2517 58.7819C41.1232 58.7249 41.6212 58.6994 41.6212 58.6994V58.8764C44.7877 59.1059 50.2762 59.5769 55.7857 60.3899C58.9357 60.8534 61.1482 61.0244 62.6992 61.0244C64.1347 61.0244 65.0047 60.8744 65.5297 60.6869C66.6547 60.2789 67.7167 58.8974 67.7167 58.8974C68.0167 57.8039 66.4777 55.6049 68.7112 55.2194C68.8221 55.2001 68.9345 55.19 69.0472 55.1894C71.6542 55.1894 72.2617 60.7394 67.5187 62.6759C66.2647 63.1904 64.5952 63.3899 62.6797 63.3899Z" fill="#33A16C"/>
<path d="M18.4142 61.8007C17.9642 61.8007 17.5532 61.7872 17.1617 61.7572C14.6672 61.5742 12.7217 60.7252 11.8247 59.4307C11.5564 59.0525 11.3792 58.6175 11.3068 58.1595C11.2345 57.7016 11.269 57.2331 11.4077 56.7907C11.4383 56.6863 11.4891 56.5889 11.5572 56.5041C11.6254 56.4194 11.7096 56.3488 11.805 56.2966C11.9004 56.2444 12.0052 56.2115 12.1133 56.1997C12.2214 56.188 12.3308 56.1976 12.4352 56.2282C12.5396 56.2587 12.637 56.3095 12.7218 56.3777C12.8065 56.4458 12.877 56.53 12.9293 56.6254C12.9815 56.7208 13.0144 56.8256 13.0262 56.9337C13.0379 57.0419 13.0283 57.1513 12.9977 57.2557C12.9297 57.461 12.9114 57.6796 12.9443 57.8934C12.9771 58.1072 13.0602 58.3102 13.1867 58.4857C13.7867 59.3557 15.3197 59.9602 17.2832 60.1057C19.8917 60.2977 23.9267 59.7337 28.2002 59.1367C32.3222 58.5607 36.5852 57.9652 40.1087 57.9652C40.223 57.9554 40.338 57.9695 40.4465 58.0065C40.5551 58.0436 40.6547 58.1027 40.7392 58.1803C40.8236 58.2579 40.8911 58.3521 40.9372 58.4571C40.9833 58.5621 41.0071 58.6755 41.0071 58.7902C41.0071 58.9048 40.9833 59.0183 40.9372 59.1232C40.8911 59.2282 40.8236 59.3225 40.7392 59.4C40.6547 59.4776 40.5551 59.5368 40.4465 59.5738C40.338 59.6108 40.223 59.6249 40.1087 59.6152C36.7007 59.6152 32.4947 60.2032 28.4282 60.7717C24.6782 61.2952 21.1112 61.7947 18.4142 61.7947" fill="#1B6D42"/>
<path d="M62.2316 61.8005C59.5316 61.8005 55.9646 61.301 52.2176 60.7775C48.1511 60.209 43.9451 59.621 40.5371 59.621C40.4228 59.6308 40.3078 59.6167 40.1993 59.5797C40.0908 59.5426 39.9911 59.4835 39.9066 59.4059C39.8222 59.3283 39.7547 59.2341 39.7086 59.1291C39.6625 59.0241 39.6387 58.9107 39.6387 58.796C39.6387 58.6814 39.6625 58.5679 39.7086 58.463C39.7547 58.358 39.8222 58.2637 39.9066 58.1862C39.9911 58.1086 40.0908 58.0494 40.1993 58.0124C40.3078 57.9754 40.4228 57.9613 40.5371 57.971C44.0606 57.971 48.3236 58.571 52.4456 59.1425C56.7191 59.7425 60.7556 60.3035 63.3626 60.1115C65.3261 59.9615 66.8576 59.3615 67.4591 58.4915C67.5856 58.3161 67.6687 58.1131 67.7016 57.8993C67.7344 57.6855 67.7161 57.4669 67.6481 57.2615C67.5864 57.0507 67.611 56.824 67.7165 56.6313C67.822 56.4386 67.9997 56.2957 68.2106 56.234C68.4214 56.1724 68.6481 56.197 68.8408 56.3025C69.0335 56.408 69.1764 56.5857 69.2381 56.7965C69.3768 57.2389 69.4113 57.7074 69.339 58.1654C69.2666 58.6234 69.0894 59.0584 68.8211 59.4365C67.9211 60.731 65.9711 61.58 63.4856 61.763C63.0926 61.793 62.6741 61.8065 62.2316 61.8065" fill="#1B6D42"/>
<path d="M40.612 25.0381C40.0995 25.0381 39.6079 24.8346 39.2453 24.4723C38.8828 24.1101 38.6789 23.6187 38.6785 23.1061V2.62362C38.6713 2.36528 38.716 2.10812 38.8098 1.86733C38.9037 1.62655 39.045 1.40703 39.2251 1.22176C39.4053 1.03648 39.6208 0.889213 39.8589 0.788651C40.097 0.688089 40.3528 0.636276 40.6112 0.636276C40.8697 0.636276 41.1255 0.688089 41.3636 0.788651C41.6016 0.889213 41.8172 1.03648 41.9973 1.22176C42.1775 1.40703 42.3187 1.62655 42.4126 1.86733C42.5065 2.10812 42.5512 2.36528 42.544 2.62362V23.1061C42.544 23.6185 42.3404 24.1099 41.9781 24.4723C41.6158 24.8346 41.1244 25.0381 40.612 25.0381Z" fill="#FBCA47"/>
<path d="M40.6113 1.38178C40.2818 1.38178 39.9657 1.51259 39.7326 1.74546C39.4994 1.97834 39.3682 2.29424 39.3678 2.62378V23.1063C39.379 23.4284 39.5149 23.7336 39.7467 23.9575C39.9785 24.1814 40.2883 24.3066 40.6106 24.3066C40.9329 24.3066 41.2426 24.1814 41.4745 23.9575C41.7063 23.7336 41.8421 23.4284 41.8533 23.1063V2.62378C41.8529 2.2945 41.722 1.97883 41.4891 1.74599C41.2563 1.51316 40.9406 1.38218 40.6113 1.38178ZM40.6113 25.7298C39.9156 25.729 39.2486 25.4524 38.7566 24.9606C38.2645 24.4688 37.9875 23.802 37.9863 23.1063V2.62378C37.9863 1.92759 38.2629 1.25991 38.7552 0.767624C39.2475 0.275341 39.9151 -0.0012207 40.6113 -0.0012207C41.3075 -0.0012207 41.9752 0.275341 42.4675 0.767624C42.9598 1.25991 43.2363 1.92759 43.2363 2.62378V23.1063C43.2355 23.8018 42.9589 24.4687 42.467 24.9605C41.9752 25.4523 41.3084 25.729 40.6128 25.7298" fill="#CC9211"/>
<path d="M35.9055 93.5304L38.079 100.412C38.0923 100.455 38.0966 100.5 38.0916 100.544C38.0866 100.589 38.0724 100.632 38.05 100.67C38.0276 100.709 37.9974 100.743 37.9613 100.769C37.9252 100.795 37.8841 100.814 37.8405 100.823L30.6015 102.397C30.5208 102.414 30.4366 102.4 30.366 102.358L11.6325 91.0689C11.5944 91.0461 11.5616 91.0157 11.5359 90.9795C11.5102 90.9434 11.4923 90.9023 11.4833 90.8589C11.4743 90.8155 11.4743 90.7707 11.4835 90.7273C11.4926 90.684 11.5107 90.6429 11.5365 90.6069L17.3325 82.4889C17.3795 82.4225 17.4499 82.3765 17.5295 82.3601C17.6091 82.3437 17.692 82.3581 17.7615 82.4004L35.769 93.3504C35.8345 93.3922 35.8829 93.456 35.9055 93.5304Z" fill="#FF7606"/>
<path d="M33.3391 98.3378L33.5071 95.2208L35.8696 93.4148L37.5901 98.8643L36.7876 101.051L30.4771 102.424L30.7186 99.8018L33.3391 98.3378Z" fill="#FFE1C0"/>
<path d="M37.4005 98.5224C37.4005 98.5224 35.53 99.4134 35.6125 101.308L38.1805 100.748L37.471 98.4984L37.4005 98.5224Z" fill="#1D1E1C"/>
<path d="M21.1703 84.8585C20.2703 86.099 16.4783 91.3445 15.5363 93.0545C15.5168 93.0904 15.4903 93.122 15.4582 93.1473C15.4261 93.1726 15.3892 93.1911 15.3498 93.2016C15.3103 93.2121 15.2691 93.2145 15.2287 93.2085C15.1883 93.2026 15.1495 93.1885 15.1148 93.167L11.6168 91.058C11.5807 91.0367 11.5495 91.0082 11.5252 90.9741C11.5009 90.9401 11.4839 90.9014 11.4755 90.8604C11.467 90.8195 11.4672 90.7772 11.476 90.7363C11.4848 90.6954 11.5021 90.6568 11.5268 90.623L17.3393 82.475C17.3831 82.4121 17.4493 82.3684 17.5243 82.3527C17.5993 82.3371 17.6775 82.3508 17.7428 82.391L21.0818 84.422C21.1179 84.4434 21.1491 84.4721 21.1735 84.5063C21.1978 84.5405 21.2147 84.5794 21.223 84.6206C21.2314 84.6617 21.231 84.7042 21.2219 84.7451C21.2128 84.7861 21.1952 84.8247 21.1703 84.8585Z" fill="#EFEFEF"/>
<path d="M17.2817 94.4737C17.2817 94.4737 20.1617 89.1622 23.3597 85.8082L21.1337 84.4582C21.1337 84.4582 15.3047 91.6582 15.2192 93.2347L17.2817 94.4737Z" fill="#CBC6C2"/>
<path d="M20.7265 93.0833L27.844 97.4588C28.153 97.6493 28.4365 97.1588 28.1275 96.9728L21.0115 92.5943C20.701 92.4038 20.419 92.8943 20.7265 93.0803V93.0833Z" fill="#FF4208"/>
<path d="M22.9678 89.6586L30.0823 94.0311C30.3913 94.2216 30.6823 93.7311 30.3658 93.5451L23.2483 89.1666C22.9393 88.9761 22.6573 89.4666 22.9648 89.6526L22.9678 89.6586Z" fill="#FF4208"/>
<path opacity="0.2" d="M37.1686 97.5093C37.1686 97.5093 31.4551 103.502 11.9101 90.0843L11.5021 90.6543C11.4719 90.7151 11.4622 90.784 11.4743 90.8508C11.4865 90.9175 11.5199 90.9786 11.5696 91.0248L30.4381 102.425L38.1496 100.758L37.1686 97.5093Z" fill="#4D4A4E"/>
</g>
<defs>
<clipPath id="clip0_289_15892">
<rect width="83.238" height="130.712" fill="white"/>
</clipPath>
</defs>
</svg>
