<svg width="20" height="20" viewBox="0 0 20 20" fill="none" xmlns="http://www.w3.org/2000/svg">
<path d="M9.99992 0.833252C8.18693 0.833252 6.41465 1.37087 4.9072 2.37811C3.39974 3.38536 2.22483 4.817 1.53103 6.49199C0.837224 8.16698 0.655693 10.0101 1.00939 11.7882C1.36309 13.5664 2.23613 15.1998 3.51811 16.4817C4.80009 17.7637 6.43344 18.6368 8.21159 18.9904C9.98975 19.3441 11.8329 19.1626 13.5079 18.4688C15.1828 17.775 16.6145 16.6001 17.6217 15.0926C18.629 13.5852 19.1666 11.8129 19.1666 9.99992C19.1637 7.56965 18.197 5.23974 16.4786 3.52127C14.7601 1.80281 12.4302 0.836119 9.99992 0.833252ZM13.0891 13.0891C12.9328 13.2453 12.7209 13.3331 12.4999 13.3331C12.279 13.3331 12.067 13.2453 11.9108 13.0891L9.41076 10.5891C9.25447 10.4328 9.16664 10.2209 9.16659 9.99992V4.99992C9.16659 4.77891 9.25439 4.56694 9.41067 4.41066C9.56695 4.25438 9.77891 4.16659 9.99992 4.16659C10.2209 4.16659 10.4329 4.25438 10.5892 4.41066C10.7455 4.56694 10.8333 4.77891 10.8333 4.99992V9.65492L13.0891 11.9108C13.2453 12.067 13.3331 12.2789 13.3331 12.4999C13.3331 12.7209 13.2453 12.9328 13.0891 13.0891Z" fill="#ABF683"/>
</svg>
