<svg width="20" height="20" viewBox="0 0 20 20" fill="none" xmlns="http://www.w3.org/2000/svg">
<g clip-path="url(#clip0_1020_30038)">
<path d="M10 19.2843C15.5228 19.2843 20 14.9674 20 9.64216C20 4.31694 15.5228 0 10 0C4.47715 0 0 4.31694 0 9.64216C0 14.9674 4.47715 19.2843 10 19.2843Z" fill="#FEEB99"/>
<path d="M10 19.9845C15.5228 19.9845 20 15.6676 20 10.3424C20 5.01714 15.5228 0.700195 10 0.700195C4.47715 0.700195 0 5.01714 0 10.3424C0 15.6676 4.47715 19.9845 10 19.9845Z" fill="#E67F04"/>
<path d="M18.7068 4.98573C18.7147 4.98727 18.7287 4.98704 18.7299 4.99062C18.7904 5.17465 18.9083 5.33305 18.9855 5.50968C19.0152 5.57769 19.0591 5.64004 19.0948 5.70583C19.102 5.71898 19.1052 5.73655 19.1032 5.75116C19.0995 5.77673 19.1213 5.79221 19.1258 5.809C19.1399 5.86076 19.1972 5.89616 19.1849 5.95704C19.1826 5.9685 19.1953 5.98272 19.201 5.99566C19.2088 6.01288 19.2165 6.03006 19.2241 6.04733C19.2281 6.05625 19.2292 6.07091 19.2357 6.07345C19.2829 6.09191 19.2698 6.12608 19.2567 6.16796C19.211 6.2001 19.1719 6.22332 19.1282 6.2432C19.0436 6.0733 18.9698 5.90361 18.8817 5.74093C18.7586 5.51365 18.6249 5.29157 18.4953 5.06754C18.4906 5.05945 18.4804 5.05428 18.4674 5.04317C18.4418 5.06556 18.4175 5.08541 18.3949 5.10687C18.0256 5.45804 17.6565 5.80947 17.2871 6.1606C17.266 6.18059 17.2429 6.1986 17.2204 6.21109C17.1889 6.13174 17.2096 6.06838 17.2608 6.01151C17.278 5.99241 17.2992 5.9766 17.3164 5.95749C17.3306 5.94173 17.3415 5.92332 17.3599 5.89771C17.3317 5.89394 17.3183 5.88892 17.3064 5.89112C17.2629 5.8991 17.2272 5.91913 17.1952 5.94997C17.0978 6.04352 17.0126 6.03108 16.9402 5.91605C16.9291 5.89839 16.9188 5.88019 16.9065 5.86338C16.8584 5.79824 16.8019 5.73754 16.7626 5.66797C16.642 5.45431 16.4742 5.27791 16.2941 5.11045C16.2244 5.04563 16.1472 4.98774 16.0811 4.91982C16.0101 4.84668 15.94 4.7719 15.9008 4.67517C15.8864 4.6394 15.8498 4.61173 15.8149 4.5705C15.7873 4.60104 15.7675 4.62297 15.7435 4.64388C15.7339 4.64041 15.7286 4.63797 15.7209 4.63095C15.5862 4.49726 15.4538 4.36815 15.3218 4.23344C15.3397 4.20279 15.3535 4.17435 15.3751 4.15329C15.4833 4.04797 15.5933 3.94425 15.7034 3.84061C16.0197 3.54258 16.3364 3.24485 16.6582 2.948C16.7712 3.04336 16.881 3.13573 16.9859 3.23277C17.0599 3.30106 17.1272 3.37579 17.1976 3.44747C17.2847 3.53615 17.3727 3.62417 17.4592 3.71342C17.5033 3.75892 17.5475 3.80466 17.5874 3.85343C17.7305 4.02826 17.8738 4.20296 18.0129 4.38066C18.0971 4.48809 18.1744 4.60033 18.2529 4.71161C18.3149 4.79936 18.3736 4.88916 18.4344 4.97762C18.4667 5.02453 18.4903 5.02843 18.5311 4.99012C18.5637 4.95946 18.592 4.92462 18.6278 4.89197C18.6372 4.89204 18.641 4.89178 18.6447 4.89151C18.6527 4.89612 18.6608 4.90072 18.6716 4.91468C18.6797 4.9472 18.6622 4.98121 18.7068 4.98573Z" fill="#FCE996"/>
<path d="M14.7645 1.23906C14.7697 1.23968 14.7742 1.24147 14.7819 1.25287C14.8079 1.26759 14.8302 1.27384 14.8526 1.28008C14.8526 1.28008 14.8504 1.28192 14.852 1.28611C14.9173 1.33966 14.9862 1.38036 15.0645 1.4052C15.0645 1.4052 15.063 1.40638 15.065 1.41076C15.0923 1.42337 15.1176 1.43158 15.1428 1.43979C15.1428 1.43979 15.1428 1.43937 15.1424 1.44488C15.1811 1.47258 15.2201 1.49475 15.2591 1.51693C15.3105 1.52395 15.3519 1.54143 15.3815 1.58796C15.3919 1.60439 15.4326 1.60337 15.4656 1.61188C15.4874 1.64046 15.496 1.69572 15.5648 1.68176C15.5746 1.67978 15.5926 1.70294 15.6029 1.71696C15.6219 1.74259 15.6367 1.76628 15.6793 1.76093C15.6948 1.759 15.7143 1.78724 15.7264 1.8068C15.7007 1.8117 15.6751 1.80373 15.6614 1.8126C15.5766 1.8679 15.5054 1.93742 15.4334 2.01814C15.4549 2.03528 15.4721 2.05042 15.4908 2.06344C15.6935 2.20433 15.8982 2.34261 16.0978 2.48728C16.1426 2.51979 16.2052 2.54039 16.2206 2.6073C16.2042 2.62784 16.1902 2.64374 16.1748 2.65839C15.76 3.05522 15.3452 3.45203 14.9295 3.84808C14.9176 3.85947 14.8968 3.86246 14.8754 3.86656C14.6411 3.69012 14.4055 3.52464 14.1549 3.37915C14.1273 3.36316 14.1027 3.34268 14.0782 3.31882C14.1025 3.2881 14.1237 3.26136 14.1484 3.238C14.1772 3.2107 14.2107 3.18783 14.2395 3.1605C14.6156 2.8034 14.9913 2.44589 15.367 2.08832C15.3857 2.07053 15.4028 2.05119 15.4271 2.02579C15.3872 2.0012 15.3548 1.97921 15.3204 1.96043C15.0518 1.81327 14.7872 1.65825 14.5123 1.52238C14.2375 1.38655 13.9522 1.27007 13.6736 1.14028C13.7679 1.04971 13.86 0.963981 13.9573 0.880371C14.0013 0.898722 14.0429 0.910709 14.0781 0.93218C14.1297 0.963599 14.1837 0.976412 14.2434 0.972872C14.2434 0.972872 14.2434 0.972405 14.2441 0.978037C14.2486 0.990266 14.2509 1.00006 14.257 1.00296C14.3209 1.034 14.3845 1.06608 14.4504 1.09338C14.4885 1.10923 14.5305 1.11692 14.5707 1.1283C14.5707 1.1283 14.5706 1.12803 14.5712 1.13353C14.6267 1.18883 14.6888 1.22579 14.7645 1.23906Z" fill="#FCE996"/>
<path d="M19.7546 7.81759C19.7604 7.87243 19.7653 7.92782 19.772 7.98297C19.7787 8.03844 19.7872 8.09375 19.789 8.15497C19.7628 8.14493 19.7426 8.12914 19.722 8.1072C19.7207 8.08021 19.7199 8.05952 19.7195 8.03369C19.7112 8.02016 19.7023 8.01168 19.6926 7.99752C19.691 7.98056 19.6904 7.9692 19.6932 7.95536C19.6901 7.94369 19.6834 7.93459 19.6759 7.91918C19.6251 7.69578 19.5746 7.47886 19.502 7.259C19.4747 7.28365 19.4566 7.2991 19.4394 7.31542C18.972 7.76011 18.5047 8.20499 18.0369 8.64941C18.0083 8.67648 17.9754 8.69942 17.9428 8.71763C17.9357 8.69102 17.9293 8.67126 17.9249 8.65104C17.8922 8.49756 17.8642 8.34299 17.8263 8.1906C17.7895 8.04318 17.7435 7.89771 17.6996 7.75195C17.6917 7.72559 17.6743 7.70178 17.6594 7.67262C17.6539 7.65988 17.6505 7.65133 17.6527 7.64365C17.702 7.64881 17.7191 7.61354 17.7428 7.59101C18.179 7.17725 18.6142 6.76263 19.0502 6.34872C19.0728 6.3273 19.1002 6.31056 19.131 6.29419C19.1441 6.3073 19.1542 6.31696 19.1587 6.32858C19.2325 6.51648 19.3066 6.70426 19.3783 6.8929C19.4168 6.99438 19.4519 7.0971 19.486 7.20001C19.5002 7.24266 19.5252 7.25052 19.5636 7.23493C19.5732 7.20965 19.5821 7.18629 19.591 7.16293C19.6181 7.16496 19.6392 7.17152 19.6347 7.20462C19.6316 7.2277 19.631 7.25115 19.6305 7.27445C19.6303 7.28695 19.6293 7.30895 19.6343 7.3106C19.6994 7.33175 19.6648 7.38289 19.6729 7.42066C19.686 7.48205 19.699 7.54347 19.7115 7.60497C19.7151 7.62276 19.7168 7.64091 19.72 7.6718C19.7321 7.7293 19.7437 7.77389 19.7553 7.81844C19.7553 7.81844 19.7545 7.81806 19.7546 7.81759Z" fill="#FDEA97"/>
<path d="M19.6896 7.95792C19.6903 7.96928 19.691 7.98064 19.6918 8.00249C19.701 8.02163 19.71 8.03027 19.719 8.03882C19.7199 8.05952 19.7207 8.08029 19.7217 8.11381C19.7379 8.21035 19.754 8.29413 19.7658 8.38211C19.7616 8.40887 19.7594 8.43174 19.7625 8.45391C19.7696 8.50448 19.78 8.55465 19.7876 8.60522C19.7988 8.6785 19.8089 8.75193 19.8192 8.82537C19.8306 8.90642 19.8473 8.98725 19.8509 9.06862C19.8536 9.12992 19.8684 9.18398 19.9024 9.23454C19.9029 9.24575 19.9033 9.25687 19.8986 9.27818C19.8912 9.32859 19.8873 9.36904 19.8878 9.40942C19.888 9.41797 19.9035 9.42638 19.912 9.43486C19.9091 9.49141 19.9055 9.54789 19.9034 9.60436C19.8967 9.7853 19.8944 9.96656 19.8831 10.1473C19.8749 10.2784 19.8554 10.409 19.8403 10.5397C19.8291 10.6371 19.8192 10.7347 19.8047 10.8317C19.7843 10.9696 19.764 11.1077 19.7367 11.2444C19.7033 11.4117 19.6683 11.579 19.6242 11.7439C19.5064 12.1855 19.3692 12.6215 19.1835 13.0421C19.0888 13.2566 18.9935 13.4712 18.8865 13.6803C18.7854 13.8779 18.6742 14.0714 18.5573 14.2611C18.4365 14.4572 18.3103 14.6512 18.1737 14.8377C18.0092 15.0622 17.8374 15.2826 17.6573 15.4961C17.5163 15.6632 17.3587 15.8177 17.2068 15.9764C17.1226 16.0643 17.0383 16.1527 16.9482 16.2352C16.6506 16.5081 16.3468 16.7747 16.0118 17.0065C15.8161 17.1419 15.6229 17.2809 15.4218 17.4086C15.1345 17.5912 14.8347 17.7545 14.5279 17.9064C14.0294 18.1532 13.5117 18.3545 12.9769 18.5166C12.586 18.6351 12.1878 18.7271 11.7849 18.8006C11.7248 18.8114 11.6648 18.8423 11.6065 18.8387C11.5092 18.8328 11.4196 18.8637 11.3208 18.8738C11.2109 18.8879 11.1059 18.8986 11.0008 18.9084C10.9334 18.9146 10.8658 18.9199 10.7982 18.9245C10.7062 18.9309 10.6142 18.9396 10.5221 18.9417C10.2368 18.948 9.95135 18.9578 9.66615 18.9543C9.48503 18.952 9.30417 18.9287 9.12322 18.9145C9.0475 18.9087 8.97146 18.9053 8.8964 18.8955C8.65224 18.8637 8.40736 18.835 8.1648 18.7942C7.96229 18.7603 7.76263 18.7109 7.55774 18.6582C7.5735 18.6212 7.58959 18.591 7.61348 18.5682C8.05065 18.1505 8.48888 17.734 8.92624 17.3165C8.95249 17.2914 8.97318 17.2611 9.00196 17.2321C9.01847 17.2279 9.02935 17.2249 9.04693 17.2243C9.09386 17.2317 9.13409 17.2368 9.1807 17.2429C9.20466 17.2445 9.22215 17.2449 9.24562 17.2481C9.29198 17.2551 9.33229 17.2597 9.3726 17.2635C9.58315 17.2832 9.79329 17.3133 10.0042 17.3194C10.2459 17.3263 10.4885 17.3177 10.7301 17.3046C10.9247 17.294 11.1189 17.2705 11.3122 17.2456C11.5028 17.221 11.693 17.1921 11.8815 17.1562C12.041 17.1259 12.1979 17.0829 12.3559 17.0455C12.6255 16.9817 12.886 16.8914 13.1442 16.7957C13.4155 16.6951 13.6788 16.5774 13.9343 16.4443C14.0465 16.386 14.1587 16.3276 14.2684 16.2653C14.5394 16.1113 14.8003 15.9431 15.0473 15.756C15.1748 15.6594 15.3036 15.5637 15.4235 15.4591C15.5961 15.3088 15.7618 15.1513 15.9287 14.9952C15.9652 14.961 15.9944 14.9199 16.0266 14.8817C16.0262 14.8814 16.0267 14.8822 16.0316 14.8798C16.0464 14.8686 16.0575 14.8607 16.0661 14.8509C16.1894 14.7103 16.3141 14.5708 16.4347 14.4281C16.4835 14.3704 16.5232 14.3058 16.5668 14.2439C16.5665 14.2433 16.5667 14.2445 16.5716 14.2421C16.6108 14.1943 16.645 14.1489 16.6804 14.1004C16.6813 14.0974 16.6817 14.0911 16.6863 14.0882C16.7136 14.0551 16.7363 14.0248 16.7618 13.9904C16.7697 13.9745 16.7746 13.9627 16.7841 13.948C16.797 13.9308 16.8053 13.9165 16.8183 13.8993C16.8267 13.8927 16.8311 13.8894 16.8339 13.885C17.0457 13.5592 17.2378 13.2238 17.3966 12.8711C17.5745 12.476 17.7221 12.0713 17.8281 11.6537C17.8675 11.4985 17.896 11.3406 17.9246 11.1831C17.9499 11.0435 17.9697 10.9029 17.9893 10.7624C17.9989 10.6934 18.0019 10.6236 18.0086 10.5543C18.0177 10.4593 18.0361 10.3643 18.0357 10.2694C18.0343 9.93606 18.0573 9.60211 18.0065 9.26963C17.9832 9.11669 17.9715 8.96212 17.9533 8.80841C17.9515 8.7937 17.9415 8.77986 17.9368 8.76057C17.9403 8.74501 17.9424 8.73466 17.9446 8.72432C17.9754 8.69942 18.0083 8.67655 18.0369 8.6494C18.5047 8.20506 18.9719 7.76015 19.4394 7.31545C19.4566 7.29914 19.4746 7.28369 19.502 7.25903C19.5746 7.4789 19.6251 7.69583 19.6751 7.92393C19.6799 7.9426 19.6848 7.9503 19.6896 7.95792Z" fill="#FBD734"/>
<path d="M0.477842 7.22814C0.487612 7.20036 0.497381 7.17257 0.511325 7.13579C0.518546 7.11358 0.521594 7.10037 0.528602 7.08317C0.540171 7.05052 0.547779 7.02185 0.559587 6.9899C0.566583 6.97329 0.569379 6.95995 0.574661 6.94176C0.581545 6.91964 0.585941 6.90236 0.594085 6.8822C0.600406 6.87063 0.602982 6.86196 0.608186 6.84825C0.648034 6.74635 0.68198 6.64821 0.723156 6.55291C0.807748 6.3571 0.894266 6.162 0.983783 5.9682C1.04059 5.84521 1.09983 5.72286 1.16587 5.6042C1.25984 5.43535 1.35557 5.26694 1.46057 5.10419C1.59823 4.8908 1.73794 4.67786 1.89086 4.47431C2.07043 4.2353 2.26512 4.00657 2.45797 3.77105C2.48606 3.74412 2.50943 3.71951 2.53588 3.69076C2.5594 3.66358 2.57986 3.64054 2.60485 3.61546C2.62211 3.59908 2.63483 3.58476 2.65096 3.56672C2.66913 3.54504 2.6839 3.52709 2.70351 3.50674C2.79681 3.41725 2.88526 3.33014 2.97805 3.24083C2.99163 3.22566 3.00086 3.21268 3.01551 3.19831C3.1308 3.10111 3.2412 3.00584 3.35024 2.90918C3.38584 2.87763 3.41788 2.84245 3.45144 2.80891C3.45133 2.80891 3.45167 2.80944 3.45167 2.80944C3.49506 2.77935 3.53985 2.75092 3.58161 2.71891C3.736 2.60054 3.88778 2.47906 4.04376 2.36264C4.13769 2.29252 4.23702 2.22884 4.33488 2.16357C4.65589 1.94947 4.98972 1.75437 5.33573 1.57991C5.57821 1.45765 5.8285 1.34877 6.07908 1.24193C6.26003 1.16477 6.4449 1.09454 6.63215 1.03249C6.85519 0.958584 7.08185 0.894205 7.30845 0.830533C7.45929 0.788145 7.61154 0.748765 7.76534 0.717806C7.98794 0.672996 8.21218 0.635255 8.4363 0.597865C8.5991 0.570714 8.76288 0.548593 8.92633 0.52527C8.95576 0.521067 8.9861 0.522845 9.01586 0.520287C9.16983 0.507065 9.32371 0.493296 9.47759 0.479819C9.49656 0.478162 9.51553 0.475989 9.5345 0.475951C9.76884 0.475486 10.0031 0.475275 10.2374 0.47536C10.2558 0.475367 10.274 0.478085 10.2969 0.479908C10.2954 0.516796 10.2669 0.531626 10.2475 0.550279C10.0959 0.695651 9.94342 0.840202 9.79125 0.98501C9.32502 1.42861 8.85879 1.87215 8.39297 2.31607C8.37416 2.33399 8.3592 2.3556 8.33622 2.38361C8.20654 2.42177 8.08293 2.45147 7.95953 2.48191C7.68822 2.54883 7.42331 2.63452 7.16219 2.73091C6.83208 2.85277 6.5143 2.99908 6.20415 3.16172C5.90338 3.31943 5.61735 3.49805 5.34189 3.69238C5.13654 3.83724 4.94219 3.99461 4.75131 4.15662C4.49266 4.37615 4.25753 4.61669 4.03285 4.86636C3.90768 5.00546 3.79726 5.15662 3.68097 5.30292C3.48375 5.55102 3.31328 5.81593 3.15955 6.08951C3.04046 6.30144 2.93501 6.52068 2.83174 6.74018C2.67815 7.06665 2.56521 7.40709 2.46763 7.75215C2.43947 7.85179 2.41382 7.95199 2.38142 8.05234C2.35871 8.06471 2.33989 8.07513 2.32481 8.08913C2.26837 8.14149 2.21323 8.19516 2.15748 8.24821C1.51337 8.86128 0.869417 9.47443 0.224725 10.0869C0.186787 10.1229 0.142865 10.1532 0.101728 10.1862C0.0945634 10.0681 0.0843606 9.95004 0.0808864 9.8318C0.0742291 9.6052 0.069612 9.37859 0.0680809 9.15191C0.0676326 9.08555 0.0804684 9.01904 0.089682 8.94771C0.12546 8.93456 0.126323 8.91052 0.130043 8.88314C0.152854 8.71511 0.172738 8.54646 0.204104 8.37976C0.245536 8.15961 0.296639 7.9411 0.346197 7.71007C0.368366 7.62384 0.387923 7.54944 0.411361 7.47243C0.416769 7.46137 0.418297 7.4529 0.421343 7.4383C0.435371 7.37939 0.447882 7.32663 0.464184 7.27039C0.471264 7.25399 0.474554 7.24107 0.477842 7.22814Z" fill="#FBD734"/>
<path d="M0.100422 10.1931C0.14286 10.1534 0.186782 10.1231 0.22472 10.087C0.869412 9.47455 1.51337 8.8614 2.15747 8.24841C2.21322 8.19536 2.26837 8.14169 2.3248 8.08925C2.33989 8.07525 2.3587 8.06491 2.3814 8.05884C2.35163 8.26343 2.31022 8.46125 2.28264 8.66086C2.2554 8.85798 2.2347 9.05643 2.22486 9.25495C2.21511 9.45129 2.22716 9.64849 2.2211 9.84515C2.21471 10.0531 2.23913 10.2588 2.26411 10.4639C2.29003 10.6767 2.32889 10.8885 2.37381 11.0984C2.4208 11.3181 2.48174 11.5352 2.53081 11.7538C2.49776 11.7751 2.46806 11.7934 2.44354 11.8168C1.95487 12.281 1.46694 12.746 0.978112 13.2101C0.953737 13.2332 0.922495 13.2499 0.894457 13.2695C0.847499 13.168 0.797796 13.0675 0.754071 12.9646C0.593725 12.5876 0.467377 12.1996 0.362981 11.8058C0.281971 11.5001 0.215287 11.1912 0.176016 10.8774C0.152252 10.6876 0.126107 10.4981 0.102423 10.3083C0.0979575 10.2725 0.100053 10.236 0.100422 10.1931Z" fill="#FDEA97"/>
<path d="M5.1344 17.7424C5.01205 17.6754 4.88773 17.6114 4.7677 17.5407C4.39008 17.3186 4.02872 17.0739 3.68815 16.8032C3.48584 16.6423 3.29347 16.47 3.09934 16.3001C3.01746 16.2284 2.94256 16.1495 2.86455 16.0648C2.86799 16.0516 2.871 16.0472 2.87482 16.0436C3.33006 15.6107 3.78546 15.1778 4.24041 14.7446C4.26309 14.7231 4.28191 14.6978 4.30706 14.6775C4.33813 14.7018 4.36613 14.7214 4.39093 14.7442C4.47595 14.8223 4.55936 14.9019 4.64456 14.9797C4.66326 14.9968 4.68689 15.009 4.70862 15.0232C4.70899 15.0229 4.70897 15.0219 4.70919 15.0265C4.71478 15.0331 4.72013 15.0354 4.72579 15.0374C4.72609 15.037 4.72533 15.0375 4.72564 15.0419C4.73128 15.0486 4.7366 15.051 4.74218 15.0529C4.74245 15.0525 4.74168 15.053 4.74212 15.0573C4.74781 15.0641 4.75307 15.0664 4.75852 15.0684C4.75871 15.068 4.75809 15.0686 4.75886 15.0736C4.77558 15.0909 4.79152 15.1032 4.8077 15.1152C4.80795 15.1148 4.80708 15.1148 4.80819 15.119C4.81429 15.1257 4.81928 15.1285 4.82433 15.1307C4.82438 15.1302 4.8233 15.1302 4.82505 15.1342C4.83142 15.1422 4.83605 15.1461 4.84267 15.154C4.85432 15.1693 4.86397 15.1806 4.86972 15.1951C4.87258 15.2132 4.87531 15.2323 4.88671 15.2427C4.97861 15.3267 5.07172 15.4094 5.16537 15.4916C5.20912 15.53 5.25315 15.5683 5.30005 15.6031C5.43441 15.7026 5.56645 15.8055 5.70644 15.8974C5.92931 16.0437 6.15798 16.1818 6.38392 16.3239C6.42621 16.3505 6.46716 16.3789 6.50667 16.4114C6.48781 16.4331 6.47142 16.4503 6.45416 16.4667C6.09132 16.8123 5.72777 17.1572 5.3659 17.5037C5.28574 17.5805 5.21142 17.6627 5.1344 17.7424Z" fill="#FCEA97"/>
<path d="M0.895447 13.275C0.922495 13.2499 0.953738 13.2333 0.978112 13.2102C1.46694 12.7461 1.95487 12.2811 2.44354 11.8168C2.46806 11.7935 2.49775 11.7751 2.53523 11.7576C2.59069 11.8851 2.63065 12.0114 2.68231 12.1333C2.78583 12.3776 2.88683 12.6234 3.00565 12.861C3.11629 13.0821 3.24872 13.2935 3.36648 13.5117C3.33566 13.5373 3.30927 13.5597 3.28429 13.5835C2.85287 13.9937 2.4219 14.4045 1.98989 14.8141C1.95167 14.8504 1.9069 14.8804 1.86518 14.9132C1.82855 14.8691 1.7884 14.8272 1.75587 14.7804C1.56712 14.5093 1.39152 14.2306 1.2301 13.9436C1.10832 13.7272 0.993828 13.5078 0.895447 13.275Z" fill="#FBD733"/>
<path d="M5.13759 17.747C5.21142 17.6628 5.28573 17.5805 5.3659 17.5037C5.72777 17.1572 6.09131 16.8123 6.45416 16.4667C6.47141 16.4503 6.4878 16.4331 6.51276 16.411C6.53316 16.406 6.5454 16.4061 6.56066 16.4107C6.66928 16.4688 6.77359 16.5248 6.88081 16.5754C6.98801 16.6259 7.09718 16.6728 7.2072 16.7175C7.31966 16.7633 7.43369 16.8056 7.548 16.8471C7.6578 16.8868 7.76886 16.9234 7.88859 16.9647C7.8563 16.9963 7.83406 17.0187 7.81115 17.0405C7.38156 17.4491 6.95181 17.8574 6.52247 18.2662C6.49958 18.288 6.48007 18.313 6.45899 18.3365C6.28108 18.267 6.10114 18.2018 5.92584 18.1268C5.74034 18.0474 5.55869 17.9598 5.37652 17.8736C5.29647 17.8357 5.21927 17.7924 5.13759 17.747Z" fill="#FBD734"/>
<path d="M6.46277 18.3407C6.48008 18.313 6.4996 18.288 6.52247 18.2662C6.95182 17.8574 7.38157 17.4491 7.81117 17.0405C7.83407 17.0188 7.8563 16.9964 7.8886 16.9646C7.76886 16.9235 7.65781 16.8868 7.54801 16.847C7.43369 16.8056 7.31967 16.7632 7.2072 16.7176C7.09718 16.6728 6.98801 16.6258 6.88081 16.5754C6.77359 16.5249 6.66929 16.4688 6.56108 16.4053C6.57659 16.3747 6.59501 16.3543 6.61276 16.3333C6.62206 16.3223 6.63017 16.3105 6.6448 16.2983C6.65838 16.3004 6.6662 16.3026 6.67354 16.3059C7.04286 16.4695 7.42227 16.6076 7.81383 16.7151C7.88626 16.735 7.95766 16.7582 8.02954 16.7856C8.01472 16.8633 7.94512 16.8981 7.8979 16.9563C7.92386 16.9672 7.94229 16.9775 7.96216 16.9829C8.06073 17.0098 8.15929 17.037 8.25863 17.0612C8.41006 17.0983 8.56215 17.1332 8.71407 17.1686C8.8081 17.1904 8.90229 17.2116 8.99641 17.2332C8.97319 17.261 8.9525 17.2914 8.92625 17.3165C8.48888 17.7339 8.05066 18.1505 7.61349 18.5682C7.5896 18.591 7.57351 18.6212 7.55376 18.6535C7.43045 18.6299 7.30527 18.6066 7.18429 18.5707C6.94382 18.4991 6.70565 18.4206 6.46277 18.3407Z" fill="#FCEA97"/>
<path d="M1.8663 14.9182C1.90692 14.8802 1.95168 14.8502 1.9899 14.814C2.42191 14.4043 2.85288 13.9936 3.2843 13.5834C3.30929 13.5596 3.33568 13.5372 3.37063 13.5151C3.53594 13.7292 3.6918 13.9426 3.84834 14.1554C3.8808 14.1995 3.91579 14.242 3.94709 14.2906C3.91398 14.3246 3.88325 14.3533 3.85283 14.3822C3.43058 14.7841 3.00848 15.1862 2.58598 15.5879C2.55346 15.6188 2.51831 15.6472 2.48439 15.6768C2.40239 15.5847 2.31661 15.4954 2.23928 15.3999C2.11243 15.2432 1.99109 15.0825 1.8663 14.9182Z" fill="#FDEA98"/>
<path d="M2.48679 15.6816C2.51831 15.6474 2.55346 15.619 2.58598 15.588C3.00848 15.1864 3.43058 14.7843 3.85283 14.3824C3.88325 14.3534 3.91398 14.3248 3.95148 14.2932C4.028 14.365 4.09856 14.4389 4.16687 14.5147C4.21371 14.5666 4.25742 14.621 4.30254 14.6744C4.28192 14.698 4.2631 14.7232 4.24042 14.7448C3.78546 15.178 3.33006 15.6108 2.87482 16.0437C2.871 16.0473 2.868 16.0518 2.86169 16.0604C2.73558 15.9387 2.61238 15.8125 2.48679 15.6816Z" fill="#FBD734"/>
<path d="M4.30705 14.6775C4.25741 14.621 4.2137 14.5665 4.16686 14.5146C4.09855 14.4389 4.02799 14.365 3.954 14.2878C3.91578 14.2421 3.88079 14.1997 3.84833 14.1556C3.69179 13.9426 3.53593 13.7293 3.3757 13.5127C3.24872 13.2934 3.11629 13.082 3.00566 12.8608C2.88683 12.6232 2.78584 12.3774 2.68231 12.1332C2.63065 12.0113 2.59069 11.885 2.54101 11.757C2.48175 11.5351 2.42081 11.3181 2.37382 11.0985C2.32889 10.8885 2.29003 10.6766 2.26411 10.4638C2.23913 10.2588 2.21472 10.053 2.22111 9.8451C2.22716 9.64852 2.21512 9.45124 2.22486 9.2549C2.23471 9.05646 2.2554 8.85793 2.28264 8.66081C2.31023 8.46128 2.35163 8.26346 2.387 8.05848C2.41382 7.95214 2.43947 7.85194 2.46763 7.7523C2.56521 7.40725 2.67815 7.0668 2.83174 6.74033C2.93501 6.52083 3.04046 6.30159 3.15955 6.08966C3.31328 5.81608 3.48375 5.55117 3.68097 5.30306C3.79726 5.15677 3.90768 5.00561 4.03285 4.86651C4.25753 4.61684 4.49266 4.3763 4.75131 4.15677C4.94219 3.99476 5.13654 3.83739 5.34188 3.69253C5.61735 3.4982 5.90338 3.31958 6.20415 3.16186C6.51429 2.99923 6.83208 2.85292 7.16219 2.73106C7.42331 2.63467 7.68822 2.54898 7.95953 2.48205C8.08293 2.45161 8.20654 2.42192 8.33581 2.38895C8.46705 2.36483 8.59207 2.34115 8.71799 2.3231C8.87097 2.30118 9.02494 2.28598 9.17792 2.26441C9.54333 2.21289 9.91104 2.23496 10.2778 2.23181C10.5585 2.2294 10.8368 2.25977 11.1129 2.30468C11.3537 2.34385 11.5938 2.3877 11.8329 2.43534C11.9413 2.45697 12.0465 2.49327 12.1536 2.52175C12.1742 2.52723 12.1963 2.52732 12.2285 2.53464C12.413 2.59764 12.5879 2.65323 12.7606 2.71471C13.1198 2.84262 13.4639 3.00154 13.7987 3.17918C13.891 3.22816 13.984 3.27601 14.0766 3.32438C14.1027 3.34278 14.1273 3.36325 14.1549 3.37925C14.4055 3.52474 14.6411 3.69022 14.8782 3.87097C14.9171 3.90276 14.9491 3.92667 14.9797 3.95221C15.0939 4.04756 15.2075 4.14345 15.3214 4.23913C15.4538 4.36824 15.5862 4.49735 15.7186 4.6335C15.7186 4.64053 15.7143 4.6456 15.7087 4.64464C15.5555 4.54276 15.4093 4.43979 15.2598 4.34133C14.8811 4.09197 14.4888 3.86427 14.0658 3.68858C13.8417 3.59548 13.6166 3.50343 13.3873 3.42271C13.0328 3.29788 12.667 3.20808 12.2962 3.13835C12.1847 3.11737 12.0718 3.10234 11.959 3.08755C11.8249 3.06993 11.6903 3.05433 11.5557 3.04003C11.4479 3.0286 11.3398 3.01205 11.2319 3.01238C10.9082 3.01337 10.5841 2.99348 10.2607 3.02493C10.1662 3.03411 10.0705 3.03226 9.97645 3.04386C9.80458 3.06508 9.63352 3.09198 9.46222 3.11757C9.11545 3.1694 8.77694 3.25457 8.44252 3.35419C8.16203 3.43774 7.88928 3.54094 7.62052 3.65456C7.32643 3.77889 7.04341 3.92284 6.76889 4.08136C6.53883 4.21422 6.31841 4.36108 6.10342 4.51586C5.83398 4.70984 5.58224 4.92273 5.3396 5.14522C5.21255 5.26171 5.0991 5.39157 4.97861 5.51459C4.77985 5.71751 4.60291 5.93739 4.4366 6.16422C4.15591 6.54709 3.91322 6.95103 3.71268 7.37801C3.54142 7.74265 3.39819 8.11651 3.29657 8.5036C3.23552 8.73611 3.18564 8.97166 3.14041 9.20753C3.10936 9.36956 3.0918 9.53417 3.07403 9.69815C3.05874 9.83926 3.04647 9.981 3.0423 10.1227C3.03688 10.3066 3.0362 10.491 3.04207 10.6748C3.04768 10.8502 3.06369 11.0253 3.07651 11.2004C3.08064 11.257 3.08579 11.3138 3.09621 11.3696C3.13041 11.5522 3.16893 11.7341 3.20264 11.9168C3.24732 12.1591 3.31815 12.3951 3.39586 12.6289C3.52892 13.0294 3.69445 13.4174 3.90528 13.7871C3.97922 13.9168 4.04819 14.0495 4.12864 14.1753C4.30092 14.445 4.47951 14.711 4.68323 14.9609C4.697 14.9777 4.70015 15.0025 4.70825 15.0235C4.68689 15.0091 4.66326 14.9969 4.64456 14.9798C4.55935 14.902 4.47595 14.8223 4.39093 14.7442C4.36612 14.7215 4.33812 14.7018 4.30705 14.6775Z" fill="#E87F03"/>
<path d="M14.0782 3.31896C13.984 3.27605 13.891 3.2282 13.7987 3.17921C13.4639 3.00158 13.1198 2.84266 12.7606 2.71474C12.5879 2.65326 12.413 2.59767 12.2351 2.53548C12.2604 2.49492 12.2858 2.45459 12.3196 2.42224C12.7372 2.02293 13.1562 1.62485 13.5744 1.22615C13.5972 1.20437 13.6173 1.17998 13.6406 1.15197C13.6488 1.14668 13.6553 1.14622 13.6666 1.14551C13.9522 1.27021 14.2375 1.38668 14.5123 1.52251C14.7872 1.65838 15.0518 1.8134 15.3204 1.96056C15.3548 1.97935 15.3872 2.00133 15.4271 2.02593C15.4027 2.05133 15.3857 2.07067 15.367 2.08846C14.9913 2.44603 14.6156 2.80354 14.2395 3.16064C14.2106 3.18797 14.1772 3.21084 14.1484 3.23813C14.1237 3.26149 14.1025 3.28824 14.0782 3.31896Z" fill="#FBD734"/>
<path d="M19.9027 9.22723C19.8684 9.18397 19.8535 9.12999 19.8509 9.06869C19.8473 8.98732 19.8305 8.90642 19.8192 8.82536C19.8089 8.752 19.7988 8.67857 19.7876 8.60529C19.78 8.55472 19.7696 8.50455 19.7625 8.45391C19.7594 8.43174 19.7616 8.40895 19.7706 8.38623C19.7987 8.49304 19.8182 8.59992 19.836 8.70704C19.8395 8.7282 19.8393 8.74835 19.8681 8.75138C19.8691 8.75807 19.8701 8.76476 19.8661 8.78024C19.8544 8.81571 19.8361 8.84535 19.8804 8.85935C19.888 8.97954 19.8954 9.09973 19.9027 9.22723Z" fill="#FDD554"/>
<path d="M19.8686 8.74431C19.8393 8.74836 19.8395 8.72829 19.836 8.70713C19.8182 8.59993 19.7987 8.49305 19.7751 8.38204C19.754 8.29421 19.7379 8.21043 19.7221 8.12012C19.7426 8.1293 19.7628 8.14509 19.7894 8.16228C19.81 8.26317 19.824 8.36267 19.8383 8.46209C19.8427 8.49219 19.8494 8.52214 19.8526 8.55232C19.859 8.61386 19.8636 8.67554 19.8686 8.74431Z" fill="#FDDE75"/>
<path d="M19.9134 9.42815C19.9035 9.42636 19.888 9.41796 19.8878 9.4094C19.8874 9.36903 19.8912 9.32858 19.8983 9.28369C19.907 9.32663 19.911 9.37401 19.9134 9.42815Z" fill="#FDD554"/>
<path d="M19.8814 8.85369C19.8361 8.84521 19.8544 8.81557 19.8656 8.78516C19.8741 8.80367 19.8782 8.82592 19.8814 8.85369Z" fill="#FDDE75"/>
<path d="M19.1282 6.24324C19.1314 6.25794 19.1301 6.2693 19.1272 6.28616C19.1002 6.31057 19.0728 6.3273 19.0502 6.34872C18.6142 6.76264 18.179 7.17725 17.7428 7.59101C17.7191 7.61354 17.702 7.64881 17.6526 7.63762C17.6431 7.61035 17.6428 7.58891 17.6356 7.56982C17.583 7.43112 17.5334 7.29112 17.4742 7.15498C17.4067 6.99962 17.3333 6.84636 17.2562 6.69505C17.2128 6.60994 17.1569 6.53062 17.1054 6.4434C17.0886 6.40684 17.0585 6.37781 17.0931 6.33932C17.1393 6.29844 17.1801 6.25801 17.2208 6.21757C17.2429 6.19865 17.266 6.18064 17.2871 6.16065C17.6565 5.80951 18.0256 5.45809 18.3949 5.10692C18.4175 5.08545 18.4418 5.06561 18.4674 5.04321C18.4804 5.05432 18.4906 5.05949 18.4953 5.06758C18.6249 5.29161 18.7586 5.5137 18.8817 5.74098C18.9698 5.90365 19.0436 6.07335 19.1282 6.24324Z" fill="#FBD734"/>
<path d="M15.3218 4.23349C15.2075 4.14341 15.0939 4.04752 14.9797 3.95217C14.9491 3.92663 14.9171 3.90272 14.8829 3.87373C14.8968 3.86251 14.9176 3.85953 14.9295 3.84814C15.3452 3.45209 15.76 3.05528 16.1748 2.65844C16.1902 2.6438 16.2042 2.6279 16.2206 2.60736C16.2347 2.60254 16.2469 2.60293 16.2652 2.60313C16.2984 2.62736 16.3247 2.65273 16.3527 2.67607C16.4484 2.75564 16.5447 2.83449 16.6463 2.91543C16.6516 2.92389 16.6515 2.93053 16.6522 2.94212C16.3364 3.2449 16.0197 3.54263 15.7033 3.84067C15.5933 3.94431 15.4833 4.04803 15.3751 4.15334C15.3535 4.17441 15.3397 4.20285 15.3218 4.23349Z" fill="#FBD734"/>
<path d="M17.2204 6.21116C17.1801 6.25802 17.1393 6.29845 17.0875 6.33907C17.0658 6.33168 17.052 6.32608 17.0454 6.31617C17.0106 6.26409 16.9778 6.21089 16.9441 6.15816C16.8837 6.06368 16.8238 5.96899 16.7628 5.87489C16.7177 5.80535 16.6762 5.73298 16.6235 5.66909C16.5969 5.63694 16.5904 5.58311 16.5337 5.57064C16.5248 5.5436 16.5204 5.51912 16.5066 5.50137C16.4631 5.44563 16.4179 5.39084 16.3693 5.33922C16.3552 5.3243 16.3272 5.3213 16.301 5.30993C16.1568 5.13501 16.0175 4.96275 15.8772 4.79119C15.8527 4.7613 15.8242 4.73442 15.7935 4.70462C15.7865 4.70383 15.7837 4.70457 15.7808 4.70584C15.7808 4.70637 15.7819 4.7064 15.7817 4.70162C15.7759 4.69456 15.7702 4.69225 15.7645 4.69042C15.7645 4.69089 15.7655 4.69081 15.7669 4.68589C15.7617 4.67354 15.755 4.66609 15.7487 4.65914C15.7488 4.65964 15.7498 4.65925 15.7492 4.6557C15.7486 4.65214 15.7478 4.64496 15.7478 4.64496C15.7675 4.62303 15.7873 4.60109 15.8149 4.57056C15.8498 4.61179 15.8864 4.63946 15.9008 4.67522C15.94 4.77195 16.0101 4.84674 16.0811 4.91988C16.1472 4.9878 16.2244 5.04569 16.2941 5.1105C16.4742 5.27796 16.642 5.45437 16.7626 5.66804C16.8019 5.7376 16.8584 5.7983 16.9065 5.86343C16.9188 5.88024 16.9291 5.89845 16.9402 5.9161C17.0126 6.03113 17.0978 6.04358 17.1952 5.95003C17.2272 5.91918 17.2629 5.89915 17.3064 5.89117C17.3183 5.88897 17.3317 5.89399 17.3599 5.89777C17.3415 5.92338 17.3306 5.94179 17.3164 5.95755C17.2992 5.97666 17.278 5.99246 17.2608 6.01157C17.2096 6.06843 17.1889 6.1318 17.2204 6.21116Z" fill="#FDEA9C"/>
<path d="M15.7435 4.64408C15.7478 4.64514 15.7486 4.65262 15.744 4.65659C15.7311 4.65563 15.7227 4.6507 15.7143 4.64578C15.7143 4.64578 15.7186 4.64049 15.721 4.63794C15.7286 4.63792 15.7339 4.64047 15.7435 4.64408Z" fill="#E87F03"/>
<path d="M17.9428 8.71758C17.9424 8.73462 17.9403 8.74497 17.9316 8.76138C17.8822 8.80494 17.8404 8.8436 17.7962 8.87946C17.7747 8.89681 17.7488 8.90903 17.7218 8.91813C17.6873 8.60206 17.6357 8.29463 17.5639 7.99016C17.5456 7.91253 17.5321 7.83396 17.5222 7.75582C17.5725 7.72951 17.6169 7.70313 17.6613 7.67676C17.6743 7.70174 17.6917 7.72554 17.6996 7.7519C17.7435 7.89767 17.7895 8.04314 17.8263 8.19055C17.8642 8.34294 17.8922 8.49751 17.9249 8.65099C17.9293 8.67122 17.9357 8.69098 17.9428 8.71758Z" fill="#FEF4CD"/>
<path d="M17.6594 7.67266C17.6169 7.70322 17.5724 7.72959 17.5181 7.75176C17.4114 7.42668 17.307 7.10833 17.1724 6.7997C17.1235 6.68766 17.0735 6.57606 17.0301 6.46413C17.0597 6.45892 17.0832 6.45383 17.1066 6.44873C17.1569 6.53066 17.2128 6.60998 17.2562 6.69509C17.3333 6.8464 17.4067 6.99966 17.4742 7.15502C17.5334 7.29117 17.583 7.43116 17.6356 7.56986C17.6428 7.58895 17.6431 7.6104 17.6468 7.63678C17.6504 7.65137 17.6539 7.65992 17.6594 7.67266Z" fill="#FDEA9C"/>
<path d="M19.6932 7.95538C19.6848 7.95025 19.6799 7.94254 19.6759 7.93018C19.6834 7.93453 19.6901 7.94371 19.6932 7.95538Z" fill="#FDDE75"/>
<path d="M19.7195 8.03365C19.71 8.03007 19.701 8.02151 19.6927 8.00806C19.7023 8.01156 19.7112 8.02011 19.7195 8.03365Z" fill="#FDDE75"/>
<path d="M17.7249 8.92366C17.7488 8.90911 17.7747 8.8969 17.7962 8.87955C17.8404 8.84361 17.8822 8.80503 17.9302 8.7666C17.9415 8.77983 17.9515 8.79367 17.9533 8.80838C17.9715 8.96209 17.9832 9.11666 18.0065 9.2696C18.0573 9.60207 18.0343 9.93603 18.0357 10.2694C18.0361 10.3643 18.0178 10.4593 18.0086 10.5542C18.0019 10.6235 17.9989 10.6934 17.9892 10.7624C17.9698 10.9029 17.9499 11.0435 17.9246 11.1831C17.896 11.3405 17.8675 11.4985 17.8281 11.6536C17.722 12.0713 17.5745 12.476 17.3966 12.8711C17.2378 13.2238 17.0457 13.5592 16.8339 13.885C16.8312 13.8894 16.8267 13.8926 16.8123 13.8998C16.7943 13.919 16.787 13.9349 16.7797 13.9508C16.7747 13.9626 16.7697 13.9745 16.7559 13.9906C16.6832 14.0179 16.6827 14.0186 16.6817 14.0911C16.6817 14.0911 16.6813 14.0974 16.6741 14.1004C16.6294 14.0997 16.603 14.1142 16.5921 14.1484C16.582 14.18 16.5751 14.2124 16.5667 14.2445C16.5667 14.2445 16.5665 14.2433 16.5605 14.2436C16.5064 14.2473 16.4782 14.269 16.4599 14.3144C16.4462 14.3486 16.4133 14.3759 16.3891 14.4063C16.3582 14.445 16.3213 14.4808 16.299 14.5235C16.2835 14.5532 16.2625 14.5726 16.2383 14.5929C16.2124 14.6146 16.1877 14.6379 16.1648 14.6625C16.1379 14.6914 16.1163 14.7251 16.0873 14.7518C16.0479 14.7884 16.0277 14.8305 16.0267 14.8821C16.0267 14.8821 16.0262 14.8813 16.0204 14.8815C15.9876 14.8926 15.9571 14.8992 15.9343 14.9156C15.8982 14.9415 15.867 14.9737 15.8343 15.0038C15.7484 15.0826 15.6639 15.1626 15.5768 15.2402C15.518 15.2925 15.4603 15.3476 15.394 15.3903C15.3127 15.4426 15.2299 15.4899 15.1752 15.5716C15.1586 15.5964 15.1298 15.6225 15.1014 15.6299C14.9887 15.6598 14.9169 15.7465 14.8239 15.8029C14.6642 15.8999 14.5156 16.0134 14.3554 16.1093C14.2065 16.1986 14.0646 16.2986 13.9029 16.369C13.7724 16.4258 13.6506 16.5004 13.5211 16.5593C13.2126 16.6996 12.8935 16.8155 12.5694 16.919C12.4904 16.9442 12.4121 16.9717 12.332 16.9933C12.2727 17.0092 12.2109 17.0165 12.1506 17.0292C12.1216 17.0354 12.0935 17.0456 12.065 17.0538C12.0393 17.0612 12.0138 17.0701 11.9876 17.0752C11.8764 17.0968 11.7651 17.1176 11.6536 17.1378C11.6192 17.1441 11.5841 17.1467 11.5496 17.1531C11.454 17.1711 11.3567 17.1783 11.2608 17.1922C11.1801 17.2039 11.1007 17.2165 11.019 17.2153C10.9973 17.215 10.9754 17.216 10.9539 17.2187C10.8355 17.2338 10.7191 17.2789 10.5971 17.2325C10.5738 17.2236 10.5433 17.2326 10.516 17.2333C10.3451 17.2372 10.174 17.2438 10.003 17.2442C9.88921 17.2443 9.77548 17.2341 9.66166 17.2316C9.62707 17.2309 9.5915 17.2469 9.55774 17.2434C9.47196 17.2344 9.38668 17.2204 9.30181 17.205C9.26321 17.1981 9.24441 17.2095 9.23966 17.2452C9.22217 17.2449 9.20467 17.2445 9.18071 17.2368C9.16861 17.1882 9.16305 17.1468 9.15994 17.1008C9.19428 17.057 9.22609 17.0177 9.26518 16.9783C9.55953 17.0148 9.84825 17.0124 10.137 17.0106C10.1887 17.0103 10.2406 17.0114 10.2923 17.01C10.3357 17.0088 10.3792 17.0059 10.4225 17.002C10.5362 16.9916 10.6496 16.9752 10.7635 16.9702C10.9982 16.9598 11.2281 16.9185 11.4572 16.8758C11.6678 16.8365 11.8765 16.7869 12.0841 16.735C12.5254 16.6249 12.9489 16.4681 13.3595 16.2803C13.7456 16.1037 14.1134 15.8967 14.463 15.6607C14.8975 15.3676 15.2978 15.0378 15.6613 14.6664C15.9852 14.3354 16.2758 13.981 16.5328 13.6007C16.7647 13.2575 16.9639 12.8979 17.1328 12.5236C17.3753 11.986 17.5486 11.4283 17.6466 10.8505C17.6747 10.6846 17.6963 10.5175 17.7145 10.3504C17.7327 10.1832 17.7494 10.0155 17.7554 9.84758C17.7666 9.53922 17.7529 9.23109 17.7249 8.92366Z" fill="#FDEA98"/>
<path d="M9.24563 17.2481C9.2444 17.2096 9.26321 17.1982 9.3018 17.2051C9.38668 17.2204 9.47196 17.2345 9.55773 17.2434C9.5915 17.247 9.62707 17.2309 9.66166 17.2317C9.77548 17.2342 9.88921 17.2444 10.0029 17.2443C10.174 17.244 10.3451 17.2373 10.516 17.2334C10.5433 17.2328 10.5738 17.2237 10.5971 17.2325C10.7191 17.279 10.8355 17.2339 10.9539 17.2188C10.9754 17.2161 10.9973 17.2151 11.019 17.2154C11.1007 17.2166 11.1801 17.204 11.2608 17.1923C11.3567 17.1784 11.454 17.1712 11.5496 17.1532C11.5841 17.1468 11.6192 17.1442 11.6536 17.1379C11.7651 17.1176 11.8765 17.0969 11.9876 17.0753C12.0138 17.0702 12.0393 17.0612 12.065 17.0539C12.0935 17.0457 12.1216 17.0355 12.1506 17.0293C12.2109 17.0165 12.2727 17.0093 12.332 16.9933C12.4121 16.9718 12.4904 16.9443 12.5694 16.919C12.8935 16.8155 13.2126 16.6996 13.5211 16.5594C13.6506 16.5005 13.7724 16.4258 13.9029 16.3691C14.0646 16.2987 14.2065 16.1986 14.3554 16.1095C14.5156 16.0135 14.6642 15.9 14.8239 15.803C14.9169 15.7465 14.9887 15.6598 15.1014 15.63C15.1298 15.6225 15.1586 15.5965 15.1752 15.5717C15.2299 15.4899 15.3127 15.4427 15.394 15.3904C15.4603 15.3477 15.518 15.2926 15.5768 15.2403C15.6639 15.1627 15.7484 15.0826 15.8343 15.0038C15.867 14.9738 15.8982 14.9416 15.9343 14.9156C15.9571 14.8993 15.9876 14.8927 16.0208 14.8818C15.9944 14.9199 15.9652 14.9611 15.9287 14.9952C15.7618 15.1513 15.5961 15.3088 15.4236 15.4592C15.3036 15.5637 15.1748 15.6594 15.0473 15.756C14.8003 15.9431 14.5394 16.1114 14.2684 16.2653C14.1587 16.3277 14.0465 16.3861 13.9343 16.4444C13.6788 16.5774 13.4155 16.6951 13.1442 16.7957C12.886 16.8915 12.6255 16.9818 12.3559 17.0456C12.1979 17.0829 12.0411 17.1259 11.8815 17.1563C11.6931 17.1921 11.5028 17.221 11.3122 17.2456C11.1189 17.2706 10.9247 17.294 10.7301 17.3046C10.4886 17.3177 10.2459 17.3263 10.0043 17.3195C9.7933 17.3134 9.58316 17.2832 9.37261 17.2635C9.3323 17.2597 9.29199 17.2551 9.24563 17.2481Z" fill="#FCEA97"/>
<path d="M9.25789 16.9786C9.22609 17.0178 9.19428 17.057 9.15512 17.1033C9.11202 17.1476 9.07613 17.1848 9.04023 17.222C9.02936 17.225 9.01848 17.228 9.00197 17.2322C8.90229 17.2117 8.8081 17.1905 8.71407 17.1687C8.56215 17.1333 8.41006 17.0984 8.25863 17.0613C8.15929 17.0371 8.06073 17.0099 7.96216 16.983C7.94229 16.9775 7.92386 16.9673 7.8979 16.9564C7.94512 16.8981 8.01472 16.8634 8.03629 16.7854C8.13567 16.7982 8.22789 16.8189 8.32102 16.8351C8.52069 16.8697 8.72061 16.9033 8.92086 16.9346C9.03271 16.9521 9.14555 16.9641 9.25789 16.9786Z" fill="#FEF5CE"/>
<path d="M16.0316 14.8798C16.0277 14.8305 16.0479 14.7884 16.0873 14.7518C16.1163 14.725 16.1379 14.6914 16.1648 14.6625C16.1877 14.6379 16.2124 14.6146 16.2383 14.5928C16.2625 14.5725 16.2835 14.5531 16.299 14.5235C16.3213 14.4808 16.3582 14.445 16.389 14.4063C16.4132 14.3758 16.4462 14.3486 16.4599 14.3144C16.4782 14.2689 16.5064 14.2473 16.5608 14.2441C16.5232 14.3058 16.4835 14.3703 16.4347 14.428C16.3141 14.5706 16.1894 14.7102 16.0661 14.8508C16.0575 14.8606 16.0464 14.8686 16.0316 14.8798Z" fill="#FCEA97"/>
<path d="M9.04694 17.2243C9.07613 17.1847 9.11202 17.1475 9.15266 17.1079C9.16304 17.1469 9.1686 17.1883 9.17425 17.2358C9.1341 17.2368 9.09387 17.2318 9.04694 17.2243Z" fill="#FCEA97"/>
<path d="M16.5716 14.242C16.5751 14.2123 16.582 14.1799 16.5921 14.1483C16.603 14.1141 16.6294 14.0996 16.6731 14.1034C16.6451 14.1488 16.6108 14.1942 16.5716 14.242Z" fill="#FCEA97"/>
<path d="M16.6863 14.0881C16.6827 14.0186 16.6832 14.0179 16.7532 13.9946C16.7363 14.0247 16.7136 14.055 16.6863 14.0881Z" fill="#FCEA97"/>
<path d="M16.7841 13.9479C16.787 13.9349 16.7943 13.919 16.8076 13.9026C16.8053 13.9164 16.797 13.9308 16.7841 13.9479Z" fill="#FCEA97"/>
<path d="M0.411365 7.47258C0.408856 7.46546 0.410228 7.45575 0.415715 7.44531C0.418301 7.45304 0.416774 7.46152 0.411365 7.47258Z" fill="#FBE894"/>
<path d="M15.7088 4.64465C15.7227 4.65033 15.7311 4.65506 15.7446 4.65955C15.7498 4.6593 15.7488 4.65969 15.7486 4.6641C15.7541 4.67596 15.7598 4.6834 15.7655 4.69085C15.7655 4.69085 15.7645 4.69093 15.7663 4.69411C15.7728 4.70033 15.7773 4.70339 15.7819 4.70644C15.7819 4.70644 15.7807 4.70642 15.7823 4.70846C15.7884 4.70907 15.793 4.70764 15.7976 4.7062C15.8242 4.73447 15.8527 4.76134 15.8772 4.79124C16.0175 4.96279 16.1568 5.13506 16.303 5.31482C16.3614 5.39764 16.4133 5.47272 16.4588 5.54759C16.4111 5.55917 16.3685 5.56826 16.3284 5.58322C16.0606 5.68293 15.792 5.78088 15.5263 5.88539C15.3056 5.97217 15.0878 6.06568 14.8701 6.15902C14.7242 6.22157 14.5793 6.2865 14.4364 6.35491C14.194 6.47092 13.9539 6.59128 13.7119 6.70802C13.6569 6.73451 13.598 6.7537 13.5431 6.77138C13.6155 6.67799 13.6847 6.58866 13.7564 6.50118C13.8281 6.41373 13.9069 6.33121 13.9741 6.24082C14.0397 6.15247 14.1267 6.07741 14.1819 5.96338C14.0769 5.96338 13.9873 5.96338 13.8991 5.95814C13.9062 5.94124 13.9101 5.92809 13.9182 5.91814C13.9881 5.83273 14.0581 5.74748 14.1294 5.66319C14.1496 5.63944 14.174 5.619 14.1696 5.57811C13.9799 5.57811 13.7926 5.57811 13.5978 5.57772C13.4594 5.57698 13.3286 5.57639 13.1979 5.57637C12.7321 5.57629 12.2662 5.57725 11.8005 5.57541C11.7411 5.57517 11.6985 5.58541 11.6644 5.6376C11.6244 5.69874 11.5718 5.75236 11.5257 5.80998C11.2293 6.18047 10.933 6.55107 10.6369 6.92184C10.3803 7.24316 10.1238 7.56452 9.86779 7.88624C9.5888 8.23692 9.31064 8.58814 9.03157 8.93874C8.98014 9.00331 8.92593 9.06585 8.8628 9.14162C8.8628 8.77655 8.8628 8.42953 8.86051 8.07636C8.85463 8.04275 8.84849 8.01529 8.84792 7.98775C8.84563 7.87799 8.84506 7.76826 8.84481 7.65222C8.85152 7.60522 8.86207 7.56453 8.86223 7.52381C8.86395 7.03974 8.86411 6.55567 8.86485 6.07159C8.86485 6.04577 8.86705 6.01995 8.86771 5.99411C8.87082 5.86014 8.87376 5.72617 8.87621 5.59219C8.87629 5.5885 8.86934 5.58469 8.86485 5.58012C8.78962 5.58012 8.71366 5.58012 8.62977 5.57917C8.02247 5.57794 7.42307 5.57759 6.82369 5.57769C6.80296 5.57769 6.78223 5.5821 6.75523 5.58518C6.75523 5.6957 6.7552 5.80148 6.75534 5.90725C6.75535 5.91235 6.75625 5.91772 6.75809 5.92249C6.79903 6.02846 6.80264 6.13897 6.80255 6.24998C6.80243 6.38995 6.80217 6.52991 6.80257 6.66989C6.80317 6.8824 6.80428 7.09491 6.80431 7.31377C6.79818 7.36101 6.78843 7.40189 6.78836 7.44277C6.78731 8.12474 6.78732 8.80666 6.78796 9.48865C6.78799 9.51331 6.797 9.53797 6.80195 9.56971C6.80282 9.7172 6.80355 9.85761 6.80343 10.0044C6.79763 10.0413 6.78839 10.0717 6.78837 10.1021C6.78803 10.7249 6.78875 11.3476 6.79089 11.9766C6.79582 12.0084 6.80199 12.0338 6.80203 12.0592C6.80251 12.393 6.80212 12.7268 6.79816 13.0629C6.79066 13.0697 6.78696 13.0742 6.7775 13.0784C6.75622 13.0901 6.73597 13.0994 6.72597 13.1147C6.67158 13.1982 6.61789 13.2822 6.56733 13.3678C6.43695 13.5885 6.30382 13.8079 6.18001 14.0319C5.96094 14.4284 5.76068 14.8337 5.57458 15.2452C5.52204 15.3613 5.47696 15.4805 5.42319 15.5965C5.32525 15.5279 5.23194 15.4617 5.1401 15.3938C5.05048 15.3275 4.96238 15.2594 4.87361 15.192C4.86396 15.1807 4.85432 15.1694 4.84102 15.1498C4.83268 15.1377 4.82799 15.134 4.82331 15.1302C4.82331 15.1302 4.82438 15.1303 4.8228 15.1269C4.81651 15.1207 4.8118 15.1178 4.80708 15.1149C4.80708 15.1149 4.80795 15.1149 4.80777 15.1097C4.80066 15.0807 4.78642 15.0659 4.75809 15.0687C4.75809 15.0687 4.75871 15.068 4.75784 15.0642C4.75187 15.0579 4.74678 15.0555 4.74168 15.053C4.74168 15.053 4.74244 15.0526 4.74163 15.0486C4.73565 15.0423 4.73049 15.0399 4.72534 15.0375C4.72534 15.0375 4.7261 15.037 4.72537 15.033C4.71942 15.0266 4.71419 15.0243 4.70898 15.0221C4.70898 15.0221 4.70899 15.0229 4.70862 15.0232C4.70016 15.0025 4.697 14.9777 4.68324 14.9608C4.47952 14.711 4.30093 14.445 4.12865 14.1754C4.04819 14.0494 3.97923 13.9168 3.90528 13.7871C3.69446 13.4174 3.52892 13.0294 3.39587 12.629C3.31816 12.3951 3.24733 12.1591 3.20264 11.9168C3.16894 11.7341 3.13041 11.5522 3.09622 11.3695C3.08579 11.3139 3.08065 11.257 3.07651 11.2004C3.0637 11.0253 3.04768 10.8502 3.04208 10.6749C3.0362 10.491 3.03689 10.3067 3.0423 10.1227C3.04647 9.98098 3.05875 9.83925 3.07404 9.69814C3.0918 9.53415 3.10937 9.36955 3.14042 9.20759C3.18565 8.97165 3.23553 8.73618 3.29658 8.50358C3.39819 8.1165 3.54143 7.74265 3.71269 7.37801C3.91323 6.95104 4.15592 6.54709 4.43661 6.16423C4.60292 5.93739 4.77986 5.71751 4.97862 5.51459C5.09911 5.39157 5.21256 5.26172 5.3396 5.14522C5.58225 4.92273 5.83399 4.70984 6.10342 4.51587C6.31842 4.36108 6.53884 4.21422 6.76889 4.08137C7.04342 3.92284 7.32643 3.77889 7.62052 3.65457C7.88929 3.54094 8.16203 3.43775 8.44252 3.3542C8.77695 3.25457 9.11546 3.16941 9.46223 3.11757C9.63353 3.09198 9.80458 3.06508 9.97646 3.04386C10.0705 3.03226 10.1662 3.03412 10.2607 3.02494C10.5841 2.99348 10.9082 3.01337 11.2319 3.01239C11.3398 3.01205 11.4479 3.02861 11.5557 3.04004C11.6903 3.05433 11.8249 3.06993 11.959 3.08755C12.0718 3.10235 12.1847 3.11737 12.2962 3.13835C12.6671 3.20808 13.0328 3.29789 13.3873 3.42271C13.6166 3.50343 13.8417 3.59548 14.0658 3.68858C14.4888 3.86427 14.8811 4.09198 15.2598 4.34134C15.4093 4.43979 15.5555 4.54277 15.7088 4.64465Z" fill="#F6B545"/>
<path d="M4.86972 15.1951C4.96238 15.2592 5.05048 15.3274 5.1401 15.3937C5.23194 15.4616 5.32526 15.5277 5.42652 15.6005C5.73832 15.817 6.0569 16.0039 6.39057 16.1678C6.47461 16.2091 6.55613 16.255 6.63881 16.2988C6.63017 16.3104 6.62206 16.3223 6.61276 16.3332C6.59501 16.3541 6.57659 16.3746 6.55804 16.4007C6.5454 16.406 6.53317 16.4059 6.51484 16.4061C6.46716 16.3789 6.42621 16.3503 6.38392 16.3237C6.15799 16.1818 5.92931 16.0435 5.70645 15.8973C5.56646 15.8054 5.43441 15.7025 5.30006 15.603C5.25315 15.5683 5.20912 15.5299 5.16538 15.4915C5.07172 15.4093 4.97862 15.3265 4.88671 15.2426C4.87531 15.2322 4.87258 15.2132 4.86972 15.1951Z" fill="#FBF3CD"/>
<path d="M4.75885 15.0736C4.78641 15.0658 4.80065 15.0806 4.80752 15.11C4.79151 15.1031 4.77557 15.0909 4.75885 15.0736Z" fill="#E87F03"/>
<path d="M4.82506 15.1343C4.82799 15.134 4.83268 15.1379 4.83902 15.1463C4.83606 15.1467 4.83143 15.1426 4.82506 15.1343Z" fill="#E87F03"/>
<path d="M4.8082 15.1189C4.81179 15.1177 4.81651 15.1207 4.82275 15.1277C4.81928 15.1289 4.8143 15.126 4.8082 15.1189Z" fill="#E87F03"/>
<path d="M4.74211 15.0573C4.74677 15.0553 4.75187 15.0579 4.75765 15.0648C4.75307 15.0668 4.74781 15.0644 4.74211 15.0573Z" fill="#E87F03"/>
<path d="M4.72563 15.042C4.73048 15.0399 4.73564 15.0423 4.74136 15.0493C4.7366 15.0514 4.73127 15.049 4.72563 15.042Z" fill="#E87F03"/>
<path d="M4.7092 15.0265C4.7142 15.0242 4.71943 15.0266 4.72507 15.0336C4.72014 15.0358 4.71478 15.0334 4.7092 15.0265Z" fill="#E87F03"/>
<path d="M6.64479 16.2984C6.55613 16.2553 6.47461 16.2093 6.39056 16.1681C6.0569 16.0042 5.73832 15.8172 5.43178 15.6024C5.47695 15.4805 5.52204 15.3614 5.57457 15.2452C5.76067 14.8337 5.96094 14.4284 6.18 14.032C6.30381 13.808 6.43695 13.5885 6.56733 13.3678C6.61789 13.2822 6.67157 13.1982 6.72596 13.1148C6.73596 13.0995 6.75622 13.0902 6.77795 13.0851C6.78462 13.1232 6.78509 13.1544 6.78503 13.1919C6.78465 13.2147 6.78479 13.2312 6.78449 13.2547C6.77973 13.4217 6.77538 13.5817 6.77062 13.7492C6.76999 13.8189 6.7696 13.8809 6.76962 13.943C6.76964 14.0041 6.77008 14.0651 6.77032 14.1238C6.8742 14.1414 8.81521 14.1373 8.87874 14.1196C8.87874 13.9952 8.87874 13.8689 8.87874 13.7356C8.87752 13.6624 8.87629 13.5961 8.87629 13.5226C8.87744 13.3961 8.87833 13.277 8.87654 13.1579C8.87613 13.1303 8.86656 13.1028 8.8628 13.0683C8.86648 13.0149 8.87024 12.9684 8.87016 12.9219C8.87008 12.6474 8.8691 12.373 8.86836 12.0986C8.86836 12.0961 8.8673 12.0935 8.86967 12.0856C8.87441 12.0518 8.87776 12.0234 8.87784 11.9951C8.87817 11.6995 8.87776 11.4039 8.87817 11.1084C8.87842 10.9295 8.87973 10.7506 8.88537 10.5742C8.90401 10.5891 8.91979 10.6 8.93124 10.6143C9.02208 10.7268 9.1121 10.8399 9.20229 10.9529C9.35331 11.1418 9.50393 11.3311 9.65536 11.5198C9.89076 11.813 10.1276 12.1053 10.3621 12.3991C10.5541 12.6395 10.7436 12.8816 10.9342 13.1229C10.9846 13.1869 11.0347 13.2512 11.0859 13.3146C11.2296 13.4926 11.3743 13.6699 11.5178 13.848C11.5935 13.9419 11.6673 14.0371 11.744 14.1344C12.585 14.1344 13.4266 14.1344 14.2681 14.1342C14.276 14.1342 14.2841 14.1319 14.2919 14.1301C14.2941 14.1296 14.2961 14.1273 14.2977 14.1254C14.2993 14.1234 14.3004 14.1209 14.3034 14.1158C14.2529 14.0542 14.2004 13.9923 14.1504 13.9286C14.1036 13.8693 14.0594 13.808 14.0217 13.7463C14.1207 13.745 14.212 13.745 14.3034 13.745C14.3061 13.7396 14.3089 13.7341 14.3116 13.7285C14.213 13.6136 14.1222 13.4928 14.0154 13.3781C13.908 13.2431 13.8023 13.1129 13.6954 12.9835C13.5249 12.7772 13.3543 12.5711 13.1826 12.3657C13.1408 12.3157 13.0949 12.2688 13.0481 12.2159C13.0299 12.1902 13.0157 12.1682 12.999 12.1481C12.848 11.9656 12.696 11.7837 12.5452 11.601C12.3644 11.3817 12.185 11.1612 12.0036 10.9423C11.9416 10.8674 11.8756 10.7956 11.8095 10.7176C11.7374 10.6289 11.6671 10.5451 11.5941 10.4567C11.5775 10.4331 11.5646 10.4133 11.5496 10.3951C11.4458 10.2689 11.342 10.1426 11.2372 10.0171C11.2119 9.98704 11.1827 9.95997 11.1541 9.92629C11.109 9.86896 11.065 9.81684 11.0266 9.76347C11.0388 9.75803 11.047 9.75499 11.0518 9.74932C11.1728 9.60385 11.2938 9.4583 11.4141 9.31236C11.4993 9.20898 11.5826 9.1042 11.6684 9.0012C11.7675 8.88203 11.8693 8.7648 11.9684 8.64562C12.0759 8.51633 12.1809 8.3851 12.2883 8.25573C12.4125 8.10622 12.5382 7.95779 12.6632 7.80875C12.7764 7.67383 12.8899 7.53914 13.0024 7.4037C13.1031 7.28248 13.2032 7.16076 13.3024 7.03846C13.3303 7.00414 13.3543 6.96702 13.3845 6.9284C13.4283 6.88617 13.4678 6.84672 13.5127 6.80665C13.5257 6.79601 13.5334 6.78599 13.5409 6.77591C13.5407 6.77583 13.541 6.77629 13.541 6.77629C13.598 6.75373 13.6569 6.73456 13.7119 6.70806C13.9539 6.59131 14.194 6.47096 14.4364 6.35495C14.5793 6.28655 14.7242 6.22161 14.8701 6.15906C15.0878 6.06571 15.3056 5.97221 15.5262 5.88543C15.792 5.78091 16.0606 5.68297 16.3284 5.58326C16.3685 5.5683 16.4111 5.55922 16.4616 5.55176C16.4847 5.57016 16.4989 5.58424 16.5147 5.60337C16.6749 5.85226 16.8291 6.09835 16.9604 6.35676C16.9792 6.39371 17.0027 6.42851 17.024 6.46431C17.0735 6.57611 17.1235 6.68771 17.1724 6.79975C17.307 7.10839 17.4115 7.42674 17.5122 7.75176C17.5321 7.83411 17.5456 7.91268 17.5639 7.99031C17.6357 8.29478 17.6872 8.60221 17.7218 8.91828C17.7529 9.23123 17.7666 9.53936 17.7554 9.84764C17.7494 10.0155 17.7327 10.1833 17.7145 10.3505C17.6963 10.5177 17.6747 10.6847 17.6466 10.8505C17.5486 11.4284 17.3753 11.9861 17.1328 12.5236C16.9639 12.8981 16.7647 13.2576 16.5328 13.6007C16.2758 13.9811 15.9852 14.3355 15.6612 14.6665C15.2978 15.0378 14.8975 15.3677 14.463 15.6609C14.1134 15.8967 13.7455 16.1037 13.3594 16.2804C12.9489 16.4682 12.5254 16.6249 12.0841 16.7351C11.8765 16.787 11.6678 16.8366 11.4572 16.8759C11.2281 16.9187 10.9982 16.9599 10.7635 16.9703C10.6496 16.9754 10.5362 16.9916 10.4225 17.0021C10.3792 17.006 10.3357 17.0089 10.2923 17.0101C10.2406 17.0115 10.1887 17.0104 10.137 17.0107C9.84825 17.0125 9.55953 17.0148 9.26517 16.9784C9.14555 16.9641 9.03271 16.952 8.92085 16.9346C8.72061 16.9033 8.52069 16.8697 8.32102 16.8351C8.22789 16.8189 8.13567 16.7981 8.03629 16.7797C7.95766 16.7583 7.88625 16.735 7.81383 16.7152C7.42227 16.6076 7.04286 16.4696 6.67354 16.306C6.66619 16.3027 6.65837 16.3005 6.64479 16.2984Z" fill="#F29C09"/>
<path d="M17.0301 6.464C17.0027 6.42832 16.9792 6.39352 16.9604 6.35657C16.8291 6.09816 16.6749 5.85206 16.5173 5.59882C16.5235 5.58498 16.5287 5.58057 16.5339 5.57617C16.5904 5.58301 16.5969 5.63683 16.6235 5.66898C16.6762 5.73287 16.7177 5.80525 16.7628 5.87478C16.8238 5.96887 16.8837 6.06357 16.9441 6.15805C16.9778 6.21079 17.0106 6.26398 17.0454 6.31606C17.052 6.32597 17.0658 6.33157 17.0818 6.33942C17.0585 6.37772 17.0886 6.40674 17.1054 6.44331C17.0832 6.45369 17.0597 6.45879 17.0301 6.464Z" fill="#FCF5D0"/>
<path d="M16.5337 5.57059C16.5287 5.58064 16.5235 5.58504 16.5157 5.59381C16.4989 5.5841 16.4847 5.57003 16.4678 5.55184C16.4132 5.47263 16.3614 5.39755 16.3076 5.31763C16.3271 5.32125 16.3552 5.32426 16.3693 5.33918C16.4179 5.3908 16.4631 5.44559 16.5066 5.50132C16.5204 5.51907 16.5248 5.54355 16.5337 5.57059Z" fill="#FBEDB4"/>
<path d="M15.7669 4.68591C15.7598 4.68337 15.7541 4.67593 15.7484 4.66357C15.755 4.66611 15.7617 4.67355 15.7669 4.68591Z" fill="#E87F03"/>
<path d="M15.7935 4.70465C15.793 4.70775 15.7884 4.70924 15.7823 4.70805C15.7836 4.70459 15.7865 4.70382 15.7935 4.70465Z" fill="#E87F03"/>
<path d="M15.7817 4.70186C15.7773 4.70365 15.7728 4.70047 15.7664 4.69349C15.7702 4.6921 15.7759 4.69449 15.7817 4.70186Z" fill="#E87F03"/>
<path d="M8.88055 10.5717C8.87973 10.7506 8.87842 10.9295 8.87817 11.1083C8.87777 11.4039 8.87817 11.6995 8.87785 11.9951C8.87777 12.0235 8.8745 12.0518 8.86395 12.0876C8.83803 12.1071 8.81889 12.1174 8.80377 12.1316C8.32985 12.5766 7.85647 13.022 7.38278 13.4671C7.29971 13.5452 7.21566 13.6223 7.1258 13.699C7.05778 13.6724 6.99799 13.6438 6.9258 13.65C6.90492 13.6518 6.86848 13.632 6.86194 13.6144C6.84635 13.5726 6.83645 13.525 6.87633 13.4862C6.90042 13.4899 6.92164 13.493 6.94275 13.4967C7.01227 13.5087 7.05534 13.4779 7.08557 13.421C7.13396 13.3298 7.12031 13.2696 7.03974 13.232C6.9968 13.212 6.98294 13.2153 6.96389 13.255C6.95624 13.2708 6.95059 13.2894 6.95095 13.3067C6.95194 13.3551 6.9244 13.3812 6.87104 13.407C6.8631 13.378 6.85934 13.3544 6.85016 13.3328C6.83602 13.2998 6.8432 13.2505 6.78492 13.2477C6.78479 13.2312 6.78465 13.2146 6.79071 13.1911C6.8164 13.1588 6.8359 13.1335 6.85799 13.1048C6.83413 13.086 6.81804 13.0733 6.80196 13.0606C6.80212 12.7268 6.80251 12.393 6.80203 12.0592C6.80199 12.0338 6.79583 12.0084 6.79624 11.9765C6.8191 11.956 6.84002 11.9438 6.85709 11.9279C7.15652 11.6484 7.45554 11.3686 7.75454 11.0887C8.0982 10.7671 8.44212 10.4456 8.78529 10.1234C9.27188 9.6664 9.75773 9.2086 10.2442 8.7515C10.6126 8.40557 10.9816 8.06041 11.3501 7.71462C11.7787 7.31241 12.2075 6.91037 12.6353 6.50741C12.9007 6.25749 13.1641 6.00572 13.429 5.75545C13.4752 5.71178 13.5259 5.67238 13.5725 5.62899C13.587 5.61546 13.5946 5.59527 13.6054 5.57812C13.7926 5.57812 13.9799 5.57812 14.1696 5.57812C14.174 5.61901 14.1496 5.63945 14.1294 5.6632C14.0581 5.7475 13.9881 5.83275 13.9182 5.91815C13.9101 5.92811 13.9062 5.94125 13.8933 5.95896C13.8692 5.97602 13.8482 5.98404 13.8357 5.99862C13.7912 6.05061 13.7503 6.10544 13.7065 6.15809C13.5838 6.30587 13.4602 6.45304 13.3372 6.60059C13.2495 6.70575 13.161 6.81035 13.0749 6.91668C12.9957 7.0146 12.9191 7.11451 12.8377 7.21749C12.8061 7.24979 12.776 7.27644 12.7507 7.30678C12.492 7.61709 12.2343 7.92809 11.976 8.23871C11.782 8.47224 11.5878 8.70561 11.3935 8.9389C11.2279 9.13766 11.0624 9.33657 10.8957 9.53455C10.8719 9.56271 10.8629 9.5862 10.8903 9.6163C10.9347 9.66508 10.9775 9.71518 11.021 9.76473C11.065 9.81677 11.109 9.86889 11.1491 9.92902C11.1295 9.95119 11.1133 9.96504 11.0979 9.97959C10.7528 10.3071 10.4079 10.6346 10.0629 10.9619C10.0417 10.982 10.0186 11.0003 9.99739 11.0203C9.91816 11.0946 9.83934 11.1692 9.75561 11.2411C9.622 11.0788 9.49273 10.9195 9.36452 10.7594C9.21317 10.5704 9.06288 10.3808 8.9117 10.1919C8.9045 10.1828 8.89273 10.177 8.87114 10.1606C8.86575 10.3064 8.86158 10.4391 8.88055 10.5717Z" fill="#FCE064"/>
<path d="M13.5978 5.57775C13.5946 5.5953 13.587 5.6155 13.5724 5.62902C13.5259 5.67242 13.4752 5.71181 13.429 5.75547C13.1641 6.00574 12.9007 6.25752 12.6353 6.50743C12.2075 6.91039 11.7787 7.31243 11.3501 7.71465C10.9816 8.06038 10.6126 8.40562 10.2442 8.75155C9.75773 9.20865 9.27188 9.66645 8.78528 10.1235C8.44211 10.4457 8.0982 10.767 7.75453 11.0888C7.45554 11.3686 7.15652 11.6485 6.85708 11.9279C6.84002 11.9439 6.8191 11.956 6.79462 11.9701C6.78875 11.3476 6.78803 10.7249 6.78837 10.1022C6.78838 10.0717 6.79763 10.0412 6.80889 10.0034C6.83624 9.97987 6.85903 9.96563 6.87807 9.94774C7.35852 9.49601 7.83941 9.04475 8.31832 8.59154C8.48807 8.43082 8.65266 8.26521 8.82036 8.10255C8.83083 8.09243 8.84849 8.08901 8.8628 8.08248C8.8628 8.4295 8.8628 8.77652 8.8628 9.14167C8.92592 9.06591 8.98013 9.00336 9.03157 8.9388C9.31063 8.58819 9.5888 8.23697 9.86779 7.88629C10.1238 7.56456 10.3803 7.2432 10.6369 6.92188C10.933 6.55112 11.2293 6.18052 11.5257 5.81001C11.5718 5.75239 11.6244 5.69878 11.6644 5.63764C11.6985 5.58545 11.741 5.57521 11.8005 5.57544C12.2662 5.57729 12.7321 5.57633 13.1979 5.57641C13.3286 5.57643 13.4594 5.57702 13.5978 5.57775Z" fill="#FDEFB1"/>
<path d="M6.8018 9.56258C6.79699 9.53792 6.78798 9.51326 6.78795 9.4886C6.78731 8.8066 6.7873 8.12469 6.78835 7.44274C6.78842 7.40184 6.79817 7.36096 6.80977 7.31249C6.85651 7.27485 6.90034 7.24813 6.93676 7.21421C7.27879 6.89553 7.62005 6.57609 7.96054 6.25591C8.17151 6.05751 8.38127 5.85795 8.59002 5.65743C8.61144 5.63685 8.62207 5.60611 8.63769 5.58008C8.71365 5.58008 8.78961 5.58008 8.86484 5.58008C8.86933 5.58465 8.87628 5.58846 8.8762 5.59214C8.87375 5.72612 8.87081 5.86009 8.8677 5.99407C8.86704 6.01991 8.86484 6.04573 8.86484 6.07156C8.8641 6.55563 8.86394 7.0397 8.86222 7.52377C8.86206 7.56449 8.85151 7.60518 8.83924 7.65322C8.80466 7.67974 8.77326 7.69568 8.74906 7.71855C8.28847 8.15487 7.82868 8.59198 7.36857 9.02877C7.34553 9.05063 7.32038 9.07047 7.29699 9.09202C7.21699 9.16561 7.13648 9.23881 7.05778 9.31364C6.97152 9.39579 6.88705 9.47957 6.8018 9.56258Z" fill="#FDEFB1"/>
<path d="M8.62977 5.57914C8.62208 5.60611 8.61145 5.63686 8.59003 5.65743C8.38128 5.85795 8.17152 6.05753 7.96055 6.25592C7.62006 6.57609 7.27881 6.89554 6.93677 7.21421C6.90035 7.24814 6.85652 7.27486 6.81065 7.30615C6.80429 7.09487 6.80318 6.88237 6.80257 6.66986C6.80217 6.52989 6.80243 6.38991 6.80255 6.24994C6.80265 6.13893 6.79903 6.02842 6.75809 5.92245C6.75625 5.91769 6.75536 5.91231 6.75535 5.90722C6.7552 5.80145 6.75524 5.69567 6.75524 5.58515C6.78223 5.58208 6.80296 5.57765 6.82369 5.57765C7.42308 5.57756 8.02247 5.57791 8.62977 5.57914Z" fill="#FCE164"/>
<path d="M6.80194 9.56955C6.88705 9.47947 6.97152 9.39569 7.05778 9.31362C7.13648 9.23871 7.21699 9.16559 7.29699 9.09192C7.32038 9.07037 7.34553 9.05053 7.36856 9.02867C7.82868 8.59188 8.28838 8.15477 8.74905 7.71846C8.77326 7.69558 8.80466 7.67964 8.83826 7.65942C8.84505 7.76811 8.84562 7.87784 8.84791 7.9876C8.84848 8.01514 8.85461 8.0426 8.8605 8.0762C8.84848 8.08888 8.83082 8.09231 8.82035 8.10242C8.65265 8.265 8.48806 8.4307 8.31831 8.59133C7.83939 9.04454 7.35852 9.49581 6.87806 9.94754C6.85902 9.96543 6.83623 9.97974 6.80973 9.99678C6.80353 9.85746 6.80281 9.71704 6.80194 9.56955Z" fill="#FDE164"/>
<path d="M12.8414 7.21352C12.9191 7.1145 12.9957 7.01458 13.0749 6.91667C13.161 6.81033 13.2495 6.70574 13.3372 6.60058C13.4602 6.45302 13.5838 6.30586 13.7065 6.15807C13.7503 6.10542 13.7912 6.0506 13.8357 5.99861C13.8482 5.98402 13.8692 5.97601 13.8921 5.96418C13.9873 5.96338 14.0769 5.96338 14.1818 5.96338C14.1267 6.0774 14.0397 6.15246 13.9741 6.24082C13.9069 6.3312 13.828 6.41372 13.7564 6.50118C13.6847 6.58865 13.6154 6.67799 13.5431 6.77138C13.541 6.77624 13.5407 6.77579 13.5364 6.77762C13.5238 6.78872 13.5155 6.79797 13.5073 6.80724C13.4678 6.84669 13.4283 6.88613 13.3783 6.92873C13.2343 7.00421 13.1011 7.07676 12.9675 7.14873C12.9258 7.17112 12.8834 7.19197 12.8414 7.21352Z" fill="#E68C42"/>
<path d="M6.79815 13.0627C6.81803 13.0732 6.83412 13.0858 6.85798 13.1047C6.83589 13.1334 6.8164 13.1587 6.79123 13.1847C6.78509 13.1543 6.78462 13.123 6.78371 13.0851C6.78696 13.074 6.79066 13.0695 6.79815 13.0627Z" fill="#FBDE65"/>
<path d="M11.8114 10.7222C11.8755 10.7954 11.9416 10.8672 12.0036 10.9421C12.185 11.161 12.3643 11.3814 12.5452 11.6007C12.696 11.7835 12.848 11.9653 12.999 12.1478C13.0157 12.168 13.0299 12.1899 13.0431 12.218C12.9938 12.2641 12.9445 12.3009 12.9 12.3425C12.4907 12.7257 12.0823 13.11 11.6728 13.4931C11.6505 13.514 11.621 13.5279 11.5908 13.5415C11.2103 13.0671 10.8335 12.5965 10.4574 12.1256C10.4347 12.0972 10.4165 12.0656 10.4018 12.0336C10.4372 12.0097 10.4698 11.9902 10.4964 11.9651C10.913 11.5702 11.3288 11.1745 11.745 10.7793C11.7661 10.7593 11.7891 10.7411 11.8114 10.7222Z" fill="#FDEFB1"/>
<path d="M10.3962 12.0357C10.4165 12.0658 10.4347 12.0974 10.4574 12.1258C10.8335 12.5967 11.2103 13.0674 11.5927 13.5464C11.6335 13.5977 11.6737 13.6378 11.702 13.6843C11.7322 13.734 11.7706 13.7463 11.8284 13.746C12.4031 13.744 12.9778 13.7449 13.5525 13.7445C13.5823 13.7445 13.6122 13.7417 13.6494 13.7414C13.7758 13.7443 13.8949 13.7459 14.0141 13.7476C14.0594 13.808 14.1036 13.8692 14.1504 13.9287C14.2004 13.9923 14.2529 14.0542 14.3034 14.1158C14.3004 14.121 14.2993 14.1234 14.2977 14.1254C14.2961 14.1273 14.2941 14.1296 14.2919 14.1302C14.2841 14.1319 14.276 14.1342 14.2681 14.1342C13.4266 14.1344 12.585 14.1344 11.744 14.1344C11.6673 14.0372 11.5935 13.942 11.5178 13.848C11.3743 13.6699 11.2296 13.4926 11.0859 13.3146C11.0347 13.2512 10.9846 13.1869 10.9342 13.1229C10.7436 12.8816 10.554 12.6395 10.3621 12.3991C10.1276 12.1053 9.89076 11.813 9.65535 11.5197C9.50392 11.3311 9.35331 11.1418 9.20229 10.9529C9.1121 10.8399 9.02208 10.7268 8.93123 10.6142C8.91979 10.6001 8.90401 10.589 8.88536 10.5742C8.86157 10.4391 8.86574 10.3063 8.87114 10.1606C8.89272 10.177 8.9045 10.1828 8.91169 10.1919C9.06288 10.3809 9.21316 10.5704 9.36451 10.7593C9.49272 10.9195 9.62199 11.0788 9.75732 11.2461C9.87661 11.396 9.98888 11.5387 10.1025 11.6805C10.1336 11.7193 10.1684 11.7557 10.2025 11.798C10.2677 11.8805 10.332 11.9581 10.3962 12.0357Z" fill="#DD6605"/>
<path d="M13.642 13.7399C13.6122 13.7414 13.5823 13.7443 13.5525 13.7444C12.9778 13.7446 12.4031 13.7439 11.8284 13.7459C11.7706 13.746 11.7322 13.7338 11.702 13.6842C11.6737 13.6376 11.6335 13.5975 11.5967 13.5498C11.621 13.528 11.6505 13.5141 11.6728 13.4931C12.0823 13.11 12.4907 12.7258 12.9 12.3426C12.9445 12.301 12.9938 12.2641 13.0458 12.2227C13.0948 12.2686 13.1408 12.3155 13.1826 12.3656C13.3543 12.5709 13.5249 12.7771 13.6954 12.9834C13.8023 13.1127 13.908 13.243 14.0098 13.3797C13.8865 13.4971 13.7676 13.6075 13.6492 13.7184C13.6442 13.7231 13.6443 13.7327 13.642 13.7399Z" fill="#FAD634"/>
<path d="M10.2014 11.7929C10.1684 11.7555 10.1336 11.7192 10.1024 11.6803C9.98887 11.5385 9.87661 11.3958 9.76205 11.2485C9.83932 11.169 9.91815 11.0944 9.99738 11.0201C10.0186 11.0001 10.0417 10.9819 10.0629 10.9619C10.4079 10.6344 10.7528 10.3069 11.0979 9.97951C11.1132 9.96489 11.1295 9.95104 11.1503 9.93408C11.1827 9.95975 11.2119 9.98682 11.2372 10.017C11.342 10.1425 11.4458 10.2687 11.5496 10.395C11.5646 10.4132 11.5775 10.4329 11.5912 10.4611C11.4778 10.5745 11.363 10.6774 11.2513 10.7831C10.9175 11.099 10.5847 11.416 10.2519 11.733C10.233 11.751 10.2181 11.7728 10.2014 11.7929Z" fill="#FDEEB1"/>
<path d="M7.13206 13.6999C7.21565 13.6223 7.2997 13.5452 7.38277 13.4672C7.85645 13.022 8.32984 12.5766 8.80376 12.1316C8.81888 12.1174 8.83802 12.1071 8.86099 12.093C8.86729 12.0936 8.86835 12.0961 8.86835 12.0986C8.86909 12.3731 8.87007 12.6474 8.87015 12.9219C8.87023 12.9684 8.86647 13.0149 8.85739 13.0693C8.7771 13.1383 8.70122 13.1968 8.63139 13.2612C8.49288 13.3892 8.35682 13.5199 8.22174 13.6512C8.19582 13.6763 8.17882 13.7097 8.15032 13.7407C7.8056 13.7419 7.46823 13.7417 7.13072 13.7363C7.13108 13.7207 7.13157 13.7103 7.13206 13.6999Z" fill="#FCEEB2"/>
<path d="M12.8377 7.21736C12.8834 7.19186 12.9258 7.171 12.9675 7.14862C13.1011 7.07664 13.2343 7.0041 13.3739 6.9314C13.3543 6.96685 13.3302 7.00398 13.3024 7.0383C13.2032 7.1606 13.1031 7.28232 13.0024 7.40354C12.8899 7.53898 12.7764 7.67368 12.6632 7.80865C12.5382 7.95762 12.4125 8.10604 12.2883 8.25564C12.1809 8.38492 12.0759 8.51616 11.9684 8.64545C11.8693 8.76462 11.7675 8.88185 11.6684 9.00103C11.5826 9.10402 11.4993 9.20881 11.4141 9.31219C11.2938 9.4582 11.1728 9.60367 11.0518 9.74914C11.047 9.75482 11.0388 9.75785 11.0266 9.7633C10.9775 9.71499 10.9347 9.66497 10.8903 9.6162C10.8629 9.58609 10.8719 9.5626 10.8957 9.53444C11.0624 9.33646 11.2279 9.13755 11.3935 8.93879C11.5878 8.7055 11.782 8.47205 11.976 8.2386C12.2343 7.9279 12.492 7.61696 12.7507 7.30665C12.776 7.27631 12.8061 7.24966 12.8377 7.21736Z" fill="#DF6606"/>
<path d="M7.13086 13.7415C7.46824 13.7417 7.80562 13.7419 8.15802 13.7425C8.33247 13.7425 8.49191 13.7422 8.65888 13.7429C8.73721 13.7434 8.80794 13.743 8.87875 13.7426C8.87875 13.8689 8.87875 13.9952 8.87875 14.1196C8.81522 14.1373 6.8742 14.1414 6.77033 14.1238C6.77008 14.0651 6.76965 14.0041 6.76962 13.943C6.76961 13.8809 6.76999 13.8189 6.77816 13.7502C6.90103 13.743 7.01594 13.7422 7.13086 13.7415Z" fill="#DB6604"/>
<path d="M10.2025 11.7979C10.2182 11.7729 10.233 11.7511 10.2519 11.7331C10.5847 11.4161 10.9175 11.0991 11.2513 10.7831C11.363 10.6775 11.4778 10.5746 11.5939 10.4658C11.6671 10.545 11.7374 10.6288 11.8095 10.7175C11.7891 10.7413 11.7661 10.7594 11.745 10.7794C11.3288 11.1746 10.913 11.5704 10.4964 11.9652C10.4698 11.9904 10.4372 12.0098 10.4018 12.0338C10.332 11.958 10.2677 11.8804 10.2025 11.7979Z" fill="#FDE164"/>
<path d="M8.65135 13.7419C8.49191 13.7421 8.33246 13.7424 8.16536 13.7409C8.17883 13.7095 8.19583 13.6762 8.22175 13.651C8.35683 13.5197 8.49289 13.3892 8.6314 13.2612C8.70123 13.1967 8.77711 13.1382 8.85569 13.0762C8.86656 13.1028 8.87613 13.1302 8.87654 13.1579C8.87834 13.2769 8.87744 13.3961 8.87073 13.5219C8.77147 13.5701 8.71243 13.6454 8.65225 13.7193C8.64825 13.7241 8.65144 13.7342 8.65135 13.7419Z" fill="#FBDE65"/>
<path d="M13.6494 13.7414C13.6443 13.7328 13.6442 13.7233 13.6492 13.7187C13.7676 13.6077 13.8865 13.4973 14.0109 13.385C14.1222 13.4929 14.213 13.6136 14.3117 13.7286C14.3089 13.7341 14.3061 13.7396 14.3034 13.7451C14.212 13.7451 14.1207 13.7451 14.0217 13.7463C13.8949 13.746 13.7758 13.7443 13.6494 13.7414Z" fill="#FCEDB0"/>
<path d="M7.13073 13.7362C7.01594 13.7422 6.90103 13.7429 6.77857 13.7427C6.77539 13.5816 6.77973 13.4217 6.78449 13.2546C6.8432 13.2505 6.83601 13.2998 6.85016 13.3328C6.85934 13.3543 6.8631 13.3779 6.87104 13.407C6.92439 13.3812 6.95194 13.355 6.95095 13.3066C6.95059 13.2894 6.95624 13.2708 6.96389 13.2549C6.98293 13.2153 6.9968 13.2119 7.03974 13.232C7.1203 13.2696 7.13395 13.3298 7.08557 13.421C7.05534 13.4779 7.01227 13.5086 6.94274 13.4966C6.92164 13.4929 6.90041 13.4899 6.87633 13.4861C6.83645 13.525 6.84634 13.5725 6.86194 13.6144C6.86847 13.6319 6.90491 13.6517 6.9258 13.6499C6.99799 13.6437 7.05778 13.6723 7.1258 13.699C7.13158 13.7102 7.13109 13.7206 7.13073 13.7362Z" fill="#FBDE65"/>
<path d="M8.65888 13.7429C8.65144 13.7343 8.64825 13.7242 8.65226 13.7193C8.71244 13.6454 8.77147 13.5701 8.86951 13.5293C8.87629 13.5962 8.87752 13.6624 8.87875 13.7357C8.80794 13.743 8.73721 13.7434 8.65888 13.7429Z" fill="#FBEDB4"/>
<path d="M13.5127 6.80649C13.5155 6.79787 13.5238 6.7886 13.5366 6.77759C13.5334 6.78583 13.5257 6.79585 13.5127 6.80649Z" fill="#F6B545"/>
<path d="M13.6672 1.14364C12.13 0.592881 10.7754 0.481121 10.2903 0.494087L10.695 0.0273438C12.0948 0.0957996 13.4532 0.558914 13.9575 0.781914L13.6672 1.14364Z" fill="#FDF3C8"/>
<path d="M15.7359 1.74243L15.4293 2.01081C15.7498 2.22551 16.0889 2.49959 16.2183 2.6098L16.4963 2.31808C16.4734 2.27141 15.9798 1.91487 15.7359 1.74243Z" fill="#FEF4C9"/>
<path d="M8.3197 2.37028C10.0749 2.12984 11.6564 2.38569 12.2278 2.54367L13.6672 1.13346C12.4796 0.664921 10.9251 0.509256 10.2963 0.48999L8.3197 2.37028Z" fill="#FCE996"/>
<path d="M18.6917 4.87361L18.4751 5.04864C17.628 3.73242 16.9065 3.08962 16.6517 2.93273L16.9174 2.67603C17.7972 3.4726 18.4669 4.47299 18.6917 4.87361Z" fill="#FEF4C9"/>
</g>
<defs>
<clipPath id="clip0_1020_30038">
<rect width="20" height="20" fill="white"/>
</clipPath>
</defs>
</svg>
