<svg width="49" height="37" viewBox="0 0 49 37" fill="none" xmlns="http://www.w3.org/2000/svg">
<path fill-rule="evenodd" clip-rule="evenodd" d="M12.8926 24.8344C12.8926 21.3359 20.8521 18.4973 30.6741 18.4973C40.4934 18.4973 48.453 21.336 48.453 24.8344V30.6589C48.453 34.1575 40.4934 36.9961 30.6741 36.9961C20.8521 36.9961 12.8926 34.1574 12.8926 30.6589C12.8926 28.7175 12.8926 26.7759 12.8926 24.8344Z" fill="#FE9923"/>
<path fill-rule="evenodd" clip-rule="evenodd" d="M30.6741 18.4973C40.4934 18.4973 48.453 21.336 48.453 24.8344C48.453 28.3356 40.4934 31.1716 30.6741 31.1716C20.8521 31.1716 12.8926 28.3357 12.8926 24.8344C12.8925 21.3359 20.8521 18.4973 30.6741 18.4973Z" fill="#FECD3D"/>
<path fill-rule="evenodd" clip-rule="evenodd" d="M30.6741 21.4585C38.4865 21.4585 44.8182 22.9719 44.8182 24.8343C44.8182 26.6995 38.4865 28.2101 30.6741 28.2101C22.8618 28.2101 16.5273 26.6994 16.5273 24.8343C16.5273 22.9719 22.8618 21.4585 30.6741 21.4585Z" fill="#FEA832"/>
<path d="M21.6728 33.4538L23.1917 33.4565V36.407C22.6709 36.3224 22.1664 36.227 21.6728 36.1234V33.4538ZM43.6455 31.8914V34.9918C44.1935 34.7818 44.7007 34.561 45.167 34.3292V31.8887L43.6455 31.8914ZM27.1646 36.8705C27.6663 36.9087 28.1735 36.936 28.6862 36.9551V34.1356L27.1646 34.1383V36.8705ZM16.1782 34.3292C16.6445 34.561 17.1517 34.7818 17.6998 34.9918V31.8887L16.1782 31.8914V34.3292ZM32.6591 36.9551C33.1744 36.936 33.6789 36.906 34.1779 36.8705V34.1383L32.6591 34.1356V36.9551ZM38.1537 36.407C38.6745 36.3224 39.1817 36.227 39.6725 36.1234V33.4565L38.1537 33.4538V36.407Z" fill="#C85929"/>
<path d="M5.7672 31.875V33.762H7.65148V35.109H5.7672V36.996H4.4202V35.109H2.5332V33.762H4.4202V31.875H5.7672Z" fill="#FEA832"/>
<path d="M40.2401 11.2085V13.0954H42.127V14.4398H40.2401V16.3267H38.893V14.4398H37.0088V13.0954H38.893V11.2085H40.2401Z" fill="#FEA832"/>
<path d="M6.67297 0.00390625V1.89091H8.55725V3.23519H6.67297V5.12219H5.32587V3.23519H3.43896V1.89091H5.32587V0.00390625H6.67297Z" fill="#FEA832"/>
<path fill-rule="evenodd" clip-rule="evenodd" d="M0.872833 21.5403C-0.877761 18.5081 4.59771 12.0701 13.1026 7.16182C21.6076 2.25082 29.9189 0.729256 31.6695 3.75869C32.6403 5.44113 33.611 7.12085 34.5818 8.80057C36.3324 11.8328 30.8569 18.2708 22.352 23.1791C13.8471 28.0901 5.53568 29.6144 3.78508 26.5821C2.8143 24.9025 1.84361 23.2201 0.872833 21.5403Z" fill="#FE9923"/>
<path fill-rule="evenodd" clip-rule="evenodd" d="M13.1026 7.16182C21.6076 2.25082 29.9189 0.729256 31.6695 3.75869C33.4201 6.79094 27.9446 13.2289 19.4397 18.1372C10.9376 23.0482 2.62343 24.5698 0.872833 21.5403C-0.877761 18.5081 4.59771 12.0701 13.1026 7.16182Z" fill="#FECD3D"/>
<path fill-rule="evenodd" clip-rule="evenodd" d="M14.5835 9.72496C21.3488 5.82018 27.5905 3.96318 28.523 5.57746C29.4556 7.19174 24.7246 11.6664 17.9594 15.574C11.1941 19.4788 4.95513 21.3358 4.0226 19.7215C3.09007 18.1072 7.81826 13.6325 14.5835 9.72496Z" fill="#FEA832"/>
<path d="M19.2025 21.6984L20.6123 24.1389C20.157 24.3789 19.7042 24.608 19.2516 24.826L17.8855 22.4592L19.2025 21.6984ZM7.24805 26.0068L8.46698 28.1173C8.98505 28.0873 9.53592 28.0246 10.114 27.9319L8.56514 25.246L7.24805 26.0068ZM12.7862 24.6134L14.1224 26.9257C14.5995 26.7703 15.0849 26.5985 15.5785 26.4131L14.1032 23.8553L12.7862 24.6134ZM22.6437 19.7105L24.0535 22.151C24.4871 21.8784 24.9124 21.6003 25.3269 21.3194L23.9608 18.9552L22.6437 19.7105ZM32.3512 11.511L31.0341 12.2745L32.5857 14.9577C32.9538 14.5051 33.2837 14.0578 33.57 13.6242L32.3512 11.511ZM27.0612 16.373L28.5364 18.9307C28.9455 18.598 29.3354 18.2627 29.709 17.9272L28.3755 15.6176L27.0612 16.373Z" fill="#C85929"/>
</svg>
