<svg width="20" height="20" viewBox="0 0 20 20" fill="none" xmlns="http://www.w3.org/2000/svg">
<path d="M11.8129 3.51838C11.8139 2.49522 9.72756 1.6665 7.15693 1.6665C4.5863 1.6665 2.50186 2.49614 2.5 3.51838M2.5 3.51838C2.5 4.54153 4.58444 5.37025 7.15693 5.37025C9.72942 5.37025 11.8139 4.54153 11.8139 3.51838L11.8139 10.7036M2.5 3.51838V14.6295C2.50093 15.6527 4.58537 16.4814 7.15693 16.4814C8.40406 16.4814 9.5301 16.2842 10.3656 15.9666M2.50093 7.2221C2.50093 8.24526 4.58538 9.07397 7.15787 9.07397C9.73036 9.07397 11.8148 8.24526 11.8148 7.2221M10.4214 12.2454C9.58133 12.5741 8.42921 12.7778 7.15693 12.7778C4.58537 12.7778 2.50093 11.9491 2.50093 10.9259M17.106 11.2204C18.7424 12.8472 18.7424 15.4862 17.106 17.113C15.4696 18.7399 12.8151 18.7399 11.1787 17.113C9.54221 15.4862 9.54221 12.8472 11.1787 11.2204C12.8151 9.5935 15.4696 9.5935 17.106 11.2204Z" stroke="white" stroke-width="1.67" stroke-linecap="round" stroke-linejoin="round"/>
</svg>
