<svg width="20" height="20" viewBox="0 0 20 20" fill="none" xmlns="http://www.w3.org/2000/svg">
<path d="M6.66665 11.25H13.3333M6.66665 7.08333H9.99998" stroke="#258E5B" stroke-width="1.5" stroke-linecap="round" stroke-linejoin="round"/>
<path d="M5.08234 15.8335C3.99891 15.7269 3.18729 15.4015 2.64297 14.8572C1.66666 13.8809 1.66666 12.3095 1.66666 9.16683V8.75016C1.66666 5.60747 1.66666 4.03612 2.64297 3.05981C3.61928 2.0835 5.19063 2.0835 8.33332 2.0835H11.6667C14.8094 2.0835 16.3807 2.0835 17.357 3.05981C18.3333 4.03612 18.3333 5.60747 18.3333 8.75016V9.16683C18.3333 12.3095 18.3333 13.8809 17.357 14.8572C16.3807 15.8335 14.8094 15.8335 11.6667 15.8335C11.1996 15.8439 10.8276 15.8794 10.4622 15.9627C9.46351 16.1926 8.53876 16.7036 7.62488 17.1492C6.32273 17.7842 5.67165 18.1016 5.26307 17.8044C4.4814 17.2223 5.24544 15.4184 5.41666 14.5835" stroke="#258E5B" stroke-width="1.5" stroke-linecap="round"/>
</svg>
