<svg width="24" height="25" viewBox="0 0 24 25" fill="none" xmlns="http://www.w3.org/2000/svg">
<path d="M3 6.07812H5M5 6.07812H21M5 6.07812V20.0781C5 20.6086 5.21071 21.1173 5.58579 21.4923C5.96086 21.8674 6.46957 22.0781 7 22.0781H17C17.5304 22.0781 18.0391 21.8674 18.4142 21.4923C18.7893 21.1173 19 20.6086 19 20.0781V6.07812H5ZM8 6.07812V4.07812C8 3.54769 8.21071 3.03898 8.58579 2.66391C8.96086 2.28884 9.46957 2.07813 10 2.07812H14C14.5304 2.07813 15.0391 2.28884 15.4142 2.66391C15.7893 3.03898 16 3.54769 16 4.07812V6.07812M10 11.0781V17.0781M14 11.0781V17.0781" stroke="#FDFDFD" stroke-width="2" stroke-linecap="round" stroke-linejoin="round"/>
</svg>
