<svg width="20" height="20" viewBox="0 0 20 20" fill="none" xmlns="http://www.w3.org/2000/svg">
<path d="M13.3332 6.66675C13.13 7.27623 12.712 7.74406 12.1203 8.00635C10.22 8.8488 8.84856 10.2202 8.00611 12.1206C7.74381 12.7123 7.27598 13.1303 6.6665 13.3334" stroke="#258E5B" stroke-width="1.5" stroke-linejoin="round"/>
<path d="M2.6665 17.3334L1.6665 18.3334M17.3332 2.66675L18.3332 1.66675" stroke="#258E5B" stroke-width="1.5" stroke-linecap="round" stroke-linejoin="round"/>
<path d="M8.38663 14.8397L5.16021 11.6133C4.85954 11.3126 4.70921 11.1623 4.54151 11.0928C4.3179 11.0002 4.06666 11.0002 3.84306 11.0928C3.67535 11.1623 3.52502 11.3126 3.22436 11.6133C2.92369 11.914 2.77336 12.0643 2.70389 12.232C2.61127 12.4556 2.61127 12.7068 2.70389 12.9304C2.77336 13.0981 2.92369 13.2485 3.22436 13.5491L6.45078 16.7756C6.75144 17.0762 6.90177 17.2266 7.06948 17.296C7.29308 17.3886 7.54432 17.3886 7.76793 17.296C7.93563 17.2266 8.08596 17.0762 8.38663 16.7756C8.68729 16.4749 8.83762 16.3246 8.90709 16.1569C8.99971 15.9333 8.99971 15.682 8.90709 15.4584C8.83762 15.2907 8.68729 15.1404 8.38663 14.8397Z" fill="#CBE4D8"/>
<path d="M3.22436 13.5491L2.57907 14.1944C1.97069 14.8028 1.6665 15.107 1.6665 15.485C1.6665 15.863 1.97069 16.1672 2.57907 16.7756L3.22436 17.4208C3.83274 18.0292 4.13693 18.3334 4.51492 18.3334C4.89292 18.3334 5.19711 18.0292 5.80549 17.4208L6.45078 16.7756L3.22436 13.5491Z" fill="#CBE4D8"/>
<path d="M14.8395 8.38687L11.613 5.16045C11.3124 4.85979 11.1621 4.70946 11.0926 4.54175C11 4.31815 11 4.06691 11.0926 3.8433C11.1621 3.6756 11.3124 3.52527 11.613 3.2246C11.9137 2.92394 12.064 2.7736 12.2317 2.70414C12.4554 2.61152 12.7066 2.61152 12.9302 2.70414C13.0979 2.7736 13.2482 2.92394 13.5489 3.2246L16.7753 6.45102C17.076 6.75168 17.2263 6.90202 17.2958 7.06972C17.3884 7.29333 17.3884 7.54457 17.2958 7.76817C17.2263 7.93588 17.076 8.08621 16.7753 8.38687C16.4747 8.68754 16.3243 8.83787 16.1566 8.90733C15.933 8.99995 15.6818 8.99995 15.4582 8.90733C15.2905 8.83787 15.1401 8.68754 14.8395 8.38687Z" fill="#CBE4D8"/>
<path d="M13.5489 3.2246L14.1942 2.57932C14.8026 1.97094 15.1068 1.66675 15.4848 1.66675C15.8628 1.66675 16.1669 1.97094 16.7753 2.57932L17.4206 3.2246C18.029 3.83298 18.3332 4.13717 18.3332 4.51517C18.3332 4.89317 18.029 5.19736 17.4206 5.80574L16.7753 6.45102L13.5489 3.2246Z" fill="#CBE4D8"/>
<path d="M5.16021 11.6133L5.69054 11.083L5.16021 11.6133ZM8.38663 14.8397L7.8563 15.37L8.38663 14.8397ZM6.45078 16.7756L6.98111 16.2452L6.45078 16.7756ZM7.76793 17.296L8.05494 17.9889L7.76793 17.296ZM7.06948 17.296L6.78246 17.9889H6.78246L7.06948 17.296ZM8.90709 15.4584L9.6 15.1714V15.1714L8.90709 15.4584ZM8.90709 16.1569L9.6 16.4439V16.4439L8.90709 16.1569ZM3.84306 11.0928L3.55605 10.3999H3.55604L3.84306 11.0928ZM4.54151 11.0928L4.82852 10.3999H4.82852L4.54151 11.0928ZM2.70389 12.232L2.01099 11.945L2.70389 12.232ZM2.70389 12.9304L2.01099 13.2175L2.70389 12.9304ZM5.80549 17.4208L6.33582 17.9512L5.80549 17.4208ZM3.22436 17.4208L2.69403 17.9512H2.69403L3.22436 17.4208ZM2.57907 16.7756L3.1094 16.2452H3.1094L2.57907 16.7756ZM4.51492 18.3334L4.51492 17.5834L4.51492 17.5834L4.51492 18.3334ZM11.613 5.16045L11.0827 5.69078L11.613 5.16045ZM14.8395 8.38687L15.3698 7.85654L14.8395 8.38687ZM16.7753 6.45102L16.245 6.98135L16.7753 6.45102ZM17.2958 7.76817L17.9887 8.05518L17.2958 7.76817ZM17.2958 7.06972L17.9887 6.78271V6.78271L17.2958 7.06972ZM15.4582 8.90733L15.1712 9.60024H15.1712L15.4582 8.90733ZM16.1566 8.90733L16.4436 9.60024H16.4436L16.1566 8.90733ZM11.0926 3.8433L10.3997 3.55629V3.55629L11.0926 3.8433ZM11.0926 4.54175L10.3997 4.82876V4.82877L11.0926 4.54175ZM12.2317 2.70414L11.9447 2.01123L12.2317 2.70414ZM12.9302 2.70414L13.2172 2.01123L12.9302 2.70414ZM17.4206 5.80574L17.9509 6.33607L17.4206 5.80574ZM17.4206 3.2246L17.9509 2.69427V2.69427L17.4206 3.2246ZM16.7753 2.57932L16.245 3.10965V3.10965L16.7753 2.57932ZM18.3332 4.51517L17.5832 4.51517L17.5832 4.51517L18.3332 4.51517ZM4.62988 12.1436L7.8563 15.37L8.91696 14.3094L5.69054 11.083L4.62988 12.1436ZM6.98111 16.2452L3.75469 13.0188L2.69403 14.0795L5.92045 17.3059L6.98111 16.2452ZM7.8563 16.2452C7.69871 16.4028 7.60679 16.4942 7.53442 16.5573C7.46713 16.616 7.45815 16.6125 7.48091 16.6031L8.05494 17.9889C8.24541 17.91 8.39545 17.7967 8.52042 17.6877C8.6403 17.5831 8.77388 17.449 8.91696 17.3059L7.8563 16.2452ZM5.92045 17.3059C6.06352 17.449 6.1971 17.5831 6.31699 17.6877C6.44196 17.7967 6.59199 17.91 6.78246 17.9889L7.35649 16.6031C7.37926 16.6125 7.37027 16.616 7.30299 16.5573C7.23061 16.4942 7.1387 16.4028 6.98111 16.2452L5.92045 17.3059ZM7.48091 16.6031C7.44108 16.6196 7.39632 16.6196 7.35649 16.6031L6.78246 17.9889C7.18984 18.1577 7.64756 18.1577 8.05494 17.9889L7.48091 16.6031ZM7.8563 15.37C8.01389 15.5276 8.10523 15.6195 8.16836 15.6919C8.22705 15.7592 8.22361 15.7682 8.21418 15.7454L9.6 15.1714C9.5211 14.9809 9.40777 14.8309 9.29876 14.7059C9.19419 14.586 9.06003 14.4525 8.91696 14.3094L7.8563 15.37ZM8.91696 17.3059C9.06003 17.1628 9.19419 17.0292 9.29876 16.9094C9.40777 16.7844 9.5211 16.6343 9.6 16.4439L8.21418 15.8698C8.22361 15.8471 8.22705 15.8561 8.16836 15.9234C8.10523 15.9957 8.01389 16.0876 7.8563 16.2452L8.91696 17.3059ZM8.21418 15.7454C8.23068 15.7853 8.23068 15.83 8.21418 15.8698L9.6 16.4439C9.76874 16.0365 9.76874 15.5788 9.6 15.1714L8.21418 15.7454ZM3.75469 12.1436C3.91228 11.986 4.00419 11.8947 4.07657 11.8316C4.14385 11.7729 4.15284 11.7763 4.13007 11.7857L3.55604 10.3999C3.36557 10.4788 3.21554 10.5922 3.09057 10.7012C2.97068 10.8057 2.8371 10.9399 2.69403 11.083L3.75469 12.1436ZM5.69054 11.083C5.54746 10.9399 5.41388 10.8057 5.294 10.7012C5.16903 10.5922 5.01899 10.4788 4.82852 10.3999L4.2545 11.7857C4.23173 11.7763 4.24071 11.7729 4.308 11.8316C4.38037 11.8947 4.47229 11.986 4.62988 12.1436L5.69054 11.083ZM4.13007 11.7857C4.1699 11.7692 4.21466 11.7692 4.2545 11.7857L4.82852 10.3999C4.42114 10.2312 3.96342 10.2312 3.55605 10.3999L4.13007 11.7857ZM2.69403 11.083C2.55095 11.226 2.4168 11.3596 2.31223 11.4795C2.20322 11.6045 2.08988 11.7545 2.01099 11.945L3.3968 12.519C3.38737 12.5418 3.38394 12.5328 3.44263 12.4655C3.50575 12.3931 3.5971 12.3012 3.75469 12.1436L2.69403 11.083ZM3.75469 13.0188C3.5971 12.8612 3.50575 12.7693 3.44263 12.6969C3.38394 12.6296 3.38737 12.6207 3.3968 12.6434L2.01099 13.2175C2.08988 13.4079 2.20322 13.558 2.31223 13.6829C2.4168 13.8028 2.55095 13.9364 2.69403 14.0795L3.75469 13.0188ZM2.01099 11.945C1.84224 12.3524 1.84224 12.8101 2.01099 13.2175L3.3968 12.6434C3.3803 12.6036 3.3803 12.5588 3.3968 12.519L2.01099 11.945ZM3.1094 14.7248L3.75469 14.0795L2.69403 13.0188L2.04874 13.6641L3.1094 14.7248ZM5.92045 16.2452L5.27516 16.8905L6.33582 17.9512L6.98111 17.3059L5.92045 16.2452ZM3.75469 16.8905L3.1094 16.2452L2.04874 17.3059L2.69403 17.9512L3.75469 16.8905ZM5.27516 16.8905C4.95598 17.2097 4.76882 17.3946 4.61888 17.509C4.48625 17.6102 4.47401 17.5834 4.51492 17.5834L4.51492 19.0834C4.93384 19.0834 5.26269 18.9045 5.52875 18.7015C5.7775 18.5117 6.04663 18.2404 6.33582 17.9512L5.27516 16.8905ZM2.69403 17.9512C2.98322 18.2404 3.25235 18.5117 3.5011 18.7015C3.76716 18.9045 4.09601 19.0834 4.51493 19.0834L4.51492 17.5834C4.55584 17.5834 4.5436 17.6102 4.41097 17.509C4.26103 17.3946 4.07387 17.2097 3.75469 16.8905L2.69403 17.9512ZM2.04874 13.6641C1.75955 13.9533 1.48817 14.2224 1.29838 14.4712C1.09538 14.7372 0.916504 15.0661 0.916504 15.485H2.4165C2.4165 15.5259 2.38972 15.5137 2.49091 15.381C2.60531 15.2311 2.79022 15.0439 3.1094 14.7248L2.04874 13.6641ZM3.1094 16.2452C2.79022 15.926 2.60531 15.7389 2.49091 15.5889C2.38972 15.4563 2.4165 15.4441 2.4165 15.485H0.916504C0.916504 15.9039 1.09538 16.2328 1.29838 16.4988C1.48817 16.7476 1.75955 17.0167 2.04874 17.3059L3.1094 16.2452ZM11.0827 5.69078L14.3091 8.9172L15.3698 7.85654L12.1434 4.63012L11.0827 5.69078ZM17.3056 5.92069L14.0792 2.69427L13.0186 3.75493L16.245 6.98135L17.3056 5.92069ZM17.3056 8.9172C17.4487 8.77413 17.5829 8.64055 17.6874 8.52066C17.7965 8.39569 17.9098 8.24566 17.9887 8.05518L16.6029 7.48116C16.6123 7.45839 16.6157 7.46738 16.557 7.53466C16.4939 7.60703 16.4026 7.69895 16.245 7.85654L17.3056 8.9172ZM16.245 6.98135C16.4026 7.13894 16.4939 7.23086 16.557 7.30323C16.6157 7.37052 16.6123 7.3795 16.6029 7.35673L17.9887 6.78271C17.9098 6.59224 17.7965 6.4422 17.6874 6.31723C17.5829 6.19735 17.4487 6.06377 17.3056 5.92069L16.245 6.98135ZM17.9887 8.05518C18.1574 7.64781 18.1574 7.19008 17.9887 6.78271L16.6029 7.35673C16.6194 7.39657 16.6194 7.44133 16.6029 7.48116L17.9887 8.05518ZM14.3091 8.9172C14.4522 9.06028 14.5858 9.19443 14.7057 9.299C14.8307 9.40801 14.9807 9.52135 15.1712 9.60024L15.7452 8.21442C15.7679 8.22385 15.759 8.22729 15.6917 8.1686C15.6193 8.10547 15.5274 8.01413 15.3698 7.85654L14.3091 8.9172ZM16.245 7.85654C16.0874 8.01413 15.9955 8.10547 15.9231 8.1686C15.8558 8.22729 15.8468 8.22385 15.8696 8.21442L16.4436 9.60024C16.6341 9.52135 16.7841 9.40801 16.9091 9.299C17.029 9.19443 17.1626 9.06028 17.3056 8.9172L16.245 7.85654ZM15.1712 9.60024C15.5785 9.76898 16.0363 9.76898 16.4436 9.60024L15.8696 8.21442C15.8298 8.23092 15.785 8.23092 15.7452 8.21442L15.1712 9.60024ZM11.0827 2.69427C10.9396 2.83735 10.8055 2.97093 10.7009 3.09081C10.5919 3.21578 10.4786 3.36582 10.3997 3.55629L11.7855 4.13031C11.7761 4.15308 11.7726 4.1441 11.8313 4.07681C11.8944 4.00444 11.9858 3.91252 12.1434 3.75493L11.0827 2.69427ZM12.1434 4.63012C11.9858 4.47253 11.8944 4.38061 11.8313 4.30824C11.7726 4.24096 11.7761 4.23197 11.7855 4.25474L10.3997 4.82877C10.4786 5.01924 10.5919 5.16927 10.7009 5.29424C10.8055 5.41413 10.9396 5.54771 11.0827 5.69078L12.1434 4.63012ZM10.3997 3.55629C10.2309 3.96367 10.2309 4.42139 10.3997 4.82876L11.7855 4.25474C11.769 4.21491 11.769 4.17015 11.7855 4.13031L10.3997 3.55629ZM12.1434 3.75493C12.301 3.59734 12.3929 3.506 12.4653 3.44287C12.5325 3.38418 12.5415 3.38762 12.5188 3.39705L11.9447 2.01123C11.7543 2.09012 11.6042 2.20346 11.4793 2.31247C11.3594 2.41704 11.2258 2.55119 11.0827 2.69427L12.1434 3.75493ZM14.0792 2.69427C13.9362 2.55119 13.8026 2.41704 13.6827 2.31247C13.5577 2.20346 13.4077 2.09012 13.2172 2.01123L12.6432 3.39705C12.6204 3.38762 12.6294 3.38418 12.6967 3.44287C12.7691 3.506 12.861 3.59734 13.0186 3.75493L14.0792 2.69427ZM12.5188 3.39705C12.5586 3.38055 12.6034 3.38055 12.6432 3.39705L13.2172 2.01123C12.8098 1.84249 12.3521 1.84249 11.9447 2.01123L12.5188 3.39705ZM13.6639 2.04899L13.0186 2.69427L14.0792 3.75493L14.7245 3.10965L13.6639 2.04899ZM17.3056 6.98135L17.9509 6.33607L16.8903 5.27541L16.245 5.92069L17.3056 6.98135ZM17.9509 2.69427L17.3056 2.04899L16.245 3.10965L16.8903 3.75493L17.9509 2.69427ZM17.9509 6.33607C18.2401 6.04687 18.5115 5.77775 18.7013 5.529C18.9043 5.26294 19.0832 4.93409 19.0832 4.51517L17.5832 4.51517C17.5832 4.47425 17.61 4.48649 17.5088 4.61912C17.3944 4.76906 17.2095 4.95622 16.8903 5.27541L17.9509 6.33607ZM16.8903 3.75493C17.2095 4.07411 17.3944 4.26128 17.5088 4.41121C17.61 4.54384 17.5832 4.55609 17.5832 4.51517L19.0832 4.51517C19.0832 4.09625 18.9043 3.7674 18.7013 3.50134C18.5115 3.25259 18.2401 2.98347 17.9509 2.69427L16.8903 3.75493ZM14.7245 3.10965C15.0437 2.79047 15.2309 2.60556 15.3808 2.49116C15.5134 2.38996 15.5257 2.41675 15.4848 2.41675V0.916748C15.0658 0.916748 14.737 1.09563 14.4709 1.29862C14.2222 1.48841 13.953 1.75979 13.6639 2.04899L14.7245 3.10965ZM17.3056 2.04899C17.0164 1.75979 16.7473 1.48842 16.4986 1.29862C16.2325 1.09563 15.9037 0.916748 15.4848 0.916748V2.41675C15.4438 2.41675 15.4561 2.38996 15.5887 2.49116C15.7386 2.60555 15.9258 2.79046 16.245 3.10965L17.3056 2.04899Z" fill="#258E5B"/>
</svg>
