<svg width="22" height="22" viewBox="0 0 22 22" fill="none" xmlns="http://www.w3.org/2000/svg">
<path d="M15 7C14.7562 7.73137 14.2546 8.29277 13.5446 8.60753C11.2642 9.61846 9.61846 11.2642 8.60753 13.5446C8.29277 14.2546 7.73137 14.7562 7 15" stroke="#F1F1F1" stroke-width="1.5" stroke-linejoin="round"/>
<path d="M2.2 19.8L1 21M19.8 2.2L21 1" stroke="#F1F1F1" stroke-width="1.5" stroke-linecap="round" stroke-linejoin="round"/>
<path d="M5.19245 12.9359L5.72278 12.4055L5.19245 12.9359ZM9.06415 16.8076L8.53382 17.3379L9.06415 16.8076ZM6.74113 19.1306L7.27146 18.6002L6.74113 19.1306ZM8.32171 19.7551L8.60872 20.448L8.32171 19.7551ZM7.48357 19.7551L7.19655 20.448L7.48357 19.7551ZM9.6887 17.55L10.3816 17.263H10.3816L9.6887 17.55ZM9.6887 18.3881L10.3816 18.6751L9.6887 18.3881ZM3.61186 12.3113L3.32485 11.6184H3.32485L3.61186 12.3113ZM4.45 12.3113L4.73702 11.6184L4.73702 11.6184L4.45 12.3113ZM2.24487 13.6783L1.55196 13.3913V13.3913L2.24487 13.6783ZM2.24487 14.5164L1.55196 14.8034V14.8034L2.24487 14.5164ZM5.96679 19.9049L6.49712 20.4352L5.96679 19.9049ZM2.86942 19.9049L2.33909 20.4352H2.33909L2.86942 19.9049ZM2.09508 19.1306L2.62541 18.6002H2.62541L2.09508 19.1306ZM4.4181 21L4.4181 20.25H4.4181L4.4181 21ZM12.9359 5.19245L12.4055 5.72278L12.9359 5.19245ZM16.8076 9.06415L17.3379 8.53382L16.8076 9.06415ZM19.1306 6.74113L18.6002 7.27146L19.1306 6.74113ZM19.7551 8.32171L20.448 8.60872L19.7551 8.32171ZM19.7551 7.48357L20.448 7.19655L19.7551 7.48357ZM17.55 9.6887L17.263 10.3816V10.3816L17.55 9.6887ZM18.3881 9.6887L18.6751 10.3816L18.3881 9.6887ZM12.3113 3.61186L11.6184 3.32485V3.32485L12.3113 3.61186ZM12.3113 4.45L11.6184 4.73702L11.6184 4.73702L12.3113 4.45ZM13.6783 2.24487L13.3913 1.55196H13.3913L13.6783 2.24487ZM14.5164 2.24487L14.8034 1.55196H14.8034L14.5164 2.24487ZM19.9049 5.96679L20.4352 6.49712L19.9049 5.96679ZM19.9049 2.86942L20.4352 2.33909V2.33909L19.9049 2.86942ZM19.1306 2.09508L18.6002 2.62541V2.62541L19.1306 2.09508ZM21 4.4181L20.25 4.4181V4.4181L21 4.4181ZM4.66212 13.4662L8.53382 17.3379L9.59448 16.2772L5.72278 12.4055L4.66212 13.4662ZM7.27146 18.6002L3.39975 14.7285L2.33909 15.7892L6.2108 19.6609L7.27146 18.6002ZM8.53382 18.6002C8.34616 18.7879 8.23169 18.9018 8.14009 18.9817C8.05358 19.0572 8.0287 19.0647 8.03469 19.0622L8.60872 20.448C8.81596 20.3622 8.9819 20.2379 9.1261 20.1121C9.26521 19.9908 9.42134 19.834 9.59448 19.6609L8.53382 18.6002ZM6.2108 19.6609C6.38394 19.834 6.54007 19.9908 6.67918 20.1121C6.82338 20.2379 6.98931 20.3622 7.19655 20.448L7.77058 19.0622C7.77658 19.0647 7.75169 19.0572 7.66518 18.9817C7.57358 18.9018 7.45911 18.7879 7.27146 18.6002L6.2108 19.6609ZM8.03469 19.0622C7.95014 19.0972 7.85513 19.0972 7.77058 19.0622L7.19655 20.448C7.64865 20.6353 8.15662 20.6353 8.60872 20.448L8.03469 19.0622ZM8.53382 17.3379C8.72147 17.5255 8.83537 17.64 8.91527 17.7316C8.99072 17.8181 8.99828 17.843 8.99579 17.837L10.3816 17.263C10.2958 17.0557 10.1714 16.8898 10.0457 16.7456C9.92432 16.6065 9.76762 16.4504 9.59448 16.2772L8.53382 17.3379ZM9.59448 19.6609C9.76762 19.4878 9.92432 19.3316 10.0457 19.1925C10.1714 19.0483 10.2958 18.8824 10.3816 18.6751L8.99579 18.1011C8.99828 18.0951 8.99073 18.12 8.91527 18.2065C8.83537 18.2981 8.72147 18.4126 8.53382 18.6002L9.59448 19.6609ZM8.99579 17.837C9.03082 17.9216 9.03082 18.0166 8.99579 18.1011L10.3816 18.6751C10.5689 18.2231 10.5689 17.7151 10.3816 17.263L8.99579 17.837ZM3.39975 13.4662C3.58741 13.2785 3.70188 13.1646 3.79348 13.0847C3.87999 13.0093 3.90487 13.0017 3.89888 13.0042L3.32485 11.6184C3.11761 11.7042 2.95167 11.8286 2.80748 11.9543C2.66837 12.0757 2.51224 12.2324 2.33909 12.4055L3.39975 13.4662ZM5.72278 12.4055C5.54963 12.2324 5.3935 12.0757 5.25439 11.9543C5.11019 11.8286 4.94426 11.7042 4.73702 11.6184L4.16299 13.0042C4.157 13.0017 4.18188 13.0093 4.26839 13.0847C4.35999 13.1646 4.47446 13.2785 4.66212 13.4662L5.72278 12.4055ZM3.89888 13.0042C3.98343 12.9692 4.07844 12.9692 4.16299 13.0042L4.73702 11.6184C4.28492 11.4311 3.77695 11.4311 3.32485 11.6184L3.89888 13.0042ZM2.33909 12.4055C2.16595 12.5787 2.00925 12.7348 1.88791 12.8739C1.76213 13.0181 1.6378 13.184 1.55196 13.3913L2.93778 13.9653C2.9353 13.9713 2.94285 13.9464 3.01831 13.8599C3.0982 13.7683 3.2121 13.6538 3.39975 13.4662L2.33909 12.4055ZM3.39975 14.7285C3.2121 14.5409 3.0982 14.4264 3.01831 14.3348C2.94285 14.2483 2.9353 14.2234 2.93778 14.2294L1.55196 14.8034C1.6378 15.0107 1.76213 15.1766 1.88791 15.3208C2.00925 15.4599 2.16595 15.6161 2.33909 15.7892L3.39975 14.7285ZM1.55196 13.3913C1.36469 13.8434 1.36469 14.3513 1.55196 14.8034L2.93778 14.2294C2.90275 14.1449 2.90275 14.0499 2.93778 13.9653L1.55196 13.3913ZM2.62541 16.5635L3.39975 15.7892L2.33909 14.7285L1.56475 15.5029L2.62541 16.5635ZM6.2108 18.6002L5.43646 19.3746L6.49712 20.4352L7.27146 19.6609L6.2108 18.6002ZM3.39975 19.3746L2.62541 18.6002L1.56475 19.6609L2.33909 20.4352L3.39975 19.3746ZM5.43646 19.3746C5.05644 19.7546 4.82364 19.9851 4.63384 20.13C4.546 20.197 4.49135 20.2263 4.46011 20.2393C4.43485 20.2499 4.42479 20.25 4.4181 20.25L4.4181 21.75C4.87482 21.75 5.23778 21.5559 5.54371 21.3225C5.83233 21.1023 6.14708 20.7853 6.49712 20.4352L5.43646 19.3746ZM2.33909 20.4352C2.68913 20.7853 3.00388 21.1023 3.2925 21.3225C3.59843 21.5559 3.96139 21.75 4.41811 21.75L4.4181 20.25C4.41142 20.25 4.40136 20.2499 4.3761 20.2393C4.34486 20.2263 4.29021 20.197 4.20237 20.13C4.01256 19.9851 3.77977 19.7546 3.39975 19.3746L2.33909 20.4352ZM1.56475 15.5029C1.21472 15.8529 0.897714 16.1677 0.677504 16.4563C0.444089 16.7622 0.25 17.1252 0.25 17.5819H1.75C1.75 17.5752 1.75013 17.5651 1.76066 17.5399C1.77369 17.5086 1.80302 17.454 1.87004 17.3662C2.01485 17.1764 2.24539 16.9436 2.62541 16.5635L1.56475 15.5029ZM2.62541 18.6002C2.24539 18.2202 2.01485 17.9874 1.87004 17.7976C1.80302 17.7098 1.77369 17.6551 1.76066 17.6239C1.75013 17.5986 1.75 17.5886 1.75 17.5819H0.25C0.25 18.0386 0.44409 18.4016 0.677505 18.7075C0.897715 18.9961 1.21472 19.3109 1.56475 19.6609L2.62541 18.6002ZM12.4055 5.72278L16.2772 9.59448L17.3379 8.53382L13.4662 4.66212L12.4055 5.72278ZM19.6609 6.2108L15.7892 2.33909L14.7285 3.39975L18.6002 7.27146L19.6609 6.2108ZM19.6609 9.59448C19.834 9.42134 19.9908 9.26521 20.1121 9.1261C20.2379 8.9819 20.3622 8.81596 20.448 8.60872L19.0622 8.03469C19.0647 8.0287 19.0572 8.05358 18.9817 8.14009C18.9018 8.23169 18.7879 8.34616 18.6002 8.53382L19.6609 9.59448ZM18.6002 7.27146C18.7879 7.45911 18.9018 7.57358 18.9817 7.66518C19.0572 7.75169 19.0647 7.77658 19.0622 7.77058L20.448 7.19655C20.3622 6.98931 20.2379 6.82338 20.1121 6.67918C19.9908 6.54007 19.834 6.38394 19.6609 6.2108L18.6002 7.27146ZM20.448 8.60872C20.6353 8.15662 20.6353 7.64865 20.448 7.19655L19.0622 7.77058C19.0972 7.85513 19.0972 7.95014 19.0622 8.03469L20.448 8.60872ZM16.2772 9.59448C16.4504 9.76762 16.6065 9.92432 16.7456 10.0457C16.8898 10.1714 17.0557 10.2958 17.263 10.3816L17.837 8.99579C17.843 8.99828 17.8181 8.99072 17.7316 8.91527C17.64 8.83537 17.5255 8.72147 17.3379 8.53382L16.2772 9.59448ZM18.6002 8.53382C18.4126 8.72147 18.2981 8.83537 18.2065 8.91527C18.12 8.99073 18.0951 8.99828 18.1011 8.99579L18.6751 10.3816C18.8824 10.2958 19.0483 10.1714 19.1925 10.0457C19.3316 9.92432 19.4878 9.76762 19.6609 9.59448L18.6002 8.53382ZM17.263 10.3816C17.7151 10.5689 18.2231 10.5689 18.6751 10.3816L18.1011 8.99579C18.0166 9.03082 17.9216 9.03082 17.837 8.99579L17.263 10.3816ZM12.4055 2.33909C12.2324 2.51224 12.0757 2.66837 11.9543 2.80748C11.8286 2.95167 11.7042 3.11761 11.6184 3.32485L13.0042 3.89888C13.0017 3.90487 13.0093 3.87999 13.0847 3.79348C13.1646 3.70188 13.2785 3.58741 13.4662 3.39975L12.4055 2.33909ZM13.4662 4.66212C13.2785 4.47446 13.1646 4.35999 13.0847 4.26839C13.0093 4.18188 13.0017 4.157 13.0042 4.16299L11.6184 4.73702C11.7042 4.94426 11.8286 5.11019 11.9543 5.25439C12.0757 5.3935 12.2324 5.54963 12.4055 5.72278L13.4662 4.66212ZM11.6184 3.32485C11.4311 3.77695 11.4311 4.28492 11.6184 4.73702L13.0042 4.16299C12.9692 4.07844 12.9692 3.98343 13.0042 3.89888L11.6184 3.32485ZM13.4662 3.39975C13.6538 3.2121 13.7683 3.0982 13.8599 3.01831C13.9464 2.94285 13.9713 2.9353 13.9653 2.93778L13.3913 1.55196C13.184 1.6378 13.0181 1.76213 12.8739 1.88791C12.7348 2.00925 12.5787 2.16595 12.4055 2.33909L13.4662 3.39975ZM15.7892 2.33909C15.6161 2.16595 15.4599 2.00925 15.3208 1.88791C15.1766 1.76213 15.0107 1.6378 14.8034 1.55196L14.2294 2.93778C14.2234 2.9353 14.2483 2.94285 14.3348 3.01831C14.4264 3.0982 14.5409 3.2121 14.7285 3.39975L15.7892 2.33909ZM13.9653 2.93778C14.0499 2.90275 14.1449 2.90275 14.2294 2.93778L14.8034 1.55196C14.3513 1.36469 13.8434 1.36469 13.3913 1.55196L13.9653 2.93778ZM15.5029 1.56475L14.7285 2.33909L15.7892 3.39975L16.5635 2.62541L15.5029 1.56475ZM19.6609 7.27146L20.4352 6.49712L19.3746 5.43646L18.6002 6.2108L19.6609 7.27146ZM20.4352 2.33909L19.6609 1.56475L18.6002 2.62541L19.3746 3.39975L20.4352 2.33909ZM20.4352 6.49712C20.7853 6.14708 21.1023 5.83233 21.3225 5.54371C21.5559 5.23778 21.75 4.87482 21.75 4.4181L20.25 4.4181C20.25 4.42479 20.2499 4.43485 20.2393 4.46011C20.2263 4.49135 20.197 4.546 20.13 4.63384C19.9851 4.82364 19.7546 5.05644 19.3746 5.43646L20.4352 6.49712ZM19.3746 3.39975C19.7546 3.77977 19.9851 4.01256 20.13 4.20237C20.197 4.29021 20.2263 4.34486 20.2393 4.3761C20.2499 4.40136 20.25 4.41142 20.25 4.4181L21.75 4.41811C21.75 3.96139 21.5559 3.59843 21.3225 3.2925C21.1023 3.00388 20.7853 2.68913 20.4352 2.33909L19.3746 3.39975ZM16.5635 2.62541C16.9436 2.24539 17.1764 2.01485 17.3662 1.87004C17.454 1.80302 17.5086 1.77369 17.5399 1.76066C17.5651 1.75013 17.5752 1.75 17.5819 1.75V0.25C17.1252 0.25 16.7622 0.444089 16.4563 0.677504C16.1677 0.897714 15.8529 1.21472 15.5029 1.56475L16.5635 2.62541ZM19.6609 1.56475C19.3109 1.21472 18.9961 0.897715 18.7075 0.677505C18.4016 0.44409 18.0386 0.25 17.5819 0.25V1.75C17.5886 1.75 17.5986 1.75013 17.6239 1.76066C17.6551 1.77369 17.7098 1.80302 17.7976 1.87004C17.9874 2.01485 18.2202 2.24539 18.6002 2.62541L19.6609 1.56475Z" fill="#F1F1F1"/>
</svg>
