<svg width="227" height="100" viewBox="0 0 227 100" fill="none" xmlns="http://www.w3.org/2000/svg">
<g clip-path="url(#clip0_1433_2595)">
<rect y="0.561768" width="227" height="99" rx="1.99326" fill="white"/>
<g clip-path="url(#clip1_1433_2595)">
<path d="M639.395 -276.389H-411.666V382.419H639.395V-276.389Z" fill="#FE9E0D"/>
<path d="M633.848 -276.389H113.865V379.424H633.848V-276.389Z" fill="#5767FF"/>
<path d="M639.395 382.419L113.865 -1.93414L-411.666 382.419V-283.127H639.395V382.419Z" fill="#F47AB8"/>
<path d="M113.865 321.605C169.374 321.605 214.373 270.316 214.373 207.047C214.373 143.779 169.374 92.4902 113.865 92.4902C58.356 92.4902 13.3571 143.779 13.3571 207.047C13.3571 270.316 58.356 321.605 113.865 321.605Z" fill="#00EDFF"/>
<path d="M257.291 -119.32C225.248 -170.068 172.914 -203.179 113.865 -203.179C55.2536 -203.179 3.28445 -170.567 -28.8313 -120.401C-50.1445 -87.1241 -62.6988 -46.193 -62.6988 -1.93414C-62.6988 37.5827 -52.6991 74.3541 -35.4734 105.468L113.865 -1.93414L262.4 106.883C280.137 75.5188 290.428 38.165 290.428 -1.93414C290.428 -45.6938 278.166 -86.2921 257.291 -119.32Z" fill="#FF5756"/>
</g>
</g>
<defs>
<clipPath id="clip0_1433_2595">
<rect y="0.561768" width="227" height="99" rx="1.99326" fill="white"/>
</clipPath>
<clipPath id="clip1_1433_2595">
<rect width="1051.06" height="665.546" fill="white" transform="translate(-411.666 -283.127)"/>
</clipPath>
</defs>
</svg>
