<svg width="52" height="44" viewBox="0 0 52 44" fill="none" xmlns="http://www.w3.org/2000/svg">
<path d="M46.2803 5.48459C43.127 2.39366 38.9555 0.741 34.5356 0.8285C32.0309 0.878812 29.6269 1.49241 27.4667 2.59491C25.1042 1.38741 22.465 0.774906 19.7295 0.8285C14.6589 0.930219 9.99952 3.33975 6.94577 7.43803C4.8917 10.1943 3.76077 13.6582 3.76077 17.191V18.0015C3.76077 18.8666 3.58467 19.7066 3.23795 20.4985L1.06795 25.4521C0.728891 26.2254 0.748579 27.1037 1.12264 27.8605C1.4967 28.6174 2.1803 29.1687 3.00061 29.3699L4.7353 29.7965L5.4517 33.8105C5.79295 35.7224 7.44999 37.1093 9.39139 37.1093H15.0603C15.1795 37.1093 15.2812 37.1902 15.3108 37.3062L16.1715 40.7974C16.5161 42.1974 17.763 43.1741 19.2045 43.1741H27.5673C29.0275 43.1741 30.3662 42.6469 31.4053 41.7741C31.9708 42.6305 32.9365 43.1741 34.0106 43.1741H42.3734C45.6689 43.1741 48.3497 40.4933 48.3497 37.1979V30.3794C48.3497 28.1197 48.8353 25.871 49.7934 23.6988C50.7089 21.624 51.1726 19.4124 51.1726 17.1276C51.1726 12.711 49.4358 8.57662 46.2814 5.48459H46.2803ZM27.5673 40.4408H19.2045C19.0251 40.4408 18.8698 40.3194 18.8261 40.1444L17.9653 36.6532C17.6361 35.3123 16.4417 34.3749 15.0603 34.3749H9.39139C8.7767 34.3749 8.2517 33.9352 8.14342 33.3304L7.4117 29.2299C7.23124 28.2204 6.47108 27.4088 5.47248 27.1616L3.65467 26.7143C3.64155 26.711 3.59999 26.7012 3.57483 26.6508C3.54967 26.6005 3.56717 26.5623 3.57264 26.5491L5.74264 21.5955C6.24249 20.4558 6.49623 19.2462 6.49623 18.0004V17.1899C6.49623 14.2423 7.43467 11.3591 9.13983 9.071C11.685 5.65522 15.5656 3.646 19.7853 3.56178C21.4937 3.52787 23.1573 3.80678 24.7115 4.37225C23.6145 5.24834 22.6192 6.27537 21.753 7.43803C19.6989 10.1943 18.568 13.6582 18.568 17.191V18.0015C18.568 18.8666 18.3919 19.7066 18.0451 20.4985L15.8751 25.4521C15.5361 26.2254 15.5558 27.1037 15.9298 27.8605C16.3039 28.6174 16.9875 29.1687 17.8078 29.3699L19.5425 29.7965L20.2589 33.8105C20.6001 35.7224 22.2572 37.1093 24.1986 37.1093H29.8675C29.9867 37.1093 30.0884 37.1902 30.118 37.3062L30.4548 38.6722C29.9167 39.7212 28.8262 40.4408 27.5684 40.4408H27.5673Z" fill="#FF9B85"/>
</svg>
