<svg width="20" height="20" viewBox="0 0 20 20" fill="none" xmlns="http://www.w3.org/2000/svg">
<path d="M11.5753 9.58179C11.5753 9.58179 13.1138 10.7503 13.1138 13.2469C13.1138 15.1956 11.528 16.7777 9.56809 16.7777C7.60823 16.7777 6.02277 15.1988 6.02277 13.2469C6.02277 9.37147 9.04929 7.25586 9.04929 7.25586C9.04929 7.25586 9.47383 9.9592 9.9999 10.4819C10.5228 11.0044 11.5753 9.58179 11.5753 9.58179Z" fill="#FFCE54"/>
<path d="M15.9188 11.6795C15.9188 12.989 15.5196 14.2051 14.8339 15.2175C13.6944 16.8976 11.7602 18.0045 9.56845 18.0045C8.47255 18.0045 7.44239 17.7286 6.5421 17.2424C5.55145 16.7053 4.72044 15.9179 4.13626 14.9634C3.55526 14.0056 3.21808 12.8806 3.21808 11.6795C3.21808 4.85015 9.73571 1.0688 9.93895 0.952393C9.92442 1.02504 9.41642 3.20231 10.3413 4.12403C11.2817 5.06011 12.5113 3.81555 12.5113 3.81555C12.5113 3.81555 15.9188 7.20885 15.9188 11.6795ZM13.1138 13.247C13.1138 10.7505 11.5753 9.58191 11.5753 9.58191C11.5753 9.58191 10.5228 11.0045 10.0003 10.4815C9.47418 9.95932 9.04964 7.25563 9.04964 7.25563C9.04964 7.25563 6.02312 9.37124 6.02312 13.2467C6.02312 15.1989 7.60859 16.7775 9.56845 16.7775C11.5283 16.7775 13.1138 15.1957 13.1138 13.247Z" fill="#FC6E51"/>
</svg>
