<svg width="52" height="51" viewBox="0 0 52 51" fill="none" xmlns="http://www.w3.org/2000/svg">
<path d="M51.0265 29.1057L51.9652 41.623V50.7378H44.171L30.6533 46.8074L16.1557 50.7378H0.808655V27.7995C0.808655 26.5371 0.898954 25.2976 1.07903 24.0859C1.17195 23.4322 1.29035 22.7896 1.4342 22.1531C4.0067 10.7446 14.2035 2.22119 26.3869 2.22119C30.5457 2.22119 34.4735 3.21292 37.9419 4.97403C38.3448 5.17983 38.7449 5.39666 39.1365 5.62503C40.9032 6.64222 42.5375 7.86494 44.0054 9.25698C44.1632 9.40923 44.318 9.55834 44.4732 9.71347C44.7183 9.95865 44.9606 10.2093 45.1916 10.4658C48.2374 13.7652 50.4212 17.8649 51.3961 22.4153C51.72 23.9229 51.9087 25.4724 51.9539 27.0671C51.9568 27.0671 51.9539 27.07 51.9539 27.07C51.9626 27.3123 51.0265 28.8605 51.0265 29.1057Z" fill="#4C4918"/>
<path d="M51.9661 27.7986V41.6051C51.0335 43.1407 49.8333 44.5212 48.4442 45.6626C47.1621 46.7162 45.7139 47.5785 44.1699 48.1757C43.1697 48.5674 42.1271 48.8464 41.0592 48.9984C39.7969 49.1732 38.5064 49.1619 37.2527 48.9532C37.185 48.942 37.1204 48.9307 37.0527 48.9168C35.6777 48.6687 34.3534 48.187 33.1588 47.4657C32.6939 47.184 32.2319 46.843 32.0261 46.3443C31.8825 45.9949 31.8796 45.6061 31.9303 45.237C32.0739 44.1269 32.9081 43.0872 33.8715 42.1574C33.8799 42.149 33.8883 42.1406 33.8996 42.1348C34.0405 41.9967 34.1841 41.8644 34.328 41.7348C34.4773 41.6025 34.6238 41.4699 34.7732 41.346C35.2155 40.9599 35.6523 40.6021 36.0298 40.2753C36.4298 40.9796 37.0131 41.5235 37.6977 41.9206C37.7344 41.9432 37.768 41.9658 37.8048 41.9826C39.0614 42.6813 40.6392 42.9207 42.0961 42.8026C42.1694 42.7971 42.2455 42.7913 42.3187 42.78C42.6371 42.7519 42.9527 42.7068 43.2656 42.6449C45.2293 42.2813 47.0975 41.3854 48.5148 39.9849C50.211 38.3057 51.2028 35.8881 50.9831 33.5156C50.7605 31.1376 49.2587 28.8778 47.075 27.9225C44.8857 26.9702 42.099 27.4632 40.5014 29.2356C40.5804 29.1707 40.665 29.1059 40.7495 29.0523C40.7495 29.0495 40.755 29.0495 40.755 29.0495C41.9554 28.2832 43.7669 28.7142 44.6012 29.9005C45.5 31.1767 45.2577 33.0618 44.2011 34.2086C43.9221 34.5074 43.5981 34.758 43.2459 34.9554C42.9107 35.1413 42.55 35.2851 42.1722 35.381C41.4341 35.5697 40.645 35.581 39.9014 35.4064C39.6675 35.35 39.4365 35.2796 39.211 35.1867C38.7235 34.9951 38.2728 34.716 37.9037 34.3554V34.3525C37.8192 34.2708 37.7405 34.1834 37.6643 34.0905C37.1291 33.4398 36.8697 32.6113 36.7626 31.7687C36.743 31.6109 36.7288 31.4561 36.7175 31.2983C36.7146 31.2702 36.7146 31.2392 36.7146 31.2109C36.6695 30.4276 36.7372 29.6359 36.9062 28.8665C36.9091 28.841 36.9175 28.8158 36.923 28.7875C37.0666 28.1564 37.2808 27.5393 37.5599 26.956C37.6866 26.6883 37.8276 26.4234 37.9883 26.1698C38.3573 25.5669 38.8083 25.0117 39.3268 24.5271C41.1611 22.8224 43.8688 22.0759 46.2835 22.7237C47.1288 22.9521 47.9234 23.3409 48.6644 23.8113C49.9803 24.6536 51.0904 25.775 51.9554 27.0655C51.9582 27.0655 51.9554 27.0684 51.9554 27.0684C51.9635 27.3114 51.9661 27.5537 51.9661 27.7986Z" fill="#B8B269"/>
<path d="M42.1716 35.3823C41.4337 35.5699 40.6436 35.581 39.9013 35.4059C39.0413 35.2064 38.2205 34.773 37.6629 34.0902C37.0287 33.3182 36.7807 32.295 36.7174 31.298C36.6203 29.8125 36.9153 28.2979 37.5579 26.9563C37.6868 26.6888 37.8275 26.4234 37.9871 26.1714C37.6729 27.7926 37.7595 29.4781 38.3242 31.0297C39.0061 32.8877 40.4244 34.4779 42.1716 35.3823Z" fill="#30181B"/>
<path d="M40.9135 28.874C40.5756 29.2234 40.3016 29.6332 40.0963 30.0739C39.9018 30.4916 39.7674 30.9465 39.7826 31.4071C39.8112 32.2676 40.4134 33.0803 41.2282 33.3583C42.043 33.6363 43.0164 33.3612 43.565 32.6979C43.9125 32.2773 44.0902 31.7009 43.9637 31.1701C43.8372 30.6393 43.377 30.1847 42.8339 30.1335C42.4486 30.0973 42.0501 30.2676 41.8096 30.5708C41.5695 30.8743 41.4949 31.3011 41.6183 31.6678" stroke="#30181B" stroke-width="0.300195" stroke-miterlimit="10" stroke-linecap="round" stroke-linejoin="round"/>
<path d="M44.2196 50.0037C44.2141 50.2489 44.2 50.4912 44.1803 50.7363H26.3644L22.985 48.5634L16.9874 50.7363C17.0577 49.8714 17.2241 49.0175 17.4777 48.1864C17.4806 48.1864 17.4832 48.1835 17.4806 48.178C17.6864 47.5131 17.9455 46.8621 18.2639 46.2394C18.2781 46.2114 18.292 46.1859 18.3091 46.1549C18.3823 46.0084 18.4613 45.862 18.5429 45.721C19.1375 44.687 19.8757 43.746 20.5603 42.7737C22.1066 40.5471 23.474 37.8723 23.175 35.0816C23.175 35.0816 27.4748 32.3146 27.4774 32.3146L28.0494 31.9484L31.7236 29.5843L36.8431 26.2934L36.8967 26.2595C36.8883 26.4341 36.8799 26.6089 36.8741 26.7835C36.877 26.7864 36.877 26.789 36.8741 26.7919C36.8544 27.4822 36.8628 28.1752 36.908 28.8656C36.908 28.936 36.9137 29.0066 36.9193 29.0769C36.9221 29.0824 36.9193 29.0911 36.9193 29.0966C36.9334 29.2995 36.9502 29.4996 36.9699 29.7025C37.0264 30.3083 37.1109 30.9168 37.2206 31.5198C37.3897 32.4779 37.6178 33.4216 37.9052 34.3542C38.4378 36.0786 39.1731 37.7381 40.0945 39.2879C40.3706 39.7444 40.6552 40.1922 40.9568 40.6516C41.2216 41.0574 41.4894 41.463 41.7569 41.8772C41.9514 42.1759 42.1401 42.4744 42.3204 42.7789C42.5656 43.1874 42.7966 43.6016 43.0079 44.0242C43.1741 44.3623 43.3292 44.7059 43.4644 45.0611C43.8477 46.0615 44.0729 47.1094 44.1716 48.1746C44.228 48.781 44.242 49.3923 44.2196 50.0037Z" fill="#B8B269"/>
<path d="M30.3228 38.4187C29.3652 39.7965 27.9272 40.7993 26.3632 41.4088C25.1384 41.886 23.7214 42.1202 22.5297 41.565C22.2204 41.4209 21.9382 41.2258 21.6891 40.9977C22.5656 39.4395 23.199 37.7495 23.2232 36.0144C23.3613 36.0294 23.4964 36.0383 23.6345 36.0443C26.3543 36.1703 29.11 35.3448 31.3137 33.7417C31.6765 35.3807 31.2832 37.0437 30.3228 38.4187Z" fill="#3C2C11"/>
<path d="M23.2971 37.3301C23.2745 37.5272 23.2406 37.7246 23.1984 37.9163C22.9503 39.049 22.4151 40.0887 21.7895 41.0833C21.4627 41.5989 21.1162 42.1005 20.7695 42.5964L20.6482 42.7709C19.9439 43.7881 19.1971 44.9038 18.5603 46.0987C17.9883 47.1723 17.5037 48.3134 17.2163 49.508C17.1176 49.9165 17.0472 50.3307 16.9992 50.7365H16.7005C16.7456 50.3081 16.8217 49.8745 16.9259 49.4377C16.9937 49.156 17.0695 48.8798 17.1569 48.6066C17.4076 47.812 17.7373 47.0484 18.1122 46.3131V46.3102C18.1854 46.1638 18.2615 46.0202 18.3377 45.8792C18.9687 44.6987 19.7042 43.6054 20.4001 42.5995L20.5211 42.4276C21.468 41.0639 22.4426 39.6635 22.843 38.0998C22.9078 37.8546 22.9585 37.6039 22.9894 37.3503V37.3474C22.9952 37.3277 22.9952 37.3136 22.9978 37.2968C23.0062 37.2319 23.0543 37.1813 23.1162 37.17H23.1191C23.1333 37.1645 23.1472 37.1616 23.1643 37.1645C23.2036 37.17 23.2404 37.1926 23.263 37.2235C23.2887 37.2511 23.3029 37.2907 23.2971 37.3301Z" fill="#3C2C11"/>
<path d="M42.9175 44.2456C43.2443 43.4894 43.4013 42.6176 43.1278 41.8404C42.8542 41.0631 42.0618 40.4362 41.2454 40.5486C41.4709 40.074 41.4404 39.4865 41.1666 39.0382C40.8928 38.5896 40.3846 38.2937 39.8594 38.2774C40.0998 37.8417 40.1804 37.2988 39.9859 36.8408C39.7911 36.3827 39.2874 36.0491 38.7968 36.1331C39.1501 35.8223 39.2984 35.2973 39.1596 34.8474C39.0207 34.3977 38.6028 34.0473 38.1355 33.9898C38.265 33.6427 38.3752 33.2794 38.3621 32.9093C38.349 32.5392 38.1941 32.1573 37.8867 31.9504C37.7489 31.8577 37.5885 31.8042 37.4475 31.717C37.0617 31.4787 36.8619 30.975 36.979 30.5371C36.4185 33.6294 35.9053 36.8124 36.8272 39.8165C37.236 41.1481 37.9095 42.4383 38.9792 43.3303C40.0489 44.2223 41.5984 44.6935 42.9175 44.2456Z" fill="#B8B269"/>
<path d="M36.2283 20.1717C36.3333 22.7054 37.8104 29.8771 36.1233 33.0413C34.4541 36.1695 31.0258 38.1627 23.7039 37.2862C23.5569 37.6043 23.3228 37.8776 23.0043 38.0338C22.551 38.253 21.9866 38.2021 21.5425 37.9676C21.0952 37.7306 20.7589 37.3282 20.5337 36.8838C20.1465 37.3731 19.4231 37.5773 18.8256 37.367C18.2282 37.1568 17.805 36.5475 17.8228 35.9291C17.5648 36.3735 16.9823 36.6076 16.4781 36.4696C15.9767 36.3283 15.6076 35.827 15.6286 35.3167C15.1692 35.707 14.4728 35.8088 13.9145 35.5629C13.3412 35.3138 13.017 34.7612 12.9569 34.1701C12.3085 34.7494 11.3898 34.0861 11.0265 33.5007C10.8254 33.1705 10.7713 32.8221 10.8222 32.483C7.94944 30.7447 5.55675 27.974 5.68275 23.3989C5.68564 23.2249 5.7069 23.0506 5.74287 22.8794C5.75494 22.8014 5.77594 22.7232 5.79982 22.6453C5.8959 22.2909 6.0639 21.9549 6.28913 21.6546C8.02425 19.358 13.5872 12.4025 17.9819 11.5258C23.2563 10.4689 25.364 12.051 28.6331 11.6308C31.9023 11.2076 36.2283 10.8923 37.177 13.0026C38.1257 15.1102 36.1233 17.641 36.2283 20.1717Z" fill="#B8B269"/>
<path d="M33.7428 22.147C34.0607 18.2544 31.1629 14.8412 27.2703 14.5233C23.3777 14.2054 19.9644 17.1032 19.6465 20.9958C19.3286 24.8884 22.2265 28.3017 26.119 28.6196C30.0116 28.9375 33.4249 26.0396 33.7428 22.147Z" fill="#FEE6D5"/>
<path d="M33.0416 22.2062C33.39 18.7038 30.8332 15.582 27.3307 15.2336C23.8283 14.8851 20.7065 17.4419 20.3581 20.9444C20.0096 24.4468 22.5664 27.5686 26.0689 27.9171C29.5713 28.2655 32.6931 25.7087 33.0416 22.2062Z" fill="#30181B"/>
<path d="M20.9741 26.0205C20.4008 26.1885 19.7852 26.2696 19.1308 26.2696C18.023 26.2696 16.8071 26.0323 15.4894 25.5582C14.6368 25.2519 13.7991 24.8768 12.9888 24.5135C12.1451 24.1352 11.2747 23.7449 10.3922 23.4359C8.65099 22.8235 7.0899 22.6374 5.74512 22.8805C5.75719 22.8025 5.77819 22.7243 5.80208 22.6463C7.16498 22.4182 8.72896 22.6104 10.4672 23.2228C11.3589 23.538 12.2323 23.9284 13.082 24.3095C13.8866 24.6697 14.721 25.0451 15.5647 25.3482C17.6151 26.0838 19.4132 26.24 20.9113 25.8045C20.9714 25.7864 21.0313 25.8226 21.0494 25.8824C21.0672 25.9425 21.0342 26.0027 20.9741 26.0205Z" fill="#30181B"/>
<path d="M11.6551 19.3555C11.1852 19.3927 10.7311 19.6033 10.3988 19.938C10.0667 20.2724 9.85932 20.7281 9.8252 21.1982C10.3048 21.0827 10.6985 20.9586 11.086 20.6535C11.4734 20.3485 11.7701 19.8351 11.6551 19.3555Z" fill="#30181B"/>
<path d="M15.6083 17.211C15.5602 16.9629 15.4421 16.7686 15.2673 16.6615C15.1038 16.5602 14.9037 16.5319 14.684 16.5854C14.3627 16.6671 14.022 16.9151 13.8585 17.1939C13.7259 17.4136 13.681 17.6475 13.7288 17.8588C13.7766 18.0814 13.943 18.2814 14.1682 18.4027C14.3034 18.4704 14.4556 18.5069 14.6134 18.5069C14.926 18.5069 15.2473 18.3633 15.439 18.1069C15.5999 17.89 15.6702 17.5294 15.6083 17.211ZM15.2589 17.9717C15.0392 18.2675 14.5969 18.3691 14.2727 18.1998C14.1036 18.1124 13.9852 17.9659 13.9488 17.8081C13.9404 17.7714 13.9375 17.732 13.9375 17.6926C13.9375 17.5714 13.9768 17.4391 14.0501 17.3094C14.1627 17.1207 14.4417 16.8755 14.7376 16.8051C14.794 16.791 14.8531 16.7826 14.9037 16.7826C14.994 16.7826 15.0786 16.8078 15.146 16.8503C15.267 16.9235 15.3518 17.07 15.3854 17.2532C15.4335 17.5068 15.3802 17.8055 15.2589 17.9717Z" fill="#30181B"/>
<path d="M17.4985 15.4475C17.4507 15.2024 17.3295 15.0052 17.1575 14.8952C16.9942 14.7965 16.794 14.7713 16.5742 14.8249C16.2529 14.901 15.9122 15.1546 15.7458 15.4336C15.6161 15.6533 15.571 15.8872 15.6161 16.093C15.6697 16.3185 15.8329 16.5214 16.0584 16.6369C16.1936 16.7102 16.3459 16.744 16.5007 16.744C16.8192 16.744 17.1376 16.6004 17.3292 16.344C17.4901 16.1266 17.5605 15.7659 17.4985 15.4475ZM17.1465 16.2111C16.9268 16.5041 16.4845 16.6083 16.1603 16.4393C15.9967 16.3519 15.8757 16.2054 15.839 16.0447C15.8306 16.0053 15.8248 15.9686 15.8248 15.9263C15.8248 15.8024 15.8671 15.6728 15.9432 15.546C16.0532 15.3543 16.332 15.115 16.6278 15.0417C16.6869 15.0275 16.7404 15.022 16.7939 15.022C16.884 15.022 16.9659 15.0417 17.0362 15.0869C17.1573 15.163 17.242 15.304 17.2785 15.4898C17.3268 15.7463 17.2704 16.0421 17.1465 16.2111Z" fill="#30181B"/>
<path d="M19.6211 13.8375C19.5734 13.5894 19.4521 13.3952 19.2773 13.2852C19.1166 13.1865 18.9137 13.1584 18.6998 13.2148C18.3758 13.291 18.0348 13.5417 17.8713 13.8207C17.739 14.0433 17.6939 14.2772 17.7416 14.4827C17.7923 14.7053 17.9529 14.9111 18.1784 15.0266C18.3165 15.0999 18.4714 15.1308 18.6236 15.1308C18.9392 15.1308 19.2605 14.9872 19.4492 14.7334C19.6098 14.5137 19.6802 14.1559 19.6211 13.8375ZM19.2689 14.6011C19.0491 14.8941 18.6095 14.9956 18.2855 14.8292C18.1165 14.7418 17.9955 14.5953 17.9587 14.4347C17.9277 14.2824 17.9645 14.105 18.0629 13.9359C18.1755 13.7443 18.4546 13.5049 18.7533 13.4317C18.9111 13.3952 19.0463 13.4091 19.1591 13.4768C19.2775 13.5529 19.3649 13.6939 19.3985 13.8798C19.4463 14.1362 19.3956 14.4292 19.2689 14.6011Z" fill="#30181B"/>
<path d="M22.0218 12.7396C21.974 12.4918 21.8527 12.2973 21.6808 12.1873C21.5172 12.0886 21.3172 12.0605 21.1004 12.1169C20.7765 12.1931 20.4355 12.4466 20.2719 12.7228C20.1396 12.9454 20.0945 13.1793 20.1423 13.3848C20.1929 13.6103 20.3565 13.8132 20.5817 13.9287C20.7198 14.002 20.872 14.0329 21.024 14.0329C21.3395 14.0329 21.6608 13.892 21.8496 13.6358C22.0134 13.4158 22.0808 13.0577 22.0218 12.7396ZM21.6695 13.5032C21.4524 13.7962 21.0101 13.9004 20.6862 13.7313C20.5171 13.6439 20.3987 13.4974 20.3622 13.3368C20.3538 13.3029 20.3509 13.2635 20.3509 13.2242C20.3509 13.1003 20.3874 12.9651 20.4636 12.8383C20.5791 12.6467 20.8581 12.4073 21.151 12.334C21.2101 12.3199 21.2665 12.3143 21.3172 12.3143C21.4075 12.3143 21.4891 12.334 21.5595 12.3792C21.6808 12.4553 21.7653 12.5963 21.7989 12.7821C21.8469 13.0381 21.7963 13.3313 21.6695 13.5032Z" fill="#30181B"/>
<path d="M31.7345 29.7849C31.7345 31.2153 30.158 32.3747 28.2134 32.3747C26.2688 32.3747 24.6922 31.2153 24.6922 29.7849C24.6922 28.3546 26.2688 27.1948 28.2134 27.1948C30.158 27.1948 31.7345 28.3546 31.7345 29.7849Z" fill="#E8A9BD"/>
<path d="M26.8409 19.2399C26.8711 19.1286 26.6512 18.7976 26.6034 18.7044C26.4194 18.3448 26.1957 17.9865 25.8954 17.7122C25.4723 17.3255 24.8352 17.2762 24.3559 17.5907C23.8358 17.9319 23.7629 18.4968 23.8348 19.0691C23.98 20.2238 24.5929 21.3365 25.1633 22.3301C25.692 23.2504 26.2742 24.1505 26.9139 24.9981C27.9773 23.5061 28.9795 21.8899 29.6636 20.1873C29.9085 19.5775 30.2086 18.8772 30.1127 18.2057C29.9272 16.9047 28.317 16.8914 27.5969 17.7489C27.2444 18.1695 26.9851 18.7102 26.8409 19.2399Z" fill="#E8A9BD"/>
<path d="M31.8892 40.6749C31.8863 40.6833 31.8837 40.6917 31.8808 40.7004C31.061 43.0868 29.6548 45.6735 28.1304 48.074C28.1192 48.0908 28.1079 48.1079 28.0966 48.1247C27.5246 49.029 26.9329 49.9055 26.3497 50.7366H16.1893C15.9725 50.4378 15.7525 50.1336 15.5328 49.8236C13.9972 47.6708 12.4335 45.2787 11.2302 42.9768C9.26904 39.2322 8.25763 35.7328 9.86071 33.9182C10.182 33.5575 10.5088 33.2674 10.844 33.0475C14.2476 30.7792 18.2515 35.296 19.8294 37.3669C20.2688 37.9418 20.5198 38.3277 20.5198 38.3277C20.5198 38.3277 20.6944 38.0263 21.0073 37.5556C21.9738 36.1074 24.2644 33.0446 26.8623 32.1768C27.2511 32.0471 27.6485 31.9654 28.0485 31.9486C28.5389 31.9261 29.0377 31.9964 29.5335 32.1854C30.2381 32.4532 30.9395 32.9603 31.6214 33.7717C32.2302 34.4986 32.537 35.3974 32.6076 36.4146C32.6977 37.6827 32.416 39.1364 31.8892 40.6749Z" fill="#C97A4D"/>
<path d="M10.6322 44.2096C10.6322 44.2096 12.029 40.828 13.0948 41.2323C14.1608 41.6365 12.8743 44.9446 12.8743 44.9446C12.8743 44.9446 14.3078 42.3348 15.3735 42.6658C16.4395 42.9966 14.9693 46.2311 14.9693 46.2311C14.9693 46.2311 17.0643 43.6216 18.0935 44.7608C19.1228 45.9003 17.0275 51.4504 12.5068 49.7964C7.98572 48.1423 10.6322 44.2096 10.6322 44.2096Z" fill="#B8B269"/>
<path d="M35.7504 37.5513L34.1203 42.3513C34.1203 42.3513 29.2977 38.5249 28.7089 39.2948C28.1201 40.0647 29.9542 42.5779 29.9542 42.5779C29.9542 42.5779 26.6259 39.8836 26.1731 41.0609C25.7203 42.2382 28.3241 44.8419 28.3241 44.8419C28.3241 44.8419 25.5166 43.4835 25.2221 44.6382C24.9609 45.6628 29.8185 50.8193 34.0749 50.0497C38.3316 49.2798 39.8258 46.6986 39.8258 46.6986L35.7504 37.5513Z" fill="#B8B269"/>
<path d="M36.1584 38.1399L34.3017 42.4417C34.3017 42.4417 29.4111 38.5927 28.8226 39.2718C28.2338 39.9511 29.9547 42.5775 29.9547 42.5775C29.9547 42.5775 26.5787 40.0745 26.1837 41.1222C25.7886 42.1698 28.3246 44.8415 28.3246 44.8415C28.3246 44.8415 25.7889 43.5282 25.2455 44.4793C24.7021 45.4303 29.0945 49.8679 33.1247 50.1398C37.1549 50.4115 40.0983 45.7926 40.0983 45.7926" stroke="#30181B" stroke-width="0.199526" stroke-miterlimit="10" stroke-linecap="round" stroke-linejoin="round"/>
<path d="M43.1336 15.0685C43.1638 14.9572 42.9439 14.6262 42.8961 14.533C42.7121 14.1734 42.4884 13.8151 42.1881 13.5408C41.765 13.1541 41.1279 13.1045 40.6486 13.4193C40.1285 13.7605 40.0556 14.3254 40.1275 14.8979C40.2727 16.0527 40.8856 17.1654 41.456 18.159C41.9844 19.0793 42.5669 19.9794 43.2066 20.827C44.27 19.335 45.2722 17.7187 45.9563 16.0162C46.2012 15.4064 46.5013 14.706 46.4054 14.0346C46.2199 12.7336 44.6097 12.7202 43.8896 13.5778C43.5371 13.9981 43.278 14.5388 43.1336 15.0685Z" fill="#E8A9BD"/>
<path d="M19.9701 2.83906C20.0003 2.72776 19.7803 2.39676 19.7325 2.30357C19.5485 1.94395 19.3248 1.58563 19.0245 1.31132C18.6014 0.924658 17.9643 0.875305 17.485 1.18978C16.965 1.53103 16.892 2.09593 16.9639 2.66818C17.1091 3.82292 17.722 4.93565 18.2924 5.92921C18.8211 6.84954 19.4033 7.74965 20.043 8.59727C21.1064 7.10522 22.1086 5.489 22.7927 3.78643C23.0376 3.17664 23.3377 2.4763 23.2419 1.80482C23.0563 0.503872 21.4464 0.490479 20.7261 1.34807C20.3735 1.76859 20.1144 2.30934 19.9701 2.83906Z" fill="#E8A9BD"/>
<path d="M4.50281 33.5576C4.533 33.4463 4.31302 33.1152 4.26551 33.0221C4.08149 32.6624 3.85785 32.3041 3.55755 32.0298C3.1344 31.6431 2.49731 31.5938 2.01799 31.9083C1.49797 32.2495 1.42499 32.8144 1.49692 33.3867C1.64208 34.5414 2.25502 35.6541 2.8257 36.6477C3.35437 37.568 3.9366 38.4681 4.57631 39.316C5.6397 37.8237 6.64192 36.2078 7.326 34.5052C7.57091 33.8954 7.87095 33.195 7.77514 32.5236C7.58955 31.2226 5.97963 31.2092 5.25933 32.0668C4.90627 32.4871 4.64692 33.0278 4.50281 33.5576Z" fill="#E8A9BD"/>
</svg>
