<svg width="20" height="16" viewBox="0 0 20 16" fill="none" xmlns="http://www.w3.org/2000/svg">
<path d="M17.3117 13C17.9361 13 18.4328 12.6071 18.8787 12.0576C19.7916 10.9329 18.2928 10.034 17.7211 9.59383C17.14 9.14635 16.4912 8.89285 15.8333 8.83333M15 7.16667C16.1506 7.16667 17.0833 6.23393 17.0833 5.08333C17.0833 3.93274 16.1506 3 15 3" stroke="#76B898" stroke-width="1.5" stroke-linecap="round"/>
<path d="M2.68822 13C2.0638 13 1.56714 12.6071 1.12121 12.0576C0.208326 10.9329 1.70714 10.034 2.27879 9.59383C2.8599 9.14635 3.50874 8.89285 4.16659 8.83333M4.58325 7.16667C3.43266 7.16667 2.49992 6.23393 2.49992 5.08333C2.49992 3.93274 3.43266 3 4.58325 3" stroke="#76B898" stroke-width="1.5" stroke-linecap="round"/>
<path d="M6.73642 10.593C5.88494 11.1195 3.65241 12.1946 5.01217 13.5398C5.6764 14.197 6.41619 14.667 7.34627 14.667H12.6536C13.5837 14.667 14.3234 14.197 14.9877 13.5398C16.3474 12.1946 14.1149 11.1195 13.2634 10.593C11.2667 9.35833 8.73313 9.35833 6.73642 10.593Z" fill="#76B898" stroke="#76B898" stroke-width="1.5" stroke-linecap="round" stroke-linejoin="round"/>
<path d="M12.9166 4.25016C12.9166 5.86099 11.6107 7.16683 9.99992 7.16683C8.38909 7.16683 7.08325 5.86099 7.08325 4.25016C7.08325 2.63933 8.38909 1.3335 9.99992 1.3335C11.6107 1.3335 12.9166 2.63933 12.9166 4.25016Z" fill="#76B898" stroke="#76B898" stroke-width="1.5"/>
</svg>
