<svg width="52" height="50" viewBox="0 0 52 50" fill="none" xmlns="http://www.w3.org/2000/svg">
<path d="M51.7381 26.1527V31.9582V34.1747V39.1163L51.769 49.006L40.6401 49.091L28.1228 46.418L13.7709 49.091H0.581543V26.153C0.581543 12.0284 12.0352 0.574707 26.1598 0.574707C33.2237 0.574707 39.6166 3.43727 44.2461 8.06672C48.8755 12.6956 51.7381 19.0917 51.7381 26.1527Z" fill="#FFC444"/>
<path d="M24.8612 35.2954C22.9525 36.2575 20.7 36.1889 18.5752 35.956C16.6399 35.744 14.7159 35.4139 12.8328 34.9191C11.369 34.5345 9.91666 34.048 8.40685 33.9422C8.21558 33.9288 8.016 33.923 7.83998 33.9997C7.66418 34.0764 7.52004 34.2593 7.54984 34.4487C7.57386 34.6019 7.69814 34.7167 7.81503 34.8186C8.1606 35.1193 8.50618 35.4203 8.85175 35.7211C7.9922 35.5227 7.02062 35.4351 6.17585 35.6895C5.94046 35.7604 5.69653 35.8736 5.57918 36.0895C5.45559 36.3171 5.50803 36.6091 5.6494 36.826C5.79077 37.0429 6.00768 37.1986 6.22644 37.3372C6.66765 37.6169 7.1382 37.85 7.62815 38.0311C7.40939 38.2191 7.07074 38.4125 6.84113 38.5871C6.61152 38.7618 6.40962 39.0126 6.40893 39.3011C6.40801 39.591 6.61591 39.8491 6.86862 39.9914C7.12133 40.1337 7.41447 40.1817 7.70091 40.227C12.0765 40.9191 16.538 41.51 20.9231 40.8803C21.9037 40.7396 22.8878 40.534 23.7776 40.0983C24.6672 39.6627 25.4625 38.975 25.8702 38.0722C26.2779 37.1692 26.2437 36.0401 25.6478 35.2489L24.8612 35.2954Z" fill="#B8B269"/>
<path d="M48.1866 46.1211L44.1174 45.7086C45.0771 45.0295 45.8339 44.0667 46.1896 42.9486C46.7357 41.235 46.2581 39.2144 44.977 37.9747C44.8394 37.8409 44.6932 37.7167 44.5356 37.6016C44.6709 37.7326 44.7835 37.8796 44.8718 38.0369C45.4124 38.9749 45.173 40.334 44.3357 41.0646C43.3502 41.9208 41.7647 41.8825 40.721 41.102C40.4474 40.8971 40.2145 40.6494 40.0186 40.3716C39.4693 39.5968 39.2354 38.5884 39.3583 37.6343C39.3684 37.5599 39.3782 37.488 39.3936 37.4138C39.4006 37.3702 39.4104 37.3268 39.4198 37.2837C39.4198 37.2837 39.4173 37.2834 39.4201 37.2812C39.4317 37.2171 39.4486 37.1538 39.4655 37.0903C39.5115 36.9178 39.5704 36.7491 39.6419 36.5846C39.7368 36.3676 39.8513 36.163 39.9928 35.974C40.0446 35.901 40.1011 35.8312 40.1626 35.7646C40.1948 35.7288 40.227 35.6956 40.2589 35.6624C40.3463 35.5724 40.4405 35.4907 40.5394 35.4148C40.5394 35.4148 40.5419 35.415 40.5422 35.4125C40.5422 35.4125 40.5447 35.4128 40.545 35.4102C40.545 35.4102 40.5475 35.4105 40.5478 35.408C40.5503 35.4082 40.5506 35.4057 40.5531 35.406C40.5928 35.3735 40.6323 35.3436 40.6712 35.319C40.7107 35.2891 40.7522 35.2648 40.7942 35.2377C40.8443 35.2063 40.8941 35.1775 40.9439 35.1486C41.0102 35.111 41.0764 35.0761 41.1472 35.0441C41.2049 35.016 41.2648 34.9882 41.3247 34.9631C41.3927 34.9361 41.4607 34.9066 41.5307 34.8851C41.5607 34.8726 41.5903 34.8626 41.6199 34.8524C41.6201 34.8498 41.6227 34.8501 41.6227 34.8501C41.6252 34.8503 41.6255 34.8478 41.628 34.8481C41.7197 34.8184 41.8137 34.7887 41.9074 34.7645C41.9986 34.7398 42.0921 34.7154 42.1878 34.6966C42.2891 34.6729 42.3926 34.6549 42.496 34.6365C42.8089 34.5823 43.1247 34.5517 43.4436 34.5399C43.4776 34.5382 43.5115 34.5389 43.5455 34.5372C43.5561 34.5357 43.5665 34.5368 43.5771 34.5353C43.5874 34.5364 43.598 34.5349 43.6109 34.5362C43.6631 34.5336 43.7128 34.5335 43.762 34.5359C43.8115 34.5358 43.861 34.5355 43.913 34.5382C44.0091 34.5401 44.1078 34.545 44.2059 34.5524C44.3122 34.558 44.4154 34.5685 44.5158 34.5787C44.5776 34.5849 44.6367 34.5935 44.6984 34.6023C44.8758 34.6254 45.0473 34.656 45.2183 34.6914C45.2617 34.701 45.3076 34.7109 45.3535 34.7207C45.6335 34.7855 45.9068 34.8655 46.176 34.9603C46.968 35.2438 47.7094 35.6656 48.346 36.2223C49.9182 37.5983 50.7725 39.7848 50.4412 41.8458C50.3236 42.5685 50.0711 43.2619 49.7414 43.9163C49.3336 44.7263 48.8055 45.4648 48.1866 46.1211Z" fill="#B8B269"/>
<path d="M35.9501 44.8767L30.5679 44.3312L31.796 32.2149C32.6964 32.6705 33.5615 33.4747 34.3109 34.1906C34.3697 34.2492 34.4306 34.3104 34.4897 34.3645C34.5007 34.3751 34.5091 34.3857 34.5204 34.3938C34.5728 34.4447 34.625 34.4955 34.6754 34.5437C34.7798 34.6479 34.8826 34.7445 34.979 34.8357C34.3071 35.3163 33.8596 35.9972 33.5892 36.7724C33.5825 36.791 33.5757 36.8117 33.569 36.8303C33.4408 37.2199 33.356 37.6306 33.3111 38.0503C33.2398 38.7308 33.2765 39.4317 33.3991 40.0913C33.733 41.9034 34.6053 43.6285 35.9501 44.8767Z" fill="#B8B269"/>
<path d="M33.311 38.0503C32.6121 37.9244 31.9276 37.7255 31.2635 37.469L31.3431 36.6839C32.0858 36.7327 32.8285 36.7817 33.5688 36.8303C33.4407 37.2199 33.3558 37.6307 33.311 38.0503Z" fill="#30181B"/>
<path d="M40.0226 40.3719C39.4712 39.595 39.2382 38.586 39.3601 37.6332C39.4519 36.9016 39.7415 36.1824 40.2608 35.6604C40.8478 35.0672 41.6766 34.773 42.4995 34.6347C43.7254 34.4262 45.0091 34.5412 46.1789 34.9598C44.8381 34.9096 43.4911 35.2444 42.384 35.9966C40.9599 36.9688 40.0245 38.6634 40.0226 40.3719Z" fill="#3C2C11"/>
<path d="M41.0174 38.7537C41.025 38.6792 41.0372 38.605 41.0539 38.5315C41.2279 37.7746 41.8866 37.1722 42.6559 37.0665C43.0137 37.0176 43.4151 37.0685 43.8485 37.2183C44.2573 37.3595 44.6284 37.5599 44.9523 37.814C45.0067 37.8572 45.0159 37.9354 44.9735 37.9901C44.9308 38.0445 44.8518 38.0541 44.7974 38.0112C44.4957 37.7745 44.1489 37.5875 43.7667 37.4554C43.371 37.3187 43.0087 37.2715 42.6901 37.3152C42.0322 37.4054 41.447 37.9405 41.2983 38.5876C41.1493 39.2352 41.4429 39.9717 41.9953 40.34C42.3618 40.584 42.8184 40.6554 43.1877 40.5261C43.5857 40.3865 43.872 40.0034 43.8679 39.6178C43.8652 39.3377 43.7107 39.0594 43.4745 38.909C43.238 38.7585 42.9208 38.7365 42.6659 38.8525C42.6029 38.8812 42.5286 38.8535 42.4999 38.7904C42.4713 38.7272 42.499 38.6529 42.5618 38.6244C42.897 38.4717 43.2982 38.4996 43.609 38.6974C43.9196 38.8951 44.115 39.2467 44.1185 39.6153C44.1227 40.1045 43.7665 40.5887 43.2703 40.7625C42.8216 40.9197 42.2929 40.8396 41.856 40.5485C41.2731 40.16 40.9473 39.4459 41.0174 38.7537Z" fill="#3C2C11"/>
<path d="M39.1606 46.7823C39.1345 47.5333 39.0462 48.2868 38.9078 49.0257H16.4205C16.399 48.8421 16.3872 48.6538 16.3823 48.4679C16.38 48.3917 16.3775 48.3152 16.3775 48.239V48.208C16.3752 48.1198 16.3775 48.0315 16.3847 47.941C16.3847 47.8957 16.387 47.8504 16.3895 47.8026C16.3918 47.731 16.3944 47.6548 16.399 47.5832C16.4944 46.0502 16.9497 44.5409 17.7127 43.2059C18.1396 42.4573 18.6616 41.7682 19.1647 41.0696C19.2435 40.9599 19.3221 40.8527 19.3983 40.743C19.7298 40.2685 20.0516 39.7726 20.3401 39.26C20.3853 39.1789 20.4306 39.0978 20.4736 39.0144C20.5068 38.9525 20.5403 38.8881 20.5736 38.8262C20.5856 38.8024 20.5974 38.7786 20.6094 38.7546C20.6381 38.6973 20.6667 38.6402 20.6928 38.5829C20.7143 38.5448 20.7335 38.5067 20.7501 38.4686C20.8908 38.1752 21.0171 37.8772 21.1292 37.5746C21.1506 37.515 21.1721 37.4554 21.1911 37.3958C21.2102 37.3434 21.2292 37.2884 21.2484 37.2337C21.3604 36.8855 21.4509 36.5328 21.5154 36.1775V36.1752C21.5202 36.1489 21.5249 36.1179 21.5297 36.0893C21.532 36.0821 21.532 36.0727 21.5346 36.0632C21.5466 35.9893 21.5584 35.913 21.5681 35.8368C21.5775 35.77 21.5847 35.7056 21.5919 35.6388C21.6013 35.5506 21.6085 35.46 21.611 35.3695C21.6182 35.2789 21.623 35.1884 21.623 35.0976C21.6254 34.84 21.611 34.5802 21.5801 34.3228L33.0432 26.9509C32.9908 27.907 33.0123 28.8678 33.1028 29.8213C33.1028 29.8236 33.1051 29.8236 33.1051 29.8236C33.1051 29.8236 33.1028 29.826 33.1028 29.8285V29.838C33.1504 30.3411 33.222 30.8417 33.3126 31.3399V31.3422C33.3103 31.3445 33.3103 31.3445 33.3126 31.3445C33.7154 33.6261 34.5309 35.841 35.7159 37.8343C35.9448 38.2205 36.1881 38.5973 36.4359 38.9763C36.4359 38.9786 36.4382 38.9786 36.4382 38.9812C36.4382 38.9812 36.4382 38.9835 36.4405 38.9835C36.6623 39.3196 36.8841 39.6559 37.0987 39.9895C37.0987 39.9918 37.101 39.9918 37.101 39.9943C37.1033 39.9943 37.1033 39.9992 37.1033 39.9992C37.1056 39.9992 37.1056 40.0015 37.1056 40.0015C37.1079 40.0015 37.1079 40.0038 37.1079 40.0038C37.4821 40.5832 37.8422 41.172 38.1451 41.7871V41.7894C38.2881 42.0708 38.4144 42.3568 38.529 42.655C39.0319 43.9664 39.2084 45.3732 39.1606 46.7823Z" fill="#B8B269"/>
<path d="M27.5517 37.1069C26.7518 38.2577 25.5508 39.0953 24.2442 39.6044C23.2211 40.0031 22.0377 40.1988 21.0421 39.7347C20.7839 39.6144 20.5482 39.4513 20.3401 39.2609C21.0724 37.9595 21.6014 36.5478 21.6215 35.0983C21.7367 35.1108 21.8497 35.1184 21.965 35.1235C24.2369 35.2288 26.5385 34.5393 28.3791 33.2002C28.6825 34.5693 28.354 35.9583 27.5517 37.1069Z" fill="#30181B"/>
<path d="M21.6854 36.1993C21.6805 36.2374 21.6733 36.2755 21.6664 36.3136C21.5137 37.4056 21.0155 38.3949 20.4243 39.3319C20.1524 39.7634 19.8593 40.1806 19.5731 40.5977L19.4705 40.7433C19.3989 40.8481 19.3252 40.9556 19.2513 41.0627C18.1952 42.6077 17.0792 44.3982 16.6073 46.37C16.4904 46.8516 16.419 47.3307 16.3904 47.8029C16.3881 47.8504 16.3855 47.896 16.3855 47.9412C16.3784 48.0318 16.3761 48.12 16.3784 48.2083V48.2392C16.3761 48.3155 16.3784 48.3919 16.3832 48.4681C16.3855 48.6564 16.3975 48.8424 16.419 49.026H16.1686C16.0781 48.1604 16.14 47.2427 16.364 46.3129C16.829 44.3674 17.8923 42.6151 18.9318 41.0893C19.0416 40.9225 19.1536 40.7604 19.2656 40.6005L19.3682 40.455C20.1335 39.3536 20.918 38.221 21.2756 36.9623C21.3446 36.7167 21.3971 36.4688 21.4306 36.2113C21.4329 36.1993 21.4329 36.1826 21.4354 36.1709C21.4403 36.1374 21.4569 36.1113 21.4784 36.0921C21.4927 36.0778 21.5142 36.0683 21.5357 36.0634C21.5477 36.0586 21.562 36.0586 21.5761 36.0586C21.5976 36.0609 21.6165 36.0706 21.6334 36.0849C21.6428 36.0898 21.65 36.0969 21.6572 36.1064C21.6782 36.1279 21.69 36.1635 21.6854 36.1993Z" fill="#30181B"/>
<path d="M32.6064 21.2382C32.6942 23.3546 33.928 29.3449 32.5187 31.988C31.1246 34.6008 28.2609 36.2659 22.1452 35.5336C22.0223 35.7995 21.8266 36.0275 21.561 36.158C21.1823 36.341 20.7109 36.2985 20.3399 36.1028C19.9664 35.9048 19.6855 35.5687 19.4974 35.1975C19.174 35.6062 18.5697 35.7766 18.0705 35.6013C17.5716 35.4257 17.2179 34.9168 17.2329 34.4003C17.0172 34.7713 16.5309 34.967 16.1096 34.8517C15.6908 34.7339 15.3824 34.3151 15.4 33.8889C15.0163 34.2148 14.4346 34.3001 13.9682 34.0945C13.4894 33.8864 13.2184 33.4251 13.1683 32.9309C12.6268 33.4149 11.8594 32.8607 11.5559 32.3717C11.3879 32.0959 11.3427 31.805 11.3854 31.5216C8.98577 30.0698 6.98716 27.7554 7.0925 23.934C7.09504 23.7884 7.1126 23.6431 7.14263 23.5001C7.15256 23.435 7.17011 23.3699 7.19021 23.3045C7.27037 23.0086 7.41082 22.7277 7.59885 22.477C9.04814 20.5588 13.6947 14.7489 17.3655 14.0167C21.7712 13.134 23.5316 14.4553 26.2623 14.1044C28.9929 13.7508 32.6062 13.4877 33.3985 15.2504C34.1911 17.0107 32.5187 19.1245 32.6064 21.2382Z" fill="#B8B269"/>
<path d="M26.8181 23.5249C27.7695 21.1664 26.6288 18.4832 24.2703 17.5318C21.9118 16.5805 19.2286 17.7211 18.2772 20.0796C17.3258 22.4382 18.4665 25.1213 20.825 26.0727C23.1835 27.0241 25.8667 25.8834 26.8181 23.5249Z" fill="#FEE6D5"/>
<path d="M26.5841 22.7684C27.1161 20.5391 25.7401 18.3006 23.5107 17.7686C21.2813 17.2367 19.0429 18.6127 18.5109 20.842C17.9789 23.0714 19.355 25.3099 21.5843 25.8419C23.8137 26.3738 26.0522 24.9978 26.5841 22.7684Z" fill="#30181B"/>
<path d="M17.4007 26.113C16.3242 26.979 15.2233 27.8483 13.9477 28.3786C12.6721 28.9092 11.1785 29.0672 9.92093 28.4953C8.99554 28.0744 8.26373 27.2839 7.81929 26.3696C7.37461 25.4553 7.20414 24.4241 7.22215 23.4077C8.33788 23.1569 9.41919 23.207 10.5183 23.523C12.8237 24.1851 15.0039 26.0284 17.4007 26.113Z" fill="#30181B"/>
<path d="M14.0139 28.0825C13.743 27.219 12.8799 26.5778 11.9751 26.5671C11.5214 26.5618 11.0601 26.6983 10.6203 26.5872C10.3239 26.5124 10.0675 26.332 9.79148 26.2005C9.2253 25.931 8.56187 25.8718 7.95711 26.037C8.32786 26.6431 8.75336 27.2504 9.31862 27.6808C9.9481 28.1603 10.7547 28.3636 11.5459 28.3819C12.3369 28.4001 13.2422 28.2578 14.0139 28.0825Z" fill="#E8A9BD"/>
<path d="M19.8603 26.1233C19.3815 26.2637 18.8673 26.3314 18.3207 26.3314C17.3953 26.3314 16.3798 26.1332 15.2791 25.7371C14.567 25.4813 13.8675 25.1679 13.1904 24.8643C12.4859 24.5483 11.7587 24.2224 11.0213 23.9641C9.56697 23.4527 8.2632 23.2972 7.13962 23.5003C7.14955 23.4351 7.16711 23.37 7.1872 23.3046C8.32557 23.1141 9.63211 23.2746 11.0839 23.786C11.8287 24.0494 12.5584 24.3753 13.268 24.6936C13.94 24.9946 14.6372 25.3081 15.3417 25.5613C17.0544 26.1755 18.5563 26.306 19.8077 25.9424C19.8578 25.9274 19.9079 25.9574 19.9229 26.0076C19.9379 26.0582 19.9105 26.1083 19.8603 26.1233Z" fill="#30181B"/>
<path d="M12.0813 20.5557C11.6888 20.5868 11.3095 20.7629 11.0321 21.0422C10.7546 21.3214 10.5814 21.7021 10.553 22.0948C10.9535 21.9985 11.2822 21.8948 11.6059 21.6397C11.9295 21.385 12.1776 20.9562 12.0813 20.5557Z" fill="#30181B"/>
<path d="M15.3844 18.7657C15.3414 18.5583 15.2437 18.3938 15.0982 18.3056C14.9598 18.2196 14.7953 18.1984 14.6119 18.2411C14.34 18.3127 14.0563 18.5202 13.9205 18.7514C13.8108 18.9325 13.7727 19.1305 13.8133 19.3069C13.8538 19.4906 13.9921 19.6597 14.1804 19.7599C14.2924 19.8172 14.4188 19.8482 14.5523 19.8482C14.8122 19.8482 15.0815 19.7267 15.2414 19.5144C15.3749 19.3307 15.432 19.0302 15.3844 18.7657ZM15.091 19.3998C14.905 19.6454 14.538 19.7313 14.2661 19.5929C14.1254 19.519 14.0277 19.395 13.9967 19.264C13.9896 19.2353 13.9873 19.1995 13.9873 19.1663C13.9873 19.0662 14.0208 18.954 14.0827 18.8491C14.1758 18.6895 14.4093 18.4843 14.6549 18.4248C14.705 18.4127 14.7503 18.4081 14.7955 18.4081C14.8695 18.4081 14.9411 18.4273 14.9981 18.4654C15.0982 18.5273 15.1675 18.6465 15.1961 18.7992C15.2388 19.0113 15.1912 19.2591 15.091 19.3998Z" fill="#30181B"/>
<path d="M16.9609 17.2916C16.9205 17.0841 16.8179 16.922 16.6749 16.8314C16.5391 16.748 16.3721 16.7242 16.1885 16.7718C15.9214 16.8363 15.6354 17.046 15.4948 17.2795C15.3899 17.4632 15.3492 17.6586 15.3899 17.8302C15.4303 18.0185 15.5687 18.1855 15.7572 18.2856C15.8715 18.3451 15.9979 18.3738 16.1268 18.3738C16.3938 18.3738 16.656 18.2546 16.8182 18.0377C16.9514 17.8566 17.011 17.5563 16.9609 17.2916ZM16.6655 17.9305C16.4844 18.1737 16.1122 18.2594 15.8429 18.1188C15.7045 18.0472 15.6045 17.9257 15.5735 17.7898C15.5664 17.7589 15.5641 17.7254 15.5641 17.6921C15.5641 17.5872 15.5973 17.4798 15.6595 17.3749C15.7526 17.2151 15.9861 17.0125 16.234 16.9529C16.2815 16.9386 16.327 16.9337 16.3723 16.9337C16.4462 16.9337 16.5153 16.9529 16.5749 16.991C16.6752 17.0529 16.7442 17.1698 16.7752 17.3248C16.8156 17.542 16.7703 17.7875 16.6655 17.9305Z" fill="#30181B"/>
<path d="M18.7275 15.9475C18.6894 15.7401 18.5869 15.5779 18.4439 15.4874C18.308 15.404 18.1387 15.3825 17.9576 15.4278C17.6883 15.4922 17.4069 15.6996 17.2662 15.9332C17.1565 16.1191 17.1184 16.3123 17.1588 16.4864C17.2018 16.6724 17.3353 16.844 17.5261 16.9394C17.6405 17.0039 17.7694 17.0277 17.8957 17.0277C18.1604 17.0277 18.4272 16.9085 18.5848 16.6962C18.7204 16.5125 18.78 16.2145 18.7275 15.9475ZM18.4342 16.5841C18.2531 16.832 17.8835 16.9179 17.6141 16.7773C17.4734 16.701 17.3732 16.5793 17.3422 16.4483C17.3161 16.3197 17.3445 16.1718 17.4256 16.0311C17.5233 15.869 17.7546 15.6712 18.005 15.6116C18.1362 15.5781 18.2505 15.5902 18.3411 15.6474C18.4436 15.7094 18.515 15.8285 18.5437 15.9835C18.582 16.1956 18.5416 16.4435 18.4342 16.5841Z" fill="#30181B"/>
<path d="M20.734 15.0303C20.6935 14.8228 20.5933 14.6607 20.4477 14.5701C20.3119 14.4867 20.1449 14.4653 19.9638 14.5105C19.6945 14.575 19.4082 14.7847 19.2701 15.016C19.1629 15.2019 19.1223 15.395 19.1652 15.569C19.2057 15.7598 19.3417 15.9266 19.53 16.0243C19.6443 16.0862 19.7732 16.1125 19.9019 16.1125C20.1666 16.1125 20.4311 15.9956 20.591 15.7764C20.7245 15.5953 20.7841 15.2973 20.734 15.0303ZM20.4406 15.6692C20.2569 15.9148 19.8876 16.0007 19.618 15.8575C19.4773 15.7859 19.3771 15.6621 19.3461 15.5309C19.3389 15.4999 19.3366 15.4689 19.3366 15.4355C19.3366 15.3306 19.3701 15.2209 19.432 15.1137C19.5274 14.9538 19.761 14.7535 20.0065 14.6939C20.0567 14.6796 20.0996 14.6748 20.1449 14.6748C20.2188 14.6748 20.2904 14.6939 20.3475 14.7295C20.4475 14.7914 20.5191 14.9106 20.5478 15.0656C20.5884 15.2805 20.5457 15.526 20.4406 15.6692Z" fill="#30181B"/>
<path d="M27.3613 27.495C27.3613 28.544 26.2052 29.3943 24.779 29.3943C23.353 29.3943 22.1968 28.544 22.1968 27.495C22.1968 26.446 23.353 25.5957 24.779 25.5957C26.2052 25.5957 27.3613 26.446 27.3613 27.495Z" fill="#E8A9BD"/>
<path d="M38.0707 41.9734C38.3438 41.3416 38.4747 40.6135 38.2463 39.9644C38.0178 39.315 37.356 38.7916 36.6741 38.8854C36.8626 38.489 36.8369 37.9983 36.6083 37.6236C36.3796 37.249 35.955 37.0018 35.5163 36.9882C35.7173 36.6243 35.7845 36.1706 35.6219 35.7881C35.4593 35.4056 35.0384 35.127 34.6286 35.197C34.9238 34.9373 35.0476 34.4989 34.9317 34.1231C34.8157 33.7475 34.4664 33.4548 34.0763 33.4067C34.1844 33.1168 34.2765 32.8135 34.2657 32.5042C34.2548 32.1949 34.1252 31.8759 33.8686 31.7031C33.7536 31.6257 33.6196 31.5809 33.5015 31.5081C33.1793 31.309 33.0123 30.8884 33.1102 30.5225C32.642 33.1053 32.2135 35.7641 32.9836 38.2734C33.3251 39.3857 33.8875 40.4633 34.7813 41.2085C35.6748 41.954 36.9688 42.3474 38.0707 41.9734Z" fill="#B8B269"/>
<path d="M29.9531 12.6846C29.1973 12.556 28.4343 12.4629 27.669 12.4056C27.5426 12.3936 27.4139 12.3864 27.2851 12.3795C26.4029 12.327 25.5184 12.3199 24.6362 12.3628C24.4883 12.37 24.3428 12.3772 24.195 12.3892C24.1927 12.3892 24.1927 12.3892 24.1927 12.3892C23.3534 12.4416 22.5191 12.5419 21.6893 12.6825C21.6893 12.6825 21.6893 12.6825 21.687 12.6825C21.532 12.7089 21.3795 12.7373 21.2268 12.7659C21.1314 12.7826 21.0383 12.8017 20.9432 12.8207C21.2961 12.0196 21.6466 11.221 22.0018 10.4245C22.0758 10.26 22.1497 10.0979 22.2236 9.93572C22.5454 9.22286 22.872 8.5123 23.2084 7.8066C23.2869 7.63727 23.368 7.47049 23.4516 7.30117C23.9238 6.32612 24.4172 5.36054 24.9392 4.40674C25.1799 4.84056 25.4255 5.26975 25.6736 5.6941C25.714 5.76317 25.7547 5.83247 25.7951 5.90154C26.0286 6.29978 26.2647 6.69549 26.5008 7.08888C26.5438 7.15564 26.5842 7.22471 26.6249 7.29401C26.8919 7.73268 27.1612 8.16903 27.4306 8.60539C27.4712 8.67215 27.514 8.74122 27.5569 8.80798C27.7905 9.18705 28.0266 9.56612 28.265 9.94519C28.3056 10.0143 28.3483 10.0836 28.3913 10.1503C28.6251 10.5245 28.8586 10.899 29.0899 11.2781C29.1328 11.3448 29.1756 11.4139 29.2162 11.4807C29.462 11.8789 29.7075 12.2794 29.9531 12.6846Z" fill="#C97A4D"/>
<path d="M25.7979 5.90228C24.9014 6.48879 24.0361 7.12288 23.2112 7.80733C23.2897 7.63801 23.3708 7.47123 23.4544 7.3019C24.1673 6.73203 24.9111 6.19565 25.6764 5.69507C25.7168 5.76391 25.7575 5.83298 25.7979 5.90228Z" fill="#FEE6D5"/>
<path d="M26.6273 7.2945C25.0443 8.13603 23.4922 9.18523 22.0043 10.425C22.0783 10.2605 22.1522 10.0984 22.2261 9.93621C23.6089 8.82279 25.0418 7.86922 26.5033 7.0896C26.5463 7.15636 26.5867 7.22543 26.6273 7.2945Z" fill="#FEE6D5"/>
<path d="M27.5592 8.80879C25.4564 9.85776 23.48 11.1597 21.6918 12.6831C21.6918 12.6831 21.6918 12.6831 21.6895 12.6831C21.5345 12.7095 21.382 12.7379 21.2293 12.7665C23.1058 11.1239 25.1988 9.72193 27.4328 8.6062C27.4735 8.67296 27.5165 8.74203 27.5592 8.80879Z" fill="#FEE6D5"/>
<path d="M28.3919 10.1514C27.0782 10.7761 25.8195 11.5176 24.6368 12.3639C24.4889 12.3711 24.3434 12.3783 24.1956 12.3903C25.4688 11.4485 26.8347 10.6284 28.2653 9.94653C28.306 10.0156 28.3489 10.0847 28.3919 10.1514Z" fill="#FEE6D5"/>
<path d="M29.2179 11.4819C28.6887 11.7681 28.1713 12.0756 27.6707 12.4071C27.5443 12.395 27.4157 12.3879 27.2868 12.3809C27.8661 11.9781 28.4741 11.6133 29.0916 11.2795C29.1345 11.3461 29.1773 11.4151 29.2179 11.4819Z" fill="#FEE6D5"/>
<path d="M20.9425 12.8212C20.9425 12.8212 21.5912 13.3655 25.0811 13.2437C28.5711 13.122 29.9527 12.685 29.9527 12.685C29.9527 12.685 25.2246 11.648 20.9425 12.8212Z" fill="#30181B"/>
<path d="M31.6642 46.9436C31.7501 47.6327 31.8381 48.3287 31.9407 49.0249H31.7C31.5997 48.3382 31.5117 47.6516 31.4281 46.972C31.1038 44.3781 30.7677 41.696 29.6709 39.3021C29.6423 39.2425 29.6686 39.1709 29.7282 39.1425C29.7901 39.1162 29.8594 39.1425 29.8878 39.2021C30.9989 41.6295 31.3376 44.3306 31.6642 46.9436Z" fill="#30181B"/>
<path d="M36.915 46.0623C37.492 47.023 38.0785 48.0029 38.5625 49.0258H38.2978C37.8256 48.0482 37.2631 47.109 36.7099 46.1864C36.6979 46.1672 36.6884 46.1482 36.6741 46.1291C36.1996 45.3328 35.7108 44.5125 35.2865 43.6759C34.6618 42.4504 34.1541 41.1344 33.7009 39.9207C33.6246 39.7084 33.5459 39.5012 33.4719 39.2984C33.4505 39.2365 33.4814 39.1672 33.5436 39.1457C33.6055 39.1219 33.6748 39.1529 33.696 39.2148C33.8676 39.6821 34.0488 40.1709 34.2396 40.6692C34.6092 41.6324 35.0215 42.629 35.4985 43.5682C35.9039 44.367 36.3758 45.161 36.8337 45.9263C36.86 45.9715 36.8887 46.0168 36.915 46.0623Z" fill="#30181B"/>
<path d="M34.6638 18.8861C35.8541 18.0989 37.0853 17.3731 38.3505 16.7129" stroke="#30181B" stroke-width="0.238415" stroke-miterlimit="10" stroke-linecap="round" stroke-linejoin="round"/>
<path d="M34.8237 20.0617C36.1887 19.5907 37.6006 19.2565 39.0316 19.0652" stroke="#30181B" stroke-width="0.238415" stroke-miterlimit="10" stroke-linecap="round" stroke-linejoin="round"/>
<path d="M35.2503 21.8247C36.4376 21.6425 37.6446 21.5882 38.8435 21.6635" stroke="#30181B" stroke-width="0.238415" stroke-miterlimit="10" stroke-linecap="round" stroke-linejoin="round"/>
<path d="M14.6745 14.9614C14.3569 13.9156 14.076 12.8586 13.8325 11.7932" stroke="#30181B" stroke-width="0.238415" stroke-miterlimit="10" stroke-linecap="round" stroke-linejoin="round"/>
<path d="M11.7592 12.5859C12.3566 13.4663 12.8673 14.4055 13.2815 15.3857" stroke="#30181B" stroke-width="0.238415" stroke-miterlimit="10" stroke-linecap="round" stroke-linejoin="round"/>
<path d="M8.93936 13.761C9.94236 14.7665 10.9315 15.7857 11.9063 16.8183" stroke="#30181B" stroke-width="0.238415" stroke-miterlimit="10" stroke-linecap="round" stroke-linejoin="round"/>
<path d="M7.23721 15.9307C8.58579 16.4971 9.40122 16.8283 10.7475 17.3998" stroke="#30181B" stroke-width="0.238415" stroke-miterlimit="10" stroke-linecap="round" stroke-linejoin="round"/>
<path d="M42.6553 32.2004C42.4521 31.6332 41.892 31.2759 41.3362 31.0431C40.7803 30.8102 40.1805 30.6517 39.7019 30.2857C38.9388 29.7022 38.6241 28.6932 38.5653 27.7345C38.5007 26.6814 38.6947 25.6135 39.1257 24.6504C40.2051 25.0751 41.4452 25.4368 42.3566 26.1543C43.268 26.8717 43.9844 27.9264 44.0169 29.0859C44.0455 30.1091 43.2368 31.3583 42.6553 32.2004Z" fill="#917D44"/>
<path d="M39.2771 24.4443C39.501 25.2539 40.2525 25.7784 40.8571 26.3616C42.3664 27.8175 43.123 30.0156 42.8298 32.092" stroke="#3C2C11" stroke-width="0.220342" stroke-miterlimit="10" stroke-linecap="round" stroke-linejoin="round"/>
<path d="M17.1655 6.71302C17.7338 6.51247 18.3643 6.72142 18.8959 7.00571C19.4272 7.29 19.9288 7.65487 20.515 7.79531C21.4492 8.01896 22.4304 7.626 23.2111 7.06635C24.0687 6.45157 24.7743 5.62706 25.2492 4.68469C24.2383 4.11559 23.1751 3.38216 22.0432 3.12832C20.9113 2.87422 19.6414 2.98447 18.7216 3.69112C17.9097 4.3143 17.4513 5.73022 17.1655 6.71302Z" fill="#917D44"/>
<path d="M25.3148 4.43781C24.5457 4.77512 23.6642 4.52339 22.8305 4.42259C20.7487 4.17111 18.5662 4.97174 17.1409 6.50999" stroke="#3C2C11" stroke-width="0.220342" stroke-miterlimit="10" stroke-linecap="round" stroke-linejoin="round"/>
<path d="M20.2752 49.0394H0.581406V45.4712C0.586918 45.4631 0.592168 45.4576 0.597681 45.4497C0.884856 45.0785 1.24238 44.7318 1.69493 44.6097C2.35328 44.4283 3.06308 44.7751 3.51012 45.2896C3.95716 45.8044 4.19288 46.4627 4.42047 47.1074C4.72654 45.7988 5.52034 44.6121 6.61234 43.8293C7.72036 43.0329 9.21582 42.6669 10.4784 43.1872C11.4077 43.5692 12.1067 44.3821 12.5564 45.2815C13.0061 46.181 13.231 47.1699 13.456 48.1506C14.4341 46.899 16.0705 46.0997 17.631 46.3924C18.9396 46.6362 20.072 47.755 20.2752 49.0394Z" fill="#C97A4D"/>
<path d="M51.7706 39.7434V49.0391H33.7077C33.9001 48.4592 34.328 47.9581 34.8916 47.7143C35.7368 47.3457 36.8125 47.6032 37.4003 48.3156C37.5276 46.5737 38.6466 44.9018 40.2694 44.2626C41.8951 43.6232 43.946 44.1571 44.9348 45.5956C45.0052 43.0625 46.8232 40.6756 49.2453 39.9359C50.0609 39.6865 50.9253 39.6295 51.7706 39.7434Z" fill="#C97A4D"/>
</svg>
