<svg width="16" height="16" viewBox="0 0 16 16" fill="none" xmlns="http://www.w3.org/2000/svg">
<path d="M9.5 5V3.5C9.5 3.15126 9.5 2.97689 9.46167 2.83383C9.35764 2.4456 9.0544 2.14236 8.66617 2.03833C8.52311 2 8.34874 2 8 2C7.65126 2 7.47689 2 7.33383 2.03833C6.9456 2.14236 6.64236 2.4456 6.53833 2.83383C6.5 2.97689 6.5 3.15126 6.5 3.5V5C6.5 5.70711 6.5 6.06066 6.28033 6.28033C6.06066 6.5 5.70711 6.5 5 6.5L3.5 6.5C3.15126 6.5 2.97689 6.5 2.83383 6.53833C2.4456 6.64236 2.14236 6.9456 2.03833 7.33383C2 7.47689 2 7.65126 2 8C2 8.34874 2 8.52311 2.03833 8.66617C2.14236 9.0544 2.4456 9.35764 2.83383 9.46167C2.97689 9.5 3.15126 9.5 3.5 9.5H5C5.70711 9.5 6.06066 9.5 6.28033 9.71967C6.5 9.93934 6.5 10.2929 6.5 11V12.5C6.5 12.8487 6.5 13.0231 6.53833 13.1662C6.64236 13.5544 6.9456 13.8576 7.33383 13.9617C7.47689 14 7.65126 14 8 14C8.34874 14 8.52311 14 8.66617 13.9617C9.0544 13.8576 9.35764 13.5544 9.46167 13.1662C9.5 13.0231 9.5 12.8487 9.5 12.5V11C9.5 10.2929 9.5 9.93934 9.71967 9.71967C9.93934 9.5 10.2929 9.5 11 9.5H12.5C12.8487 9.5 13.0231 9.5 13.1662 9.46167C13.5544 9.35764 13.8576 9.0544 13.9617 8.66617C14 8.52311 14 8.34874 14 8C14 7.65126 14 7.47689 13.9617 7.33383C13.8576 6.9456 13.5544 6.64236 13.1662 6.53833C13.0231 6.5 12.8487 6.5 12.5 6.5H11C10.2929 6.5 9.93934 6.5 9.71967 6.28033C9.5 6.06066 9.5 5.70711 9.5 5Z" stroke="#FDFDFD" stroke-width="1.5" stroke-linecap="round" stroke-linejoin="round"/>
</svg>
