<svg width="96" height="96" viewBox="0 0 96 96" fill="none" xmlns="http://www.w3.org/2000/svg">
<g filter="url(#filter0_d_709_31125)">
<rect x="16" y="8" width="64" height="64" rx="32" fill="#EE6054"/>
<g clip-path="url(#clip0_709_31125)">
<path d="M41.375 33.9394V32.6664C41.7354 32.3291 42.2004 32.1253 42.6927 32.0889C43.185 32.0525 43.6749 32.1857 44.081 32.4664L44.1 32.4794C44.084 32.3854 44.0765 32.3249 44.0745 32.3099C44.0634 32.2182 44.0866 32.1257 44.1396 32.05C44.1925 31.9744 44.2715 31.9209 44.3615 31.8999C44.3765 31.8964 44.436 31.8834 44.53 31.8659L44.5105 31.8524C44.068 31.5463 43.5494 31.3687 43.0122 31.3393C42.475 31.3099 41.9402 31.4299 41.467 31.6859C41.6505 30.7681 42.103 29.9256 42.767 29.2659C42.8332 29.1948 42.8693 29.1008 42.8676 29.0036C42.8658 28.9065 42.8265 28.8138 42.7578 28.7451C42.6891 28.6764 42.5964 28.637 42.4992 28.6353C42.4021 28.6336 42.3081 28.6697 42.237 28.7359C41.725 29.2451 41.3191 29.8508 41.0427 30.5179C40.7664 31.185 40.6251 31.9003 40.627 32.6224V33.9399C40.7474 33.9829 40.8741 34.0055 41.002 34.0069C41.1292 34.0054 41.2553 33.9826 41.375 33.9394Z" fill="#F6F6F6"/>
<path d="M62.755 29.375H60.232L59.3355 31.168C59.3042 31.2302 59.2563 31.2825 59.197 31.319C59.1378 31.3555 59.0696 31.3749 59 31.3749C58.9304 31.3749 58.8621 31.3555 58.8029 31.319C58.7436 31.2825 58.6957 31.2302 58.6645 31.168L57.7725 29.384L56.3435 32.65C56.3137 32.718 56.2644 32.7756 56.2019 32.8156C56.1393 32.8555 56.0663 32.876 55.9921 32.8745C55.9179 32.8729 55.8458 32.8494 55.785 32.8069C55.7242 32.7643 55.6774 32.7047 55.6505 32.6355L54.1715 28.833L53.318 30.2C53.2842 30.2538 53.2373 30.2981 53.1816 30.3287C53.126 30.3593 53.0635 30.3752 53 30.375H50.6525C50.8156 30.6578 51.0145 30.9183 51.2445 31.15L56.235 36.1405C56.2698 36.1754 56.3111 36.203 56.3567 36.2219C56.4022 36.2407 56.4509 36.2504 56.5002 36.2504C56.5495 36.2504 56.5983 36.2407 56.6438 36.2219C56.6893 36.203 56.7306 36.1754 56.7655 36.1405L61.756 31.15C62.2446 30.6605 62.59 30.0467 62.755 29.375Z" fill="#F6F6F6"/>
<path d="M53.932 27.8001C53.9689 27.7411 54.0215 27.6935 54.0839 27.6627C54.1462 27.6319 54.216 27.619 54.2852 27.6255C54.3545 27.6321 54.4206 27.6577 54.4761 27.6997C54.5316 27.7416 54.5743 27.7982 54.5995 27.8631L56.0205 31.5171L57.4065 28.3501C57.4351 28.2848 57.4818 28.229 57.5409 28.1892C57.6001 28.1495 57.6694 28.1274 57.7406 28.1257C57.8119 28.1239 57.8822 28.1424 57.9433 28.1792C58.0043 28.2159 58.0537 28.2693 58.0855 28.3331L59 30.1616L59.6645 28.8326C59.6957 28.7703 59.7436 28.7178 59.8028 28.6812C59.8621 28.6446 59.9304 28.6251 60 28.6251H62.8645C62.9015 27.8724 62.7147 27.1256 62.3277 26.4789C61.9408 25.8322 61.371 25.3146 60.6902 24.9914C60.0094 24.6681 59.2482 24.5537 58.5025 24.6626C57.7568 24.7714 57.06 25.0987 56.5 25.6031C55.875 25.0407 55.0819 24.7004 54.2437 24.6349C53.4055 24.5693 52.5691 24.7823 51.8643 25.2406C51.1595 25.699 50.6256 26.3772 50.3456 27.1699C50.0656 27.9627 50.055 28.8257 50.3155 29.6251H52.792L53.932 27.8001Z" fill="#F6F6F6"/>
<path d="M49.5 29.625C49.4005 29.625 49.3052 29.6645 49.2348 29.7348C49.1645 29.8052 49.125 29.9005 49.125 30C49.125 30.0995 49.1645 30.1948 49.2348 30.2652C49.3052 30.3355 49.4005 30.375 49.5 30.375H50.65C50.5107 30.138 50.3977 29.8865 50.313 29.625H49.5Z" fill="#F6F6F6"/>
<path d="M63.5 29.375C63.5995 29.375 63.6948 29.3355 63.7652 29.2652C63.8355 29.1948 63.875 29.0995 63.875 29C63.875 28.9005 63.8355 28.8052 63.7652 28.7348C63.6948 28.6645 63.5995 28.625 63.5 28.625H62.8645C62.853 28.878 62.8163 29.1293 62.755 29.375H63.5Z" fill="#F6F6F6"/>
<path d="M48.85 35.347C48.8217 35.3874 48.7858 35.4218 48.7442 35.4482C48.7027 35.4747 48.6563 35.4927 48.6078 35.5013C48.5593 35.5098 48.5095 35.5087 48.4614 35.498C48.4133 35.4874 48.3678 35.4673 48.3275 35.439L44.1 32.4785C44.2055 33.111 44.6855 35.3285 46.361 36.504C48.286 37.854 50.972 37.2445 51.085 37.218C51.1748 37.1969 51.2538 37.1434 51.3067 37.0678C51.3597 36.9922 51.3829 36.8997 51.372 36.808C51.358 36.6925 51.01 33.961 49.085 32.613C47.41 31.44 45.1605 31.748 44.5295 31.863L48.7575 34.8225C48.7981 34.8508 48.8327 34.8868 48.8594 34.9285C48.8861 34.9702 48.9042 35.0168 48.9128 35.0655C48.9214 35.1143 48.9203 35.1642 48.9095 35.2125C48.8987 35.2608 48.8785 35.3065 48.85 35.347Z" fill="#F6F6F6"/>
<path d="M40.125 44.125H39.125C38.5727 44.125 38.125 44.5727 38.125 45.125V52.875C38.125 53.4273 38.5727 53.875 39.125 53.875H40.125C40.6773 53.875 41.125 53.4273 41.125 52.875V45.125C41.125 44.5727 40.6773 44.125 40.125 44.125Z" fill="#F6F6F6"/>
<path d="M43.875 42.625H42.875C42.3227 42.625 41.875 43.0727 41.875 43.625V54.375C41.875 54.9273 42.3227 55.375 42.875 55.375H43.875C44.4273 55.375 44.875 54.9273 44.875 54.375V43.625C44.875 43.0727 44.4273 42.625 43.875 42.625Z" fill="#F6F6F6"/>
<path d="M45.625 47H56.375V51H45.625V47Z" fill="#F6F6F6"/>
<path d="M59.125 42.625H58.125C57.5727 42.625 57.125 43.0727 57.125 43.625V54.375C57.125 54.9273 57.5727 55.375 58.125 55.375H59.125C59.6773 55.375 60.125 54.9273 60.125 54.375V43.625C60.125 43.0727 59.6773 42.625 59.125 42.625Z" fill="#F6F6F6"/>
<path d="M62.875 44.125H61.875C61.3227 44.125 60.875 44.5727 60.875 45.125V52.875C60.875 53.4273 61.3227 53.875 61.875 53.875H62.875C63.4273 53.875 63.875 53.4273 63.875 52.875V45.125C63.875 44.5727 63.4273 44.125 62.875 44.125Z" fill="#F6F6F6"/>
<path d="M45.625 46.2501H48.4215C49.3346 44.5962 49.8334 42.7458 49.875 40.8571C49.8794 39.9368 49.7694 39.0196 49.5475 38.1266H49.513C48.2439 38.1648 46.9937 37.8128 45.931 37.1181C44.8203 36.2717 44.0151 35.0869 43.637 33.7426C43.0782 33.8676 42.5485 34.0984 42.0765 34.4226C41.7596 34.64 41.3843 34.7563 41 34.7563C40.6157 34.7563 40.2404 34.64 39.9235 34.4226C39.1698 33.9 38.2741 33.6208 37.357 33.6226C34.753 33.6251 32.125 35.8616 32.125 40.8571C32.125 44.7571 34.6945 49.0736 37.375 50.1286V45.1251C37.375 44.6609 37.5594 44.2158 37.8876 43.8876C38.2158 43.5594 38.6609 43.3751 39.125 43.3751H40.125C40.4831 43.3755 40.8323 43.4864 41.125 43.6926V43.6251C41.125 43.1609 41.3094 42.7158 41.6376 42.3876C41.9658 42.0594 42.4109 41.8751 42.875 41.8751H43.875C44.3391 41.8751 44.7842 42.0594 45.1124 42.3876C45.4406 42.7158 45.625 43.1609 45.625 43.6251V46.2501Z" fill="#F6F6F6"/>
</g>
</g>
<defs>
<filter id="filter0_d_709_31125" x="0" y="0" width="96" height="96" filterUnits="userSpaceOnUse" color-interpolation-filters="sRGB">
<feFlood flood-opacity="0" result="BackgroundImageFix"/>
<feColorMatrix in="SourceAlpha" type="matrix" values="0 0 0 0 0 0 0 0 0 0 0 0 0 0 0 0 0 0 127 0" result="hardAlpha"/>
<feOffset dy="8"/>
<feGaussianBlur stdDeviation="8"/>
<feComposite in2="hardAlpha" operator="out"/>
<feColorMatrix type="matrix" values="0 0 0 0 0.294118 0 0 0 0 0.203922 0 0 0 0 0.145098 0 0 0 0.05 0"/>
<feBlend mode="normal" in2="BackgroundImageFix" result="effect1_dropShadow_709_31125"/>
<feBlend mode="normal" in="SourceGraphic" in2="effect1_dropShadow_709_31125" result="shape"/>
</filter>
<clipPath id="clip0_709_31125">
<rect width="32" height="32" fill="white" transform="translate(32 24)"/>
</clipPath>
</defs>
</svg>
