<svg width="154" height="232" viewBox="0 0 154 232" fill="none" xmlns="http://www.w3.org/2000/svg">
<path d="M30.8934 10.0055L106.448 0.822026C107.675 0.673026 108.879 1.29003 109.562 2.41853L147.726 65.496C149.051 67.6865 147.854 70.6275 145.483 71.0045L71.2834 82.8075L28.5834 15.5975C27.1659 13.367 28.4309 10.305 30.8934 10.0055Z" fill="#233338"/>
<path d="M147.152 115.472C146.848 115.472 146.542 115.371 146.289 115.162C145.71 114.685 145.627 113.828 146.104 113.249C150.071 108.434 151.057 101.514 148.615 95.6199C147.62 93.2184 146.141 91.0284 144.575 88.7094C143.337 86.8784 142.058 84.9844 141.035 82.9699C139.709 80.3574 135.76 71.4804 140.632 66.9169C141.179 66.4039 142.039 66.4319 142.553 66.9799C143.066 67.5274 143.038 68.3874 142.49 68.9009C139.714 71.5014 141.277 77.4419 143.459 81.7394C144.405 83.6034 145.636 85.4259 146.827 87.1884C148.4 89.5169 150.027 91.9249 151.127 94.5799C153.948 101.391 152.8 109.397 148.203 114.978C147.934 115.304 147.544 115.472 147.152 115.472Z" fill="#233338"/>
<path d="M142.699 124.682C142.327 120.495 144.007 116.267 147.028 113.786L142.699 124.682Z" fill="white"/>
<path d="M142.698 126.041C142.002 126.041 141.409 125.509 141.346 124.803C140.931 120.142 142.778 115.518 146.165 112.736C146.746 112.259 147.601 112.344 148.078 112.923C148.555 113.503 148.471 114.36 147.891 114.836C145.228 117.023 143.722 120.841 144.053 124.562C144.12 125.31 143.568 125.97 142.82 126.036C142.779 126.039 142.738 126.041 142.698 126.041Z" fill="#233338"/>
<path d="M148.293 113.812C147.341 117.548 147.034 121.504 147.394 125.426L148.293 113.812Z" fill="white"/>
<path d="M147.392 126.785C146.698 126.785 146.105 126.256 146.041 125.551C145.664 121.449 145.979 117.387 146.976 113.477C147.161 112.75 147.901 112.309 148.628 112.496C149.356 112.682 149.795 113.422 149.609 114.149C148.689 117.757 148.398 121.51 148.747 125.302C148.815 126.05 148.265 126.711 147.518 126.78C147.476 126.783 147.434 126.785 147.392 126.785Z" fill="#233338"/>
<path d="M149.214 114.139C151.007 117.438 152.151 121.121 152.543 124.858L149.214 114.139Z" fill="white"/>
<path d="M152.542 126.217C151.855 126.217 151.265 125.698 151.192 125C150.82 121.451 149.723 117.92 148.02 114.788C147.661 114.129 147.905 113.304 148.565 112.945C149.225 112.586 150.049 112.831 150.408 113.49C152.28 116.933 153.485 120.815 153.895 124.716C153.974 125.463 153.432 126.131 152.686 126.21C152.637 126.215 152.589 126.217 152.542 126.217Z" fill="#233338"/>
<path d="M50.123 47.9196C50.123 47.9196 56.819 13.7681 88.8395 20.0686C121.579 26.5106 111.453 69.8126 111.453 69.8126L50.123 47.9196Z" fill="#41646D"/>
<path d="M70.9017 198.678C70.9017 198.678 70.6307 205.95 72.4622 207.44C75.4702 209.887 92.3812 214.222 94.9027 218.036C97.4242 221.851 96.0287 225.836 93.7127 226.722C91.3967 227.608 89.7787 226.502 89.7787 226.502C89.7787 226.502 89.1407 229.865 85.2152 229.841C81.2897 229.816 67.6882 219.422 65.8902 214.203C64.2827 209.536 65.2822 200.297 65.2822 200.297L70.9017 198.678Z" fill="#48BD86"/>
<g opacity="0.6">
<path d="M70.6586 205.471C70.6586 205.471 66.6711 207.604 68.6696 212.251C70.6681 216.897 81.7561 225.51 84.1156 225.777C87.2326 226.131 87.8761 222.185 87.8761 222.185C87.8761 222.185 91.1601 223.532 92.9481 222.453C94.6976 221.397 94.4066 218.471 94.4066 218.471C94.4066 218.471 97.4186 223.89 94.8971 225.959C92.3756 228.028 89.5061 225.868 89.5061 225.868C89.5061 225.868 90.1516 229.431 86.0786 229.609C82.0056 229.787 72.9011 223.166 70.8606 221.296C68.8201 219.426 64.8236 213.888 64.7026 211.118C64.6906 210.846 64.8346 210.405 64.8226 210.133L64.3931 200.309C64.6646 200.297 65.4056 199.824 65.6771 199.812L70.4466 199.604C70.7086 201.382 70.6721 203.675 70.6586 205.471Z" fill="#258E5A"/>
</g>
<path d="M85.2564 231.2C85.2394 231.2 85.2234 231.2 85.2059 231.2C80.7434 231.171 66.6129 220.476 64.6044 214.645C62.9174 209.748 63.8889 200.541 63.9309 200.151L66.6329 200.443C66.6234 200.533 65.6854 209.437 67.1744 213.759C68.8829 218.719 82.1519 228.462 85.2229 228.481H85.2554C87.9879 228.482 88.4254 226.339 88.4429 226.248C88.5284 225.797 88.8354 225.421 89.2589 225.245C89.6829 225.07 90.1669 225.121 90.5449 225.379C90.5704 225.395 91.6484 226.056 93.2264 225.452C93.8469 225.215 94.3864 224.547 94.6694 223.665C95.1524 222.16 94.8239 220.382 93.7684 218.785C92.5114 216.884 85.6234 214.321 80.5939 212.451C75.8824 210.699 72.9284 209.57 71.6044 208.493C69.4174 206.714 69.4744 200.491 69.5439 198.627L72.2604 198.727C72.1334 202.181 72.6384 205.831 73.3204 206.385C74.3634 207.234 78.0129 208.591 81.5419 209.903C89.0069 212.68 94.4164 214.835 96.0369 217.286C97.5494 219.574 97.9944 222.202 97.2584 224.495C96.7179 226.179 95.6024 227.453 94.1989 227.99C92.8024 228.525 91.5249 228.492 90.5459 228.261C89.7504 229.684 88.1199 231.2 85.2564 231.2Z" fill="#1B6D42"/>
<path d="M89.6445 228.027C88.8995 228.027 88.2925 227.426 88.286 226.68C88.2715 225.002 87.295 223.055 85.856 221.834C85.284 221.348 85.2135 220.491 85.6995 219.918C86.185 219.347 87.042 219.276 87.615 219.762C89.652 221.49 90.9825 224.197 91.004 226.656C91.0105 227.407 90.407 228.021 89.657 228.027C89.653 228.027 89.649 228.027 89.6445 228.027Z" fill="#1B6D42"/>
<path d="M43.4081 197.616C43.4081 197.616 41.7301 206.069 39.6371 207.16C36.1991 208.954 18.7621 209.804 15.5261 213.034C12.2901 216.264 12.8566 220.448 14.9476 221.782C17.0386 223.115 18.8456 222.356 18.8456 222.356C18.8456 222.356 18.7951 225.779 22.6456 226.543C26.4961 227.308 41.9081 219.857 44.7176 215.105C47.2296 210.856 49.0616 199.5 49.0616 199.5L43.4081 197.616Z" fill="#48BD86"/>
<g opacity="0.6">
<path d="M41.7989 205.594C41.7989 205.594 45.2769 208.484 42.3859 212.635C39.4949 216.785 26.9034 222.995 24.5379 222.783C21.4134 222.503 21.5754 218.509 21.5754 218.509C21.5754 218.509 18.0879 219.169 16.5529 217.753C15.0514 216.367 15.9239 213.56 15.9239 213.56C15.9239 213.56 11.8854 218.263 13.9394 220.796C15.9939 223.33 19.2384 221.79 19.2384 221.79C19.2384 221.79 17.8904 225.15 21.8449 226.143C25.7994 227.135 36.0479 222.477 38.4224 221.056C40.7969 219.634 45.8244 215.011 46.4994 212.322C46.5654 212.059 46.5134 211.597 46.5794 211.333L48.9734 201.795C48.7099 201.729 48.6969 199.095 48.4334 199.029L44.0364 197.458C43.4234 199.148 42.1469 203.831 41.7989 205.594Z" fill="#258E5A"/>
</g>
<path d="M23.1683 227.944C22.8753 227.944 22.6123 227.922 22.3808 227.876C19.5408 227.312 18.2363 225.488 17.7408 223.926C16.7368 223.957 15.4778 223.731 14.2173 222.927C12.9493 222.119 12.1128 220.647 11.9218 218.889C11.6613 216.494 12.6248 214.009 14.5663 212.072C16.6458 209.996 22.3773 208.971 30.2473 207.751C33.9688 207.173 37.8163 206.577 39.0088 205.955C39.8343 205.457 41.3438 201.282 42.2353 197.023L44.8958 197.58C44.3043 200.405 42.6698 207.111 40.2658 208.365C38.7528 209.154 35.6318 209.666 30.6643 210.436C25.3613 211.259 18.0993 212.385 16.4863 213.995C15.1318 215.347 14.4528 217.024 14.6233 218.594C14.7238 219.515 15.1178 220.278 15.6783 220.635C17.1038 221.544 18.3083 221.106 18.3193 221.102C18.7428 220.924 19.2268 220.972 19.6063 221.228C19.9868 221.485 20.2113 221.916 20.2048 222.375C20.2083 222.746 20.3568 224.702 22.9098 225.209C25.9303 225.807 40.8778 218.929 43.5473 214.412C45.9093 210.417 48.0183 199.358 48.0393 199.247L50.7103 199.751C50.6203 200.225 48.4903 211.392 45.8868 215.796C42.9143 220.824 28.4113 227.944 23.1683 227.944Z" fill="#1B6D42"/>
<path d="M18.9434 223.904C18.8494 223.904 18.7534 223.894 18.6574 223.874C17.9234 223.717 17.4559 222.994 17.6129 222.26C18.1279 219.855 19.9749 217.471 22.3179 216.186C22.9754 215.825 23.8024 216.067 24.1629 216.725C24.5234 217.383 24.2829 218.209 23.6244 218.57C21.9699 219.477 20.6219 221.189 20.2709 222.829C20.1344 223.467 19.5709 223.904 18.9434 223.904Z" fill="#1B6D42"/>
<path d="M35.8244 135.518L60.9509 135.859L86.0779 135.518C86.0779 135.518 91.1215 139.487 92.839 145.489C93.2425 146.899 96.0415 147.47 96.4269 149.077C100.961 167.979 96.9919 199.642 60.9514 200.137C8.81394 199.421 35.8244 135.518 35.8244 135.518Z" fill="#48BD86"/>
<g opacity="0.6">
<path d="M91.5495 161.38C91.5495 161.38 88.1855 176.592 81.8245 181.893C73.546 188.791 53.8935 187.059 45.1655 184.049C32.554 179.7 29.2865 161.505 29.2865 161.505C29.2865 161.505 28.3135 172.427 30.6585 180.913C32.877 188.939 41.094 194.992 41.094 194.992C41.094 194.992 49.9715 199.427 60.204 199.427C70.437 199.427 77.3445 197.501 81.8115 194.24C86.998 190.454 93.1275 182.168 93.586 172.679C93.873 166.755 91.5495 161.38 91.5495 161.38Z" fill="#258E5A"/>
</g>
<path d="M60.9698 201.495C47.5683 201.311 38.0498 197.02 32.6418 188.739C20.1643 169.635 33.9783 136.394 34.5723 134.988C34.7878 134.479 35.2808 134.148 35.8428 134.158L60.9698 134.499L86.0593 134.158C86.3298 134.163 86.5703 134.225 86.7898 134.36C87.1448 134.578 95.5178 139.812 97.6383 148.537C97.7868 149.15 97.7958 150.154 97.7923 151.736C97.7903 152.635 97.7878 153.865 97.8653 154.231C99.2148 160.624 101.309 176.799 91.6328 188.901C85.1028 197.068 74.7863 201.305 60.9698 201.495ZM36.7393 136.889C34.6828 142.173 24.2788 170.971 34.9203 187.257C39.8038 194.731 48.5683 198.607 60.9703 198.777C73.8973 198.599 83.5118 194.705 89.5098 187.204C98.4633 176.007 96.4763 160.807 95.2058 154.792C95.0788 154.189 95.0713 153.233 95.0743 151.73C95.0768 150.849 95.0793 149.516 94.9973 149.179C93.3598 142.444 87.1543 137.884 85.6798 136.881L60.9698 137.217L36.7393 136.889Z" fill="#1B6D42"/>
<path d="M34.1301 144.945C34.1301 144.945 18.2191 143.973 16.2626 141.786C14.3056 139.599 19.9211 125.608 15.4711 123.143C10.2216 120.236 -1.77491 141.968 3.31009 149.81C9.33209 159.098 30.9671 158.812 30.9671 158.812L34.1301 144.945Z" fill="#48BD86"/>
<g opacity="0.6">
<path d="M16.0207 131.971C16.0207 131.971 14.4297 128.384 10.7762 132.046C7.12271 135.707 3.49371 145.252 3.56621 148.667C3.56621 148.667 0.49021 143.875 3.34571 136.591C6.20121 129.308 10.9212 122.816 13.8892 123.399C16.8572 123.982 16.0207 131.971 16.0207 131.971Z" fill="#258E5A"/>
</g>
<path d="M28.6454 160.236C23.0684 160.236 9.33492 159.307 2.25842 150.671C-2.34308 145.056 2.57042 132.329 8.11792 125.676C12.1669 120.821 14.8759 121.26 16.1289 121.955C19.5974 123.876 18.6389 129.789 17.7934 135.006C17.4584 137.073 16.9544 140.186 17.2964 140.901C18.3924 141.953 26.1574 143.025 32.7869 143.37C33.5364 143.409 34.1124 144.048 34.0734 144.798C34.0339 145.548 33.3954 146.125 32.6454 146.085C28.1169 145.849 17.3559 145.046 15.2489 142.692C14.0744 141.379 14.4119 138.878 15.1099 134.571C15.7069 130.89 16.6084 125.327 14.8119 124.332C14.1429 123.964 12.4144 124.767 10.2049 127.417C5.43443 133.138 0.877925 144.699 4.35993 148.948C12.3009 158.639 30.6849 157.466 30.8709 157.456C31.6214 157.394 32.2694 157.968 32.3214 158.717C32.3739 159.466 31.8094 160.115 31.0609 160.167C30.9014 160.179 30.0214 160.236 28.6454 160.236Z" fill="#1B6D42"/>
<g opacity="0.6">
<path d="M90.368 143.521C90.368 143.521 80.0496 157.288 60.4926 157.288C39.9316 157.288 34.4561 142.335 34.4561 142.335L90.368 143.521Z" fill="#1B6D42"/>
</g>
<path d="M14.4031 59.8048C23.9951 45.1993 56.9976 49.3103 56.9976 49.3103C56.9976 49.3103 73.3581 29.9943 82.3231 29.8758L82.3681 29.6938C82.5851 29.7478 82.7996 29.8223 83.0131 29.9083C83.2416 29.9328 83.4666 29.9678 83.6831 30.0218L83.6371 30.2038C91.4966 34.5183 96.8706 59.2548 96.8706 59.2548C96.8706 59.2548 127.939 71.1228 129.549 88.5219C131.159 105.922 119.473 117.603 119.473 117.603C119.473 117.603 115.93 136.595 104.548 141.982C93.3271 147.291 71.0466 153.04 53.7006 149.034L53.6971 149.048C53.5731 149.017 53.4491 148.98 53.3251 148.948C53.2006 148.918 53.0736 148.893 52.9496 148.862L52.9531 148.847C35.7571 144.239 18.7856 128.701 11.3726 118.744C3.85259 108.644 9.64359 90.2118 9.64359 90.2118C9.64359 90.2118 4.81109 74.4108 14.4031 59.8048Z" fill="#48BD86"/>
<g opacity="0.6">
<path d="M78.1649 87.823C78.0559 87.823 77.9454 87.8095 77.8354 87.7825C77.1069 87.6005 76.6639 86.863 76.8454 86.135C82.3339 64.128 95.6874 59.7145 96.2534 59.5375C96.9704 59.3115 97.7318 59.712 97.9563 60.4285C98.1798 61.143 97.7834 61.904 97.0699 62.13C96.9224 62.178 84.5719 66.388 79.4829 86.7925C79.3284 87.4105 78.7739 87.823 78.1649 87.823Z" fill="#258E5A"/>
</g>
<g opacity="0.6">
<path d="M60.8838 83.5135C60.7748 83.5135 60.6643 83.5 60.5543 83.473C59.8258 83.291 59.3828 82.5535 59.5643 81.8255C64.6878 61.283 55.7128 51.888 55.6218 51.796C55.0948 51.2615 55.1008 50.401 55.6353 49.874C56.1688 49.3465 57.0298 49.353 57.5568 49.887C57.9733 50.309 67.6903 60.476 62.2018 82.483C62.0473 83.1005 61.4928 83.5135 60.8838 83.5135Z" fill="#258E5A"/>
</g>
<g opacity="0.6">
<path d="M57.1171 135.671C79.8506 141.341 102.909 140.402 112.587 135.573C110.54 138.638 107.939 141.34 104.669 142.888C93.2861 148.274 71.0906 153.955 53.6421 149.603C36.1936 145.251 19.2651 129.813 11.7451 119.713C9.87014 117.194 8.84764 114.144 8.36914 110.985C16.6716 119.567 35.5801 130.3 57.1171 135.671Z" fill="#258E5A"/>
</g>
<g opacity="0.6">
<path d="M89.8878 38.6285L78.8408 59.7405L86.3248 32.698L89.8878 38.6285Z" fill="#258E5A"/>
</g>
<g opacity="0.6">
<path d="M73.5267 34.5479L73.3662 58.3749L79.4577 30.9849L73.5267 34.5479Z" fill="#258E5A"/>
</g>
<path d="M83.5555 31.0465C83.447 31.0465 83.337 31.0335 83.227 31.0065C83.1215 30.98 83.0125 30.9615 82.902 30.946C82.8075 30.9325 82.714 30.9095 82.624 30.8765C82.5195 30.8385 82.415 30.804 82.3095 30.7775C81.5815 30.5955 81.139 29.858 81.3205 29.1295C81.502 28.4015 82.2375 27.957 82.968 28.1405L83.884 28.369C84.6115 28.5505 85.055 29.288 84.8735 30.016C84.719 30.6335 84.165 31.0465 83.5555 31.0465Z" fill="#1B6D42"/>
<path d="M67.1591 152.427C62.2766 152.427 57.4256 151.946 52.8606 150.808C34.4846 146.225 17.0106 130.051 9.74909 120.298C2.42459 110.46 7.67759 91.2414 8.63759 88.0004C7.75109 85.3409 4.06959 71.9869 14.1186 58.4529C19.3661 51.3849 28.1141 47.5109 39.4156 47.2484C46.7876 47.0774 53.1046 48.4569 55.5371 49.1309C59.7496 44.1214 74.7811 27.0614 83.2781 28.2539C83.3726 28.2669 83.4651 28.2899 83.5546 28.3229C91.6071 31.2579 96.8761 53.3814 98.2431 59.7824C100.706 60.3289 106.933 62.0784 113.36 65.6909C123.215 71.2294 129.119 78.7579 130.433 87.4619C132.95 104.13 123.428 114.191 121.397 116.123C120.724 119.435 116.336 138.87 105.249 144.116C96.9896 148.025 81.9321 152.427 67.1591 152.427ZM15.2106 59.2629L16.3016 60.0729C6.23059 73.6369 11.2851 87.3449 11.3371 87.4819C11.4466 87.7679 11.4566 88.0849 11.3646 88.3764C11.2996 88.5844 4.91409 109.252 11.9301 118.674C18.6901 127.754 35.9586 143.791 53.5186 148.17C71.0806 152.552 93.8556 146.501 104.088 141.658C114.719 136.627 118.775 115.389 118.815 115.174C118.871 114.872 119.028 114.597 119.261 114.395C119.37 114.301 130.27 104.571 127.747 87.8664C125.012 69.7554 100.535 62.7269 96.9361 62.2924C96.3556 62.2224 95.8851 61.7889 95.7671 61.2159C93.5126 50.2069 88.2056 33.1574 82.7586 30.9274C76.8986 30.3454 64.2101 42.8984 57.0506 51.5599C56.6781 52.0104 56.0601 52.1729 55.5131 51.9614C55.2551 51.8614 28.2971 43.9154 16.3011 60.0724L15.2106 59.2629Z" fill="#1B6D42"/>
<path d="M56.6996 102.748C55.2501 102.862 53.1021 97.7801 54.9966 97.1456C56.8916 96.5111 58.8601 102.579 56.6996 102.748Z" fill="#258E5A"/>
<path d="M68.2436 107.432C69.2041 108.524 74.2857 106.376 73.3692 104.6C72.4522 102.825 66.8121 105.805 68.2436 107.432Z" fill="#258E5A"/>
<g opacity="0.6">
<path d="M78.4729 101.204C78.2164 101.204 77.9569 101.132 77.7264 100.98C77.6784 100.948 72.8284 97.7801 66.5604 95.6831C60.2739 93.5801 54.5129 93.1971 54.4554 93.1936C53.7059 93.1461 53.1369 92.5011 53.1844 91.7521C53.2324 91.0026 53.8759 90.4356 54.6259 90.4811C54.8749 90.4971 60.8029 90.8911 67.4229 93.1061C74.0429 95.3211 79.0139 98.5736 79.2224 98.7106C79.8489 99.1236 80.0219 99.9661 79.6089 100.593C79.3479 100.989 78.9144 101.204 78.4729 101.204Z" fill="#258E5A"/>
</g>
<path d="M85.1796 88.7344C81.9466 101.698 89.1681 114.195 102.801 117.595C116.434 120.995 129.243 112.659 132.477 99.6954C135.71 86.7314 128.221 75.0804 114.588 71.6809C100.955 68.2809 88.4126 75.7704 85.1796 88.7344Z" fill="#258E5A"/>
<path d="M108.987 119.722C106.825 119.722 104.638 119.455 102.467 118.913C96.8071 117.502 91.5576 114.499 88.0641 110.676C87.5581 110.122 87.5966 109.262 88.1506 108.756C88.7046 108.25 89.5646 108.289 90.0706 108.842C93.2126 112.281 97.9706 114.99 103.125 116.276C109.381 117.836 115.771 116.867 121.117 113.547C126.375 110.282 130.114 105.103 131.644 98.9662C134.337 88.1722 129.436 78.2342 119.161 73.6487C118.476 73.3432 118.168 72.5392 118.474 71.8537C118.779 71.1682 119.582 70.8597 120.269 71.1667C125.84 73.6527 130.119 77.6377 132.644 82.6897C135.202 87.8092 135.768 93.6647 134.282 99.6232C132.58 106.451 128.414 112.215 122.552 115.855C118.435 118.412 113.77 119.722 108.987 119.722Z" fill="#1B6D42"/>
<path d="M124.177 104.002C130.049 94.8006 127.35 82.5812 118.149 76.709C108.948 70.8369 96.7283 73.5356 90.8561 82.7368C84.984 91.9379 87.6827 104.157 96.8838 110.029C106.085 115.902 118.304 113.203 124.177 104.002Z" fill="white"/>
<path d="M114.903 102.788C120.344 100.116 122.589 93.5385 119.917 88.0972C117.245 82.6558 110.667 80.411 105.226 83.0832C99.7846 85.7554 97.5398 92.3327 100.212 97.774C102.884 103.215 109.461 105.46 114.903 102.788Z" fill="#CC9211"/>
<path d="M103.488 91.3855C102.596 94.965 104.774 98.59 108.353 99.483C111.932 100.376 115.557 98.1975 116.45 94.6185C117.343 91.039 115.165 87.414 111.586 86.521C108.006 85.628 104.381 87.806 103.488 91.3855Z" fill="#233338"/>
<path d="M108.94 88.3955C109.288 86.9975 108.367 85.5635 106.881 85.193C105.396 84.8225 103.909 85.6555 103.56 87.054C103.211 88.452 104.133 89.886 105.618 90.2565C107.104 90.627 108.591 89.7935 108.94 88.3955Z" fill="white"/>
<path d="M53.3688 80.8011C50.1358 93.7651 37.8913 101.408 24.2588 98.0076C10.6258 94.6076 3.23078 81.2326 6.46378 68.2686C9.69678 55.3046 21.7803 48.5351 35.4128 51.9351C49.0453 55.3351 56.6018 67.8371 53.3688 80.8011Z" fill="#258E5A"/>
<path d="M31.5784 100.267C29.0449 100.267 26.4514 99.955 23.9344 99.3275C16.9594 97.5875 11.1719 93.2795 7.63892 87.1975C4.17242 81.2305 3.20142 74.185 4.90392 67.358C6.39042 61.399 9.63992 56.495 14.3019 53.1765C18.9029 49.901 24.5544 48.3915 30.6389 48.8135C31.3879 48.8655 31.9529 49.5145 31.9009 50.263C31.8489 51.0115 31.2039 51.5755 30.4514 51.525C19.2159 50.746 10.2324 57.2215 7.54142 68.015C6.01042 74.152 6.87942 80.4795 9.98892 85.8315C13.1504 91.2735 18.3364 95.1295 24.5919 96.69C29.7459 97.975 35.2194 97.817 39.6084 96.257C40.3134 96.0055 41.0924 96.374 41.3439 97.082C41.5954 97.789 41.2264 98.566 40.5189 98.8175C37.8094 99.781 34.7409 100.267 31.5784 100.267Z" fill="#1B6D42"/>
<path d="M44.9567 84.7676C51.0799 75.7301 48.7174 63.44 39.6799 57.3168C30.6425 51.1936 18.3523 53.5561 12.2291 62.5935C6.10593 71.631 8.4684 83.9211 17.5059 90.0443C26.5433 96.1675 38.8335 93.8051 44.9567 84.7676Z" fill="white"/>
<path d="M40.5592 80.1935C44.5584 75.6368 44.1065 68.7009 39.5498 64.7017C34.9932 60.7025 28.0573 61.1544 24.0581 65.7111C20.0589 70.2678 20.5108 77.2037 25.0675 81.2029C29.6241 85.2021 36.56 84.7501 40.5592 80.1935Z" fill="#CC9211"/>
<path d="M33.9993 79.3853C37.5629 78.4298 39.6771 74.7664 38.7217 71.2029C37.7663 67.6393 34.1029 65.525 30.5393 66.4805C26.9758 67.4359 24.8615 71.0993 25.8169 74.6628C26.7724 78.2264 30.4357 80.3407 33.9993 79.3853Z" fill="#233338"/>
<path d="M35.3116 69.374C35.6601 67.976 37.1476 67.1425 38.6331 67.513C40.1186 67.8835 41.0401 69.3175 40.6916 70.7155C40.3431 72.114 38.8561 72.947 37.3701 72.5765C35.8846 72.206 34.9626 70.7725 35.3116 69.374Z" fill="white"/>
<path d="M125.914 66.5685C123.63 68.8275 114.566 54.4945 117.692 53.5645C120.819 52.635 128.965 63.5515 125.914 66.5685Z" fill="#258E5A"/>
<path d="M125.314 68.1689C124.954 68.1689 124.537 68.0869 124.066 67.8704C120.774 66.3569 115.453 57.8244 115.694 54.4444C115.806 52.8739 116.858 52.3949 117.305 52.2619C120.238 51.3884 124.124 55.8368 126.02 59.0394C128.235 62.7818 128.545 65.8784 126.87 67.5344C126.637 67.7644 126.114 68.1689 125.314 68.1689ZM118.406 54.9104C118.497 55.7834 119.217 57.8749 121.022 60.6904C122.922 63.6549 124.461 65.0194 125.115 65.3644C125.393 64.7229 125.205 63.3109 124.154 61.2779C122.35 57.7869 119.571 55.2819 118.406 54.9104Z" fill="#1B6D42"/>
<path d="M21.1866 40.2414C21.6086 43.4259 37.5526 37.6474 35.6506 34.9979C33.7486 32.3479 20.6231 35.9884 21.1866 40.2414Z" fill="#258E5A"/>
<path d="M23.0875 42.5244C22.624 42.5244 22.207 42.4858 21.85 42.4028C20.222 42.0248 19.9015 40.8903 19.8395 40.4198C19.53 38.0848 21.6715 35.8268 25.7155 34.2253C29.1755 32.8548 34.9695 31.7189 36.755 34.2054C37.027 34.5844 37.5655 35.6073 36.6915 36.9173C35.0015 39.4508 27.209 42.5244 23.0875 42.5244ZM22.5335 40.0618V40.0628C22.5335 40.0623 22.5335 40.0623 22.5335 40.0618ZM22.5555 39.7793C23.283 39.9083 25.337 39.7713 28.654 38.5918C31.8085 37.4703 33.6595 36.2569 34.2635 35.6223C33.1245 35.2039 29.3865 35.4803 25.818 37.1373C23.742 38.1008 22.7285 39.1023 22.5555 39.7793Z" fill="#1B6D42"/>
<g opacity="0.6">
<path d="M18.1856 99.4384C21.1246 100.906 18.0481 102.95 17.9956 104.437C17.9956 104.437 18.8816 106.618 20.2696 107.623C21.6191 108.601 25.1246 109.992 33.9311 111.571C41.9316 113.005 49.7561 114.855 54.2531 115.974L54.3291 115.754C54.3291 115.754 55.0101 116.007 56.1941 116.463C57.4271 116.778 58.1301 116.966 58.1301 116.966L58.0541 117.186C62.3551 118.874 69.7781 121.888 77.0841 125.337C85.1261 129.133 88.8016 130.032 90.4906 130.024C92.2281 130.016 94.2931 128.776 94.2931 128.776C95.1746 127.553 93.9771 124.146 97.2451 124.659C101.462 125.32 100.132 133.049 92.4031 133.369C83.5296 133.736 64.8616 122.144 54.9286 118.975C44.9951 115.806 23.5456 114.601 16.6586 109.206C10.6591 104.507 14.3931 97.5449 18.1856 99.4384Z" fill="#258E5A"/>
</g>
<path d="M91.0153 130.827C89.8283 130.827 88.5293 130.664 87.1608 130.332C83.2163 129.376 77.7898 126.801 72.0443 124.075C66.6988 121.539 61.1718 118.916 56.4788 117.42C55.7633 117.191 55.3688 116.427 55.5968 115.712C55.8253 114.997 56.5893 114.601 57.3043 114.83C62.1718 116.383 67.7834 119.045 73.2099 121.62C78.8254 124.284 84.1293 126.801 87.8008 127.691C90.5478 128.357 92.9743 128.223 94.1348 127.343C94.5833 127.003 94.8018 126.58 94.8218 126.01C94.8479 125.26 95.4923 124.687 96.2278 124.7C96.9783 124.726 97.5648 125.356 97.5383 126.106C97.4893 127.495 96.8803 128.672 95.7778 129.509C94.6263 130.381 92.9738 130.827 91.0153 130.827Z" fill="#1B6D42"/>
<path d="M56.3036 117.296C56.1666 117.296 56.0276 117.275 55.8906 117.232C51.1966 115.735 45.1346 114.662 39.2721 113.625C32.9721 112.511 27.0216 111.458 23.2651 109.958C19.8216 108.583 17.4806 106.537 16.8421 104.345C16.4531 103.01 16.6891 101.692 17.5231 100.534C17.9621 99.9252 18.8106 99.7872 19.4206 100.225C20.0291 100.664 20.1671 101.513 19.7291 102.123C19.3876 102.597 19.2996 103.061 19.4521 103.585C19.7586 104.638 21.1856 106.201 24.2731 107.434C27.7706 108.83 33.5876 109.859 39.7461 110.948C45.6966 112.001 51.8496 113.089 56.7171 114.641C57.4326 114.869 57.8271 115.634 57.5991 116.349C57.4136 116.927 56.8791 117.296 56.3036 117.296Z" fill="#1B6D42"/>
<path d="M74.9973 62.0502C76.6968 62.4742 78.4178 61.4402 78.8413 59.7407L86.9708 27.1442C87.3948 25.4447 86.3608 23.7236 84.6613 23.3001C82.9618 22.8761 81.2408 23.9102 80.8173 25.6097L72.6878 58.2056C72.2638 59.9051 73.2978 61.6262 74.9973 62.0502Z" fill="#FBCA47"/>
<path d="M75.7723 63.2784C75.4228 63.2784 75.0713 63.2354 74.7228 63.1489C73.6073 62.8704 72.6668 62.1749 72.0753 61.1894C71.4833 60.2039 71.3103 59.0469 71.5888 57.9319L79.7188 25.3359C79.9973 24.2204 80.6928 23.2799 81.6783 22.6884C82.6638 22.0964 83.8193 21.9239 84.9363 22.2019C87.2383 22.7759 88.6448 25.1164 88.0708 27.4189L79.9413 60.0149C79.6628 61.1304 78.9673 62.0704 77.9818 62.6624C77.3023 63.0694 76.5433 63.2784 75.7723 63.2784ZM83.8898 24.3374C83.5248 24.3374 83.1653 24.4364 82.8438 24.6294C82.3773 24.9099 82.0473 25.3549 81.9158 25.8834L73.7858 58.4794C73.6538 59.0079 73.7358 59.5559 74.0163 60.0224C74.2968 60.4889 74.7423 60.8189 75.2703 60.9504C75.7978 61.0819 76.3468 61.0004 76.8133 60.7199C77.2803 60.4399 77.6098 59.9944 77.7413 59.4659L85.8708 26.8699C86.1428 25.7794 85.4768 24.6709 84.3858 24.3989C84.2223 24.3579 84.0553 24.3374 83.8898 24.3374Z" fill="#CC9211"/>
<path d="M81.7371 147.058L62.5246 173.578C61.5496 174.924 61.8131 176.8 63.1211 177.825L99.6021 206.413L118.09 182.61C119.121 181.226 118.805 178.399 117.486 177.284L81.7371 147.058Z" fill="#48B6ED"/>
<path d="M80.6376 145.694L76.3761 146.379L54.8091 175.569L93.5521 207.727L99.2056 207.384L61.7096 175.892L80.6376 145.694Z" fill="#B7B69E"/>
<path d="M62.0615 176.049L54.915 175.608L76.341 146.526L82.582 147.092L62.0615 176.049Z" fill="#FEFFCB"/>
<path d="M91.9064 208.562C91.6444 208.562 91.3899 208.472 91.1859 208.303L54.7994 178.291C54.0389 177.662 52.5154 175.878 54.7604 172.887L74.7339 146.033C74.9449 145.749 75.2769 145.58 75.6304 145.576L82.1359 145.506H82.1484C82.4159 145.506 82.6749 145.6 82.8794 145.773L117.874 175.352C120.399 177.487 120.829 181.237 118.853 183.889L101.219 207.172C101.032 207.42 100.751 207.579 100.442 207.614L92.0324 208.554C91.9904 208.56 91.9484 208.562 91.9064 208.562ZM76.2164 147.835L56.5759 174.242C56.5749 174.243 56.5739 174.244 56.5729 174.246C55.3809 175.833 55.9839 176.333 56.2419 176.546L92.2574 206.251L99.7074 205.418L117.042 182.529C118.299 180.842 118.025 178.446 116.411 177.083L81.7389 147.776L76.2164 147.835Z" fill="#294D66"/>
<path d="M99.6012 207.545C99.3527 207.545 99.1017 207.463 98.8927 207.295L62.2397 177.839C61.1287 176.946 60.9052 175.335 61.7317 174.173L81.4857 146.405C81.8482 145.895 82.5562 145.777 83.0652 146.138C83.5747 146.501 83.6942 147.208 83.3317 147.718L63.5777 175.486C63.4452 175.672 63.4807 175.931 63.6592 176.074L100.312 205.53C100.8 205.922 100.877 206.635 100.485 207.122C100.261 207.401 99.9327 207.545 99.6012 207.545Z" fill="#294D66"/>
<path d="M91.2206 150.955C95.7871 154.869 99.0366 158.753 97.7111 166.847C97.2366 169.743 85.8046 178.749 87.5121 183.541C89.5261 189.194 108.926 179.509 112.083 170.712C115.586 160.95 95.5281 147.333 95.5281 147.333L91.2206 150.955Z" fill="#48BD86"/>
<g opacity="0.6">
<path d="M86.8594 184.628C86.8594 184.628 102.046 178.757 105.994 171.147C109.722 163.962 103.385 153.534 103.385 153.534C103.385 153.534 114.911 162.333 111.43 169.19C104.255 183.324 92.5934 185.618 86.8594 184.628Z" fill="#258E5A"/>
</g>
<path d="M90.2062 187.362C87.3427 187.362 86.3522 185.815 86.0142 184.866C84.6322 180.987 89.4052 175.42 93.6162 170.507C95.1182 168.755 96.9882 166.574 97.1857 165.88C98.0997 162.683 94.2577 156.566 92.8392 154.675C92.3887 154.075 92.5107 153.223 93.1112 152.773C93.7112 152.323 94.5632 152.444 95.0137 153.045C95.6562 153.901 101.247 161.558 99.7992 166.627C99.4547 167.833 98.0797 169.476 95.6792 172.276C92.7027 175.749 87.7217 181.56 88.5747 183.954C88.7527 184.454 89.3822 184.684 90.4512 184.638C95.9132 184.402 107.926 176.862 109.681 170.151C113.035 157.318 94.6282 148.156 94.4417 148.065C93.7677 147.735 93.4877 146.922 93.8177 146.247C94.1472 145.573 94.9622 145.294 95.6352 145.623C96.4777 146.035 116.222 155.876 112.311 170.839C110.228 178.807 97.0417 187.074 90.5692 187.355C90.4452 187.359 90.3242 187.362 90.2062 187.362Z" fill="#1B6D42"/>
</svg>
