<svg width="173" height="231" viewBox="0 0 173 231" fill="none" xmlns="http://www.w3.org/2000/svg">
<path d="M107.591 170.2C107.591 170.2 93.1096 197.325 70.8481 209.515C48.5871 221.705 27.4151 222.727 10.8376 205.553C-4.97988 189.167 4.44911 167.943 16.3086 162.407C27.3616 157.248 43.1741 163.128 45.2236 175.499C47.5236 189.384 31.8636 199.114 23.6811 191.671C16.2681 184.927 22.8246 174.97 27.2811 174.323C31.7376 173.676 34.3746 178.128 32.6696 181.077C30.9646 184.026 28.6131 182.519 29.3251 180.567C30.0371 178.615 28.5211 176.986 26.4566 179.419C24.3926 181.852 23.8696 187.093 28.8086 188.794C33.7476 190.494 40.5421 182.435 39.3336 176.069C38.1251 169.704 26.1821 163.818 17.4021 170.922C8.62212 178.027 8.41161 188.436 15.0376 196.859C21.6636 205.282 34.3651 209.412 50.5146 205.076C66.6641 200.741 75.9901 188.58 81.2231 179.573C86.4566 170.566 88.9741 157.545 86.7301 150.904L107.591 170.2Z" fill="#258E5A"/>
<g opacity="0.6">
<path d="M4.20482 176.539C4.17232 178.968 4.36232 181.887 4.95132 185.322C7.08982 197.794 17.3983 212.358 39.6043 214.051C61.8103 215.744 82.3183 196.706 84.6013 192.114C86.6458 188.002 80.0888 184.353 78.6943 183.634C79.6273 182.237 80.4698 180.872 81.2243 179.573C82.6588 177.104 83.8873 174.334 84.8718 171.476C88.9208 173.939 96.8413 179.969 99.8273 182.267C93.4208 191.088 83.3643 202.662 70.8488 209.515C48.5878 221.705 27.4158 222.727 10.8383 205.553C1.79433 196.184 1.00632 185.234 4.20482 176.539Z" fill="#1B6D42"/>
</g>
<path d="M41.5697 220.199C39.7142 220.199 37.8722 220.096 36.0482 219.89C24.9542 218.633 15.3427 213.629 8.25217 205.42C-0.0243258 195.838 -0.299323 186.644 0.928176 180.619C2.61968 172.316 8.40218 164.648 15.6597 161.084C22.0487 157.945 29.6487 157.975 35.9887 161.164C41.7422 164.058 45.5367 169.054 46.6752 175.231C48.0247 182.557 44.7552 189.711 38.3462 193.456C32.9682 196.6 26.9877 196.35 22.7372 192.804C18.9617 189.655 17.4257 185.302 18.5232 180.862C19.5752 176.603 22.9242 173.07 26.6662 172.27C29.3817 171.69 32.1672 172.741 33.9377 175.014C35.6517 177.215 36.0377 180.099 34.9212 182.363C33.7697 184.698 31.6527 185.057 30.0687 184.381C28.2717 183.613 27.3367 181.716 27.9397 180.062C27.9512 180.031 27.9612 180 27.9707 179.971C27.8572 180.073 27.7267 180.205 27.5827 180.375C26.6522 181.471 26.2882 183.186 26.6972 184.545C27.0677 185.777 28.0207 186.624 29.5292 187.062C31.7732 187.712 34.1777 187.025 35.9602 185.221C38.1357 183.019 38.8877 179.677 37.9232 176.498C37.1142 173.831 34.0067 170.481 29.6342 169.239C26.8412 168.446 22.6217 168.287 18.3792 172.03C10.0202 179.403 11.6982 188.586 16.0557 194.721C21.4567 202.327 33.2122 208.422 47.3027 204.896C62.4197 201.112 74.3372 188.491 79.9497 178.834C84.9747 170.185 87.4407 157.611 85.3347 151.377C85.1187 150.738 85.3637 150.034 85.9297 149.667C86.4957 149.301 87.2382 149.364 87.7337 149.822L108.594 169.118C109.093 169.58 109.212 170.324 108.881 170.919C108.219 172.109 92.4022 200.205 70.0252 212.458C60.6977 217.564 50.9657 220.199 41.5697 220.199ZM25.7512 161.699C22.7367 161.699 19.7192 162.376 16.9597 163.731C10.4922 166.908 5.33418 173.767 3.81918 181.207C2.72368 186.585 2.99068 194.817 10.4847 203.492C24.0952 219.248 46.9097 221.751 68.6077 209.87C87.9287 199.289 102.674 175.628 105.723 170.481L88.9612 154.977C89.4612 162.343 86.9582 172.641 82.4997 180.315C76.5992 190.47 64.0277 203.75 48.0187 207.758C32.5787 211.622 19.6322 204.853 13.6497 196.429C7.24067 187.405 8.33117 176.959 16.4277 169.816C20.5172 166.209 25.4932 164.997 30.4397 166.401C35.2737 167.773 39.5122 171.573 40.7467 175.641C42.0252 179.856 40.9952 184.321 38.0592 187.294C35.5032 189.881 32.0057 190.854 28.7072 189.895C26.2477 189.181 24.5302 187.583 23.8717 185.395C23.1797 183.095 23.7672 180.31 25.3327 178.465C27.3977 176.032 29.1532 176.771 29.6427 177.055C30.8737 177.77 31.3127 179.423 30.7112 181.073C30.6717 181.181 30.8672 181.514 31.2272 181.667C31.4117 181.746 31.8427 181.932 32.2747 181.057C32.8942 179.801 32.6327 178.14 31.6097 176.826C30.5237 175.432 28.9052 174.807 27.2832 175.154C24.6457 175.718 22.1657 178.417 21.3867 181.57C20.9072 183.51 20.6902 187.255 24.6267 190.538C27.8962 193.266 32.5822 193.406 36.8567 190.909C40.8992 188.547 45.1357 183.163 43.7732 175.766C42.8067 170.518 39.5712 166.268 34.6622 163.799C31.8802 162.4 28.8167 161.699 25.7512 161.699Z" fill="#1B6D42"/>
<path d="M106.528 191.186C106.528 191.186 110.115 198.224 108.991 200.527C107.146 204.31 92.4706 216.299 91.7286 221.207C90.9866 226.114 94.1806 229.402 96.8656 229.217C99.5511 229.033 100.639 227.204 100.639 227.204C100.639 227.204 102.803 230.226 106.658 228.409C110.513 226.593 119.162 210.148 118.55 204.187C118.003 198.857 112.801 190.215 112.801 190.215L106.528 191.186Z" fill="#48BD86"/>
<g opacity="0.6">
<path d="M109.868 197.765C109.868 197.765 114.769 198.046 114.922 203.534C115.075 209.023 108.087 222.566 105.885 223.906C102.977 225.677 100.542 222.085 100.542 222.085C100.542 222.085 97.9226 224.911 95.6691 224.665C93.4641 224.423 92.4157 221.41 92.4157 221.41C92.4157 221.41 91.9232 228.121 95.3507 229.007C98.7782 229.894 100.618 226.457 100.618 226.457C100.618 226.457 101.609 230.26 105.702 228.576C109.794 226.892 115.738 216.215 116.894 213.443C118.05 210.67 119.457 203.391 118.312 200.608C118.2 200.335 117.857 199.966 117.744 199.693L113.682 189.822C113.409 189.935 112.464 189.807 112.191 189.919L107.398 191.891C107.952 193.761 109.035 196.002 109.868 197.765Z" fill="#258E5A"/>
</g>
<path d="M96.6454 230.7C95.1204 230.7 93.5739 229.963 92.3589 228.644C90.5864 226.722 89.8259 223.931 90.2709 220.986C90.7474 217.832 95.0909 213.241 101.176 207.098C104.052 204.195 107.026 201.192 107.666 199.88C108.084 199.023 106.915 195.198 105.214 191.855L107.843 190.516C108.762 192.321 111.658 198.423 110.317 201.174C109.505 202.838 107.111 205.298 103.272 209.174C99.1724 213.313 93.5579 218.981 93.1879 221.427C92.8779 223.481 93.3659 225.383 94.5279 226.644C95.2089 227.383 96.0454 227.8 96.7649 227.745C98.5969 227.619 99.3654 226.461 99.3719 226.45C99.6264 226.022 100.08 225.752 100.577 225.73C101.07 225.709 101.549 225.941 101.839 226.345C102.082 226.667 103.473 228.279 106.029 227.075C109.045 225.654 117.665 210.002 117.083 204.337C116.575 199.393 111.588 191.059 111.537 190.976L114.065 189.454C114.285 189.818 119.444 198.442 120.018 204.035C120.702 210.695 111.668 227.679 107.287 229.743C104.443 231.083 102.128 230.332 100.688 229.288C99.8294 229.962 98.5859 230.577 96.9669 230.688C96.8604 230.696 96.7534 230.7 96.6454 230.7Z" fill="#1B6D42"/>
<path d="M100.847 228.783C100.286 228.783 99.7494 228.46 99.5029 227.916C98.4014 225.484 98.4758 222.211 99.6928 219.579C100.035 218.839 100.911 218.517 101.65 218.859C102.39 219.201 102.712 220.077 102.37 220.816C101.511 222.676 101.438 225.039 102.19 226.699C102.526 227.441 102.197 228.315 101.455 228.651C101.257 228.741 101.051 228.783 100.847 228.783Z" fill="#1B6D42"/>
<path d="M70.8224 191.201C70.8224 191.201 67.2809 198.261 68.4184 200.557C70.2874 204.329 85.0384 216.224 85.8114 221.127C86.5844 226.029 83.4114 229.337 80.7254 229.17C78.0389 229.002 76.9389 227.181 76.9389 227.181C76.9389 227.181 74.7944 230.216 70.9284 228.424C67.0624 226.632 58.3079 210.242 58.8824 204.278C59.3959 198.944 64.5429 190.27 64.5429 190.27L70.8224 191.201Z" fill="#48BD86"/>
<g opacity="0.6">
<path d="M67.5238 197.801C67.5238 197.801 62.6248 198.112 62.5068 203.601C62.3888 209.09 69.4623 222.589 71.6723 223.916C74.5918 225.668 77.0043 222.061 77.0043 222.061C77.0043 222.061 79.6413 224.87 81.8933 224.609C84.0968 224.354 85.1263 221.333 85.1263 221.333C85.1263 221.333 85.6613 228.041 82.2398 228.949C78.8178 229.858 76.9563 226.432 76.9563 226.432C76.9563 226.432 75.9898 230.242 71.8863 228.584C67.7833 226.926 61.7723 216.287 60.5983 213.521C59.4248 210.756 57.9708 203.486 59.0983 200.696C59.2088 200.422 59.5498 200.051 59.6603 199.777L63.6593 189.881C63.9328 189.991 64.8778 189.858 65.1513 189.968L69.9558 191.91C69.4143 193.784 68.3458 196.032 67.5238 197.801Z" fill="#258E5A"/>
</g>
<path d="M80.9244 230.652C80.8274 230.652 80.7304 230.649 80.6334 230.643C79.0139 230.542 77.7659 229.935 76.9039 229.265C75.4704 230.319 73.1609 231.085 70.3079 229.763C65.9134 227.726 56.7724 210.8 57.4139 204.137C57.9524 198.54 63.0569 189.883 63.2739 189.517L65.8114 191.023C65.7614 191.107 60.8264 199.478 60.3509 204.419C59.8049 210.088 68.5239 225.684 71.5484 227.087C74.1119 228.274 75.4929 226.653 75.7439 226.316C76.0374 225.922 76.5209 225.686 77.0039 225.716C77.4949 225.739 77.9474 225.998 78.2014 226.419C78.2194 226.445 78.9864 227.584 80.8164 227.698C81.5364 227.74 82.3709 227.326 83.0469 226.582C84.2014 225.314 84.6769 223.409 84.3539 221.357C83.9689 218.914 78.3189 213.282 74.1934 209.17C70.3289 205.318 67.9184 202.872 67.0959 201.213C65.7369 198.47 68.5949 192.35 69.5029 190.54L72.1399 191.862C70.4599 195.215 69.3154 199.048 69.7389 199.903C70.3874 201.211 73.3809 204.194 76.2754 207.08C82.3984 213.183 86.7704 217.747 87.2674 220.897C87.7309 223.838 86.9879 226.633 85.2284 228.567C84.0144 229.903 82.4599 230.652 80.9244 230.652Z" fill="#1B6D42"/>
<path d="M76.7323 228.761C76.5318 228.761 76.3283 228.719 76.1328 228.633C75.3888 228.301 75.0543 227.429 75.3858 226.685C76.1263 225.022 76.0388 222.658 75.1678 220.805C74.8213 220.067 75.1378 219.188 75.8753 218.842C76.6133 218.495 77.4913 218.812 77.8378 219.55C79.0713 222.175 79.1668 225.447 78.0808 227.886C77.8363 228.434 77.2968 228.761 76.7323 228.761Z" fill="#1B6D42"/>
<path d="M62.1412 128.554L89.4157 128.924L116.69 128.554C116.69 128.554 146.01 197.918 89.4157 198.695C32.8217 197.918 62.1412 128.554 62.1412 128.554Z" fill="#48BD86"/>
<g opacity="0.6">
<path d="M118.284 154.876C118.284 154.876 118.275 171.304 111.496 177.205C101.231 186.139 86.5068 184.303 77.0328 181.036C63.3433 176.316 61.1933 153.526 61.1933 153.526C61.1933 153.526 55.9783 165.732 56.2368 174.768C56.4953 183.804 67.8603 193.112 67.8603 193.112C67.8603 193.112 77.4963 197.926 88.6038 197.926C99.7113 197.926 107.209 195.836 112.058 192.296C117.688 188.187 127.598 168.797 124.242 165.033C120.009 160.282 118.284 154.876 118.284 154.876Z" fill="#258E5A"/>
</g>
<path d="M89.4355 200.171C74.8885 199.971 64.5565 195.313 58.686 186.325C45.142 165.588 60.1365 129.506 60.7815 127.98C61.0125 127.433 61.5485 127.079 62.1405 127.079H62.1605L89.4355 127.449L116.67 127.079H116.69C117.282 127.079 117.818 127.433 118.049 127.98C118.694 129.506 133.689 165.588 120.144 186.325C114.274 195.313 103.942 199.971 89.4355 200.171ZM63.1335 130.043C60.901 135.778 49.608 167.038 61.159 184.716C66.46 192.829 75.9735 197.036 89.4355 197.221C102.859 197.036 112.374 192.827 117.674 184.712C129.229 167.021 117.932 135.778 115.697 130.043L89.4355 130.4L63.1335 130.043Z" fill="#1B6D42"/>
<path d="M70.7832 136.994C70.7832 136.994 62.1737 154.842 62.8602 157.953C63.5467 161.064 79.4342 164.985 78.7847 170.469C78.0187 176.938 52.2657 173.277 47.5787 164.279C43.4792 156.409 55.4522 133.335 55.4522 133.335L70.7832 136.994Z" fill="#48BD86"/>
<path d="M108.444 140.564C108.444 140.564 117.609 154.842 116.915 157.951C116.222 161.061 100.327 164.949 100.964 170.434C101.717 176.904 125.447 171.896 132.183 164.309C140.588 154.844 124.989 134.355 124.989 134.355L108.444 140.564Z" fill="#48BD86"/>
<g opacity="0.6">
<path d="M102.856 172.11C102.856 172.11 119.646 169.383 125.678 162.296C131.373 155.605 129.199 145.737 129.199 145.737C129.199 145.737 136.524 157.179 132.184 164.309C127.843 171.439 108.68 174.555 102.856 172.11Z" fill="#258E5A"/>
</g>
<path d="M107.976 174.888C106.826 174.888 105.754 174.812 104.786 174.655C100.516 173.964 99.6405 171.821 99.4995 170.604C99.0115 166.41 104.809 162.689 109.923 159.406C112.103 158.007 115.089 156.091 115.408 155.295C115.585 154.5 116.366 154.018 117.164 154.193C117.959 154.37 118.455 155.176 118.277 155.971C117.885 157.732 115.689 159.211 111.517 161.889C107.789 164.282 102.155 167.898 102.43 170.263C102.506 170.915 103.563 171.469 105.258 171.743C112.916 172.979 128.774 168.259 132.141 161.045C132.486 160.307 133.364 159.988 134.101 160.332C134.84 160.677 135.159 161.554 134.814 162.292C131.212 170.011 117.165 174.888 107.976 174.888Z" fill="#1B6D42"/>
<g opacity="0.6">
<path d="M124.317 135.33C124.317 135.33 112.345 152.186 89.6538 152.186C65.7978 152.186 57.4238 131.643 57.4238 131.643L124.317 135.33Z" fill="#1B6D42"/>
</g>
<path d="M30.0775 52.8645C37.977 35.6205 74.0635 34.625 74.0635 34.625C74.0635 34.625 88.454 11.2175 98.0545 9.62146L98.073 9.41846C98.3145 9.44096 98.5571 9.48596 98.8 9.54296C99.0495 9.53196 99.296 9.53246 99.5375 9.55496L99.518 9.75746C108.659 13.0995 118.478 38.7625 118.478 38.7625C118.478 38.7625 153.759 46.407 158.338 64.8135C162.916 83.2205 152.29 97.6695 152.29 97.6695C152.29 97.6695 151.601 118.629 140.27 126.274C129.1 133.81 106.134 143.629 86.864 142.172L86.8626 142.188C86.7246 142.175 86.585 142.156 86.447 142.141C86.3085 142.13 86.168 142.123 86.03 142.11L86.0315 142.094C66.8245 139.966 46.0675 126.074 36.4815 116.605C26.7575 106.999 29.9515 86.272 29.9515 86.272C29.9515 86.272 22.178 70.1085 30.0775 52.8645Z" fill="#48BD86"/>
<g opacity="0.6">
<path d="M102.865 72.4988C102.819 72.4988 102.773 72.4968 102.726 72.4928C101.915 72.4168 101.318 71.6978 101.394 70.8868C103.678 46.3733 117.283 39.4498 117.861 39.1673C118.594 38.8093 119.477 39.1118 119.835 39.8443C120.192 40.5748 119.89 41.4558 119.162 41.8153C118.993 41.9003 106.447 48.4488 104.331 71.1608C104.26 71.9248 103.618 72.4988 102.865 72.4988Z" fill="#258E5A"/>
</g>
<g opacity="0.6">
<path d="M83.6159 70.7051C83.5699 70.7051 83.5239 70.7031 83.4769 70.6991C82.6659 70.6231 82.0694 69.9046 82.1449 69.0931C84.2769 46.2116 73.1069 37.6006 72.9944 37.5166C72.3414 37.0296 72.2064 36.1051 72.6934 35.4521C73.1809 34.7986 74.1054 34.6641 74.7579 35.1511C75.2739 35.5356 87.3669 44.8536 85.0829 69.3671C85.0114 70.1316 84.3689 70.7051 83.6159 70.7051Z" fill="#258E5A"/>
</g>
<g opacity="0.6">
<path d="M88.3413 127.274C113.664 129.633 138.253 124.847 147.847 118.08C146.152 121.704 143.804 125.03 140.548 127.226C129.217 134.871 106.331 144.603 86.8953 142.792C67.4593 140.981 46.7653 127.189 37.0413 117.583C34.6163 115.187 33.0198 112.082 31.9888 108.77C42.3028 116.62 64.3513 125.039 88.3413 127.274Z" fill="#258E5A"/>
</g>
<g opacity="0.6">
<path d="M107.607 17.7742L99.2114 42.2377L102.812 11.9937L107.607 17.7742Z" fill="#258E5A"/>
</g>
<g opacity="0.6">
<path d="M89.3818 16.076L93.1133 41.6695L95.1618 11.281L89.3818 16.076Z" fill="#258E5A"/>
</g>
<path d="M99.3476 10.692C99.3021 10.692 99.2561 10.69 99.2096 10.686C99.0921 10.675 98.9731 10.672 98.8511 10.6745C98.7586 10.6755 98.6441 10.6665 98.5421 10.6455C98.4236 10.622 98.3051 10.602 98.1871 10.591C97.3766 10.515 96.7806 9.79597 96.8566 8.98497C96.9331 8.17347 97.6506 7.57197 98.4626 7.65397H98.4641L99.4831 7.74897C100.294 7.82447 100.891 8.54297 100.815 9.35397C100.744 10.118 100.101 10.692 99.3476 10.692Z" fill="#1B6D42"/>
<path d="M91.3699 144.445C89.6479 144.445 87.9404 144.371 86.2539 144.214C65.7844 142.306 44.3849 127.814 34.9954 118.538C25.5239 109.183 28.0114 87.699 28.5109 84.0639C27.1244 81.3549 20.9864 67.6289 29.5514 51.4599C34.0249 43.0159 42.7764 37.4254 54.8609 35.2924C62.7419 33.9014 69.7489 34.3464 72.4679 34.6714C76.1669 28.6059 89.5099 7.83695 98.8149 7.72395C98.9174 7.72295 99.0214 7.73245 99.1229 7.75295C108.251 9.58395 117.524 32.4589 120.038 39.1034C122.771 39.2864 129.739 40.1434 137.227 42.9664C148.71 47.2949 156.278 54.4059 159.115 63.5309C164.546 81.0039 155.978 93.3595 154.114 95.7654C153.934 99.4299 152.41 121.004 141.373 128.449C131.333 135.222 110.543 144.445 91.3699 144.445ZM32.1594 52.841C23.5429 69.1059 31.2424 82.9259 31.3209 83.063C31.4869 83.353 31.5494 83.6909 31.4984 84.0214C31.4624 84.2549 27.9974 107.478 37.0694 116.439C45.8104 125.074 66.9674 139.453 86.5279 141.276C88.0859 141.421 89.6719 141.49 91.2704 141.49C109.743 141.491 130.349 132.328 139.724 126.002C150.307 118.863 151.179 95.4074 151.187 95.1719C151.198 94.8379 151.322 94.5169 151.538 94.2624C151.64 94.1429 161.741 81.9179 156.297 64.4059C149.833 43.6084 119.528 42.0114 119.05 42.0114C119.02 42.0074 119.015 42.0119 118.999 42.0119C118.383 42.0119 117.83 41.6284 117.616 41.0474C113.395 29.6049 104.91 12.1799 98.6949 10.6789C92.3129 11.0064 80.7529 26.5639 74.4894 37.0304C74.1634 37.5749 73.5269 37.8499 72.9059 37.7134C72.6129 37.6484 42.3839 33.5394 32.1594 52.841Z" fill="#1B6D42"/>
<path d="M84.1448 93.9649C82.6738 94.5369 78.8503 89.9274 80.6208 88.6749C82.3913 87.4224 86.3373 93.1129 84.1448 93.9649Z" fill="#258E5A"/>
<path d="M97.6096 95.2196C98.9496 96.0531 103.559 92.2296 102.05 90.6716C100.542 89.1136 95.6121 93.9771 97.6096 95.2196Z" fill="#258E5A"/>
<g opacity="0.6">
<path d="M105.594 85.75C105.425 85.75 105.253 85.721 105.086 85.6595C105.027 85.638 99.1166 83.49 91.9731 82.825C84.8081 82.1575 78.6251 83.1785 78.5631 83.1885C77.7606 83.322 76.9986 82.7825 76.8631 81.9795C76.7276 81.176 77.2691 80.415 78.0721 80.2795C78.3396 80.234 84.7031 79.185 92.2466 79.887C99.7906 80.59 105.85 82.797 106.104 82.8905C106.868 83.172 107.26 84.0195 106.979 84.784C106.76 85.3805 106.195 85.75 105.594 85.75Z" fill="#258E5A"/>
</g>
<path d="M110.763 72.311C109.418 86.7515 119.214 98.978 134.4 100.393C149.586 101.808 161.966 90.764 163.311 76.3235C164.656 61.883 154.711 50.608 139.525 49.1935C124.34 47.7785 112.109 57.8705 110.763 72.311Z" fill="#258E5A"/>
<path d="M137.024 101.99C136.11 101.99 135.189 101.948 134.258 101.861C127.952 101.273 121.827 98.9115 117.454 95.381C116.819 94.8695 116.72 93.941 117.232 93.307C117.743 92.6725 118.672 92.5725 119.306 93.0855C123.24 96.26 128.789 98.388 134.531 98.9235C148.762 100.254 160.96 90.0375 162.297 75.6765C163.418 63.653 156.532 53.7925 144.754 50.5555C143.969 50.3395 143.507 49.5275 143.723 48.742C143.939 47.956 144.754 47.495 145.536 47.7105C151.921 49.4655 157.166 53.0405 160.703 58.048C164.286 63.1225 165.853 69.313 165.235 75.9505C163.832 91.02 151.689 101.99 137.024 101.99Z" fill="#1B6D42"/>
<path d="M144.865 93.7458C155.528 88.5921 159.994 75.7703 154.84 65.1074C149.687 54.4446 136.865 49.9785 126.202 55.1322C115.539 60.286 111.073 73.1078 116.227 83.7707C121.38 94.4335 134.202 98.8996 144.865 93.7458Z" fill="white"/>
<path d="M122.17 74.5786C121.56 81.1276 126.374 86.9311 132.923 87.5416C139.472 88.1516 145.276 83.3371 145.886 76.7881C146.496 70.2391 141.682 64.4351 135.133 63.8251C128.584 63.2151 122.78 68.0296 122.17 74.5786Z" fill="#CC9211"/>
<path d="M126.809 75.0106C126.437 78.9976 129.368 82.5311 133.355 82.9026C137.342 83.2741 140.876 80.3431 141.247 76.3561C141.619 72.3691 138.688 68.8356 134.701 68.4641C130.714 68.0926 127.18 71.0236 126.809 75.0106Z" fill="#233338"/>
<path d="M132.169 70.9091C132.314 69.3516 131.09 67.9641 129.435 67.8096C127.78 67.6556 126.321 68.7931 126.176 70.3506C126.031 71.9081 127.255 73.2956 128.91 73.4501C130.565 73.6046 132.024 72.4666 132.169 70.9091Z" fill="white"/>
<path d="M75.3294 69.0094C73.9839 83.4499 62.0974 93.6564 46.9119 92.2419C31.7264 90.8269 21.5994 77.6869 22.9449 63.2464C24.2904 48.8059 36.1469 39.5624 51.3324 40.9769C66.5184 42.3919 76.6749 54.5689 75.3294 69.0094Z" fill="#258E5A"/>
<path d="M49.9569 93.8586C48.8984 93.8586 47.8379 93.8101 46.7804 93.7116C39.0114 92.9876 32.0954 89.3131 27.3074 83.3651C22.6104 77.5301 20.4144 70.1286 21.1224 62.5241C21.7409 55.8866 24.4249 50.0921 28.8839 45.7676C33.2844 41.4996 39.0994 38.9551 45.6989 38.4096C46.5169 38.3446 47.2234 38.9466 47.2909 39.7581C47.3574 40.5701 46.7539 41.2826 45.9419 41.3496C33.7694 42.3556 25.1799 50.7746 24.0604 62.7976C23.4234 69.6336 25.3924 76.2811 29.6059 81.5146C33.8894 86.8361 40.0864 90.1241 47.0544 90.7731C52.7969 91.3091 58.6429 90.2421 63.0964 87.8481C63.8124 87.4621 64.7074 87.7311 65.0939 88.4491C65.4794 89.1666 65.2104 90.0611 64.4929 90.4466C60.3719 92.6631 55.2074 93.8586 49.9569 93.8586Z" fill="#1B6D42"/>
<path d="M69.6674 76.0324C74.9396 65.4288 70.6176 52.5589 60.014 47.2867C49.4104 42.0145 36.5405 46.3365 31.2683 56.9401C25.9961 67.5437 30.3181 80.4136 40.9217 85.6858C51.5253 90.958 64.3952 86.636 69.6674 76.0324Z" fill="white"/>
<path d="M59.8999 76.743C64.7475 72.2967 65.0728 64.7625 60.6264 59.9149C56.1801 55.0673 48.6459 54.7421 43.7983 59.1884C38.9507 63.6348 38.6255 71.169 43.0718 76.0166C47.5182 80.8641 55.0524 81.1894 59.8999 76.743Z" fill="#CC9211"/>
<path d="M56.5487 73.5037C59.584 70.8929 59.9281 66.3158 57.3172 63.2805C54.7064 60.2452 50.1293 59.9011 47.094 62.5119C44.0587 65.1228 43.7146 69.6998 46.3255 72.7351C48.9363 75.7704 53.5134 76.1145 56.5487 73.5037Z" fill="#233338"/>
<path d="M54.5512 63.678C54.6962 62.1205 56.1552 60.983 57.8102 61.137C59.4652 61.291 60.6887 62.6785 60.5437 64.236C60.3987 65.7935 58.9397 66.931 57.2847 66.777C55.6302 66.623 54.4062 65.2355 54.5512 63.678Z" fill="white"/>
<path d="M141.832 35.8962C140.985 39.2787 124.502 31.0817 126.88 28.4582C129.257 25.8347 142.964 31.3792 141.832 35.8962Z" fill="#258E5A"/>
<path d="M140.315 38.1736C136.121 38.1736 127.129 33.5316 125.521 30.4001C124.74 28.8796 125.447 27.8431 125.787 27.4676C128.018 25.0061 134.128 26.9451 137.691 28.8506C141.854 31.0761 143.884 33.7751 143.263 36.2546C143.137 36.7541 142.652 37.9376 140.85 38.1451C140.682 38.1641 140.503 38.1736 140.315 38.1736ZM128.3 29.3056C128.876 30.0646 130.722 31.6001 133.982 33.1966C137.414 34.8776 139.612 35.2761 140.413 35.2291C140.31 34.4776 139.34 33.2731 137.22 31.9781C133.58 29.7536 129.591 28.9926 128.3 29.3056Z" fill="#1B6D42"/>
<path d="M52.7246 27.5948C52.9331 31.0753 70.6461 26.0643 68.7936 23.0473C66.9411 20.0298 52.4466 22.9463 52.7246 27.5948Z" fill="#258E5A"/>
<path d="M55.3687 30.2406C54.5527 30.2406 53.8377 30.1606 53.2742 29.9861C51.5412 29.4496 51.2827 28.1966 51.2517 27.6826C51.0997 25.1301 53.5942 22.8531 58.0972 21.4346C61.9497 20.2211 68.3122 19.4436 70.0502 22.2751C70.3152 22.7066 70.8187 23.8561 69.7702 25.2056C67.8532 27.6756 59.9912 30.2406 55.3687 30.2406ZM54.2422 27.2011C55.0202 27.3961 57.2532 27.4091 60.9367 26.3916C64.4397 25.4236 66.5387 24.2541 67.2427 23.6146C66.0422 23.0731 61.9747 23.0801 57.9802 24.5956C55.6582 25.4771 54.4832 26.4821 54.2422 27.2011Z" fill="#1B6D42"/>
<g opacity="0.6">
<path d="M40.6656 94.208C44.5626 95.26 41.4726 98.9055 41.8206 100.893C41.8206 100.893 43.4756 103.516 45.4026 104.427C47.2756 105.313 51.8256 106.092 62.7251 105.508C72.6271 104.977 82.4346 105.05 88.0871 105.166L88.1166 104.851C88.1166 104.851 88.9956 104.979 90.5286 105.224C92.0806 105.267 92.9681 105.303 92.9681 105.303L92.9386 105.618C98.5151 106.548 108.168 108.288 117.801 110.639C128.405 113.227 133.021 113.301 135.025 112.777C137.087 112.237 139.198 109.965 139.198 109.965C139.908 108.076 137.544 103.922 141.568 103.608C146.762 103.203 147.316 113.856 138.222 116.63C127.78 119.815 102.397 110.12 89.7191 108.939C77.0411 107.758 51.2226 112.682 41.5491 107.623C33.1236 103.218 35.6361 92.8505 40.6656 94.208Z" fill="#258E5A"/>
</g>
<path d="M131.423 114.317C131.273 114.317 131.123 114.315 130.971 114.312C126.002 114.216 118.791 112.515 111.156 110.713C104.041 109.034 96.6842 107.299 90.6417 106.736C89.8307 106.66 89.2342 105.941 89.3097 105.13C89.3857 104.318 90.1052 103.72 90.9157 103.798C97.1632 104.38 104.621 106.14 111.834 107.842C119.311 109.606 126.374 111.273 131.028 111.363C134.539 111.425 137.347 110.61 138.558 109.17C139.08 108.549 139.255 107.846 139.095 107.019C138.94 106.22 139.462 105.445 140.262 105.29C141.063 105.136 141.835 105.657 141.991 106.457C142.323 108.165 141.917 109.76 140.816 111.069C139.072 113.142 135.664 114.317 131.423 114.317Z" fill="#1B6D42"/>
<path d="M56.9221 107.171C53.8421 107.171 51.0866 107.037 48.8511 106.662C44.4606 105.924 41.1531 104.099 39.7756 101.655C38.9356 100.165 38.8311 98.522 39.4731 96.905C39.7736 96.1475 40.6306 95.777 41.3881 96.078C42.1456 96.378 42.5156 97.236 42.2151 97.993C41.9051 98.7755 41.9476 99.4995 42.3456 100.206C43.2701 101.846 45.8846 103.171 49.3401 103.752C53.9311 104.524 61.1791 104.191 68.8541 103.838C76.2576 103.498 83.9121 103.146 90.1601 103.728C90.9711 103.804 91.5676 104.522 91.4921 105.334C91.4161 106.145 90.6906 106.741 89.8861 106.666C83.8426 106.102 76.2916 106.449 68.9891 106.785C64.7281 106.981 60.5946 107.171 56.9221 107.171Z" fill="#1B6D42"/>
<path d="M95.4648 45.3456C97.3578 45.5221 99.0348 44.1306 99.2113 42.2376L102.594 5.92859C102.77 4.03559 101.379 2.35859 99.4858 2.18209C97.5928 2.00559 95.9158 3.39709 95.7393 5.29009L92.3568 41.5991C92.1808 43.4921 93.5723 45.1691 95.4648 45.3456Z" fill="#FBCA47"/>
<path d="M95.7878 46.5899C95.6433 46.5899 95.4978 46.5834 95.3508 46.5694H95.3513C94.1088 46.4539 92.9858 45.8614 92.1888 44.9009C91.3923 43.9404 91.0178 42.7274 91.1333 41.4849L94.5158 5.17637C94.6318 3.93387 95.2243 2.81087 96.1843 2.01437C97.1453 1.21787 98.3598 0.84387 99.6003 0.95887C100.843 1.07437 101.965 1.66737 102.762 2.62737C103.558 3.58737 103.933 4.80087 103.818 6.04337L100.435 42.3524C100.21 44.7694 98.1698 46.5894 95.7878 46.5899ZM99.1633 3.39637C98.6483 3.39637 98.1548 3.57387 97.7543 3.90637C97.2998 4.28337 97.0188 4.81537 96.9638 5.40437L93.5813 41.7134C93.5263 42.3019 93.7038 42.8769 94.0813 43.3314C94.4588 43.7864 94.9908 44.0669 95.5788 44.1219H95.5793C96.7873 44.2384 97.8743 43.3394 97.9873 42.1239L101.37 5.81537C101.424 5.22687 101.247 4.65187 100.87 4.19737C100.492 3.74237 99.9603 3.46187 99.3723 3.40687C99.3023 3.39937 99.2323 3.39637 99.1633 3.39637Z" fill="#CC9211"/>
<path d="M89.4602 195.599C89.4252 195.599 89.4602 195.599 89.4987 195.599C89.5372 195.599 89.5722 195.599 89.5372 195.599C89.5622 195.599 89.5677 195.599 89.4987 195.599C89.4297 195.598 89.4347 195.598 89.4602 195.599Z" fill="#FFD3F2"/>
<path d="M84.6731 142.124C84.6731 142.124 69.5421 140.247 70.2001 135.424C70.8576 130.601 75.817 125.159 78.8675 126.41C81.918 127.66 88.5456 137.346 88.5456 137.346L84.6731 142.124Z" fill="#F23683"/>
<path d="M84.6733 143.354C84.6233 143.354 84.5723 143.351 84.5218 143.345C83.3178 143.195 72.6763 141.776 69.7713 138.001C69.1248 137.161 68.8518 136.212 68.9818 135.258C69.4768 131.628 72.1378 127.572 75.1708 125.822C76.6678 124.96 78.1063 124.769 79.3338 125.272C82.5613 126.594 88.4188 134.983 89.5603 136.651C89.8673 137.1 89.8433 137.697 89.5008 138.12L85.6283 142.898C85.3933 143.188 85.0413 143.354 84.6733 143.354ZM77.9143 127.458C77.3558 127.458 76.7563 127.746 76.3993 127.952C74.0413 129.312 71.8068 132.738 71.4183 135.59C71.3923 135.779 71.3953 136.08 71.7193 136.501C73.3508 138.621 79.9338 140.216 84.1523 140.815L87.0098 137.289C84.4403 133.632 80.2433 128.302 78.4013 127.547C78.2483 127.484 78.0833 127.458 77.9143 127.458Z" fill="#C40050"/>
<path d="M96.1562 142.124C96.1562 142.124 111.287 140.247 110.629 135.424C109.972 130.601 105.012 125.159 101.962 126.41C98.9112 127.66 92.2837 137.346 92.2837 137.346L96.1562 142.124Z" fill="#F23683"/>
<path d="M96.156 143.354C95.7875 143.354 95.436 143.189 95.201 142.899L91.328 138.121C90.9855 137.698 90.9615 137.101 91.2685 136.652C92.41 134.984 98.268 126.595 101.496 125.273C102.722 124.769 104.161 124.96 105.659 125.823C108.692 127.573 111.353 131.629 111.848 135.259C111.978 136.213 111.705 137.162 111.059 138.002C108.154 141.777 97.5115 143.196 96.3075 143.346C96.2565 143.351 96.206 143.354 96.156 143.354ZM93.819 137.289L96.6765 140.815C100.897 140.214 107.481 138.619 109.11 136.501C109.434 136.08 109.437 135.78 109.411 135.59C109.022 132.739 106.787 129.313 104.43 127.952C103.966 127.685 103.089 127.277 102.428 127.547C100.585 128.302 96.3885 133.633 93.819 137.289Z" fill="#C40050"/>
<path d="M93.4472 137.309C93.4472 137.309 100.38 123.729 96.0182 121.568C91.6567 119.407 84.3697 120.461 83.6937 123.688C83.0177 126.914 87.3187 137.834 87.3187 137.834L93.4472 137.309Z" fill="#F23683"/>
<path d="M87.3186 139.064C86.8171 139.064 86.3616 138.758 86.1751 138.285C85.4341 136.404 81.7756 126.85 82.4906 123.436C82.7631 122.138 83.7276 121.053 85.2811 120.299C88.4306 118.769 93.2811 118.841 96.5641 120.467C97.4276 120.895 98.0596 121.653 98.3921 122.659C99.8881 127.182 95.0941 136.788 94.5426 137.868C94.3496 138.246 93.9756 138.498 93.5531 138.534L87.4246 139.06C87.3886 139.062 87.3536 139.064 87.3186 139.064ZM90.6326 121.663C89.0616 121.663 87.5221 121.944 86.3551 122.51C85.8736 122.744 85.0436 123.241 84.8971 123.94C84.4886 125.888 86.5471 132.352 88.1326 136.531L92.6546 136.143C94.5246 132.312 96.8966 125.967 96.0571 123.431C95.8906 122.927 95.6431 122.756 95.4721 122.671C94.1226 122.001 92.3586 121.663 90.6326 121.663Z" fill="#C40050"/>
<path d="M118.399 151.717L114.484 183.323L65.622 182.559L60.897 150.125L118.399 151.717Z" fill="#FFDA3E"/>
<path d="M122.003 152.64L57.4713 152.071L56.5903 143.65L123.314 144.357L122.003 152.64Z" fill="#FFDA3E"/>
<path d="M95.4476 143.876C95.4476 143.876 96.5771 138.338 90.3446 137.124C84.1116 135.911 84.0796 143.574 84.0796 143.574L95.4476 143.876Z" fill="#F23683"/>
<path d="M122.003 153.869C122 153.869 121.996 153.869 121.992 153.869L57.4605 153.3C56.8355 153.294 56.3135 152.821 56.249 152.199L55.368 143.778C55.3315 143.429 55.446 143.081 55.6815 142.823C55.9175 142.563 56.2405 142.427 56.6035 142.421L123.327 143.128C123.684 143.132 124.023 143.291 124.253 143.564C124.484 143.836 124.585 144.196 124.529 144.549L123.218 152.832C123.124 153.43 122.607 153.869 122.003 153.869ZM58.58 150.851L120.955 151.402L121.878 145.571L57.957 144.894L58.58 150.851Z" fill="#F4872C"/>
<path d="M95.4476 145.106C95.4366 145.106 95.4256 145.106 95.4146 145.105L84.0471 144.803C83.3791 144.785 82.8476 144.238 82.8506 143.569C82.8516 143.389 82.8996 139.135 85.5286 136.977C86.8641 135.881 88.5646 135.526 90.5791 135.918C92.8771 136.365 94.5756 137.392 95.6301 138.971C97.1996 141.322 96.6751 144.009 96.6521 144.122C96.5346 144.696 96.0301 145.106 95.4476 145.106ZM85.4296 142.381L94.3056 142.616C94.2486 141.261 93.6051 139.011 90.1091 138.331C88.8276 138.081 87.8396 138.261 87.0876 138.878C86.0366 139.74 85.6061 141.296 85.4296 142.381Z" fill="#C40050"/>
<path d="M114.484 184.552C114.478 184.552 114.471 184.552 114.465 184.552L65.6029 183.787C65.0009 183.778 64.4934 183.333 64.4059 182.738L59.9669 152.643C59.8679 151.971 60.3324 151.346 61.0034 151.247C61.6804 151.152 62.3004 151.612 62.3994 152.284L66.6854 181.345L113.404 182.077L117.167 152.69C117.253 152.016 117.871 151.542 118.543 151.627C119.216 151.713 119.692 152.329 119.606 153.002L115.703 183.48C115.624 184.094 115.101 184.552 114.484 184.552Z" fill="#F4872C"/>
<path d="M94.5655 183.977L84.904 183.759L80.4385 142.917L99.2715 142.654L94.5655 183.977ZM86.672 181.832L92.8145 181.97L97.064 144.652L82.629 144.853L86.672 181.832Z" fill="#A40634"/>
<path d="M81.5337 143.885L85.7877 182.796L93.6897 182.974L98.1677 143.653L81.5337 143.885Z" fill="#F23683"/>
<path d="M93.6906 184.203C93.6811 184.203 93.6721 184.203 93.6621 184.203L85.7601 184.025C85.1441 184.011 84.6331 183.543 84.5656 182.93L80.2901 143.915C80.2521 143.57 80.3626 143.224 80.5936 142.965C80.8246 142.705 81.1551 142.555 81.5026 142.552L98.1581 142.424C98.5181 142.41 98.8466 142.57 99.0816 142.831C99.3171 143.093 99.4286 143.443 99.3896 143.793L94.9116 183.114C94.8406 183.735 94.3141 184.203 93.6906 184.203ZM86.8926 181.591L92.5961 181.719L96.7896 144.892L82.8821 145L86.8926 181.591Z" fill="#C40050"/>
<path d="M153.65 29.9549L157.302 23.9664C157.302 23.9664 166.084 22.7614 169.66 37.9494L164.837 44.0989C164.836 44.0989 161.789 32.7579 153.65 29.9549Z" fill="#FBCA47"/>
<path d="M164.836 45.3281C164.755 45.3281 164.673 45.3201 164.59 45.3036C164.134 45.2106 163.77 44.8676 163.649 44.4181C163.62 44.3116 160.665 33.6711 153.25 31.1176C152.898 30.9961 152.62 30.7221 152.494 30.3716C152.367 30.0216 152.407 29.6331 152.6 29.3151L156.252 23.3261C156.445 23.0106 156.769 22.7986 157.135 22.7486C157.473 22.7001 165.507 21.7886 170.824 37.5571C170.956 37.9496 170.882 38.3826 170.626 38.7086L165.803 44.8576C165.568 45.1581 165.21 45.3281 164.836 45.3281ZM155.448 29.3681C160.982 32.0291 163.996 38.2036 165.275 41.5476L168.279 37.7176C164.48 26.9351 159.585 25.4136 157.982 25.2126L155.448 29.3681Z" fill="#CC9211"/>
<path d="M27.7533 19.8918L32.9713 24.6608C32.9713 24.6608 33.7908 34.9638 20.1908 37.7738L14.8638 31.6313C14.8638 31.6313 25.0293 29.0943 27.7533 19.8918Z" fill="#F23683"/>
<path d="M20.1903 39.0035C19.8403 39.0035 19.4993 38.8535 19.2618 38.5795L13.9348 32.437C13.6548 32.1145 13.5628 31.669 13.6913 31.2615C13.8198 30.854 14.1513 30.5425 14.5658 30.439C14.6588 30.4155 24.0888 27.941 26.5748 19.544C26.6953 19.138 27.0163 18.822 27.4243 18.7085C27.8323 18.595 28.2703 18.7 28.5828 18.9855L33.8008 23.7545C34.0308 23.9645 34.1723 24.254 34.1968 24.5645C34.2273 24.9535 34.7913 34.145 20.5838 38.9395C20.4543 38.982 20.3218 39.0035 20.1903 39.0035ZM17.0013 32.22L20.5718 36.337C30.5328 32.7055 31.6313 26.8445 31.7388 25.1995L28.2843 22.042C25.6583 28.1885 19.9538 31.087 17.0013 32.22Z" fill="#C40050"/>
<path d="M161.806 133.292L167.024 138.061C167.024 138.061 167.844 148.364 154.244 151.174L148.917 145.031C148.917 145.031 159.083 142.494 161.806 133.292Z" fill="#F23683"/>
<path d="M154.244 152.403C153.894 152.403 153.553 152.253 153.315 151.979L147.988 145.836C147.708 145.514 147.616 145.068 147.744 144.661C147.873 144.253 148.204 143.942 148.619 143.838C148.712 143.815 158.142 141.34 160.628 132.943C160.748 132.537 161.069 132.222 161.477 132.108C161.885 131.995 162.323 132.1 162.636 132.385L167.854 137.154C168.084 137.364 168.225 137.654 168.25 137.964C168.28 138.353 168.844 147.544 154.637 152.339C154.508 152.382 154.375 152.403 154.244 152.403ZM151.054 145.62L154.625 149.737C164.611 146.099 165.694 140.273 165.793 138.601L162.337 135.442C159.712 141.588 154.007 144.487 151.054 145.62Z" fill="#C40050"/>
<path d="M171.382 107.546L167.083 111.267C167.083 111.267 158.775 110.956 157.805 99.8275L163.212 96.1475C163.212 96.1475 164.285 104.507 171.382 107.546Z" fill="#AE76B2"/>
<path d="M167.083 112.497C167.067 112.497 167.052 112.496 167.037 112.496C166.715 112.484 159.139 112.064 156.603 100.082C156.499 99.5939 156.701 99.0918 157.114 98.8113L162.521 95.1313C162.873 94.8903 163.327 94.8508 163.716 95.0263C164.106 95.2023 164.377 95.5668 164.431 95.9908C164.441 96.0653 165.521 103.699 171.866 106.416C172.255 106.582 172.531 106.938 172.597 107.356C172.662 107.775 172.507 108.198 172.187 108.475L167.888 112.196C167.664 112.39 167.378 112.497 167.083 112.497ZM159.189 100.372C161.096 108.195 165.334 109.693 166.698 109.975L169.204 107.805C164.879 105.178 163.091 100.718 162.396 98.1893L159.189 100.372Z" fill="#813489"/>
<path d="M40.5296 165.835L36.2306 169.557C36.2306 169.557 27.9226 169.246 26.9531 158.117L32.3601 154.437C32.3596 154.437 33.4331 162.796 40.5296 165.835Z" fill="#AE76B2"/>
<path d="M36.2304 170.786C36.2149 170.786 36.1994 170.785 36.1844 170.785C35.8629 170.773 28.2869 170.353 25.7504 158.371C25.6469 157.883 25.8489 157.381 26.2614 157.1L31.6684 153.42C32.0214 153.18 32.4749 153.14 32.8639 153.315C33.2539 153.491 33.5249 153.856 33.5789 154.28C33.5889 154.354 34.6684 161.988 41.0134 164.705C41.4029 164.871 41.6789 165.227 41.7444 165.645C41.8094 166.064 41.6544 166.487 41.3339 166.764L37.0349 170.486C36.8109 170.68 36.5254 170.786 36.2304 170.786ZM28.3374 158.661C30.2424 166.483 34.4594 167.98 35.8454 168.264L38.3519 166.094C34.0269 163.467 32.2389 159.007 31.5444 156.478L28.3374 158.661Z" fill="#813489"/>
<path d="M139.645 4.52147L137.458 10.4065C137.458 10.4065 129.047 17.1095 121.877 10.988L125.185 4.20947C125.185 4.20947 130.913 8.52097 139.645 4.52147Z" fill="#F23683"/>
<path d="M129.175 14.2774C126.801 14.2774 124.102 13.7044 121.259 12.0504C120.702 11.7264 120.49 11.0274 120.772 10.4484L124.081 3.66995C124.242 3.34045 124.542 3.09995 124.899 3.01395C125.255 2.92795 125.632 3.00595 125.925 3.22695C126.133 3.37995 131.228 7.02495 139.134 3.40345C139.586 3.19595 140.119 3.28195 140.482 3.62045C140.847 3.95895 140.971 4.48295 140.798 4.94895L138.611 10.8339C138.533 11.0434 138.399 11.2279 138.225 11.3669C138.172 11.4099 134.485 14.2774 129.175 14.2774ZM123.501 10.4629C129.941 13.6009 135.232 10.4519 136.436 9.62995L137.546 6.64195C131.894 8.39095 127.692 6.94595 125.707 5.94395L123.501 10.4629Z" fill="#C40050"/>
<path d="M37.4096 130.075L35.2226 135.96C35.2226 135.96 26.8111 142.663 19.6411 136.542L22.9496 129.763C22.9501 129.763 28.6776 134.075 37.4096 130.075Z" fill="#F23683"/>
<path d="M27.3433 139.73C24.9693 139.73 22.2709 139.157 19.4279 137.503C18.8709 137.179 18.6589 136.48 18.9409 135.901L22.2493 129.123C22.4108 128.793 22.7103 128.552 23.0673 128.467C23.4233 128.38 23.8004 128.458 24.0939 128.68C24.3014 128.833 29.3968 132.476 37.3023 128.856C37.7548 128.648 38.2873 128.735 38.6509 129.073C39.0154 129.411 39.1399 129.936 38.9669 130.402L36.7798 136.287C36.7018 136.496 36.5679 136.681 36.3934 136.82C36.3404 136.862 32.6538 139.73 27.3433 139.73ZM21.6698 135.916C28.1448 139.081 33.3823 135.933 34.6028 135.086L35.7143 132.094C30.0633 133.844 25.8599 132.398 23.8754 131.397L21.6698 135.916Z" fill="#C40050"/>
<path d="M15.3763 98.55L10.0553 96.147C10.0553 96.147 7.14934 88.428 17.7168 82.981L23.4253 86.4135C23.4253 86.413 15.6208 90.82 15.3763 98.55Z" fill="#FBCA47"/>
<path d="M15.376 99.7796C15.2041 99.7796 15.0315 99.7435 14.87 99.6705L9.54905 97.2675C9.25155 97.133 9.02005 96.8855 8.90455 96.5805C8.79155 96.281 6.26805 89.1645 17.0331 81.96C17.4286 81.695 17.943 81.683 18.35 81.928L24.0585 85.36C24.4335 85.585 24.6601 85.993 24.6546 86.4305C24.6486 86.868 24.4106 87.269 24.0301 87.484C23.9596 87.5245 16.824 91.662 16.6051 98.5895C16.5921 98.9995 16.3751 99.3765 16.0266 99.5935C15.8286 99.717 15.6026 99.7796 15.376 99.7796ZM11.099 95.27L14.3271 96.728C15.1981 91.639 18.9181 88.148 21.1396 86.474L17.7611 84.4425C10.7526 89.3905 10.8485 93.854 11.099 95.27Z" fill="#CC9211"/>
<path d="M52.2554 7.11744L54.6444 1.78994C54.6444 1.78994 62.3554 -1.13656 67.8309 9.41694L64.4134 15.1344C64.4139 15.1344 59.9859 7.34144 52.2554 7.11744Z" fill="#FBCA47"/>
<path d="M64.4133 16.364C64.4088 16.364 64.4043 16.364 64.3998 16.364C63.9623 16.359 63.5603 16.122 63.3443 15.742C63.3038 15.672 59.1473 8.54747 52.2198 8.34647C51.8093 8.33447 51.4318 8.11846 51.2138 7.77046C50.9958 7.42297 50.9653 6.98896 51.1338 6.61446L53.5228 1.28696C53.6563 0.988964 53.9033 0.756465 54.2083 0.640465C54.5073 0.527965 61.6168 -2.01554 68.8503 8.72996C69.1163 9.12496 69.1298 9.63847 68.8853 10.047L65.4683 15.7645C65.2463 16.1365 64.8453 16.364 64.4133 16.364ZM54.0748 6.06396C59.1658 6.92146 62.6663 10.6325 64.3468 12.8495L66.3693 9.46546C61.3933 2.45996 56.9173 2.58147 55.5243 2.83097L54.0748 6.06396Z" fill="#CC9211"/>
<path d="M115.563 158.558C117.219 157.667 119.384 156.775 121.168 154.991C126.727 150.765 126.014 141.382 125.244 134.61C130.467 141.234 137.601 155.628 132.183 164.31C126.812 172.917 101.716 176.905 100.964 170.434C100.327 164.949 113.456 159.693 115.563 158.558Z" fill="#48BD86"/>
<g opacity="0.6">
<path d="M102.856 172.111C102.856 172.111 119.646 169.383 125.678 162.296C131.373 155.605 129.575 141.998 129.575 141.998C129.575 141.998 136.524 157.18 132.183 164.31C127.843 171.44 108.68 174.555 102.856 172.111Z" fill="#258E5A"/>
</g>
<path d="M108.176 175.295C106.908 175.295 105.722 175.253 104.648 175.19C103.241 175.106 100.353 174.303 99.4976 171.859C98.7486 169.719 99.8791 167.276 102.857 164.596C106.231 161.559 110.026 159.662 113.374 157.988C116.531 156.409 119.258 155.047 120.954 153.124C124.297 149.335 123.786 144.901 123.781 144.856C123.68 144.048 124.253 143.31 125.062 143.21C125.868 143.108 126.608 143.682 126.708 144.49C126.738 144.725 127.38 150.301 123.166 155.076C121.09 157.429 117.982 158.982 114.693 160.627C111.357 162.294 107.908 164.019 104.831 166.788C102.934 168.495 101.982 170.026 102.282 170.883C102.561 171.679 103.962 172.193 104.823 172.244C110.831 172.602 125.475 172.388 131.644 162.732C136.168 155.651 130.774 144.299 124.217 136.036C123.71 135.398 123.817 134.47 124.455 133.964C125.093 133.456 126.021 133.564 126.527 134.202C130.016 138.598 140.876 153.763 134.131 164.32C128.267 173.499 116.489 175.295 108.176 175.295Z" fill="#1B6D42"/>
<g opacity="0.6">
<path d="M76.9276 172.111C76.9276 172.111 60.1376 169.383 54.1056 162.296C48.4106 155.605 50.5846 145.737 50.5846 145.737C50.5846 145.737 43.2601 157.18 47.6001 164.31C51.9411 171.44 71.1041 174.555 76.9276 172.111Z" fill="#258E5A"/>
</g>
<path d="M64.2109 158.562C62.5569 157.667 60.3929 156.771 58.6134 154.984C53.0634 150.746 53.7964 141.365 54.5799 134.594C49.3429 141.207 42.1794 155.586 47.5784 164.279C52.9314 172.898 78.0184 176.938 78.7844 170.469C79.4339 164.985 66.3159 159.702 64.2109 158.562Z" fill="#48BD86"/>
<g opacity="0.6">
<path d="M76.9275 172.111C76.9275 172.111 60.1375 169.383 54.1055 162.296C48.4105 155.605 50.2084 141.998 50.2084 141.998C50.2084 141.998 43.2599 157.18 47.6004 164.31C51.9409 171.44 71.104 174.555 76.9275 172.111Z" fill="#258E5A"/>
</g>
<path d="M71.6847 175.316C63.3667 175.316 51.5057 173.522 45.6322 164.287C39.9707 155.384 47.6517 140.108 54.6257 132.588C55.1802 131.99 56.1127 131.955 56.7107 132.509C57.3082 133.063 57.3432 133.996 56.7897 134.594C50.3542 141.533 43.5647 155.536 48.1217 162.703C54.2717 172.373 68.9157 172.616 74.9237 172.272C75.7857 172.222 77.1872 171.711 77.4677 170.916C77.7697 170.059 76.8197 168.526 74.9277 166.816C71.8562 164.04 68.4107 162.308 65.0777 160.633C61.7917 158.982 58.6877 157.422 56.6167 155.065C52.4142 150.281 53.0667 144.706 53.0967 144.472C53.1997 143.664 53.9407 143.091 54.7457 143.194C55.5537 143.297 56.1257 144.035 56.0237 144.843C56.0187 144.882 55.5337 149.362 58.8332 153.117C60.5252 155.043 63.2492 156.412 66.4027 157.997C69.7472 159.678 73.5382 161.583 76.9062 164.627C79.8787 167.314 81.0037 169.76 80.2502 171.897C79.3892 174.34 76.5002 175.137 75.0922 175.218C74.0532 175.277 72.9067 175.316 71.6847 175.316Z" fill="#1B6D42"/>
</svg>
