<svg width="150" height="244" viewBox="0 0 150 244" fill="none" xmlns="http://www.w3.org/2000/svg">
<path d="M80.6362 206.538C80.6362 206.538 79.9802 214.632 81.9488 216.382C85.1825 219.256 103.822 224.913 106.448 229.288C109.072 233.662 107.322 238.037 104.698 238.912C102.073 239.787 100.323 238.474 100.323 238.474C100.323 238.474 99.4482 242.193 95.0733 241.974C90.6985 241.756 76.0431 229.506 74.2928 223.6C72.7282 218.319 74.2928 208.07 74.2928 208.07L80.6362 206.538Z" fill="#48BD86"/>
<g opacity="0.6">
<path d="M80.0346 214.099C80.0346 214.099 75.4852 216.283 77.487 221.56C79.4888 226.837 91.4289 236.978 94.0461 237.391C97.5034 237.937 98.4136 233.57 98.4136 233.57C98.4136 233.57 102.009 235.232 104.055 234.116C106.056 233.024 105.874 229.749 105.874 229.749C105.874 229.749 108.968 235.936 106.056 238.119C103.145 240.303 100.052 237.756 100.052 237.756C100.052 237.756 100.597 241.759 96.0485 241.759C91.4991 241.759 81.6731 233.934 79.4893 231.751C77.3056 229.567 73.1206 223.198 73.1206 220.105C73.1206 219.802 73.3025 219.317 73.3025 219.013V208.041C73.6058 208.041 74.4553 207.549 74.7585 207.549H80.0858C80.2893 209.543 80.1369 212.097 80.0346 214.099Z" fill="#258E5A"/>
</g>
<path d="M95.4372 243.5C95.2932 243.5 95.1466 243.496 94.9969 243.489C90.0245 243.24 74.7938 230.629 72.8384 224.032C71.1968 218.489 72.7271 208.273 72.793 207.841L75.7915 208.298C75.7762 208.397 74.2976 218.277 75.7462 223.17C77.4094 228.782 91.7263 240.289 95.1487 240.46C98.0491 240.595 98.7415 238.528 98.8507 238.11C98.9783 237.621 99.3437 237.219 99.8204 237.053C100.297 236.886 100.829 236.959 101.232 237.262C101.26 237.28 102.43 238.069 104.217 237.474C104.921 237.239 105.555 236.521 105.913 235.551C106.525 233.898 106.245 231.899 105.146 230.068C103.838 227.887 96.2836 224.695 90.7675 222.365C85.6017 220.182 82.3633 218.78 80.94 217.515C78.5891 215.425 78.955 208.492 79.1233 206.416L82.146 206.661C81.8365 210.504 82.2219 214.597 82.9544 215.249C84.0761 216.245 88.0776 217.936 91.9472 219.571C100.134 223.03 106.059 225.696 107.746 228.508C109.321 231.132 109.689 234.083 108.757 236.603C108.072 238.454 106.767 239.82 105.175 240.351C103.593 240.879 102.17 240.78 101.09 240.474C100.175 241.958 98.3982 243.5 95.4372 243.5Z" fill="#1B6D42"/>
<path d="M100.168 240.169C100.15 240.169 100.132 240.169 100.114 240.168C99.2763 240.139 98.6219 239.437 98.6509 238.6C98.7163 236.729 97.7222 234.51 96.1782 233.079C95.5638 232.51 95.5274 231.55 96.097 230.936C96.6649 230.322 97.6252 230.285 98.2395 230.855C100.426 232.881 101.777 235.963 101.682 238.706C101.654 239.525 100.981 240.169 100.168 240.169Z" fill="#1B6D42"/>
<path d="M89.5025 188.34C93.8868 187.194 98.7178 187.869 102.62 190.173C106.522 192.477 108.803 195.885 109.918 200.277C110.826 203.852 111.251 208.268 113.006 211.512C115.223 215.614 120.542 217.643 125.008 216.303C129.474 214.962 132.747 210.539 132.989 205.883C133.131 203.165 132.226 200.269 130.095 198.576C127.964 196.883 124.516 196.805 122.682 198.816C120.849 200.827 122.547 203.334 124.289 205.426C125.253 206.583 126.362 208.326 122.687 208.706C119.012 209.086 113.341 203.637 116.398 197.284C119.455 190.932 130.708 187.343 137.26 196.983C144.927 208.262 138.084 222.899 125.775 225.101C113.366 227.321 106.227 220.159 103.756 209.735C101.285 199.311 97.6889 195.968 89.3722 196.365L89.5025 188.34Z" fill="#258E5A"/>
<g opacity="0.6">
<path d="M103.125 191.058C103.125 191.058 99.9708 194.212 100.941 195.182C101.911 196.152 105.551 201.733 107.249 208.769C108.948 215.805 114.771 222.841 124.961 221.628C135.151 220.415 139.76 209.254 140.246 205.615C140.246 205.615 141.147 224.45 125.775 225.101C110.403 225.752 106.036 220.172 103.124 208.769C100.213 197.365 93.177 195.909 93.177 195.909L98.0296 187.903L103.125 191.058Z" fill="#1B6D42"/>
</g>
<path d="M121.908 227.636C111.993 227.637 104.26 221.103 101.65 210.089C99.2673 200.042 96.7556 197.529 89.4445 197.88L89.3005 194.85C99.1993 194.385 102.226 199.376 104.601 209.389C106.651 218.034 113.262 226.478 125.665 224.26C130.937 223.317 135.404 219.618 137.615 214.365C139.92 208.887 139.319 202.708 136.007 197.836C133.515 194.17 130.022 192.312 126.182 192.595C122.557 192.865 119.174 195.013 117.765 197.942C116.528 200.511 116.756 203.42 118.373 205.721C119.389 207.165 120.829 208.096 121.894 207.989C122.83 207.892 123.341 207.622 123.432 207.399C123.525 207.172 123.381 206.704 123.124 206.396C121.897 204.922 118.635 201.006 121.563 197.795C123.836 195.301 128.175 195.114 131.039 197.389C133.391 199.257 134.686 202.462 134.505 205.962C134.227 211.303 130.417 216.263 125.445 217.755C120.244 219.315 114.192 216.892 111.673 212.233C110.37 209.824 109.877 207.063 109.4 204.392C109.18 203.16 108.972 201.996 108.692 200.893C107.642 196.757 105.277 193.502 101.85 191.479C98.2696 189.364 93.9084 188.756 89.8869 189.807L89.1196 186.873C93.9174 185.619 99.1196 186.345 103.392 188.868C107.529 191.311 110.378 195.211 111.631 200.147C111.938 201.356 112.166 202.629 112.385 203.859C112.82 206.294 113.269 208.811 114.34 210.791C116.169 214.173 120.758 215.995 124.573 214.85C128.359 213.714 131.262 209.909 131.476 205.804C131.605 203.319 130.715 201.004 129.152 199.763C127.549 198.49 125 198.525 123.804 199.838C123.208 200.491 122.996 201.503 125.454 204.455C126.214 205.367 126.875 206.985 126.24 208.542C125.844 209.516 124.822 210.735 122.206 211.005C120.005 211.232 117.587 209.877 115.892 207.465C113.634 204.252 113.312 200.2 115.032 196.627C116.896 192.754 121.286 189.918 125.957 189.571C130.923 189.203 135.387 191.531 138.515 196.131C142.407 201.856 143.115 209.113 140.409 215.542C137.798 221.745 132.486 226.12 126.199 227.246C124.732 227.508 123.298 227.636 121.908 227.636Z" fill="#1B6D42"/>
<path d="M49.1939 205.798C49.1939 205.798 47.3219 215.229 44.9863 216.447C41.1498 218.448 21.6935 219.397 18.0827 223.001C14.472 226.605 15.1043 231.275 17.4373 232.762C19.7702 234.25 21.7868 233.403 21.7868 233.403C21.7868 233.403 21.7304 237.222 26.0267 238.075C30.3229 238.928 47.5196 230.615 50.6547 225.312C53.458 220.572 55.5015 207.9 55.5015 207.9L49.1939 205.798Z" fill="#48BD86"/>
<g opacity="0.6">
<path d="M47.3984 214.7C47.3984 214.7 51.2791 217.925 48.0533 222.556C44.827 227.187 30.7776 234.116 28.1387 233.88C24.6525 233.568 24.8333 229.111 24.8333 229.111C24.8333 229.111 20.9415 229.848 19.2293 228.267C17.5539 226.721 18.5274 223.589 18.5274 223.589C18.5274 223.589 14.0207 228.836 16.313 231.663C18.6054 234.489 22.2262 232.772 22.2262 232.772C22.2262 232.772 20.7222 236.522 25.1345 237.629C29.5467 238.736 40.9822 233.54 43.6316 231.953C46.2809 230.366 51.8908 225.208 52.6439 222.207C52.7177 221.913 52.6592 221.398 52.733 221.104L55.404 210.462C55.1097 210.388 55.0955 207.449 54.8012 207.375L49.8953 205.623C49.2109 207.507 47.7865 212.733 47.3984 214.7Z" fill="#258E5A"/>
</g>
<path d="M26.6099 239.639C26.2835 239.639 25.9898 239.614 25.7319 239.563C22.5631 238.934 21.1071 236.899 20.5544 235.155C19.4349 235.191 18.0295 234.938 16.622 234.041C15.2082 233.139 14.2743 231.497 14.0613 229.535C13.7702 226.863 14.8454 224.091 17.0123 221.928C19.3331 219.612 25.7287 218.469 34.5106 217.107C38.6624 216.463 42.9555 215.798 44.286 215.104C45.2072 214.548 46.891 209.889 47.8861 205.137L50.8546 205.759C50.1943 208.911 48.3708 216.394 45.6887 217.793C44.0001 218.673 40.5176 219.244 34.9757 220.104C29.0589 221.021 20.9552 222.278 19.1549 224.075C17.6435 225.583 16.8857 227.455 17.0766 229.207C17.1884 230.234 17.6282 231.086 18.2536 231.484C19.8441 232.498 21.1872 232.01 21.2004 232.005C21.6729 231.807 22.2129 231.86 22.6364 232.146C23.0604 232.433 23.3114 232.914 23.304 233.426C23.3077 233.84 23.4733 236.023 26.3231 236.589C29.6854 237.26 46.3716 229.58 49.3506 224.541C51.9873 220.081 54.3398 207.743 54.363 207.619L57.3435 208.182C57.2433 208.71 54.8661 221.171 51.9609 226.084C48.6434 231.694 32.4608 239.639 26.6099 239.639Z" fill="#1B6D42"/>
<path d="M21.896 235.131C21.7911 235.131 21.6835 235.119 21.5765 235.097C20.7575 234.921 20.2365 234.115 20.4115 233.296C20.9869 230.612 23.0477 227.952 25.6618 226.519C26.3974 226.117 27.3176 226.386 27.7205 227.12C28.1229 227.854 27.854 228.776 27.1199 229.179C25.2737 230.191 23.7697 232.101 23.3773 233.932C23.2249 234.644 22.5953 235.131 21.896 235.131Z" fill="#1B6D42"/>
<path d="M40.7327 136.508L68.7695 136.888L96.8062 136.508C96.8062 136.508 126.945 207.811 68.7695 208.61C10.5939 207.811 40.7327 136.508 40.7327 136.508Z" fill="#48BD86"/>
<g opacity="0.6">
<path d="M102.911 165.366C102.911 165.366 99.1577 182.339 92.0602 188.254C82.8232 195.952 60.8947 194.018 51.1557 190.66C37.0835 185.808 33.438 165.505 33.438 165.505C33.438 165.505 32.3522 177.692 34.9694 187.161C37.4448 196.117 46.6137 202.87 46.6137 202.87C46.6137 202.87 56.5193 207.819 67.9368 207.819C79.3549 207.819 87.0625 205.67 92.047 202.032C97.8341 197.807 104.674 188.562 105.185 177.973C105.504 171.363 102.911 165.366 102.911 165.366Z" fill="#258E5A"/>
</g>
<path d="M68.79 210.127C53.8367 209.922 43.216 205.133 37.1816 195.894C23.2587 174.577 38.6729 137.487 39.3358 135.918C39.5757 135.35 40.1468 134.976 40.7533 134.993L68.7895 135.373L96.7846 134.993C97.3905 134.975 97.9622 135.35 98.2021 135.918C98.865 137.487 114.279 174.577 100.356 195.894C94.3224 205.133 83.7017 209.922 68.79 210.127ZM41.7537 138.039C39.4587 143.934 27.8497 176.068 39.7239 194.24C45.173 202.58 54.952 206.904 68.79 207.094C82.5864 206.904 92.3655 202.579 97.8145 194.24C109.689 176.068 98.0798 143.934 95.7848 138.039L68.79 138.405L41.7537 138.039Z" fill="#1B6D42"/>
<path d="M98.1721 146.387C98.1721 146.387 116.17 155.926 119.392 155.341C122.615 154.757 127.261 138.59 132.869 139.471C139.484 140.509 134.721 166.82 125.296 171.285C117.052 175.189 95.4268 160.71 95.4268 160.71L98.1721 146.387Z" fill="#48BD86"/>
<g opacity="0.6">
<path d="M134.513 141.483C134.513 141.483 131.022 158.616 123.495 164.52C116.388 170.095 103.424 166.392 103.424 166.392C103.424 166.392 117.794 175.449 125.296 171.285C132.797 167.12 136.785 147.565 134.513 141.483Z" fill="#258E5A"/>
</g>
<path d="M38.7162 159.46C38.7162 159.46 25.6322 167.443 24.9124 170.637C24.1926 173.832 37.2628 184.421 34.2633 189.24C30.7248 194.925 7.23111 180.255 7.92931 169.849C8.75619 157.526 41.1462 143.514 41.1462 143.514L38.7162 159.46Z" fill="#48BD86"/>
<g opacity="0.6">
<path d="M30.006 180.336C30.006 180.336 30.4026 184.696 24.8533 183.111C19.3041 181.526 10.5839 174.193 8.79993 170.824C8.79993 170.824 8.40337 177.165 15.1418 182.715C21.8802 188.264 30.006 192.03 32.5821 189.85C35.1592 187.669 30.006 180.336 30.006 180.336Z" fill="#258E5A"/>
</g>
<path d="M31.299 192.009C29.8942 192.009 28.0754 191.67 25.7219 190.764C16.7011 187.291 5.00094 177.552 6.43743 169.58C9.20756 154.205 37.2586 143.971 38.4509 143.543C39.2387 143.26 40.1073 143.669 40.3904 144.457C40.6731 145.245 40.2639 146.114 39.476 146.397C39.2008 146.496 11.8828 156.462 9.42219 170.118C8.33534 176.151 19.0552 184.947 26.8119 187.934C30.402 189.316 32.5241 189.165 32.9765 188.438C34.1873 186.493 30.2876 181.56 27.7078 178.296C24.6888 174.476 23.0018 172.222 23.4337 170.304C24.2405 166.725 31.5385 161.379 32.9929 160.344C33.6747 159.859 34.6213 160.018 35.107 160.7C35.5927 161.383 35.4334 162.329 34.7516 162.815C31.5485 165.096 26.8662 169.104 26.4011 170.933C26.448 171.811 28.6354 174.578 30.0867 176.414C33.7438 181.041 37.8887 186.285 35.551 190.041C35.0079 190.913 33.8229 192.009 31.299 192.009Z" fill="#1B6D42"/>
<g opacity="0.6">
<path d="M101.593 145.438C101.593 145.438 90.0794 160.8 68.2574 160.8C45.3153 160.8 35.1587 145.551 35.1587 145.551L101.593 145.438Z" fill="#1B6D42"/>
</g>
<path d="M36.417 153.34C36.2994 153.34 36.1807 153.326 36.0615 153.298C35.2468 153.103 34.7458 152.284 34.9409 151.47C35.1139 150.75 35.385 149.807 35.6481 148.895C35.878 148.097 36.1153 147.272 36.263 146.677C36.4639 145.864 37.2855 145.369 38.0987 145.568C38.9118 145.769 39.4075 146.591 39.2066 147.404C39.0458 148.057 38.8101 148.872 38.5617 149.735C38.3086 150.614 38.0465 151.523 37.8893 152.177C37.7232 152.873 37.102 153.34 36.417 153.34Z" fill="#1B6D42"/>
<path d="M120.295 173.789C111.816 173.79 101.867 167.99 101.351 167.685C100.631 167.26 100.391 166.331 100.816 165.61C101.242 164.888 102.173 164.649 102.892 165.073C103.035 165.158 117.228 173.43 124.646 169.914C131.079 166.867 135.339 151.646 134.264 144.193C133.989 142.291 133.38 141.086 132.633 140.969C130.366 140.606 127.349 146.129 125.351 149.779C123.014 154.05 121.596 156.483 119.663 156.833C116.873 157.341 108.13 152.784 102.274 149.479L103.202 152.547C103.444 153.349 102.99 154.195 102.189 154.438C101.386 154.68 100.541 154.226 100.298 153.425L98.2639 146.695C98.083 146.097 98.2876 145.45 98.778 145.064C99.269 144.678 99.9471 144.633 100.483 144.949C108.018 149.377 117.224 154.025 119.09 153.853C119.883 153.453 121.57 150.371 122.691 148.323C125.523 143.15 128.742 137.289 133.103 137.973C134.656 138.217 136.639 139.419 137.265 143.761C138.491 152.258 133.808 168.931 125.945 172.656C124.242 173.462 122.31 173.789 120.295 173.789Z" fill="#1B6D42"/>
<path d="M2.25557 18.9365C2.6764 27.9899 10.3566 34.9883 19.4106 34.5675C22.4644 34.4256 25.2831 33.4548 27.6635 31.887L35.8906 35.6791L32.8383 26.4132C34.3724 23.777 35.194 20.6857 35.0416 17.4125C34.6208 8.35901 26.9405 1.36063 17.8866 1.78145C8.83313 2.20227 1.83475 9.88304 2.25557 18.9365Z" fill="white"/>
<path d="M35.8901 36.9431C35.7113 36.9431 35.531 36.9052 35.3612 36.8271L27.7564 33.3219C25.2525 34.8295 22.4028 35.6939 19.4692 35.8304C9.74126 36.2956 1.44561 28.7313 0.993149 18.996C0.541216 9.26075 8.09278 0.972485 17.8281 0.520024C22.5541 0.300122 27.0629 1.9312 30.5523 5.11108C34.0423 8.29096 36.0842 12.6394 36.3036 17.3549C36.4528 20.5654 35.7309 23.7305 34.2121 26.5471L37.0904 35.2846C37.248 35.7624 37.1072 36.2882 36.7312 36.623C36.4955 36.8329 36.1944 36.9431 35.8901 36.9431ZM3.51754 18.8779C3.90567 27.2215 11.0164 33.6863 19.3516 33.3055C22.0695 33.1789 24.7031 32.3236 26.968 30.8317C27.3334 30.5923 27.7959 30.557 28.192 30.7395L33.7807 33.3155L31.6376 26.8092C31.5242 26.4659 31.5638 26.0904 31.7452 25.7782C33.2112 23.2601 33.9142 20.3877 33.7792 17.472C33.5909 13.4305 31.8406 9.70372 28.8506 6.97893C25.8595 4.25415 21.9925 2.86037 17.9457 3.04442C9.60256 3.43202 3.12994 10.5348 3.51754 18.8779Z" fill="#233338"/>
<path d="M18.8443 22.8704C19.4729 22.4596 19.6501 21.6138 19.2393 20.9852C18.8786 20.433 19.3732 19.3657 20.0387 18.6933C20.3578 18.3711 20.7248 18.0658 21.1129 17.742C21.935 17.0581 22.7846 16.3509 23.3995 15.322C24.2379 13.9177 24.3461 12.0947 23.6874 10.4452C23.0404 8.82358 21.7879 7.64602 20.2518 7.21729C18.6423 6.76694 16.8551 7.21623 15.4714 8.41858C14.1293 9.58454 13.4554 11.2341 13.6684 12.8314C13.7164 13.1921 13.902 13.5127 14.1915 13.7337C14.4805 13.9546 14.8386 14.0496 15.1988 14.001C15.5595 13.9531 15.8796 13.7674 16.1005 13.4784C16.3215 13.1895 16.4169 12.8314 16.3684 12.4712C16.2772 11.7846 16.6094 11.0384 17.258 10.4752C17.9383 9.88407 18.8042 9.64096 19.5177 9.84082C20.2191 10.0381 20.8324 10.6408 21.1577 11.4556C21.5037 12.322 21.4678 13.2454 21.0612 13.9256C20.6852 14.5547 20.0466 15.0863 19.37 15.6495C18.9492 15.9997 18.5147 16.362 18.1034 16.7775C16.6911 18.204 15.7308 20.5955 16.9596 22.4755C17.1178 22.7175 17.344 22.9 17.614 23.0028C18.02 23.1578 18.4804 23.1083 18.8443 22.8704Z" fill="#233338"/>
<path d="M19.2535 25.0199C18.5701 24.7594 17.8028 25.1033 17.5423 25.7867C17.2818 26.4696 17.6256 27.2374 18.309 27.4974C18.9919 27.7579 19.7598 27.4141 20.0197 26.7306C20.2802 26.0477 19.9364 25.2804 19.2535 25.0199Z" fill="#233338"/>
<path d="M13.1927 53.1062C23.353 36.4654 60.3082 39.8377 60.3082 39.8377C60.3082 39.8377 77.844 17.6951 87.8371 17.2337L87.8804 17.0291C88.124 17.0813 88.3666 17.1567 88.6076 17.2442C88.8633 17.2632 89.1154 17.2938 89.359 17.346L89.3147 17.5506C98.2379 22.0731 105.14 49.4623 105.14 49.4623C105.14 49.4623 140.223 61.5559 142.658 80.9004C145.092 100.245 132.489 113.702 132.489 113.702C132.489 113.702 129.237 135.013 116.741 141.437C104.423 147.771 79.7867 155 60.295 151.17L60.2913 151.186C60.1521 151.156 60.0124 151.119 59.8726 151.088C59.7323 151.059 59.59 151.036 59.4507 151.005L59.4539 150.99C40.1078 146.482 20.6098 129.778 11.9766 118.946C3.21902 107.958 9.00029 87.1906 9.00029 87.1906C9.00029 87.1906 3.03234 69.7476 13.1927 53.1062Z" fill="#48BD86"/>
<g opacity="0.6">
<path d="M85.2801 82.0099C85.1746 82.0099 85.0681 81.9988 84.96 81.9756C84.1411 81.8 83.62 80.9937 83.7956 80.1748C89.1081 55.4313 103.837 50.0186 104.462 49.8003C105.254 49.525 106.117 49.9411 106.394 50.7311C106.67 51.52 106.255 52.3827 105.468 52.6611C105.302 52.7218 91.6858 57.8723 86.7614 80.8118C86.608 81.5232 85.9794 82.0099 85.2801 82.0099Z" fill="#258E5A"/>
</g>
<g opacity="0.6">
<path d="M65.8496 77.8386C65.7441 77.8386 65.6371 77.8276 65.5295 77.8044C64.7105 77.6288 64.1895 76.8224 64.3651 76.0035C69.3237 52.9069 58.9699 42.7592 58.8649 42.6595C58.258 42.0832 58.2326 41.1234 58.809 40.5159C59.3859 39.9084 60.3452 39.8836 60.9527 40.4595C61.4326 40.9151 72.6423 51.896 67.3309 76.6405C67.178 77.3519 66.5489 77.8386 65.8496 77.8386Z" fill="#258E5A"/>
</g>
<g opacity="0.6">
<path d="M63.6147 136.143C89.1756 141.631 114.856 139.737 125.472 133.996C123.301 137.489 120.5 140.598 116.91 142.444C104.414 148.869 79.8701 156.019 60.2518 151.808C40.6336 147.596 21.1872 131.001 12.4302 120.013C10.2464 117.273 8.99454 113.91 8.34485 110.404C17.9177 119.67 39.3991 130.945 63.6147 136.143Z" fill="#258E5A"/>
</g>
<g opacity="0.6">
<path d="M96.5958 26.7169L85.0518 50.6667L92.4045 20.2337L96.5958 26.7169Z" fill="#258E5A"/>
</g>
<g opacity="0.6">
<path d="M78.1995 22.7676L78.8961 49.3452L84.6826 18.5757L78.1995 22.7676Z" fill="#258E5A"/>
</g>
<path d="M89.2055 18.4945C89.1006 18.4945 88.9935 18.4835 88.886 18.4603H88.8854H88.8839C88.7647 18.4349 88.6434 18.4181 88.5205 18.4049C88.4156 18.3933 88.3122 18.3711 88.2115 18.339C88.0934 18.3005 87.9758 18.2657 87.8566 18.2398H87.855C87.0366 18.0642 86.515 17.2579 86.6906 16.439C86.8662 15.6205 87.671 15.0969 88.4915 15.2746L89.5225 15.4955C90.3409 15.6711 90.8625 16.4774 90.6869 17.2964C90.5339 18.0078 89.9048 18.4945 89.2055 18.4945Z" fill="#1B6D42"/>
<path d="M72.7867 154.505C68.2342 154.505 63.7254 154.105 59.4238 153.181C38.7625 148.745 18.6818 131.35 10.2253 120.74C1.69553 110.038 6.84715 88.4119 7.79901 84.7627C6.7132 81.8291 2.11635 67.0719 12.8262 51.6096C18.4187 43.535 28.0321 38.8927 40.6256 38.1851C48.8379 37.7226 55.9365 39.0299 58.6734 39.6922C63.1875 33.951 79.3548 14.3744 88.8433 15.3906C88.9488 15.4022 89.0537 15.4244 89.1544 15.4571C98.2443 18.4344 104.932 42.9127 106.691 50.0007C109.458 50.5202 116.466 52.2425 123.767 56.0346C134.961 61.8496 141.821 70.0282 143.606 79.687C147.026 98.1831 136.777 109.753 134.582 111.982C133.953 115.701 129.774 137.536 117.603 143.794C108.049 148.705 90.1021 154.505 72.7867 154.505ZM15.3195 53.3356C4.58696 68.8327 10.7268 83.9342 10.7901 84.0851C10.9225 84.3999 10.9457 84.7532 10.8539 85.0823C10.7885 85.3164 4.42822 108.599 12.5973 118.85C20.47 128.727 40.3171 145.977 60.0609 150.216C79.8046 154.454 104.983 146.872 116.216 141.096C127.888 135.095 131.63 111.26 131.666 111.02C131.717 110.68 131.883 110.368 132.135 110.134C132.253 110.025 144.05 98.7742 140.624 80.2376C136.543 58.1577 105.631 52.8763 105.324 52.8494C104.674 52.7925 104.133 52.3263 103.981 51.6914C101.063 39.4971 94.5196 20.6788 88.3618 18.3917C88.2643 18.3849 88.1646 18.3817 88.0634 18.3817C81.402 18.3817 68.0027 32.5725 60.4506 42.3458C60.0519 42.8615 59.3664 43.0651 58.751 42.8505C58.4593 42.7487 28.1049 34.8776 15.3195 53.3356Z" fill="#1B6D42"/>
<path d="M61.9393 99.4428C60.3273 99.6227 57.7449 94.0344 59.8342 93.2571C61.9246 92.4798 64.343 99.1744 61.9393 99.4428Z" fill="#258E5A"/>
<path d="M74.9859 104.242C76.097 105.424 81.6852 102.842 80.5973 100.896C79.5099 98.9493 73.3289 102.48 74.9859 104.242Z" fill="#258E5A"/>
<g opacity="0.6">
<path d="M86.1143 96.9216C85.8448 96.9216 85.5711 96.8494 85.3243 96.6986C85.269 96.6648 79.744 93.3104 72.677 91.2015C65.6101 89.0927 59.1496 88.8712 59.0848 88.8691C58.2479 88.8432 57.5903 88.144 57.6156 87.3071C57.6409 86.4855 58.3143 85.8369 59.1301 85.8369C59.1459 85.8369 59.1612 85.8369 59.1765 85.8374C59.455 85.8458 66.0805 86.0678 73.544 88.2948C81.0075 90.5218 86.6712 93.9664 86.9085 94.1119C87.6225 94.5491 87.8461 95.4825 87.4089 96.1965C87.1236 96.6637 86.6248 96.9216 86.1143 96.9216Z" fill="#258E5A"/>
</g>
<path d="M93.1856 82.7683C90.0563 97.3446 98.5687 111.016 113.897 114.307C129.225 117.597 143.205 107.83 146.334 93.2545C149.463 78.6782 140.683 65.9602 125.355 62.6696C110.027 59.3785 96.3148 68.1919 93.1856 82.7683Z" fill="#258E5A"/>
<path d="M119.909 116.467C117.811 116.467 115.69 116.243 113.574 115.788C107.21 114.423 101.245 111.266 97.2091 107.131C96.6238 106.532 96.6354 105.572 97.235 104.987C97.8346 104.402 98.7943 104.413 99.3797 105.013C103.01 108.733 108.415 111.58 114.21 112.824C121.243 114.334 128.333 113.018 134.174 109.119C139.918 105.284 143.897 99.3722 145.378 92.4719C147.984 80.3356 142.155 69.4333 130.526 64.6967C129.75 64.3808 129.378 63.4959 129.694 62.7202C130.009 61.9445 130.894 61.5727 131.671 61.8881C137.975 64.4562 142.894 68.7425 145.895 74.2843C148.935 79.8995 149.782 86.409 148.344 93.1084C146.696 100.784 142.262 107.366 135.858 111.641C131.092 114.823 125.586 116.467 119.909 116.467Z" fill="#1B6D42"/>
<path d="M129.139 106.413C139.783 100.482 143.604 87.0453 137.673 76.4011C131.742 65.757 118.305 61.9362 107.661 67.8672C97.0168 73.7982 93.1961 87.235 99.1271 97.8792C105.058 108.523 118.495 112.344 129.139 106.413Z" fill="white"/>
<path d="M124.544 87.3879C127.194 81.1676 124.3 73.9764 118.08 71.326C111.86 68.6756 104.668 71.5696 102.018 77.79C99.3676 84.0103 102.262 91.2014 108.482 93.8518C114.702 96.5022 121.893 93.6082 124.544 87.3879Z" fill="#CC9211"/>
<path d="M114.805 89.7224C118.835 88.8786 121.418 84.9278 120.574 80.8981C119.73 76.8684 115.779 74.2857 111.75 75.1295C107.72 75.9733 105.137 79.9241 105.981 83.9538C106.825 87.9835 110.776 90.5662 114.805 89.7224Z" fill="#233338"/>
<path d="M111.889 77.4036C112.226 75.8316 111.146 74.2664 109.475 73.9078C107.805 73.5492 106.177 74.5327 105.84 76.1053C105.502 77.6773 106.583 79.2424 108.253 79.601C109.923 79.9596 111.551 78.9761 111.889 77.4036Z" fill="white"/>
<path d="M57.419 75.0896C54.2897 89.6659 40.9158 98.6386 25.5875 95.3475C10.2592 92.0569 1.52054 77.4125 4.6498 62.8362C7.77906 48.2599 21.0054 40.2664 36.3337 43.5576C51.662 46.8482 60.5482 60.5133 57.419 75.0896Z" fill="#258E5A"/>
<path d="M32.6907 97.6172C30.229 97.6172 27.7241 97.3578 25.2736 96.8315C9.2455 93.3905 -0.592627 78.0369 2.87624 61.8775C4.31536 55.1776 7.75891 49.5899 12.8367 45.7176C17.8481 41.896 24.086 40.0028 30.8956 40.2522C31.733 40.2828 32.3864 40.9858 32.3563 41.8227C32.3257 42.6596 31.6212 43.3208 30.7859 43.2834C18.2335 42.8315 8.4471 50.3788 5.84202 62.5151C2.72964 77.0113 11.5447 90.7828 25.9106 93.8667C31.7067 95.1102 37.8038 94.7337 42.6406 92.8321C43.42 92.5257 44.3001 92.9091 44.6065 93.6885C44.9129 94.4679 44.5295 95.348 43.7501 95.6544C40.4431 96.9543 36.6225 97.6172 32.6907 97.6172Z" fill="#1B6D42"/>
<path d="M51.4618 69.3051C52.156 57.1508 42.8658 46.7351 30.7115 46.0409C18.5572 45.3467 8.14142 54.637 7.44724 66.7913C6.75305 78.9456 16.0433 89.3613 28.1976 90.0555C40.3519 90.7497 50.7677 81.4594 51.4618 69.3051Z" fill="white"/>
<path d="M34.5401 70.6114C38.3466 65.0198 36.8996 57.4012 31.3081 53.5946C25.7166 49.788 18.0979 51.235 14.2913 56.8266C10.4848 62.4181 11.9318 70.0368 17.5233 73.8433C23.1148 77.6499 30.7335 76.2029 34.5401 70.6114Z" fill="#CC9211"/>
<path d="M31.6343 65.5768C32.6592 61.5883 30.2567 57.524 26.2682 56.4991C22.2796 55.4742 18.2154 57.8767 17.1905 61.8653C16.1656 65.8538 18.5681 69.918 22.5566 70.9429C26.5452 71.9679 30.6094 69.5654 31.6343 65.5768Z" fill="#233338"/>
<path d="M27.6673 59.6521C28.0048 58.0801 29.6327 57.0961 31.3028 57.4547C32.9734 57.8133 34.054 59.3784 33.7165 60.9504C33.379 62.5224 31.7511 63.5065 30.081 63.1479C28.4103 62.7893 27.3298 61.2241 27.6673 59.6521Z" fill="white"/>
<path d="M120.055 42.4481C117.59 45.0511 106.955 29.4 110.408 28.2483C113.86 27.0971 123.345 38.9718 120.055 42.4481Z" fill="#258E5A"/>
<path d="M119.355 44.2568C118.974 44.2568 118.536 44.1761 118.041 43.9684C114.315 42.4016 108.067 33.0814 108.211 29.3029C108.278 27.5479 109.434 26.9747 109.928 26.8102C113.165 25.7286 117.664 30.5469 119.896 34.049C122.503 38.1412 122.963 41.5827 121.156 43.4911C120.897 43.7643 120.299 44.2568 119.355 44.2568ZM118.954 41.405C118.954 41.4055 118.954 41.4055 118.954 41.405V41.405ZM111.253 29.7238C111.386 30.6941 112.266 32.9996 114.383 36.0735C116.611 39.3098 118.377 40.7753 119.119 41.1355C119.405 40.4104 119.144 38.8426 117.897 36.6135C115.757 32.786 112.565 30.0945 111.253 29.7238Z" fill="#1B6D42"/>
<path d="M46.6231 24.9798C47.2106 28.5157 64.779 21.4857 62.5605 18.6006C60.3419 15.7155 45.8384 20.2575 46.6231 24.9798Z" fill="#258E5A"/>
<path d="M48.5432 27.4605C48.1382 27.4605 47.7685 27.4299 47.4432 27.3656C45.6138 27.0038 45.2141 25.7503 45.1276 25.2282C44.6968 22.6358 47.0018 20.0392 51.452 18.1043C55.2605 16.449 61.682 14.9688 63.7629 17.6761C64.0803 18.0885 64.7184 19.2097 63.7924 20.7026C61.963 23.6515 53.061 27.4605 48.5432 27.4605ZM48.1187 24.7294V24.7309V24.7294ZM48.1329 24.414C48.9471 24.5295 51.2327 24.3033 54.8893 22.8663C58.3666 21.4994 60.3868 20.0782 61.037 19.3483C59.7503 18.9233 55.5927 19.3684 51.673 21.3486C49.3943 22.4992 48.3017 23.6531 48.1329 24.414Z" fill="#1B6D42"/>
<g opacity="0.6">
<path d="M18.867 97.1668C22.1982 98.6951 18.8427 101.088 18.8385 102.748C18.8385 102.748 19.9064 105.148 21.4916 106.218C23.032 107.259 26.9928 108.682 36.8716 110.119C45.8464 111.424 54.6404 113.2 59.6961 114.282L59.7725 114.033C59.7725 114.033 60.5409 114.291 61.8787 114.756C63.2651 115.062 64.0567 115.246 64.0567 115.246L63.9802 115.495C68.8386 117.219 77.2276 120.308 85.5016 123.885C94.6094 127.823 98.7416 128.69 100.625 128.62C102.562 128.546 104.82 127.088 104.82 127.088C105.758 125.691 104.298 121.936 107.961 122.388C112.688 122.97 111.488 131.639 102.881 132.279C92.9983 133.015 71.7543 120.773 60.5598 117.604C49.3659 114.435 25.4008 113.879 17.5217 108.116C10.6599 103.096 14.5676 95.1946 18.867 97.1668Z" fill="#258E5A"/>
</g>
<path d="M100.751 129.504C99.5611 129.504 98.2749 129.365 96.9238 129.085C92.4899 128.164 86.3432 125.492 79.8347 122.662C73.7808 120.029 67.5207 117.308 62.2325 115.812C61.4262 115.583 60.9579 114.745 61.1862 113.94C61.4146 113.134 62.2552 112.667 63.0578 112.893C68.5427 114.445 74.8982 117.208 81.0444 119.881C87.4053 122.646 93.4127 125.258 97.5413 126.115C100.627 126.757 103.329 126.519 104.592 125.495C105.08 125.099 105.308 124.619 105.31 123.983C105.312 123.146 105.99 122.47 106.826 122.47H106.83C107.668 122.472 108.345 123.153 108.343 123.99C108.339 125.542 107.703 126.877 106.504 127.85C105.158 128.94 103.152 129.504 100.751 129.504Z" fill="#1B6D42"/>
<path d="M61.9831 115.682C61.8466 115.682 61.7073 115.663 61.5697 115.624C56.2799 114.128 49.4798 113.154 42.9038 112.213C35.8374 111.202 29.1618 110.246 24.9177 108.712C21.0265 107.306 18.3402 105.11 17.5481 102.688C17.0656 101.214 17.2802 99.735 18.1683 98.4129C18.6355 97.7179 19.5773 97.5333 20.2724 98C20.9674 98.4672 21.1525 99.4091 20.6853 100.104C20.3219 100.645 20.2412 101.166 20.4306 101.745C20.8108 102.907 22.4598 104.599 25.9482 105.86C29.9001 107.288 36.4249 108.222 43.3331 109.211C50.0077 110.166 56.9096 111.154 62.3939 112.706C63.2002 112.934 63.6685 113.772 63.4402 114.578C63.2519 115.246 62.6439 115.682 61.9831 115.682Z" fill="#1B6D42"/>
<path d="M80.8494 53.3836C82.76 53.7939 84.6415 52.5778 85.0518 50.6667L92.9203 14.0163C93.3306 12.1058 92.1145 10.2242 90.2034 9.81392C88.2929 9.40364 86.4113 10.6197 86.0016 12.5308L78.1331 49.1812C77.7228 51.0923 78.9389 52.9733 80.8494 53.3836Z" fill="#FBCA47"/>
<path d="M81.6019 54.7278C81.2639 54.7278 80.9227 54.692 80.5847 54.6192C79.3301 54.3497 78.2564 53.6083 77.5598 52.5314C76.8632 51.4546 76.6285 50.1705 76.8975 48.916L84.766 12.2661C85.0349 11.0121 85.7769 9.93788 86.8542 9.24126C87.9306 8.54517 89.2152 8.3105 90.4692 8.57892C91.7237 8.84839 92.7974 9.58984 93.494 10.6672C94.1907 11.744 94.4253 13.0281 94.1564 14.2821L86.2879 50.9325C86.0189 52.1866 85.277 53.2608 84.1996 53.9568C83.4128 54.4652 82.5169 54.7278 81.6019 54.7278ZM89.4604 10.9994C88.411 10.9994 87.4654 11.7309 87.2366 12.7971L79.3681 49.447C79.1049 50.6731 79.8886 51.8849 81.1146 52.1481C81.7079 52.2757 82.317 52.1644 82.8269 51.8343C83.3374 51.5042 83.6886 50.9958 83.8162 50.4015L91.6847 13.7511C91.8118 13.1568 91.7011 12.5488 91.3709 12.0388C91.0414 11.5289 90.5325 11.1777 89.9387 11.0501C89.7778 11.0158 89.6175 10.9994 89.4604 10.9994Z" fill="#CC9211"/>
</svg>
