<svg width="155" height="232" viewBox="0 0 155 232" fill="none" xmlns="http://www.w3.org/2000/svg">
<path d="M103.697 179.998C107.939 178.89 112.613 179.543 116.388 181.772C120.164 184.001 122.37 187.297 123.449 191.547C124.327 195.006 124.739 199.277 126.436 202.416C128.582 206.384 133.728 208.347 138.048 207.051C142.368 205.754 145.536 201.474 145.77 196.97C145.906 194.34 145.032 191.538 142.97 189.9C140.908 188.262 137.572 188.186 135.798 190.132C134.024 192.078 135.667 194.504 137.352 196.527C138.284 197.647 139.357 199.333 135.802 199.701C132.246 200.069 126.759 194.796 129.717 188.651C132.675 182.505 143.562 179.033 149.902 188.36C157.32 199.272 150.699 213.433 138.79 215.564C126.785 217.711 119.878 210.782 117.487 200.697C115.096 190.613 111.617 187.379 103.571 187.762L103.697 179.998Z" fill="#258E5A"/>
<g opacity="0.6">
<path d="M116.876 182.627C116.876 182.627 113.825 185.679 114.764 186.618C115.703 187.557 119.224 192.956 120.867 199.763C122.51 206.57 128.143 213.377 138.002 212.204C147.861 211.03 152.321 200.232 152.79 196.711C152.79 196.711 153.663 214.934 138.79 215.564C123.918 216.194 119.693 210.795 116.876 199.763C114.059 188.73 107.252 187.322 107.252 187.322L111.947 179.576L116.876 182.627Z" fill="#1B6D42"/>
</g>
<path d="M135.048 218.016C125.456 218.017 117.975 211.695 115.449 201.04C113.144 191.32 110.725 188.89 103.641 189.228L103.501 186.297C113.086 185.839 116.007 190.676 118.303 200.363C120.286 208.725 126.68 216.897 138.682 214.749C143.783 213.837 148.105 210.258 150.243 205.177C152.474 199.876 151.892 193.898 148.688 189.184C146.277 185.638 142.901 183.837 139.184 184.114C135.676 184.375 132.403 186.454 131.039 189.287C129.842 191.773 130.062 194.586 131.628 196.813C132.61 198.21 134.007 199.11 135.034 199.007C135.94 198.913 136.434 198.653 136.522 198.436C136.611 198.217 136.472 197.764 136.224 197.466C135.036 196.04 131.881 192.251 134.713 189.144C136.913 186.731 141.111 186.551 143.882 188.751C146.157 190.558 147.41 193.659 147.235 197.045C146.966 202.213 143.28 207.011 138.47 208.455C133.436 209.966 127.583 207.62 125.146 203.113C123.885 200.783 123.408 198.112 122.947 195.529C122.734 194.337 122.533 193.21 122.261 192.142C121.246 188.14 118.957 184.991 115.642 183.034C112.179 180.989 107.96 180.4 104.068 181.417L103.326 178.578C107.969 177.365 113.002 178.068 117.135 180.508C121.138 182.871 123.894 186.645 125.106 191.42C125.403 192.591 125.623 193.822 125.836 195.013C126.257 197.368 126.692 199.802 127.727 201.718C129.498 204.991 133.94 206.753 137.627 205.645C141.291 204.545 144.099 200.865 144.306 196.893C144.431 194.488 143.57 192.249 142.058 191.049C140.508 189.817 138.041 189.85 136.883 191.12C136.307 191.752 136.101 192.731 138.48 195.588C139.215 196.47 139.855 198.035 139.241 199.542C138.858 200.485 137.869 201.664 135.338 201.925C133.21 202.146 130.869 200.833 129.229 198.5C127.044 195.392 126.732 191.472 128.397 188.014C130.201 184.267 134.448 181.524 138.968 181.188C143.782 180.829 148.091 183.085 151.117 187.535C154.882 193.074 155.567 200.095 152.95 206.315C150.424 212.316 145.284 216.549 139.201 217.637C137.78 217.892 136.393 218.016 135.048 218.016Z" fill="#1B6D42"/>
<path d="M93.1907 195.44C93.1907 195.44 92.5557 203.27 94.4607 204.963C97.5897 207.744 115.623 213.217 118.163 217.449C120.702 221.682 119.009 225.914 116.47 226.761C113.93 227.607 112.237 226.337 112.237 226.337C112.237 226.337 111.391 229.935 107.158 229.723C102.926 229.512 88.7467 217.661 87.0537 211.947C85.5397 206.838 87.0537 196.921 87.0537 196.921L93.1907 195.44Z" fill="#48BD86"/>
<g opacity="0.6">
<path d="M92.6094 202.755C92.6094 202.755 88.2079 204.868 90.1449 209.973C92.0814 215.079 103.633 224.89 106.165 225.29C109.51 225.818 110.39 221.593 110.39 221.593C110.39 221.593 113.869 223.2 115.848 222.121C117.784 221.064 117.608 217.896 117.608 217.896C117.608 217.896 120.601 223.881 117.784 225.994C114.967 228.106 111.975 225.642 111.975 225.642C111.975 225.642 112.503 229.515 108.102 229.515C103.701 229.515 94.1939 221.945 92.0814 219.832C89.9689 217.72 85.9199 211.558 85.9199 208.565C85.9199 208.272 86.0959 207.802 86.0959 207.509V196.893C86.3894 196.893 87.2109 196.418 87.5044 196.418H92.6584C92.8554 198.347 92.7084 200.818 92.6094 202.755Z" fill="#258E5A"/>
</g>
<path d="M107.511 231.2C107.372 231.2 107.229 231.197 107.084 231.189C102.274 230.949 87.5389 218.748 85.6469 212.364C84.0584 207.003 85.5394 197.119 85.6029 196.701L88.5034 197.143C88.4884 197.239 87.0579 206.798 88.4594 211.531C90.0689 216.96 103.919 228.093 107.23 228.259C110.209 228.401 110.786 226.1 110.809 226.002C110.922 225.52 111.271 225.128 111.736 224.959C112.201 224.79 112.72 224.867 113.117 225.164C113.144 225.182 114.276 225.946 116.005 225.369C116.686 225.142 117.299 224.447 117.646 223.509C118.238 221.91 117.968 219.976 116.905 218.204C115.639 216.095 108.331 213.007 102.994 210.752C97.9964 208.64 94.8624 207.284 93.4854 206.06C91.2109 204.038 91.5649 197.33 91.7279 195.322L94.6524 195.558C94.3529 199.277 94.7259 203.237 95.4349 203.867C96.5199 204.831 100.392 206.467 104.136 208.049C112.056 211.396 117.788 213.974 119.42 216.695C120.944 219.234 121.3 222.089 120.398 224.527C119.735 226.318 118.472 227.64 116.933 228.153C115.402 228.664 114.026 228.569 112.981 228.273C112.095 229.709 110.376 231.2 107.511 231.2Z" fill="#1B6D42"/>
<path d="M112.088 227.978C112.071 227.978 112.053 227.978 112.036 227.977C111.226 227.949 110.593 227.27 110.621 226.46C110.684 224.65 109.722 222.503 108.229 221.119C107.634 220.568 107.599 219.64 108.15 219.045C108.7 218.451 109.628 218.415 110.223 218.966C112.338 220.927 113.645 223.908 113.553 226.562C113.525 227.354 112.874 227.978 112.088 227.978Z" fill="#1B6D42"/>
<path d="M66.2966 195.44C66.2966 195.44 66.9316 203.27 65.0271 204.963C61.8981 207.744 43.8646 213.217 41.3251 217.449C38.7856 221.682 40.4786 225.914 43.0181 226.761C45.5576 227.607 47.2506 226.337 47.2506 226.337C47.2506 226.337 48.0971 229.935 52.3296 229.723C56.5621 229.512 70.7411 217.661 72.4341 211.947C73.9481 206.838 72.4341 196.921 72.4341 196.921L66.2966 195.44Z" fill="#48BD86"/>
<g opacity="0.6">
<path d="M66.8786 202.755C66.8786 202.755 71.2796 204.868 69.3431 209.973C67.4066 215.079 55.8546 224.89 53.3226 225.29C49.9776 225.818 49.0976 221.593 49.0976 221.593C49.0976 221.593 45.6191 223.2 43.6401 222.121C41.7036 221.064 41.8796 217.896 41.8796 217.896C41.8796 217.896 38.8865 223.881 41.7035 225.994C44.5205 228.106 47.5131 225.642 47.5131 225.642C47.5131 225.642 46.9851 229.515 51.3861 229.515C55.7871 229.515 65.2941 221.945 67.4066 219.832C69.5191 217.72 73.5681 211.558 73.5681 208.565C73.5681 208.272 73.392 207.802 73.392 207.509V196.893C73.0985 196.893 72.2771 196.418 71.9835 196.418H66.8301C66.6321 198.347 66.7796 200.818 66.8786 202.755Z" fill="#258E5A"/>
</g>
<path d="M107.066 126.967L79.9412 127.334L52.8162 126.967C52.8162 126.967 23.6577 195.951 79.9412 196.724C136.225 195.951 107.066 126.967 107.066 126.967Z" fill="#48BD86"/>
<g opacity="0.6">
<path d="M46.9099 154.885C46.9099 154.885 50.5414 171.307 57.4084 177.029C66.3449 184.476 87.5609 182.606 96.9824 179.357C110.597 174.662 114.124 155.02 114.124 155.02C114.124 155.02 115.174 166.81 112.642 175.971C110.247 184.636 101.377 191.17 101.377 191.17C101.377 191.17 91.7934 195.958 80.7469 195.958C69.7004 195.958 62.2434 193.879 57.4209 190.359C51.8224 186.272 45.2049 177.327 44.7099 167.083C44.4014 160.687 46.9099 154.885 46.9099 154.885Z" fill="#258E5A"/>
</g>
<path d="M79.9616 198.19C65.4941 197.992 55.2191 193.359 49.3806 184.421C35.9111 163.797 50.8231 127.913 51.4646 126.395C51.6971 125.846 52.2241 125.49 52.8361 125.5L79.9611 125.868L107.046 125.5C107.649 125.489 108.185 125.846 108.417 126.395C109.059 127.913 123.972 163.797 110.501 184.421C104.664 193.36 94.3886 197.992 79.9616 198.19ZM53.8041 128.447C51.5841 134.151 40.3526 165.239 51.8401 182.821C57.1121 190.889 66.5736 195.073 79.9616 195.257C93.3116 195.073 102.774 190.887 108.045 182.817C119.537 165.222 108.301 134.151 106.079 128.447L79.9616 128.801L53.8041 128.447Z" fill="#1B6D42"/>
<path d="M51.4944 136.524C51.4944 136.524 34.0814 145.752 30.9644 145.187C27.8469 144.622 23.3514 128.981 17.9264 129.833C11.5264 130.838 16.1344 156.293 25.2534 160.612C33.2289 164.39 54.1509 150.381 54.1509 150.381L51.4944 136.524Z" fill="#48BD86"/>
<g opacity="0.6">
<path d="M16.3348 131.779C16.3348 131.779 19.7128 148.355 26.9953 154.068C33.8708 159.461 46.4128 155.879 46.4128 155.879C46.4128 155.879 32.5103 164.642 25.2528 160.612C17.9948 156.583 14.1373 137.664 16.3348 131.779Z" fill="#258E5A"/>
</g>
<path d="M109.017 149.172C109.017 149.172 121.676 156.895 122.372 159.986C123.069 163.076 110.423 173.321 113.325 177.983C116.749 183.483 139.478 169.29 138.803 159.223C138.003 147.3 106.666 133.744 106.666 133.744L109.017 149.172Z" fill="#48BD86"/>
<g opacity="0.6">
<path d="M117.444 169.369C117.444 169.369 117.06 173.588 122.429 172.054C127.798 170.52 136.235 163.425 137.96 160.166C137.96 160.166 138.344 166.302 131.824 171.67C125.305 177.039 117.444 180.682 114.951 178.573C112.459 176.464 117.444 169.369 117.444 169.369Z" fill="#258E5A"/>
</g>
<path d="M116.192 180.662C113.751 180.662 112.604 179.602 112.079 178.758C109.817 175.124 113.827 170.051 117.365 165.575C118.77 163.798 120.886 161.121 120.931 160.272C120.482 158.503 115.952 154.624 112.852 152.417C112.193 151.947 112.038 151.031 112.508 150.371C112.978 149.711 113.894 149.557 114.554 150.027C115.961 151.028 123.022 156.2 123.802 159.663C124.22 161.518 122.588 163.699 119.667 167.395C117.171 170.553 113.398 175.326 114.569 177.208C115.007 177.91 117.061 178.056 120.535 176.719C128.039 173.829 138.409 165.319 137.357 159.483C134.975 146.259 108.548 136.629 108.281 136.533C107.519 136.259 107.122 135.419 107.396 134.657C107.67 133.894 108.51 133.497 109.273 133.772C110.427 134.186 137.565 144.088 140.245 158.963C141.634 166.675 130.316 176.097 121.589 179.457C119.312 180.334 117.551 180.662 116.192 180.662Z" fill="#1B6D42"/>
<g opacity="0.6">
<path d="M48.1851 135.606C48.1851 135.606 59.3241 150.468 80.4366 150.468C102.633 150.468 112.459 135.715 112.459 135.715L48.1851 135.606Z" fill="#1B6D42"/>
</g>
<path d="M145.052 59.4275C138.82 41.6235 103.178 37.3085 103.178 37.3085C103.178 37.3085 91.0871 12.802 81.7281 10.336L81.7286 10.1335C81.4876 10.1335 81.2431 10.1555 80.9971 10.1895C80.7511 10.1555 80.5066 10.1335 80.2656 10.1335L80.2661 10.336C70.9066 12.802 58.8161 37.3085 58.8161 37.3085C58.8161 37.3085 23.1741 41.6235 16.9426 59.4275C10.7111 77.232 19.8996 92.5205 19.8996 92.5205C19.8996 92.5205 18.6486 113.34 29.1641 121.955C39.5301 130.447 61.3656 142.289 80.5811 142.624V142.64C80.7191 142.64 80.8586 142.633 80.9971 142.632C81.1356 142.633 81.2751 142.64 81.4131 142.64V142.624C100.629 142.288 122.464 130.447 132.83 121.955C143.346 113.34 142.095 92.5205 142.095 92.5205C142.095 92.5205 151.283 77.232 145.052 59.4275Z" fill="#48BD86"/>
<g opacity="0.6">
<path d="M71.3023 72.1617C70.4918 72.1617 69.8353 71.5047 69.8353 70.6947C69.8353 47.9707 57.9758 40.3417 57.8563 40.2672C57.1698 39.8412 56.9548 38.9382 57.3783 38.2502C57.8018 37.5617 58.6993 37.3447 59.3893 37.7652C59.9358 38.0987 72.7698 46.2097 72.7698 70.6942C72.7693 71.5052 72.1123 72.1617 71.3023 72.1617Z" fill="#258E5A"/>
</g>
<g opacity="0.6">
<path d="M90.529 72.1617C89.7185 72.1617 89.062 71.5047 89.062 70.6947C89.062 46.2102 101.896 38.0992 102.443 37.7657C103.135 37.3437 104.037 37.5622 104.46 38.2542C104.88 38.9447 104.664 39.8452 103.976 40.2682C103.828 40.3607 91.9965 47.9987 91.9965 70.6952C91.996 71.5052 91.3395 72.1617 90.529 72.1617Z" fill="#258E5A"/>
</g>
<g opacity="0.6">
<path d="M80.493 127.735C55.2 127.735 31.2935 120.728 22.417 113.142C23.761 116.887 25.7795 120.397 28.8005 122.872C39.316 131.487 61.08 143.235 80.4935 143.235C99.9065 143.235 121.671 131.487 132.186 122.872C134.808 120.723 136.675 117.796 138.002 114.611C127.064 121.432 104.454 127.735 80.493 127.735Z" fill="#258E5A"/>
</g>
<g opacity="0.6">
<path d="M71.5176 17.5281L77.5741 42.5271L76.7991 12.2466L71.5176 17.5281Z" fill="#258E5A"/>
</g>
<g opacity="0.6">
<path d="M89.721 17.5281L83.665 42.5271L84.4395 12.2466L89.721 17.5281Z" fill="#258E5A"/>
</g>
<path d="M80.997 11.3131C80.946 11.3131 80.895 11.3106 80.844 11.3051C80.724 11.2926 80.605 11.2836 80.4875 11.2836C79.677 11.2836 79.0205 10.6266 79.0205 9.81661C79.0205 9.00661 79.677 8.34961 80.4875 8.34961H81.5065C82.317 8.34961 82.9735 9.00661 82.9735 9.81661C82.9735 10.6266 82.317 11.2836 81.5065 11.2836C81.3885 11.2836 81.2695 11.2926 81.15 11.3051C81.099 11.3106 81.048 11.3131 80.997 11.3131Z" fill="#1B6D42"/>
<path d="M80.9966 144.702C60.5511 144.702 38.0241 132.326 27.8706 124.007C17.6286 115.616 18.1096 94.1122 18.2691 90.4672C16.6461 87.9127 9.30164 74.8867 16.2921 58.0857C19.9426 49.3117 28.0926 42.9682 39.8621 39.7417C47.5381 37.6367 54.5201 37.4322 57.2396 37.5017C60.3426 31.1542 71.6386 9.35766 80.8426 8.38716C80.9446 8.37616 81.0481 8.37616 81.1501 8.38716C90.3541 9.35766 101.651 31.1542 104.753 37.5017C107.474 37.4317 114.454 37.6362 122.131 39.7417C133.9 42.9687 142.05 49.3122 145.701 58.0857C152.691 74.8867 145.347 87.9127 143.724 90.4672C143.883 94.1122 144.364 115.616 134.122 124.007C123.969 132.326 101.442 144.702 80.9966 144.702ZM56.5701 40.4457C50.5101 40.4457 26.3156 41.6312 19.0006 59.2127C11.9691 76.1137 20.8681 89.0877 20.9586 89.2167C21.1496 89.4887 21.2426 89.8177 21.2226 90.1492C21.2086 90.3837 19.9196 113.7 29.7301 121.737C39.1826 129.481 61.4591 141.768 80.9966 141.768C100.534 141.768 122.811 129.481 132.263 121.737C142.085 113.69 140.785 90.3842 140.771 90.1497C140.75 89.8177 140.843 89.4887 141.035 89.2167C141.124 89.0892 149.999 76.0512 142.993 59.2127C134.648 39.1562 104.333 40.4377 104.04 40.4742C103.413 40.5537 102.807 40.2207 102.534 39.6517C97.2981 28.7097 87.2866 12.2377 80.9966 11.3247C74.7066 12.2377 64.6951 28.7097 59.4591 39.6517C59.1871 40.2212 58.5841 40.5537 57.9536 40.4742C57.9171 40.4697 57.4236 40.4457 56.5701 40.4457Z" fill="#1B6D42"/>
<path d="M87.7215 95.139C89.1255 95.841 93.3365 91.6295 91.699 90.2255C90.061 88.822 85.6285 94.0925 87.7215 95.139Z" fill="#258E5A"/>
<path d="M74.2727 95.139C72.8687 95.841 68.6577 91.6295 70.2952 90.2255C71.9332 88.822 76.3652 94.0925 74.2727 95.139Z" fill="#258E5A"/>
<g opacity="0.6">
<path d="M94.6201 85.0317C94.4956 85.0317 94.3696 85.0157 94.2431 84.9822C94.1831 84.9662 88.1321 83.3847 80.9971 83.3847C73.8621 83.3847 67.8111 84.9662 67.7511 84.9822C66.9721 85.1902 66.1651 84.7237 65.9571 83.9407C65.7496 83.1577 66.2151 82.3547 66.9981 82.1467C67.2586 82.0777 73.4621 80.4507 80.9976 80.4507C88.5331 80.4507 94.7366 82.0772 94.9971 82.1467C95.7801 82.3547 96.2461 83.1582 96.0381 83.9407C95.8626 84.5977 95.2691 85.0317 94.6201 85.0317Z" fill="#258E5A"/>
</g>
<path d="M63.3605 71.2406C63.3605 85.6641 52.532 96.8676 37.364 96.8676C22.1965 96.8676 10.9565 84.7896 10.9565 70.3661C10.9565 55.9426 21.8445 45.6956 37.012 45.6956C52.18 45.6956 63.3605 56.8171 63.3605 71.2406Z" fill="#258E5A"/>
<path d="M37.3695 98.3345C21.509 98.3345 9.08496 85.809 9.08496 69.819C9.08496 63.1895 11.208 57.204 15.2245 52.51C19.1885 47.8775 24.7115 44.8215 31.1965 43.6725C31.992 43.5325 32.7555 44.0635 32.897 44.861C33.0385 45.659 32.5065 46.42 31.7085 46.5615C19.7475 48.6805 12.019 57.81 12.019 69.8185C12.019 84.163 23.1545 95.3995 37.3695 95.3995C43.1035 95.3995 48.795 93.8045 52.9845 91.023C53.661 90.5745 54.5705 90.7595 55.018 91.434C55.4665 92.109 55.2825 93.0195 54.6075 93.4675C49.9495 96.561 43.666 98.3345 37.3695 98.3345Z" fill="#1B6D42"/>
<path d="M48.4048 89.897C58.8679 84.4769 62.956 71.6012 57.536 61.1381C52.1159 50.675 39.2401 46.5869 28.7771 52.0069C18.314 57.427 14.2259 70.3028 19.6459 80.7658C25.066 91.2289 37.9418 95.3171 48.4048 89.897Z" fill="white"/>
<path d="M36.0726 77.3261C42.5615 76.5084 47.159 70.5853 46.3413 64.0964C45.5236 57.6074 39.6005 53.0099 33.1116 53.8276C26.6226 54.6453 22.0251 60.5684 22.8428 67.0574C23.6605 73.5463 29.5836 78.1438 36.0726 77.3261Z" fill="#CC9211"/>
<path d="M41.7647 65.8716C41.928 61.8931 38.8354 58.5355 34.8571 58.3722C30.8788 58.2089 27.5214 61.3018 27.3582 65.2803C27.1949 69.2589 30.2875 72.6165 34.2658 72.7798C38.2441 72.943 41.6015 69.8501 41.7647 65.8716Z" fill="#233338"/>
<path d="M39.8778 63.8525C41.5308 63.8525 42.8708 62.5913 42.8708 61.0355C42.8708 59.4797 41.5308 58.2185 39.8778 58.2185C38.2248 58.2185 36.8848 59.4797 36.8848 61.0355C36.8848 62.5913 38.2248 63.8525 39.8778 63.8525Z" fill="white"/>
<path d="M98.7524 71.2406C98.7524 85.6641 109.581 96.8676 124.749 96.8676C139.916 96.8676 151.156 84.7896 151.156 70.3661C151.156 55.9426 140.268 45.6956 125.101 45.6956C109.933 45.6956 98.7524 56.8171 98.7524 71.2406Z" fill="#258E5A"/>
<path d="M124.744 98.3347C118.447 98.3347 112.163 96.5612 107.506 93.4687C106.83 93.0207 106.647 92.1102 107.095 91.4352C107.543 90.7597 108.453 90.5762 109.129 91.0242C113.318 93.8057 119.01 95.4007 124.744 95.4007C138.959 95.4007 150.094 84.1642 150.094 69.8197C150.094 57.8107 142.366 48.6817 130.405 46.5627C129.607 46.4212 129.075 45.6597 129.216 44.8622C129.358 44.0642 130.12 43.5322 130.917 43.6737C137.402 44.8227 142.925 47.8787 146.889 52.5112C150.906 57.2052 153.028 63.1902 153.028 69.8202C153.028 85.8092 140.604 98.3347 124.744 98.3347Z" fill="#1B6D42"/>
<path d="M129.147 91.6298C140.541 88.6016 147.323 76.9102 144.295 65.5163C141.267 54.1224 129.575 47.3407 118.181 50.3688C106.787 53.397 100.006 65.0884 103.034 76.4823C106.062 87.8762 117.753 94.6579 129.147 91.6298Z" fill="white"/>
<path d="M129.167 70.1321C131.672 64.0879 128.803 57.1573 122.759 54.652C116.715 52.1467 109.784 55.0154 107.279 61.0596C104.774 67.1037 107.642 74.0344 113.687 76.5397C119.731 79.045 126.661 76.1762 129.167 70.1321Z" fill="#CC9211"/>
<path d="M119.285 72.7331C123.216 72.0959 125.886 68.3928 125.249 64.4621C124.611 60.5313 120.908 57.8614 116.978 58.4986C113.047 59.1358 110.377 62.8388 111.014 66.7696C111.651 70.7004 115.354 73.3703 119.285 72.7331Z" fill="#233338"/>
<path d="M115.879 61.0355C115.879 59.48 114.539 58.2185 112.886 58.2185C111.233 58.2185 109.893 59.4795 109.893 61.0355C109.893 62.591 111.233 63.8525 112.886 63.8525C114.539 63.8525 115.879 62.591 115.879 61.0355Z" fill="white"/>
<path d="M37.9754 35.3776C39.9179 38.2501 52.5334 24.9836 49.4189 23.3406C46.3044 21.6981 35.3809 31.5411 37.9754 35.3776Z" fill="#258E5A"/>
<path d="M38.8159 37.2506C37.6204 37.2506 36.9964 36.5491 36.7599 36.1991C35.3359 34.0931 36.3159 30.8801 39.4489 27.3841C42.1304 24.3926 47.1824 20.5011 50.1029 22.0431C50.5484 22.2776 51.5619 23.0066 51.3494 24.6931C50.8919 28.3226 43.4614 36.2361 39.6579 37.1456C39.3504 37.2186 39.0699 37.2506 38.8159 37.2506ZM39.1899 34.5546C39.1904 34.5546 39.1904 34.5551 39.1909 34.5556C39.1909 34.5556 39.1904 34.5551 39.1899 34.5546ZM48.3804 24.6126C47.0784 24.7571 43.6014 26.8256 40.9519 30.1476C39.4124 32.0786 38.9159 33.5341 39.0749 34.2711C39.8394 34.0436 41.7574 32.9231 44.3934 30.1836C46.8999 27.5801 48.1024 25.5166 48.3804 24.6126Z" fill="#1B6D42"/>
<path d="M123.114 35.2016C121.258 38.1306 108.253 25.2461 111.317 23.5116C114.381 21.7771 125.593 31.2896 123.114 35.2016Z" fill="#258E5A"/>
<path d="M122.237 37.1001C122.008 37.1001 121.758 37.0751 121.485 37.0186C117.656 36.2236 109.993 28.5351 109.427 24.9206C109.165 23.2411 110.156 22.4831 110.594 22.2346C113.471 20.6066 118.633 24.3451 121.402 27.2556C124.639 30.6566 125.714 33.8386 124.353 35.9866C124.121 36.3526 123.493 37.1001 122.237 37.1001ZM121.875 34.4156C121.875 34.4161 121.875 34.4161 121.875 34.4166C121.875 34.4161 121.875 34.4156 121.875 34.4156ZM112.394 24.7551C112.7 25.6516 113.964 27.6771 116.544 30.2026C119.261 32.8616 121.211 33.9246 121.982 34.1291C122.119 33.3876 121.579 31.9471 119.982 30.0626C117.239 26.8261 113.708 24.8636 112.394 24.7551Z" fill="#1B6D42"/>
<g opacity="0.6">
<path d="M130.754 99.3906C126.798 100.073 129.521 103.968 128.993 105.905C128.993 105.905 127.112 108.349 125.12 109.074C123.184 109.778 118.606 110.13 107.867 108.546C98.1113 107.106 88.3923 106.274 82.7848 105.867V105.553C82.7848 105.553 81.9028 105.599 80.3618 105.7C78.8208 105.599 77.9388 105.553 77.9388 105.553V105.867C72.3313 106.274 62.6123 107.106 52.8563 108.546C42.1173 110.13 37.5398 109.778 35.6033 109.074C33.6108 108.349 31.7303 105.905 31.7303 105.905C31.2023 103.968 33.9258 100.073 29.9698 99.3906C24.8643 98.5101 23.3328 109.009 32.0823 112.594C42.1283 116.711 68.1573 109.453 80.8203 109.453C93.4833 109.453 118.595 116.711 128.641 112.594C137.391 109.009 135.859 98.5106 130.754 99.3906Z" fill="#258E5A"/>
</g>
<path d="M41.6954 111.042C40.9119 111.042 40.1694 111.018 39.4749 110.967C35.0594 110.641 31.6154 109.139 30.0259 106.846C29.0569 105.449 28.8019 103.832 29.2879 102.171C29.5154 101.394 30.3299 100.947 31.1079 101.176C31.8854 101.403 32.3314 102.218 32.1039 102.996C31.8689 103.799 31.9779 104.512 32.4374 105.175C33.5039 106.713 36.2154 107.785 39.6909 108.041C44.3059 108.383 51.4554 107.383 59.0219 106.326C66.3214 105.306 73.8694 104.252 80.1094 104.252C80.9199 104.252 81.5764 104.909 81.5764 105.719C81.5764 106.529 80.9199 107.186 80.1094 107.186C74.0734 107.186 66.6284 108.226 59.4284 109.232C52.7914 110.159 46.4709 111.042 41.6954 111.042Z" fill="#1B6D42"/>
<path d="M119.278 111.042C114.503 111.042 108.183 110.159 101.546 109.232C94.3455 108.226 86.9005 107.185 80.864 107.185C80.0535 107.185 79.397 106.528 79.397 105.718C79.397 104.908 80.0535 104.251 80.864 104.251C87.1045 104.251 94.652 105.306 101.952 106.326C109.519 107.383 116.667 108.381 121.283 108.041C124.758 107.784 127.47 106.713 128.536 105.174C128.996 104.511 129.105 103.799 128.87 102.995C128.642 102.218 129.088 101.403 129.865 101.175C130.644 100.946 131.458 101.394 131.685 102.171C132.171 103.831 131.916 105.448 130.947 106.846C129.358 109.139 125.914 110.641 121.498 110.966C120.804 111.018 120.061 111.042 119.278 111.042Z" fill="#1B6D42"/>
<path d="M80.9972 45.9499C79.1067 45.9499 77.5742 44.4174 77.5742 42.5269V6.2604C77.5742 4.3699 79.1067 2.8374 80.9972 2.8374C82.8877 2.8374 84.4202 4.3699 84.4202 6.2604V42.5264C84.4202 44.4174 82.8877 45.9499 80.9972 45.9499Z" fill="#FBCA47"/>
<path d="M80.9971 47.1725C78.4356 47.1725 76.3511 45.0885 76.3511 42.527V6.26049C76.3511 3.69899 78.4351 1.61499 80.9971 1.61499C83.5586 1.61499 85.6426 3.69899 85.6426 6.26049V42.527C85.6426 45.0885 83.5586 47.1725 80.9971 47.1725ZM80.9971 4.05999C79.7836 4.05999 78.7966 5.04699 78.7966 6.26049V42.527C78.7966 43.7405 79.7836 44.7275 80.9971 44.7275C82.2106 44.7275 83.1976 43.7405 83.1976 42.527V6.26049C83.1976 5.04699 82.2106 4.05999 80.9971 4.05999Z" fill="#CC9211"/>
<path d="M51.9758 231.2C49.1108 231.2 47.3923 229.709 46.5058 228.273C45.4613 228.569 44.0853 228.664 42.5538 228.154C41.0143 227.64 39.7508 226.319 39.0888 224.528C38.1868 222.089 38.5433 219.234 40.0668 216.695C41.6988 213.975 47.4308 211.396 55.3508 208.05C59.0948 206.468 62.9668 204.832 64.0518 203.867C64.7623 203.235 65.1353 199.276 64.8343 195.559L67.7588 195.322C67.9218 197.33 68.2758 204.039 66.0013 206.06C64.6243 207.284 61.4913 208.641 56.4923 210.753C51.1558 213.007 43.8483 216.095 42.5823 218.205C41.5193 219.977 41.2488 221.91 41.8403 223.51C42.1873 224.448 42.8008 225.143 43.4818 225.37C45.2113 225.946 46.3433 225.182 46.3908 225.149C46.7868 224.852 47.2953 224.783 47.7613 224.952C48.2263 225.121 48.5648 225.521 48.6783 226.002C48.7798 226.39 49.4518 228.398 52.2558 228.259C55.5678 228.093 69.4183 216.961 71.0273 211.531C72.4293 206.797 70.9983 197.239 70.9833 197.143L73.8838 196.701C73.9473 197.119 75.4288 207.003 73.8398 212.364C71.9488 218.747 57.2128 230.949 52.4018 231.189C52.2578 231.197 52.1153 231.2 51.9758 231.2Z" fill="#1B6D42"/>
<path d="M47.3993 227.978C46.6128 227.978 45.9618 227.354 45.9343 226.562C45.8418 223.908 47.1488 220.927 49.2643 218.966C49.8583 218.415 50.7873 218.451 51.3373 219.045C51.8878 219.639 51.8533 220.567 51.2583 221.118C49.7643 222.503 48.8033 224.65 48.8663 226.46C48.8943 227.269 48.2613 227.949 47.4513 227.977C47.4343 227.977 47.4168 227.978 47.3993 227.978Z" fill="#1B6D42"/>
<path d="M111.241 143.251C110.579 143.251 109.978 142.799 109.816 142.126C109.664 141.495 109.411 140.616 109.166 139.766C108.925 138.93 108.697 138.14 108.541 137.509C108.347 136.722 108.827 135.927 109.613 135.732C110.399 135.539 111.195 136.018 111.389 136.805C111.532 137.381 111.762 138.18 111.985 138.952C112.239 139.834 112.502 140.745 112.669 141.442C112.858 142.229 112.373 143.022 111.585 143.21C111.47 143.238 111.355 143.251 111.241 143.251Z" fill="#1B6D42"/>
<path d="M30.091 163.035C28.1415 163.035 26.273 162.719 24.6255 161.938C17.0175 158.335 12.487 142.204 13.673 133.983C14.279 129.782 16.197 128.619 17.6995 128.383C21.9245 127.718 25.0325 133.392 27.773 138.396C28.858 140.378 30.4915 143.362 31.2585 143.747C33.0465 143.908 41.9625 139.419 49.259 135.132C49.7785 134.826 50.434 134.87 50.909 135.244C51.3834 135.617 51.581 136.243 51.4065 136.821L49.4385 143.333C49.2035 144.109 48.3875 144.547 47.6095 144.313C46.834 144.079 46.3955 143.26 46.6295 142.485L47.527 139.516C41.8615 142.713 33.411 147.123 30.704 146.631C28.833 146.292 27.462 143.937 25.1995 139.805C23.267 136.274 20.3305 130.937 18.1555 131.282C17.433 131.395 16.8435 132.562 16.578 134.402C15.5375 141.612 19.6585 156.338 25.8825 159.286C31.8475 162.112 43.0975 156.864 46.929 154.603C47.628 154.191 48.527 154.423 48.938 155.121C49.3495 155.818 49.1175 156.718 48.42 157.13C47.9205 157.424 38.295 163.035 30.091 163.035Z" fill="#1B6D42"/>
<path d="M21.9163 34.7624H15.0293V38.5144C15.0293 40.0629 16.2848 41.3184 17.8333 41.3184H19.0078C20.5273 41.3184 21.7698 40.1084 21.8108 38.5894C21.8598 36.7409 21.9163 34.6529 21.9163 34.7624Z" fill="#675958"/>
<path d="M18.5202 11.9456H18.3467C9.58722 11.9456 7.12772 19.9921 10.2902 24.8851C12.5497 28.3811 14.1967 29.4751 15.0292 34.7626H18.1047H18.2782H18.5887H18.7622H21.8377C22.6707 29.4751 24.3172 28.3811 26.5767 24.8851C29.7392 19.9921 27.2792 11.9456 18.5202 11.9456Z" fill="#FFF0B0"/>
<path d="M21.8372 35.9852H15.0292C14.4277 35.9852 13.9152 35.5472 13.8217 34.9527C13.2212 31.1427 12.2297 29.7607 10.7282 27.6692C10.2877 27.0557 9.78874 26.3607 9.26424 25.5482C7.38624 22.6432 7.24374 18.7987 8.90024 15.7547C10.6407 12.5572 14.0842 10.7227 18.3472 10.7227H18.5207C22.7837 10.7227 26.2267 12.5567 27.9672 15.7542C29.6242 18.7987 29.4817 22.6427 27.6037 25.5482C27.0782 26.3607 26.5792 27.0562 26.1392 27.6697C24.6377 29.7612 23.6452 31.1427 23.0457 34.9527C22.9517 35.5472 22.4392 35.9852 21.8372 35.9852ZM16.0547 33.5402H20.8122C21.5287 29.8987 22.7007 28.2662 24.1527 26.2442C24.5972 25.6247 25.0572 24.9837 25.5502 24.2217C26.9492 22.0577 27.0547 19.1932 25.8197 16.9242C24.5012 14.5027 21.9087 13.1687 18.5207 13.1687H18.3472C14.9582 13.1687 12.3662 14.5027 11.0477 16.9247C9.81274 19.1937 9.91874 22.0582 11.3177 24.2217C11.8102 24.9837 12.2702 25.6247 12.7152 26.2442C14.1662 28.2662 15.3382 29.8982 16.0547 33.5402Z" fill="#CC9211"/>
<path d="M21.0671 35.6406C20.3916 35.6406 19.8446 35.0931 19.8446 34.4181V31.1551C19.6771 31.2126 19.4961 31.2341 19.3141 31.2131C18.8551 31.1616 18.4641 30.8561 18.3036 30.4231L18.2966 30.4026C18.1121 30.8016 17.7276 31.0721 17.2881 31.1086C17.1551 31.1191 17.0251 31.1091 16.8996 31.0791V34.4186C16.8996 35.0941 16.3521 35.6411 15.6771 35.6411C15.0016 35.6411 14.4546 35.0936 14.4546 34.4186V27.5186C14.4546 26.9751 14.8136 26.4966 15.3351 26.3446C15.8566 26.1921 16.4161 26.4031 16.7086 26.8621L16.9676 27.2691L17.2461 26.6106C17.4416 26.1491 17.9161 25.8491 18.4001 25.8646C18.9016 25.8761 19.3446 26.1921 19.5191 26.6621L19.7536 27.2956L20.0441 26.8501C20.3396 26.3971 20.8996 26.1931 21.4161 26.3461C21.9346 26.5006 22.2906 26.9771 22.2906 27.5181V34.4181C22.2896 35.0936 21.7421 35.6406 21.0671 35.6406Z" fill="#CC9211"/>
<path d="M19.0076 42.5405H17.8331C15.6131 42.5405 13.8066 40.7344 13.8066 38.5139V34.7624C13.8066 34.087 14.3541 33.54 15.0291 33.54H21.7621C21.8161 33.5365 21.8741 33.5349 21.9321 33.5359C22.6006 33.5449 23.1386 34.0939 23.1386 34.7624C23.1386 34.79 23.1376 34.8175 23.1356 34.8445C23.1261 35.1175 23.0766 36.967 23.0321 38.622C22.9741 40.819 21.2061 42.5405 19.0076 42.5405ZM16.2521 35.9849V38.5139C16.2521 39.3859 16.9611 40.095 17.8331 40.095H19.0076C19.8711 40.095 20.5656 39.4189 20.5881 38.5559L20.6581 35.9845L16.2521 35.9849Z" fill="#233338"/>
<path d="M6.73373 25.7374C6.69073 25.7374 6.64773 25.7354 6.60423 25.7309L1.57623 25.2019C0.90473 25.1314 0.417729 24.5294 0.488229 23.8579C0.558729 23.1864 1.16473 22.6999 1.83223 22.7699L6.86023 23.2989C7.53173 23.3694 8.01873 23.9714 7.94823 24.6429C7.88223 25.2709 7.35173 25.7374 6.73373 25.7374Z" fill="#CC9211"/>
<path d="M8.31903 13.3007C8.04803 13.3007 7.77553 13.2112 7.54903 13.0272L3.31503 9.58716C2.79053 9.16166 2.71153 8.39116 3.13703 7.86766C3.56303 7.34416 4.33353 7.26366 4.85653 7.68966L9.09053 11.1297C9.61503 11.5557 9.69403 12.3257 9.26853 12.8492C9.02753 13.1462 8.67503 13.3007 8.31903 13.3007Z" fill="#CC9211"/>
<path d="M30.8102 25.7377C30.1922 25.7377 29.6617 25.2712 29.5957 24.6432C29.5252 23.9717 30.0121 23.3702 30.6836 23.2992L35.7116 22.7702C36.3871 22.7012 36.9852 23.1867 37.0557 23.8582C37.1262 24.5297 36.6392 25.1312 35.9677 25.2022L30.9397 25.7312C30.8962 25.7357 30.8527 25.7377 30.8102 25.7377Z" fill="#CC9211"/>
<path d="M29.2255 13.3006C28.8695 13.3006 28.5175 13.1466 28.2755 12.8491C27.85 12.3251 27.9295 11.5551 28.4535 11.1291L32.687 7.68908C33.2105 7.26308 33.981 7.34308 34.4065 7.86708C34.832 8.39108 34.753 9.16108 34.2285 9.58708L29.995 13.0271C29.769 13.2111 29.4965 13.3006 29.2255 13.3006Z" fill="#CC9211"/>
<path d="M18.4339 9.33155C17.7584 9.33155 17.2114 8.78405 17.2114 8.10905V2.02255C17.2114 1.34705 17.7589 0.800049 18.4339 0.800049C19.1089 0.800049 19.6564 1.34755 19.6564 2.02255V8.10905C19.6564 8.78405 19.1094 9.33155 18.4339 9.33155Z" fill="#CC9211"/>
</svg>
