<svg width="225" height="232" viewBox="0 0 225 232" fill="none" xmlns="http://www.w3.org/2000/svg">
<path d="M146.631 194.397C146.631 194.397 171.866 192.691 191.946 185.329C212.026 177.966 224.417 165.101 222.715 145.059C221.092 125.935 202.397 120.146 192.307 124.6C182.904 128.751 177.864 142.045 184.576 150.206C192.11 159.366 206.969 154.827 206.784 145.508C206.617 137.064 196.663 135.702 193.781 138.17C190.899 140.639 192.261 144.781 195.078 145.335C197.894 145.889 198.242 143.561 196.609 142.93C194.976 142.299 194.784 140.434 197.472 140.474C200.16 140.513 203.775 143.089 202.115 147.165C200.454 151.242 191.573 151.083 188.205 146.786C184.837 142.489 187.726 131.647 197.103 130.017C206.48 128.387 213.201 134.026 214.87 142.902C216.539 151.777 212.114 162.126 200.407 169.967C188.7 177.809 173.67 177.807 164.923 178.543C155.288 179.355 147.008 178.889 144.039 173.782L146.631 194.397Z" fill="#258E5A"/>
<g opacity="0.6">
<path d="M154.828 179.371C154.145 183.306 157.793 188.988 157.595 192.157C166.744 192.984 180.657 189.468 191.946 185.329C212.026 177.967 224.417 165.101 222.716 145.059C221.787 134.125 215.278 127.552 207.987 124.759C209.546 126.086 211.292 127.825 213.145 130.104C219.872 138.378 223.395 152.996 212.153 168.023C200.911 183.05 177.459 185.502 173.279 184.404C169.536 183.42 171.09 180.972 171.407 179.688L154.828 179.371Z" fill="#1B6D42"/>
</g>
<path d="M153.187 194.438C149.549 194.438 147.225 194.306 146.918 194.287L147.128 190.797C147.382 190.81 172.738 192.236 192.232 185.088C211.347 178.079 223.489 160.699 221.103 143.761C219.784 134.398 214.834 129.773 210.913 127.541C205.484 124.45 198.445 123.929 192.982 126.212C188.306 128.167 184.762 132.253 183.501 137.141C182.386 141.468 183.254 145.722 185.947 149.119C189.722 153.881 195.249 154.166 198.833 152.964C201.771 151.979 204.943 149.492 205.036 145.466C205.13 141.423 202.808 139.615 201.416 138.897C199.147 137.726 196.284 137.786 194.611 139.036C193.649 139.755 193.22 140.941 193.465 142.209C193.695 143.397 194.46 144.329 195.414 144.583C195.672 144.653 195.777 144.621 195.778 144.62C195.783 144.604 195.792 144.541 195.791 144.482C194.295 143.824 193.444 142.453 193.709 141.086C193.936 139.921 195.051 138.696 197.498 138.725C199.701 138.757 201.963 140.024 203.125 141.878C204.242 143.659 204.315 145.806 203.329 147.923C202.027 150.719 199.311 152.507 196.065 152.705C192.373 152.927 188.785 151.017 186.722 147.711C184.74 144.534 184.668 139.538 186.547 135.564C188.476 131.485 192.144 128.899 196.878 128.283C206.169 127.072 213.624 132.324 215.859 141.664C217.926 150.299 214.992 162.496 203.782 170.285C192.16 178.359 172.179 181.503 157.53 181.018L157.643 177.524C171.257 177.962 190.881 174.99 201.787 167.413C211.643 160.566 214.249 149.956 212.459 142.478C211.034 136.524 206.313 130.582 197.33 131.75C192.829 132.337 190.701 134.96 189.709 137.058C188.166 140.322 188.547 144.029 189.689 145.86C191.343 148.51 193.956 149.326 195.852 149.215C197.798 149.096 199.408 148.062 200.16 146.447C200.642 145.413 200.644 144.5 200.164 143.736C199.823 143.192 199.294 142.788 198.739 142.535C199.296 143.406 199.461 144.557 199.098 145.672C198.592 147.228 196.942 148.608 194.516 147.963C192.241 147.357 190.523 145.407 190.033 142.872C189.536 140.296 190.488 137.753 192.519 136.235C195.251 134.193 199.57 134.01 203.021 135.79C206.624 137.649 208.634 141.205 208.533 145.548C208.421 150.429 205.13 154.541 199.946 156.279C193.81 158.337 187.24 156.378 183.207 151.291C179.819 147.015 178.721 141.68 180.116 136.268C181.648 130.326 185.954 125.36 191.634 122.986C198.059 120.301 206.306 120.895 212.643 124.502C217.245 127.121 223.049 132.504 224.566 143.272C227.181 161.831 214.088 180.798 193.436 188.37C179.075 193.637 162.148 194.438 153.187 194.438Z" fill="#1B6D42"/>
<path d="M140.666 202.034C140.666 202.034 146.827 224.259 149.419 226.312C152.011 228.366 163.674 227.692 179.89 221.303C196.106 214.913 203.504 206.814 201.389 202.415C199.274 198.017 194.973 199.296 194.973 199.296C194.973 199.296 196.573 195.581 192.303 194.826C189.116 194.262 185.825 199.606 175.142 203.729C164.923 207.673 155.189 209.292 153.819 208.428C152.449 207.564 149.33 198.91 149.33 198.91L140.666 202.034Z" fill="#48BD86"/>
<g opacity="0.6">
<path d="M152.99 209.185C152.99 209.185 150.107 216.806 154.083 219.062C158.058 221.318 176.989 215.817 185.132 212.091C193.275 208.365 197.947 203.782 198.803 200.311C198.803 200.311 204.197 202.846 200.094 208.278C195.992 213.709 182.122 220.554 171.842 223.47C161.562 226.385 151.203 228.333 149.418 226.313C147.632 224.292 140.299 203.22 140.299 203.22L149.328 198.911L152.99 209.185Z" fill="#258E5A"/>
</g>
<path d="M154.61 229.114C151.734 229.114 149.555 228.65 148.334 227.683C145.59 225.51 140.88 209.348 138.982 202.501C138.738 201.62 139.213 200.699 140.074 200.389L148.737 197.266C149.644 196.939 150.647 197.409 150.975 198.318C152.219 201.768 153.967 205.87 154.744 206.892C156.535 207.13 164.672 205.896 174.513 202.098C180.128 199.932 183.67 197.542 186.257 195.797C188.675 194.166 190.433 192.989 192.386 193.08C194.669 193.187 195.799 194.213 196.345 195.054C196.834 195.806 197.009 196.635 197.032 197.393C199.07 197.57 201.5 198.611 202.965 201.658C203.669 203.121 203.664 204.853 202.953 206.668C200.796 212.169 192.414 218.248 180.531 222.93C170.406 226.92 160.863 229.114 154.61 229.114ZM142.789 203.127C145.569 212.934 149.178 223.671 150.526 224.959C152.231 226.31 162.751 226.177 179.249 219.676C192.209 214.569 198.364 208.789 199.697 205.391C200.049 204.492 200.088 203.745 199.813 203.173C198.361 200.153 195.588 200.936 195.471 200.972C194.83 201.16 194.138 200.971 193.686 200.479C193.234 199.988 193.101 199.282 193.344 198.66C193.517 198.195 193.644 197.31 193.41 196.955C193.269 196.74 192.835 196.601 192.221 196.572C191.411 196.511 190.001 197.487 188.211 198.695C185.486 200.533 181.755 203.051 175.771 205.36C166.939 208.768 155.366 211.473 152.886 209.907C151.756 209.194 150.211 206.248 148.289 201.144L142.789 203.127Z" fill="#1B6D42"/>
<path d="M187.928 206.244C187.24 206.244 186.588 205.835 186.31 205.158C185.944 204.265 186.371 203.244 187.264 202.877C188.584 202.333 192.265 200.472 193.461 198.416C193.947 197.582 195.018 197.3 195.852 197.785C196.686 198.271 196.969 199.341 196.483 200.176C194.477 203.621 189.188 205.868 188.591 206.112C188.374 206.201 188.149 206.244 187.928 206.244Z" fill="#1B6D42"/>
<path d="M67.8997 201.31C67.8997 201.31 61.2987 223.409 58.6662 225.41C56.0337 227.412 44.3867 226.507 28.3012 219.796C12.2157 213.086 4.98017 204.841 7.18217 200.485C9.38417 196.13 13.6587 197.494 13.6587 197.494C13.6587 197.494 12.1332 193.748 16.4167 193.078C19.6147 192.578 22.7987 197.986 33.3977 202.32C43.5362 206.467 53.2362 208.279 54.6227 207.442C56.0092 206.605 59.3007 198.015 59.3007 198.015L67.8997 201.31Z" fill="#48BD86"/>
<g opacity="0.6">
<path d="M55.4357 208.215C55.4357 208.215 58.1667 215.892 54.1472 218.068C50.1277 220.245 31.3102 214.369 23.2427 210.481C15.1752 206.594 10.5952 201.919 9.80772 198.432C9.80772 198.432 4.36472 200.859 8.35872 206.371C12.3527 211.883 26.0837 219.003 36.3032 222.122C46.5232 225.241 56.8407 227.395 58.6662 225.41C60.4917 223.426 68.2427 202.503 68.2427 202.503L59.3012 198.015L55.4357 208.215Z" fill="#258E5A"/>
</g>
<path d="M53.9275 228.113C47.6895 228.113 37.9465 225.714 27.6275 221.409C15.84 216.492 7.58051 210.248 5.53401 204.706C4.85851 202.877 4.88901 201.145 5.62151 199.696C7.14701 196.679 9.597 195.686 11.6385 195.55C11.6765 194.792 11.8685 193.968 12.3715 193.225C12.934 192.395 14.0845 191.393 16.369 191.33C18.331 191.282 20.059 192.49 22.444 194.169C24.9955 195.965 28.4895 198.424 34.06 200.703C43.8235 204.695 51.934 206.094 53.7295 205.889C54.5265 204.882 56.356 200.816 57.6685 197.391C58.014 196.489 59.0255 196.038 59.9265 196.383L68.5255 199.678C69.3795 200.005 69.837 200.935 69.5755 201.811C67.5415 208.619 62.5105 224.684 59.7245 226.802C58.558 227.688 56.553 228.113 53.9275 228.113ZM12.0955 199.019C11.1135 199.019 9.69201 199.394 8.74151 201.274C8.45501 201.841 8.479 202.588 8.8135 203.494C10.078 206.918 16.1165 212.819 28.9735 218.182C45.3395 225.01 55.855 225.349 57.607 224.018C58.9605 222.773 62.781 212.11 65.7555 202.361L60.296 200.269C58.2725 205.335 56.6695 208.249 55.525 208.939C53.0115 210.458 41.497 207.522 32.735 203.938C26.799 201.51 23.118 198.919 20.43 197.027C18.6845 195.799 17.301 194.825 16.4905 194.825C16.4815 194.825 16.4725 194.825 16.4635 194.825C15.8465 194.842 15.4095 194.974 15.265 195.187C15.013 195.559 15.153 196.493 15.299 196.89C15.529 197.517 15.3825 198.22 14.921 198.703C14.459 199.185 13.7625 199.36 13.1265 199.159C12.9705 199.113 12.588 199.019 12.0955 199.019Z" fill="#1B6D42"/>
<path d="M20.5972 204.581C20.3652 204.581 20.1292 204.534 19.9027 204.436C19.3112 204.179 14.0672 201.828 12.1307 198.344C11.6617 197.5 11.9652 196.435 12.8092 195.966C13.6537 195.496 14.7177 195.801 15.1867 196.644C16.3427 198.724 19.9887 200.658 21.2957 201.229C22.1802 201.615 22.5857 202.644 22.2007 203.529C21.9147 204.187 21.2722 204.581 20.5972 204.581Z" fill="#1B6D42"/>
<path d="M146.107 142.111L104.43 142.489L62.7538 142.111C62.7538 142.111 17.9523 213.131 104.43 213.927C190.909 213.132 146.107 142.111 146.107 142.111Z" fill="#48BD86"/>
<g opacity="0.6">
<path d="M60.3155 169.061C60.3155 169.061 60.329 185.882 70.6885 191.923C86.374 201.071 111.854 199.86 126.33 196.515C147.249 191.681 142.56 169.932 142.56 169.932C142.56 169.932 153.455 183.155 153.061 192.406C152.666 201.658 137.366 208.209 137.366 208.209C137.366 208.209 122.641 213.139 105.668 213.139C88.695 213.139 77.2375 210.998 69.8285 207.374C61.226 203.167 46.0835 183.314 51.211 179.46C57.6805 174.596 60.3155 169.061 60.3155 169.061Z" fill="#258E5A"/>
</g>
<path d="M104.445 215.676C77.7889 215.43 60.5914 208.528 53.2984 195.159C41.3429 173.244 60.4544 142.477 61.2739 141.178C61.5969 140.666 62.1404 140.36 62.7684 140.363L104.445 140.741L146.09 140.363H146.106C146.706 140.363 147.264 140.67 147.584 141.178C148.404 142.477 167.515 173.244 155.56 195.159C148.267 208.528 131.069 215.431 104.445 215.676ZM63.7379 143.869C60.8274 148.851 46.4159 175.256 56.3719 193.492C63.0154 205.66 79.1894 211.947 104.445 212.179C129.674 211.947 145.85 205.657 152.49 193.485C162.45 175.227 148.033 148.846 145.121 143.869L104.445 144.238L63.7379 143.869Z" fill="#1B6D42"/>
<g opacity="0.6">
<path d="M57.2695 151.536C57.2695 151.536 73.5055 166.051 104.278 166.051C136.63 166.051 150.952 151.643 150.952 151.643L57.2695 151.536Z" fill="#1B6D42"/>
</g>
<path d="M50.1882 156.866C50.1882 156.866 40.1392 180.431 38.5162 192.676C37.0967 203.386 50.4017 231.102 58.0032 229.373C65.6047 227.644 61.1732 207.144 60.6082 201.291C60.0432 195.439 65.9022 174.2 65.9022 174.2L50.1882 156.866Z" fill="#48BD86"/>
<g opacity="0.6">
<path d="M41.8118 178.84C41.8118 178.84 37.7378 193.654 38.4788 198.098C39.2193 202.542 50.4923 232.131 58.0033 229.373C65.5143 226.615 61.4408 207.727 61.4408 207.727C61.4408 207.727 62.5518 214.023 55.5153 215.504C48.4788 216.986 42.5528 199.209 42.1828 193.654C41.8128 188.099 41.8118 178.84 41.8118 178.84Z" fill="#258E5A"/>
</g>
<path d="M57.2952 231.2C55.5437 231.2 53.6622 230.291 51.6847 228.488C43.8082 221.303 35.5907 201.43 36.7817 192.445C38.4172 180.106 48.1647 157.151 48.5787 156.18C48.9577 155.291 49.9852 154.879 50.8727 155.257C51.7607 155.636 52.1742 156.663 51.7952 157.551C51.6957 157.785 41.8207 181.038 40.2477 192.905C39.2097 200.736 47.0727 219.549 54.0407 225.905C55.4772 227.215 56.7792 227.859 57.6137 227.668C62.4382 226.57 60.2897 211.659 59.3722 205.292C59.1507 203.755 58.9597 202.427 58.8662 201.459C58.2732 195.311 62.3202 182.939 62.4927 182.416C62.7942 181.498 63.7827 181 64.7002 181.302C65.6172 181.604 66.1162 182.593 65.8142 183.509C65.7742 183.63 61.8247 195.705 62.3472 201.123C62.4327 202.009 62.6182 203.299 62.8337 204.793C64.1522 213.946 66.3592 229.265 58.3892 231.077C58.0312 231.159 57.6662 231.2 57.2952 231.2Z" fill="#1B6D42"/>
<path d="M153.627 156.866C153.627 156.866 163.676 180.431 165.299 192.676C166.719 203.386 153.414 231.102 145.812 229.373C138.211 227.644 142.642 207.144 143.207 201.291C143.772 195.439 137.913 174.2 137.913 174.2L153.627 156.866Z" fill="#48BD86"/>
<g opacity="0.6">
<path d="M162.003 178.84C162.003 178.84 166.077 193.654 165.336 198.098C164.596 202.542 153.323 232.131 145.812 229.373C138.301 226.615 142.374 207.727 142.374 207.727C142.374 207.727 141.263 214.023 148.3 215.504C155.336 216.986 161.262 199.209 161.632 193.654C162.003 188.098 162.003 178.84 162.003 178.84Z" fill="#258E5A"/>
</g>
<path d="M146.52 231.2C146.149 231.2 145.784 231.159 145.425 231.078C137.455 229.264 139.662 213.946 140.981 204.793C141.196 203.299 141.382 202.009 141.467 201.123C141.902 196.622 139.112 186.882 138.001 183.509C137.698 182.592 138.197 181.604 139.114 181.302C140.031 181 141.02 181.498 141.322 182.416C141.494 182.939 145.541 195.311 144.948 201.459C144.855 202.427 144.663 203.755 144.442 205.292C143.525 211.66 141.377 226.571 146.201 227.669C147.033 227.857 148.337 227.215 149.774 225.905C156.741 219.55 164.605 200.737 163.567 192.906C161.994 181.039 152.119 157.785 152.019 157.552C151.641 156.663 152.054 155.637 152.942 155.258C153.831 154.88 154.858 155.292 155.236 156.18C155.65 157.151 165.397 180.106 167.033 192.446C168.223 201.43 160.006 221.304 152.129 228.489C150.153 230.291 148.271 231.2 146.52 231.2Z" fill="#1B6D42"/>
<path d="M180.627 71.9686C172.95 50.0361 129.044 44.7206 129.044 44.7206C129.044 44.7206 114.15 14.5321 102.62 11.4941L102.621 11.2446C102.324 11.2446 102.023 11.2716 101.72 11.3136C101.417 11.2716 101.116 11.2446 100.819 11.2446L100.819 11.4941C89.2897 14.5321 74.3957 44.7206 74.3957 44.7206C74.3957 44.7206 30.4892 50.0361 22.8132 71.9686C15.1367 93.9016 26.4562 112.735 26.4562 112.735C26.4562 112.735 24.9152 138.381 37.8687 148.994C50.6382 159.456 77.5367 174.042 101.208 174.456V174.475C101.378 174.475 101.55 174.467 101.72 174.465C101.891 174.467 102.063 174.475 102.233 174.475V174.456C125.904 174.043 152.803 159.456 165.572 148.994C178.525 138.381 176.984 112.735 176.984 112.735C176.984 112.735 188.303 93.9016 180.627 71.9686Z" fill="#48BD86"/>
<g opacity="0.6">
<path d="M89.777 87.5965C88.8115 87.5965 88.0285 86.814 88.0285 85.848C88.0285 57.817 73.3915 48.408 73.2435 48.3155C72.4255 47.808 72.169 46.732 72.674 45.912C73.1785 45.0925 74.248 44.833 75.0705 45.3335C75.7425 45.744 91.525 55.718 91.525 85.8475C91.5255 86.814 90.7425 87.5965 89.777 87.5965Z" fill="#258E5A"/>
</g>
<g opacity="0.6">
<path d="M113.462 87.5966C112.497 87.5966 111.714 86.8141 111.714 85.8481C111.714 55.7186 127.497 45.7441 128.168 45.3341C128.993 44.8316 130.068 45.0916 130.571 45.9161C131.073 46.7391 130.815 47.8126 129.994 48.3166C129.79 48.4441 115.21 57.8721 115.21 85.8481C115.21 86.8141 114.428 87.5966 113.462 87.5966Z" fill="#258E5A"/>
</g>
<g opacity="0.6">
<path d="M101.866 158.204C70.7086 158.204 40.4911 147.482 29.5566 138.137C31.2126 142.751 33.6986 147.074 37.4201 150.123C50.3736 160.736 77.1846 175.208 101.099 175.208C125.013 175.208 151.824 160.736 164.777 150.123C168.007 147.477 170.308 143.871 171.942 139.948C158.468 148.35 131.384 158.204 101.866 158.204Z" fill="#258E5A"/>
</g>
<g opacity="0.6">
<path d="M90.042 20.3537L97.5025 51.1492L96.548 13.8477L90.042 20.3537Z" fill="#258E5A"/>
</g>
<g opacity="0.6">
<path d="M112.466 20.3537L105.006 51.1492L105.96 13.8477L112.466 20.3537Z" fill="#258E5A"/>
</g>
<path d="M101.72 12.639C101.659 12.639 101.597 12.6355 101.537 12.6295C101.388 12.6135 101.239 12.6025 101.092 12.6025C100.127 12.6025 99.3438 11.82 99.3438 10.854C99.3438 9.88797 100.127 9.10547 101.092 9.10547H102.348C103.314 9.10547 104.097 9.88797 104.097 10.854C104.097 11.82 103.314 12.6025 102.348 12.6025C102.201 12.6025 102.053 12.6135 101.903 12.6295C101.842 12.636 101.781 12.639 101.72 12.639Z" fill="#1B6D42"/>
<path d="M101.719 176.956C76.5494 176.956 48.8139 161.718 36.3124 151.475C23.7004 141.143 24.3119 114.62 24.5074 110.188C22.5329 107.087 13.4509 91.045 22.0659 70.338C26.5559 59.547 36.5829 51.745 51.0629 47.7745C60.5499 45.1735 69.1694 44.9235 72.4924 45.0185C75.7429 38.399 90.1549 10.352 101.536 9.15195C101.658 9.13945 101.781 9.13945 101.903 9.15195C113.285 10.3525 127.697 38.399 130.947 45.0185C134.265 44.9235 142.888 45.172 152.376 47.7745C166.856 51.745 176.883 59.547 181.373 70.338C189.989 91.045 180.906 107.087 178.932 110.188C179.127 114.62 179.739 141.143 167.127 151.475C154.625 161.718 126.889 176.956 101.719 176.956ZM71.6379 48.5275C64.1714 48.5275 34.3199 49.9875 25.2944 71.681C16.6194 92.5305 27.6009 108.539 27.7129 108.698C27.9404 109.022 28.0514 109.414 28.0279 109.809C28.0104 110.098 26.4204 138.851 38.5284 148.771C50.1794 158.316 77.6374 173.459 101.719 173.459C125.802 173.459 153.26 158.316 164.911 148.771C177.019 138.851 175.429 110.098 175.411 109.809C175.387 109.414 175.498 109.022 175.726 108.698C175.836 108.541 186.788 92.4565 178.144 71.681C167.85 46.938 130.462 48.516 130.097 48.5615C129.35 48.6545 128.628 48.26 128.304 47.5815C121.847 34.0865 109.494 13.7685 101.719 12.6525C93.9444 13.7685 81.5909 34.087 75.1344 47.5815C74.8104 48.26 74.0919 48.657 73.3409 48.5615C73.2959 48.556 72.6874 48.5275 71.6379 48.5275Z" fill="#1B6D42"/>
<path d="M110.002 115.961C111.732 116.825 116.919 111.638 114.902 109.908C112.884 108.179 107.424 114.672 110.002 115.961Z" fill="#258E5A"/>
<path d="M93.4354 115.961C91.7059 116.825 86.5184 111.638 88.5359 109.908C90.5534 108.179 96.0134 114.672 93.4354 115.961Z" fill="#258E5A"/>
<g opacity="0.6">
<path d="M118.501 103.45C118.353 103.45 118.202 103.431 118.051 103.392C117.977 103.372 110.517 101.422 101.719 101.422C92.9209 101.422 85.4609 103.372 85.3869 103.392C84.4534 103.64 83.4964 103.084 83.2484 102.15C83.0009 101.217 83.5559 100.26 84.4884 100.012C84.8089 99.9261 92.4434 97.9246 101.718 97.9246C110.994 97.9246 118.628 99.9261 118.949 100.012C119.882 100.26 120.436 101.217 120.189 102.15C119.982 102.933 119.274 103.45 118.501 103.45Z" fill="#258E5A"/>
</g>
<path d="M79.9935 86.5205C79.9935 104.288 66.654 118.089 47.9695 118.089C29.285 118.089 15.4385 103.211 15.4385 85.4435C15.4385 67.6755 28.851 55.0525 47.5355 55.0525C66.22 55.0525 79.9935 68.753 79.9935 86.5205Z" fill="#258E5A"/>
<path d="M47.9769 119.838C28.4724 119.838 13.1934 104.434 13.1934 84.7699C13.1934 76.6174 15.8039 69.2574 20.7424 63.4859C25.6164 57.7899 32.4084 54.0324 40.3834 52.6194C41.3349 52.4509 42.2414 53.0854 42.4104 54.0359C42.5789 54.9869 41.9444 55.8939 40.9939 56.0624C26.2304 58.6774 16.6904 69.9459 16.6904 84.7699C16.6904 102.473 30.4329 116.342 47.9769 116.342C55.0524 116.342 62.0754 114.373 67.2454 110.941C68.0494 110.406 69.1349 110.626 69.6689 111.43C70.2029 112.234 69.9834 113.32 69.1789 113.854C63.4509 117.656 55.7224 119.838 47.9769 119.838Z" fill="#1B6D42"/>
<path d="M49.4475 112.525C63.9624 112.525 75.729 100.758 75.729 86.2434C75.729 71.7285 63.9624 59.9619 49.4475 59.9619C34.9326 59.9619 23.166 71.7285 23.166 86.2434C23.166 100.758 34.9326 112.525 49.4475 112.525Z" fill="white"/>
<path d="M123.592 86.5205C123.592 104.288 136.931 118.089 155.616 118.089C174.3 118.089 188.146 103.211 188.146 85.4435C188.146 67.6755 174.734 55.0525 156.049 55.0525C137.365 55.0525 123.592 68.753 123.592 86.5205Z" fill="#258E5A"/>
<path d="M155.611 119.838C147.865 119.838 140.137 117.657 134.408 113.853C133.604 113.319 133.385 112.234 133.919 111.43C134.453 110.625 135.538 110.405 136.343 110.94C141.512 114.373 148.535 116.341 155.611 116.341C173.155 116.341 186.897 102.473 186.897 84.7694C186.897 69.9454 177.358 58.6774 162.594 56.0619C161.643 55.8934 161.009 54.9864 161.177 54.0354C161.346 53.0849 162.252 52.4504 163.204 52.6189C171.179 54.0319 177.971 57.7894 182.845 63.4854C187.783 69.2569 190.394 76.6174 190.394 84.7694C190.394 104.434 175.116 119.838 155.611 119.838Z" fill="#1B6D42"/>
<path d="M156.44 112.398C170.912 111.193 181.666 98.4851 180.462 84.0138C179.257 69.5424 166.549 58.7877 152.078 59.9925C137.606 61.1972 126.852 73.9052 128.056 88.3765C129.261 102.848 141.969 113.603 156.44 112.398Z" fill="white"/>
<path d="M167.389 88.4462C168.57 81.1638 163.623 74.3033 156.341 73.1228C149.058 71.9423 142.198 76.8888 141.017 84.1711C139.837 91.4534 144.783 98.3139 152.066 99.4945C159.348 100.675 166.209 95.7285 167.389 88.4462Z" fill="#CC9211"/>
<path d="M156.614 94.767C161.309 93.3443 163.962 88.3852 162.539 83.6905C161.116 78.9958 156.157 76.3432 151.462 77.7659C146.768 79.1885 144.115 84.1476 145.538 88.8423C146.96 93.5371 151.92 96.1896 156.614 94.767Z" fill="#233338"/>
<path d="M151.223 78.9514C151.223 77.0349 149.572 75.4814 147.536 75.4814C145.5 75.4814 143.849 77.0349 143.849 78.9514C143.849 80.8679 145.499 82.4214 147.536 82.4214C149.572 82.4214 151.223 80.8674 151.223 78.9514Z" fill="white"/>
<path d="M49.7589 99.6716C57.1372 99.6716 63.1184 93.6904 63.1184 86.3121C63.1184 78.9339 57.1372 72.9526 49.7589 72.9526C42.3807 72.9526 36.3994 78.9339 36.3994 86.3121C36.3994 93.6904 42.3807 99.6716 49.7589 99.6716Z" fill="#CC9211"/>
<path d="M51.6263 94.9971C56.4093 93.8933 59.392 89.1211 58.2882 84.3381C57.1844 79.5551 52.4122 76.5725 47.6292 77.6762C42.8462 78.78 39.8635 83.5522 40.9673 88.3352C42.0711 93.1183 46.8433 96.1009 51.6263 94.9971Z" fill="#233338"/>
<path d="M46.7383 78.9514C46.7383 77.0349 45.0878 75.4814 43.0513 75.4814C41.0153 75.4814 39.3643 77.0349 39.3643 78.9514C39.3643 80.8679 41.0148 82.4214 43.0513 82.4214C45.0878 82.4214 46.7383 80.8674 46.7383 78.9514Z" fill="white"/>
<path d="M48.1964 39.6659C49.1444 43.8314 69.5514 34.2309 66.7089 30.9549C63.8659 27.6784 46.9304 34.1029 48.1964 39.6659Z" fill="#258E5A"/>
<path d="M50.1575 42.4395C49.8685 42.4395 49.598 42.423 49.347 42.3885C47.182 42.092 46.629 40.657 46.4915 40.0545C45.803 37.029 48.3515 33.8015 53.4835 31.199C57.881 28.9705 65.384 26.7605 68.029 29.809C68.4275 30.2685 69.249 31.5325 68.2695 33.341C66.244 37.0825 55.3465 42.4395 50.1575 42.4395ZM49.889 38.941C50.885 39.0435 53.762 38.541 57.9015 36.625C62.0575 34.702 64.375 32.8225 65.046 31.9215C63.604 31.4815 58.805 32.219 54.2815 34.7335C51.3505 36.363 50.01 37.9695 49.889 38.941Z" fill="#1B6D42"/>
<path d="M155.677 39.0476C154.817 43.2321 134.212 34.0651 136.985 30.7296C139.758 27.3941 156.825 33.4596 155.677 39.0476Z" fill="#258E5A"/>
<path d="M153.61 41.864C148.357 41.864 137.557 36.808 135.475 33.148C134.458 31.3605 135.252 30.079 135.641 29.6115C138.222 26.5075 145.769 28.5585 150.212 30.694C155.399 33.187 158.015 36.3605 157.391 39.3995C157.266 40.0055 156.744 41.451 154.585 41.794C154.288 41.841 153.961 41.864 153.61 41.864ZM138.669 31.662C139.36 32.5495 141.716 34.378 145.911 36.213C150.089 38.0405 152.973 38.4895 153.97 38.3585C153.829 37.39 152.455 35.812 149.489 34.2445C144.916 31.8275 140.107 31.193 138.669 31.662Z" fill="#1B6D42"/>
<path d="M101.719 55.3661C99.3899 55.3661 97.502 53.4781 97.502 51.1491V6.47408C97.502 4.14508 99.3899 2.25708 101.719 2.25708C104.048 2.25708 105.936 4.14508 105.936 6.47408V51.1491C105.936 53.4781 104.048 55.3661 101.719 55.3661Z" fill="#FBCA47"/>
<path d="M101.719 56.823C98.5904 56.823 96.0449 54.277 96.0449 51.1485V6.47355C96.0449 3.34505 98.5904 0.800049 101.719 0.800049C104.847 0.800049 107.393 3.34505 107.393 6.47355V51.1485C107.393 54.2775 104.847 56.823 101.719 56.823ZM101.719 3.71405C100.197 3.71405 98.9589 4.95205 98.9589 6.47355V51.1485C98.9589 52.6705 100.197 53.909 101.719 53.909C103.24 53.909 104.479 52.6705 104.479 51.1485V6.47355C104.479 4.95205 103.24 3.71405 101.719 3.71405Z" fill="#CC9211"/>
<path d="M15.8521 72.5896C15.8521 72.5896 -0.38088 98.3796 2.11062 114.407C4.60212 130.434 29.3171 129.995 29.2296 111.095C29.1271 89.1241 15.8521 72.5896 15.8521 72.5896Z" fill="#79BEE5"/>
<path d="M15.6196 127.633C8.85564 127.633 1.73214 123.356 0.383144 114.675C-2.17936 98.191 13.6956 72.7335 14.3726 71.658C14.6741 71.1795 15.1881 70.876 15.7521 70.8435C16.3111 70.8095 16.8611 71.053 17.2156 71.4945C17.7731 72.189 30.8736 88.7615 30.9776 111.086C31.0266 121.702 23.9321 127.021 16.8791 127.582C16.4621 127.616 16.0411 127.633 15.6196 127.633ZM15.9911 75.773C12.2141 82.312 1.89164 101.615 3.83814 114.138C4.99614 121.587 11.2656 124.522 16.6021 124.097C21.6466 123.695 27.5226 120.051 27.4811 111.102C27.4031 94.395 19.3946 80.8 15.9911 75.773Z" fill="#294D66"/>
<g opacity="0.56">
<path d="M11.2406 116.118C15.9101 116.763 15.0706 101.64 12.1476 101.602C9.22463 101.564 6.91563 115.521 11.2406 116.118Z" fill="white"/>
</g>
<g opacity="0.6">
<path d="M65.9893 125.208C61.5868 125.478 58.4363 125.628 58.2263 129.614C58.0163 133.601 62.2128 133.181 69.3463 131.293C76.4798 129.404 83.8233 131.083 86.5503 133.601C86.5503 133.601 76.2698 124.579 65.9893 125.208Z" fill="#258E5A"/>
</g>
<g opacity="0.6">
<path d="M138.155 125.208C142.557 125.478 145.708 125.628 145.918 129.614C146.128 133.601 141.931 133.181 134.798 131.293C127.664 129.404 120.321 131.083 117.594 133.601C117.594 133.601 127.874 124.579 138.155 125.208Z" fill="#258E5A"/>
</g>
<path d="M102.507 141.906C96.3976 141.906 91.5541 138.589 86.8701 135.381C84.7531 133.932 82.7541 132.562 80.6951 131.533C74.6031 128.487 64.2001 128.895 64.0951 128.9C63.1296 128.934 62.3151 128.193 62.2731 127.229C62.2316 126.264 62.9801 125.448 63.9446 125.407C64.4071 125.385 75.3656 124.958 82.2581 128.405C84.5311 129.542 86.7246 131.044 88.8451 132.496C93.2856 135.537 97.4796 138.41 102.506 138.41C107.533 138.41 111.727 135.537 116.167 132.496C118.288 131.044 120.481 129.542 122.755 128.405C129.647 124.959 140.605 125.385 141.068 125.407C142.032 125.448 142.78 126.263 142.739 127.228C142.698 128.192 141.901 128.949 140.918 128.9C140.813 128.897 130.396 128.493 124.318 131.533C122.259 132.562 120.26 133.932 118.143 135.381C113.459 138.589 108.616 141.906 102.507 141.906Z" fill="#1B6D42"/>
</svg>
