<svg width="219" height="52" viewBox="0 0 219 52" fill="none" xmlns="http://www.w3.org/2000/svg">
<g clip-path="url(#clip0_289_19023)">
<path d="M74.3146 39.1908C73.6752 39.1908 73.1615 38.9282 72.7733 38.4031L64.8616 27.9911L67.9783 24.8058L76.1641 35.6288C76.4837 36.0627 76.6436 36.5307 76.6436 37.0331C76.6436 37.6724 76.4038 38.1976 75.9243 38.6086C75.4448 38.9967 74.9082 39.1908 74.3146 39.1908ZM74.7256 15.0446C75.2736 15.0446 75.7188 15.2729 76.0613 15.7296C76.4266 16.1634 76.6093 16.6087 76.6093 17.0653C76.6093 17.5448 76.4038 17.9901 75.9928 18.4011L61.6421 32.1353L61.4708 27.2376L73.0473 15.8323C73.5725 15.3072 74.1319 15.0446 74.7256 15.0446ZM59.9296 39.1908C59.2902 39.1908 58.7765 38.9967 58.3883 38.6086C58.0001 38.1976 57.8061 37.6952 57.8061 37.1016V17.3051C57.8061 16.7114 58.0116 16.2205 58.4226 15.8323C58.8336 15.4213 59.3587 15.2158 59.9981 15.2158C60.6374 15.2158 61.1397 15.4213 61.5051 15.8323C61.8932 16.2205 62.0873 16.7114 62.0873 17.3051V37.1016C62.0873 37.6952 61.8932 38.1976 61.5051 38.6086C61.1169 38.9967 60.5917 39.1908 59.9296 39.1908ZM94.9082 20.5246C95.5018 20.5246 95.9928 20.7187 96.3809 21.1068C96.7691 21.495 96.9632 21.9973 96.9632 22.6138V37.1016C96.9632 37.6952 96.7691 38.1976 96.3809 38.6086C95.9928 38.9967 95.5018 39.1908 94.9082 39.1908C94.3145 39.1908 93.8236 38.9967 93.4354 38.6086C93.0473 38.1976 92.8532 37.6952 92.8532 37.1016V35.4233L93.6067 35.7316C93.6067 36.0284 93.4468 36.3937 93.1272 36.8276C92.8075 37.2386 92.3737 37.6496 91.8257 38.0606C91.2777 38.4716 90.6269 38.8255 89.8734 39.1223C89.1428 39.3963 88.3436 39.5333 87.4759 39.5333C85.9004 39.5333 84.4733 39.1337 83.1947 38.3346C81.916 37.5126 80.8999 36.3937 80.1464 34.9781C79.4158 33.5396 79.0504 31.8956 79.0504 30.0461C79.0504 28.1737 79.4158 26.5297 80.1464 25.1141C80.8999 23.6756 81.9046 22.5567 83.1604 21.7576C84.4163 20.9356 85.8091 20.5246 87.3389 20.5246C88.3208 20.5246 89.2227 20.673 90.0447 20.9698C90.8667 21.2667 91.5745 21.6434 92.1682 22.1001C92.7847 22.5567 93.2528 23.0248 93.5724 23.5043C93.9149 23.961 94.0862 24.3492 94.0862 24.6688L92.8532 25.1141V22.6138C92.8532 22.0202 93.0473 21.5292 93.4354 21.1411C93.8236 20.7301 94.3145 20.5246 94.9082 20.5246ZM87.9897 35.7658C88.9943 35.7658 89.8734 35.5147 90.6269 35.0123C91.3804 34.51 91.9627 33.825 92.3737 32.9573C92.8075 32.0897 93.0244 31.1192 93.0244 30.0461C93.0244 28.9501 92.8075 27.9682 92.3737 27.1006C91.9627 26.2329 91.3804 25.5479 90.6269 25.0456C89.8734 24.5432 88.9943 24.2921 87.9897 24.2921C87.0078 24.2921 86.1402 24.5432 85.3867 25.0456C84.6332 25.5479 84.0395 26.2329 83.6057 27.1006C83.1947 27.9682 82.9892 28.9501 82.9892 30.0461C82.9892 31.1192 83.1947 32.0897 83.6057 32.9573C84.0395 33.825 84.6332 34.51 85.3867 35.0123C86.1402 35.5147 87.0078 35.7658 87.9897 35.7658ZM111.038 20.5246C112.864 20.5246 114.211 20.9698 115.079 21.8603C115.947 22.728 116.518 23.8582 116.792 25.2511L116.209 24.9428L116.483 24.3948C116.757 23.8697 117.18 23.3102 117.751 22.7166C118.321 22.1001 119.006 21.5863 119.806 21.1753C120.628 20.7415 121.541 20.5246 122.546 20.5246C124.19 20.5246 125.434 20.8785 126.279 21.5863C127.146 22.2942 127.74 23.2417 128.06 24.4291C128.379 25.5936 128.539 26.8951 128.539 28.3336V37.1016C128.539 37.6952 128.345 38.1976 127.957 38.6086C127.569 38.9967 127.078 39.1908 126.484 39.1908C125.891 39.1908 125.4 38.9967 125.012 38.6086C124.623 38.1976 124.429 37.6952 124.429 37.1016V28.3336C124.429 27.5801 124.338 26.9065 124.155 26.3128C123.973 25.6963 123.642 25.2054 123.162 24.8401C122.683 24.4747 121.998 24.2921 121.107 24.2921C120.239 24.2921 119.497 24.4747 118.881 24.8401C118.264 25.2054 117.796 25.6963 117.477 26.3128C117.18 26.9065 117.031 27.5801 117.031 28.3336V37.1016C117.031 37.6952 116.837 38.1976 116.449 38.6086C116.061 38.9967 115.57 39.1908 114.976 39.1908C114.383 39.1908 113.892 38.9967 113.504 38.6086C113.115 38.1976 112.921 37.6952 112.921 37.1016V28.3336C112.921 27.5801 112.83 26.9065 112.647 26.3128C112.465 25.6963 112.134 25.2054 111.654 24.8401C111.175 24.4747 110.49 24.2921 109.599 24.2921C108.731 24.2921 107.989 24.4747 107.373 24.8401C106.756 25.2054 106.288 25.6963 105.969 26.3128C105.672 26.9065 105.523 27.5801 105.523 28.3336V37.1016C105.523 37.6952 105.329 38.1976 104.941 38.6086C104.553 38.9967 104.062 39.1908 103.468 39.1908C102.875 39.1908 102.384 38.9967 101.996 38.6086C101.607 38.1976 101.413 37.6952 101.413 37.1016V22.9563C101.413 22.3627 101.607 21.8717 101.996 21.4836C102.384 21.0726 102.875 20.8671 103.468 20.8671C104.062 20.8671 104.553 21.0726 104.941 21.4836C105.329 21.8717 105.523 22.3627 105.523 22.9563V24.4291L105.01 24.3263C105.215 23.9382 105.5 23.5272 105.866 23.0933C106.231 22.6367 106.676 22.2142 107.202 21.8261C107.727 21.4379 108.309 21.1297 108.948 20.9013C109.588 20.6502 110.284 20.5246 111.038 20.5246ZM141.618 39.5333C139.678 39.5333 137.988 39.1337 136.549 38.3346C135.134 37.5126 134.038 36.4052 133.261 35.0123C132.508 33.6195 132.131 32.044 132.131 30.2858C132.131 28.2308 132.542 26.4841 133.364 25.0456C134.209 23.5842 135.305 22.4654 136.652 21.6891C137.999 20.9127 139.426 20.5246 140.933 20.5246C142.098 20.5246 143.194 20.7643 144.221 21.2438C145.272 21.7233 146.197 22.3855 146.996 23.2303C147.795 24.0523 148.423 25.0113 148.879 26.1073C149.359 27.2033 149.599 28.3678 149.599 29.6008C149.576 30.1488 149.359 30.5941 148.948 30.9366C148.537 31.2791 148.057 31.4503 147.509 31.4503H134.426L133.398 28.0253H145.968L145.215 28.7103V27.7856C145.169 27.1234 144.929 26.5297 144.495 26.0046C144.084 25.4794 143.559 25.0684 142.92 24.7716C142.303 24.4519 141.641 24.2921 140.933 24.2921C140.248 24.2921 139.609 24.3834 139.015 24.5661C138.422 24.7487 137.908 25.057 137.474 25.4908C137.04 25.9247 136.698 26.5069 136.447 27.2376C136.196 27.9682 136.07 28.893 136.07 30.0118C136.07 31.2448 136.321 32.2952 136.823 33.1628C137.349 34.0077 138.011 34.6584 138.81 35.1151C139.632 35.5489 140.5 35.7658 141.413 35.7658C142.258 35.7658 142.931 35.6973 143.434 35.5603C143.936 35.4233 144.336 35.2635 144.632 35.0808C144.952 34.8753 145.238 34.7041 145.489 34.5671C145.9 34.3616 146.288 34.2588 146.653 34.2588C147.156 34.2588 147.567 34.4301 147.886 34.7726C148.229 35.1151 148.4 35.5147 148.4 35.9713C148.4 36.5878 148.08 37.1472 147.441 37.6496C146.847 38.1519 146.014 38.5972 144.941 38.9853C143.868 39.3507 142.76 39.5333 141.618 39.5333ZM157.642 37.1016C157.642 37.6952 157.437 38.1976 157.026 38.6086C156.637 38.9967 156.147 39.1908 155.553 39.1908C154.982 39.1908 154.503 38.9967 154.114 38.6086C153.726 38.1976 153.532 37.6952 153.532 37.1016V15.9351C153.532 15.3414 153.726 14.8505 154.114 14.4623C154.525 14.0513 155.028 13.8458 155.621 13.8458C156.215 13.8458 156.695 14.0513 157.06 14.4623C157.448 14.8505 157.642 15.3414 157.642 15.9351V37.1016ZM166.291 37.1016C166.291 37.6952 166.097 38.1976 165.709 38.6086C165.321 38.9967 164.83 39.1908 164.236 39.1908C163.643 39.1908 163.152 38.9967 162.764 38.6086C162.375 38.1976 162.181 37.6952 162.181 37.1016V22.9563C162.181 22.3627 162.375 21.8717 162.764 21.4836C163.152 21.0726 163.643 20.8671 164.236 20.8671C164.83 20.8671 165.321 21.0726 165.709 21.4836C166.097 21.8717 166.291 22.3627 166.291 22.9563V37.1016ZM164.202 18.6408C163.426 18.6408 162.878 18.5152 162.558 18.2641C162.238 18.0129 162.079 17.5677 162.079 16.9283V16.2776C162.079 15.6154 162.25 15.1702 162.592 14.9418C162.958 14.6907 163.506 14.5651 164.236 14.5651C165.035 14.5651 165.595 14.6907 165.915 14.9418C166.234 15.193 166.394 15.6382 166.394 16.2776V16.9283C166.394 17.5905 166.223 18.0472 165.88 18.2983C165.538 18.5267 164.978 18.6408 164.202 18.6408ZM188.291 30.0461C188.291 31.9184 187.869 33.5738 187.024 35.0123C186.202 36.428 185.083 37.5354 183.667 38.3346C182.274 39.1337 180.71 39.5333 178.975 39.5333C177.24 39.5333 175.664 39.1337 174.249 38.3346C172.856 37.5354 171.737 36.428 170.892 35.0123C170.07 33.5738 169.659 31.9184 169.659 30.0461C169.659 28.1737 170.07 26.5297 170.892 25.1141C171.737 23.6756 172.856 22.5567 174.249 21.7576C175.664 20.9356 177.24 20.5246 178.975 20.5246C180.71 20.5246 182.274 20.9356 183.667 21.7576C185.083 22.5567 186.202 23.6756 187.024 25.1141C187.869 26.5297 188.291 28.1737 188.291 30.0461ZM184.181 30.0461C184.181 28.8816 183.941 27.8769 183.462 27.0321C183.005 26.1644 182.377 25.4908 181.578 25.0113C180.802 24.5318 179.934 24.2921 178.975 24.2921C178.016 24.2921 177.137 24.5318 176.338 25.0113C175.561 25.4908 174.934 26.1644 174.454 27.0321C173.997 27.8769 173.769 28.8816 173.769 30.0461C173.769 31.1877 173.997 32.1924 174.454 33.0601C174.934 33.9049 175.561 34.5671 176.338 35.0466C177.137 35.5261 178.016 35.7658 178.975 35.7658C179.934 35.7658 180.802 35.5261 181.578 35.0466C182.377 34.5671 183.005 33.9049 183.462 33.0601C183.941 32.1924 184.181 31.1877 184.181 30.0461ZM201.684 20.5246C203.373 20.5246 204.652 20.8785 205.52 21.5863C206.41 22.2942 207.015 23.2417 207.335 24.4291C207.677 25.5936 207.849 26.8951 207.849 28.3336V37.1016C207.849 37.6952 207.655 38.1976 207.266 38.6086C206.878 38.9967 206.387 39.1908 205.794 39.1908C205.2 39.1908 204.709 38.9967 204.321 38.6086C203.933 38.1976 203.739 37.6952 203.739 37.1016V28.3336C203.739 27.5801 203.636 26.9065 203.43 26.3128C203.248 25.6963 202.905 25.2054 202.403 24.8401C201.901 24.4747 201.181 24.2921 200.245 24.2921C199.332 24.2921 198.555 24.4747 197.916 24.8401C197.3 25.2054 196.82 25.6963 196.478 26.3128C196.158 26.9065 195.998 27.5801 195.998 28.3336V37.1016C195.998 37.6952 195.804 38.1976 195.416 38.6086C195.028 38.9967 194.537 39.1908 193.943 39.1908C193.349 39.1908 192.859 38.9967 192.47 38.6086C192.082 38.1976 191.888 37.6952 191.888 37.1016V22.9563C191.888 22.3627 192.082 21.8717 192.47 21.4836C192.859 21.0726 193.349 20.8671 193.943 20.8671C194.537 20.8671 195.028 21.0726 195.416 21.4836C195.804 21.8717 195.998 22.3627 195.998 22.9563V24.4291L195.484 24.3263C195.69 23.9382 195.987 23.5272 196.375 23.0933C196.763 22.6367 197.22 22.2142 197.745 21.8261C198.27 21.4379 198.864 21.1297 199.526 20.9013C200.188 20.6502 200.907 20.5246 201.684 20.5246Z" fill="white"/>
<path d="M12.5723 28.711L15.3473 31.961C15.3473 31.961 15.6998 23.5135 23.8773 23.3685C31.7848 23.2285 36.8198 23.1835 36.8198 23.1835L34.3548 17.6835L27.4998 11.0285L13.1623 19.2485L12.5723 28.711Z" fill="white"/>
<path d="M41.0625 43.1784C37.8948 46.7414 33.7183 49.2566 29.0875 50.3902C24.4567 51.5237 19.5907 51.222 15.1354 49.5251C10.6802 47.8281 6.8464 44.8162 4.14309 40.8893C1.43978 36.9623 -0.00518853 32.3059 1.39993e-05 27.5385C-0.000908574 26.6124 0.0567063 25.6872 0.172514 24.7684C0.833646 19.1443 3.50343 13.948 7.69072 10.1355C11.878 6.32304 17.3012 4.15082 22.9625 4.01845C23.1475 4.01845 23.3425 4.01845 23.5275 4.01845C24.1925 4.01845 24.86 4.05095 25.5275 4.10845C25.62 4.10845 25.725 4.10845 25.815 4.13345C25.2475 -0.58655 29.8375 3.92345 30.565 4.02845V6.39845L30.98 13.0434C16.63 17.7934 15.98 26.7284 15.5025 31.0434C15.3945 33.4798 16.1955 35.8694 17.75 37.7484C17.8358 37.8754 17.932 37.9949 18.0375 38.1059C18.5238 38.65 19.0716 39.1358 19.67 39.5534C21.1096 40.54 22.7204 41.2496 24.42 41.6459C28.1125 42.5659 32.285 42.146 35.62 39.9334C35.7178 39.8716 35.8106 39.8022 35.8975 39.7259C40.0125 36.6784 37.6475 30.4459 33.16 30.1484C29.2975 29.8834 28.0325 33.0235 28.0325 33.0235C28.0325 33.0235 32.6875 31.0684 33.885 33.4359C34.8725 35.4134 33.585 39.1859 29.635 39.1059C28.4482 39.1045 27.2838 38.7823 26.265 38.1734C25.7 37.8428 25.2184 37.3868 24.8573 36.8407C24.4963 36.2946 24.2654 35.6729 24.1825 35.0234C24.045 33.9884 24.24 32.8034 24.8725 31.5234C26.965 27.2459 33.1975 25.0509 38.6225 27.7984C42.96 29.9984 45.25 37.6809 41.0625 43.1784Z" fill="white"/>
<g style="mix-blend-mode:multiply" opacity="0.59">
<path d="M25.7923 4.12845C26.4923 4.23845 31.1973 16.8784 34.0823 22.3309C34.0823 22.3309 24.6298 18.7109 22.8823 4.03595C23.8531 3.97595 24.8273 4.00692 25.7923 4.12845Z" fill="#E0E0E0"/>
</g>
<path d="M25.4823 -0.0015564C25.4473 0.248444 25.4248 0.518444 25.4123 0.780944C24.9123 7.60094 27.9873 18.6259 34.5673 23.2159L49.8473 23.0909L50.7773 23.0784C49.7717 16.9469 46.728 11.3336 42.138 7.14559C37.5481 2.95758 31.6801 0.439557 25.4823 -0.0015564ZM35.8273 16.0734C35.0064 16.0739 34.2038 15.831 33.521 15.3753C32.8382 14.9196 32.3059 14.2716 31.9915 13.5133C31.677 12.755 31.5944 11.9205 31.7543 11.1154C31.9141 10.3102 32.3092 9.57047 32.8895 8.98984C33.4697 8.4092 34.2092 8.0137 35.0143 7.85337C35.8194 7.69304 36.6539 7.77507 37.4124 8.0891C38.1709 8.40313 38.8191 8.93505 39.2753 9.61757C39.7314 10.3001 39.9748 11.1025 39.9748 11.9234C39.9748 13.0237 39.5379 14.0788 38.7602 14.8571C37.9825 15.6353 36.9275 16.0728 35.8273 16.0734Z" fill="white"/>
<path d="M36.5249 14.8233C36.8787 14.8236 37.2299 14.7618 37.5624 14.6408C37.0593 14.95 36.4828 15.1193 35.8925 15.1314C35.3021 15.1435 34.7192 14.9979 34.2039 14.7097C33.6885 14.4215 33.2593 14.001 32.9606 13.4917C32.6619 12.9824 32.5044 12.4026 32.5044 11.8121C32.5044 11.2216 32.6619 10.6418 32.9606 10.1325C33.2593 9.62314 33.6885 9.20269 34.2039 8.91447C34.7192 8.62625 35.3021 8.48069 35.8925 8.49279C36.4828 8.5049 37.0593 8.67424 37.5624 8.98335C37.1531 8.84447 36.7186 8.79566 36.2888 8.84027C35.8589 8.88487 35.4437 9.02184 35.0716 9.24179C34.6996 9.46174 34.3795 9.75949 34.1332 10.1146C33.8869 10.4698 33.7202 10.874 33.6446 11.2995C33.569 11.725 33.5863 12.1619 33.6952 12.5801C33.8041 12.9984 34.0021 13.3882 34.2756 13.7228C34.5491 14.0575 34.8917 14.329 35.2799 14.519C35.6681 14.7089 36.0928 14.8128 36.5249 14.8233Z" fill="white"/>
</g>
<defs>
<clipPath id="clip0_289_19023">
<rect width="218.812" height="51.0675" fill="white"/>
</clipPath>
</defs>
</svg>
