<svg width="56" height="56" viewBox="0 0 56 56" fill="none" xmlns="http://www.w3.org/2000/svg">
<g clip-path="url(#clip0_910_28439)">
<path d="M0 35.8638C0 36.7686 0.733519 37.5021 1.6383 37.5021H9.54679C10.4516 37.5021 11.1851 36.7686 11.1851 35.8638C11.1851 31.827 12.6329 28.1202 15.0396 25.2287L7.12396 17.354C2.51893 22.4709 0 28.9824 0 35.8638Z" fill="#258E5B"/>
<path d="M48.8783 17.3564L40.9602 25.2283C41.6781 26.0909 42.3099 27.0263 42.8442 28.0211L46.6025 26.4836C47.4406 26.1409 48.3966 26.5423 48.7391 27.3796C49.0817 28.217 48.6805 29.1737 47.8431 29.5162L44.1021 31.0466C44.5652 32.5726 44.815 34.1896 44.815 35.8637C44.815 36.7685 45.5485 37.502 46.4533 37.502H54.3618C55.2666 37.502 56.0001 36.7685 56.0001 35.8637C56.0001 28.9835 53.4818 22.4731 48.8783 17.3564Z" fill="#258E5B"/>
<path d="M28 19.153C32.0286 19.153 35.7303 20.5688 38.6292 22.9252L46.5517 15.0491C41.4113 10.5006 34.886 8.0127 28 8.0127C21.1152 8.0127 14.5908 10.4998 9.45093 15.047L17.3706 22.9257C20.2694 20.5689 23.9713 19.153 28 19.153Z" fill="#258E5B"/>
<path d="M38.495 29.8002C36.3955 26.1802 32.4776 23.7402 28.0001 23.7402C21.3152 23.7402 15.8767 29.1787 15.8767 35.8636C15.8767 42.5485 21.3152 47.987 28.0001 47.987C34.685 47.987 40.1235 42.5485 40.1235 35.8636C40.1235 34.8169 39.9901 33.8008 39.7395 32.8312L44.1021 31.0465C43.7816 29.9903 43.3584 28.9781 42.8443 28.0209L38.495 29.8002ZM30.6214 31.0585C31.5261 31.0585 32.2597 31.792 32.2597 32.6968C32.2597 33.6016 31.5261 34.3351 30.6214 34.3351C29.7166 34.3351 28.9831 33.6016 28.9831 32.6968C28.9831 31.792 29.7166 31.0585 30.6214 31.0585ZM25.3788 31.0585C26.2836 31.0585 27.0171 31.792 27.0171 32.6968C27.0171 33.6016 26.2836 34.3351 25.3788 34.3351C24.474 34.3351 23.7405 33.6016 23.7405 32.6968C23.7405 31.792 24.474 31.0585 25.3788 31.0585ZM32.5884 39.57C31.3256 40.7015 29.6961 41.3246 28.0001 41.3246C26.3041 41.3246 24.6747 40.7015 23.4118 39.57C22.7379 38.9662 22.6811 37.9305 23.2849 37.2566C23.8888 36.5827 24.9244 36.5259 25.5984 37.1297C26.2594 37.7219 27.1123 38.0481 28.0001 38.0481C28.8879 38.0481 29.741 37.722 30.4018 37.1297C31.0756 36.5259 32.1115 36.5827 32.7153 37.2566C33.3191 37.9304 33.2622 38.9662 32.5884 39.57Z" fill="#258E5B"/>
</g>
<defs>
<clipPath id="clip0_910_28439">
<rect width="56" height="56" fill="white"/>
</clipPath>
</defs>
</svg>
