<svg width="96" height="96" viewBox="0 0 96 96" fill="none" xmlns="http://www.w3.org/2000/svg">
<g filter="url(#filter0_d_709_31116)">
<rect x="16" y="8" width="64" height="64" rx="32" fill="#258E5B"/>
<path d="M49 33.5618C49 34.6663 49.8954 35.5618 51 35.5618V37.5618C49.8053 37.5618 48.7329 37.038 48 36.2076C47.2671 37.038 46.1947 37.5618 45 37.5618V35.5618C46.1046 35.5618 47 34.6663 47 33.5618V30.0969C46.4117 29.7566 45.7286 29.5618 45 29.5618C42.7909 29.5618 41 31.3526 41 33.5618V34.7325C42.1652 35.1443 43 36.2555 43 37.5618C43 38.1141 43.4477 38.5618 44 38.5618H45V40.5618H44C42.3431 40.5618 41 39.2186 41 37.5618C41 37.0095 40.5523 36.5618 40 36.5618H39.3542C38.5238 37.2947 38 38.3671 38 39.5618C38 40.2903 38.1948 40.9734 38.5351 41.5618H42C44.2091 41.5618 46 43.3526 46 45.5618H44C44 44.4572 43.1046 43.5618 42 43.5618H41V45.5618C41 47.7709 42.7909 49.5618 45 49.5618C46.1947 49.5618 47.2671 49.038 48 48.2076C48.7329 49.038 49.8053 49.5618 51 49.5618C53.2091 49.5618 55 47.7709 55 45.5618V43.5618H54C52.8954 43.5618 52 44.4572 52 45.5618H50C50 43.3526 51.7909 41.5618 54 41.5618H57.4649C57.8052 40.9734 58 40.2903 58 39.5618C58 38.3671 57.4762 37.2947 56.6458 36.5618H56C55.4477 36.5618 55 37.0095 55 37.5618C55 39.2186 53.6569 40.5618 52 40.5618H51V38.5618H52C52.5523 38.5618 53 38.1141 53 37.5618C53 36.2555 53.8348 35.1443 55 34.7325V33.5618C55 31.3526 53.2091 29.5618 51 29.5618C50.2714 29.5618 49.5883 29.7566 49 30.0969V33.5618Z" fill="white"/>
</g>
<defs>
<filter id="filter0_d_709_31116" x="0" y="0" width="96" height="96" filterUnits="userSpaceOnUse" color-interpolation-filters="sRGB">
<feFlood flood-opacity="0" result="BackgroundImageFix"/>
<feColorMatrix in="SourceAlpha" type="matrix" values="0 0 0 0 0 0 0 0 0 0 0 0 0 0 0 0 0 0 127 0" result="hardAlpha"/>
<feOffset dy="8"/>
<feGaussianBlur stdDeviation="8"/>
<feComposite in2="hardAlpha" operator="out"/>
<feColorMatrix type="matrix" values="0 0 0 0 0.294118 0 0 0 0 0.203922 0 0 0 0 0.145098 0 0 0 0.05 0"/>
<feBlend mode="normal" in2="BackgroundImageFix" result="effect1_dropShadow_709_31116"/>
<feBlend mode="normal" in="SourceGraphic" in2="effect1_dropShadow_709_31116" result="shape"/>
</filter>
</defs>
</svg>
