<svg width="96" height="96" viewBox="0 0 96 96" fill="none" xmlns="http://www.w3.org/2000/svg">
<g filter="url(#filter0_d_709_31141)">
<rect x="16" y="8" width="64" height="64" rx="32" fill="#FF9B85"/>
<path d="M48 29.3143C48.2857 29.3143 48.4571 29.0857 48.4571 28.8571V27.5428C48.4571 27.2571 48.2286 27.0857 48 27.0857C47.7143 27.0857 47.5428 27.3143 47.5428 27.5428V28.8571C47.5428 29.0857 47.7143 29.3143 48 29.3143Z" fill="white"/>
<path d="M42.8 30.3427C42.8571 30.5142 43.0285 30.5713 43.2 30.5713C43.2571 30.5713 43.3714 30.5713 43.4285 30.5142C43.5428 30.457 43.6 30.3427 43.6571 30.2284C43.7142 30.1142 43.6571 29.9999 43.6 29.8856L42.9714 28.7427C42.9142 28.5713 42.7428 28.5142 42.5714 28.5142C42.5142 28.5142 42.4 28.5142 42.3428 28.5713C42.2285 28.6284 42.1714 28.7427 42.1142 28.857C42.0571 28.9713 42.1142 29.0856 42.1714 29.1999L42.8 30.3427Z" fill="white"/>
<path d="M40.0571 33.8856C40.1714 33.657 40.1143 33.3713 39.8857 33.257L38.7428 32.6284C38.6857 32.5713 38.5714 32.5713 38.5143 32.5713C38.3428 32.5713 38.1714 32.6856 38.1143 32.7999C38.0571 32.9141 38.0571 33.0284 38.0571 33.1427C38.1143 33.257 38.1714 33.3713 38.2857 33.4284L39.4286 34.057C39.4857 34.1141 39.6 34.1141 39.6571 34.1141C39.8286 34.1141 40 33.9999 40.0571 33.8856Z" fill="white"/>
<path d="M57.8857 32.7427C57.8286 32.5713 57.6572 32.5142 57.4857 32.5142C57.4286 32.5142 57.3143 32.5142 57.2572 32.5713L56.1143 33.1999C56 33.257 55.9429 33.3713 55.8857 33.4856C55.8286 33.5999 55.8857 33.7142 55.9429 33.8284C56 33.9999 56.1714 34.057 56.3429 34.057C56.4 34.057 56.5143 34.057 56.5714 33.9999L57.7143 33.3713C57.8286 33.3142 57.8857 33.1999 57.9429 33.0856C57.9429 32.9713 57.9429 32.857 57.8857 32.7427Z" fill="white"/>
<path d="M52.5715 30.5142C52.6286 30.5713 52.7429 30.5713 52.8 30.5713C52.9715 30.5713 53.1429 30.457 53.2 30.3427L53.8286 29.1999C53.9429 28.9713 53.8858 28.6856 53.6572 28.5713C53.6 28.5142 53.4858 28.5142 53.4286 28.5142C53.2572 28.5142 53.0858 28.6284 53.0286 28.7427L52.4 29.8856C52.2858 30.1142 52.3429 30.3999 52.5715 30.5142Z" fill="white"/>
<path d="M56.1143 39.0285C56.1143 38.9142 56.1143 38.8571 56.1143 38.7428V38.6856C56.2286 36.2285 55.4857 34.0571 53.9428 32.6285C52.4 31.1428 50.1714 30.4571 47.7143 30.7428C42.8571 31.1999 39.5428 34.4571 39.5428 38.8571C39.5428 41.0856 40.3428 43.5428 41.7714 45.4856C42.7428 46.8571 43.2571 48.4571 43.2571 50.2285V52.5714C43.2571 52.7999 43.4286 52.9714 43.6571 52.9714H52.5143C52.7428 52.9714 52.9143 52.7999 52.9143 52.5714V48.2285C52.9143 48.0571 53.0857 47.8856 53.2571 47.8856H54.6857C55.6 47.8856 56.3428 47.1428 56.3428 46.2285V43.9999L57.1428 43.8856C57.3714 43.8285 57.6571 43.7142 57.7714 43.5428C57.8857 43.3142 57.8286 43.0285 57.7143 42.7999L56.1143 39.0285ZM53.9428 39.3142V39.5428C53.9428 40.4571 53.0857 41.2571 52.1714 41.2571C52.0571 41.2571 51.9428 41.2571 51.8286 41.1999L51.7714 41.2571C51.4857 41.9999 50.9143 42.3428 50.1714 42.3428C50.1143 42.3428 50.0571 42.3428 50 42.3428C49.7143 42.3428 49.4286 42.2285 49.2 42.1142C48.9143 42.4571 48.5143 42.6285 48.0571 42.6285C47.7143 42.6285 47.4286 42.5142 47.1428 42.3428C46.6857 42.9142 45.8857 43.3142 45.0286 43.3142C43.6571 43.3142 42.5143 42.3999 42.5143 41.2571C42.5143 41.0856 42.5143 40.9714 42.5714 40.7999C42 40.5142 41.6571 39.9428 41.6571 39.3142C41.6571 39.1428 41.7143 38.9714 41.7714 38.8571C41.5428 38.5714 41.3714 38.1714 41.3714 37.7714C41.3714 37.0856 41.7714 36.4571 42.4 36.1142C42.5143 35.2571 43.3143 34.5142 44.2857 34.3999C44.5143 33.5999 45.2 33.0856 46 33.0856C46.4 33.0856 46.7428 33.1999 47.0286 33.4285C47.3714 32.9142 47.9428 32.6285 48.5143 32.6285C49.1428 32.6285 49.7714 32.9714 50.0571 33.4856C50.2857 33.3714 50.5143 33.3142 50.7428 33.3142C51.5428 33.3142 52.2286 33.8285 52.4571 34.5142C53.4286 34.5714 54.1714 35.3714 54.1714 36.2856C54.1714 36.5714 54.1143 36.7999 54 37.0285C54.3428 37.2571 54.5714 37.6571 54.5714 38.0571C54.6857 38.6285 54.4 39.0285 53.9428 39.3142Z" fill="white"/>
<path d="M53.6 37.7142C53.4857 37.8285 53.3142 37.9428 53.1428 37.9999C53.0857 37.9999 53.0285 38.0571 52.9714 38.0571C52.8 38.0571 52.6857 37.9428 52.6285 37.8285C52.5142 37.6571 52.6285 37.3714 52.8571 37.3142C52.9714 37.2571 53.1428 37.1428 53.2 37.0285C53.3714 36.8571 53.4285 36.6285 53.4285 36.3428C53.4285 35.8285 53.0285 35.4285 52.5714 35.3142C52.5714 35.4856 52.5142 35.6571 52.4 35.7714C52.3428 35.8856 52.1714 35.9999 52.0571 35.9999C52 35.9999 51.9428 35.9999 51.8857 35.9428C51.7142 35.8285 51.6 35.5999 51.7142 35.4285C51.7714 35.3142 51.8285 35.1999 51.8285 35.0285C51.8285 34.5142 51.3714 34.1142 50.8 34.1142C50.3428 34.1142 50.1142 34.3999 50.0571 34.6856C50 34.9142 49.7714 35.0285 49.5428 34.9142C49.3142 34.8571 49.2 34.6285 49.3142 34.3999C49.3714 34.2285 49.4285 34.1142 49.5428 33.9428C49.3714 33.5428 49.0285 33.3142 48.6285 33.3142C48.2285 33.3142 47.8285 33.5999 47.6571 33.9999C47.7714 34.2285 47.8857 34.5142 47.8857 34.8571V35.0285C47.8857 35.1999 47.7142 35.3714 47.4857 35.3714H47.4285C47.2 35.3714 47.0857 35.1428 47.0857 34.9142C47.0857 34.8571 47.0857 34.8571 47.0857 34.7999C47.0857 34.2285 46.6285 33.7714 46.0571 33.7714C45.6571 33.7714 45.3142 33.9999 45.1428 34.3428C45.2571 34.3428 45.3714 34.3999 45.4857 34.4571C45.7142 34.5142 45.7714 34.7428 45.7142 34.9714C45.6571 35.1999 45.4285 35.2571 45.2 35.1999C45.0285 35.1428 44.8 35.0856 44.6285 35.0856C44 35.0856 43.4857 35.3714 43.3142 35.8285C43.5428 35.8285 43.7142 35.9999 43.7142 36.2285C43.7142 36.4571 43.5428 36.6285 43.3142 36.6285C42.6857 36.6285 42.1714 37.0856 42.1714 37.7142C42.1714 37.8285 42.1714 37.9428 42.2285 38.0571C42.5142 37.8285 42.8 37.6571 43.2 37.5428C43.4285 37.4856 43.6 37.6571 43.6571 37.8285C43.7142 38.0571 43.5428 38.2285 43.3714 38.2856C42.8571 38.3999 42.4571 38.7999 42.4571 39.1999C42.4571 39.7142 42.9714 40.1714 43.6 40.1714C43.8857 40.1714 44.1714 40.0571 44.4 39.8856C44.5714 39.7714 44.8 39.7714 44.9714 39.9428C45.0857 40.1142 45.0857 40.3428 44.9142 40.5142C44.5714 40.9714 44.1142 41.1428 43.6 41.1428C43.4857 41.1428 43.4285 41.1428 43.3714 41.1428C43.3714 41.1999 43.3142 41.2571 43.3142 41.3714C43.3142 42.0571 44.1142 42.6285 45.0285 42.6285C45.6571 42.6285 46.2285 42.3428 46.5142 41.9999C46.0571 41.7142 45.7142 41.2571 45.7142 40.6856C45.7142 40.4571 45.7714 40.2285 45.8857 39.9999C46 39.8285 46.2285 39.7142 46.4 39.8285C46.5714 39.9428 46.6857 40.1714 46.5714 40.3428C46.5142 40.4571 46.5142 40.5714 46.5142 40.6856C46.5142 41.0285 46.7428 41.3142 47.1428 41.3714C47.2571 41.3714 47.3714 41.4856 47.4285 41.5999C47.5428 41.8285 47.8285 41.9999 48.1142 41.9999C48.3428 41.9999 48.5142 41.8856 48.6285 41.7714C48.4 41.4856 48.2285 41.1428 48.2285 40.7428C48.2285 40.5142 48.4 40.3428 48.6285 40.3428C48.8571 40.3428 49.0285 40.5142 49.0285 40.7428C49.0285 40.9714 49.1428 41.1999 49.3142 41.4285C49.3714 41.4285 49.3714 41.4856 49.4285 41.4856C49.6 41.5999 49.8285 41.7142 50.1142 41.7142C50.6285 41.7714 50.8571 41.5428 51.0857 41.0856C51.1428 40.9142 51.2571 40.7428 51.3714 40.6285L51.4857 40.5142C51.6 40.3999 51.6571 40.1714 51.6571 39.9999C51.6571 39.7714 51.6 39.5999 51.4285 39.4285C51.3714 39.3714 51.2571 39.2571 51.0857 39.2571C50.8571 39.2571 50.6857 39.0856 50.6857 38.8571C50.6857 38.6285 50.8571 38.4571 51.0857 38.4571C51.4285 38.4571 51.7714 38.5714 52 38.7999C52.2857 39.0856 52.4571 39.4856 52.4571 39.9428C52.4571 40.1142 52.4 40.3428 52.3428 40.5142C52.8571 40.4571 53.2 39.9999 53.2 39.5999C53.2 39.3142 53.0285 39.1428 52.6857 39.0285C52.4571 38.9714 52.3428 38.7428 52.4571 38.5142C52.5142 38.2856 52.7428 38.1714 52.9714 38.2856C53.2571 38.3428 53.4285 38.5142 53.6 38.6856C53.7714 38.5714 53.8857 38.3999 53.8857 38.2285C53.8857 37.9999 53.8285 37.8285 53.6 37.7142ZM49.1428 38.3999C48.9142 38.5714 48.6857 38.6856 48.4571 38.6856C48.4 38.6856 48.4 38.6856 48.3428 38.6856C47.9428 38.6856 47.5428 38.4571 47.3142 38.1142C46.9714 38.1142 46.6857 37.9999 46.4571 37.7714C46.2285 37.5428 46.0571 37.1999 46 36.8571C46 36.6285 46.1714 36.4571 46.3428 36.4571C46.5714 36.4571 46.7428 36.6285 46.7428 36.7999C46.7428 36.9714 46.8 37.0856 46.9142 37.1999C47.0285 37.3142 47.1428 37.3714 47.2571 37.3142H47.3714C47.6 37.2571 47.7714 37.3714 47.8857 37.5428C48 37.7714 48.1714 37.9428 48.4 37.8856C48.5142 37.8856 48.5714 37.8285 48.6285 37.7714C48.8 37.5999 49.0285 37.6571 49.2 37.8285C49.3142 38.0571 49.3142 38.2856 49.1428 38.3999ZM51.1428 37.1428C50.9142 37.1428 50.7428 36.9714 50.7428 36.7428C50.7428 36.4571 50.4571 36.1714 50.1142 36.1714C50.0571 36.1714 50 36.1714 49.9428 36.1714C49.7142 36.2285 49.5428 36.1142 49.4857 35.8856C49.4285 35.6571 49.5428 35.4856 49.7714 35.4285C49.8857 35.3714 50 35.3714 50.1142 35.3714C50.8571 35.3714 51.4857 35.9428 51.4857 36.6856C51.5428 36.9714 51.3714 37.1428 51.1428 37.1428Z" fill="white"/>
</g>
<defs>
<filter id="filter0_d_709_31141" x="0" y="0" width="96" height="96" filterUnits="userSpaceOnUse" color-interpolation-filters="sRGB">
<feFlood flood-opacity="0" result="BackgroundImageFix"/>
<feColorMatrix in="SourceAlpha" type="matrix" values="0 0 0 0 0 0 0 0 0 0 0 0 0 0 0 0 0 0 127 0" result="hardAlpha"/>
<feOffset dy="8"/>
<feGaussianBlur stdDeviation="8"/>
<feComposite in2="hardAlpha" operator="out"/>
<feColorMatrix type="matrix" values="0 0 0 0 0.294118 0 0 0 0 0.203922 0 0 0 0 0.145098 0 0 0 0.05 0"/>
<feBlend mode="normal" in2="BackgroundImageFix" result="effect1_dropShadow_709_31141"/>
<feBlend mode="normal" in="SourceGraphic" in2="effect1_dropShadow_709_31141" result="shape"/>
</filter>
</defs>
</svg>
