<svg width="52" height="50" viewBox="0 0 52 50" fill="none" xmlns="http://www.w3.org/2000/svg">
<path d="M51.9617 26.1527V31.9582L51.223 34.0805L51.9617 39.1163L50.8991 48.3964L40.8637 49.091L28.3464 46.418L13.9945 49.091H0.805176V26.153C0.805176 12.0284 12.2588 0.574707 26.3834 0.574707C33.4473 0.574707 39.8402 3.43727 44.4697 8.06672C49.0991 12.6956 51.9617 19.0917 51.9617 26.1527Z" fill="#FCCE7C"/>
<path d="M20.9865 35.0246L14.9325 38.5162C14.9325 38.5162 5.94003 32.905 5.22078 33.4084C4.50127 33.9119 6.08414 36.5017 6.08414 36.5017C6.08414 36.5017 4.28576 37.0771 4.78923 38.5159C4.78923 38.5159 3.71009 38.5878 4.28576 39.9547C4.86142 41.3215 9.24963 45.1343 12.6306 45.2782C16.0119 45.422 21.9108 40.0985 21.9108 40.0985L20.9865 35.0246Z" fill="#B8B269"/>
<path d="M6.9186 41.5807C6.08595 41.5807 5.00524 41.1163 4.94827 41.0914C4.87687 41.0604 4.84432 40.9775 4.8753 40.9061C4.90627 40.8347 4.9887 40.8016 5.06062 40.8331C5.51974 41.0326 6.83092 41.4896 7.37666 41.2153C7.49715 41.1547 7.57039 41.0615 7.6011 40.9302C7.78485 40.1419 5.77699 39.1447 4.98791 38.8268C4.91572 38.7977 4.88081 38.7155 4.90969 38.6436C4.93882 38.5711 5.02177 38.537 5.09291 38.5654C5.75599 38.8321 7.59559 39.4631 8.13712 39.187C8.21876 39.1452 8.24003 39.0933 8.24921 39.0576C8.38913 38.4976 6.94642 37.2642 6.00405 36.6179C5.93974 36.5738 5.92346 36.4861 5.96756 36.4221C6.01166 36.358 6.09907 36.3415 6.16339 36.3856C6.4293 36.568 8.75531 38.1945 8.52247 39.1258C8.48861 39.2615 8.39962 39.3694 8.26522 39.4379C7.93185 39.6078 7.30316 39.5282 6.68287 39.3775C7.38139 39.8254 8.01244 40.4065 7.87541 40.994C7.82527 41.2087 7.70006 41.3678 7.50319 41.4668C7.34096 41.5484 7.13831 41.5807 6.9186 41.5807Z" fill="#3C2C11"/>
<path d="M51.9614 31.8817V48.8633C51.905 48.9394 51.8488 49.0156 51.7924 49.0914H36.7745C37.0845 48.6378 37.4197 48.201 37.741 47.7868C37.8087 47.7023 37.8736 47.6178 37.9381 47.5361C37.9436 47.5306 37.9494 47.5219 37.9549 47.5164C37.9633 47.5051 37.9691 47.4939 37.9775 47.4855C38.1185 47.3051 38.2565 47.1303 38.3862 46.9641C38.4256 46.9106 38.4652 46.8628 38.5017 46.8119C38.544 46.8597 38.5862 46.9077 38.634 46.9528H38.6369C39.2567 47.5981 40.0513 47.9981 40.9191 48.2039C41.5079 48.3449 42.1308 48.3927 42.7561 48.3701C43.4548 48.3449 44.1565 48.2236 44.813 48.032C47.0558 47.3784 49.1128 46.0005 50.4032 44.0564C51.6966 42.1124 52.1698 39.596 51.4879 37.3674C50.8033 35.1359 48.9154 33.2651 46.6332 32.7831C44.5707 32.3521 42.2715 33.1438 40.9782 34.7865C40.8372 34.964 40.7104 35.1501 40.5949 35.3472C40.7301 35.1726 40.8852 35.0259 41.0598 34.902C42.0911 34.1581 43.7055 34.2765 44.655 35.1697C45.768 36.215 45.9116 38.0691 45.1254 39.3763C44.9196 39.7199 44.6576 40.0244 44.3589 40.2809C43.5165 41.0162 42.3697 41.4078 41.2428 41.3768C41.1837 41.3739 41.1244 41.3739 41.0624 41.3684C41.0034 41.3655 40.944 41.36 40.885 41.3571C40.7891 41.3458 40.6933 41.3346 40.5975 41.3178C40.3891 41.2839 40.1833 41.2332 39.9862 41.1713C39.5691 41.0361 39.1774 40.8361 38.8393 40.5599C38.7209 40.4641 38.6109 40.3628 38.5096 40.2528C38.5096 40.2528 38.5096 40.2499 38.5067 40.2499C38.5067 40.247 38.5038 40.247 38.5038 40.2444C38.2109 39.9373 37.9796 39.5795 37.7938 39.1962C37.7712 39.1485 37.7486 39.1004 37.726 39.0527C37.726 39.0498 37.7231 39.0498 37.7231 39.0471C37.7231 39.0442 37.7203 39.0442 37.7203 39.0416C37.7203 39.0416 37.7203 39.0387 37.7174 39.0387C37.6864 38.9626 37.6554 38.8894 37.6245 38.8133C37.5935 38.7371 37.5625 38.6584 37.537 38.5794C37.5173 38.5287 37.5003 38.478 37.4835 38.4245C37.4441 38.309 37.4102 38.1906 37.3764 38.0722C37.289 37.7509 37.2186 37.4241 37.1706 37.0944C37.1564 37.0044 37.1451 36.9169 37.1341 36.8266C37.0102 35.7982 37.0722 34.7471 37.32 33.7441C37.5567 32.786 37.9623 31.8733 38.5343 31.0645C39.9544 29.0695 42.4001 27.8158 44.8429 27.9594C45.6966 28.0101 46.5363 28.2243 47.3393 28.5314C49.1437 29.2191 50.7216 30.4025 51.9614 31.8817Z" fill="#B8B269"/>
<path d="M42.8694 49.0912H37.7696L37.8709 48.1502L37.9386 47.5359L37.9442 47.4852L37.9526 47.4091L37.9977 46.9807L38.3865 46.9639L38.6345 46.9526H38.6374C39.2572 47.5979 40.0518 47.9979 40.9196 48.2037C41.5084 48.3447 42.1313 48.3924 42.7566 48.3699L42.8694 49.0912Z" fill="#30181B"/>
<path d="M44.3575 40.2821C43.5173 41.0166 42.3686 41.4072 41.2435 41.3778C40.3799 41.3573 39.5073 41.1045 38.8374 40.5612C38.0764 39.9472 37.6359 39.0158 37.3774 38.0729C36.9897 36.6685 36.9721 35.1586 37.3215 33.7456C37.4212 35.3143 37.9706 36.8449 38.9784 38.0467C40.2798 39.5917 42.3657 40.4819 44.3575 40.2821Z" fill="#3C2C11"/>
<path d="M42.3548 39.314C42.2671 39.314 42.1791 39.3085 42.0912 39.2977C41.1885 39.1846 40.4083 38.4879 40.1944 37.6036C40.0946 37.192 40.107 36.7181 40.2303 36.1955C40.3466 35.7025 40.5364 35.246 40.7942 34.8386C40.8378 34.7704 40.9283 34.7499 40.9968 34.7932C41.0654 34.8365 41.0858 34.9274 41.0423 34.9959C40.8018 35.3757 40.6249 35.8018 40.5159 36.263C40.4033 36.7405 40.3913 37.1683 40.4797 37.5345C40.6627 38.2908 41.3557 38.9095 42.1274 39.0064C42.8981 39.1016 43.7234 38.6746 44.0875 37.9868C44.329 37.5311 44.3579 36.9898 44.1634 36.5748C43.9539 36.1275 43.473 35.8403 43.0244 35.8892C42.6981 35.9254 42.392 36.1383 42.2445 36.4315C42.0972 36.7247 42.1088 37.0972 42.2744 37.3807C42.3154 37.4508 42.2918 37.5408 42.2217 37.5818C42.1513 37.6227 42.0616 37.5988 42.0206 37.529C41.8027 37.1563 41.788 36.6853 41.9817 36.2995C42.1757 35.9138 42.5627 35.6448 42.9916 35.5973C43.5644 35.5311 44.1678 35.8926 44.429 36.4501C44.6653 36.9544 44.6346 37.5802 44.3469 38.1244C43.9634 38.8502 43.1698 39.314 42.3548 39.314Z" fill="#3C2C11"/>
<path d="M40.9195 48.2041C40.9111 48.5 40.8941 48.7958 40.8689 49.0916H14.2563C14.3634 47.5054 14.7974 45.9416 15.5187 44.5244V44.5215C15.6032 44.3496 15.6962 44.1805 15.792 44.0144C16.3724 43.0027 17.0966 42.0816 17.767 41.1292C18.1558 40.5714 18.5335 39.991 18.8716 39.3907C19.0323 39.1061 19.1843 38.8158 19.3252 38.52C19.3733 38.4213 19.4181 38.3228 19.4633 38.2241C19.5394 38.0609 19.6098 37.8944 19.6746 37.7283C19.7027 37.6634 19.7282 37.6015 19.7507 37.5366C19.8098 37.3844 19.8633 37.2324 19.9114 37.0802C19.9311 37.0295 19.9452 36.9815 19.962 36.9279C20.0185 36.7533 20.0691 36.5785 20.1114 36.4011C20.1311 36.3307 20.1453 36.263 20.1594 36.1927C20.165 36.1814 20.1678 36.1701 20.1678 36.1588C20.1791 36.1136 20.1904 36.0685 20.1988 36.0236C20.2185 35.942 20.2327 35.863 20.2466 35.7813V35.7784C20.255 35.7333 20.2634 35.6881 20.2692 35.6459C20.2833 35.5726 20.2946 35.4965 20.303 35.4204V35.4175C20.3256 35.2681 20.3424 35.1188 20.3511 34.9668C20.3566 34.8935 20.3624 34.8174 20.3652 34.7413C20.3708 34.6652 20.3736 34.589 20.3736 34.5129C20.3765 34.2116 20.3595 33.91 20.3259 33.6028L33.7546 24.9697C33.6926 26.0911 33.7178 27.218 33.8249 28.3368C33.8814 28.9314 33.963 29.5259 34.0701 30.1147C34.0701 30.1147 34.0672 30.1176 34.0701 30.1176C34.5408 32.7943 35.4931 35.3836 36.882 37.7196C37.1524 38.1648 37.4314 38.6042 37.7189 39.0381C37.7217 39.0381 37.7217 39.041 37.7217 39.041C37.7217 39.0439 37.7246 39.0439 37.7246 39.0465C37.7246 39.0494 37.7275 39.0494 37.7275 39.0521C37.9869 39.4495 38.2488 39.8467 38.5053 40.2438C38.5053 40.2467 38.5082 40.2467 38.5082 40.2493C38.5111 40.2493 38.5111 40.2522 38.5111 40.2522C38.9534 40.9368 39.376 41.6301 39.7341 42.354C39.8973 42.6838 40.0496 43.0219 40.1822 43.3683C40.7702 44.9048 40.9786 46.553 40.9195 48.2041Z" fill="#B8B269"/>
<path d="M27.3212 36.8677C26.3841 38.2162 24.9768 39.1974 23.4462 39.7938C22.2476 40.2608 20.8608 40.49 19.6945 39.9466C19.3918 39.8056 19.1157 39.6145 18.8718 39.3914C19.7297 37.8665 20.3494 36.2128 20.3731 34.5147C20.5083 34.5294 20.6403 34.538 20.7755 34.5441C23.4372 34.6674 26.1339 33.8595 28.2903 32.2908C28.646 33.8949 28.2612 35.5224 27.3212 36.8677Z" fill="#3C2C11"/>
<path d="M20.4464 35.8045C20.2829 37.1401 19.6886 38.3377 18.9701 39.4759C18.6517 39.9801 18.3107 40.4705 17.9726 40.9579L17.8542 41.127C17.1639 42.1245 16.4341 43.2149 15.8115 44.3841C15.2508 45.4352 14.7775 46.5508 14.4955 47.7202C14.3856 48.1796 14.3097 48.6416 14.2645 49.0923H13.9716C14.0167 48.6161 14.0955 48.1371 14.211 47.6525C14.4675 46.5791 14.8788 45.5619 15.3718 44.5925V44.5896C16.0367 43.2766 16.8481 42.0623 17.6117 40.9606L17.7301 40.7915C18.8034 39.2475 19.9109 37.6526 20.1448 35.8214V35.8185C20.1503 35.8017 20.1503 35.7875 20.1532 35.7707C20.1616 35.7058 20.2096 35.6581 20.2687 35.6468C20.2829 35.6413 20.2997 35.6384 20.3165 35.6413C20.3558 35.6468 20.3897 35.6694 20.4123 35.6977C20.438 35.7255 20.4522 35.7652 20.4464 35.8045Z" fill="#3C2C11"/>
<path d="M33.2394 18.2781C33.3423 20.7576 34.7876 27.7761 33.1365 30.8725C31.503 33.9338 28.148 35.8845 20.9828 35.0266C20.8389 35.3379 20.6097 35.6054 20.2982 35.7582C19.8545 35.9727 19.3022 35.9228 18.8675 35.6936C18.4297 35.4616 18.1008 35.0678 17.8805 34.6331C17.5015 35.1119 16.7935 35.3117 16.2089 35.1061C15.6243 34.9006 15.2101 34.3042 15.2277 33.6989C14.9749 34.1336 14.405 34.3627 13.9115 34.2276C13.4209 34.0895 13.0595 33.5989 13.0802 33.0993C12.6308 33.4813 11.9491 33.581 11.4026 33.3403C10.8416 33.0964 10.5242 32.556 10.4654 31.9771C9.83097 32.5441 8.93191 31.895 8.57649 31.3219C8.37961 30.9988 8.32685 30.6581 8.37672 30.326C5.56509 28.625 3.22385 25.9134 3.34722 21.4362C3.35011 21.2658 3.37085 21.0955 3.40602 20.928C3.41784 20.8516 3.43831 20.7752 3.46194 20.6988C3.55591 20.3521 3.7205 20.0232 3.94074 19.7294C5.63885 17.4819 11.0826 10.675 15.3836 9.81716C20.5454 8.78291 22.6076 10.3311 25.807 9.92006C29.0063 9.50584 33.2397 9.1974 34.1681 11.2628C35.0961 13.325 33.1365 15.8016 33.2394 18.2781Z" fill="#B8B269"/>
<path d="M23.7582 20.6323C23.0009 20.6323 22.2455 20.512 21.5343 20.2666C20.6327 19.9553 20.0171 19.4917 19.7047 18.889C19.6333 18.7507 19.6874 18.5808 19.8255 18.5092C19.9641 18.438 20.1336 18.4918 20.2053 18.6299C20.4486 19.1001 20.9576 19.4715 21.7181 19.734C23.5312 20.3601 25.6556 20.0991 27.2634 19.0541C27.3941 18.9693 27.5687 19.0063 27.6532 19.1368C27.738 19.2673 27.701 19.4418 27.5705 19.5266C26.4512 20.2537 25.1015 20.6323 23.7582 20.6323Z" fill="#3C2C11"/>
<path d="M18.3111 24.0018C17.7499 24.1664 17.1477 24.2457 16.5072 24.2457C15.4231 24.2457 14.2334 24.0136 12.9435 23.5495C12.1093 23.2498 11.2895 22.8825 10.4962 22.5271C9.67065 22.157 8.81884 21.775 7.95495 21.4724C6.25106 20.8731 4.72331 20.6909 3.40714 20.9287C3.41895 20.8524 3.43942 20.776 3.46305 20.6996C4.79681 20.4762 6.32745 20.6644 8.02845 21.2637C8.901 21.5721 9.75596 21.9541 10.5873 22.3271C11.3745 22.6796 12.1914 23.0469 13.017 23.3435C15.0235 24.0633 16.7833 24.216 18.2494 23.79C18.3082 23.7724 18.367 23.8076 18.3846 23.8664C18.4022 23.9254 18.3699 23.9842 18.3111 24.0018Z" fill="#30181B"/>
<path d="M9.19414 17.4768C8.73424 17.5133 8.28983 17.7194 7.96485 18.0467C7.63988 18.374 7.43696 18.82 7.40363 19.2799C7.87271 19.167 8.25806 19.0455 8.63738 18.7468C9.01643 18.4486 9.30675 17.9462 9.19414 17.4768Z" fill="#30181B"/>
<path d="M13.0584 15.3782C13.0132 15.1359 12.8948 14.9443 12.7258 14.8401C12.5651 14.7388 12.368 14.7133 12.1538 14.7668C11.8411 14.8456 11.5057 15.0881 11.3479 15.3614C11.2182 15.5756 11.1731 15.8066 11.2211 16.0121C11.2663 16.229 11.4295 16.4264 11.6493 16.5419C11.7818 16.6096 11.9309 16.6461 12.0832 16.6461C12.3932 16.6461 12.7058 16.5051 12.8917 16.2544C13.05 16.0402 13.1177 15.6882 13.0584 15.3782ZM12.7147 16.1221C12.5005 16.4125 12.0695 16.5109 11.7511 16.3476C11.5876 16.2602 11.4694 16.1166 11.4356 15.9617C11.4272 15.9279 11.4243 15.8885 11.4243 15.8491C11.4243 15.7307 11.461 15.6011 11.5343 15.4743C11.6443 15.2884 11.9175 15.0517 12.2076 14.9813C12.264 14.9671 12.3202 14.9587 12.3682 14.9587C12.4583 14.9587 12.5402 14.9842 12.6076 15.0236C12.726 15.0968 12.8077 15.2407 12.8415 15.4181C12.8893 15.6683 12.8358 15.9586 12.7147 16.1221Z" fill="#30181B"/>
<path d="M14.9115 13.655C14.8663 13.4127 14.7453 13.2182 14.5763 13.114C14.4185 13.0153 14.2214 12.9901 14.0072 13.0436C13.6945 13.1198 13.3591 13.3649 13.1958 13.6382C13.0719 13.8524 13.0267 14.0834 13.0719 14.2863C13.1197 14.506 13.2832 14.7034 13.5029 14.816C13.6355 14.8864 13.7846 14.9202 13.9339 14.9202C14.2466 14.9202 14.5566 14.7822 14.7453 14.5286C14.9031 14.317 14.9708 13.965 14.9115 13.655ZM14.565 14.3989C14.3508 14.6892 13.9198 14.7877 13.6014 14.6244C13.4407 14.537 13.3223 14.3934 13.2887 14.2383C13.2803 14.1989 13.2745 14.1621 13.2745 14.1199C13.2745 14.0015 13.3139 13.8747 13.3872 13.7508C13.4971 13.5621 13.7704 13.3282 14.0605 13.2578C14.1169 13.2437 14.1705 13.2353 14.2211 13.2353C14.3112 13.2353 14.3902 13.2578 14.4605 13.3001C14.576 13.3733 14.6605 13.5114 14.6944 13.6946C14.7424 13.9451 14.6889 14.2354 14.565 14.3989Z" fill="#30181B"/>
<path d="M16.9822 12.0805C16.937 11.8354 16.8187 11.6437 16.6496 11.5395C16.489 11.4408 16.2918 11.4156 16.0805 11.4692C15.765 11.5453 15.4324 11.7876 15.2717 12.0608C15.1421 12.2806 15.0972 12.5089 15.145 12.7116C15.193 12.9284 15.3534 13.1287 15.5734 13.2442C15.7085 13.3145 15.8579 13.3455 16.0073 13.3455C16.3173 13.3455 16.6299 13.2046 16.816 12.9539C16.9738 12.7397 17.0415 12.3903 16.9822 12.0805ZM16.6386 12.8242C16.4244 13.1143 15.9934 13.213 15.6749 13.0497C15.5114 12.9623 15.3933 12.8187 15.3594 12.6635C15.3256 12.5142 15.3623 12.3396 15.4581 12.1761C15.5707 11.9873 15.8443 11.7535 16.1343 11.6831C16.2892 11.6437 16.4218 11.6605 16.5315 11.7283C16.6499 11.8015 16.7344 11.9396 16.7654 12.1199C16.8131 12.3706 16.7625 12.658 16.6386 12.8242Z" fill="#30181B"/>
<path d="M19.3343 11.0025C19.2865 10.7573 19.1682 10.5686 18.9991 10.4615C18.8385 10.3657 18.6442 10.3376 18.43 10.3911C18.1145 10.4672 17.7819 10.715 17.6212 10.9857C17.4916 11.2028 17.4464 11.4309 17.4945 11.6338C17.5451 11.8535 17.7029 12.0509 17.9229 12.1664C18.058 12.2368 18.2074 12.2677 18.3568 12.2677C18.6668 12.2677 18.9794 12.1297 19.1655 11.879C19.323 11.6648 19.3908 11.3154 19.3343 11.0025ZM18.9904 11.7493C18.7736 12.0367 18.3423 12.1352 18.0268 11.9719C17.8606 11.8874 17.7451 11.7438 17.7084 11.5886C17.7 11.5519 17.6971 11.5125 17.6971 11.476C17.6971 11.355 17.7339 11.2225 17.8071 11.0986C17.9197 10.9127 18.193 10.6759 18.4804 10.6056C18.5395 10.5914 18.593 10.5859 18.6439 10.5859C18.7314 10.5859 18.813 10.6056 18.8807 10.6507C18.9991 10.724 19.0836 10.862 19.1146 11.0453C19.1624 11.2928 19.1117 11.5802 18.9904 11.7493Z" fill="#30181B"/>
<path d="M27.1378 23.8414C27.1378 25.0704 25.7833 26.0666 24.1124 26.0666C22.4416 26.0666 21.0871 25.0704 21.0871 23.8414C21.0871 22.6124 22.4416 21.6162 24.1124 21.6162C25.7833 21.6162 27.1378 22.6124 27.1378 23.8414Z" fill="#E8A9BD"/>
<path d="M39.6462 42.5706C39.9662 41.8303 40.1197 40.9775 39.852 40.2168C39.5842 39.456 38.8088 38.8428 38.01 38.9528C38.2308 38.4885 38.2008 37.9136 37.9328 37.4747C37.6648 37.0358 37.1674 36.7463 36.6534 36.7302C36.8889 36.3039 36.9676 35.7726 36.777 35.3243C36.5865 34.8762 36.0935 34.5496 35.6134 34.6315C35.9594 34.3273 36.1043 33.8136 35.9685 33.3734C35.8328 32.9332 35.4236 32.5906 34.9663 32.5342C35.0928 32.1945 35.201 31.8391 35.1881 31.4768C35.1753 31.1146 35.0238 30.7408 34.723 30.5384C34.5883 30.4476 34.4313 30.3953 34.293 30.31C33.9155 30.0766 33.7197 29.5839 33.8344 29.1553C33.2858 32.1814 32.7836 35.2965 33.6858 38.2365C34.0859 39.5398 34.745 40.8021 35.7919 41.6752C36.8393 42.5478 38.3555 43.009 39.6462 42.5706Z" fill="#B8B269"/>
<path d="M38.5272 49.0911H30.5729L29.9644 38.804L30.0996 38.7449L33.4413 37.2657L34.3542 36.8628L36.0702 41.8894L37.9523 47.409L37.9775 47.4851L38.5272 49.0911Z" fill="#B8B269"/>
<path d="M30.8605 49.0905H30.5647L29.8181 38.8147C29.8126 38.733 29.8746 38.6624 29.9533 38.6569C30.0181 38.654 30.0746 38.6908 30.0998 38.7443C30.1053 38.7585 30.1111 38.7753 30.1111 38.7921L30.8605 49.0905Z" fill="#3C2C11"/>
<path d="M37.957 47.5165L38.5235 49.0915H38.2135L37.8725 48.1504L37.7428 47.7868L35.4126 41.3204L34.9364 40.0045C34.9083 39.9284 34.9477 39.8438 35.0238 39.8186C35.0999 39.7906 35.1845 39.8299 35.2126 39.9061L35.8748 41.7404L37.9457 47.4855L37.957 47.5165Z" fill="#3C2C11"/>
<path d="M42.8826 32.2004C42.6795 31.6332 42.1193 31.2759 41.5636 31.0431C41.0076 30.8102 40.4078 30.6517 39.9293 30.2857C39.1662 29.7022 38.8514 28.6932 38.7926 27.7345C38.728 26.6814 38.922 25.6135 39.3531 24.6504C40.4325 25.0751 41.6725 25.4368 42.5839 26.1543C43.4953 26.8717 44.2117 27.9264 44.2442 29.0859C44.2728 30.1091 43.4641 31.3583 42.8826 32.2004Z" fill="#917D44"/>
<path d="M39.5023 24.4443C39.7263 25.2539 40.4778 25.7784 41.0823 26.3616C42.5917 27.8175 43.3482 30.0156 43.055 32.092" stroke="#3C2C11" stroke-width="0.220342" stroke-miterlimit="10" stroke-linecap="round" stroke-linejoin="round"/>
<path d="M17.3949 6.71302C17.9632 6.51247 18.5937 6.72142 19.1253 7.00571C19.6566 7.29 20.1582 7.65487 20.7444 7.79531C21.6786 8.01896 22.6598 7.626 23.4405 7.06635C24.2981 6.45157 25.0037 5.62706 25.4786 4.68469C24.4677 4.11559 23.4045 3.38216 22.2726 3.12832C21.1407 2.87422 19.8708 2.98447 18.951 3.69112C18.1391 4.3143 17.6807 5.73022 17.3949 6.71302Z" fill="#917D44"/>
<path d="M25.5422 4.43781C24.7731 4.77512 23.8916 4.52339 23.0579 4.42259C20.976 4.17111 18.7936 4.97174 17.3682 6.50999" stroke="#3C2C11" stroke-width="0.220342" stroke-miterlimit="10" stroke-linecap="round" stroke-linejoin="round"/>
<path d="M1.93771 42.9065C2.49343 43.1399 2.81998 43.7184 3.02236 44.2859C3.22475 44.8535 3.35101 45.4612 3.69069 45.9586C4.23223 46.7519 5.2229 47.1204 6.17709 47.2307C7.22525 47.3519 8.30203 47.2154 9.28693 46.8369C8.92074 45.7363 8.62648 44.4786 7.95894 43.5297C7.29166 42.581 6.2771 41.809 5.12105 41.714C4.10071 41.6308 2.81 42.371 1.93771 42.9065Z" fill="#917D44"/>
<path d="M9.49988 46.6984C8.70346 46.4314 8.2202 45.6526 7.67052 45.0174C6.29791 43.4319 4.14383 42.558 2.0546 42.7391" stroke="#3C2C11" stroke-width="0.220342" stroke-miterlimit="10" stroke-linecap="round" stroke-linejoin="round"/>
</svg>
