<svg width="25" height="24" viewBox="0 0 25 24" fill="none" xmlns="http://www.w3.org/2000/svg">
<path d="M22.5 14V10C22.5 6.22876 22.5 4.34315 21.3284 3.17157C20.1569 2 18.2712 2 14.5 2H12.5C8.72876 2 6.84315 2 5.67157 3.17157C4.5 4.34315 4.5 6.22876 4.5 10V14C4.5 17.7712 4.5 19.6569 5.67157 20.8284C6.84315 22 8.72876 22 12.5 22H14.5C18.2712 22 20.1569 22 21.3284 20.8284C22.5 19.6569 22.5 17.7712 22.5 14Z" stroke="white" stroke-width="1.5"/>
<path d="M12.2857 10H15.7143C16.7918 10 17.3305 10 17.6653 9.70711C18 9.41421 18 8.94281 18 8C18 7.05719 18 6.58579 17.6653 6.29289C17.3305 6 16.7918 6 15.7143 6H12.2857C11.2082 6 10.6695 6 10.3347 6.29289C10 6.58579 10 7.05719 10 8C10 8.94281 10 9.41421 10.3347 9.70711C10.6695 10 11.2082 10 12.2857 10Z" stroke="white" stroke-width="1.5"/>
<path d="M5.5 6L2.5 6M5.5 12H2.5M5.5 18H2.5" stroke="white" stroke-width="1.5" stroke-linecap="round" stroke-linejoin="round"/>
</svg>
