<svg width="20" height="20" viewBox="0 0 20 20" fill="none" xmlns="http://www.w3.org/2000/svg">
<path d="M18.3333 5.65264C18.3333 7.85395 16.4676 9.63877 14.1667 9.63877C13.8961 9.63911 13.6264 9.6141 13.3606 9.56419C13.1693 9.52827 13.0737 9.51031 13.0069 9.52051C12.9401 9.5307 12.8455 9.58102 12.6562 9.68167C12.1209 9.96637 11.4966 10.0669 10.8963 9.95524C11.1245 9.67459 11.2803 9.33784 11.3491 8.97683C11.3907 8.75602 11.2875 8.54149 11.1329 8.38446C10.4306 7.67131 10 6.71029 10 5.65264C10 3.45132 11.8657 1.6665 14.1667 1.6665C16.4676 1.6665 18.3333 3.45132 18.3333 5.65264Z" fill="#FFDA7D" stroke="#FFDA7D" stroke-width="1.5" stroke-linejoin="round"/>
<path fill-rule="evenodd" clip-rule="evenodd" d="M12.9103 5.83301H12.9171H12.9103Z" fill="#FFDA7D"/>
<path fill-rule="evenodd" clip-rule="evenodd" d="M15.4103 5.83301H15.4171H15.4103Z" fill="#FFDA7D"/>
<path d="M12.9103 5.83301H12.9171M15.4103 5.83301H15.4171" stroke="#FFFBF2" stroke-width="1.5" stroke-linecap="round"/>
<path d="M3.48866 15.2776C2.76818 15.6725 0.87911 16.4788 2.02968 17.4877C2.59172 17.9806 3.21769 18.3331 4.00469 18.3331H6.25008H8.49547C9.28247 18.3331 9.90844 17.9806 10.4705 17.4877C11.6211 16.4788 9.73199 15.6725 9.0115 15.2776C7.32198 14.3516 5.17819 14.3516 3.48866 15.2776Z" fill="#FFDA7D"/>
<path d="M8.54175 10.2082C8.54175 8.94252 7.51573 7.9165 6.25008 7.9165C4.98443 7.9165 3.95841 8.94252 3.95841 10.2082C3.95841 11.4738 4.98443 12.4998 6.25008 12.4998C7.51573 12.4998 8.54175 11.4738 8.54175 10.2082Z" fill="#FFDA7D"/>
<path d="M3.48866 15.2776L3.12819 14.6199L3.48866 15.2776ZM9.0115 15.2776L9.37197 14.6199H9.37197L9.0115 15.2776ZM2.02968 17.4877L1.53518 18.0516H1.53519L2.02968 17.4877ZM10.4705 17.4877L9.97599 16.9238L10.4705 17.4877ZM3.48866 15.2776L3.84913 15.9353C5.3141 15.1323 7.18606 15.1323 8.65103 15.9353L9.0115 15.2776L9.37197 14.6199C7.45789 13.5708 5.04227 13.5708 3.12819 14.6199L3.48866 15.2776ZM2.02968 17.4877L2.52417 16.9238C2.34978 16.7709 2.42806 16.7566 2.4157 16.8607C2.41009 16.9079 2.39749 16.8556 2.55954 16.7096C2.89197 16.4101 3.40749 16.1773 3.84913 15.9353L3.48866 15.2776L3.12819 14.6199C2.84935 14.7727 2.0601 15.1405 1.55551 15.5952C1.29906 15.8262 0.984883 16.1893 0.926163 16.6838C0.860681 17.2352 1.13429 17.7001 1.53518 18.0516L2.02968 17.4877ZM9.0115 15.2776L8.65103 15.9353C9.09268 16.1773 9.6082 16.4101 9.94062 16.7096C10.1027 16.8556 10.0901 16.9079 10.0845 16.8607C10.0721 16.7566 10.1504 16.7709 9.97599 16.9238L10.4705 17.4877L10.965 18.0516C11.3659 17.7001 11.6395 17.2352 11.574 16.6838C11.5153 16.1893 11.2011 15.8262 10.9447 15.5952C10.4401 15.1405 9.65081 14.7727 9.37197 14.6199L9.0115 15.2776ZM10.4705 17.4877L9.97599 16.9238C9.48779 17.3519 9.03134 17.5831 8.49547 17.5831V18.3331V19.0831C9.5336 19.0831 10.3291 18.6092 10.965 18.0516L10.4705 17.4877ZM2.02968 17.4877L1.53519 18.0516C2.17107 18.6092 2.96656 19.0831 4.00469 19.0831V18.3331V17.5831C3.46882 17.5831 3.01237 17.3519 2.52417 16.9238L2.02968 17.4877ZM8.54175 10.2082H9.29175C9.29175 8.5283 7.92995 7.1665 6.25008 7.1665V7.9165V8.6665C7.10152 8.6665 7.79175 9.35673 7.79175 10.2082H8.54175ZM6.25008 7.9165V7.1665C4.57021 7.1665 3.20841 8.5283 3.20841 10.2082H3.95841H4.70841C4.70841 9.35673 5.39864 8.6665 6.25008 8.6665V7.9165ZM3.95841 10.2082H3.20841C3.20841 11.888 4.57021 13.2498 6.25008 13.2498V12.4998V11.7498C5.39864 11.7498 4.70841 11.0596 4.70841 10.2082H3.95841ZM6.25008 12.4998V13.2498C7.92995 13.2498 9.29175 11.888 9.29175 10.2082H8.54175H7.79175C7.79175 11.0596 7.10152 11.7498 6.25008 11.7498V12.4998ZM4.00469 18.3331V19.0831H6.25008V18.3331V17.5831H4.00469V18.3331ZM6.25008 18.3331V19.0831H8.49547V18.3331V17.5831H6.25008V18.3331Z" fill="#FFDA7D"/>
</svg>
