<svg width="20" height="20" viewBox="0 0 20 20" fill="none" xmlns="http://www.w3.org/2000/svg">
<path d="M18.3331 5.65264C18.3331 7.85395 16.4673 9.63877 14.1664 9.63877C13.8959 9.63911 13.6261 9.6141 13.3603 9.56419C13.1691 9.52827 13.0734 9.51031 13.0066 9.52051C12.9399 9.5307 12.8452 9.58102 12.656 9.68167C12.1206 9.96637 11.4964 10.0669 10.8961 9.95524C11.1242 9.67459 11.2801 9.33784 11.3488 8.97683C11.3905 8.75602 11.2873 8.54149 11.1326 8.38446C10.4303 7.67131 9.99976 6.71029 9.99976 5.65264C9.99976 3.45132 11.8655 1.6665 14.1664 1.6665C16.4673 1.6665 18.3331 3.45132 18.3331 5.65264Z" fill="#FFDA7D" stroke="#FFDA7D" stroke-width="1.5" stroke-linejoin="round"/>
<path fill-rule="evenodd" clip-rule="evenodd" d="M12.9103 5.8335H12.9171H12.9103Z" fill="#FFDA7D"/>
<path fill-rule="evenodd" clip-rule="evenodd" d="M15.4103 5.8335H15.4171H15.4103Z" fill="#FFDA7D"/>
<path d="M12.9103 5.8335H12.9171M15.4103 5.8335H15.4171" stroke="#FFFBF2" stroke-width="1.5" stroke-linecap="round"/>
<path d="M3.48842 15.2776C2.76793 15.6725 0.878865 16.4788 2.02943 17.4877C2.59148 17.9806 3.21745 18.3331 4.00445 18.3331H6.24984H8.49523C9.28223 18.3331 9.9082 17.9806 10.4702 17.4877C11.6208 16.4788 9.73174 15.6725 9.01126 15.2776C7.32173 14.3516 5.17794 14.3516 3.48842 15.2776Z" fill="#FFDA7D"/>
<path d="M8.5415 10.2082C8.5415 8.94252 7.51549 7.9165 6.24984 7.9165C4.98418 7.9165 3.95817 8.94252 3.95817 10.2082C3.95817 11.4738 4.98418 12.4998 6.24984 12.4998C7.51549 12.4998 8.5415 11.4738 8.5415 10.2082Z" fill="#FFDA7D"/>
<path d="M3.48842 15.2776L3.12795 14.6199L3.48842 15.2776ZM9.01126 15.2776L9.37173 14.6199H9.37173L9.01126 15.2776ZM2.02943 17.4877L1.53494 18.0516H1.53494L2.02943 17.4877ZM10.4702 17.4877L9.97575 16.9238L10.4702 17.4877ZM3.48842 15.2776L3.84889 15.9353C5.31386 15.1323 7.18582 15.1323 8.65079 15.9353L9.01126 15.2776L9.37173 14.6199C7.45765 13.5708 5.04203 13.5708 3.12795 14.6199L3.48842 15.2776ZM2.02943 17.4877L2.52393 16.9238C2.34954 16.7709 2.42782 16.7566 2.41545 16.8607C2.40985 16.9079 2.39724 16.8556 2.5593 16.7096C2.89172 16.4101 3.40724 16.1773 3.84889 15.9353L3.48842 15.2776L3.12795 14.6199C2.84911 14.7727 2.05985 15.1405 1.55526 15.5952C1.29881 15.8262 0.984639 16.1893 0.925919 16.6838C0.860436 17.2352 1.13405 17.7001 1.53494 18.0516L2.02943 17.4877ZM9.01126 15.2776L8.65079 15.9353C9.09243 16.1773 9.60795 16.4101 9.94038 16.7096C10.1024 16.8556 10.0898 16.9079 10.0842 16.8607C10.0719 16.7566 10.1501 16.7709 9.97575 16.9238L10.4702 17.4877L10.9647 18.0516C11.3656 17.7001 11.6392 17.2352 11.5738 16.6838C11.515 16.1893 11.2009 15.8262 10.9444 15.5952C10.4398 15.1405 9.65057 14.7727 9.37173 14.6199L9.01126 15.2776ZM10.4702 17.4877L9.97575 16.9238C9.48754 17.3519 9.03109 17.5831 8.49523 17.5831V18.3331V19.0831C9.53336 19.0831 10.3289 18.6092 10.9647 18.0516L10.4702 17.4877ZM2.02943 17.4877L1.53494 18.0516C2.17082 18.6092 2.96632 19.0831 4.00445 19.0831V18.3331V17.5831C3.46858 17.5831 3.01213 17.3519 2.52393 16.9238L2.02943 17.4877ZM8.5415 10.2082H9.2915C9.2915 8.5283 7.9297 7.1665 6.24984 7.1665V7.9165V8.6665C7.10128 8.6665 7.7915 9.35673 7.7915 10.2082H8.5415ZM6.24984 7.9165V7.1665C4.56997 7.1665 3.20817 8.5283 3.20817 10.2082H3.95817H4.70817C4.70817 9.35673 5.3984 8.6665 6.24984 8.6665V7.9165ZM3.95817 10.2082H3.20817C3.20817 11.888 4.56997 13.2498 6.24984 13.2498V12.4998V11.7498C5.3984 11.7498 4.70817 11.0596 4.70817 10.2082H3.95817ZM6.24984 12.4998V13.2498C7.9297 13.2498 9.2915 11.888 9.2915 10.2082H8.5415H7.7915C7.7915 11.0596 7.10128 11.7498 6.24984 11.7498V12.4998ZM4.00445 18.3331V19.0831H6.24984V18.3331V17.5831H4.00445V18.3331ZM6.24984 18.3331V19.0831H8.49523V18.3331V17.5831H6.24984V18.3331Z" fill="#FFDA7D"/>
</svg>
