<svg width="16" height="16" viewBox="0 0 16 16" fill="none" xmlns="http://www.w3.org/2000/svg">
<g clip-path="url(#clip0_1058_13319)">
<path d="M6.48486 1.3335C4.31072 1.3335 3.22365 1.3335 2.46872 1.86539C2.25242 2.01778 2.0604 2.19851 1.89848 2.40209C1.33334 3.11261 1.33334 4.13573 1.33334 6.18198V7.87895C1.33334 9.8544 1.33334 10.8421 1.64597 11.631C2.14855 12.8992 3.21143 13.8996 4.55892 14.3726C5.3971 14.6668 6.44655 14.6668 8.54547 14.6668C9.74484 14.6668 10.3445 14.6668 10.8235 14.4987C11.5935 14.2284 12.2008 13.6568 12.488 12.9321C12.6667 12.4813 12.6667 11.9169 12.6667 10.788V10.3335" stroke="white" stroke-width="1.5" stroke-linecap="round" stroke-linejoin="round"/>
<path d="M10 5.00033C10 5.00033 10.3333 5.00033 10.6667 5.66699C10.6667 5.66699 11.7255 4.00033 12.6667 3.66699" stroke="white" stroke-width="1.5" stroke-linecap="round" stroke-linejoin="round"/>
<path d="M14.6667 4.66683C14.6667 6.50778 13.1743 8.00016 11.3333 8.00016C9.49238 8.00016 8 6.50778 8 4.66683C8 2.82588 9.49238 1.3335 11.3333 1.3335C13.1743 1.3335 14.6667 2.82588 14.6667 4.66683Z" stroke="white" stroke-width="1.5" stroke-linecap="round"/>
<path d="M1.33334 8C1.33334 9.2273 2.32827 10.2222 3.55557 10.2222C3.99942 10.2222 4.5227 10.1444 4.95425 10.2601C5.33769 10.3628 5.63719 10.6623 5.73993 11.0458C5.85556 11.4773 5.77779 12.0006 5.77779 12.4444C5.77779 13.6717 6.77271 14.6667 8.00001 14.6667" stroke="white" stroke-width="1.5" stroke-linecap="round" stroke-linejoin="round"/>
</g>
<defs>
<clipPath id="clip0_1058_13319">
<rect width="16" height="16" fill="white"/>
</clipPath>
</defs>
</svg>
