<svg width="52" height="50" viewBox="0 0 52 50" fill="none" xmlns="http://www.w3.org/2000/svg">
<path d="M48.536 25.5134L51.1649 27.186V30.5492L48.8476 32.036L51.1649 34.53L46.2819 46.9034L2.17141 47.9587L0.00866699 41.592V26.1864C0.00866699 24.9241 0.0987052 23.6843 0.279043 22.4728C0.32393 22.157 1.57107 21.9843 1.62803 21.6733C1.68867 21.3404 0.559918 20.8692 0.634205 20.54C3.20671 9.13153 13.4035 0.608154 25.5869 0.608154C29.7457 0.608154 33.6735 1.59988 37.1419 3.36099C37.5448 3.56679 37.9449 3.78362 38.3366 4.01199C40.1032 5.02918 36.9487 6.23301 38.4166 7.62505C38.5744 7.7773 40.9474 8.28549 41.1023 8.44037C41.3474 8.68554 44.1604 8.5963 44.3914 8.85276C47.4372 12.1521 49.6209 16.2518 50.5958 20.8023C50.9678 22.5374 48.536 23.6651 48.536 25.5134Z" fill="#C97A4D"/>
<path d="M51.1649 26.1857V27.1464H31.763C32.9886 25.3769 34.5384 23.5145 36.677 23.2835C38.7423 23.0609 40.6922 24.4555 42.7659 24.3852C45.1384 24.3062 46.9838 22.3931 49.1168 21.3533C49.593 21.1223 50.0889 20.9362 50.596 20.801C50.9677 22.5369 51.1649 24.3374 51.1649 26.1857Z" fill="#FEE6D5"/>
<path d="M30.4023 22.292C30.2726 22.292 30.1207 22.4723 29.9939 22.4723H0.279388C0.372313 21.8187 0.4907 21.1761 0.634288 20.5395C0.848488 20.6408 1.06269 20.734 1.2824 20.8185C2.53899 21.2918 3.93365 21.3905 5.24668 21.1002C6.66103 20.7876 7.93756 20.0436 9.24219 19.4152C12.6993 17.7499 16.5793 16.8314 20.3971 17.2063C24.2178 17.5837 27.9624 19.3278 30.4023 22.292Z" fill="#FEE6D5"/>
<path d="M44.3923 8.85198L18.5436 8.90264C19.5637 7.77284 20.9019 6.66535 22.415 6.83177C23.2377 6.92207 23.9648 7.38119 24.7171 7.73057C25.7708 8.21515 26.957 8.49419 28.0926 8.27159C29.6169 7.97024 30.8116 6.83466 32.1078 5.97813C33.9534 4.76643 36.1343 4.08471 38.3375 4.01147C40.1041 5.02866 41.7384 6.25139 43.2063 7.64342C43.3641 7.79567 43.5189 7.94478 43.6741 8.09992C43.919 8.34483 44.1613 8.59551 44.3923 8.85198Z" fill="#FEE6D5"/>
<path d="M51.166 30.5331V35.2384C50.2927 34.3396 49.1823 33.6831 47.9596 33.4237C45.8971 32.9927 43.5979 33.7844 42.3045 35.4242C42.1636 35.6017 42.0368 35.7878 41.9213 35.9849C41.9861 35.9033 42.0538 35.8272 42.1271 35.7568C42.2087 35.6778 42.2961 35.6046 42.389 35.5397C43.4204 34.7987 45.0319 34.9171 45.9816 35.8104C47.0946 36.8556 47.2382 38.7097 46.4523 40.0169C46.2465 40.3608 45.9845 40.6621 45.6858 40.9215C45.4012 41.1696 45.0828 41.378 44.7418 41.5441C44.0711 41.871 43.3162 42.0371 42.5723 42.0174C42.4933 42.0145 42.4174 42.0119 42.3384 42.0061C42.2003 41.9977 42.0622 41.9807 41.9242 41.9584C41.8593 41.9471 41.7945 41.9358 41.7325 41.9219C41.6622 41.9077 41.5887 41.8909 41.5183 41.8712C41.4535 41.8544 41.3887 41.8345 41.3238 41.8148C41.2561 41.7922 41.1886 41.7696 41.1238 41.7444C41.0618 41.7219 40.9999 41.6967 40.9379 41.6683C40.9351 41.6683 40.9324 41.6683 40.9295 41.6654C40.8563 41.6344 40.786 41.5977 40.7153 41.5612C40.6505 41.5273 40.5857 41.4909 40.5208 41.4515C40.5124 41.446 40.5011 41.4402 40.4927 41.4347C40.4505 41.4066 40.4082 41.3811 40.366 41.3502C40.2982 41.305 40.2308 41.2543 40.1659 41.2008C39.4052 40.5865 38.9629 39.6568 38.7035 38.7128C38.6642 38.5692 38.6274 38.4228 38.5964 38.276C38.5739 38.1802 38.5542 38.0815 38.5374 37.9831C38.5345 37.9747 38.5345 37.9663 38.5345 37.9576C38.5203 37.8844 38.5093 37.8111 38.498 37.7379C38.4754 37.5998 38.4586 37.4646 38.4445 37.3266C38.4361 37.2252 38.4248 37.1208 38.4193 37.0194C38.4109 36.9236 38.408 36.8307 38.4051 36.7349C38.4022 36.6391 38.3996 36.5461 38.3996 36.4503C38.3996 35.7544 38.4841 35.0586 38.6503 34.385C38.7206 34.1033 38.8025 33.8214 38.9038 33.5481C39.1406 32.8945 39.459 32.2745 39.8617 31.7054C41.2818 29.7104 43.7275 28.4567 46.1704 28.6003C47.024 28.6509 47.8666 28.8651 48.6667 29.1694C49.56 29.5104 50.3998 29.9724 51.166 30.5331Z" fill="#B8B269"/>
<path d="M51.1664 45.4558V49.1242H38.5349C38.983 48.5213 39.4479 47.9548 39.8283 47.4534C39.8902 47.5238 39.955 47.5915 40.0199 47.6564C40.5383 48.1719 41.1722 48.5242 41.8681 48.7413C43.2064 49.161 44.7674 49.0739 46.1395 48.6735C48.0784 48.1073 49.8788 47.0027 51.1664 45.4558Z" fill="#B8B269"/>
<path d="M44.7419 41.5454C44.072 41.8714 43.317 42.0389 42.5707 42.0184C41.7071 41.9979 40.8345 41.7451 40.1646 41.2018C39.4037 40.5878 38.9629 39.6564 38.7046 38.7135C38.3169 37.3092 38.2993 35.7993 38.6487 34.386C38.7193 34.104 38.8015 33.8218 38.9044 33.5486C38.9249 35.1643 39.342 36.7626 40.1912 38.1374C41.2136 39.7827 42.8881 41.0254 44.7419 41.5454Z" fill="#3C2C11"/>
<path d="M43.6789 39.9547C43.5912 39.9547 43.5033 39.9495 43.4153 39.9385C42.5126 39.8251 41.7324 39.1284 41.5185 38.2443C41.419 37.8324 41.4311 37.3586 41.5545 36.8357C41.6705 36.3433 41.8603 35.8868 42.1183 35.4788C42.1619 35.4109 42.2527 35.3904 42.321 35.4334C42.3895 35.477 42.4099 35.5673 42.3664 35.6364C42.1259 36.0162 41.949 36.4422 41.8403 36.9032C41.7277 37.3809 41.7154 37.8088 41.8041 38.1753C41.9871 38.9313 42.6801 39.55 43.4518 39.6468C44.2236 39.7432 45.0481 39.315 45.4119 38.6273C45.6531 38.1713 45.6823 37.6303 45.4878 37.2153C45.2783 36.7682 44.7995 36.4779 44.3488 36.5299C44.0225 36.5659 43.7164 36.7787 43.5691 37.072C43.4219 37.3652 43.4334 37.7379 43.5991 38.0212C43.64 38.091 43.6164 38.181 43.5463 38.222C43.476 38.2624 43.3862 38.2393 43.3452 38.1692C43.1276 37.7967 43.1127 37.3255 43.3066 36.9399C43.5004 36.5541 43.8873 36.2852 44.3165 36.2377C44.8858 36.175 45.4927 36.5333 45.7539 37.0909C45.9902 37.5949 45.9595 38.2209 45.6718 38.7648C45.2877 39.4909 44.4939 39.9547 43.6789 39.9547Z" fill="#3C2C11"/>
<path d="M41.8794 48.5193C41.8765 48.5925 41.8739 48.6658 41.871 48.739C41.8655 48.8687 41.8597 48.9955 41.8484 49.1222H15.2391C15.3771 47.6347 15.7998 46.1723 16.4789 44.8396V44.8367C16.5634 44.6647 16.6563 44.4957 16.7521 44.3295C17.3325 43.3181 18.0568 42.3967 18.7272 41.4444C19.023 41.0218 19.3105 40.585 19.5837 40.1342C19.626 40.061 19.6711 39.9849 19.7134 39.9088C19.7499 39.8497 19.7837 39.7904 19.8176 39.7313C19.8231 39.7229 19.826 39.7145 19.8318 39.7061C20.046 39.3257 20.246 38.9341 20.4234 38.5396C20.4686 38.4409 20.5135 38.3424 20.5531 38.2408C20.6067 38.114 20.6602 37.9873 20.708 37.8576C20.8545 37.4772 20.9784 37.094 21.0742 36.7023C21.0968 36.612 21.1193 36.5191 21.139 36.4291C21.1474 36.3981 21.1532 36.3671 21.1587 36.3388C21.1784 36.2571 21.1926 36.1781 21.2067 36.0965V36.0936C21.2235 36.0035 21.2406 35.9132 21.2519 35.8232C21.2548 35.7922 21.2603 35.7613 21.2632 35.7329C21.2774 35.6455 21.2886 35.5555 21.2942 35.4652C21.3026 35.4061 21.3083 35.3439 21.311 35.2819C21.3139 35.2368 21.3165 35.1919 21.3194 35.1467C21.3222 35.1187 21.3249 35.0877 21.3249 35.0567C21.3304 34.9806 21.3333 34.9045 21.3333 34.8283C21.3362 34.527 21.3191 34.2254 21.2852 33.9182L24.6017 31.7854L28.8308 29.0665L34.652 25.3248L34.7139 25.2854C34.7084 25.3867 34.7027 25.4854 34.7027 25.5868C34.7027 25.5896 34.7027 25.5923 34.7027 25.5923C34.6575 26.6095 34.6859 27.635 34.7843 28.6522C34.8378 29.2213 34.914 29.7878 35.0153 30.3514C35.0208 30.3769 35.0237 30.4049 35.0295 30.4304C35.0295 30.4304 35.0266 30.4333 35.0295 30.4333C35.5001 33.11 36.4525 35.6993 37.8414 38.0353C38.1117 38.4805 38.3908 38.9199 38.6782 39.3538C38.6811 39.3538 38.6811 39.3567 38.6811 39.3567C38.6811 39.3596 38.684 39.3596 38.684 39.3622C38.684 39.3651 38.6869 39.3651 38.6869 39.3677C38.9462 39.7649 39.2082 40.1623 39.4647 40.5595C39.4647 40.5624 39.4676 40.5624 39.4676 40.565C39.4704 40.565 39.4704 40.5679 39.4704 40.5679C39.9128 41.2525 40.3354 41.9429 40.6934 42.6671V42.67C40.8567 42.9997 41.009 43.3378 41.1415 43.6843C41.73 45.2197 41.9387 46.8682 41.8794 48.5193Z" fill="#B8B269"/>
<path d="M28.2799 37.1836C27.3428 38.5321 25.9355 39.5133 24.4049 40.1097C23.2063 40.577 21.8198 40.8059 20.6532 40.2625C20.3506 40.1215 20.0744 39.9304 19.8306 39.7073C20.6884 38.1824 21.3084 36.5287 21.3318 34.8306C21.467 34.8453 21.599 34.8542 21.7342 34.86C24.396 34.9834 27.0929 34.1754 29.2491 32.6067C29.605 34.2106 29.2202 35.8381 28.2799 37.1836Z" fill="#3C2C11"/>
<path d="M40.6052 42.8855C40.9252 42.1453 41.0788 41.2924 40.811 40.5317C40.5433 39.771 39.7679 39.1578 38.9691 39.2678C39.1898 38.8034 39.1599 38.2285 38.8919 37.7896C38.6239 37.3507 38.1265 37.0612 37.6125 37.0452C37.8479 36.6189 37.9267 36.0876 37.7361 35.6392C37.5455 35.1911 37.0526 34.8646 36.5725 34.9465C36.9184 34.6423 37.0633 34.1285 36.9276 33.6883C36.7919 33.2481 36.3827 32.9056 35.9254 32.8491C36.0519 32.5094 36.1601 32.154 36.1472 31.7918C36.1343 31.4295 35.9829 31.0557 35.6821 30.8533C35.5474 30.7628 35.3904 30.7103 35.2521 30.625C34.8746 30.3916 34.6788 29.8989 34.7935 29.4702C34.2449 32.4963 33.7427 35.6114 34.6452 38.5514C35.045 39.8547 35.7044 41.1171 36.7512 41.9902C37.7981 42.8627 39.3143 43.3237 40.6052 42.8855Z" fill="#B8B269"/>
<path d="M34.7524 31.4576C33.5493 34.7118 30.4894 37.0985 23.2761 37.2224C23.1748 37.5521 22.9832 37.8479 22.6957 38.0422C22.2873 38.3128 21.7321 38.338 21.2701 38.1718C20.8052 37.9999 20.4248 37.6563 20.1487 37.2562C19.8387 37.7802 19.1625 38.076 18.5566 37.9492C17.9482 37.8253 17.4578 37.2927 17.393 36.6898C17.2013 37.1547 16.669 37.4589 16.1616 37.3914C15.6544 37.3211 15.2318 36.8843 15.1838 36.3884C14.7892 36.8278 14.1272 37.0195 13.5552 36.8533C12.9664 36.69 12.5777 36.1968 12.4396 35.6306C11.8902 36.2787 10.9097 35.7574 10.4813 35.2389C10.2419 34.946 10.1432 34.6163 10.1461 34.2782C7.13132 32.9764 4.44332 30.6069 3.95586 26.1551C3.93617 25.9861 3.93328 25.8141 3.94457 25.6451C3.94746 25.5661 3.95586 25.4873 3.97003 25.4083V25.4054C3.98132 25.3125 3.99812 25.2196 4.02358 25.1264C4.08265 24.8699 4.18135 24.6192 4.31365 24.3825C5.68862 21.9254 10.1574 14.4418 14.302 13.0078C19.2751 11.2834 21.5292 12.5371 24.6427 11.6948C27.7562 10.8495 31.9092 9.96753 33.1096 11.8893C34.31 13.8053 32.7038 16.5243 33.1435 18.9642C33.5803 21.4073 35.9669 28.1638 34.7524 31.4576Z" fill="#B8B269"/>
<path d="M29.0037 29.8065C29.0037 31.0355 27.6492 32.0317 25.9784 32.0317C24.3076 32.0317 22.9531 31.0355 22.9531 29.8065C22.9531 28.5775 24.3076 27.5813 25.9784 27.5813C27.6492 27.5813 29.0037 28.5775 29.0037 29.8065Z" fill="#E8A9BD"/>
<path d="M9.20499 21.4419C8.75428 21.5406 8.34215 21.8052 8.06443 22.1737C7.78697 22.5423 7.64653 23.0116 7.67593 23.4721C8.12533 23.2965 8.49073 23.1237 8.82568 22.7764C9.16089 22.4286 9.38034 21.8916 9.20499 21.4419Z" fill="#30181B"/>
<path d="M12.7541 18.836C12.6725 18.6021 12.5286 18.4301 12.3483 18.3485C12.1764 18.2724 11.9792 18.2695 11.7708 18.354C11.4721 18.4724 11.1733 18.7625 11.0552 19.0557C10.9539 19.2838 10.9397 19.5151 11.0158 19.7151C11.0946 19.9209 11.2807 20.0954 11.5146 20.1829C11.6527 20.2306 11.8049 20.2448 11.9569 20.2251C12.264 20.1829 12.5544 19.9996 12.7063 19.7293C12.8331 19.4927 12.8499 19.1347 12.7541 18.836ZM12.5147 19.6222C12.3373 19.9377 11.9259 20.0928 11.5905 19.9744C11.413 19.9125 11.2778 19.7857 11.2214 19.6334C11.2072 19.6025 11.2017 19.5631 11.1959 19.5263C11.1791 19.408 11.1988 19.2728 11.2524 19.1376C11.3369 18.9404 11.5763 18.6669 11.8524 18.5572C11.906 18.5375 11.9624 18.5233 12.0131 18.5178C12.1005 18.5036 12.1821 18.5149 12.2554 18.5488C12.3822 18.6052 12.4837 18.7349 12.5399 18.904C12.6218 19.146 12.6076 19.4418 12.5147 19.6222Z" fill="#30181B"/>
<path d="M14.3541 16.8735C14.278 16.6396 14.1315 16.4651 13.9512 16.3832C13.7792 16.307 13.5821 16.3099 13.3763 16.3916C13.0776 16.51 12.7791 16.8 12.6549 17.0932C12.5591 17.3213 12.5449 17.5552 12.6184 17.7497C12.6946 17.961 12.8833 18.133 13.1172 18.2204C13.2582 18.2711 13.4101 18.2824 13.5595 18.2598C13.8695 18.2175 14.1567 18.0401 14.3089 17.7639C14.436 17.5329 14.4557 17.1749 14.3541 16.8735ZM14.1147 17.6623C13.9399 17.975 13.5259 18.133 13.1878 18.0117C13.0188 17.9498 12.8807 17.823 12.8271 17.6736C12.813 17.6371 12.8019 17.6004 12.7962 17.561C12.7794 17.4397 12.8017 17.3103 12.8581 17.1777C12.9426 16.9748 13.1794 16.7071 13.4582 16.5974C13.5117 16.5748 13.5653 16.5635 13.6159 16.5551C13.7034 16.5438 13.785 16.5522 13.8611 16.5861C13.9879 16.6425 14.0866 16.7693 14.1457 16.9439C14.2273 17.1862 14.2134 17.4794 14.1147 17.6623Z" fill="#30181B"/>
<path d="M16.1953 15.0313C16.1137 14.7974 15.9699 14.6255 15.7895 14.541C15.6176 14.4677 15.4204 14.4677 15.2146 14.5494C14.9133 14.6678 14.6172 14.9552 14.4933 15.2482C14.3946 15.482 14.3807 15.713 14.4565 15.9076C14.5353 16.116 14.7214 16.2937 14.9524 16.3782C15.096 16.4289 15.2482 16.4402 15.3976 16.4176C15.7047 16.3782 15.9951 16.195 16.1442 15.9246C16.2715 15.6878 16.2912 15.3327 16.1953 15.0313ZM15.9559 15.8201C15.7785 16.1328 15.3643 16.2908 15.0317 16.1695C14.8542 16.1105 14.719 15.9837 14.6626 15.8314C14.6119 15.6878 14.6232 15.513 14.6936 15.3356C14.781 15.1355 15.0204 14.8649 15.2965 14.7552C15.4459 14.6961 15.5782 14.6932 15.6966 14.7468C15.8234 14.8032 15.9276 14.9271 15.9811 15.1019C16.063 15.344 16.0518 15.6343 15.9559 15.8201Z" fill="#30181B"/>
<path d="M18.3809 13.6483C18.2992 13.4145 18.1583 13.2399 17.975 13.158C17.806 13.0847 17.606 13.0847 17.403 13.1638C17.0988 13.2821 16.803 13.5751 16.6817 13.8625C16.583 14.0964 16.5691 14.3274 16.6423 14.5219C16.724 14.7361 16.9072 14.9081 17.1411 14.9926C17.2847 15.0433 17.4369 15.0574 17.5863 15.0378C17.8905 14.9955 18.1863 14.8152 18.3328 14.539C18.4625 14.3049 18.4822 13.9497 18.3809 13.6483ZM18.1415 14.4343C17.9695 14.7469 17.5527 14.9076 17.2172 14.7865C17.0397 14.7246 16.9072 14.5978 16.851 14.4484C16.8368 14.4146 16.8284 14.3781 16.8229 14.3385C16.8061 14.2174 16.8258 14.082 16.8849 13.9526C16.9665 13.7497 17.2062 13.4819 17.4821 13.3693C17.5385 13.3467 17.5892 13.3354 17.6398 13.327C17.7272 13.3158 17.8118 13.3242 17.8821 13.3609C18.0118 13.4173 18.1131 13.5412 18.1724 13.7187C18.2512 13.9581 18.2399 14.2539 18.1415 14.4343Z" fill="#30181B"/>
<path d="M16.1699 31.9785C16.1419 32.004 16.108 32.0179 16.0712 32.0179C16.0345 32.0179 15.998 32.0037 15.9699 31.9756L14.3752 30.3442C13.8736 29.8342 13.3552 29.3044 12.8115 28.8312C10.3629 26.6926 7.20163 25.4782 3.9671 25.405C3.97839 25.3121 3.99519 25.2192 4.02065 25.126C7.30321 25.2105 10.5123 26.4474 12.9976 28.617C13.5499 29.1015 14.0713 29.6313 14.5726 30.1468L16.1731 31.7782C16.2264 31.8347 16.2264 31.9221 16.1699 31.9785Z" fill="#30181B"/>
<path d="M29.69 22.2395C29.69 18.7233 26.8395 15.8728 23.3233 15.8728C19.8072 15.8728 16.9567 18.7233 16.9567 22.2395C16.9567 25.4546 19.3404 28.1116 22.4369 28.5432C22.035 29.1963 21.8077 29.9775 22.498 30.5725C22.6222 30.6796 22.7697 30.7647 22.9312 30.793C23.18 30.8366 23.4373 30.74 23.6373 30.5859C23.9993 30.3077 24.2011 29.8339 24.1513 29.38C24.1263 29.1524 24.036 28.8576 23.9184 28.5773C27.1556 28.2772 29.69 25.5549 29.69 22.2395Z" fill="#FEE6D5"/>
<path d="M23.3212 27.9356C26.4666 27.9356 29.0164 25.3857 29.0164 22.2404C29.0164 19.095 26.4666 16.5452 23.3212 16.5452C20.1758 16.5452 17.626 19.095 17.626 22.2404C17.626 25.3857 20.1758 27.9356 23.3212 27.9356Z" fill="#30181B"/>
<path d="M40.0173 47.6566C39.9554 48.0566 39.8708 48.454 39.7666 48.8457C39.7412 48.9386 39.716 49.0315 39.6879 49.1247H31.7643C31.6798 49.0289 31.5981 48.936 31.5162 48.8402C30.7358 47.9471 29.989 47.0454 29.2538 46.1157C29.186 46.034 29.1212 45.9521 29.0592 45.8705C29.0451 45.8537 29.0338 45.8395 29.0199 45.8227C28.9634 45.8537 28.9073 45.8847 28.8479 45.9101C28.845 45.913 28.8424 45.913 28.8424 45.913C28.4508 46.1018 28.014 46.2146 27.5801 46.2456C27.5772 46.2485 27.5772 46.2485 27.5745 46.2456C26.8871 46.2908 26.1825 46.144 25.5824 45.8033C25.0188 45.482 24.5597 44.9974 24.2526 44.4312C24.1935 44.3299 24.1426 44.2228 24.0977 44.1128V44.1099C23.9232 43.7125 23.8245 43.2872 23.8132 42.8533C23.8019 42.4307 23.8722 41.9997 24.0245 41.6022C24.0442 41.5516 24.0639 41.5009 24.0864 41.45V41.4471C24.1119 41.3852 24.1429 41.3258 24.171 41.2668C24.3739 40.8667 24.6613 40.5116 25.0217 40.2441C25.6218 39.8018 26.3741 39.6214 27.1238 39.6327C27.1238 39.6327 27.1238 39.6298 27.1267 39.6327C27.2732 39.6327 27.4197 39.644 27.5635 39.6582C27.7607 39.6808 27.9552 39.7117 28.1468 39.7569H28.1497C28.823 39.9033 29.4711 40.1682 30.0995 40.4557C30.2095 40.5063 30.3137 40.5544 30.4208 40.605L30.4321 40.6105C31.1674 40.9544 31.8861 41.3148 32.5849 41.7177L32.5991 41.7262C32.8104 41.8472 33.0246 41.9742 33.233 42.1036C33.312 42.1543 33.3936 42.205 33.4724 42.2559C33.6892 42.394 33.9034 42.5375 34.1147 42.6869C34.3628 41.5204 34.6135 40.3541 34.8613 39.1875C34.8978 39.0156 34.9345 38.8439 34.9713 38.672C35.0248 38.4242 35.0755 38.179 35.129 37.9309C35.1684 37.9055 35.208 37.8803 35.2503 37.8577C35.78 37.5364 36.4901 37.2912 36.9972 37.607C37.5467 37.948 37.9328 38.4916 38.2651 39.0439C39.009 40.2779 39.5501 41.6361 39.8598 43.0421C40.1948 44.5572 40.2596 46.1296 40.0173 47.6566Z" fill="#B8B269"/>
<path d="M24.3086 43.4359C24.3057 43.4443 24.3057 43.4555 24.3031 43.4639C24.2918 43.5259 24.2779 43.5878 24.2608 43.6501C24.2186 43.8078 24.165 43.9601 24.0973 44.1094C24.1002 44.1123 24.1002 44.1123 24.0973 44.1123C24.0918 44.1291 24.0831 44.1433 24.0747 44.1575C24.0325 44.2562 23.9818 44.352 23.9254 44.4449C23.4266 45.2705 22.5336 45.8312 21.5868 45.9635C21.4938 45.9803 21.4009 45.9889 21.3051 45.9916C21.1277 46.0028 20.9502 45.9973 20.7725 45.9748C20.7725 45.9944 20.7696 46.017 20.767 46.0367C20.6966 47.1723 20.164 48.1527 19.5694 49.1248H14.8526C14.8329 47.6765 15.0358 46.2226 15.5288 44.8618C16.1627 43.098 17.2925 41.4918 18.831 40.4213C19.1072 40.2268 19.4001 40.0493 19.7073 39.9113C19.7863 39.8719 19.865 39.838 19.9467 39.8099C20.1438 39.7309 20.3467 39.669 20.5551 39.6296C21.5442 39.4351 22.6121 39.7564 23.3558 40.4355C23.5219 40.5877 23.6742 40.7568 23.8038 40.9426C23.9165 41.1004 24.0096 41.2694 24.0855 41.4469C24.3651 42.0638 24.4409 42.7709 24.3086 43.4359Z" fill="#B8B269"/>
<path d="M24.5534 43.6521C24.4886 43.9311 24.3872 44.1931 24.2518 44.4325C24.004 44.8719 23.6404 45.2354 23.1839 45.4948C22.581 45.8358 22.0287 45.9823 21.5835 46.0358C21.4821 46.0471 21.389 46.0555 21.3018 46.0555C21.0847 46.0668 20.9044 46.0555 20.7666 46.0387C20.5975 46.0161 20.4988 45.988 20.4849 45.9852C20.4117 45.9655 20.3694 45.8864 20.3891 45.8106C20.4117 45.7373 20.4904 45.6951 20.5639 45.7148C20.5694 45.7177 20.8965 45.8051 21.4092 45.7654C21.426 45.7654 21.4457 45.7625 21.4656 45.7625C21.894 45.7203 22.446 45.5906 23.0464 45.2499C23.5 44.9905 23.8551 44.6159 24.0749 44.1595C24.0833 44.1453 24.0917 44.1314 24.0974 44.1143C24.1003 44.1143 24.1003 44.1143 24.0974 44.1114C24.1678 43.965 24.2242 43.8127 24.261 43.6521C24.2694 43.6324 24.2723 43.6098 24.2778 43.5901C24.2862 43.5478 24.2946 43.5085 24.303 43.4662C24.3059 43.4578 24.3059 43.4465 24.3085 43.4381C24.4098 42.838 24.3114 42.2067 24.0239 41.6038C23.9339 41.4066 23.821 41.2121 23.6887 41.0234C23.5365 40.8063 23.3674 40.6233 23.19 40.4711C22.0715 39.5129 20.5978 39.7665 20.581 39.7694C20.4119 39.8172 20.2513 39.8707 20.0935 39.9272C19.9161 39.992 19.7441 40.0624 19.578 40.1385C15.2924 42.0742 15.0078 47.3995 15.0333 49.1267H14.7543C14.7262 47.2924 15.0472 41.6009 19.8119 39.7355C19.8231 39.73 19.8315 39.7271 19.8428 39.7243C20.057 39.6397 20.2823 39.5636 20.5161 39.4962C20.5471 39.4878 22.2912 39.1835 23.5281 40.3978C23.6661 40.533 23.7984 40.6879 23.9197 40.8627C24.0126 40.9953 24.0972 41.1334 24.1704 41.2685C24.5957 42.0432 24.7308 42.8743 24.5534 43.6521Z" fill="#30181B"/>
<path d="M21.7091 49.1252H21.4246C21.2865 48.1109 21.2442 47.0796 21.3007 46.054C21.3007 46.0343 21.3007 46.0117 21.3036 45.992C21.3036 45.9582 21.3064 45.9217 21.3091 45.8878C21.312 45.8287 21.3513 45.7778 21.4078 45.7639C21.4107 45.761 21.4133 45.761 21.4162 45.7639C21.4303 45.7555 21.4443 45.7555 21.4584 45.7581C21.4613 45.7581 21.4613 45.7581 21.4639 45.761C21.4668 45.7581 21.4695 45.761 21.4695 45.761C21.5398 45.7694 21.5934 45.8314 21.5878 45.9075C21.5878 45.9272 21.585 45.9442 21.585 45.9639C21.5821 45.9865 21.5821 46.0091 21.5821 46.0343C21.5233 47.0625 21.5684 48.1023 21.7091 49.1252Z" fill="#30181B"/>
<path d="M35.2575 37.9853L33.4515 42.3018L33.3415 42.5638L33.1048 42.406L33.2148 42.1412L34.9982 37.8753C35.0292 37.8049 35.1108 37.7711 35.1814 37.802C35.2549 37.8301 35.2885 37.912 35.2575 37.9853Z" fill="#30181B"/>
<path d="M36.5682 44.5612C36.5259 44.6261 36.4385 44.6429 36.3737 44.598L33.3447 42.5636L33.1079 42.4058L30.0254 40.3376C28.8336 39.5375 27.3093 39.5685 26.2301 40.4108C25.5539 40.9377 25.1791 41.6816 25.1171 42.6198C25.0355 43.868 25.3397 44.7893 26.0214 45.3584C26.7709 45.984 27.9629 46.153 29.2956 45.8204L29.597 45.7078L29.6928 45.6711H29.6957L30.9354 45.2117C31.0087 45.1865 31.0877 45.223 31.1158 45.2962C31.1439 45.3695 31.1045 45.4511 31.0313 45.4766L29.8931 45.8963L29.6253 45.9976L29.3772 46.0879C28.9011 46.2089 28.4391 46.2683 28.0052 46.2683C27.1402 46.2683 26.3879 46.0315 25.8414 45.575C25.0862 44.944 24.7481 43.9436 24.8355 42.6025C24.9058 41.5798 25.3145 40.7681 26.0582 40.1877C27.2331 39.2692 28.8898 39.2354 30.1805 40.1032L33.2179 42.1402L33.4547 42.3008L36.5285 44.3633C36.5934 44.4092 36.6104 44.4964 36.5682 44.5612Z" fill="#30181B"/>
<path d="M32.0061 49.1265H31.6821L31.5189 48.8419L31.1724 48.2334C30.9752 47.8896 30.7723 47.5347 30.53 47.2134C30.4342 47.0866 30.3329 46.9653 30.2313 46.8414C30.0145 46.5823 29.7861 46.3117 29.6254 45.999C29.6029 45.9568 29.5832 45.9145 29.5635 45.8694C29.5325 45.799 29.5861 45.7623 29.6564 45.7313C29.7268 45.7003 29.789 45.6861 29.8226 45.7568C29.8423 45.8045 29.8677 45.8526 29.8929 45.8977C30.0339 46.1681 30.2368 46.4078 30.4452 46.6613C30.5523 46.7881 30.6565 46.9149 30.7552 47.0446C31.0059 47.3772 31.2146 47.7434 31.4146 48.0956L32.0061 49.1265Z" fill="#30181B"/>
<path d="M21.4085 49.124H0.00866699V41.6039C0.586167 41.1729 1.2936 40.9219 1.99212 41.0432C2.81768 41.1813 3.49677 41.8068 3.9081 42.5366C4.32233 43.2634 4.50818 44.0948 4.6914 44.9119C5.54794 43.6047 7.17361 42.562 8.64177 43.1086C9.47022 43.4157 10.0648 44.1764 10.3829 44.9991C10.7042 45.8247 10.783 46.7179 10.862 47.5997C13.0232 45.7005 16.379 45.3033 18.926 46.6444C19.977 47.1994 20.9042 48.0646 21.4085 49.124Z" fill="#FCCE7C"/>
<path d="M51.1655 34.5064V49.1242H35.4011C35.4743 48.5212 35.6659 47.9408 36.0011 47.4337C36.7083 46.3714 38.1565 45.7629 39.326 46.27C38.5991 44.6415 38.7372 42.6578 39.6811 41.1447C40.1318 40.4207 40.8054 39.7755 41.6423 39.6062C42.9721 39.3358 44.2064 40.2882 45.2291 41.1812C44.6319 39.3807 45.2036 37.2505 46.6237 35.994C47.2999 35.3965 48.1368 34.9936 49.0101 34.757C49.7144 34.5654 50.4415 34.4867 51.1655 34.5064Z" fill="#FCCE7C"/>
</svg>
