<svg width="26" height="48" viewBox="0 0 26 48" fill="none" xmlns="http://www.w3.org/2000/svg">
<path d="M9.16023 19.1051C9.11423 19.1051 9.06696 19.1091 9.01805 19.1175H9.01859C9.07495 19.1076 9.13078 19.1035 9.18532 19.1055L9.16023 19.1051ZM9.30096 20.7293C9.10332 20.764 8.9835 20.8989 8.9295 20.9764C8.83259 21.1156 8.79332 21.2851 8.82187 21.4409L9.14459 23.1984C9.17205 23.3482 9.25459 23.4822 9.37714 23.5756C9.41059 23.6011 9.44514 23.6225 9.48314 23.6411L9.51641 23.6558C9.83023 23.7847 10.0317 24.094 10.0231 24.4331C10.0146 24.7722 9.79769 25.0707 9.47787 25.1838C5.3215 26.6529 2.50659 30.6024 2.4735 35.0115C2.47405 35.0691 2.47714 35.1387 2.47987 35.2085L2.48368 35.3055C2.48441 35.3271 2.48441 35.3489 2.4835 35.3705C2.4766 35.5285 2.47132 35.6871 2.47132 35.8469C2.47132 41.6405 7.18495 46.3541 12.9788 46.3544C16.7451 46.3544 20.3573 44.222 22.1815 40.9223C23.0946 39.2702 23.5604 37.3422 23.5282 35.3469C23.4839 32.5876 22.4646 29.9135 20.7319 28.01C19.6224 26.7915 18.2246 25.8407 16.69 25.2611C16.347 25.1315 16.1319 24.7895 16.164 24.4242C16.196 24.0589 16.4673 23.7595 16.8275 23.6916L16.8646 23.6847L16.8671 23.684C16.945 23.6645 17.0181 23.6293 17.0846 23.5795L17.0906 23.5751C17.3917 23.3469 17.4824 22.6325 17.5551 22.0585C17.5826 21.8427 17.6084 21.6389 17.6448 21.4409C17.6888 21.2015 17.5859 20.9576 17.3828 20.8202L17.3553 20.8034C17.2875 20.7631 17.2177 20.7362 17.1462 20.7233L17.1015 20.7156C16.851 20.6711 16.6355 20.5125 16.5182 20.2865C16.4013 20.0605 16.3961 19.7929 16.5042 19.5624C17.9733 16.432 19.6535 12.7174 20.9755 8.9029C21.0975 8.5509 21.2404 8.19127 21.3786 7.84363C21.8315 6.70327 22.2999 5.52418 22.1079 4.44509C21.9219 3.39872 20.906 2.64363 19.0886 2.20036C17.1455 1.72636 15.1122 1.66727 13.196 1.64727C9.02732 1.60509 5.87514 2.286 4.76914 3.47254C4.4375 3.82818 4.30078 4.2149 4.33914 4.68945C4.37205 5.098 4.46714 5.62109 4.62187 6.24418C5.16768 8.44309 5.96859 10.5362 7.00296 13.0025C7.41714 13.9904 7.87696 15.0391 8.40842 16.2091C8.44187 16.2831 8.54296 16.5238 8.67823 16.8471C8.93296 17.456 9.5895 19.0255 9.78659 19.3973C9.87623 19.5038 9.93969 19.6349 9.96569 19.7818C10.0437 20.2269 9.74641 20.6511 9.3015 20.7291L9.30096 20.7293ZM12.9788 47.9907C6.28259 47.9905 0.834961 42.5427 0.834961 35.8469C0.834961 35.6745 0.84005 35.5034 0.847141 35.3329L0.84478 35.2751C0.841325 35.1876 0.837863 35.1 0.837136 35.0118C0.872227 30.3335 3.60405 26.1111 7.75368 24.1291C7.65023 23.9315 7.57605 23.7175 7.53514 23.4938L7.21241 21.7364C7.10568 21.1545 7.24187 20.5369 7.58623 20.0418C7.71859 19.8516 7.87514 19.686 8.05096 19.5485C8.00859 19.4535 7.96478 19.3525 7.91805 19.2458C7.66768 18.6716 7.37914 17.982 7.16859 17.4785C7.04314 17.1784 6.94968 16.9547 6.91859 16.886C6.38041 15.7013 5.91441 14.638 5.49387 13.6355C4.57368 11.4411 3.63841 9.07454 3.03368 6.63836C2.85514 5.91927 2.7486 5.32472 2.70805 4.8209C2.63332 3.89527 2.93223 3.04309 3.57223 2.35672C5.5375 0.248722 10.4551 -0.0192737 13.213 0.0110899C15.2244 0.031999 17.3648 0.0956349 19.4764 0.610544C22.597 1.37163 23.5059 2.96 23.719 4.15854C23.9926 5.69581 23.4117 7.15781 22.8991 8.44781C22.7617 8.79399 22.6317 9.12109 22.5217 9.43872C21.2815 13.0174 19.74 16.4924 18.3422 19.4944C19.0557 20.0025 19.4121 20.8758 19.2542 21.7362C19.2262 21.8898 19.203 22.0718 19.1786 22.2645C19.0948 22.924 18.9957 23.7044 18.5919 24.3247C19.8457 24.9813 20.9864 25.8589 21.9419 26.9085C23.9686 29.1349 25.113 32.1222 25.1642 35.3205C25.2011 37.6011 24.665 39.812 23.6135 41.7138C21.5059 45.5269 17.3315 47.9907 12.9788 47.9907Z" fill="#474747"/>
<path d="M24.3028 35.8467C24.3028 42.1016 19.2321 47.1724 12.977 47.1724C6.72209 47.1724 1.65137 42.1016 1.65137 35.8467C1.65137 29.5916 6.72209 24.5211 12.977 24.5211C19.2321 24.5211 24.3028 29.5916 24.3028 35.8467Z" fill="#C24402"/>
<path d="M24.3028 35.8467C24.3028 42.1016 19.2321 47.1724 12.977 47.1724C6.72209 47.1724 1.65137 42.1016 1.65137 35.8467C1.65137 29.5916 6.72209 24.5211 12.977 24.5211C19.2321 24.5211 24.3028 29.5916 24.3028 35.8467Z" fill="#2B5F9E"/>
<mask id="mask0_1286_1187" style="mask-type:luminance" maskUnits="userSpaceOnUse" x="7" y="19" width="12" height="6">
<path d="M18.1227 23.3422C17.9822 24.1065 17.2598 24.62 16.492 24.4996C15.5871 24.3578 14.3718 24.2234 13.2293 24.2234C12.0867 24.2234 10.8713 24.3578 9.96656 24.4996C9.19892 24.62 8.4762 24.1065 8.33583 23.3422L8.01311 21.5847C7.86965 20.8036 8.38819 20.0567 9.16946 19.9143C10.2536 19.7169 11.7906 19.5854 13.2293 19.5854C14.6682 19.5854 16.2047 19.7169 17.2893 19.9143C18.0706 20.0567 18.5889 20.8036 18.4455 21.5847L18.1227 23.3422Z" fill="white"/>
</mask>
<g mask="url(#mask0_1286_1187)">
<path d="M18.1227 23.3422C17.9822 24.1065 17.2598 24.62 16.492 24.4996C15.5871 24.3578 14.3718 24.2234 13.2293 24.2234C12.0867 24.2234 10.8713 24.3578 9.96656 24.4996C9.19892 24.62 8.4762 24.1065 8.33583 23.3422L8.01311 21.5847C7.86965 20.8036 8.38819 20.0567 9.16946 19.9143C10.2536 19.7169 11.7906 19.5854 13.2293 19.5854C14.6682 19.5854 16.2047 19.7169 17.2893 19.9143C18.0706 20.0567 18.5889 20.8036 18.4455 21.5847L18.1227 23.3422Z" fill="url(#paint0_linear_1286_1187)"/>
</g>
<mask id="mask1_1286_1187" style="mask-type:luminance" maskUnits="userSpaceOnUse" x="3" y="0" width="20" height="20">
<path d="M9.16625 19.9194C7.77116 16.9487 3.80298 8.24325 3.52152 4.75507C3.23534 1.20489 9.98207 0.827433 12.8643 0.827433C12.9839 0.827433 13.097 0.82798 13.2026 0.829071C13.3082 0.82798 13.421 0.827433 13.5408 0.827433C15.8872 0.827433 20.7937 1.07761 22.3833 3.08543C21.5275 2.00452 19.7104 1.43325 17.849 1.13598L17.8473 1.1358C17.5304 1.1218 17.2261 1.11489 16.9346 1.11489C12.1343 1.11489 10.7352 2.98961 11.1828 6.10307C10.9021 5.7867 9.19698 5.35052 7.43462 5.35052C6.04316 5.35052 4.61607 5.62234 3.82534 6.4398C4.83461 10.5043 7.9608 17.3523 9.16625 19.9194ZM17.1457 17.4171C19.6701 12.0527 20.985 8.30198 21.4488 6.69452C22.2248 3.88234 21.0844 3.16652 20.6241 2.89034C21.0844 3.16652 22.2248 3.88234 21.449 6.69452C20.9852 8.30198 19.6701 12.0527 17.1457 17.4171ZM22.885 4.73489C22.885 4.73434 22.8852 4.73398 22.8852 4.73344C22.8852 4.7338 22.885 4.73434 22.885 4.73489ZM22.8864 4.71453C22.8864 4.71398 22.8866 4.71325 22.8866 4.71271C22.8864 4.71325 22.8864 4.7138 22.8864 4.71453ZM22.8877 4.69398C22.8877 4.69343 22.8877 4.69307 22.8879 4.69234C22.8877 4.69271 22.8877 4.69361 22.8877 4.69398ZM22.8883 4.68307C22.8884 4.68289 22.8884 4.68252 22.8884 4.68216C22.8884 4.68234 22.8884 4.68289 22.8883 4.68307ZM22.8888 4.67325C22.8888 4.67271 22.8888 4.67271 22.889 4.67216C22.889 4.67252 22.8888 4.67289 22.8888 4.67325ZM22.8893 4.66289C22.8893 4.66234 22.8893 4.66198 22.8893 4.66143C22.8893 4.66198 22.8893 4.66252 22.8893 4.66289ZM22.8903 4.64234C22.8903 4.64216 22.8903 4.6418 22.8903 4.64143C22.8903 4.64198 22.8903 4.64198 22.8903 4.64234ZM22.891 4.6218V4.62143C22.891 4.62161 22.891 4.62143 22.891 4.6218ZM22.8913 4.61161C22.8913 4.61143 22.8913 4.61107 22.8913 4.61089C22.8913 4.61125 22.8913 4.61125 22.8913 4.61161ZM22.8917 4.59143C22.8917 4.59125 22.8917 4.59107 22.8917 4.59071C22.8917 4.59089 22.8917 4.59125 22.8917 4.59143ZM22.4579 3.18434C22.4579 3.18416 22.4579 3.18416 22.4577 3.18398L22.4579 3.18434ZM22.4473 3.16962C22.4472 3.16943 22.4472 3.16925 22.447 3.16907C22.4472 3.16925 22.4473 3.16943 22.4473 3.16962ZM22.4421 3.16234C22.4417 3.16198 22.4415 3.16179 22.4413 3.16125C22.4415 3.16161 22.4417 3.16198 22.4421 3.16234ZM22.4208 3.1338C22.4203 3.13325 22.4197 3.13252 22.4193 3.1318C22.4197 3.13234 22.4204 3.13325 22.4208 3.1338ZM22.415 3.12616C22.4144 3.12525 22.4137 3.12453 22.4132 3.12362C22.4137 3.12453 22.4144 3.12543 22.415 3.12616ZM22.4101 3.1198C22.4092 3.11853 22.4081 3.11707 22.4072 3.11598C22.4083 3.11725 22.4092 3.11853 22.4101 3.1198ZM22.3995 3.10598C22.3983 3.10434 22.3968 3.10253 22.3955 3.10089C22.397 3.10253 22.3981 3.10416 22.3995 3.10598ZM22.3937 3.09852C22.3917 3.09598 22.3897 3.09325 22.3877 3.09071C22.3897 3.09343 22.3915 3.0958 22.3937 3.09852ZM20.5879 2.86907C19.7941 2.40762 18.2155 1.9558 16.6779 1.95525C18.2157 1.95562 19.7939 2.40743 20.5879 2.86907Z" fill="white"/>
</mask>
<g mask="url(#mask1_1286_1187)">
<path d="M9.16625 19.9194C7.77116 16.9487 3.80298 8.24325 3.52152 4.75507C3.23534 1.20489 9.98207 0.827433 12.8643 0.827433C12.9839 0.827433 13.097 0.82798 13.2026 0.829071C13.3082 0.82798 13.421 0.827433 13.5408 0.827433C15.8872 0.827433 20.7937 1.07761 22.3833 3.08543C21.5275 2.00452 19.7104 1.43325 17.849 1.13598L17.8473 1.1358C17.5304 1.1218 17.2261 1.11489 16.9346 1.11489C12.1343 1.11489 10.7352 2.98961 11.1828 6.10307C10.9021 5.7867 9.19698 5.35052 7.43462 5.35052C6.04316 5.35052 4.61607 5.62234 3.82534 6.4398C4.83461 10.5043 7.9608 17.3523 9.16625 19.9194ZM17.1457 17.4171C19.6701 12.0527 20.985 8.30198 21.4488 6.69452C22.2248 3.88234 21.0844 3.16652 20.6241 2.89034C21.0844 3.16652 22.2248 3.88234 21.449 6.69452C20.9852 8.30198 19.6701 12.0527 17.1457 17.4171ZM22.885 4.73489C22.885 4.73434 22.8852 4.73398 22.8852 4.73344C22.8852 4.7338 22.885 4.73434 22.885 4.73489ZM22.8864 4.71453C22.8864 4.71398 22.8866 4.71325 22.8866 4.71271C22.8864 4.71325 22.8864 4.7138 22.8864 4.71453ZM22.8877 4.69398C22.8877 4.69343 22.8877 4.69307 22.8879 4.69234C22.8877 4.69271 22.8877 4.69361 22.8877 4.69398ZM22.8883 4.68307C22.8884 4.68289 22.8884 4.68252 22.8884 4.68216C22.8884 4.68234 22.8884 4.68289 22.8883 4.68307ZM22.8888 4.67325C22.8888 4.67271 22.8888 4.67271 22.889 4.67216C22.889 4.67252 22.8888 4.67289 22.8888 4.67325ZM22.8893 4.66289C22.8893 4.66234 22.8893 4.66198 22.8893 4.66143C22.8893 4.66198 22.8893 4.66252 22.8893 4.66289ZM22.8903 4.64234C22.8903 4.64216 22.8903 4.6418 22.8903 4.64143C22.8903 4.64198 22.8903 4.64198 22.8903 4.64234ZM22.891 4.6218V4.62143C22.891 4.62161 22.891 4.62143 22.891 4.6218ZM22.8913 4.61161C22.8913 4.61143 22.8913 4.61107 22.8913 4.61089C22.8913 4.61125 22.8913 4.61125 22.8913 4.61161ZM22.8917 4.59143C22.8917 4.59125 22.8917 4.59107 22.8917 4.59071C22.8917 4.59089 22.8917 4.59125 22.8917 4.59143ZM22.4579 3.18434C22.4579 3.18416 22.4579 3.18416 22.4577 3.18398L22.4579 3.18434ZM22.4473 3.16962C22.4472 3.16943 22.4472 3.16925 22.447 3.16907C22.4472 3.16925 22.4473 3.16943 22.4473 3.16962ZM22.4421 3.16234C22.4417 3.16198 22.4415 3.16179 22.4413 3.16125C22.4415 3.16161 22.4417 3.16198 22.4421 3.16234ZM22.4208 3.1338C22.4203 3.13325 22.4197 3.13252 22.4193 3.1318C22.4197 3.13234 22.4204 3.13325 22.4208 3.1338ZM22.415 3.12616C22.4144 3.12525 22.4137 3.12453 22.4132 3.12362C22.4137 3.12453 22.4144 3.12543 22.415 3.12616ZM22.4101 3.1198C22.4092 3.11853 22.4081 3.11707 22.4072 3.11598C22.4083 3.11725 22.4092 3.11853 22.4101 3.1198ZM22.3995 3.10598C22.3983 3.10434 22.3968 3.10253 22.3955 3.10089C22.397 3.10253 22.3981 3.10416 22.3995 3.10598ZM22.3937 3.09852C22.3917 3.09598 22.3897 3.09325 22.3877 3.09071C22.3897 3.09343 22.3915 3.0958 22.3937 3.09852ZM20.5879 2.86907C19.7941 2.40762 18.2155 1.9558 16.6779 1.95525C18.2157 1.95562 19.7939 2.40743 20.5879 2.86907Z" fill="url(#paint1_linear_1286_1187)"/>
</g>
<mask id="mask2_1286_1187" style="mask-type:luminance" maskUnits="userSpaceOnUse" x="3" y="5" width="13" height="15">
<path d="M9.1622 19.9194C7.95674 17.3523 4.83056 10.5043 3.82129 6.4398C4.61202 5.62234 6.03911 5.35053 7.43057 5.35053C9.19293 5.35053 10.898 5.78671 11.1787 6.10307C11.1897 6.17834 11.2015 6.25416 11.2144 6.33089C11.6537 8.92998 14.1978 16.5889 15.2475 19.6685C14.59 19.618 13.898 19.5894 13.2273 19.5894C13.2224 19.5894 13.2175 19.5894 13.2126 19.5894C13.2109 19.5894 13.2091 19.5894 13.2077 19.5894C13.2033 19.5894 13.1991 19.5894 13.1947 19.5894C13.1942 19.5894 13.1937 19.5894 13.1931 19.5894C13.1884 19.5894 13.1833 19.5894 13.1786 19.5894C13.1769 19.5894 13.1751 19.5894 13.1735 19.5894C13.17 19.5894 13.1664 19.5894 13.1629 19.5894C13.1613 19.5894 13.1597 19.5894 13.158 19.5894C13.1537 19.5896 13.1493 19.5896 13.1447 19.5896C13.1422 19.5896 13.1397 19.5896 13.1371 19.5896C13.1349 19.5896 13.1327 19.5896 13.1306 19.5896C13.128 19.5896 13.1253 19.5896 13.1227 19.5896C13.1204 19.5896 13.118 19.5896 13.1158 19.5896C13.1111 19.5896 13.1066 19.5898 13.1018 19.5898C13.1 19.5898 13.0982 19.5898 13.0964 19.5898C13.0933 19.5898 13.09 19.5898 13.0867 19.5898C13.086 19.5898 13.0853 19.5898 13.0847 19.5898C11.6877 19.5982 10.216 19.7273 9.16747 19.9183C9.16565 19.9187 9.16402 19.9191 9.1622 19.9194Z" fill="white"/>
</mask>
<g mask="url(#mask2_1286_1187)">
<path d="M9.1622 19.9194C7.95674 17.3523 4.83056 10.5043 3.82129 6.4398C4.61202 5.62234 6.03911 5.35053 7.43057 5.35053C9.19293 5.35053 10.898 5.78671 11.1787 6.10307C11.1897 6.17834 11.2015 6.25416 11.2144 6.33089C11.6537 8.92998 14.1978 16.5889 15.2475 19.6685C14.59 19.618 13.898 19.5894 13.2273 19.5894C13.2224 19.5894 13.2175 19.5894 13.2126 19.5894C13.2109 19.5894 13.2091 19.5894 13.2077 19.5894C13.2033 19.5894 13.1991 19.5894 13.1947 19.5894C13.1942 19.5894 13.1937 19.5894 13.1931 19.5894C13.1884 19.5894 13.1833 19.5894 13.1786 19.5894C13.1769 19.5894 13.1751 19.5894 13.1735 19.5894C13.17 19.5894 13.1664 19.5894 13.1629 19.5894C13.1613 19.5894 13.1597 19.5894 13.158 19.5894C13.1537 19.5896 13.1493 19.5896 13.1447 19.5896C13.1422 19.5896 13.1397 19.5896 13.1371 19.5896C13.1349 19.5896 13.1327 19.5896 13.1306 19.5896C13.128 19.5896 13.1253 19.5896 13.1227 19.5896C13.1204 19.5896 13.118 19.5896 13.1158 19.5896C13.1111 19.5896 13.1066 19.5898 13.1018 19.5898C13.1 19.5898 13.0982 19.5898 13.0964 19.5898C13.0933 19.5898 13.09 19.5898 13.0867 19.5898C13.086 19.5898 13.0853 19.5898 13.0847 19.5898C11.6877 19.5982 10.216 19.7273 9.16747 19.9183C9.16565 19.9187 9.16402 19.9191 9.1622 19.9194Z" fill="url(#paint2_linear_1286_1187)"/>
</g>
<path d="M22.8837 4.75396C22.8839 4.75087 22.8841 4.74796 22.8844 4.74469C22.8841 4.74778 22.8839 4.75087 22.8837 4.75396Z" fill="#347454"/>
<path d="M22.8883 4.72329C22.8885 4.72038 22.8886 4.71711 22.8888 4.7142C22.8886 4.71729 22.8885 4.7202 22.8883 4.72329ZM22.889 4.71238C22.8894 4.70602 22.8897 4.70002 22.8901 4.69365C22.8897 4.69983 22.8894 4.7062 22.889 4.71238ZM22.8908 4.68184C22.891 4.67875 22.891 4.67602 22.8912 4.67293C22.8912 4.67584 22.891 4.67893 22.8908 4.68184ZM22.8926 4.64111C22.8928 4.63802 22.893 4.63456 22.893 4.63147C22.893 4.63474 22.8928 4.63802 22.8926 4.64111ZM22.893 4.63093C22.8932 4.62784 22.8932 4.62456 22.8934 4.62147C22.8932 4.62456 22.8932 4.62765 22.893 4.63093ZM22.8934 4.62111C22.8936 4.61802 22.8936 4.61438 22.8937 4.61129C22.8936 4.61474 22.8936 4.61765 22.8934 4.62111ZM22.8937 4.61056C22.8939 4.6042 22.8941 4.59747 22.8941 4.59111C22.8941 4.59765 22.8939 4.60402 22.8937 4.61056ZM22.8941 4.59038C22.905 4.04784 22.7463 3.58274 22.4603 3.18402C22.7463 3.58274 22.905 4.04802 22.8941 4.59038ZM22.4437 3.16092C22.4421 3.15874 22.4405 3.15638 22.4386 3.1542C22.4403 3.15638 22.4421 3.15874 22.4437 3.16092ZM22.4217 3.13147C22.4203 3.12947 22.4188 3.12783 22.4174 3.12583C22.4188 3.12765 22.4203 3.12965 22.4217 3.13147ZM22.4156 3.12329C22.4146 3.12202 22.4136 3.12056 22.4125 3.11947C22.4136 3.12075 22.4145 3.12202 22.4156 3.12329ZM22.4043 3.10874C22.4036 3.10784 22.4026 3.10656 22.4019 3.10566C22.4028 3.10675 22.4034 3.10765 22.4043 3.10874ZM22.3979 3.10056C22.3974 3.09984 22.3966 3.09893 22.3961 3.0982C22.3966 3.09893 22.3974 3.09965 22.3979 3.10056ZM22.3901 3.09038L22.3897 3.0902C22.3899 3.0902 22.3899 3.09038 22.3901 3.09038Z" fill="#347454"/>
<mask id="mask3_1286_1187" style="mask-type:luminance" maskUnits="userSpaceOnUse" x="11" y="1" width="12" height="19">
<path d="M17.2435 19.9087C16.6738 19.8071 15.9842 19.7236 15.252 19.6674C14.2026 16.5878 11.6584 8.92887 11.2189 6.32978C11.2062 6.25342 11.1955 6.17869 11.1849 6.10378L11.1846 6.10342C11.1842 6.10287 11.1838 6.10251 11.1833 6.10196C10.7357 2.98851 12.1348 1.11379 16.9351 1.11379C17.2266 1.11379 17.5309 1.12069 17.8478 1.13469L17.8495 1.13487C19.7109 1.43215 21.528 2.00342 22.3838 3.08433C22.384 3.08451 22.3844 3.08487 22.3846 3.08524C22.3858 3.08669 22.3867 3.08797 22.3878 3.08942L22.3882 3.0896C22.3902 3.09215 22.3922 3.09487 22.3942 3.09742C22.3948 3.09815 22.3955 3.09906 22.396 3.09978C22.3973 3.10142 22.3987 3.10324 22.4 3.10488C22.4007 3.10579 22.4017 3.10706 22.4024 3.10797C22.4033 3.10906 22.404 3.11015 22.4049 3.11124C22.4058 3.11251 22.4067 3.1136 22.4077 3.11487C22.4086 3.11596 22.4097 3.11742 22.4106 3.11869C22.4117 3.11979 22.4127 3.12124 22.4137 3.12251C22.4142 3.12342 22.4149 3.12415 22.4155 3.12506C22.4169 3.12706 22.4184 3.12869 22.4198 3.13069C22.4202 3.13142 22.4207 3.13215 22.4213 3.13269C22.4226 3.13451 22.4237 3.13596 22.4251 3.1376C22.4255 3.13815 22.4258 3.13869 22.4262 3.13906C22.4277 3.14124 22.4293 3.14324 22.4307 3.14542C22.4311 3.14578 22.4315 3.14633 22.4318 3.14687C22.4335 3.14905 22.4351 3.15124 22.4367 3.15342C22.4386 3.1556 22.4402 3.15796 22.4418 3.16015C22.442 3.16069 22.4422 3.16087 22.4426 3.16124C22.4442 3.16342 22.4458 3.16578 22.4475 3.16797C22.4477 3.16815 22.4477 3.16833 22.4478 3.16851C22.4513 3.17342 22.4548 3.17815 22.4582 3.18287C22.4584 3.18305 22.4584 3.18305 22.4584 3.18324C22.7444 3.58196 22.9031 4.04706 22.8922 4.5896C22.8922 4.58997 22.8922 4.59015 22.8922 4.59033C22.8922 4.59669 22.892 4.60342 22.8918 4.60979C22.8918 4.60997 22.8918 4.61033 22.8918 4.61051C22.8917 4.6136 22.8917 4.61724 22.8915 4.62033V4.62069C22.8913 4.62378 22.8913 4.62706 22.8911 4.63015C22.8911 4.63033 22.8911 4.63051 22.8911 4.63069C22.8911 4.63378 22.8909 4.63724 22.8908 4.64033C22.8908 4.64069 22.8908 4.64106 22.8908 4.64124C22.8906 4.6476 22.8902 4.65396 22.8898 4.66033C22.8898 4.66087 22.8898 4.66124 22.8898 4.66178C22.8897 4.66487 22.8895 4.66796 22.8895 4.67106C22.8893 4.6716 22.8893 4.6716 22.8893 4.67215C22.8891 4.67524 22.8891 4.67797 22.8889 4.68106C22.8889 4.68142 22.8889 4.68178 22.8888 4.68197C22.8888 4.68506 22.8886 4.68815 22.8884 4.69124C22.8882 4.69197 22.8882 4.69233 22.8882 4.69287C22.8878 4.69924 22.8875 4.70524 22.8871 4.7116C22.8871 4.71215 22.8869 4.71288 22.8869 4.71342C22.8868 4.71633 22.8866 4.7196 22.8864 4.72251C22.8862 4.72306 22.8862 4.72324 22.8862 4.7236C22.886 4.72651 22.8858 4.72942 22.8857 4.73233C22.8857 4.73288 22.8855 4.73324 22.8855 4.73378C22.8853 4.73669 22.8851 4.73996 22.8847 4.74287C22.8847 4.7436 22.8847 4.74415 22.8847 4.74469C22.8844 4.74797 22.8842 4.75088 22.884 4.75397C22.6035 8.23124 18.6426 16.9272 17.2435 19.9087ZM13.4486 10.3898L16.1918 19.4009C16.5275 18.7169 16.8455 18.0551 17.1462 17.416C19.6706 12.0516 20.9857 8.30087 21.4495 6.69342C22.2253 3.88124 21.0849 3.16542 20.6246 2.88924C20.6215 2.88742 20.6184 2.8856 20.6155 2.88378C20.6133 2.88251 20.6113 2.88142 20.6091 2.88015C20.6053 2.87778 20.6011 2.87542 20.5973 2.87306C20.5969 2.87288 20.5968 2.87269 20.5964 2.87251C20.5937 2.87106 20.5911 2.86942 20.5884 2.86797C19.7944 2.40633 18.2162 1.95451 16.6784 1.95415C16.6778 1.95415 16.6771 1.95415 16.6766 1.95415C16.6762 1.95415 16.6757 1.95415 16.6753 1.95415C15.3457 1.95433 14.0471 2.29233 13.3118 3.25342C13.3037 3.26415 13.2957 3.27469 13.2877 3.28542C12.8653 3.78724 12.4449 4.5876 12.4457 5.78615C12.446 6.19833 12.496 6.65742 12.6129 7.16778C12.7097 7.58906 13.0282 8.80906 13.4486 10.3898Z" fill="white"/>
</mask>
<g mask="url(#mask3_1286_1187)">
<path d="M17.2435 19.9087C16.6738 19.8071 15.9842 19.7236 15.252 19.6674C14.2026 16.5878 11.6584 8.92887 11.2189 6.32978C11.2062 6.25342 11.1955 6.17869 11.1849 6.10378L11.1846 6.10342C11.1842 6.10287 11.1838 6.10251 11.1833 6.10196C10.7357 2.98851 12.1348 1.11379 16.9351 1.11379C17.2266 1.11379 17.5309 1.12069 17.8478 1.13469L17.8495 1.13487C19.7109 1.43215 21.528 2.00342 22.3838 3.08433C22.384 3.08451 22.3844 3.08487 22.3846 3.08524C22.3858 3.08669 22.3867 3.08797 22.3878 3.08942L22.3882 3.0896C22.3902 3.09215 22.3922 3.09487 22.3942 3.09742C22.3948 3.09815 22.3955 3.09906 22.396 3.09978C22.3973 3.10142 22.3987 3.10324 22.4 3.10488C22.4007 3.10579 22.4017 3.10706 22.4024 3.10797C22.4033 3.10906 22.404 3.11015 22.4049 3.11124C22.4058 3.11251 22.4067 3.1136 22.4077 3.11487C22.4086 3.11596 22.4097 3.11742 22.4106 3.11869C22.4117 3.11979 22.4127 3.12124 22.4137 3.12251C22.4142 3.12342 22.4149 3.12415 22.4155 3.12506C22.4169 3.12706 22.4184 3.12869 22.4198 3.13069C22.4202 3.13142 22.4207 3.13215 22.4213 3.13269C22.4226 3.13451 22.4237 3.13596 22.4251 3.1376C22.4255 3.13815 22.4258 3.13869 22.4262 3.13906C22.4277 3.14124 22.4293 3.14324 22.4307 3.14542C22.4311 3.14578 22.4315 3.14633 22.4318 3.14687C22.4335 3.14905 22.4351 3.15124 22.4367 3.15342C22.4386 3.1556 22.4402 3.15796 22.4418 3.16015C22.442 3.16069 22.4422 3.16087 22.4426 3.16124C22.4442 3.16342 22.4458 3.16578 22.4475 3.16797C22.4477 3.16815 22.4477 3.16833 22.4478 3.16851C22.4513 3.17342 22.4548 3.17815 22.4582 3.18287C22.4584 3.18305 22.4584 3.18305 22.4584 3.18324C22.7444 3.58196 22.9031 4.04706 22.8922 4.5896C22.8922 4.58997 22.8922 4.59015 22.8922 4.59033C22.8922 4.59669 22.892 4.60342 22.8918 4.60979C22.8918 4.60997 22.8918 4.61033 22.8918 4.61051C22.8917 4.6136 22.8917 4.61724 22.8915 4.62033V4.62069C22.8913 4.62378 22.8913 4.62706 22.8911 4.63015C22.8911 4.63033 22.8911 4.63051 22.8911 4.63069C22.8911 4.63378 22.8909 4.63724 22.8908 4.64033C22.8908 4.64069 22.8908 4.64106 22.8908 4.64124C22.8906 4.6476 22.8902 4.65396 22.8898 4.66033C22.8898 4.66087 22.8898 4.66124 22.8898 4.66178C22.8897 4.66487 22.8895 4.66796 22.8895 4.67106C22.8893 4.6716 22.8893 4.6716 22.8893 4.67215C22.8891 4.67524 22.8891 4.67797 22.8889 4.68106C22.8889 4.68142 22.8889 4.68178 22.8888 4.68197C22.8888 4.68506 22.8886 4.68815 22.8884 4.69124C22.8882 4.69197 22.8882 4.69233 22.8882 4.69287C22.8878 4.69924 22.8875 4.70524 22.8871 4.7116C22.8871 4.71215 22.8869 4.71288 22.8869 4.71342C22.8868 4.71633 22.8866 4.7196 22.8864 4.72251C22.8862 4.72306 22.8862 4.72324 22.8862 4.7236C22.886 4.72651 22.8858 4.72942 22.8857 4.73233C22.8857 4.73288 22.8855 4.73324 22.8855 4.73378C22.8853 4.73669 22.8851 4.73996 22.8847 4.74287C22.8847 4.7436 22.8847 4.74415 22.8847 4.74469C22.8844 4.74797 22.8842 4.75088 22.884 4.75397C22.6035 8.23124 18.6426 16.9272 17.2435 19.9087ZM13.4486 10.3898L16.1918 19.4009C16.5275 18.7169 16.8455 18.0551 17.1462 17.416C19.6706 12.0516 20.9857 8.30087 21.4495 6.69342C22.2253 3.88124 21.0849 3.16542 20.6246 2.88924C20.6215 2.88742 20.6184 2.8856 20.6155 2.88378C20.6133 2.88251 20.6113 2.88142 20.6091 2.88015C20.6053 2.87778 20.6011 2.87542 20.5973 2.87306C20.5969 2.87288 20.5968 2.87269 20.5964 2.87251C20.5937 2.87106 20.5911 2.86942 20.5884 2.86797C19.7944 2.40633 18.2162 1.95451 16.6784 1.95415C16.6778 1.95415 16.6771 1.95415 16.6766 1.95415C16.6762 1.95415 16.6757 1.95415 16.6753 1.95415C15.3457 1.95433 14.0471 2.29233 13.3118 3.25342C13.3037 3.26415 13.2957 3.27469 13.2877 3.28542C12.8653 3.78724 12.4449 4.5876 12.4457 5.78615C12.446 6.19833 12.496 6.65742 12.6129 7.16778C12.7097 7.58906 13.0282 8.80906 13.4486 10.3898Z" fill="url(#paint3_linear_1286_1187)"/>
</g>
<mask id="mask4_1286_1187" style="mask-type:luminance" maskUnits="userSpaceOnUse" x="11" y="6" width="5" height="14">
<path d="M15.2553 19.6675C14.2056 16.5878 11.6614 8.92893 11.2222 6.32984C11.2092 6.25312 11.1974 6.1773 11.1865 6.10202C11.1871 6.10257 11.1874 6.10294 11.1878 6.10348L11.1882 6.10384C11.1987 6.17875 11.2094 6.25348 11.2222 6.32984C11.6616 8.92893 14.2058 16.5878 15.2553 19.6675Z" fill="white"/>
</mask>
<g mask="url(#mask4_1286_1187)">
<path d="M15.2553 19.6675C14.2056 16.5878 11.6614 8.92893 11.2222 6.32984C11.2092 6.25312 11.1974 6.1773 11.1865 6.10202C11.1871 6.10257 11.1874 6.10294 11.1878 6.10348L11.1882 6.10384C11.1987 6.17875 11.2094 6.25348 11.2222 6.32984C11.6616 8.92893 14.2058 16.5878 15.2553 19.6675Z" fill="url(#paint4_linear_1286_1187)"/>
</g>
<mask id="mask5_1286_1187" style="mask-type:luminance" maskUnits="userSpaceOnUse" x="13" y="1" width="9" height="19">
<path d="M16.1884 19.3979L13.4451 10.3869C13.978 8.60831 14.376 7.21977 14.4624 6.76686C14.514 6.49577 14.5373 6.23904 14.5371 5.99613C14.5362 4.72304 13.8884 3.83468 13.2842 3.2825C13.2922 3.27177 13.3002 3.26122 13.3084 3.2505C14.0435 2.28959 15.3424 1.95141 16.6718 1.95122C16.6722 1.95122 16.6727 1.95122 16.6731 1.95122C16.6736 1.95122 16.6744 1.95122 16.6749 1.95122C18.2125 1.95177 19.7911 2.40359 20.5849 2.86504C20.5876 2.8665 20.5902 2.86813 20.5929 2.86959C20.5933 2.86977 20.5934 2.86995 20.5938 2.87013C20.5976 2.8725 20.6018 2.87486 20.6056 2.87722C20.6078 2.87849 20.6098 2.87958 20.612 2.88086C20.6149 2.88268 20.618 2.88449 20.6211 2.88631C21.0814 3.16249 22.2218 3.87831 21.4458 6.69049C20.982 8.29795 19.6671 12.0487 17.1427 17.413C16.842 18.0521 16.524 18.7139 16.1884 19.3979Z" fill="white"/>
</mask>
<g mask="url(#mask5_1286_1187)">
<path d="M16.1884 19.3979L13.4451 10.3869C13.978 8.60831 14.376 7.21977 14.4624 6.76686C14.514 6.49577 14.5373 6.23904 14.5371 5.99613C14.5362 4.72304 13.8884 3.83468 13.2842 3.2825C13.2922 3.27177 13.3002 3.26122 13.3084 3.2505C14.0435 2.28959 15.3424 1.95141 16.6718 1.95122C16.6722 1.95122 16.6727 1.95122 16.6731 1.95122C16.6736 1.95122 16.6744 1.95122 16.6749 1.95122C18.2125 1.95177 19.7911 2.40359 20.5849 2.86504C20.5876 2.8665 20.5902 2.86813 20.5929 2.86959C20.5933 2.86977 20.5934 2.86995 20.5938 2.87013C20.5976 2.8725 20.6018 2.87486 20.6056 2.87722C20.6078 2.87849 20.6098 2.87958 20.612 2.88086C20.6149 2.88268 20.618 2.88449 20.6211 2.88631C21.0814 3.16249 22.2218 3.87831 21.4458 6.69049C20.982 8.29795 19.6671 12.0487 17.1427 17.413C16.842 18.0521 16.524 18.7139 16.1884 19.3979Z" fill="url(#paint5_linear_1286_1187)"/>
</g>
<mask id="mask6_1286_1187" style="mask-type:luminance" maskUnits="userSpaceOnUse" x="13" y="1" width="8" height="19">
<path d="M13.3193 3.2505C14.0546 2.2894 15.3531 1.95141 16.6828 1.95122C15.3533 1.95141 14.0544 2.28959 13.3193 3.2505Z" fill="white"/>
</mask>
<g mask="url(#mask6_1286_1187)">
<path d="M13.3193 3.2505C14.0546 2.2894 15.3531 1.95141 16.6828 1.95122C15.3533 1.95141 14.0544 2.28959 13.3193 3.2505Z" fill="url(#paint6_linear_1286_1187)"/>
</g>
<mask id="mask7_1286_1187" style="mask-type:luminance" maskUnits="userSpaceOnUse" x="7" y="19" width="12" height="6">
<path d="M16.9866 24.4946C16.9862 24.4944 16.9866 24.4946 16.9862 24.4946C17.1939 24.4548 17.3881 24.3695 17.5561 24.2481C17.5561 24.2479 17.5559 24.2477 17.5559 24.2475C17.7783 24.0874 17.9548 23.8637 18.0563 23.597C17.8783 24.0654 17.4686 24.4024 16.9866 24.4946ZM9.20007 24.4106C8.76625 24.2303 8.43062 23.8403 8.33971 23.345L8.01698 21.5875C8.00098 21.5006 7.99335 21.4141 7.99317 21.3288C7.99226 20.6494 8.47661 20.0468 9.16807 19.9183C9.16989 19.9179 9.17152 19.9175 9.17334 19.9172C10.2219 19.7261 11.6935 19.597 13.0906 19.5886C12.1323 19.5944 11.1392 19.6572 10.2712 19.7574C14.4933 19.7575 17.0386 20.7177 17.4021 21.2266C17.7426 21.7032 17.4457 23.2552 17.1479 23.6243C17.0423 23.5226 16.9273 23.4475 16.8052 23.4048C15.8459 23.0686 14.4864 22.8455 13.2135 22.8455C11.9406 22.8455 10.5813 23.0686 9.62189 23.4048C9.32117 23.5101 9.06443 23.8104 8.8808 24.225C8.97916 24.2999 9.08698 24.3623 9.20153 24.4101C9.20116 24.4103 9.20025 24.4106 9.20007 24.4106ZM18.0624 23.5803C18.0628 23.5795 18.063 23.5788 18.0632 23.5783C18.063 23.579 18.0628 23.5795 18.0624 23.5803ZM18.1233 23.3615C18.1235 23.3612 18.1235 23.361 18.1235 23.3608C18.1235 23.361 18.1235 23.3614 18.1233 23.3615ZM13.0926 19.5886C13.0959 19.5886 13.0992 19.5886 13.1023 19.5886C13.099 19.5886 13.0959 19.5886 13.0926 19.5886ZM13.1286 19.5884C13.1312 19.5884 13.1339 19.5884 13.1364 19.5884C13.1337 19.5884 13.1312 19.5884 13.1286 19.5884ZM13.1793 19.5883C13.181 19.5883 13.1828 19.5883 13.1844 19.5883C13.1826 19.5883 13.181 19.5883 13.1793 19.5883ZM13.2135 19.5883C13.215 19.5883 13.2168 19.5883 13.2184 19.5883C13.2168 19.5883 13.2152 19.5883 13.2135 19.5883Z" fill="white"/>
</mask>
<g mask="url(#mask7_1286_1187)">
<path d="M16.9866 24.4946C16.9862 24.4944 16.9866 24.4946 16.9862 24.4946C17.1939 24.4548 17.3881 24.3695 17.5561 24.2481C17.5561 24.2479 17.5559 24.2477 17.5559 24.2475C17.7783 24.0874 17.9548 23.8637 18.0563 23.597C17.8783 24.0654 17.4686 24.4024 16.9866 24.4946ZM9.20007 24.4106C8.76625 24.2303 8.43062 23.8403 8.33971 23.345L8.01698 21.5875C8.00098 21.5006 7.99335 21.4141 7.99317 21.3288C7.99226 20.6494 8.47661 20.0468 9.16807 19.9183C9.16989 19.9179 9.17152 19.9175 9.17334 19.9172C10.2219 19.7261 11.6935 19.597 13.0906 19.5886C12.1323 19.5944 11.1392 19.6572 10.2712 19.7574C14.4933 19.7575 17.0386 20.7177 17.4021 21.2266C17.7426 21.7032 17.4457 23.2552 17.1479 23.6243C17.0423 23.5226 16.9273 23.4475 16.8052 23.4048C15.8459 23.0686 14.4864 22.8455 13.2135 22.8455C11.9406 22.8455 10.5813 23.0686 9.62189 23.4048C9.32117 23.5101 9.06443 23.8104 8.8808 24.225C8.97916 24.2999 9.08698 24.3623 9.20153 24.4101C9.20116 24.4103 9.20025 24.4106 9.20007 24.4106ZM18.0624 23.5803C18.0628 23.5795 18.063 23.5788 18.0632 23.5783C18.063 23.579 18.0628 23.5795 18.0624 23.5803ZM18.1233 23.3615C18.1235 23.3612 18.1235 23.361 18.1235 23.3608C18.1235 23.361 18.1235 23.3614 18.1233 23.3615ZM13.0926 19.5886C13.0959 19.5886 13.0992 19.5886 13.1023 19.5886C13.099 19.5886 13.0959 19.5886 13.0926 19.5886ZM13.1286 19.5884C13.1312 19.5884 13.1339 19.5884 13.1364 19.5884C13.1337 19.5884 13.1312 19.5884 13.1286 19.5884ZM13.1793 19.5883C13.181 19.5883 13.1828 19.5883 13.1844 19.5883C13.1826 19.5883 13.181 19.5883 13.1793 19.5883ZM13.2135 19.5883C13.215 19.5883 13.2168 19.5883 13.2184 19.5883C13.2168 19.5883 13.2152 19.5883 13.2135 19.5883Z" fill="url(#paint7_linear_1286_1187)"/>
</g>
<path d="M18.0602 23.586C18.0608 23.5845 18.0613 23.5829 18.0619 23.5814C18.0613 23.5831 18.0608 23.5845 18.0602 23.586Z" fill="#98BDC5"/>
<mask id="mask8_1286_1187" style="mask-type:luminance" maskUnits="userSpaceOnUse" x="13" y="19" width="1" height="1">
<path d="M13.0908 19.5903C13.0914 19.5903 13.0921 19.5903 13.0928 19.5903C13.0921 19.5903 13.0915 19.5903 13.0908 19.5903ZM13.1219 19.5902C13.1241 19.5902 13.1265 19.5902 13.1288 19.5902C13.1265 19.5902 13.1243 19.5902 13.1219 19.5902ZM13.1508 19.5902C13.1554 19.5902 13.1597 19.5902 13.1641 19.59C13.1597 19.5902 13.1552 19.5902 13.1508 19.5902ZM13.169 19.59C13.1725 19.59 13.1761 19.59 13.1795 19.59C13.1759 19.59 13.1725 19.59 13.169 19.59ZM13.1846 19.59C13.1894 19.59 13.1945 19.59 13.1992 19.59C13.1943 19.59 13.1896 19.59 13.1846 19.59Z" fill="white"/>
</mask>
<g mask="url(#mask8_1286_1187)">
<path d="M13.0908 19.5903C13.0914 19.5903 13.0921 19.5903 13.0928 19.5903C13.0921 19.5903 13.0915 19.5903 13.0908 19.5903ZM13.1219 19.5902C13.1241 19.5902 13.1265 19.5902 13.1288 19.5902C13.1265 19.5902 13.1243 19.5902 13.1219 19.5902ZM13.1508 19.5902C13.1554 19.5902 13.1597 19.5902 13.1641 19.59C13.1597 19.5902 13.1552 19.5902 13.1508 19.5902ZM13.169 19.59C13.1725 19.59 13.1761 19.59 13.1795 19.59C13.1759 19.59 13.1725 19.59 13.169 19.59ZM13.1846 19.59C13.1894 19.59 13.1945 19.59 13.1992 19.59C13.1943 19.59 13.1896 19.59 13.1846 19.59Z" fill="url(#paint8_linear_1286_1187)"/>
</g>
<mask id="mask9_1286_1187" style="mask-type:luminance" maskUnits="userSpaceOnUse" x="10" y="19" width="9" height="6">
<path d="M17.5513 24.2495C17.4406 23.9935 17.3024 23.7795 17.1433 23.6262C17.4411 23.2571 17.7381 21.7051 17.3975 21.2286C17.0341 20.7197 14.4888 19.7595 10.2666 19.7593C11.1346 19.6591 12.1277 19.5964 13.0861 19.5906C13.0868 19.5906 13.0873 19.5906 13.0881 19.5906C13.0913 19.5906 13.0944 19.5906 13.0977 19.5906C13.0995 19.5906 13.1013 19.5906 13.1031 19.5906C13.1079 19.5906 13.1124 19.5904 13.1171 19.5904C13.1195 19.5904 13.1217 19.5904 13.124 19.5904C13.1266 19.5904 13.1291 19.5904 13.1319 19.5904C13.1341 19.5904 13.1362 19.5904 13.1384 19.5904C13.141 19.5904 13.1435 19.5904 13.146 19.5904C13.1504 19.5904 13.155 19.5904 13.1593 19.5902C13.161 19.5902 13.1626 19.5902 13.1642 19.5902C13.1677 19.5902 13.1711 19.5902 13.1748 19.5902C13.1764 19.5902 13.1781 19.5902 13.1799 19.5902C13.1848 19.5902 13.1895 19.5902 13.1944 19.5902C13.195 19.5902 13.1955 19.5902 13.196 19.5902C13.2004 19.5902 13.2046 19.5902 13.209 19.5902C13.2106 19.5902 13.2122 19.5902 13.2139 19.5902C13.2188 19.5902 13.2237 19.5902 13.2286 19.5902C14.6675 19.5902 16.2041 19.7217 17.2886 19.9191C17.9828 20.0457 18.4695 20.6497 18.4686 21.3308C18.4686 21.4161 18.4608 21.5026 18.4448 21.5895L18.1221 23.347C18.1215 23.3495 18.121 23.3522 18.1206 23.3548C18.1204 23.3551 18.1204 23.3553 18.1204 23.3555C18.1199 23.3581 18.1195 23.3604 18.119 23.3628C18.119 23.363 18.119 23.3631 18.1188 23.3635C18.1042 23.4382 18.0841 23.5106 18.0586 23.5802C18.0584 23.5808 18.0582 23.5815 18.0579 23.5822C18.0573 23.5837 18.0568 23.5853 18.0562 23.5868C18.0557 23.5882 18.0551 23.5897 18.0548 23.591C18.0544 23.5917 18.0542 23.5924 18.0539 23.593C18.0533 23.5948 18.0526 23.5966 18.0519 23.5984C18.0519 23.5986 18.0517 23.5988 18.0517 23.599C17.9502 23.8657 17.7737 24.0893 17.5513 24.2495Z" fill="white"/>
</mask>
<g mask="url(#mask9_1286_1187)">
<path d="M17.5513 24.2495C17.4406 23.9935 17.3024 23.7795 17.1433 23.6262C17.4411 23.2571 17.7381 21.7051 17.3975 21.2286C17.0341 20.7197 14.4888 19.7595 10.2666 19.7593C11.1346 19.6591 12.1277 19.5964 13.0861 19.5906C13.0868 19.5906 13.0873 19.5906 13.0881 19.5906C13.0913 19.5906 13.0944 19.5906 13.0977 19.5906C13.0995 19.5906 13.1013 19.5906 13.1031 19.5906C13.1079 19.5906 13.1124 19.5904 13.1171 19.5904C13.1195 19.5904 13.1217 19.5904 13.124 19.5904C13.1266 19.5904 13.1291 19.5904 13.1319 19.5904C13.1341 19.5904 13.1362 19.5904 13.1384 19.5904C13.141 19.5904 13.1435 19.5904 13.146 19.5904C13.1504 19.5904 13.155 19.5904 13.1593 19.5902C13.161 19.5902 13.1626 19.5902 13.1642 19.5902C13.1677 19.5902 13.1711 19.5902 13.1748 19.5902C13.1764 19.5902 13.1781 19.5902 13.1799 19.5902C13.1848 19.5902 13.1895 19.5902 13.1944 19.5902C13.195 19.5902 13.1955 19.5902 13.196 19.5902C13.2004 19.5902 13.2046 19.5902 13.209 19.5902C13.2106 19.5902 13.2122 19.5902 13.2139 19.5902C13.2188 19.5902 13.2237 19.5902 13.2286 19.5902C14.6675 19.5902 16.2041 19.7217 17.2886 19.9191C17.9828 20.0457 18.4695 20.6497 18.4686 21.3308C18.4686 21.4161 18.4608 21.5026 18.4448 21.5895L18.1221 23.347C18.1215 23.3495 18.121 23.3522 18.1206 23.3548C18.1204 23.3551 18.1204 23.3553 18.1204 23.3555C18.1199 23.3581 18.1195 23.3604 18.119 23.3628C18.119 23.363 18.119 23.3631 18.1188 23.3635C18.1042 23.4382 18.0841 23.5106 18.0586 23.5802C18.0584 23.5808 18.0582 23.5815 18.0579 23.5822C18.0573 23.5837 18.0568 23.5853 18.0562 23.5868C18.0557 23.5882 18.0551 23.5897 18.0548 23.591C18.0544 23.5917 18.0542 23.5924 18.0539 23.593C18.0533 23.5948 18.0526 23.5966 18.0519 23.5984C18.0519 23.5986 18.0517 23.5988 18.0517 23.599C17.9502 23.8657 17.7737 24.0893 17.5513 24.2495Z" fill="url(#paint9_linear_1286_1187)"/>
</g>
<path d="M16.8042 23.4059C15.845 23.0697 14.4855 22.8466 13.2126 22.8466C11.9397 22.8466 10.5804 23.0697 9.62098 23.4059C9.32025 23.5112 9.06352 23.8115 8.87988 24.2261C9.17988 24.4548 9.56807 24.5666 9.96952 24.5035C10.8742 24.3617 12.0897 24.2273 13.2322 24.2273C14.375 24.2273 15.5902 24.3617 16.495 24.5035C16.8832 24.5644 17.2595 24.4628 17.5552 24.2492C17.3708 23.8226 17.1106 23.5132 16.8042 23.4059Z" fill="#2B5F9E"/>
<mask id="mask10_1286_1187" style="mask-type:luminance" maskUnits="userSpaceOnUse" x="1" y="23" width="24" height="24">
<path d="M12.9787 46.2437C6.87164 46.2437 1.89546 41.4101 1.66346 35.3597C1.65891 35.2419 1.65618 35.1233 1.65527 35.0046C1.692 30.1122 4.82946 25.9579 9.20019 24.4111C9.20037 24.4111 9.20128 24.4108 9.20164 24.4106C10.3831 23.9928 11.654 23.7653 12.9787 23.7653C14.3896 23.7653 15.7407 24.0237 16.9864 24.4951C16.9867 24.4951 16.9864 24.4949 16.9867 24.4951C21.2371 26.1042 24.266 30.1984 24.3022 35.0046C24.3013 35.1226 24.2985 35.2397 24.294 35.3568C24.0633 41.4082 19.0864 46.2437 12.9787 46.2437ZM5.92364 33.3282C5.65928 34.0949 5.51546 34.9213 5.51546 35.7828C5.51546 39.7981 8.64327 43.0531 12.5015 43.0531C14.6002 43.0531 16.4827 42.0898 17.7635 40.5653C19.0631 39.4283 19.9544 37.8355 20.1882 36.0366C21.5431 35.7026 22.9356 35.0639 24.2624 34.1486C23.8042 28.594 19.3404 24.1784 13.7649 23.7955C13.0036 25.1402 12.4864 26.524 12.2218 27.8597C9.15418 28.1771 6.65255 30.4022 5.92364 33.3282Z" fill="white"/>
</mask>
<g mask="url(#mask10_1286_1187)">
<path d="M12.9787 46.2437C6.87164 46.2437 1.89546 41.4101 1.66346 35.3597C1.65891 35.2419 1.65618 35.1233 1.65527 35.0046C1.692 30.1122 4.82946 25.9579 9.20019 24.4111C9.20037 24.4111 9.20128 24.4108 9.20164 24.4106C10.3831 23.9928 11.654 23.7653 12.9787 23.7653C14.3896 23.7653 15.7407 24.0237 16.9864 24.4951C16.9867 24.4951 16.9864 24.4949 16.9867 24.4951C21.2371 26.1042 24.266 30.1984 24.3022 35.0046C24.3013 35.1226 24.2985 35.2397 24.294 35.3568C24.0633 41.4082 19.0864 46.2437 12.9787 46.2437ZM5.92364 33.3282C5.65928 34.0949 5.51546 34.9213 5.51546 35.7828C5.51546 39.7981 8.64327 43.0531 12.5015 43.0531C14.6002 43.0531 16.4827 42.0898 17.7635 40.5653C19.0631 39.4283 19.9544 37.8355 20.1882 36.0366C21.5431 35.7026 22.9356 35.0639 24.2624 34.1486C23.8042 28.594 19.3404 24.1784 13.7649 23.7955C13.0036 25.1402 12.4864 26.524 12.2218 27.8597C9.15418 28.1771 6.65255 30.4022 5.92364 33.3282Z" fill="url(#paint10_linear_1286_1187)"/>
</g>
<mask id="mask11_1286_1187" style="mask-type:luminance" maskUnits="userSpaceOnUse" x="12" y="23" width="13" height="14">
<path d="M20.19 36.0396C20.2302 35.7299 20.2509 35.4146 20.2509 35.0941C20.2509 31.0788 16.9958 27.8237 12.9805 27.8237C12.7251 27.8237 12.4725 27.837 12.2236 27.8626C12.4882 26.527 13.0055 25.1432 13.7667 23.7985C19.3422 24.1814 23.806 28.597 24.2642 34.1515C22.9375 35.0668 21.5449 35.7056 20.19 36.0396Z" fill="white"/>
</mask>
<g mask="url(#mask11_1286_1187)">
<path d="M20.19 36.0396C20.2302 35.7299 20.2509 35.4146 20.2509 35.0941C20.2509 31.0788 16.9958 27.8237 12.9805 27.8237C12.7251 27.8237 12.4725 27.837 12.2236 27.8626C12.4882 26.527 13.0055 25.1432 13.7667 23.7985C19.3422 24.1814 23.806 28.597 24.2642 34.1515C22.9375 35.0668 21.5449 35.7056 20.19 36.0396Z" fill="url(#paint11_linear_1286_1187)"/>
</g>
<mask id="mask12_1286_1187" style="mask-type:luminance" maskUnits="userSpaceOnUse" x="5" y="33" width="13" height="11">
<path d="M12.5006 43.0542C8.64247 43.0542 5.51465 39.7991 5.51465 35.7839C5.51465 34.9224 5.65847 34.096 5.92283 33.3293C5.78211 33.8937 5.70756 34.484 5.70756 35.0922C5.70756 39.1073 8.96265 42.3626 12.9779 42.3626C14.8101 42.3626 16.4841 41.6847 17.7626 40.5664C16.4819 42.0909 14.5994 43.0542 12.5006 43.0542Z" fill="white"/>
</mask>
<g mask="url(#mask12_1286_1187)">
<path d="M12.5006 43.0542C8.64247 43.0542 5.51465 39.7991 5.51465 35.7839C5.51465 34.9224 5.65847 34.096 5.92283 33.3293C5.78211 33.8937 5.70756 34.484 5.70756 35.0922C5.70756 39.1073 8.96265 42.3626 12.9779 42.3626C14.8101 42.3626 16.4841 41.6847 17.7626 40.5664C16.4819 42.0909 14.5994 43.0542 12.5006 43.0542Z" fill="url(#paint12_linear_1286_1187)"/>
</g>
<path d="M12.9784 28.7262C16.8413 28.7262 19.9993 31.7393 20.2333 35.5435C20.2424 35.3935 20.2487 35.2425 20.2487 35.0904C20.2487 31.0751 16.9936 27.82 12.9784 27.82C8.96309 27.82 5.70801 31.0751 5.70801 35.0904C5.70801 35.2425 5.71418 35.3935 5.72346 35.5435C5.95764 31.7393 9.11527 28.7262 12.9784 28.7262Z" fill="#2B5F9E"/>
<mask id="mask13_1286_1187" style="mask-type:luminance" maskUnits="userSpaceOnUse" x="5" y="28" width="16" height="15">
<path d="M12.9803 42.3618C8.96505 42.3618 5.70996 39.1066 5.70996 35.0915C5.70996 35.2436 5.71614 35.3945 5.72541 35.5445C5.95959 31.7404 9.11723 28.7273 12.9803 28.7273C16.8432 28.7273 20.0012 31.7404 20.2352 35.5445C20.2443 35.3945 20.2507 35.2436 20.2507 35.0915C20.2507 39.1066 16.9956 42.3618 12.9803 42.3618Z" fill="white"/>
</mask>
<g mask="url(#mask13_1286_1187)">
<path d="M12.9803 42.3618C8.96505 42.3618 5.70996 39.1066 5.70996 35.0915C5.70996 35.2436 5.71614 35.3945 5.72541 35.5445C5.95959 31.7404 9.11723 28.7273 12.9803 28.7273C16.8432 28.7273 20.0012 31.7404 20.2352 35.5445C20.2443 35.3945 20.2507 35.2436 20.2507 35.0915C20.2507 39.1066 16.9956 42.3618 12.9803 42.3618Z" fill="url(#paint13_radial_1286_1187)"/>
</g>
<path d="M20.2333 35.5435C19.9993 31.7393 16.8413 28.7262 12.9784 28.7262C9.11527 28.7262 5.95764 31.7393 5.72346 35.5435C5.71418 35.3935 5.70801 35.2425 5.70801 35.0904C5.70801 31.0751 8.96309 27.82 12.9784 27.82C16.9936 27.82 20.2487 31.0751 20.2487 35.0904C20.2487 35.2425 20.2424 35.3935 20.2333 35.5435Z" fill="#214787"/>
<path d="M17.9313 26.1301C18.1908 25.7343 18.7977 25.9003 19.4153 26.305C20.0326 26.7098 20.4268 27.2001 20.1673 27.5961C19.9078 27.9921 19.2875 27.8467 18.67 27.4418C18.0526 27.037 17.6717 26.5261 17.9313 26.1301Z" fill="white"/>
<path d="M6.48882 39.6044C6.76954 39.3066 7.22954 39.5099 7.65518 39.9112C8.08081 40.3125 8.31082 40.7599 8.03027 41.0576C7.74955 41.3554 7.275 41.1676 6.84918 40.7661C6.42373 40.3648 6.20809 39.9023 6.48882 39.6044Z" fill="white"/>
<path d="M8.37187 41.257C8.61787 40.9461 8.92878 40.985 9.18769 41.1901C9.44641 41.395 9.55569 41.6886 9.30951 41.9993C9.06351 42.31 8.74023 42.2873 8.48114 42.0823C8.22223 41.8771 8.12587 41.5677 8.37187 41.257Z" fill="white"/>
<path d="M16.5278 20.5565C16.6671 20.344 16.9931 20.4332 17.3247 20.6505C17.6564 20.868 17.868 21.1312 17.7285 21.3438C17.5893 21.5565 17.2562 21.4785 16.9244 21.2609C16.5929 21.0436 16.3884 20.7692 16.5278 20.5565Z" fill="white"/>
<path d="M14.1356 1.4112C13.5009 1.61356 12.9073 1.90265 12.4462 2.3292C11.9847 2.75302 11.6646 3.30356 11.4973 3.90883C11.3304 4.51556 11.2891 5.16247 11.318 5.81029C11.3484 6.45938 11.444 7.10938 11.5411 7.76974L11.538 7.77393L11.534 7.77174C11.2784 7.15629 11.0926 6.50829 10.9986 5.83829C10.902 5.16993 10.9198 4.47192 11.0966 3.79792C11.1496 3.63192 11.2053 3.46592 11.2722 3.30465L11.3897 3.06902C11.4277 2.98974 11.4673 2.91174 11.5204 2.84065C11.6209 2.69574 11.7173 2.54847 11.8444 2.4252C11.9051 2.36174 11.9627 2.29538 12.0258 2.23483L12.2318 2.07174C12.7871 1.64392 13.4687 1.43229 14.1342 1.40392L14.1382 1.40738L14.1356 1.4112Z" fill="#85FFD6"/>
<path d="M10.9814 36.9905C11.2008 36.8174 11.4277 36.639 11.6621 36.4549C11.8963 36.2709 12.127 36.0812 12.3539 35.8858C12.5806 35.6905 12.7834 35.4898 12.9619 35.2834C13.1405 35.0769 13.2845 34.864 13.3941 34.6445C13.5039 34.4251 13.5588 34.2001 13.5588 33.9694C13.5588 33.8283 13.5263 33.7083 13.4612 33.6098C13.3961 33.5112 13.3134 33.4321 13.2128 33.3725C13.1126 33.3132 13.0001 33.2705 12.8754 33.2443C12.7506 33.2183 12.6272 33.2052 12.5045 33.2052C12.3519 33.2052 12.1976 33.2165 12.0414 33.2387C11.8852 33.261 11.7346 33.2889 11.5896 33.3225C11.4445 33.3558 11.3097 33.394 11.185 33.4369C11.0605 33.4796 10.9554 33.5214 10.8699 33.5623L10.5128 31.777V31.0498L12.8948 31.4145C13.4341 31.4145 13.9019 31.4785 14.2979 31.6069C14.6941 31.7352 15.0225 31.9081 15.2826 32.1258C15.543 32.3432 15.7354 32.5972 15.8601 32.8872C15.9848 33.1774 16.047 33.4825 16.047 33.8021C16.047 34.1518 15.9641 34.5023 15.7986 34.8538C15.6332 35.2052 15.4099 35.5429 15.1292 35.8663C14.8485 36.1898 14.5203 36.492 14.1445 36.7729C13.7688 37.0538 13.371 37.2983 12.9508 37.5065H15.969V39.4536H10.6914L10.4014 37.4898V36.7625L10.9814 36.9905Z" fill="#2B5F9E"/>
<mask id="mask14_1286_1187" style="mask-type:luminance" maskUnits="userSpaceOnUse" x="10" y="30" width="7" height="9">
<path d="M12.945 36.7819H15.9631V38.729H10.6855L10.3955 36.7652C10.5626 36.6053 10.7561 36.4388 10.9755 36.2659C11.195 36.0928 11.4219 35.9144 11.6562 35.7303C11.8904 35.5463 12.1211 35.3566 12.3481 35.1612C12.5748 34.9659 12.7775 34.7652 12.9561 34.5588C13.1346 34.3523 13.2786 34.1394 13.3882 33.9199C13.4981 33.7004 13.553 33.4755 13.553 33.2448C13.553 33.1037 13.5204 32.9837 13.4553 32.8852C13.3902 32.7866 13.3075 32.7075 13.207 32.6479C13.1068 32.5886 12.9942 32.5459 12.8695 32.5197C12.7448 32.4937 12.6213 32.4806 12.4986 32.4806C12.3461 32.4806 12.1917 32.4919 12.0355 32.5141C11.8793 32.5364 11.7288 32.5643 11.5837 32.5979C11.4386 32.6312 11.3039 32.6693 11.1791 32.7123C11.0546 32.755 10.9495 32.7968 10.8641 32.8377L10.507 31.0524C10.9235 30.9112 11.3346 30.8154 11.7399 30.7652C12.1453 30.7148 12.5282 30.6899 12.889 30.6899C13.4282 30.6899 13.8961 30.7539 14.2921 30.8823C14.6882 31.0106 15.0166 31.1835 15.2768 31.4012C15.5371 31.6186 15.7295 31.8726 15.8542 32.1626C15.979 32.4528 16.0411 32.7579 16.0411 33.0775C16.0411 33.4272 15.9582 33.7777 15.7928 34.1292C15.6273 34.4806 15.4041 34.8183 15.1233 35.1417C14.8426 35.4652 14.5144 35.7673 14.1386 36.0483C13.763 36.3292 13.3651 36.5737 12.945 36.7819Z" fill="white"/>
</mask>
<g mask="url(#mask14_1286_1187)">
<path d="M12.945 36.7819H15.9631V38.729H10.6855L10.3955 36.7652C10.5626 36.6053 10.7561 36.4388 10.9755 36.2659C11.195 36.0928 11.4219 35.9144 11.6562 35.7303C11.8904 35.5463 12.1211 35.3566 12.3481 35.1612C12.5748 34.9659 12.7775 34.7652 12.9561 34.5588C13.1346 34.3523 13.2786 34.1394 13.3882 33.9199C13.4981 33.7004 13.553 33.4755 13.553 33.2448C13.553 33.1037 13.5204 32.9837 13.4553 32.8852C13.3902 32.7866 13.3075 32.7075 13.207 32.6479C13.1068 32.5886 12.9942 32.5459 12.8695 32.5197C12.7448 32.4937 12.6213 32.4806 12.4986 32.4806C12.3461 32.4806 12.1917 32.4919 12.0355 32.5141C11.8793 32.5364 11.7288 32.5643 11.5837 32.5979C11.4386 32.6312 11.3039 32.6693 11.1791 32.7123C11.0546 32.755 10.9495 32.7968 10.8641 32.8377L10.507 31.0524C10.9235 30.9112 11.3346 30.8154 11.7399 30.7652C12.1453 30.7148 12.5282 30.6899 12.889 30.6899C13.4282 30.6899 13.8961 30.7539 14.2921 30.8823C14.6882 31.0106 15.0166 31.1835 15.2768 31.4012C15.5371 31.6186 15.7295 31.8726 15.8542 32.1626C15.979 32.4528 16.0411 32.7579 16.0411 33.0775C16.0411 33.4272 15.9582 33.7777 15.7928 34.1292C15.6273 34.4806 15.4041 34.8183 15.1233 35.1417C14.8426 35.4652 14.5144 35.7673 14.1386 36.0483C13.763 36.3292 13.3651 36.5737 12.945 36.7819Z" fill="url(#paint14_linear_1286_1187)"/>
</g>
<defs>
<linearGradient id="paint0_linear_1286_1187" x1="11.2922" y1="24.6558" x2="14.9286" y2="19.6376" gradientUnits="userSpaceOnUse">
<stop stop-color="#F6A000"/>
<stop offset="1" stop-color="#FFE815"/>
</linearGradient>
<linearGradient id="paint1_linear_1286_1187" x1="13.2026" y1="0.679977" x2="13.2026" y2="17.1711" gradientUnits="userSpaceOnUse">
<stop stop-color="#25C264"/>
<stop offset="1" stop-color="#018A77"/>
</linearGradient>
<linearGradient id="paint2_linear_1286_1187" x1="7.99129" y1="5.44907" x2="11.3387" y2="21.1017" gradientUnits="userSpaceOnUse">
<stop stop-color="#018A77"/>
<stop offset="1" stop-color="#25C264"/>
</linearGradient>
<linearGradient id="paint3_linear_1286_1187" x1="13.2031" y1="0.678876" x2="13.2031" y2="17.17" gradientUnits="userSpaceOnUse">
<stop stop-color="#1BE976"/>
<stop offset="1" stop-color="#00D58C"/>
</linearGradient>
<linearGradient id="paint4_linear_1286_1187" x1="7.99907" y1="5.44802" x2="11.3465" y2="21.1006" gradientUnits="userSpaceOnUse">
<stop stop-color="#00D58C"/>
<stop offset="1" stop-color="#1BE976"/>
</linearGradient>
<linearGradient id="paint5_linear_1286_1187" x1="13.1996" y1="0.675951" x2="13.1996" y2="17.1671" gradientUnits="userSpaceOnUse">
<stop stop-color="#1C9155"/>
<stop offset="1" stop-color="#016865"/>
</linearGradient>
<linearGradient id="paint6_linear_1286_1187" x1="13.2106" y1="0.675951" x2="13.2106" y2="17.1671" gradientUnits="userSpaceOnUse">
<stop stop-color="#15AF64"/>
<stop offset="1" stop-color="#00A077"/>
</linearGradient>
<linearGradient id="paint7_linear_1286_1187" x1="11.2961" y1="24.6586" x2="14.9324" y2="19.6404" gradientUnits="userSpaceOnUse">
<stop stop-color="#4A8AC2"/>
<stop offset="1" stop-color="#B6F1FF"/>
</linearGradient>
<linearGradient id="paint8_linear_1286_1187" x1="7.99747" y1="5.52211" x2="11.3122" y2="21.1014" gradientUnits="userSpaceOnUse">
<stop stop-color="#71D5D4"/>
<stop offset="1" stop-color="#85E9CE"/>
</linearGradient>
<linearGradient id="paint9_linear_1286_1187" x1="11.2915" y1="24.6606" x2="14.9279" y2="19.6424" gradientUnits="userSpaceOnUse">
<stop stop-color="#9AD5EC"/>
<stop offset="1" stop-color="#D6FAFF"/>
</linearGradient>
<linearGradient id="paint10_linear_1286_1187" x1="16.518" y1="42.4717" x2="9.0078" y2="26.627" gradientUnits="userSpaceOnUse">
<stop stop-color="#4A8AC2"/>
<stop offset="1" stop-color="#B6F1FF"/>
</linearGradient>
<linearGradient id="paint11_linear_1286_1187" x1="16.5198" y1="42.4746" x2="9.00961" y2="26.6299" gradientUnits="userSpaceOnUse">
<stop stop-color="#87D7EC"/>
<stop offset="1" stop-color="#CEFAFF"/>
</linearGradient>
<linearGradient id="paint12_linear_1286_1187" x1="16.5172" y1="42.4728" x2="9.007" y2="26.6281" gradientUnits="userSpaceOnUse">
<stop stop-color="#9AD5EC"/>
<stop offset="1" stop-color="#D6FAFF"/>
</linearGradient>
<radialGradient id="paint13_radial_1286_1187" cx="0" cy="0" r="1" gradientUnits="userSpaceOnUse" gradientTransform="translate(12.9803 35.0915) scale(7.27031 7.27031)">
<stop stop-color="#8BB5D9"/>
<stop offset="1" stop-color="#3968A5"/>
</radialGradient>
<linearGradient id="paint14_linear_1286_1187" x1="13.7284" y1="33.6053" x2="10.6381" y2="41.656" gradientUnits="userSpaceOnUse">
<stop stop-color="#B6F1FF"/>
<stop offset="1" stop-color="#4A8AC2"/>
</linearGradient>
</defs>
</svg>
