<svg width="96" height="96" viewBox="0 0 96 96" fill="none" xmlns="http://www.w3.org/2000/svg">
<g filter="url(#filter0_d_709_31120)">
<rect x="16" y="8" width="64" height="64" rx="32" fill="#FFDA7D"/>
<path fill-rule="evenodd" clip-rule="evenodd" d="M38.1556 31.7043C36.8131 31.7043 35.7131 32.7043 35.565 34.0137C36.2975 34.5337 37.1906 34.8405 38.1556 34.8405C39.1206 34.8405 40.0138 34.5337 40.7438 34.0137C40.5981 32.7043 39.4956 31.7043 38.1556 31.7043ZM60.17 43.4305C60.1163 43.6312 60.2363 43.8362 60.4356 43.8893C60.4688 43.898 60.4994 43.9018 60.5325 43.9018C60.6981 43.9018 60.8488 43.7905 60.895 43.623C61.1913 42.5074 61.3419 41.3505 61.3419 40.1849C61.3419 39.0199 61.1913 37.863 60.895 36.7468C60.8413 36.5468 60.6375 36.4274 60.4356 36.4805C60.2363 36.5337 60.1169 36.7393 60.17 36.9393C60.4481 37.9924 60.5913 39.0843 60.5913 40.1849C60.5913 41.2855 60.4481 42.3774 60.17 43.4305ZM59.9381 49.138C59.9381 49.8412 59.5963 50.4649 59.0675 50.8524C60.04 51.2418 60.785 52.0712 61.0556 53.1037C61.8238 52.2987 62.2963 51.2105 62.2963 50.0143C62.2963 47.5418 60.285 45.5305 57.8119 45.5305C55.3413 45.5305 53.3275 47.5418 53.3275 50.0143C53.3275 51.2112 53.7994 52.2993 54.5681 53.1037C54.8388 52.0718 55.5838 51.2418 56.5563 50.8524C56.0306 50.4649 55.6856 49.8412 55.6856 49.138C55.6856 47.9662 56.64 47.0124 57.8119 47.0124C58.9831 47.0124 59.9381 47.9662 59.9381 49.138ZM56.4363 49.138C56.4363 48.3793 57.0538 47.7624 57.8119 47.7624C58.57 47.7624 59.1875 48.3793 59.1875 49.138C59.1875 49.8968 58.57 50.5143 57.8119 50.5143C57.0538 50.5143 56.4363 49.8968 56.4363 49.138ZM57.8119 51.3618C59.1519 51.3618 60.2544 52.3612 60.4025 53.6712C59.67 54.1912 58.7769 54.498 57.8119 54.498C56.8469 54.498 55.9538 54.1912 55.2238 53.6705C55.3694 52.3612 56.4719 51.3618 57.8119 51.3618ZM47.9825 52.793C46.8825 52.793 45.79 52.6512 44.7381 52.3718C44.5388 52.3187 44.3325 52.4374 44.2788 52.638C44.225 52.838 44.345 53.0437 44.5444 53.0968C45.6625 53.393 46.8188 53.5437 47.9825 53.5437C49.1488 53.5437 50.305 53.393 51.4206 53.0968C51.6225 53.0437 51.7425 52.838 51.6888 52.638C51.635 52.4374 51.4281 52.3187 51.2294 52.3718C50.175 52.6512 49.085 52.793 47.9825 52.793ZM40.2819 49.138C40.2819 49.8412 39.9375 50.4649 39.4113 50.8524C40.3838 51.2418 41.1288 52.0712 41.3994 53.1037C42.165 52.2987 42.64 51.2105 42.64 50.0143C42.64 47.5418 40.6288 45.5305 38.1556 45.5305C35.6825 45.5305 33.6713 47.5418 33.6713 50.0143C33.6713 51.2112 34.1438 52.2993 34.9119 53.1037C35.1825 52.0718 35.9275 51.2418 36.9 50.8524C36.3719 50.4649 36.0294 49.8412 36.0294 49.138C36.0294 47.9662 36.9838 47.0124 38.1556 47.0124C39.3275 47.0124 40.2819 47.9662 40.2819 49.138ZM38.1556 51.3618C39.4956 51.3618 40.5981 52.3612 40.7438 53.6712C40.0138 54.1912 39.1206 54.498 38.1556 54.498C37.1906 54.498 36.2975 54.1912 35.565 53.6712C35.7131 52.3612 36.8131 51.3618 38.1556 51.3618ZM38.1556 47.7624C38.9138 47.7624 39.5313 48.3793 39.5313 49.138C39.5313 49.8968 38.9138 50.5143 38.1556 50.5143C37.3975 50.5143 36.78 49.8974 36.78 49.138C36.78 48.3799 37.3975 47.7624 38.1556 47.7624ZM35.7975 43.4305C35.5194 42.3774 35.3763 41.2855 35.3763 40.1849C35.3763 39.0843 35.5194 37.9924 35.7975 36.9393C35.8513 36.7393 35.7313 36.5337 35.5319 36.4805C35.3325 36.4274 35.1263 36.5462 35.0725 36.7468C34.7763 37.863 34.6256 39.0199 34.6256 40.1849C34.6256 41.3505 34.7763 42.5068 35.0725 43.623C35.1188 43.7912 35.2688 43.9018 35.435 43.9018C35.4681 43.9018 35.4988 43.8974 35.5319 43.8893C35.7306 43.8362 35.8506 43.6312 35.7975 43.4305ZM50.4556 36.6105H50.4581C51.2956 36.6105 52.0788 36.9337 52.6663 37.5212C53.2813 38.1368 53.5725 38.793 53.5569 39.5274C53.5138 41.5968 50.9869 43.9193 49.1413 45.6155C48.7225 46.0005 48.3219 46.3687 47.98 46.7062C47.6556 46.3905 47.2806 46.048 46.8925 45.6905C45.0188 43.9724 42.4538 41.6187 42.4106 39.5262C42.3925 38.7912 42.6838 38.1355 43.2988 37.5218C43.8856 36.9349 44.6694 36.6112 45.5038 36.6112H45.5063C46.3438 36.6118 47.1269 36.9362 47.7169 37.5237C47.8625 37.6699 48.1 37.6699 48.2475 37.5237C48.835 36.9355 49.6213 36.6118 50.4556 36.6105ZM54.5675 33.4468C54.8381 32.4149 55.5831 31.5849 56.5556 31.1955C56.03 30.808 55.685 30.1843 55.685 29.4818C55.685 28.3093 56.6394 27.3562 57.8113 27.3562C58.9825 27.3562 59.9375 28.3099 59.9375 29.4818C59.9375 30.1843 59.5956 30.8087 59.0669 31.1955C60.0394 31.5849 60.7844 32.4143 61.055 33.4468C61.8231 32.6418 62.2956 31.5537 62.2956 30.3568C62.2956 27.8843 60.2844 25.873 57.8113 25.873C55.3406 25.873 53.3269 27.8843 53.3269 30.3568C53.3269 31.5537 53.7994 32.6418 54.5675 33.4468ZM57.8119 31.7043C59.1519 31.7043 60.2544 32.7043 60.4025 34.0137C59.67 34.5337 58.7769 34.8405 57.8119 34.8405C56.8469 34.8405 55.9538 34.5337 55.2238 34.0137C55.3694 32.7043 56.4719 31.7043 57.8119 31.7043ZM57.8119 28.1055C58.57 28.1055 59.1875 28.7224 59.1875 29.4818C59.1875 30.2399 58.57 30.8574 57.8119 30.8574C57.0538 30.8574 56.4363 30.2399 56.4363 29.4818C56.4363 28.723 57.0538 28.1055 57.8119 28.1055ZM47.9825 27.578C49.085 27.578 50.175 27.7199 51.2294 27.9999C51.2625 28.008 51.2931 28.0124 51.3263 28.0124C51.4919 28.0124 51.6425 27.9012 51.6888 27.7337C51.7425 27.533 51.6225 27.328 51.4206 27.2749C50.305 26.978 49.1488 26.828 47.9825 26.828C46.8188 26.828 45.6625 26.9787 44.5444 27.2749C44.345 27.328 44.2256 27.533 44.2788 27.7337C44.3325 27.9337 44.5394 28.0524 44.7381 27.9999C45.79 27.7193 46.8825 27.578 47.9825 27.578ZM40.2819 29.4818C40.2819 28.3093 39.3275 27.3562 38.1556 27.3562C36.9844 27.3562 36.0294 28.3099 36.0294 29.4818C36.0294 30.1843 36.3713 30.8087 36.9 31.1955C35.9275 31.5849 35.1825 32.4143 34.9119 33.4468C34.1438 32.6418 33.6713 31.5537 33.6713 30.3568C33.6713 27.8843 35.6825 25.873 38.1556 25.873C40.6288 25.873 42.64 27.8843 42.64 30.3568C42.64 31.5537 42.165 32.6418 41.3994 33.4468C41.1288 32.4149 40.3838 31.5849 39.4113 31.1955C39.9375 30.8087 40.2819 30.1843 40.2819 29.4818ZM36.78 29.4818C36.78 30.2399 37.3975 30.8574 38.1556 30.8574C38.9138 30.8574 39.5313 30.2399 39.5313 29.4818C39.5313 28.723 38.9138 28.1055 38.1556 28.1055C37.3975 28.1055 36.78 28.723 36.78 29.4818Z" fill="white"/>
</g>
<defs>
<filter id="filter0_d_709_31120" x="0" y="0" width="96" height="96" filterUnits="userSpaceOnUse" color-interpolation-filters="sRGB">
<feFlood flood-opacity="0" result="BackgroundImageFix"/>
<feColorMatrix in="SourceAlpha" type="matrix" values="0 0 0 0 0 0 0 0 0 0 0 0 0 0 0 0 0 0 127 0" result="hardAlpha"/>
<feOffset dy="8"/>
<feGaussianBlur stdDeviation="8"/>
<feComposite in2="hardAlpha" operator="out"/>
<feColorMatrix type="matrix" values="0 0 0 0 0.294118 0 0 0 0 0.203922 0 0 0 0 0.145098 0 0 0 0.05 0"/>
<feBlend mode="normal" in2="BackgroundImageFix" result="effect1_dropShadow_709_31120"/>
<feBlend mode="normal" in="SourceGraphic" in2="effect1_dropShadow_709_31120" result="shape"/>
</filter>
</defs>
</svg>
