<svg width="52" height="50" viewBox="0 0 52 50" fill="none" xmlns="http://www.w3.org/2000/svg">
<path d="M51.2222 26.1452V27.791L50.4948 29.7094L51.2222 32.395V43.7135L50.111 48.1736L31.9583 46.3033L17.2468 49.0835H0.0653687V26.1452C0.0653687 12.0206 11.519 0.566895 25.6436 0.566895C29.8024 0.566895 33.7302 1.55862 37.1986 3.31973C38.3022 3.88069 37.5365 5.34518 38.5405 6.05341C39.5643 6.77528 42.356 6.74352 43.2621 7.60242C43.4199 7.75467 43.5747 7.90403 43.7299 8.05891C48.3593 12.6884 51.2222 19.0842 51.2222 26.1452Z" fill="#C97A4D"/>
<path d="M25.0859 35.3359C23.3988 33.6603 21.1253 32.5878 18.7594 32.3512C16.3937 32.1147 13.9525 32.7159 11.9672 34.0239C10.8361 34.7691 9.7945 35.7595 8.46546 36.022C7.47479 36.2176 6.44027 35.9735 5.52336 35.5501C4.86737 35.2471 4.23265 34.8466 3.51445 34.7678C2.19617 34.6234 1.02858 35.5868 0.141327 36.5725L27.1263 36.52" fill="#FEE6D5"/>
<path d="M20.7353 14.0765C20.2189 14.9467 19.4716 15.6972 18.5216 16.224C15.6732 17.8032 12.0832 16.7745 10.5038 13.9261C8.92353 11.0758 9.95253 7.4859 12.8007 5.90644C13.7506 5.3796 14.7831 5.14335 15.7955 5.16829C14.7602 6.90787 14.6531 9.13886 15.7076 11.0407C16.7613 12.9406 18.7103 14.0313 20.7353 14.0765Z" fill="#FEE6D5"/>
<path d="M51.2272 27.7802V32.3503C50.4581 31.7163 49.5535 31.257 48.5786 31.0514C46.2935 30.5724 43.721 31.598 42.5432 33.6126C42.6051 33.531 42.6729 33.4549 42.7461 33.3845C43.7462 32.4125 45.5664 32.4632 46.6006 33.4381C47.7165 34.4834 47.8601 36.3374 47.0713 37.6446C46.8655 37.9885 46.6064 38.2899 46.3048 38.5492C46.0203 38.7944 45.7018 39.0028 45.3609 39.1719C44.6931 39.4987 43.9378 39.6648 43.1913 39.6452C42.3264 39.6226 41.4556 39.3719 40.785 38.828C40.0242 38.2137 39.5845 37.2811 39.3255 36.34C38.9367 34.9341 38.9196 33.4239 39.269 32.0122C39.3394 31.7305 39.4213 31.4486 39.5255 31.1753C39.7594 30.5217 40.0807 29.9017 40.4836 29.3326C41.9008 27.3376 44.3494 26.0839 46.7894 26.2275C47.6459 26.2781 48.4857 26.4923 49.2858 26.7966C49.9677 27.0559 50.6156 27.3885 51.2272 27.7802Z" fill="#B8B269"/>
<path d="M51.227 43.6941V49.0843H37.7729C38.3307 47.6416 39.5959 46.1991 40.4467 45.0804C41.2977 46.044 42.5175 46.5089 43.8109 46.616C44.7942 46.7005 45.8227 46.5737 46.7609 46.2976C48.4319 45.813 50.0012 44.9226 51.227 43.6941Z" fill="#B8B269"/>
<path d="M45.362 39.1716C44.6921 39.4976 43.9372 39.6651 43.1909 39.6446C42.3273 39.6241 41.4547 39.3714 40.7848 38.828C40.0238 38.214 39.5834 37.2826 39.3248 36.3397C38.9371 34.9354 38.9195 33.4255 39.2689 32.0122C39.3395 31.7302 39.4217 31.448 39.5246 31.175C39.545 32.7907 39.9621 34.3891 40.8113 35.7638C41.8338 37.4089 43.5083 38.6516 45.362 39.1716Z" fill="#3C2C11"/>
<path d="M42.8622 33.1838C42.6078 33.5857 42.4265 34.0328 42.3173 34.4958C42.2138 34.9347 42.1752 35.3972 42.2813 35.8356C42.4795 36.6544 43.2176 37.314 44.0537 37.4188C44.8898 37.5235 45.7678 37.0667 46.1621 36.3223C46.412 35.8503 46.4679 35.2626 46.2414 34.7793C46.0148 34.2958 45.4838 33.9511 44.953 34.0102C44.5766 34.0519 44.2285 34.2942 44.0584 34.6326C43.8883 34.9709 43.9017 35.3949 44.0928 35.722" stroke="#3C2C11" stroke-width="0.29379" stroke-miterlimit="10" stroke-linecap="round" stroke-linejoin="round"/>
<path d="M43.8457 48.3191C43.8373 48.5756 43.826 48.8291 43.8034 49.0856H17.1912C17.2053 48.9053 17.225 48.7249 17.2476 48.5446C17.2731 48.3362 17.304 48.1304 17.3405 47.9248C17.5463 46.7838 17.918 45.6736 18.4451 44.6394V44.6365C18.5297 44.4646 18.6226 44.2955 18.7184 44.1294C19.2988 43.1179 20.023 42.1966 20.6934 41.2442C21.0625 40.7145 21.4203 40.1651 21.7445 39.596C21.7642 39.5679 21.781 39.5367 21.798 39.5057C22.0545 39.0492 22.291 38.5788 22.4939 38.0997H22.4968C22.5052 38.08 22.5136 38.0604 22.5194 38.0407C22.5645 37.942 22.6039 37.8406 22.6433 37.7393C22.6488 37.7251 22.6546 37.7112 22.6601 37.6971C22.6769 37.6519 22.694 37.6068 22.7108 37.5619C22.8375 37.218 22.9502 36.8686 23.0376 36.5166C23.0657 36.4124 23.0882 36.3108 23.1108 36.2095C23.1166 36.184 23.1221 36.1617 23.125 36.1391C23.1447 36.0575 23.1588 35.9785 23.1727 35.8968C23.2234 35.6265 23.2573 35.3558 23.277 35.0826C23.2825 35.0093 23.2883 34.9332 23.2911 34.8571C23.2969 34.7809 23.2995 34.7048 23.2995 34.629C23.3024 34.3273 23.2854 34.026 23.2518 33.7189L36.4917 25.0603C36.5001 25.1393 36.5059 25.2152 36.5143 25.2884C36.5143 25.2997 36.5172 25.3081 36.5172 25.3194C36.6382 26.5818 36.6495 27.4044 36.7511 28.4526C36.8075 29.0472 36.8892 29.6417 36.9963 30.2305C36.9963 30.2305 36.9934 30.2334 36.9963 30.2334C37.4669 32.9101 38.4193 35.4994 39.8082 37.8354C40.0788 38.2806 40.3576 38.72 40.645 39.1539C40.6479 39.1539 40.6479 39.1568 40.6479 39.1568C40.6479 39.1597 40.6508 39.1597 40.6508 39.1623C40.6508 39.1652 40.6537 39.1652 40.6537 39.1678C40.913 39.565 41.175 39.9624 41.4315 40.3596C41.4315 40.3625 41.4343 40.3625 41.4343 40.3651C41.4372 40.3651 41.4372 40.368 41.4372 40.368C41.8796 41.0526 42.3022 41.743 42.6602 42.4672V42.4701C42.8235 42.7998 42.9757 43.1379 43.1083 43.4844C43.4944 44.4903 43.7168 45.544 43.8071 46.6176C43.8541 47.1809 43.8654 47.75 43.8457 48.3191Z" fill="#B8B269"/>
<path d="M30.2471 36.9812C29.31 38.3297 27.9028 39.3109 26.3721 39.9073C25.1735 40.3743 23.7868 40.6035 22.6205 40.0601C22.3178 39.9191 22.0417 39.728 21.7978 39.5049C22.6556 37.9801 23.2754 36.3263 23.299 34.6282C23.4342 34.6429 23.5662 34.6518 23.7014 34.6576C26.3632 34.781 29.0601 33.973 31.2163 32.4043C31.572 34.0082 31.1872 35.6357 30.2471 36.9812Z" fill="#3C2C11"/>
<path d="M42.5744 42.6834C42.8944 41.9432 43.048 41.0903 42.7802 40.3296C42.5125 39.5688 41.7371 38.9556 40.9383 39.0654C41.159 38.601 41.1291 38.0261 40.8611 37.5872C40.5933 37.1483 40.0956 36.8588 39.5817 36.8428C39.8171 36.4165 39.8959 35.8852 39.7053 35.4368C39.5147 34.9887 39.0215 34.6622 38.5416 34.7441C38.8876 34.4399 39.0325 33.9261 38.8968 33.4859C38.7611 33.0457 38.3519 32.7032 37.8946 32.6467C38.0211 32.307 38.1293 31.9516 38.1164 31.5894C38.1035 31.2271 37.9521 30.8533 37.6512 30.6509C37.5166 30.5604 37.3593 30.5079 37.2213 30.4226C36.8438 30.1892 36.648 29.6965 36.7627 29.2678C36.2141 32.2939 35.7119 35.409 36.6144 38.349C37.0142 39.6523 37.6733 40.9147 38.7204 41.7878C39.7675 42.6608 41.2837 43.1218 42.5744 42.6834Z" fill="#B8B269"/>
<path d="M35.9692 19.9769C36.0721 22.4565 37.5174 29.475 35.8663 32.5714C34.2328 35.6327 30.8778 37.5833 23.7126 36.7255C23.5687 37.0368 23.3395 37.3043 23.028 37.4571C22.5843 37.6715 22.032 37.6217 21.5973 37.3925C21.1595 37.1604 20.8306 36.7667 20.6103 36.332C20.2313 36.8108 19.5233 37.0106 18.9387 36.805C18.3541 36.5995 17.9399 36.0031 17.9575 35.3978C17.705 35.8325 17.1348 36.0616 16.6413 35.9264C16.1507 35.7884 15.7893 35.2977 15.81 34.7982C15.3606 35.1801 14.6789 35.2799 14.1324 35.0392C13.5711 34.7953 13.254 34.2548 13.1952 33.676C12.5608 34.243 11.6617 33.5939 11.3063 33.0208C11.1094 32.6977 11.0566 32.357 11.1065 32.0249C8.29515 30.3239 5.95365 27.6123 6.07702 23.1351C6.07991 22.9647 6.10065 22.7943 6.13582 22.6269C6.14763 22.5505 6.16811 22.4741 6.19174 22.3977C6.28571 22.0509 6.45029 21.722 6.67053 21.4283C8.36864 19.1808 13.8124 12.3739 18.1134 11.516C23.2752 10.482 25.3374 12.03 28.5368 11.6189C31.7361 11.2047 35.9695 10.8963 36.8979 12.9616C37.8259 15.0238 35.8666 17.5005 35.9692 19.9769Z" fill="#B8B269"/>
<path d="M11.9229 19.1777C11.463 19.2142 11.0186 19.4203 10.6936 19.7476C10.3686 20.075 10.1657 20.5209 10.1324 20.9811C10.6017 20.868 10.9871 20.7467 11.3661 20.448C11.7452 20.1495 12.0357 19.6471 11.9229 19.1777Z" fill="#30181B"/>
<path d="M15.7924 17.0793C15.7446 16.837 15.6262 16.6482 15.4572 16.5411C15.2965 16.4424 15.102 16.4144 14.8852 16.4679C14.5725 16.5469 14.2371 16.7918 14.0793 17.0654C13.9496 17.2796 13.9047 17.5077 13.9525 17.7135C14.0005 17.9303 14.1609 18.1277 14.3809 18.2461C14.5135 18.3138 14.6626 18.3474 14.8148 18.3474C15.1248 18.3474 15.4375 18.2064 15.6236 17.9586C15.7811 17.7416 15.8488 17.3893 15.7924 17.0793ZM15.4485 17.8261C15.2314 18.1135 14.8004 18.212 14.4849 18.0487C14.3187 17.9642 14.2003 17.8206 14.1664 17.6628C14.158 17.6289 14.1552 17.5896 14.1552 17.5528C14.1552 17.4315 14.1919 17.3021 14.2651 17.1753C14.3751 16.9892 14.6484 16.7527 14.9385 16.6824C14.9949 16.6682 15.0511 16.6627 15.1017 16.6627C15.1891 16.6627 15.2708 16.6853 15.3385 16.7275C15.4569 16.8008 15.5385 16.9417 15.5724 17.1192C15.6204 17.3696 15.5669 17.6597 15.4485 17.8261Z" fill="#30181B"/>
<path d="M17.6413 15.3554C17.5961 15.1131 17.4751 14.9186 17.3087 14.8144C17.148 14.7157 16.9509 14.6905 16.7367 14.7441C16.424 14.8202 16.0886 15.068 15.9279 15.3413C15.8011 15.5555 15.756 15.7836 15.8011 15.9865C15.8489 16.2062 16.0124 16.4036 16.2322 16.5191C16.3645 16.5894 16.5138 16.6204 16.6632 16.6204C16.9758 16.6204 17.2858 16.4823 17.4746 16.2288C17.6329 16.0177 17.7006 15.6654 17.6413 15.3554ZM17.2948 16.1022C17.0806 16.3897 16.6495 16.4881 16.3311 16.3248C16.1705 16.2403 16.0521 16.0938 16.0185 15.939C16.0101 15.9022 16.0043 15.8628 16.0043 15.8235C16.0043 15.7022 16.0437 15.5754 16.1169 15.4515C16.2269 15.2628 16.5002 15.0289 16.7902 14.9583C16.8467 14.9441 16.9002 14.9386 16.9509 14.9386C17.0412 14.9386 17.1199 14.9583 17.1903 15.0034C17.3087 15.0767 17.3903 15.2147 17.4242 15.3951C17.4722 15.6458 17.4187 15.9358 17.2948 16.1022Z" fill="#30181B"/>
<path d="M19.7171 13.7798C19.6694 13.5346 19.551 13.3459 19.3819 13.2388C19.2213 13.143 19.027 13.1149 18.8128 13.1685C18.4973 13.2446 18.1647 13.4898 18.0041 13.763C17.8744 13.9798 17.8295 14.2082 17.8773 14.4111C17.9279 14.628 18.0857 14.8282 18.3057 14.9437C18.4409 15.0141 18.5902 15.0451 18.7396 15.0451C19.0496 15.0451 19.3622 14.9041 19.5484 14.6563C19.7059 14.4392 19.7736 14.0898 19.7171 13.7798ZM19.3733 14.5266C19.1564 14.8141 18.7252 14.9125 18.4096 14.7492C18.2435 14.6647 18.1251 14.5211 18.0912 14.3631C18.0602 14.2137 18.0941 14.0418 18.1899 13.8756C18.3025 13.6898 18.5761 13.453 18.8661 13.3824C19.021 13.3456 19.1536 13.3598 19.2635 13.4275C19.3819 13.5008 19.4665 13.6389 19.4974 13.8192C19.5452 14.0701 19.4945 14.3573 19.3733 14.5266Z" fill="#30181B"/>
<path d="M22.0675 12.7039C22.0197 12.4617 21.9013 12.27 21.7323 12.1629C21.5745 12.0671 21.3774 12.0417 21.1661 12.0926C20.8477 12.1687 20.5151 12.4165 20.3547 12.6871C20.225 12.904 20.1801 13.1323 20.2279 13.3353C20.2786 13.5579 20.4363 13.7524 20.6563 13.8679C20.7915 13.9382 20.9409 13.9721 21.0931 13.9721C21.4002 13.9721 21.7157 13.834 21.899 13.5804C22.0591 13.366 22.1266 13.0166 22.0675 12.7039ZM21.7236 13.4505C21.5094 13.7379 21.0755 13.8393 20.76 13.6731C20.5938 13.5886 20.4783 13.445 20.4416 13.2898C20.4332 13.2531 20.4303 13.2166 20.4303 13.1772C20.4303 13.056 20.4668 12.9237 20.5429 12.8024C20.6529 12.6136 20.9262 12.3798 21.2136 12.3065C21.2727 12.2923 21.3262 12.2868 21.3769 12.2868C21.4643 12.2868 21.5459 12.3065 21.6136 12.3517C21.732 12.4249 21.8166 12.563 21.8504 12.7462C21.8956 12.994 21.8449 13.2843 21.7236 13.4505Z" fill="#30181B"/>
<path d="M31.8742 20.0071C31.8742 23.3629 29.1523 26.0819 25.7994 26.0819C22.4436 26.0819 19.7218 23.3629 19.7218 20.0071C19.7218 18.8576 20.0402 17.784 20.598 16.8655L21.2151 17.012L31.2374 19.376L31.8545 19.5225C31.8687 19.6829 31.8742 19.8435 31.8742 20.0071Z" fill="#FEE6D5"/>
<path d="M31.2718 20.0073C31.2718 23.0305 28.8206 25.482 25.7971 25.482C22.771 25.482 20.3198 23.0308 20.3198 20.0073C20.3198 18.9001 20.6466 17.8716 21.2131 17.0122L31.2354 19.3763C31.2606 19.5818 31.2718 19.7931 31.2718 20.0073Z" fill="#30181B"/>
<path d="M19.8752 16.7405L32.8243 19.8338" stroke="#30181B" stroke-width="0.281767" stroke-miterlimit="10" stroke-linecap="round" stroke-linejoin="round"/>
<path d="M27.0987 29.2817C28.7695 29.2817 30.124 28.2855 30.124 27.0565C30.124 25.8276 28.7695 24.8313 27.0987 24.8313C25.4278 24.8313 24.0734 25.8276 24.0734 27.0565C24.0734 28.2855 25.4278 29.2817 27.0987 29.2817Z" fill="#E8A9BD"/>
<path d="M5.94025 22.8599C9.61183 22.3658 13.4653 23.3996 16.3967 25.6652C16.9739 26.1115 17.5154 26.6018 18.0565 27.0916C18.62 27.6022 19.1839 28.1125 19.7475 28.6231" stroke="#30181B" stroke-width="0.281767" stroke-miterlimit="10" stroke-linecap="round" stroke-linejoin="round"/>
<path d="M24.4552 10.5277C24.4552 10.5277 29.0592 6.64296 35.9653 9.0409C42.8714 11.4388 44.8378 16.0909 45.4132 20.5032C45.9886 24.9156 46.1327 31.8217 46.1327 31.8217L33.3755 18.0573L24.4552 10.5277Z" fill="#FCCE7C"/>
<path d="M23.226 11.6591L35.5173 21.6165C36.0231 22.0263 36.7699 21.9237 37.1464 21.3924L37.6262 20.7154C37.9717 20.2276 37.8766 19.5551 37.4094 19.1826L25.1981 9.4444C24.7829 9.11339 24.193 9.1168 23.782 9.45307L23.222 9.91087C22.669 10.3634 22.6708 11.2095 23.226 11.6591Z" fill="#FEE6D5"/>
<path d="M46.2524 35.0338C48.0139 35.0338 49.4418 33.6058 49.4418 31.8444C49.4418 30.083 48.0139 28.655 46.2524 28.655C44.491 28.655 43.063 30.083 43.063 31.8444C43.063 33.6058 44.491 35.0338 46.2524 35.0338Z" fill="#FEE6D5"/>
<path d="M28.7227 37.6958L28.5508 38.713L28.3846 39.6992L28.3817 39.7189L27.0771 47.4674L27.0745 47.4758L26.8038 49.0846H17.379L17.2494 48.5436L17.1226 47.9997L15.3701 40.5641L14.6937 37.6958H28.7227Z" fill="#FEE6D5"/>
<path d="M16.0205 41.3092C15.6522 40.5626 14.796 40.114 13.9644 40.1505C13.1328 40.187 12.3526 40.6684 11.8696 41.3465C11.3866 42.0242 11.1855 42.8789 11.2191 43.7105C11.2669 44.896 11.7875 46.0557 12.6411 46.8794C13.4948 47.7032 14.6726 48.182 15.8588 48.1872C17.2532 48.1938 18.6802 47.4929 19.3553 46.2728" stroke="#FEE6D5" stroke-width="0.563509" stroke-miterlimit="10"/>
<path d="M15.1982 38.1517L28.0512 38.0557C28.0512 38.0557 26.7082 39.3506 21.8643 39.5905C17.0207 39.8304 15.1982 38.1517 15.1982 38.1517Z" fill="#30181B"/>
<path d="M33.5905 37.6731L32.4635 41.1741C32.4635 41.1741 25.2456 38.3923 24.7421 38.968C24.2386 39.5434 26.037 41.6298 26.037 41.6298C26.037 41.6298 23.0156 40.9822 22.7277 41.8455C22.44 42.7089 25.1737 43.7158 25.1737 43.7158C25.1737 43.7158 22.5838 43.8597 22.44 44.8669C22.2961 45.8741 29.9937 49.2551 33.5185 48.2482C37.0436 47.241 39.1297 43.5001 39.1297 43.5001L33.5905 37.6731Z" fill="#B8B269"/>
<path d="M33.2781 41.2224C33.2781 41.2224 25.029 38.4887 24.7413 38.9683C24.4536 39.4479 26.2281 41.75 26.2281 41.75C26.2281 41.75 22.871 40.7909 22.7271 41.8458C22.5833 42.9011 25.1731 43.7162 25.1731 43.7162C25.1731 43.7162 22.1998 44.0039 22.4394 45.0591C22.6791 46.1141 30.4486 49.2315 33.518 48.2485C36.5874 47.2654 39.1292 43.5004 39.1292 43.5004" stroke="#30181B" stroke-width="0.281767" stroke-miterlimit="10" stroke-linecap="round" stroke-linejoin="round"/>
<path d="M43.2632 7.60274L22.4354 7.61114C22.9906 5.90935 24.7627 4.68925 26.549 4.77955C28.0424 4.85568 29.3806 5.72901 30.8543 5.97996C32.0321 6.1771 33.2745 5.96027 34.3143 5.3686C35.1257 4.9066 35.7992 4.2388 36.5684 3.70907C36.7713 3.56811 36.9826 3.4387 37.1994 3.32031C39.4283 4.45274 41.4682 5.90095 43.2632 7.60274Z" fill="#FEE6D5"/>
</svg>
